<svg width="478" height="512" viewBox="0 0 478 512" fill="none" xmlns="http://www.w3.org/2000/svg">
<path d="M68.6186 34.3093H409.072V68.6186H443.381V374.763H409.072V409.072H68.6186V374.763H34.3093V68.6186H68.6186V34.3093Z" fill="white"/>
<path d="M0 34.3093H34.3093V68.6186H0V34.3093Z" fill="#BEC9CF"/>
<path d="M0 477.691H34.3093V443.381H0V477.691Z" fill="#BEC9CF"/>
<path d="M477.691 34.3093H443.381V68.6186H477.691V34.3093Z" fill="#BEC9CF"/>
<path d="M477.691 477.691H443.381V443.381H477.691V477.691Z" fill="#BEC9CF"/>
<path d="M34.3093 0H68.6186V34.3093H34.3093V0Z" fill="#BEC9CF"/>
<path d="M34.3093 512H68.6186V477.691H34.3093V512Z" fill="#BEC9CF"/>
<path d="M443.381 0H409.072V34.3093H443.381V0Z" fill="#BEC9CF"/>
<path d="M443.381 512H409.072V477.691H443.381V512Z" fill="#BEC9CF"/>
<path d="M34.3093 443.381H68.6186V477.691H409.072V443.381H443.381V374.763H409.072V409.072H68.6186V374.763H34.3093V443.381Z" fill="#7D929E"/>
<path d="M68.6186 0H409.072V34.3093H68.6186V0Z" fill="#655561"/>
<path d="M34.3093 68.6186V34.3093H68.6186V68.6186H34.3093Z" fill="#655561"/>
<path d="M34.3093 443.381H0V68.6186H34.3093V443.381Z" fill="#655561"/>
<path d="M68.6186 477.691V443.381H34.3093V477.691H68.6186Z" fill="#655561"/>
<path d="M409.072 477.691H68.6186V512H409.072V477.691Z" fill="#655561"/>
<path d="M443.381 443.381V477.691H409.072V443.381H443.381Z" fill="#655561"/>
<path d="M443.381 68.6186H477.691V443.381H443.381V68.6186Z" fill="#655561"/>
<path d="M443.381 68.6186V34.3093H409.072V68.6186H443.381Z" fill="#655561"/>
<path d="M137.237 134.598H171.546V271.835H137.237V134.598Z" fill="#655561"/>
<path d="M306.144 134.598H340.454V271.835H306.144V134.598Z" fill="#655561"/>
</svg>
