<?xml version="1.0" encoding="UTF-8" standalone="no"?>
<!-- Generator: Adobe Illustrator 19.0.0, SVG Export Plug-In . SVG Version: 6.00 Build 0)  -->

<svg
   version="1.1"
   id="Layer_1"
   x="0px"
   y="0px"
   viewBox="-124 126 50 50"
   style="enable-background:new -124 126 50 50;"
   xml:space="preserve"
   sodipodi:docname="asm.svg"
   inkscape:version="1.2 (dc2aedaf03, 2022-05-15)"
   xmlns:inkscape="http://www.inkscape.org/namespaces/inkscape"
   xmlns:sodipodi="http://sodipodi.sourceforge.net/DTD/sodipodi-0.dtd"
   xmlns="http://www.w3.org/2000/svg"
   xmlns:svg="http://www.w3.org/2000/svg"><defs
   id="defs24">
	
	

		
		
		
		
	
			
			
			
		</defs><sodipodi:namedview
   id="namedview22"
   pagecolor="#ffffff"
   bordercolor="#666666"
   borderopacity="1.0"
   inkscape:showpageshadow="2"
   inkscape:pageopacity="0.0"
   inkscape:pagecheckerboard="0"
   inkscape:deskcolor="#d1d1d1"
   showgrid="false"
   inkscape:zoom="4.72"
   inkscape:cx="7.2033898"
   inkscape:cy="25"
   inkscape:window-width="1920"
   inkscape:window-height="1017"
   inkscape:window-x="-8"
   inkscape:window-y="-8"
   inkscape:window-maximized="1"
   inkscape:current-layer="Layer_1" />
<style
   type="text/css"
   id="style2">
	.st0{fill:#25344C;}
	.st1{fill:#FFFFFF;}
</style>
<g
   id="g327"><path
     id="Rectangle"
     class="st0"
     d="m -119,126 h 40 c 2.8,0 5,2.2 5,5 v 40 c 0,2.8 -2.2,5 -5,5 h -40 c -2.8,0 -5,-2.2 -5,-5 v -40 c 0,-2.8 2.2,-5 5,-5 z" /><path
     class="st1"
     d="m -115,143.3 h 3.2 l 4.8,13.6 h -3.1 l -0.9,-2.8 h -5 l -0.9,2.8 h -3 z m -0.2,8.5 h 3.5 l -1.7,-5.4 z"
     id="path9" /><path
     class="st1"
     d="m -103.2,152.7 c 0.1,0.6 0.3,1.1 0.5,1.4 0.5,0.6 1.3,0.8 2.4,0.8 0.7,0 1.2,-0.1 1.7,-0.2 0.8,-0.3 1.2,-0.8 1.2,-1.6 0,-0.4 -0.2,-0.8 -0.6,-1 -0.4,-0.2 -1,-0.5 -1.9,-0.6 l -1.5,-0.3 c -1.4,-0.3 -2.4,-0.7 -3,-1 -0.9,-0.6 -1.4,-1.6 -1.4,-2.9 0,-1.2 0.4,-2.2 1.3,-3 0.9,-0.8 2.2,-1.2 4,-1.2 1.5,0 2.7,0.4 3.7,1.1 1,0.7 1.6,1.9 1.6,3.3 h -2.7 c -0.1,-0.8 -0.4,-1.4 -1.1,-1.7 -0.5,-0.2 -1,-0.3 -1.7,-0.3 -0.8,0 -1.4,0.1 -1.8,0.4 -0.4,0.3 -0.7,0.7 -0.7,1.2 0,0.5 0.2,0.8 0.7,1.1 0.3,0.2 0.9,0.3 1.8,0.6 l 2.4,0.6 c 1,0.2 1.8,0.6 2.4,1 0.8,0.6 1.2,1.6 1.2,2.8 0,1.2 -0.5,2.3 -1.4,3.1 -1,0.8 -2.3,1.2 -4.1,1.2 -1.8,0 -3.2,-0.4 -4.2,-1.2 -1,-0.8 -1.5,-1.9 -1.5,-3.3 h 2.7 z"
     id="path11" /><path
     class="st1"
     d="m -83.6,143.3 h 4.1 v 13.6 h -2.7 v -9.2 c 0,-0.3 0,-0.6 0,-1.1 0,-0.5 0,-0.8 0,-1.1 l -2.6,11.4 h -2.8 l -2.6,-11.4 c 0,0.3 0,0.6 0,1.1 0,0.5 0,0.8 0,1.1 v 9.2 h -2.7 v -13.6 h 4.1 L -86,154 Z"
     id="path13" /></g>

</svg>
