<?xml version="1.0" encoding="UTF-8" standalone="no"?>
<svg
   width="256"
   height="256"
   viewBox="0 0 26.2144 26.218357"
   preserveAspectRatio="xMinYMin"
   version="1.1"
   id="svg1"
   sodipodi:docname="bem.svg"
   inkscape:version="1.3 (0e150ed6c4, 2023-07-21)"
   xmlns:inkscape="http://www.inkscape.org/namespaces/inkscape"
   xmlns:sodipodi="http://sodipodi.sourceforge.net/DTD/sodipodi-0.dtd"
   xmlns="http://www.w3.org/2000/svg"
   xmlns:svg="http://www.w3.org/2000/svg">
  <defs
     id="defs1" />
  <sodipodi:namedview
     id="namedview1"
     pagecolor="#ffffff"
     bordercolor="#666666"
     borderopacity="1.0"
     inkscape:showpageshadow="2"
     inkscape:pageopacity="0.0"
     inkscape:pagecheckerboard="0"
     inkscape:deskcolor="#d1d1d1"
     inkscape:zoom="1.4670799"
     inkscape:cx="0.34081307"
     inkscape:cy="113.49075"
     inkscape:window-width="1920"
     inkscape:window-height="1017"
     inkscape:window-x="-8"
     inkscape:window-y="-8"
     inkscape:window-maximized="1"
     inkscape:current-layer="svg1" />
  <path
     d="M 2.7841651,7.2538472 H 7.6030148 V 8.6711606 H 2.7841651 Z m 0,-2.6322111 H 7.6030148 V 6.0389496 H 2.7841651 Z M 11.429914,9.8657686 H 2.7841651 V 11.283082 H 11.10592 c 0.911114,0 3.037043,0.02021 3.826739,1.295816 V 11.789283 C 14.547956,10.533886 13.414138,9.8657686 11.429834,9.8657686 Z m 0.02013,2.6321304 H 2.7841651 v 1.417315 H 11.10592 c 2.024723,0 3.300329,0.081 3.826739,0.364493 v -0.627698 c -0.404993,-0.992112 -2.10572,-1.15411 -3.482535,-1.15411 z m -0.02013,6.681656 H 2.7841651 V 17.762242 H 11.10592 c 0.911114,0 3.037043,-0.02021 3.826739,-1.295816 v 0.789615 c -0.384703,1.255397 -1.518521,1.923514 -3.502825,1.923514 z m 0.02013,-2.63213 H 2.7841651 V 15.130111 H 11.10592 c 2.024723,0 3.300329,-0.081 3.826739,-0.364494 v 0.627699 c -0.404993,0.992111 -2.10572,1.154109 -3.482535,1.154109 z m 5.588336,5.082135 h 6.357742 v -0.870695 h -6.175538 c -0.5467,0 -1.842436,-0.02021 -2.308136,-0.769405 v 0.485992 c 0.222705,0.749115 0.911112,1.154108 2.125929,1.154108 z m -0.02021,-1.5996 h 6.357741 v -0.870614 h -6.155325 c -1.235108,0 -2.004513,-0.0405 -2.308218,-0.222706 v 0.384703 c 0.242916,0.607408 1.275526,0.708617 2.105721,0.708617 z"
     fill="#010101"
     id="path1"
     style="stroke-width:1.53623186;stroke:#ffffff;stroke-opacity:1;stroke-dasharray:none;paint-order:stroke fill markers" />
</svg>
