<?xml version="1.0" encoding="UTF-8" standalone="no"?>
<svg
   data-name="biome-logo"
   viewBox="0 0 425 425.00001"
   version="1.0"
   id="svg2"
   sodipodi:docname="biome.svg"
   width="425"
   height="425"
   inkscape:version="1.3 (0e150ed6c4, 2023-07-21)"
   xmlns:inkscape="http://www.inkscape.org/namespaces/inkscape"
   xmlns:sodipodi="http://sodipodi.sourceforge.net/DTD/sodipodi-0.dtd"
   xmlns="http://www.w3.org/2000/svg"
   xmlns:svg="http://www.w3.org/2000/svg"
   xmlns:rdf="http://www.w3.org/1999/02/22-rdf-syntax-ns#"
   xmlns:cc="http://creativecommons.org/ns#"
   xmlns:dc="http://purl.org/dc/elements/1.1/">
  <defs
     id="defs2" />
  <sodipodi:namedview
     id="namedview2"
     pagecolor="#ffffff"
     bordercolor="#666666"
     borderopacity="1.0"
     inkscape:showpageshadow="2"
     inkscape:pageopacity="0.0"
     inkscape:pagecheckerboard="0"
     inkscape:deskcolor="#d1d1d1"
     inkscape:zoom="0.41788253"
     inkscape:cx="721.49463"
     inkscape:cy="218.96106"
     inkscape:window-width="1629"
     inkscape:window-height="919"
     inkscape:window-x="201"
     inkscape:window-y="55"
     inkscape:window-maximized="0"
     inkscape:current-layer="svg2" />
  <title
     id="title1">Biome</title>
  <path
     fill="#f7b911"
     d="m 339.70103,237.41519 a 84.115764,84.115764 0 0 0 -13.90415,-20.98576 l -8.8952,-7.77251 c -1.46814,-1.29541 -1.72722,-2.59083 -0.34544,-3.79989 a 68.743478,68.743478 0 0 0 17.7904,-23.05843 79.452261,79.452261 0 0 0 6.30436,-23.31751 58.639223,58.639223 0 0 0 0,-13.21324 q -1.38178,-14.94048 -3.109,-19.86307 -1.1227,-4.49078 -2.24539,-7.77251 C 325.79688,93.192066 303.94751,76.783446 289.78428,68.406415 A 119.43748,119.43748 0 0 0 276.3983,62.965662 141.02776,141.02776 0 0 0 252.21718,57.438548 127.12362,127.12362 0 0 0 233.90861,55.711325 H 76.126782 V 127.82289 H 229.50419 a 67.707144,67.707144 0 0 1 15.02685,1.72722 c 6.56344,1.38178 12.17692,4.14533 15.28592,10.53607 a 31.608182,31.608182 0 0 1 1.89995,9.93153 v 7.25434 a 17.013147,17.013147 0 0 1 -4.83623,9.15428 29.362792,29.362792 0 0 1 -18.30856,6.47709 c -11.74512,0.86361 -23.5766,0.17272 -35.40808,0.34544 H 76.126782 v 196.03981 h 72.111568 c 2.24539,0 2.59083,-0.8636 2.59083,-2.93628 V 249.33304 c 0,-6.30437 0,-6.30437 6.21801,-6.30437 h 77.63867 a 49.571302,49.571302 0 0 1 24.69929,5.35439 0.69088923,0.69088923 0 0 0 0.43181,0 l 2.50447,2.33174 a 25.044735,25.044735 0 0 1 6.56345,27.46286 24.353845,24.353845 0 0 1 -8.46339,10.96787 42.144243,42.144243 0 0 1 -22.28118,7.08161 c -9.84517,0.17273 -19.69034,0 -29.53551,0 -2.50448,0 -3.19537,0.86361 -3.19537,3.109 v 63.73453 c 0,6.04528 0,6.30436 6.13165,6.04528 a 348.8127,348.8127 0 0 0 39.29432,-1.1227 q 20.38123,-2.84992 34.71718,-6.90889 a 10.276977,10.276977 0 0 0 0.60453,-0.25908 105.01516,105.01516 0 0 0 29.70824,-15.45864 56.13475,56.13475 0 0 0 13.99051,-13.81779 4.4044188,4.4044188 0 0 0 0.86361,-0.86361 76.170537,76.170537 0 0 0 13.9905,-28.06737 152.68652,152.68652 0 0 0 3.62717,-18.13584 81.784012,81.784012 0 0 0 -8.63611,-46.98047 z M 199.45051,124.71389 Z"
     id="path1"
     style="stroke-width:0.863612" />
  <metadata
     id="metadata2">
    <rdf:RDF>
      <cc:Work
         rdf:about="">
        <dc:title>Biome</dc:title>
      </cc:Work>
    </rdf:RDF>
  </metadata>
</svg>
