<?xml version="1.0" encoding="UTF-8" standalone="no"?>
<svg
   fill="#ffffff"
   viewBox="0 0 512 512"
   version="1.1"
   id="svg153"
   sodipodi:docname="carbon.svg"
   width="512"
   height="512"
   inkscape:version="1.2 (dc2aedaf03, 2022-05-15)"
   xml:space="preserve"
   xmlns:inkscape="http://www.inkscape.org/namespaces/inkscape"
   xmlns:sodipodi="http://sodipodi.sourceforge.net/DTD/sodipodi-0.dtd"
   xmlns="http://www.w3.org/2000/svg"
   xmlns:svg="http://www.w3.org/2000/svg"><defs
     id="defs157" /><sodipodi:namedview
     id="namedview155"
     pagecolor="#ffffff"
     bordercolor="#666666"
     borderopacity="1.0"
     inkscape:showpageshadow="2"
     inkscape:pageopacity="0.0"
     inkscape:pagecheckerboard="0"
     inkscape:deskcolor="#d1d1d1"
     showgrid="false"
     inkscape:zoom="0.44950088"
     inkscape:cx="-40.044415"
     inkscape:cy="375.97257"
     inkscape:window-width="1920"
     inkscape:window-height="1017"
     inkscape:window-x="-8"
     inkscape:window-y="-8"
     inkscape:window-maximized="1"
     inkscape:current-layer="svg153" /><linearGradient
     id="b"
     x1="2631.3613"
     x2="2631.3613"
     y1="256.06635"
     y2="4659.3882"
     gradientTransform="scale(1.1286933,0.88598026)"
     gradientUnits="userSpaceOnUse"><stop
       offset="0%"
       stop-color="#34aadc"
       id="stop134" /><stop
       offset="100%"
       stop-color="#007aff"
       id="stop136" /></linearGradient><path
     style="fill:#000000;stroke-width:1.50091"
     d="M 228.4263,467.78717 C 206.24805,464.88554 178.06354,456.00341 157.1034,445.31035 123.6924,428.26532 85.663207,390.23613 68.61818,356.82513 49.172882,318.70919 40.928466,273.79188 46.087444,234.07297 52.251101,186.61915 71.916513,146.35282 105.33368,112.76199 122.10162,95.906926 126.99708,91.826518 142.5283,81.759875 174.30992,61.160482 215.5492,49.185579 254.70803,49.185579 c 45.39285,0 88.79993,14.580378 126.82999,42.602038 7.76051,5.718155 34.88474,32.842383 40.60289,40.602893 28.02166,38.03007 42.60204,81.43714 42.60204,126.82999 0,41.45398 -12.01573,80.83502 -35.68714,116.96312 -8.43481,12.87348 -35.76471,41.92328 -47.51779,50.50813 -31.19262,22.78415 -64.70617,36.34657 -101.68245,41.14934 -12.74966,1.65601 -38.56652,1.62895 -51.42927,-0.0539 z m 47.91025,-78.08951 c 24.27059,-4.48665 46.29945,-21.43583 57.11255,-43.94284 5.99397,-12.47616 9.76546,-24.55735 9.7949,-31.37583 l 0.0178,-4.12751 h -15.70172 -15.70171 l -1.59355,6.37887 c -0.87646,3.50839 -2.29803,9.08052 -3.15908,12.38252 -2.35417,9.02797 -11.71226,21.90463 -19.89196,27.37124 -9.90059,6.61666 -17.35554,8.32614 -33.28165,7.6317 -12.4894,-0.54457 -14.22653,-1.01858 -22.51367,-6.14312 -10.08609,-6.23697 -16.81559,-14.38811 -22.51113,-27.26672 -8.06163,-18.22876 -8.93741,-25.13218 -8.96088,-70.63502 -0.0234,-45.48424 0.57285,-50.49819 8.31072,-69.87719 5.77467,-14.46232 14.94854,-25.11873 26.50008,-30.7826 7.6468,-3.74934 10.41133,-4.27127 22.95261,-4.33339 12.82975,-0.0635 15.08591,0.35884 22.51366,4.21487 16.4312,8.53007 23.50425,18.93483 29.99165,44.1189 l 1.6432,6.37888 h 15.70171 15.70172 v -4.1874 c 0,-6.99163 -4.35573,-21.44821 -10.04386,-33.33539 -7.76806,-16.2338 -22.76089,-30.77579 -38.47425,-37.31729 -23.8869,-9.94414 -51.43143,-9.69903 -74.1627,0.65993 -9.27701,4.22769 -13.75689,7.56115 -23.20564,17.26727 -6.44009,6.61551 -11.70924,12.68492 -11.70924,13.48759 0,0.8027 -1.62058,4.02658 -3.60129,7.16421 -5.02443,7.95923 -12.4845,31.74637 -14.34813,45.75038 -2.04572,15.37235 -2.00678,66.64712 0.062,81.52057 4.38448,31.52332 18.99128,59.88052 37.93364,73.64329 20.56739,14.94345 44.59171,20.16646 70.62427,15.35408 z"
     id="path262" /></svg>
