<?xml version="1.0" encoding="UTF-8" standalone="no"?>
<svg
   version="1.0"
   width="1365.333"
   height="1365.333"
   viewBox="0 0 1024 1024"
   id="svg6"
   sodipodi:docname="deno.svg"
   inkscape:version="1.2 (dc2aedaf03, 2022-05-15)"
   xmlns:inkscape="http://www.inkscape.org/namespaces/inkscape"
   xmlns:sodipodi="http://sodipodi.sourceforge.net/DTD/sodipodi-0.dtd"
   xmlns="http://www.w3.org/2000/svg"
   xmlns:svg="http://www.w3.org/2000/svg">
  <defs
     id="defs10" />
  <sodipodi:namedview
     id="namedview8"
     pagecolor="#ffffff"
     bordercolor="#666666"
     borderopacity="1.0"
     inkscape:showpageshadow="2"
     inkscape:pageopacity="0.0"
     inkscape:pagecheckerboard="0"
     inkscape:deskcolor="#d1d1d1"
     showgrid="false"
     inkscape:zoom="0.1728516"
     inkscape:cx="196.70052"
     inkscape:cy="682.6665"
     inkscape:window-width="1920"
     inkscape:window-height="1017"
     inkscape:window-x="1912"
     inkscape:window-y="-8"
     inkscape:window-maximized="1"
     inkscape:current-layer="svg6" />
  <path
     d="m 467.85165,28.536303 c -2.27513,0.23949 -9.57946,1.077694 -16.16535,1.676407 -93.63922,9.818947 -185.84155,49.453966 -261.04032,112.43893 -13.89021,11.49535 -45.50244,43.10758 -56.99779,56.99779 C 71.381686,274.01 34.979737,357.47106 21.568492,456.25925 c -2.993582,21.91302 -2.993582,95.91435 0,117.82738 13.411245,98.7882 49.813194,182.24924 112.079698,256.60982 11.49535,13.89022 43.10758,45.50244 56.99779,56.9978 74.36057,62.26649 157.82163,98.66845 256.60983,112.07969 21.91301,2.99356 95.91436,2.99356 117.82737,0 98.7882,-13.41124 182.24926,-49.8132 256.60982,-112.07969 13.89022,-11.49536 45.50244,-43.10758 56.9978,-56.9978 62.26649,-74.36058 98.66845,-157.82162 112.07969,-256.60982 2.99358,-21.91303 2.99358,-95.91436 0,-117.82738 C 977.35925,357.47106 940.95729,274.01 878.6908,199.64943 867.19544,185.75922 835.58322,154.14699 821.693,142.65164 747.57191,80.624625 663.27265,43.743696 565.80164,30.691679 555.26423,29.254762 539.9371,28.656048 511.55794,28.416558 489.88441,28.177079 470.12677,28.296813 467.85165,28.536303 Z m 5.98716,51.729087 c 0,14.009966 0.95795,44.42475 2.27512,73.28289 0.71846,14.1297 1.55666,34.36632 1.9159,44.90372 1.31717,37.3599 5.2687,135.42964 5.86741,144.17089 l 0.59872,8.74126 -5.38845,-0.59871 c -2.99358,-0.23949 -5.74767,-0.95795 -6.22665,-1.31719 -0.35923,-0.47897 -1.19743,-8.74125 -1.6764,-18.44045 -2.15539,-42.62861 -9.22023,-207.99405 -9.93869,-232.182201 l -0.71846,-26.583002 3.35281,-0.478969 c 1.79615,-0.23949 4.78973,-0.598725 6.70562,-0.718459 l 3.23307,-0.119745 z m 114.5943,-2.873836 c 0.11975,0.119745 0.47898,36.282216 0.83821,80.347736 0.47898,44.18526 1.07769,83.82029 1.43691,88.13104 0.35924,4.4305 0.23949,8.26229 -0.35922,8.50178 -0.47898,0.35922 -3.47256,0.35922 -6.46614,0 l -5.50819,-0.47898 -0.8382,-34.84529 c -0.47898,-19.27867 -1.07769,-40.59297 -1.31718,-47.53808 -0.95794,-21.19455 -1.79614,-93.160257 -1.07768,-94.95641 0.47897,-1.317173 1.79614,-1.436918 6.82536,-0.598714 3.47255,0.718459 6.34639,1.317173 6.46613,1.436918 z M 311.46693,117.50555 c 0.71847,1.07769 6.3464,67.05623 13.29151,153.39112 2.27512,29.33711 4.55024,56.1596 4.90948,59.51241 0.59871,6.1069 0.47897,6.34639 -3.35282,8.74126 -2.15537,1.31717 -4.31075,2.39486 -4.78973,2.39486 -0.35922,0 -1.07768,-3.11332 -1.43692,-6.94511 -1.67641,-15.56662 -8.14254,-90.76539 -12.69278,-145.12883 -2.63436,-31.97146 -5.02922,-60.5901 -5.38845,-63.70342 -0.59871,-5.26871 -0.47898,-5.74769 2.63435,-7.42408 3.83178,-2.03565 5.98717,-2.39487 6.82536,-0.83821 z m 329.65322,24.06839 c 3.35281,1.19744 3.71205,1.79616 4.43051,8.62152 1.19743,11.97433 0.8382,69.21162 -0.47898,69.21162 -3.47255,0 -10.65715,-4.07128 -11.25587,-6.3464 -0.35923,-1.43692 -0.71845,-18.44046 -0.71845,-37.71913 0,-38.91656 -0.47897,-36.64144 8.02279,-33.76761 z m -221.16581,5.62794 c 0,3.23307 0.83821,21.07481 1.79615,39.87451 0.95794,18.79969 2.03564,42.6286 2.51461,52.92653 0.8382,20.83532 1.07769,20.11686 -6.94511,20.59584 -3.95153,0.11974 -3.95153,0.11974 -4.19101,-5.86743 -0.23949,-3.3528 -0.83821,-13.77047 -1.55666,-23.34993 -0.59873,-9.57947 -2.03565,-30.29505 -2.99359,-46.10116 -0.95794,-15.80611 -2.15538,-31.49248 -2.51461,-34.84529 -0.71846,-5.98716 -0.59871,-6.22665 2.63435,-7.42409 1.9159,-0.71846 5.2687,-1.31717 7.42409,-1.31717 3.83178,-0.11975 3.83178,-0.11975 3.83178,5.50819 z m 332.16782,16.40482 4.07127,1.67641 0.83821,16.0456 c 0.35922,8.74126 0.59871,27.6607 0.35922,41.91015 l -0.35922,26.10402 -5.02923,-2.5146 -5.02921,-2.39486 -0.35923,-39.75477 c -0.23948,-21.91302 -0.11974,-40.47322 0.11974,-41.31143 0.47898,-1.79615 0.47898,-1.79615 5.38845,0.23948 z m -218.65121,15.68638 c 0.71846,0.71846 2.39487,58.79394 2.51462,88.25079 l 0.11974,17.72199 -5.62794,-0.83819 c -3.23307,-0.35923 -5.86741,-0.71847 -5.98716,-0.8382 -0.35923,-0.23949 -3.95153,-88.96925 -3.95153,-97.59077 v -8.861 l 6.10691,0.71846 c 3.47256,0.47897 6.46614,1.07768 6.82536,1.43692 z m 275.76875,8.50177 c 1.43692,1.67641 1.6764,27.90018 2.03564,172.55004 0.35922,166.08392 0.35922,170.39467 -1.79616,170.39467 -1.31717,0 -3.11332,-0.71846 -4.19101,-1.55666 -1.79615,-1.31718 -2.03564,-15.80611 -2.63435,-157.70188 -0.47897,-85.97567 -1.07769,-164.04828 -1.43692,-173.50799 l -0.71846,-17.24304 3.47255,2.51462 c 2.03564,1.43691 4.31077,3.47255 5.26871,4.55024 z m -107.40971,24.54737 c 0.59871,0.47897 1.19743,7.30434 1.31717,15.08765 0.59873,26.46326 0.71846,188.71539 0.11975,189.19437 -0.23949,0.23947 -2.39487,-0.35924 -4.78974,-1.31719 l -4.31075,-1.79614 v -203.6833 l 3.35282,0.71846 c 1.79614,0.47897 3.71203,1.19744 4.31075,1.79615 z m -330.49142,6.70562 c 0.35924,3.23307 0.95795,10.53741 1.31717,16.52457 0.35924,5.86743 1.19744,19.27867 1.9159,29.69634 1.43692,21.07481 1.19743,22.39198 -5.62794,22.39198 -3.59229,0 -4.07126,-0.35922 -4.55024,-3.95153 -1.19743,-7.06484 -5.38845,-65.97853 -4.78972,-66.93648 0.59871,-0.8382 6.82536,-2.99358 9.6992,-3.23307 0.71846,-0.11975 1.67641,2.39487 2.03563,5.50819 z m -198.05536,30.53453 c 1.31717,12.69279 3.95153,39.2758 5.86743,59.03344 2.03563,19.75763 3.71204,36.52169 3.71204,37.24015 0,1.43692 -9.22024,5.98716 -10.17819,5.02922 -0.59871,-0.59872 -12.57304,-106.57151 -12.57304,-111.36124 0,-2.87384 9.22023,-14.96791 10.41767,-13.65073 0.35922,0.23949 1.55666,10.89664 2.75409,23.70916 z m 469.51335,12.57305 3.47256,2.03563 0.11974,25.86455 c 0.11974,14.12971 0.35923,29.93581 0.35923,35.08477 0.23949,10.7769 -1.0777,12.57305 -7.54383,10.29793 l -3.71204,-1.31717 V 323.8232 c 0,-5.74767 -0.35923,-22.39199 -0.8382,-37.12041 l -0.71846,-26.58301 h 2.75409 c 1.43692,0 4.19102,0.95795 6.10691,2.03564 z M 225.8505,308.61581 c 2.15539,22.9907 5.62794,61.78752 7.90306,86.21515 l 4.07127,44.305 -4.66999,4.66999 -4.55024,4.66999 -0.8382,-9.45972 c -0.47897,-5.2687 -2.87384,-29.69633 -5.38845,-54.36345 -2.51461,-24.6671 -6.10691,-60.47034 -7.90306,-79.50952 l -3.3528,-34.48606 4.66998,-4.31076 c 4.19101,-3.95153 4.66998,-4.07127 5.50819,-1.91589 0.47898,1.19743 2.51461,21.07481 4.55024,44.18527 z m -89.6877,14.48893 c 2.63435,23.58942 9.57946,86.33489 15.56662,139.38117 5.98717,53.04626 11.6151,104.17663 12.69279,113.7561 0.95795,9.57945 2.63435,24.06839 3.5923,32.33068 1.6764,14.00996 1.6764,14.96791 -0.23949,16.40482 -2.87384,2.15538 -4.07127,1.9159 -4.07127,-0.59871 0,-1.07769 -1.07769,-10.17818 -2.39486,-19.99713 -2.15538,-16.40482 -5.74769,-44.18526 -13.77048,-106.57151 -1.67641,-12.57304 -4.90948,-37.59938 -7.1846,-55.68062 -2.39487,-18.08123 -5.86742,-45.02346 -7.78331,-59.87162 -1.91589,-14.84817 -5.14896,-40.23375 -7.18459,-56.63857 -2.15538,-16.28509 -3.47257,-30.77402 -3.11333,-32.33068 0.8382,-3.23307 7.90306,-14.48894 8.62152,-13.77048 0.23948,0.35923 2.63434,19.87738 5.2687,43.58655 z m -36.641438,51.60934 c 1.796138,14.3692 5.148958,40.59297 7.424078,58.43472 2.27512,17.72201 5.14896,39.87451 6.46613,49.09474 l 2.27512,16.76406 -2.5146,2.15538 c -1.43692,1.19744 -2.87383,1.6764 -3.35281,1.19744 -0.47897,-0.47898 -1.43692,-5.26872 -2.15538,-10.53742 -0.71846,-5.2687 -5.14896,-36.04273 -9.938691,-68.25365 l -8.501773,-58.67421 2.754091,-8.14254 c 1.436928,-4.4305 2.993591,-8.02281 3.352815,-8.02281 0.478969,0 2.275122,11.73485 4.19102,25.98429 z M 756.91189,359.02772 c 1.67641,1.67641 1.9159,9.10049 1.9159,64.06265 v 62.14675 h -3.35282 c -7.30434,0 -7.1846,1.79616 -7.66357,-66.21802 l -0.35923,-61.90728 h 3.83178 c 2.03565,0 4.66999,0.83821 5.62794,1.9159 z m -262.11801,21.43405 c 27.06198,4.07127 50.65141,11.61509 74.00134,23.58942 15.08765,7.78331 22.27225,13.17176 39.03631,29.21736 24.90659,23.82891 40.23373,44.66423 54.60293,74.12108 20.95506,42.86809 29.09761,80.8267 39.39553,182.60848 4.66999,45.62219 10.77689,128.36478 12.09407,162.25213 0.35923,9.81894 1.19744,25.98428 1.91589,35.92297 1.31718,21.07482 2.87384,18.20098 -15.68637,27.18172 -25.7448,12.4533 -50.53166,21.07482 -83.22157,29.09762 -39.99425,9.81895 -65.8588,12.93228 -105.37407,13.05201 l -28.73839,0.11975 0.23949,-13.77048 c 0,-7.54382 0.71846,-25.14608 1.43692,-38.91656 3.5923,-66.697 2.87383,-150.87652 -1.79614,-197.57639 -2.63436,-26.82248 -7.78332,-59.39266 -10.65715,-66.57725 -0.59873,-1.55666 2.15537,-2.87385 14.00995,-6.94511 21.67354,-7.54383 40.47322,-17.00355 43.34707,-21.67353 5.14896,-8.861 -4.07127,-21.55379 -15.80612,-21.55379 -2.03563,0 -8.14254,2.15537 -13.77047,4.66998 -26.8225,12.33356 -80.58722,26.8225 -111.60073,30.05557 -21.43404,2.27512 -54.72267,0.95794 -77.83312,-3.23307 -12.57305,-2.27512 -35.08477,-10.7769 -53.88447,-20.4761 -21.67353,-11.25587 -34.96503,-26.22378 -38.91656,-43.94578 -2.15538,-9.57946 -1.55667,-28.73838 1.19744,-39.51528 2.99358,-11.85459 11.3756,-29.09761 19.03917,-39.15605 34.12683,-44.90372 104.53587,-83.82028 176.74107,-97.47101 22.9907,-4.31077 55.56087,-4.78973 80.22798,-1.07769 z m 369.40798,3.71204 c 4.31076,1.79615 4.78972,2.27512 4.78972,6.34639 0.23949,32.68991 -0.47896,107.40971 -1.07768,110.52303 -0.11974,1.0777 -6.34639,1.19744 -8.98074,0.23949 -1.67641,-0.59871 -1.9159,-7.06485 -1.9159,-59.87164 0,-37.83886 0.47898,-59.15316 1.19744,-59.15316 0.59871,0 3.35281,0.83819 5.98716,1.91589 z m 52.3278,65.73905 4.31077,1.79615 -0.83821,99.14742 c -0.95795,126.32915 -1.07769,130.04119 -5.62793,140.93783 -7.42408,17.84174 -7.06486,21.43404 -6.3464,-56.87806 0.23949,-39.15605 0.8382,-78.79107 1.07769,-88.0113 0.23949,-9.22023 0.47897,-35.20452 0.59872,-57.83599 0,-27.30146 0.35923,-40.9522 1.19744,-40.9522 0.71846,0 3.23306,0.8382 5.62792,1.79615 z m -720.136,29.81607 c 0.71846,9.6992 0.47897,10.65715 -2.99358,18.32072 l -3.83178,8.14255 -1.43692,-11.97433 c -2.27512,-19.15893 -2.27512,-19.99713 2.27512,-22.87097 2.03563,-1.43691 4.19101,-2.39486 4.55024,-2.15537 0.35923,0.23949 1.07769,5.02921 1.43692,10.5374 z m -74.00134,72.2052 c 1.07769,9.81894 9.45972,74.95928 13.77048,106.93073 6.46613,49.45397 6.94511,56.51882 4.07126,53.52524 -0.35922,-0.35923 -3.11332,-17.00355 -5.98716,-37.00067 -18.67994,-129.08324 -18.56021,-128.24504 -17.00354,-129.20299 3.23307,-2.15537 4.31076,-0.95795 5.14896,5.74769 z m 86.21515,54.84241 c 0.71846,2.99358 4.19102,35.44401 4.19102,39.39553 0,3.35281 -4.31076,6.46614 -6.22665,4.55025 -0.59872,-0.59872 -2.15539,-10.77689 -3.35281,-22.51174 -1.31718,-11.85459 -2.63436,-24.18813 -2.99358,-27.4212 l -0.71846,-5.98716 4.19101,4.78972 c 2.39486,2.63436 4.55024,5.86743 4.90947,7.1846 z m 96.63282,45.14321 c 1.31718,1.19743 2.15538,5.98716 3.23306,18.91943 1.79616,23.34995 2.03565,21.55379 -2.87383,21.55379 -5.02921,0 -4.90947,0.35924 -6.58588,-20.71558 -1.67641,-21.43405 -1.67641,-21.19456 1.55667,-21.19456 1.55666,0 3.59229,0.71846 4.66998,1.43692 z m 94.83667,1.79615 c 0.23948,1.19743 0.83821,8.38203 1.31717,15.92586 0.35923,7.54382 1.43692,24.54737 2.39487,37.71912 3.35281,48.37628 3.47255,54.48319 1.43692,54.48319 -2.27512,0 -2.51461,-1.79615 -5.14896,-35.92298 -0.95795,-14.1297 -2.7541,-36.40195 -3.95153,-49.45397 -1.07769,-13.05202 -1.79615,-23.94866 -1.43692,-24.18815 1.31718,-1.43691 4.78973,-0.35922 5.38845,1.43693 z m -225.11734,22.99071 c 0.71846,1.07768 5.2687,39.39553 10.89664,91.72334 1.6764,15.80611 3.3528,31.0135 3.71204,33.88734 l 0.59871,5.14897 -2.99358,-1.9159 c -2.27512,-1.55666 -3.11333,-3.11333 -3.11333,-5.86742 0,-7.54382 -5.14895,-57.23728 -9.10048,-87.65207 -2.27513,-17.24303 -4.07128,-32.45042 -4.07128,-33.88734 0,-2.51461 2.87385,-3.47256 4.07128,-1.43692 z m 691.03838,50.05268 -0.8382,50.05269 -2.99358,4.4305 c -6.82537,10.05844 -6.46613,11.97432 -6.10691,-44.06553 l 0.23949,-51.36985 4.4305,-4.55025 c 2.39487,-2.39486 4.78973,-4.4305 5.2687,-4.4305 0.35924,0 0.35924,22.51173 0,49.93294 z m -110.76252,79.38978 c 0.59872,69.57084 0.47898,74.95929 -1.43691,77.11467 -1.19743,1.31718 -2.27513,2.15538 -2.63435,1.79615 -0.8382,-0.95795 -2.03564,-152.67266 -1.07769,-153.51087 0.47897,-0.47898 1.6764,-0.71845 2.75409,-0.59871 1.55666,0.35922 1.91589,8.861 2.39486,75.19876 z m -391.0815,-47.65781 c 0.83821,7.42408 3.83179,42.98783 5.02921,59.75188 0.71846,11.25588 0.71846,11.6151 -1.91588,12.45331 -1.43693,0.47898 -3.11333,0.35923 -3.59231,-0.23948 -0.8382,-0.83821 -3.47255,-27.42122 -6.70562,-68.37341 l -0.8382,-9.81895 h 3.71204 c 3.47256,0 3.71204,0.23948 4.31076,6.22665 z m -94.11821,41.91014 c 0.83821,0.83821 1.43692,3.83179 1.43692,6.82537 0,3.11332 1.43692,19.27867 2.99358,36.04272 4.55025,45.86167 4.90947,52.08833 2.87384,50.89089 -3.11333,-1.79615 -5.86742,-4.55025 -5.2687,-5.26871 0.23949,-0.47897 -0.23949,-6.46613 -1.19743,-13.2915 -0.83821,-6.9451 -1.9159,-18.20098 -2.39487,-25.14609 -0.47898,-6.94511 -1.55666,-19.63789 -2.51461,-28.13966 -2.27512,-20.95507 -2.15538,-23.34993 0.47897,-23.34993 1.19744,0 2.7541,0.59871 3.5923,1.43691 z m 56.63857,80.58721 c 0.35922,2.63436 1.07768,12.45331 1.55666,21.79328 0.8382,17.96149 0.47897,19.27867 -4.43051,15.56663 -1.43692,-1.07769 -2.39486,-5.62793 -3.83178,-19.27867 -2.5146,-24.66711 -2.63435,-23.70916 2.03564,-23.23019 3.47255,0.35923 3.95153,0.8382 4.66999,5.14895 z"
     id="path2"
     style="stroke-width:1.19743" />
  <path
     d="m 283.92599,437.81879 c -12.4533,5.38845 -13.41125,22.27225 -1.6764,28.25941 8.50177,4.31075 17.12328,2.27512 21.55379,-5.14896 8.38202,-13.65073 -5.26872,-29.45685 -19.87739,-23.11045 z m 81.18593,11.49535 c -11.49535,7.06486 -11.49535,24.0684 0,31.13325 11.37561,6.82537 26.10403,-2.15538 26.10403,-15.80611 0,-13.17176 -15.08765,-22.03276 -26.10403,-15.32714 z"
     id="path4"
     style="stroke-width:1.19743" />
</svg>
