<?xml version="1.0" encoding="UTF-8" standalone="no"?>
<svg
   version="1.1"
   width="200"
   height="200"
   id="svg2"
   sodipodi:docname="docker.svg"
   inkscape:version="1.2 (dc2aedaf03, 2022-05-15)"
   xmlns:inkscape="http://www.inkscape.org/namespaces/inkscape"
   xmlns:sodipodi="http://sodipodi.sourceforge.net/DTD/sodipodi-0.dtd"
   xmlns:xlink="http://www.w3.org/1999/xlink"
   xmlns="http://www.w3.org/2000/svg"
   xmlns:svg="http://www.w3.org/2000/svg"
   xmlns:rdf="http://www.w3.org/1999/02/22-rdf-syntax-ns#"
   xmlns:cc="http://creativecommons.org/ns#"
   xmlns:dc="http://purl.org/dc/elements/1.1/">
  <sodipodi:namedview
     id="namedview28"
     pagecolor="#ffffff"
     bordercolor="#666666"
     borderopacity="1.0"
     inkscape:showpageshadow="2"
     inkscape:pageopacity="0.0"
     inkscape:pagecheckerboard="0"
     inkscape:deskcolor="#d1d1d1"
     showgrid="false"
     inkscape:zoom="1.6275862"
     inkscape:cx="253.13559"
     inkscape:cy="72.5"
     inkscape:window-width="1920"
     inkscape:window-height="1017"
     inkscape:window-x="1912"
     inkscape:window-y="-8"
     inkscape:window-maximized="1"
     inkscape:current-layer="svg2" />
  <metadata
     id="metadata4">
    <rdf:RDF>
      <cc:Work
         rdf:about="">
        <dc:format>image/svg+xml</dc:format>
        <dc:type
           rdf:resource="http://purl.org/dc/dcmitype/StillImage" />
      </cc:Work>
    </rdf:RDF>
  </metadata>
  <defs
     id="defs6">
    <clipPath
       id="clipPath8">
      <path
         d="M 76,2 V 48 H 54 V 71 H 35.580737 c -0.07818,0.665694 -0.141485,1.332869 -0.205737,2 -1.151162,12.530963 1.036422,24.087546 6.0625,33.96875 L 43.125,110 c 1.011403,1.81678 2.191241,3.52297 3.4375,5.1875 1.244725,1.66248 1.685716,2.58262 2.46875,3.6875 C 62.319911,133.81083 82.129473,141 105,141 155.64836,141 198.63299,118.56201 217.65625,68.15625 231.15302,69.54122 244.09968,66.080358 250,54.5625 240.60137,49.138835 228.52163,50.877226 221.5625,54.375 L 240,2 168,48 H 145 V 2 Z"
         id="path10" />
    </clipPath>
  </defs>
  <path
     d="m 110.77439,81.639165 h 16.53162 v 16.899419 h 8.3589 c 3.86002,0 7.83039,-0.687675 11.48596,-1.926332 1.79622,-0.609065 3.81239,-1.456649 5.58422,-2.522615 -2.33366,-3.04689 -3.52509,-6.894132 -3.87589,-10.686384 -0.47625,-5.157914 0.56416,-11.871605 4.05516,-15.908568 l 1.73777,-2.009964 2.07075,1.66458 c 5.21367,4.188748 9.59835,10.04169 10.3712,16.713947 6.2777,-1.846566 13.64808,-1.409808 19.18158,1.78384 l 2.27017,1.309906 -1.19491,2.332111 c -4.67976,9.133654 -14.46318,11.962935 -24.02823,11.462285 -14.31291,35.64889 -45.47374,52.52624 -83.256109,52.52624 -19.519615,0 -37.428469,-7.29682 -47.626587,-24.61519 -0.597916,-1.07577 -1.10994,-2.20067 -1.652964,-3.30554 -3.447257,-7.62323 -4.592212,-15.97439 -3.815485,-24.31859 L 27.20464,98.538921 H 41.340987 V 81.639501 H 57.872606 V 65.107882 h 33.063236 v -16.53162 h 19.838288 v 33.063239"
     id="path14"
     style="fill:#394d54;stroke-width:0.722978" />
  <g
     clip-path="url(#clipPath8)"
     id="g16"
     transform="matrix(0.72297819,0,0,0.72297819,4.1440678,48.575926)">
    <g
       id="g18">
      <g
         transform="translate(0,-22.866)"
         id="g20">
        <path
           d="m 123.85901,3.8110794 h 19.81751 V 23.62805 h -19.81751 z"
           id="path22"
           style="fill:#00acd3" />
        <path
           d="m 123.85901,26.676485 h 19.81751 v 19.818043 h -19.81751 z"
           id="path24"
           style="fill:#20c2ef" />
        <path
           d="M 126.29235,21.976904 V 5.4611548 M 129.2642,21.976904 V 5.4611548 m 3.00184,16.5157492 V 5.4611548 m 3.00344,16.5157492 V 5.4611548 M 138.2724,21.976904 V 5.4611548 m 2.97131,16.5157492 V 5.4611548"
           id="path26"
           style="stroke:#394d54;stroke-width:1.56" />
        <use
           transform="translate(0,22.866)"
           id="use28"
           xlink:href="#path26" />
      </g>
      <use
         transform="matrix(1,0,0,-1,22.866,4.572651)"
         id="use30"
         xlink:href="#g20" />
    </g>
    <use
       transform="translate(-91.464,45.732)"
       id="use32"
       xlink:href="#g18" />
    <use
       transform="translate(-45.732,45.732)"
       id="use34"
       xlink:href="#g18" />
    <use
       transform="translate(0,45.732)"
       id="use36"
       xlink:href="#g18" />
  </g>
  <path
     d="m 221.57014,54.379649 c 1.53332,-11.915247 -7.38383,-21.274779 -12.91407,-25.71836 -6.37269,7.367765 -7.36295,26.677556 2.63498,34.807431 -5.57952,4.956117 -17.33731,9.448435 -29.37574,9.448435 L 34,72.917155 C 32.829255,85.484184 34,146 34,146 h 217 l -0.98657,-91.424 c -9.39863,-5.423665 -21.48419,-3.694326 -28.44332,-0.196552"
     clip-path="url(#clipPath8)"
     id="path38"
     style="fill:#17b5eb"
     transform="matrix(0.72297819,0,0,0.72297819,4.1440678,48.575926)" />
  <path
     d="m 34,89 v 57 H 251 V 89"
     clip-path="url(#clipPath8)"
     id="path40"
     style="fill-opacity:0.17"
     transform="matrix(0.72297819,0,0,0.72297819,4.1440678,48.575926)" />
  <path
     d="M 111.23736,140.88997 C 97.697741,134.4648 90.265707,125.73081 86.130611,116.19562 L 45,118 l 21,28 45.23736,-5.11003"
     clip-path="url(#clipPath8)"
     id="path42"
     style="fill:#d4edf1"
     transform="matrix(0.72297819,0,0,0.72297819,4.1440678,48.575926)" />
  <path
     d="m 222.5,53.9375 v 0.03125 c -20.86119,26.889144 -50.78312,50.37872 -82.90625,62.71875 -28.65478,11.00767 -53.638381,11.06039 -70.875,2.21875 -1.85607,-1.04832 -3.675701,-2.21152 -5.5,-3.3125 C 50.582097,106.76175 43.464274,92.152308 44.0625,72.90625 H 34 V 146 H 251 V 50 h -25 z"
     clip-path="url(#clipPath8)"
     id="path44"
     style="fill-opacity:0.085"
     transform="matrix(0.72297819,0,0,0.72297819,4.1440678,48.575926)" />
  <path
     d="m 37.129948,133.18697 c 10.241096,0.56053 21.170572,0.66104 30.703979,-2.32709"
     id="path46"
     style="fill:none;stroke:#394d54;stroke-width:2.45813;stroke-linecap:round" />
  <path
     d="m 78.010923,125.90514 c 0,2.18266 -1.76951,3.95217 -3.952166,3.95217 -2.183043,0 -3.952942,-1.76951 -3.952942,-3.95217 0,-2.18265 1.769899,-3.95294 3.952942,-3.95294 2.182656,0 3.952166,1.77029 3.952166,3.95294 z"
     id="path48"
     style="fill:#d4edf1;stroke-width:0.722978" />
  <path
     d="m 75.083679,123.2652 c -0.344996,0.19941 -0.578478,0.57306 -0.578478,1.00053 0,0.63811 0.517301,1.15464 1.155409,1.15464 0.437151,0 0.816999,-0.24278 1.013309,-0.60133 0.138617,0.33416 0.215672,0.70122 0.215672,1.0861 0,1.56314 -1.267314,2.83045 -2.830834,2.83045 -1.563133,0 -2.831219,-1.26731 -2.831219,-2.83045 0,-1.5639 1.268086,-2.8316 2.831219,-2.8316 0.361646,0 0.706643,0.0682 1.024922,0.19166 z"
     id="path50"
     style="fill:#394d54;stroke-width:0.722978" />
  <path
     d="M 4.1440678,113.76134 H 188.01725 c -4.00366,-1.01563 -12.6673,-2.38749 -11.23853,-7.63446 -7.27977,8.42396 -24.83628,5.90986 -29.26702,1.75596 -4.93412,7.15626 -33.6579,4.43617 -35.66128,-1.13876 -6.18555,7.25926 -25.352811,7.25926 -31.538742,0 -2.004161,5.57493 -30.727554,8.29502 -35.662052,1.13876 -4.43075,4.1539 -21.9857,6.668 -29.266254,-1.75596 1.428774,5.24697 -7.234864,6.61883 -11.2393042,7.63446"
     id="path52"
     style="fill:#394d54;stroke-width:0.722978" />
</svg>
