<?xml version="1.0" encoding="UTF-8" standalone="no"?>
<svg
   version="1.1"
   width="512"
   height="512"
   id="svg2"
   sodipodi:docname="docker.svg"
   inkscape:version="1.2 (dc2aedaf03, 2022-05-15)"
   xmlns:inkscape="http://www.inkscape.org/namespaces/inkscape"
   xmlns:sodipodi="http://sodipodi.sourceforge.net/DTD/sodipodi-0.dtd"
   xmlns:xlink="http://www.w3.org/1999/xlink"
   xmlns="http://www.w3.org/2000/svg"
   xmlns:svg="http://www.w3.org/2000/svg"
   xmlns:rdf="http://www.w3.org/1999/02/22-rdf-syntax-ns#"
   xmlns:cc="http://creativecommons.org/ns#"
   xmlns:dc="http://purl.org/dc/elements/1.1/">
  <sodipodi:namedview
     id="namedview28"
     pagecolor="#ffffff"
     bordercolor="#666666"
     borderopacity="1.0"
     inkscape:showpageshadow="2"
     inkscape:pageopacity="0.0"
     inkscape:pagecheckerboard="0"
     inkscape:deskcolor="#d1d1d1"
     showgrid="false"
     inkscape:zoom="0.8137931"
     inkscape:cx="291.22881"
     inkscape:cy="298.6017"
     inkscape:window-width="1920"
     inkscape:window-height="1017"
     inkscape:window-x="1912"
     inkscape:window-y="-8"
     inkscape:window-maximized="1"
     inkscape:current-layer="svg2" />
  <metadata
     id="metadata4">
    <rdf:RDF>
      <cc:Work
         rdf:about="">
        <dc:format>image/svg+xml</dc:format>
        <dc:type
           rdf:resource="http://purl.org/dc/dcmitype/StillImage" />
      </cc:Work>
    </rdf:RDF>
  </metadata>
  <defs
     id="defs6">
    <clipPath
       id="clipPath8">
      <path
         d="M 76,2 V 48 H 54 V 71 H 35.580737 c -0.07818,0.665694 -0.141485,1.332869 -0.205737,2 -1.151162,12.530963 1.036422,24.087546 6.0625,33.96875 L 43.125,110 c 1.011403,1.81678 2.191241,3.52297 3.4375,5.1875 1.244725,1.66248 1.685716,2.58262 2.46875,3.6875 C 62.319911,133.81083 82.129473,141 105,141 155.64836,141 198.63299,118.56201 217.65625,68.15625 231.15302,69.54122 244.09968,66.080358 250,54.5625 240.60137,49.138835 228.52163,50.877226 221.5625,54.375 L 240,2 168,48 H 145 V 2 Z"
         id="path10" />
    </clipPath>
  </defs>
  <path
     d="m 292.96164,190.22336 h 45.32612 v 46.33455 h 22.91832 c 10.58335,0 21.46924,-1.88545 31.49202,-5.28158 4.92483,-1.66992 10.45273,-3.99382 15.31073,-6.91646 -6.39841,-8.35392 -9.66505,-18.90222 -10.62686,-29.29976 -1.30577,-14.14188 1.54678,-32.54937 11.11838,-43.61786 l 4.7646,-5.51088 5.67753,4.56392 c 14.29475,11.48464 26.3166,27.53214 28.43558,45.82603 17.21211,-5.06289 37.42011,-3.86539 52.59177,4.8909 l 6.22431,3.59148 -3.27619,6.39415 c -12.83088,25.0425 -39.65492,32.79977 -65.8802,31.4271 -39.24292,97.74155 -124.67919,144.01561 -228.27029,144.01561 -53.51856,0 -102.62077,-20.00631 -130.581806,-67.48955 -1.639356,-2.94953 -3.043216,-6.03374 -4.532069,-9.06306 C 64.20195,289.18671 61.062731,266.28964 63.19235,243.41162 l 0.639093,-6.85279 h 38.758807 v -46.33455 h 45.32613 v -45.32612 h 90.65225 V 99.572025 h 54.3923 v 90.652255"
     id="path14"
     style="fill:#394d54;stroke-width:1.98225" />
  <g
     clip-path="url(#clipPath8)"
     id="g16"
     transform="matrix(1.98225,0,0,1.98225,0.60433737,99.571103)">
    <g
       id="g18">
      <g
         transform="translate(0,-22.866)"
         id="g20">
        <path
           d="m 123.85901,3.8110794 h 19.81751 V 23.62805 h -19.81751 z"
           id="path22"
           style="fill:#00acd3" />
        <path
           d="m 123.85901,26.676485 h 19.81751 v 19.818043 h -19.81751 z"
           id="path24"
           style="fill:#20c2ef" />
        <path
           d="M 126.29235,21.976904 V 5.4611548 M 129.2642,21.976904 V 5.4611548 m 3.00184,16.5157492 V 5.4611548 m 3.00344,16.5157492 V 5.4611548 M 138.2724,21.976904 V 5.4611548 m 2.97131,16.5157492 V 5.4611548"
           id="path26"
           style="stroke:#394d54;stroke-width:1.56" />
        <use
           transform="translate(0,22.866)"
           id="use28"
           xlink:href="#path26" />
      </g>
      <use
         transform="matrix(1,0,0,-1,22.866,4.572651)"
         id="use30"
         xlink:href="#g20" />
    </g>
    <use
       transform="translate(-91.464,45.732)"
       id="use32"
       xlink:href="#g18" />
    <use
       transform="translate(-45.732,45.732)"
       id="use34"
       xlink:href="#g18" />
    <use
       transform="translate(0,45.732)"
       id="use36"
       xlink:href="#g18" />
  </g>
  <path
     d="m 221.57014,54.379649 c 1.53332,-11.915247 -7.38383,-21.274779 -12.91407,-25.71836 -6.37269,7.367765 -7.36295,26.677556 2.63498,34.807431 -5.57952,4.956117 -17.33731,9.448435 -29.37574,9.448435 L 34,72.917155 C 32.829255,85.484184 34,146 34,146 h 217 l -0.98657,-91.424 c -9.39863,-5.423665 -21.48419,-3.694326 -28.44332,-0.196552"
     clip-path="url(#clipPath8)"
     id="path38"
     style="fill:#17b5eb"
     transform="matrix(1.98225,0,0,1.98225,0.60433737,99.571103)" />
  <path
     d="m 34,89 v 57 H 251 V 89"
     clip-path="url(#clipPath8)"
     id="path40"
     style="fill-opacity:0.17"
     transform="matrix(1.98225,0,0,1.98225,0.60433737,99.571103)" />
  <path
     d="M 111.23736,140.88997 C 97.697741,134.4648 90.265707,125.73081 86.130611,116.19562 L 45,118 l 21,28 45.23736,-5.11003"
     clip-path="url(#clipPath8)"
     id="path42"
     style="fill:#d4edf1"
     transform="matrix(1.98225,0,0,1.98225,0.60433737,99.571103)" />
  <path
     d="m 222.5,53.9375 v 0.03125 c -20.86119,26.889144 -50.78312,50.37872 -82.90625,62.71875 -28.65478,11.00767 -53.638381,11.06039 -70.875,2.21875 -1.85607,-1.04832 -3.675701,-2.21152 -5.5,-3.3125 C 50.582097,106.76175 43.464274,92.152308 44.0625,72.90625 H 34 V 146 H 251 V 50 h -25 z"
     clip-path="url(#clipPath8)"
     id="path44"
     style="fill-opacity:0.085"
     transform="matrix(1.98225,0,0,1.98225,0.60433737,99.571103)" />
  <path
     d="m 91.044495,331.5563 c 28.078875,1.53686 58.045135,1.81242 84.183675,-6.38037"
     id="path46"
     style="fill:none;stroke:#394d54;stroke-width:6.73964;stroke-linecap:round" />
  <path
     d="m 203.13129,311.5911 c 0,5.98438 -4.85161,10.83602 -10.83598,10.83602 -5.98543,0 -10.83811,-4.85164 -10.83811,-10.83602 0,-5.98433 4.85268,-10.83809 10.83811,-10.83809 5.98437,0 10.83598,4.85376 10.83598,10.83809 z"
     id="path48"
     style="fill:#d4edf1;stroke-width:1.98225" />
  <path
     d="m 195.10542,304.35295 c -0.9459,0.54675 -1.58606,1.5712 -1.58606,2.74324 0,1.74958 1.41833,3.16578 3.16788,3.16578 1.19858,0 2.24004,-0.66565 2.77828,-1.6487 0.38006,0.91618 0.59132,1.92257 0.59132,2.97783 0,4.28582 -3.4747,7.76048 -7.76153,7.76048 -4.28578,0 -7.76259,-3.47466 -7.76259,-7.76048 0,-4.28786 3.47681,-7.76362 7.76259,-7.76362 0.99155,0 1.93746,0.18711 2.81011,0.52547 z"
     id="path50"
     style="fill:#394d54;stroke-width:1.98225" />
  <path
     d="M 0.60433737,278.29544 H 504.74488 c -10.97717,-2.78466 -34.73102,-6.546 -30.81362,-20.93206 -19.95956,23.09667 -68.09572,16.20358 -80.24386,4.81448 -13.52829,19.62091 -92.2827,12.16301 -97.7755,-3.12224 -16.95946,19.90332 -69.51195,19.90332 -86.47243,0 -5.49498,15.28525 -84.24832,22.74315 -97.77764,3.12224 -12.148157,11.3891 -60.280042,18.28219 -80.241748,-4.81448 3.917389,14.38606 -19.836435,18.1474 -30.81574463,20.93206"
     id="path52"
     style="fill:#394d54;stroke-width:1.98225" />
</svg>
