<svg width="160" height="89" viewBox="0 0 160 89" fill="none" xmlns="http://www.w3.org/2000/svg">
<path d="M106.674 71.0956C101.758 71.0956 97.7859 75.0673 97.7859 79.9834C97.7859 84.8994 101.758 88.8711 106.674 88.8711H151.112C156.028 88.8711 160 84.8994 160 79.9834V35.5447C160 30.6287 156.028 26.657 151.112 26.657C146.196 26.657 142.225 30.6287 142.225 35.5447V58.5139L95.1751 11.4923C91.7033 8.02051 86.0652 8.02051 82.5934 11.4923L53.3472 40.7385L15.1855 2.60455C11.7138 -0.867222 6.0756 -0.867222 2.60383 2.60455C-0.867943 6.07632 -0.867943 11.7145 2.60383 15.1862L47.0425 59.6249C50.5143 63.0967 56.1524 63.0967 59.6242 59.6249L88.8981 30.3509L129.643 71.0956H106.674Z" fill="#D43737"/>
</svg>
