<?xml version="1.0" encoding="UTF-8" standalone="no"?>
<svg
   class="elastic-logo"
   width="512"
   height="512"
   viewBox="0 0 512.00001 512"
   fill="none"
   version="1.1"
   id="svg8"
   sodipodi:docname="elasticsearch.svg"
   inkscape:version="1.3 (0e150ed6c4, 2023-07-21)"
   xmlns:inkscape="http://www.inkscape.org/namespaces/inkscape"
   xmlns:sodipodi="http://sodipodi.sourceforge.net/DTD/sodipodi-0.dtd"
   xmlns="http://www.w3.org/2000/svg"
   xmlns:svg="http://www.w3.org/2000/svg">
  <defs
     id="defs8" />
  <sodipodi:namedview
     id="namedview8"
     pagecolor="#ffffff"
     bordercolor="#666666"
     borderopacity="1.0"
     inkscape:showpageshadow="2"
     inkscape:pageopacity="0.0"
     inkscape:pagecheckerboard="0"
     inkscape:deskcolor="#d1d1d1"
     inkscape:zoom="0.84384432"
     inkscape:cx="177.16538"
     inkscape:cy="143.98391"
     inkscape:window-width="1920"
     inkscape:window-height="1017"
     inkscape:window-x="1912"
     inkscape:window-y="-8"
     inkscape:window-maximized="1"
     inkscape:current-layer="svg8" />
  <path
     d="m 490.47273,270.95272 c 0,-39.26038 -24.38906,-73.76189 -61.07196,-87.04653 1.58668,-8.32831 2.38002,-16.65663 2.38002,-25.1824 0,-73.167053 -59.48528,-132.65263 -132.45383,-132.65263 -42.82982,0 -82.48745,20.423357 -107.47123,54.924984 C 179.56189,71.478406 164.49311,66.3231 148.82845,66.3231 c -38.86418,0 -70.391421,31.527246 -70.391421,70.39107 0,8.52635 1.586212,16.85467 4.3622,24.5871 -36.484392,13.08718 -61.46828,48.1834 -61.46828,87.24516 0,39.459 24.587335,73.96051 61.270003,87.24632 -1.586212,8.12969 -2.379434,16.65546 -2.379434,25.18123 0,72.96972 59.287822,132.25637 132.256372,132.25637 42.82982,0 82.48629,-20.62098 107.27143,-55.12366 12.29385,9.71636 27.36379,15.06995 43.02845,15.06995 38.86313,0 70.39107,-31.52678 70.39107,-70.39108 0,-8.52577 -1.58667,-16.85408 -4.36278,-24.58768 36.48428,-13.08602 61.66667,-48.18224 61.66667,-87.24516 z"
     fill="#ffffff"
     id="path1"
     style="stroke-width:11.6839" />
  <path
     d="m 205.73158,227.33073 102.71119,46.79535 103.5057,-90.8146 c 1.58551,-7.53498 2.18022,-14.87132 2.18022,-22.80355 0,-63.84736 -51.9503,-115.798018 -115.79837,-115.798018 -38.26841,0 -73.76189,18.837084 -95.37484,50.364446 L 185.70531,184.5009 Z"
     fill="#fed10a"
     id="path2"
     style="stroke-width:11.6839" />
  <path
     d="m 99.457374,335.99138 c -1.586329,7.53497 -2.181158,15.26741 -2.181158,23.19846 0,64.0467 52.149284,115.997 116.194814,115.997 38.46703,0 74.3566,-19.03547 95.97072,-50.76088 L 326.49329,335.39667 303.69091,291.7735 200.58247,244.77952 Z"
     fill="#24bbb1"
     id="path3"
     style="stroke-width:11.6839" />
  <path
     d="m 98.856002,158.32771 70.391308,16.65546 15.46603,-79.908461 c -9.51774,-7.33658 -21.41433,-11.302344 -33.70817,-11.302344 -30.5361,0 -55.519985,24.785615 -55.519985,55.519755 0,6.54312 1.189658,13.08729 3.370817,19.03559 z"
     fill="#ef5098"
     id="path4"
     style="stroke-width:11.6839" />
  <path
     d="M 92.717843,175.18179 C 61.388874,185.4917 39.37925,215.6316 39.37925,248.74505 c 0,32.32012 20.026742,61.07196 49.967776,72.57247 L 188.09351,232.0896 170.04883,193.42393 Z"
     fill="#1ba9f5"
     id="path5"
     style="stroke-width:11.6839" />
  <path
     d="m 327.28663,424.42596 c 9.71637,7.33635 21.4155,11.5005 33.51071,11.5005 30.53598,0 55.51976,-24.78631 55.51976,-55.51975 0,-6.74163 -1.18943,-13.28581 -3.37082,-19.2341 l -70.19245,-16.458 z"
     fill="#93c83e"
     id="path6"
     style="stroke-width:11.6839" />
  <path
     d="m 341.55857,326.27501 77.33133,18.04351 c 31.52795,-10.31107 53.33836,-40.4498 53.33836,-73.76188 0,-32.1215 -20.02628,-61.07197 -49.96754,-72.37384 l -101.12568,88.63321 z"
     fill="#0077cc"
     id="path7"
     style="stroke-width:11.6839" />
</svg>
