<?xml version="1.0" encoding="UTF-8" standalone="no"?>
<svg
   class="icon icon-brand"
   viewBox="0 0 256 256"
   version="1.1"
   id="svg3"
   sodipodi:docname="fast.svg"
   width="256"
   height="256"
   inkscape:version="1.3 (0e150ed6c4, 2023-07-21)"
   inkscape:export-filename="fast.png"
   inkscape:export-xdpi="192"
   inkscape:export-ydpi="192"
   xmlns:inkscape="http://www.inkscape.org/namespaces/inkscape"
   xmlns:sodipodi="http://sodipodi.sourceforge.net/DTD/sodipodi-0.dtd"
   xmlns="http://www.w3.org/2000/svg"
   xmlns:svg="http://www.w3.org/2000/svg">
  <defs
     id="defs3" />
  <sodipodi:namedview
     id="namedview3"
     pagecolor="#ffffff"
     bordercolor="#666666"
     borderopacity="1.0"
     inkscape:showpageshadow="2"
     inkscape:pageopacity="0.0"
     inkscape:pagecheckerboard="0"
     inkscape:deskcolor="#d1d1d1"
     inkscape:zoom="1.4839286"
     inkscape:cx="206.54633"
     inkscape:cy="232.82792"
     inkscape:window-width="1920"
     inkscape:window-height="1017"
     inkscape:window-x="-8"
     inkscape:window-y="-8"
     inkscape:window-maximized="1"
     inkscape:current-layer="svg3" />
  <path
     fill-rule="evenodd"
     clip-rule="evenodd"
     d="m 221.47872,136.78873 -8.57187,-1.09472 c -1.52331,-0.1945 -2.91065,0.88472 -3.16539,2.39771 a 69.411471,69.411471 0 0 1 -107.88505,45.57032 c -4.237738,-2.92614 -2.702376,-9.09857 2.27206,-10.43083 l 36.24971,-9.71306 a 5.7111358,5.7111358 0 1 0 -2.9554,-11.03327 l -46.642668,12.49806 c -0.120488,0.0327 -0.240977,0.062 -0.363186,0.0895 l -21.995963,5.89359 a 1.5439689,1.5439689 0 0 1 -0.142864,0.0465 5.7111358,5.7111358 0 1 0 2.955401,11.03327 l 0.499165,-0.13426 c 3.425304,-0.91743 7.039947,0.25991 9.506511,2.80565 a 83.622182,83.622182 0 0 0 66.604104,25.18546 83.613576,83.613576 0 0 0 75.99528,-70.01047 c 0.24442,-1.51471 -0.83653,-2.90893 -2.35984,-3.10343 z M 47.101455,129.42862 a 9.3619251,9.3619251 0 0 0 -0.917431,0.19795 l -17.940677,4.80748 a 5.7113405,5.7113405 0 1 1 -2.957122,-11.03327 l 27.466122,-7.36011 c 3.525137,-0.94324 6.105304,-3.90725 6.890198,-7.47026 A 83.601527,83.601527 0 0 1 102.01649,52.739671 83.613576,83.613576 0 0 1 203.73082,70.933373 c 1.02243,1.146359 0.85891,2.902042 -0.32187,3.884881 l -6.6389,5.530404 -2.12919,1.772896 c -0.005,0.0034 -0.0103,0.0034 -0.0155,0 A 69.406308,69.406308 0 0 0 77.340525,99.583722 c -1.99666,4.740348 2.494104,9.200128 7.463377,7.869598 l 3.824636,-1.02587 a 5.7113387,5.7113387 0 0 1 2.957123,11.03326 l -13.19689,3.53547 a 9.2087331,9.2087331 0 0 0 -0.886448,0.28745 z"
     fill="#ff4387"
     id="path1"
     style="stroke-width:1.72126" />
  <rect
     x="152.46953"
     y="-90.63726"
     width="11.422272"
     height="28.321589"
     rx="5.7111359"
     transform="rotate(75)"
     fill="#ff4387"
     id="rect1"
     style="stroke-width:1.72126" />
  <rect
     x="152.49957"
     y="-52.190163"
     width="11.422272"
     height="85.663597"
     rx="5.7111359"
     transform="rotate(75)"
     fill="#ff4387"
     id="rect2"
     style="stroke-width:1.72126" />
  <rect
     x="152.82538"
     y="-134.12907"
     width="11.422272"
     height="34.130836"
     rx="5.7111359"
     transform="rotate(75)"
     fill="#ff4387"
     id="rect3"
     style="stroke-width:1.72126" />
  <path
     fill-rule="evenodd"
     clip-rule="evenodd"
     d="m 174.89802,115.24717 c 5.20164,19.40892 25.15103,30.92586 44.55994,25.72594 19.40719,-5.20165 30.92585,-25.15103 25.72593,-44.558225 -5.20164,-19.408911 -25.15103,-30.927574 -44.55994,-25.72593 -19.40719,5.199922 -30.92585,25.149308 -25.72593,44.558215 z m 35.15671,16.26246 c 14.50848,0 26.26984,-11.5049 26.26984,-25.69839 0,-14.193503 -11.76136,-25.698395 -26.26984,-25.698395 -14.50849,0 -26.26985,11.504892 -26.26985,25.698395 0,14.19349 11.76136,25.69839 26.26985,25.69839 z"
     fill="#ff4387"
     id="path3"
     style="stroke-width:1.72126" />
</svg>
