<?xml version="1.0" encoding="UTF-8" standalone="no"?>
<svg
   width="1494.1261"
   height="1408.1494"
   viewBox="-274.19808 -405.58835 927.99999 763.15409"
   version="1.1"
   id="svg4"
   sodipodi:docname="godot.svg"
   inkscape:version="1.3 (0e150ed6c4, 2023-07-21)"
   xmlns:inkscape="http://www.inkscape.org/namespaces/inkscape"
   xmlns:sodipodi="http://sodipodi.sourceforge.net/DTD/sodipodi-0.dtd"
   xmlns="http://www.w3.org/2000/svg"
   xmlns:svg="http://www.w3.org/2000/svg">
  <defs
     id="defs4" />
  <sodipodi:namedview
     id="namedview4"
     pagecolor="#ffffff"
     bordercolor="#666666"
     borderopacity="1.0"
     inkscape:showpageshadow="2"
     inkscape:pageopacity="0.0"
     inkscape:pagecheckerboard="0"
     inkscape:deskcolor="#d1d1d1"
     inkscape:zoom="0.1558"
     inkscape:cx="272.78562"
     inkscape:cy="1036.5854"
     inkscape:window-width="1920"
     inkscape:window-height="1017"
     inkscape:window-x="-8"
     inkscape:window-y="-8"
     inkscape:window-maximized="1"
     inkscape:current-layer="svg4" />
  <path
     fill="#ffffff"
     d="m 515.56161,100.12821 c 0,0 -1.13538,-6.812271 -1.78417,-6.731171 L 391.80541,105.31851 a 19.869114,19.869114 0 0 0 -17.92275,18.65264 l -3.40614,48.65905 -94.39856,6.81227 -6.40678,-44.11755 a 20.031311,20.031311 0 0 0 -19.62582,-17.19286 h -128.7843 a 19.869114,19.869114 0 0 0 -19.70692,17.03067 L 95.147368,179.44247 0.7487997,172.6302 -2.6573343,123.97115 A 19.869114,19.869114 0 0 0 -20.580091,105.31851 L -142.63322,93.397039 c -0.64879,-0.0811 -1.05428,6.731171 -1.70307,6.731171 l -0.16219,26.76248 103.400489,16.86847 3.32504,49.06455 a 20.193508,20.193508 0 0 0 18.49044,18.73374 l 130.000781,9.32631 h 1.45977 a 20.11241,20.11241 0 0 0 19.62581,-17.19286 l 6.56898,-45.33402 h 94.47966 l 6.56898,45.33402 a 20.11241,20.11241 0 0 0 19.70691,17.19286 h 1.37868 l 130.08187,-9.32631 a 20.193508,20.193508 0 0 0 18.40935,-18.73374 l 3.40613,-49.06455 103.3194,-16.94957 z"
     id="path1"
     style="stroke-width:0.810984" />
  <path
     fill="#478cbf"
     d="M -144.33629,-98.887331 V 100.2904 h 1.05428 l 122.620829,11.75928 a 13.219043,13.219043 0 0 1 11.9214647,12.16476 l 3.730527,53.93045 106.9688193,7.62326 7.37996,-49.79444 a 13.137945,13.137945 0 0 1 12.97575,-11.19158 h 128.13551 c 0,0 12.00257,5.43359 12.97575,11.92147 l 7.29886,49.71333 106.56333,-7.54215 3.81163,-53.93045 a 13.056847,13.056847 0 0 1 11.84037,-12.16477 l 122.05313,-11.84037 h 0.72989 V 85.124999 h 2.18965 v -184.01233 h -1.29757 c 0,0 31.14179,-41.765689 45.49622,-64.959839 -19.05814,-32.43937 -42.41448,-61.47261 -67.3928,-88.31619 a 634.27079,634.27079 0 0 0 -66.9062,38.92725 c -10.62389,-10.62389 -22.62646,-19.22033 -34.38573,-28.30335 -11.75927,-9.08303 -24.57282,-16.05749 -36.89979,-24.00514 a 769.38077,769.38077 0 0 0 6.16349,-82.4771 c -31.87169,-16.05748 -65.85193,-26.68138 -100.23766,-34.30463 a 717.55887,717.55887 0 0 0 -37.22418,72.42089 c -12.89465,-2.10855 -25.95149,-2.91954 -40.63031,-3.08174 h 2.18966 v -0.72988 a 253.51368,253.51368 0 0 0 -39.17054,3.16284 712.12528,712.12528 0 0 0 -37.38638,-72.502 c -34.466826,7.62326 -68.609264,18.32825 -100.5620443,34.30464 0.7298863,28.14115 2.5140523,55.14693 6.2445793,82.5582 -12.4080593,7.86654 -25.4649063,14.67881 -37.061976,24.00513 -11.59708,9.32632 -23.84294,17.67946 -34.54794,28.22225 a 667.52115,667.52115 0 0 0 -67.149489,-38.92724 c -25.05942,26.92468 -48.49686,55.87681 -67.63609,88.39728 a 734.75174,734.75174 0 0 0 45.65841,65.608629 z m 550.00953,236.726311 -3.81163,54.01155 a 13.056847,13.056847 0 0 1 -12.08366,12.16476 l -129.59529,9.24522 h -0.97318 a 12.975748,12.975748 0 0 1 -12.89465,-11.19158 l -7.46105,-50.36212 H 133.10143 l -7.37996,50.36212 a 13.219043,13.219043 0 0 1 -13.94893,11.19158 l -129.595281,-9.24522 a 13.056847,13.056847 0 0 1 -12.08366,-12.16476 l -3.81163,-54.01155 -109.401779,-10.5428 c 0.0811,11.75927 0.2433,24.65392 0.2433,27.24907 0,115.48416 146.5448527,171.03658 328.61082,171.68537 h 0.48659 c 182.06597,-0.64879 328.61082,-56.20121 328.61082,-171.68537 0,-2.67625 0.1622,-15.4898 0.1622,-27.24907 z"
     id="path2"
     style="stroke-width:0.810984" />
  <path
     fill="#ffffff"
     d="m 86.469836,-17.383414 a 73.637371,73.637371 0 1 1 -73.637371,-73.556271 73.637371,73.637371 0 0 1 73.637371,73.556271 m 99.183374,79.881953 c -12.97575,0 -23.43745,-9.569617 -23.43745,-21.409987 v -67.149497 c 0,-11.759272 10.4617,-21.328887 23.43745,-21.328887 12.97575,0 23.51854,9.569615 23.51854,21.328887 v 67.149497 c 0,11.84037 -10.54279,21.409987 -23.51854,21.409987 m 99.83216,-79.881953 a 73.637371,73.637371 0 1 0 73.63737,-73.556271 73.637371,73.637371 0 0 0 -73.63737,73.556271"
     id="path3"
     style="stroke-width:0.810984" />
  <path
     fill="#414042"
     d="m 303.24593,-13.004099 a 48.821253,48.821253 0 1 0 48.82125,-48.821251 48.740154,48.740154 0 0 0 -48.82125,48.821251 m -234.536649,0 A 48.821253,48.821253 0 1 1 19.888028,-61.82535 48.740154,48.740154 0 0 1 68.709281,-13.004099"
     id="path4"
     style="stroke-width:0.810984" />
</svg>
