<?xml version="1.0" encoding="UTF-8" standalone="no"?>
<svg
   version="1.1"
   id="Layer_1"
   x="0px"
   y="0px"
   viewBox="0 0 256 255.99999"
   enable-background="new 0 0 103.1 138.8"
   xml:space="preserve"
   sodipodi:docname="grunt.svg"
   width="256"
   height="256"
   inkscape:version="1.2 (dc2aedaf03, 2022-05-15)"
   xmlns:inkscape="http://www.inkscape.org/namespaces/inkscape"
   xmlns:sodipodi="http://sodipodi.sourceforge.net/DTD/sodipodi-0.dtd"
   xmlns="http://www.w3.org/2000/svg"
   xmlns:svg="http://www.w3.org/2000/svg"><defs
   id="defs43" /><sodipodi:namedview
   id="namedview41"
   pagecolor="#ffffff"
   bordercolor="#666666"
   borderopacity="1.0"
   inkscape:showpageshadow="2"
   inkscape:pageopacity="0.0"
   inkscape:pagecheckerboard="0"
   inkscape:deskcolor="#d1d1d1"
   showgrid="false"
   inkscape:zoom="1.2022853"
   inkscape:cx="44.082716"
   inkscape:cy="112.70204"
   inkscape:window-width="1590"
   inkscape:window-height="676"
   inkscape:window-x="26"
   inkscape:window-y="26"
   inkscape:window-maximized="0"
   inkscape:current-layer="Layer_1" />
<g
   id="g38"
   transform="matrix(1.6826453,0,0,1.6826453,41.57637,10.971488)">
	<path
   fill="#462f15"
   d="m 1.4,12.6 c 0,0 17.9,-18.3 34,4.7 0.9,-0.3 2,-0.7 2,-0.7 0,0 1.7,-9.5 8,-13.3 0.2,5 1.9,8 1.9,8 0,0 2,-8.6 10.2,-11.3 -2,6.8 0.7,9.7 0.7,9.7 0,0 7.8,-4.7 9.5,-3.3 -2.2,2.5 -2.9,10 -2.9,10 l 2.2,0.9 c 0,0 21.2,-23.7 34.9,-4.4 C 86.8,14.7 91,25 91,25 c 0,0 16.8,2 5.8,16.3 -1.8,6.1 0.5,10.6 0.5,10.6 0,0 17.4,11.3 -8.4,23.1 -4.5,3.1 -0.9,23.8 -0.9,23.8 0,0 5.6,-3.5 6.6,-12.2 15.7,18.9 -2.3,32.9 -7.1,33.6 -5.3,11.7 -17.7,13.5 -17.7,13.5 0,0 -3.6,5.2 -16.6,5.2 -13,0 -19.3,-5.2 -19.3,-5.2 0,0 -13.8,-1.8 -17.6,-13.5 -2.9,-0.7 -21.7,-10.6 -7.8,-33.6 1.9,9.4 7.1,11.3 7.1,11.3 0,0 3.3,-20.4 -0.9,-22.9 C 8.3,71.6 -8.9,63.5 5.8,52 9,47.1 6.4,41.2 6.4,41.2 6.4,41.2 -3.5,28.1 12.5,24.9 15.7,13.7 1.4,12.6 1.4,12.6 Z"
   id="path2" />
	<path
   fill="#fba919"
   d="M 33.1,106.4 H 71 c 0,0 -6.3,-16.9 -6.2,-24 4,7.4 8.5,20.3 8.5,20.3 0,0 9.4,-0.1 10.9,-1.8 0.3,-4.7 -3.1,-23 1.6,-27.5 6.8,-6.1 18.6,-8.4 10.4,-17.4 -0.2,1.3 0,3.2 0,3.2 0,0 -7.2,-11.5 -2.5,-23 0.1,2.1 0.2,0.8 0,3.6 12.4,-18.7 -19.2,-8.4 -30.7,2.3 0,0 4.2,-8.9 14.8,-14.3 0,0 -23.6,-18.2 -51.9,0 9.2,4.7 12.9,10.6 14.9,14.3 C 29.2,31.3 -2.4,21.1 10,39.8 9.8,36.9 9.9,38.3 10,36.2 c 4.7,11.6 -2.5,23 -2.5,23 0,0 0.2,-1.8 0,-3.2 -8.2,9 3.5,11.3 10.4,17.4 4.7,4.5 1.4,22.7 1.6,27.5 1.5,1.7 10.9,1.8 10.9,1.8 0,0 4.5,-12.9 8.5,-20.3 0.2,7 -6.2,24 -6.2,24 h 37.9"
   id="path4" />
	<path
   fill="#fba919"
   d="m 51.5,109.9 c -10.1,0 -16.3,-0.5 -19.8,0.2 -2.3,0.5 -3.8,2.7 -3.6,5 1.1,11.3 11.3,20.6 23.6,20.6 H 52 c 12.4,0 22.5,-9.3 23.6,-20.6 0.2,-2.3 -1.3,-4.5 -3.6,-5 -3.5,-0.8 -9.7,-0.2 -19.8,-0.2 z"
   id="path6" />
	<path
   fill="#463015"
   d="m 37,123.9 -3.8,-4.5 C 32,117.9 33.3,116 35.5,116 h 7.7 c 2.2,0 3.5,2 2.3,3.4 l -3.9,4.5 c -1.1,1.3 -3.5,1.3 -4.6,0 z"
   id="path8" />
	<path
   fill="#463015"
   d="m 62,123.9 -3.8,-4.5 C 57,117.9 58.3,116 60.5,116 h 7.7 c 2.2,0 3.5,2 2.3,3.4 l -3.9,4.5 c -1.1,1.3 -3.5,1.3 -4.6,0 z"
   id="path10" />
	<path
   fill="#ffffff"
   d="m 28,106.6 c 0,0 -16.3,0.2 -20.4,-12.5 -6.5,23.2 17,24.4 17,24.4 0,0 -1.2,-2.7 -0.6,-5.8 0.1,-0.3 0.2,-0.7 0.3,-1 1.3,-2.6 3.7,-5.1 3.7,-5.1 z"
   id="path12" />
	<path
   fill="#ffffff"
   d="m 75.7,106.6 c 0,0 16.3,0.2 20.4,-12.5 6.5,23.2 -17,24.4 -17,24.4 0,0 1.2,-2.7 0.6,-5.8 -0.1,-0.3 -0.2,-0.7 -0.3,-1 -1.3,-2.6 -3.7,-5.1 -3.7,-5.1 z"
   id="path14" />
	<path
   fill="#462f15"
   d="m 44.2,46.5 c 0,0 3,2.2 7.3,2.2 4,0 7.3,-2.2 7.3,-2.2 0,0 -3.6,4.8 -7.3,4.8 -3.7,0 -7.3,-4.8 -7.3,-4.8 z"
   id="path16" />
	<path
   fill="#462f15"
   d="m 14.1,47.2 c 20.5,-3.6 21.6,16.2 31.9,11.1 0.9,4.7 -5.7,5.4 -5.7,5.4 0,0 -0.1,6.2 -3.3,8.4 C 38.5,64.8 37.3,63.4 36.6,63 36,65.3 19.7,70.4 18.4,52.3 18.1,48 17.1,55 17,56.7 14,52.5 17,49 17,49 c 0,0 1.7,-1.4 -2.9,-1.8 z"
   id="path18" />
	<path
   fill="#462f15"
   d="M 88.2,47.2 C 67.7,43.6 66.6,63.4 56.3,58.3 c -1,4.7 5.7,5.4 5.7,5.4 0,0 0.1,6.2 3.3,8.4 -1.5,-7.3 -0.3,-8.7 0.4,-9.1 0.6,2.3 16.9,7.4 18.2,-10.7 0.3,-4.3 1.3,2.7 1.4,4.4 3.1,-4.3 0.1,-7.7 0.1,-7.7 0,0 -1.8,-1.4 2.8,-1.8 z"
   id="path20" />
	<path
   fill="#ffffff"
   d="m 23.4,51.1 c 4.6,2.7 8.9,5.6 12,9.8 -2.9,2.1 -7,2 -10,-0.1 -2.3,-1.7 -3.3,-5.8 -2,-9.7 z"
   id="path22" />
	<path
   fill="#ffffff"
   d="m 79.1,51.1 c -4.6,2.7 -8.9,5.6 -12,9.8 2.9,2.1 7,2 10,-0.1 2.3,-1.7 3.2,-5.8 2,-9.7 z"
   id="path24" />
	<path
   fill="#fba919"
   d="m 9.9,11.8 1.3,0.8 c 0.1,0.1 0.3,0.1 0.4,0.1 1.4,-0.3 10,-1.4 15.6,7.6 0.1,0.2 0.5,0.3 0.7,0.2 L 30,19.4 c 0.3,-0.1 0.4,-0.5 0.2,-0.8 -1.4,-2.3 -8,-12 -20.2,-7.8 -0.5,0.1 -0.5,0.7 -0.1,1 z"
   id="path26" />
	<path
   fill="#e88824"
   d="m 14.6,15.6 c 0,0 7.6,-0.4 9,7.7 l -3,3.3 c 0,0 -4.2,0.3 -3.9,-4.1 0.3,-4.4 -2.1,-6.9 -2.1,-6.9 z"
   id="path28" />
	<path
   fill="#fba919"
   d="m 93.1,11.8 -1.3,0.8 c -0.1,0.1 -0.3,0.1 -0.4,0.1 -1.4,-0.3 -10,-1.4 -15.6,7.6 -0.1,0.2 -0.5,0.3 -0.7,0.2 L 73,19.4 c -0.3,-0.1 -0.4,-0.5 -0.2,-0.8 1.4,-2.3 8,-12 20.2,-7.8 0.4,0.1 0.4,0.7 0.1,1 z"
   id="path30" />
	<path
   fill="#e88824"
   d="m 88.3,15.6 c 0,0 -7.6,-0.4 -9,7.7 l 3,3.3 c 0,0 4.2,0.3 3.9,-4.1 -0.3,-4.4 2.1,-6.9 2.1,-6.9 z"
   id="path32" />
	<path
   fill="#fba919"
   d="m 20.5,121.5 c 0,0 3.5,6.1 8.1,6.8 0,0 -2.4,-3.6 -3.1,-6.2 -2.4,0 -5,-0.6 -5,-0.6 z"
   id="path34" />
	<path
   fill="#fba919"
   d="m 82.5,121.5 c 0,0 -3.5,6.1 -8.1,6.8 0,0 2.4,-3.6 3.1,-6.2 2.3,0 5,-0.6 5,-0.6 z"
   id="path36" />
</g>
</svg>
