<?xml version="1.0" encoding="UTF-8" standalone="no"?>
<svg
   width="400"
   height="400"
   viewBox="0 0 400 400"
   version="1.1"
   id="svg13"
   sodipodi:docname="gulp.svg"
   inkscape:version="1.2 (dc2aedaf03, 2022-05-15)"
   inkscape:export-filename="E:\blog\recursos\logos\gulpjs-white-back.png"
   inkscape:export-xdpi="500"
   inkscape:export-ydpi="500"
   xmlns:inkscape="http://www.inkscape.org/namespaces/inkscape"
   xmlns:sodipodi="http://sodipodi.sourceforge.net/DTD/sodipodi-0.dtd"
   xmlns="http://www.w3.org/2000/svg"
   xmlns:svg="http://www.w3.org/2000/svg"
   xmlns:rdf="http://www.w3.org/1999/02/22-rdf-syntax-ns#"
   xmlns:cc="http://creativecommons.org/ns#"
   xmlns:dc="http://purl.org/dc/elements/1.1/"
   xmlns:sketch="http://www.bohemiancoding.com/sketch/ns">
  <metadata
     id="metadata17">
    <rdf:RDF>
      <cc:Work
         rdf:about="">
        <dc:format>image/svg+xml</dc:format>
        <dc:type
           rdf:resource="http://purl.org/dc/dcmitype/StillImage" />
        <dc:title>gulp</dc:title>
      </cc:Work>
    </rdf:RDF>
  </metadata>
  <sodipodi:namedview
     pagecolor="#ffffff"
     bordercolor="#666666"
     borderopacity="1"
     objecttolerance="10"
     gridtolerance="10"
     guidetolerance="10"
     inkscape:pageopacity="0"
     inkscape:pageshadow="2"
     inkscape:window-width="1584"
     inkscape:window-height="807"
     id="namedview15"
     showgrid="false"
     inkscape:zoom="1.0542636"
     inkscape:cx="-73.036762"
     inkscape:cy="187.80882"
     inkscape:current-layer="svg13"
     inkscape:showpageshadow="2"
     inkscape:pagecheckerboard="0"
     inkscape:deskcolor="#d1d1d1"
     inkscape:window-x="0"
     inkscape:window-y="0"
     inkscape:window-maximized="0" />
  <!-- Generator: Sketch 3.0.3 (7891) - http://www.bohemiancoding.com/sketch -->
  <title
     id="title2">gulp</title>
  <desc
     id="desc4">Created with Sketch.</desc>
  <path
     style="fill:#f7fcff;fill-opacity:1;fill-rule:evenodd;stroke:none;stroke-width:0.829211px;stroke-linecap:butt;stroke-linejoin:miter;stroke-opacity:1"
     d="m 139.62833,274.85632 3.43708,5.96285 23.75161,18.04596 61.34937,-8.25857 18.23439,-9.83382 3.33343,-5.92139 16.90926,-152.09792 0.45618,-5.18357 -64.88876,-6.29224 -78.65305,5.89898 2.88322,14.62442 c 5.50483,56.11353 7.88468,89.84528 13.18727,143.0553 z"
     id="path4497"
     inkscape:connector-curvature="0"
     sodipodi:nodetypes="cccccccccccc" />
  <defs
     id="defs6" />
  <g
     id="Page-1"
     stroke="none"
     stroke-width="1"
     fill="none"
     fill-rule="evenodd"
     sketch:type="MSPage"
     transform="matrix(1.011384,0,0,1.011384,108.96975,5.6831897)">
    <g
       id="gulp"
       sketch:type="MSArtboardGroup"
       fill="#da4648">
      <g
         id="Gulp-Logo"
         sketch:type="MSLayerGroup"
         transform="translate(0,1)">
        <path
           d="m 86.72,303.739 c -22.574,0 -40.017,-3.391 -48.405,-5.412 -5.736,-1.382 -10.342,-2.812 -13.841,-4.281 l 11.187,19.113 4.376,59.719 c 0,6.695 21.268,12.122 47.503,12.122 26.235,0 47.503,-5.427 47.503,-12.122 l 3.465,-60.369 10.585,-18.519 c -3.514,1.489 -8.161,2.938 -13.969,4.337 -8.388,2.021 -25.831,5.412 -48.404,5.412 z M 149.456,109.411 C 132.888,111.725 110.899,113 87.54,113 64.181,113 42.192,111.725 25.624,109.411 17.417,108.265 10.924,106.913 6.325,105.395 5.228,105.032 3.369,104.413 1.58,103.427 L 11.845,197.9 c 0.477,-1.627 1.008,-3.252 1.597,-4.871 1.205,-3.318 2.599,-6.562 4.181,-9.731 1.583,-3.168 3.306,-6.163 5.169,-8.984 1.862,-2.82 3.845,-5.417 5.946,-7.79 2.102,-2.372 4.258,-4.412 6.472,-6.122 2.213,-1.708 4.447,-3.044 6.702,-4.006 2.256,-0.962 4.49,-1.444 6.703,-1.444 2.549,0 5.015,0.697 7.397,2.091 2.381,1.393 4.607,3.65 6.681,6.769 0.476,0.697 0.778,1.402 0.903,2.115 0.127,0.714 0.189,1.386 0.189,2.016 0,1.493 -0.357,2.672 -1.071,3.534 -0.714,0.863 -1.562,1.294 -2.542,1.294 -0.898,0 -1.731,-0.473 -2.501,-1.418 -0.771,-0.946 -1.632,-2.298 -2.585,-4.057 -0.897,-1.593 -1.884,-2.745 -2.962,-3.459 -1.079,-0.713 -2.248,-1.07 -3.509,-1.07 -1.961,0 -4.055,0.813 -6.282,2.439 -2.228,1.625 -4.434,3.774 -6.618,6.445 -2.186,2.672 -4.28,5.724 -6.283,9.159 -2.003,3.434 -3.776,6.951 -5.317,10.551 -1.541,3.602 -2.765,7.153 -3.676,10.653 -0.911,3.5 -1.366,6.644 -1.366,9.431 0,0.93 0.064,1.885 0.189,2.862 0.127,0.98 0.364,1.867 0.715,2.664 0.349,0.797 0.826,1.451 1.428,1.964 0.603,0.516 1.366,0.772 2.29,0.772 1.037,0 2.213,-0.348 3.531,-1.045 1.316,-0.695 2.682,-1.609 4.096,-2.736 1.415,-1.129 2.837,-2.406 4.266,-3.834 1.43,-1.426 2.76,-2.869 3.992,-4.33 1.232,-1.459 2.325,-2.862 3.277,-4.205 0.953,-1.344 1.667,-2.514 2.144,-3.51 l 3.908,-11.697 c 0.476,-1.26 1.099,-2.156 1.87,-2.687 0.77,-0.531 1.562,-0.797 2.375,-0.797 0.391,0 0.783,0.067 1.176,0.199 0.393,0.133 0.742,0.341 1.051,0.622 0.308,0.283 0.553,0.647 0.735,1.096 0.182,0.447 0.273,0.97 0.273,1.567 0,1.593 -0.14,3.085 -0.42,4.48 -0.28,1.395 -0.637,2.754 -1.072,4.082 -0.434,1.326 -0.918,2.662 -1.45,4.006 -0.532,1.344 -1.051,2.746 -1.554,4.207 -0.112,0.166 -0.315,0.687 -0.61,1.566 -0.294,0.881 -0.65,1.985 -1.071,3.311 -0.42,1.328 -0.876,2.812 -1.366,4.455 -0.491,1.643 -0.994,3.318 -1.512,5.027 -0.519,1.709 -1.016,3.385 -1.492,5.028 -0.477,1.642 -0.905,3.127 -1.282,4.455 -0.378,1.326 -0.693,2.437 -0.946,3.334 -0.252,0.896 -0.406,1.426 -0.462,1.594 -0.14,0.529 -0.365,1.119 -0.672,1.765 -0.308,0.647 -0.672,1.262 -1.093,1.842 -0.42,0.58 -0.882,1.063 -1.387,1.443 -0.504,0.381 -1.022,0.573 -1.555,0.573 -0.896,0 -1.548,-0.299 -1.953,-0.895 -0.407,-0.598 -0.609,-1.693 -0.609,-3.285 v -0.697 c 0,-0.233 0.013,-0.483 0.041,-0.746 0.027,-0.532 0.238,-1.528 0.631,-2.989 0.392,-1.459 0.861,-3.109 1.408,-4.951 0.546,-1.842 1.135,-3.75 1.765,-5.725 0.629,-1.974 1.197,-3.74 1.702,-5.3 -1.487,1.66 -3.096,3.31 -4.833,4.953 -1.738,1.642 -3.517,3.119 -5.337,4.429 -1.822,1.311 -3.657,2.381 -5.505,3.211 -1.849,0.829 -3.628,1.245 -5.337,1.245 -1.961,0 -3.649,-0.432 -5.065,-1.295 -0.255,-0.157 -0.496,-0.332 -0.736,-0.506 l 5.712,59.888 c 1.487,3.727 29.481,12.884 66.391,12.884 36.927,0 64.932,-9.166 66.393,-12.89 l 8.205,-71.202 c -0.679,0.623 -1.34,1.232 -1.972,1.822 -2.354,2.189 -4.575,4.072 -6.662,5.648 -2.086,1.576 -4.125,2.797 -6.114,3.658 -1.99,0.864 -4.119,1.295 -6.388,1.295 -2.129,0 -3.776,-0.465 -4.938,-1.394 -1.162,-0.928 -1.744,-2.205 -1.744,-3.832 v -0.373 c 0,-0.116 0.014,-0.258 0.043,-0.424 0.111,-0.994 0.547,-2.141 1.303,-3.434 0.756,-1.295 1.666,-2.638 2.73,-4.031 1.065,-1.394 2.199,-2.805 3.404,-4.232 1.205,-1.426 2.319,-2.778 3.342,-4.057 1.022,-1.275 1.869,-2.445 2.541,-3.508 0.674,-1.062 1.01,-1.924 1.01,-2.588 0,-0.398 -0.141,-0.713 -0.42,-0.947 -0.281,-0.23 -0.744,-0.348 -1.387,-0.348 -1.121,0 -2.277,0.291 -3.466,0.871 -1.192,0.58 -2.37,1.362 -3.532,2.34 -1.162,0.979 -2.297,2.1 -3.404,3.36 -1.105,1.261 -2.142,2.572 -3.109,3.931 -0.967,1.362 -1.848,2.731 -2.647,4.108 -0.799,1.377 -1.478,2.646 -2.039,3.806 -0.168,0.366 -0.406,0.881 -0.715,1.543 -0.308,0.664 -0.644,1.412 -1.008,2.241 -0.365,0.83 -0.75,1.685 -1.156,2.562 -0.406,0.881 -0.777,1.711 -1.113,2.49 -0.336,0.78 -0.637,1.475 -0.902,2.09 -0.268,0.613 -0.457,1.037 -0.569,1.27 -0.14,0.298 -0.371,0.861 -0.693,1.691 -0.322,0.83 -0.694,1.801 -1.113,2.912 -0.42,1.111 -0.862,2.281 -1.325,3.51 -0.46,1.226 -0.896,2.389 -1.302,3.484 -0.407,1.094 -0.764,2.057 -1.071,2.887 -0.308,0.828 -0.506,1.393 -0.59,1.692 -0.279,0.863 -0.609,1.674 -0.986,2.44 -0.379,0.762 -0.812,1.434 -1.303,2.016 -0.49,0.58 -1.05,1.044 -1.681,1.392 -0.631,0.35 -1.338,0.523 -2.121,0.523 -1.01,0 -1.842,-0.242 -2.502,-0.722 -0.657,-0.481 -0.987,-1.403 -0.987,-2.762 0,-0.664 0.084,-1.344 0.252,-2.04 0.168,-0.697 0.379,-1.387 0.631,-2.066 0.252,-0.682 0.512,-1.344 0.778,-1.991 0.265,-0.648 0.511,-1.269 0.734,-1.867 1.514,-3.318 3.055,-6.644 4.623,-9.98 1.568,-3.334 3.074,-6.635 4.518,-9.904 0.3,-0.682 0.576,-1.35 0.869,-2.028 -0.088,0.086 -0.174,0.176 -0.26,0.26 -1.822,1.76 -3.635,3.31 -5.442,4.654 -1.808,1.344 -3.601,2.414 -5.378,3.211 -1.78,0.795 -3.51,1.194 -5.192,1.194 -1.148,0 -2.107,-0.182 -2.877,-0.547 -0.771,-0.366 -1.386,-0.864 -1.849,-1.493 -0.463,-0.63 -0.793,-1.377 -0.989,-2.24 -0.066,-0.295 -0.107,-0.603 -0.15,-0.91 -0.492,0.383 -0.988,0.756 -1.488,1.11 -1.737,1.226 -3.446,2.214 -5.127,2.96 -1.68,0.747 -3.194,1.12 -4.537,1.12 -1.346,0 -2.438,-0.448 -3.28,-1.344 -0.84,-0.895 -1.259,-2.422 -1.259,-4.578 0,-1.528 0.224,-3.303 0.671,-5.326 -0.728,1.294 -1.638,2.605 -2.73,3.931 -1.094,1.328 -2.34,2.539 -3.74,3.635 -1.403,1.094 -2.971,1.982 -4.707,2.662 -1.738,0.68 -3.629,1.02 -5.673,1.02 -0.925,0 -1.814,-0.116 -2.669,-0.348 -0.855,-0.233 -1.604,-0.631 -2.248,-1.195 -0.645,-0.563 -1.162,-1.319 -1.555,-2.264 -0.392,-0.945 -0.588,-2.133 -0.588,-3.559 0,-0.033 0.056,-0.539 0.168,-1.519 0.112,-0.979 0.469,-2.522 1.072,-4.629 0.602,-2.106 1.534,-4.836 2.793,-8.188 1.262,-3.351 3.041,-7.416 5.338,-12.193 0.588,-1.262 1.268,-2.166 2.037,-2.713 0.772,-0.548 1.604,-0.822 2.5,-0.822 0.393,0 0.799,0.059 1.219,0.174 0.422,0.117 0.813,0.299 1.178,0.548 0.363,0.249 0.658,0.565 0.883,0.946 0.222,0.381 0.336,0.82 0.336,1.318 0,0.332 -0.043,0.649 -0.127,0.945 -0.141,0.567 -0.442,1.303 -0.902,2.215 -0.463,0.914 -1.003,1.959 -1.62,3.137 -0.615,1.178 -1.267,2.447 -1.953,3.809 -0.687,1.359 -1.324,2.769 -1.912,4.23 -0.588,1.461 -1.093,2.945 -1.513,4.455 -0.42,1.51 -0.659,2.979 -0.714,4.405 0,0.597 0.139,1.144 0.42,1.642 0.28,0.498 0.743,0.746 1.387,0.746 1.82,0 3.557,-0.598 5.211,-1.791 1.652,-1.195 3.178,-2.68 4.58,-4.455 1.401,-1.775 2.668,-3.684 3.803,-5.725 1.135,-2.041 2.08,-3.906 2.836,-5.599 0.533,-1.127 1.002,-2.34 1.408,-3.633 0.406,-1.295 0.848,-2.488 1.324,-3.584 0.477,-1.096 1.022,-2.008 1.639,-2.738 0.615,-0.729 1.387,-1.095 2.31,-1.095 1.01,0 1.807,0.382 2.397,1.145 0.588,0.764 0.881,1.676 0.881,2.737 0,0.597 -0.188,1.42 -0.567,2.465 -0.379,1.045 -0.855,2.24 -1.429,3.584 -0.575,1.344 -1.198,2.779 -1.869,4.304 -0.672,1.528 -1.297,3.078 -1.869,4.655 -0.577,1.576 -1.051,3.119 -1.43,4.629 -0.379,1.509 -0.567,2.912 -0.567,4.205 0,1.195 0.616,1.793 1.848,1.793 0.869,0 1.947,-0.299 3.236,-0.897 1.289,-0.598 2.641,-1.435 4.055,-2.514 0.353,-0.269 0.709,-0.55 1.062,-0.845 0.395,-1.629 0.858,-3.135 1.397,-4.504 0.98,-2.59 1.975,-5.16 2.984,-7.715 1.008,-2.555 1.932,-4.895 2.774,-7.019 l 12.732,-32.104 c 0.504,-1.294 1.184,-2.207 2.037,-2.738 0.856,-0.53 1.717,-0.796 2.586,-0.796 0.867,0 1.658,0.282 2.373,0.846 0.715,0.565 1.073,1.477 1.073,2.738 0,0.597 -0.12,1.228 -0.358,1.891 -0.238,0.664 -0.539,1.377 -0.904,2.14 -0.699,1.561 -1.533,3.468 -2.5,5.724 -0.967,2.257 -2.004,4.713 -3.11,7.367 -1.107,2.655 -2.242,5.417 -3.404,8.287 -1.162,2.871 -2.297,5.666 -3.404,8.387 -1.105,2.722 -2.143,5.3 -3.11,7.74 -0.966,2.439 -1.798,4.555 -2.5,6.346 -0.308,0.763 -0.609,1.652 -0.902,2.664 -0.295,1.011 -0.441,1.916 -0.441,2.713 0,0.496 0.084,0.894 0.252,1.193 0.168,0.299 0.49,0.449 0.966,0.449 0.588,0 1.323,-0.207 2.206,-0.623 0.882,-0.414 1.834,-0.963 2.857,-1.643 1.024,-0.679 2.088,-1.459 3.193,-2.339 1.108,-0.879 2.207,-1.791 3.299,-2.737 1.094,-0.947 2.137,-1.892 3.131,-2.838 0.994,-0.945 1.885,-1.816 2.67,-2.613 0.184,-0.191 0.404,-0.326 0.646,-0.427 0.473,-1.413 0.905,-2.797 1.286,-4.151 0.224,-0.598 0.533,-1.443 0.925,-2.539 0.391,-1.096 0.84,-2.174 1.344,-3.236 0.504,-1.061 1.073,-1.983 1.701,-2.762 0.631,-0.779 1.311,-1.17 2.039,-1.17 1.121,0 1.934,0.258 2.438,0.771 0.504,0.516 0.756,1.27 0.756,2.266 0,0.199 -0.028,0.514 -0.084,0.945 -0.057,0.432 -0.125,0.889 -0.209,1.37 -0.084,0.48 -0.176,0.937 -0.274,1.369 -0.099,0.431 -0.189,0.746 -0.273,0.945 1.035,-1.129 2.156,-2.248 3.361,-3.359 1.205,-1.112 2.451,-2.118 3.74,-3.012 1.29,-0.897 2.606,-1.625 3.952,-2.192 1.343,-0.562 2.689,-0.845 4.033,-0.845 0.924,0 1.842,0.133 2.752,0.399 0.91,0.265 1.724,0.655 2.437,1.169 0.715,0.516 1.297,1.162 1.744,1.942 0.448,0.779 0.672,1.683 0.672,2.712 0,1.362 -0.342,2.813 -1.029,4.356 -0.686,1.543 -1.547,3.094 -2.584,4.652 -1.037,1.561 -2.158,3.078 -3.361,4.555 -1.205,1.477 -2.332,2.82 -3.383,4.031 -1.051,1.213 -1.934,2.24 -2.649,3.086 -0.712,0.848 -1.086,1.42 -1.113,1.719 0,0.398 0.127,0.721 0.379,0.971 0.252,0.248 0.672,0.373 1.26,0.373 0.476,0 1.178,-0.266 2.101,-0.797 0.924,-0.531 2.221,-1.451 3.887,-2.762 1.666,-1.311 3.783,-3.07 6.346,-5.277 1.758,-1.512 3.816,-3.315 6.135,-5.366 l 11.114,-102.929 c -1.79,0.988 -3.652,1.608 -4.75,1.971 -4.598,1.518 -11.091,2.87 -19.299,4.016 z M 87.474,84.99 c -48.048502,0 -87,5.372381 -87,12 0,6.62762 38.951498,12 87,12 48.0485,0 87,-5.37238 87,-12 0,-6.627619 -38.9515,-12 -87,-12 z m 34.738,15.507 c 0,1.555 -4.629,2.816 -10.34,2.816 -5.71,0 -10.339,-1.261 -10.339,-2.816 0,-1.556 4.629,-2.817 10.339,-2.817 5.711,0 10.34,1.261 10.34,2.817 z"
           id="Cup"
           sketch:type="MSShapeGroup" />
        <path
           d="m 103.62676,99.251994 c -0.0513,0.08174 -0.0778,0.165195 -0.0778,0.250006 0,1.007 3.727,1.822 8.323,1.822 4.597,0 8.323,-0.815 8.323,-1.822 L 131.066,55.424 174.29905,9.779239 c 0.0141,-0.013926 0.0278,-0.028337 0.041,-0.043239 0.915,-1.035 -0.942,-4.238 -4.023,-6.985 -3.081,-2.747 -6.408,-3.677 -7.442,-2.631 -0.008,0.007823 -0.0153,0.0157562 -0.0226,0.0237991 L 116.725,48.682 Z"
           id="Straw"
           sketch:type="MSShapeGroup" />
      </g>
    </g>
  </g>
</svg>
