<?xml version="1.0" encoding="UTF-8" standalone="no"?>
<svg
   width="600"
   height="600"
   viewBox="0 0 122.88 122.97521"
   preserveAspectRatio="xMinYMin"
   version="1.1"
   id="svg1"
   sodipodi:docname="handlebars.svg"
   inkscape:version="1.3 (0e150ed6c4, 2023-07-21)"
   xmlns:inkscape="http://www.inkscape.org/namespaces/inkscape"
   xmlns:sodipodi="http://sodipodi.sourceforge.net/DTD/sodipodi-0.dtd"
   xmlns="http://www.w3.org/2000/svg"
   xmlns:svg="http://www.w3.org/2000/svg">
  <defs
     id="defs1" />
  <sodipodi:namedview
     id="namedview1"
     pagecolor="#ffffff"
     bordercolor="#666666"
     borderopacity="1.0"
     inkscape:showpageshadow="2"
     inkscape:pageopacity="0.0"
     inkscape:pagecheckerboard="0"
     inkscape:deskcolor="#d1d1d1"
     inkscape:zoom="0.6648"
     inkscape:cx="365.52347"
     inkscape:cy="426.44404"
     inkscape:window-width="1920"
     inkscape:window-height="1017"
     inkscape:window-x="-8"
     inkscape:window-y="-8"
     inkscape:window-maximized="1"
     inkscape:current-layer="svg1" />
  <path
     d="m 47.419057,45.876039 c 3.780303,-0.01635 7.65703,1.068314 10.595213,3.512268 1.505622,1.21869 2.721758,2.74767 3.754604,4.37563 1.858399,-3.00402 4.572936,-5.55651 7.920391,-6.786876 4.079134,-1.531321 8.689876,-1.425552 12.762,0.0754 3.556871,1.298546 6.666875,3.561536 9.487395,6.050306 2.206504,1.94782 4.248407,4.07914 6.520751,5.9541 1.197447,0.97147 2.484099,1.88176 3.956799,2.38512 1.95716,0.66818 4.27198,0.0378 5.67162,-1.47015 1.29621,-1.41132 1.21614,-3.85081 -0.21175,-5.1398 -0.90796,-0.7835 -2.46052,-0.62591 -3.103,0.41841 -0.56198,0.82831 -0.24679,1.86094 0.19328,2.66313 -1.16941,-0.8538 -2.34074,-2.04423 -2.33628,-3.59679 -0.24212,-1.7949 1.08935,-3.37826 2.68417,-4.00629 3.11234,-1.2446 7.01498,-0.17161 8.97936,2.56884 1.88898,2.55716 2.03936,5.91863 1.71015,8.96492 -0.39759,2.89358 -2.01599,5.59431 -4.41555,7.26921 -3.36849,2.40424 -7.63834,3.14972 -11.700911,3.09811 -3.904975,-0.10598 -7.770021,-0.98803 -11.388059,-2.44672 -6.050311,-2.43227 -11.712588,-5.79396 -17.960633,-7.73689 -2.072487,-0.80452 -4.276655,-1.23971 -6.492716,-1.37394 -1.764312,-0.0117 -3.436871,-0.0941 -5.102422,0.0189 -2.032558,0.19539 -4.053222,0.61168 -5.956223,1.35716 -6.353814,1.97627 -12.100834,5.42249 -18.266472,7.85965 -5.206067,2.02533 -10.974114,2.96643 -16.499826,1.84183 -3.091101,-0.6257 -6.168186,-1.99242 -8.2546905,-4.42724 -1.7855501,-2.07015 -2.6416881,-4.84118 -2.5573699,-7.55593 -0.098761,-2.56183 0.4634317,-5.28359 2.15723,-7.27855 1.5759224,-1.89111 4.1143904,-2.8509 6.5515484,-2.63914 1.568913,0.0728 3.159278,0.75737 4.128407,2.02066 0.762262,0.99971 0.8092,2.36898 0.475113,3.53797 -0.406937,1.05153 -1.246721,1.87263 -2.159354,2.503 0.465768,-0.78584 0.748032,-1.82315 0.197521,-2.64424 -0.677519,-1.0938 -2.345405,-1.20424 -3.227455,-0.30584 -1.086792,1.11759 -1.315109,2.94307 -0.585767,4.31212 0.790297,1.43511 2.425476,2.25366 4.008407,2.4206 2.394893,0.20707 4.472053,-1.27731 6.229355,-2.71688 3.636728,-3.13124 6.911122,-6.71381 10.945654,-9.36272 3.326428,-2.230078 7.245421,-3.738036 11.289298,-3.719134 z"
     fill="#423426"
     id="path1"
     style="stroke-width:3.07438025;stroke:#ffffff;stroke-opacity:1;stroke-dasharray:none;paint-order:stroke fill markers" />
</svg>
