<?xml version="1.0" encoding="UTF-8" standalone="no"?>
<svg
   width="612"
   height="612"
   viewBox="0 0 128.1763 128.25"
   version="1.1"
   id="svg380"
   sodipodi:docname="jquery.svg"
   inkscape:version="1.2 (dc2aedaf03, 2022-05-15)"
   xmlns:inkscape="http://www.inkscape.org/namespaces/inkscape"
   xmlns:sodipodi="http://sodipodi.sourceforge.net/DTD/sodipodi-0.dtd"
   xmlns="http://www.w3.org/2000/svg"
   xmlns:svg="http://www.w3.org/2000/svg">
  <defs
     id="defs384" />
  <sodipodi:namedview
     id="namedview382"
     pagecolor="#ffffff"
     bordercolor="#666666"
     borderopacity="1.0"
     inkscape:showpageshadow="2"
     inkscape:pageopacity="0.0"
     inkscape:pagecheckerboard="0"
     inkscape:deskcolor="#d1d1d1"
     showgrid="false"
     inkscape:zoom="0.38562092"
     inkscape:cx="1032.1017"
     inkscape:cy="306"
     inkscape:window-width="1920"
     inkscape:window-height="1017"
     inkscape:window-x="1912"
     inkscape:window-y="-8"
     inkscape:window-maximized="1"
     inkscape:current-layer="svg380" />
  <path
     d="m 43.542858,108.33122 1.8e-4,-9.1e-4 -0.60881,2.15772 z m 3.13124,4.68433 -0.67075,-0.004 z m -0.17254,3.22223 h 7.2e-4 l -4.01957,0.0145 z m 0.84274,-3.21824 -0.67111,-0.004 z m -0.49039,2.94435 0.69999,-2.67027 -0.69999,2.67081 z m 14.79893,-12.29702 -1.30426,6.13171 z m -3.35283,0 -0.99004,4.58062 0.99004,-4.58098 z"
     fill="#131b28"
     id="path358"
     style="stroke-width:0.181626" />
  <path
     d="m 61.429438,103.39098 h -2.78906 c -0.15475,0 -0.30822,0.12423 -0.34146,0.27553 l -0.99004,4.58098 -0.99023,4.58116 c -0.0329,0.15112 -0.18617,0.27499 -0.34091,0.27499 h -1.9741 c -1.95303,0 -1.72727,-1.35094 -1.32733,-3.20153 l 0.012,-0.056 0.0438,-0.2332 0.008,-0.044 0.089,-0.47495 0.0955,-0.5091 c 0.0291,-0.15347 0.073,-0.37778 0.10207,-0.51872 l 0.45007,-2.19932 0.45044,-2.19931 c 0.031,-0.15166 -0.0705,-0.27626 -0.22522,-0.27626 h -2.8628 c -0.15474,0 -0.30785,0.1246 -0.33964,0.27589 l -0.61553,2.92037 -0.61553,2.92001 c -5.5e-4,0.001 -7.3e-4,0.003 -9.1e-4,0.004 l -0.0572,0.27135 c -0.70889,3.23695 -0.52091,6.32369 3.33248,6.42032 0.063,0.002 0.1117,0.002 0.1117,0.002 h 6.04852 c 0.15475,0 0.30786,-0.12424 0.34037,-0.27589 l 1.30426,-6.13117 1.30444,-6.13171 c 0.032,-0.15202 -0.0683,-0.27607 -0.22303,-0.27625 z m 11.12643,9.74426 c 0.15511,0 0.25628,0.12423 0.22522,0.27589 l -0.2708,1.32369 m -0.27045,1.32424 0.27081,-1.32442 -0.27099,1.32497 z m -0.33964,0.27862 10e-4,-3.7e-4 c -0.82096,0.007 -3.28744,0.0254 -5.14131,0.0254 2.25617,0 5.13967,-0.0249 5.13985,-0.0251 z m -6.80373,-4.90737 c -0.002,-0.14494 0.16274,-0.39467 0.31785,-0.39467 l -0.34836,-0.006 c -0.15711,1.5787 0.0305,0.40049 0.0305,0.40049 z"
     fill="#131b28"
     id="path360"
     style="stroke-width:0.181626" />
  <path
     d="m 67.014448,116.36201 c -0.0178,0 -0.036,0 -0.0538,3.7e-4 0.0178,-3.7e-4 0.036,-3.7e-4 0.0538,-3.7e-4 z m 5.54142,-3.22677 c 0.15511,0 0.25628,0.12423 0.22522,0.27589 l -0.2708,1.32369 -0.0441,0.21578 m -4.13128,1.40833 h -0.0113 z m -0.68473,0.002 h -0.0398 z m -0.20887,5.4e-4 c -0.0222,0 -0.0438,0 -0.0656,3.6e-4 0.0218,-3.6e-4 0.0434,-3.6e-4 0.0656,-3.6e-4 z m -0.2125,3.6e-4 h -0.0576 z m 0.38141,-9e-4 -0.16909,3.6e-4 z m 0.7138,-0.002 c -0.22576,9e-4 -0.45098,0.002 -0.67293,0.002 0.22195,-3.7e-4 0.44753,-10e-4 0.67293,-0.002 z m 3.57804,-0.0218 z m 0.33782,-0.27734 0.22686,-1.10901 -0.22704,1.10973 z m -4.86395,0.30222 h -0.1473 z m -0.41593,3.7e-4 h -0.19924 z m 0.21069,-3.7e-4 h -0.15693 z m -40.79876,-4.89846 0.43336,-1.92052 -0.49547,2.19532 -0.47532,2.23618 0.41665,-1.96029 c 0.032,-0.15166 0.0866,-0.39958 0.12078,-0.55069 z m 5.18544,-8.1049 h -3.06295 c -0.15511,0 -0.30949,0.12369 -0.34418,0.27444 l -0.2906,1.28192 -0.29042,1.28246 c -0.0341,0.15075 0.0645,0.27444 0.2194,0.27444 h 3.08674 c 0.15493,0 0.30859,-0.12369 0.342,-0.27498 l 0.28062,-1.28192 0.28079,-1.28102 v -3.6e-4 c 0.0332,-0.15111 -0.0663,-0.27498 -0.2214,-0.27498 z m -0.66657,4.26441 v -3.7e-4 l -0.89832,4.15598 z m -8.89788,13.77055 c 0,0 1.54401,0.0198 2.52533,0.0198 -0.74539,0 -1.977,-0.0136 -2.5266,-0.0202 z m 5.24537,-13.7711 -0.43372,1.92052 z"
     fill="#131b28"
     id="path362"
     style="stroke-width:0.181626" />
  <path
     d="m 30.669178,107.34771 h -3.08711 c -0.15475,0 -0.30949,0.12369 -0.34364,0.27498 l -0.43372,1.92052 -0.43336,1.92052 c -0.0341,0.15111 -0.0886,0.39903 -0.12078,0.55069 l -0.41665,1.9603 -0.41629,1.96029 a 5.9658848,5.9658848 0 0 1 -0.14857,0.54216 c 0,0 -0.57667,1.716 -1.54619,1.69657 -0.0414,-9.1e-4 -0.0814,-10e-4 -0.12114,-0.002 -0.46987,-0.009 -0.83894,-0.0154 -0.83894,-0.0154 h -7.2e-4 c -0.15457,-0.002 -0.30986,0.11824 -0.346,0.26862 l -0.32021,1.34586 -0.31984,1.34512 c -0.0358,0.15039 0.0612,0.27462 0.21522,0.27716 0.54979,0.007 1.78122,0.0203 2.52679,0.0203 2.42181,0 3.69846,-1.34186 4.51687,-5.20306 l 0.95772,-4.43132 0.89832,-4.15616 c 0.0327,-0.15093 -0.0672,-0.2748 -0.22176,-0.2748 z m 43.85371,8.85774 c -0.15493,0 -0.25519,-0.12423 -0.22268,-0.27607 l 2.32228,-10.87761 m 1.1279,10.87743 0.93919,-4.64274 z"
     fill="#131b28"
     id="path364"
     style="stroke-width:0.181626" />
  <path
     d="m 74.333998,116.0676 c -0.0189,-0.0757 -0.008,-0.26136 0.0251,-0.4132 l 1.10211,-5.16328 -1.16114,5.43862 c -0.0327,0.15166 0.0678,0.27589 0.22268,0.27589 h 0.28206 c -0.15511,-1.8e-4 -0.45225,-0.0621 -0.47077,-0.13803 z m 3.23295,0.0759 c -0.0843,0.0341 -0.28025,0.0621 -0.43518,0.0621 h 0.28207 c 0.15492,0 0.30676,-0.12423 0.33746,-0.27625 l 0.0559,-0.27589 c -0.0311,0.15148 -0.15584,0.4557 -0.24029,0.49003 z m 0.65385,-2.53569 0.41448,-2.04911 c -1.9e-4,0.001 -3.7e-4,0.003 -7.3e-4,0.004 z m 9.16306,-7.82719 0.12786,0.52853 c 0.0352,0.1513 -0.0625,0.27408 -0.21686,0.27444 m -9.48816,9.06988 0.41338,-2.04548 z m 9.44984,-10.41428 0.12659,0.54143 z m -8.62163,6.31969 c 0.0309,-0.15166 0.0819,-0.3974 0.11406,-0.5476 l 0.44281,-2.07436 -0.50147,2.3497 z m -1.97428,-6.68512 c -0.0307,0.14639 -0.0703,0.33128 -0.0963,0.4537 l -1.10211,5.16364 1.16114,-5.43899 z"
     fill="#131b28"
     id="path366"
     style="stroke-width:0.181626" />
  <path
     d="m 87.510998,106.30917 -0.12787,-0.52853 -0.12659,-0.54143 -0.0641,-0.27408 c -0.25082,-0.97406 -0.98695,-1.53637 -2.58508,-1.53637 l -2.48829,-0.003 -2.29158,-0.003 h -2.57837 c -0.15474,0 -0.30786,0.12369 -0.33982,0.27534 h -1.8e-4 l -0.11406,0.53871 -0.13441,0.63623 -0.0376,0.17818 -1.16114,5.43899 -1.10211,5.16327 c -0.0329,0.15184 -0.0438,0.33747 -0.0251,0.4132 0.0187,0.0759 0.31567,0.13804 0.47078,0.13804 h 2.32627 c 0.15511,0 0.35109,-0.028 0.43518,-0.0621 0.0845,-0.0341 0.20923,-0.33837 0.24011,-0.49002 l 0.41338,-2.04548 0.41393,-2.04512 7.2e-4,-0.004 0.0552,-0.27226 0.50165,-2.3497 0.44281,-2.07526 c 0.0329,-0.15075 0.18544,-0.27408 0.33982,-0.27444 l 7.31955,-0.004 c 0.15438,0 0.25227,-0.12297 0.21686,-0.27408 z"
     fill="#131b28"
     id="path368"
     style="stroke-width:0.181626" />
  <path
     d="m 96.933778,101.53003 c -0.15511,0.001 -0.4083,0.002 -0.56341,0.002 h -2.3428 c -0.1551,0 -0.35326,0.10462 -0.4408,0.23248 l -5.18035,7.58963 c -0.0875,0.12823 -0.18726,0.10916 -0.22177,-0.0416 l -0.38123,-1.67224 c -0.0343,-0.15129 -0.18962,-0.27444 -0.34437,-0.27444 h -3.33066 c -0.15493,0 -0.24665,0.12151 -0.20433,0.27045 l 1.49242,5.22793 c 0.0425,0.14894 0.0456,0.39377 0.007,0.54379 l -0.65041,2.53024 c -0.0387,0.1502 0.0567,0.27317 0.21178,0.27317 h 3.29143 c 0.15493,0 0.31313,-0.12297 0.35163,-0.27317 l 0.65077,-2.53024 c 0.0383,-0.15002 0.14603,-0.37433 0.23938,-0.49802 l 8.4104,-11.16258 c 0.0934,-0.12369 0.0427,-0.22431 -0.11188,-0.22322 z m -26.45935,6.54746 -1.8e-4,-0.003 c -0.0194,0.168 -0.17454,0.29133 -0.3291,0.29133 h -4.22246 c -0.14602,0 -0.22031,-0.0994 -0.1987,-0.22177 10e-4,-0.004 0.002,-0.007 0.004,-0.01 0,0 -10e-4,3.7e-4 -0.003,0.001 9.1e-4,-0.005 9.1e-4,-0.009 0.002,-0.0142 l 0.0193,-0.0719 c 0.40339,-1.07214 1.2247,-1.77594 2.76853,-1.77594 1.73798,1.8e-4 2.07726,0.84947 1.9592,1.8041 z m -1.23869,-4.87377 c -5.41991,0 -6.70419,3.2898 -7.42471,6.61012 -0.72051,3.38424 -0.65839,6.54854 4.94987,6.54854 h 0.19924 c 0.0178,-3.7e-4 0.0358,-3.7e-4 0.0536,-3.7e-4 h 0.3618 c 0.0218,-3.6e-4 0.0434,-3.6e-4 0.0656,-3.6e-4 l 0.16909,-3.6e-4 h 0.0396 c 0.22213,-3.7e-4 0.44735,-10e-4 0.67293,-0.002 h 0.0113 c 1.48116,-0.006 2.96668,-0.0171 3.56823,-0.0218 0.15402,-0.002 0.30459,-0.12641 0.33619,-0.27661 l 0.22703,-1.10974 0.0441,-0.21596 0.27099,-1.32351 c 0.031,-0.15184 -0.0705,-0.27607 -0.22522,-0.27607 h -5.04232 c -2.00533,0 -2.6007,-0.53289 -2.3813,-2.0996 h 8.06004 l -7.3e-4,9.1e-4 c 0.002,0 0.004,-9.1e-4 0.005,-9.1e-4 0.12805,-0.002 0.24647,-0.0905 0.29351,-0.20796 0.009,-0.0227 0.0165,-0.0461 0.0194,-0.0705 l -9.1e-4,9.1e-4 c 1.19674,-4.51414 0.85347,-7.55421 -4.2733,-7.55421 z m -25.6166,4.85651 -0.0763,0.27008 -1.8e-4,9.1e-4 -0.60863,2.15681 -0.60845,2.15645 c -0.042,0.14894 -0.20306,0.27081 -0.35835,0.27081 h -3.22114 c -2.44324,0 -3.03843,-1.91089 -2.44324,-4.72992 0.59464,-2.88314 1.76123,-4.67543 4.16614,-4.85687 3.28617,-0.24774 3.94366,2.06364 3.15013,4.73173 z m 2.20913,4.68923 c 0,0 1.51876,-3.68756 1.86385,-5.81767 0.47023,-2.85136 -0.95736,-6.986448 -6.47154,-6.986448 -5.48275,0 -7.86351,3.948018 -8.77201,8.239848 -0.90831,4.32289 0.28188,8.11416 5.7334,8.08311 l 4.30074,-0.016 4.01957,-0.0145 c 0.15493,-10e-4 0.31313,-0.12423 0.35254,-0.27371 l 0.69999,-2.67082 c 0.0391,-0.14984 -0.0556,-0.27316 -0.21033,-0.27407 l -0.67111,-0.004 -0.67074,-0.004 c -0.13186,-9.1e-4 -0.20724,-0.0861 -0.19125,-0.19925 a 0.27243971,0.27243971 0 0 1 0.0165,-0.063 z"
     fill="#131b28"
     id="path370"
     style="stroke-width:0.181626" />
  <path
     d="m 72.969978,110.28134 a 0.18489575,0.18489575 0 1 1 -0.36979,0 0.18489575,0.18489575 0 0 1 0.36979,0 z"
     fill="#131b28"
     id="path372"
     style="stroke-width:0.181626" />
  <path
     d="m 26.755153,27.776215 c -7.757641,11.150156 -6.792473,25.656528 -0.86651,37.503802 0.140541,0.284804 0.289458,0.563092 0.434652,0.843242 0.09307,0.176839 0.179631,0.359262 0.277357,0.533309 0.05491,0.104242 0.11541,0.207553 0.173116,0.307141 0.100519,0.188008 0.20476,0.36857 0.309002,0.551924 0.183354,0.325756 0.372293,0.647788 0.564954,0.970752 0.107034,0.176839 0.213137,0.354609 0.322964,0.531447 0.213137,0.345302 0.432789,0.685949 0.657096,1.027527 0.09307,0.145194 0.183354,0.290388 0.279219,0.431859 0.309003,0.460712 0.625451,0.919563 0.950276,1.372829 l 0.02699,0.0363 c 0.05212,0.0726 0.107965,0.142402 0.161017,0.214999 0.282011,0.389045 0.572399,0.772507 0.86651,1.152245 0.107965,0.137748 0.216861,0.277358 0.326687,0.415106 0.363246,0.45475 0.732155,0.904949 1.106639,1.35049 0.371637,0.438981 0.750811,0.871525 1.137353,1.297439 0.01675,0.01861 0.02978,0.02885 0.04281,0.04747 0.775561,0.841485 1.577314,1.658448 2.404078,2.449683 0.124718,0.118203 0.247574,0.239198 0.370431,0.351817 0.41294,0.389679 0.833082,0.771655 1.260209,1.145729 0.07167,0.06329 0.145194,0.123788 0.21593,0.184285 0.3695,0.321102 0.747377,0.639412 1.126184,0.951207 0.154502,0.125649 0.311795,0.248505 0.467227,0.372292 0.309934,0.248506 0.62359,0.493288 0.940038,0.734347 l 0.501664,0.3816 c 0.349024,0.255951 0.69991,0.50911 1.054519,0.756684 0.130302,0.09307 0.254089,0.183354 0.384391,0.271774 0.0363,0.02513 0.06887,0.05119 0.105173,0.07539 0.335994,0.231752 0.680364,0.454196 1.023804,0.677572 0.147986,0.09773 0.294111,0.200107 0.443959,0.295042 0.526793,0.334132 1.062894,0.663611 1.603649,0.981921 0.146125,0.0847 0.295042,0.1666 0.443028,0.250366 0.398353,0.229891 0.797636,0.454197 1.203435,0.675711 0.218722,0.118203 0.444889,0.22896 0.665473,0.342509 0.286665,0.149848 0.570538,0.302487 0.861856,0.447681 0.06515,0.03164 0.134026,0.06329 0.199177,0.09587 0.116341,0.05677 0.234544,0.110757 0.351816,0.170324 0.547074,0.263166 1.098452,0.51729 1.653909,0.762268 0.525863,0.22896 1.05638,0.449543 1.59155,0.660819 0.128441,0.05305 0.257812,0.10238 0.387184,0.15264 0.559995,0.216393 1.123471,0.423663 1.690207,0.621728 0.553785,0.193592 1.112224,0.372293 1.675316,0.548201 0.134025,0.03909 0.268981,0.0819 0.404868,0.120995 0.572399,0.173116 1.139215,0.378809 1.728367,0.487699 C 95.801421,98.17206 106.69934,68.784228 106.69934,68.784228 97.546547,80.708743 81.299708,83.852753 65.906349,80.352274 65.323712,80.22011 64.757827,80.038617 64.18822,79.870155 63.489387,79.6627 62.795204,79.43989 62.106175,79.20189 l -0.227099,-0.0819 c -0.488755,-0.17315 -0.974959,-0.35342 -1.458455,-0.540755 -0.135887,-0.05491 -0.272704,-0.106103 -0.408591,-0.161016 -0.528777,-0.208731 -1.053792,-0.426866 -1.574796,-0.654304 -0.106104,-0.04561 -0.209415,-0.094 -0.314588,-0.138679 -0.574341,-0.259909 -1.145239,-0.527362 -1.712544,-0.80229 -0.345302,-0.168462 -0.685949,-0.347163 -1.027527,-0.523071 -0.228029,-0.120064 -0.459781,-0.233613 -0.685949,-0.359262 -0.414511,-0.222887 -0.825029,-0.453125 -1.231357,-0.690602 -0.136817,-0.07725 -0.277358,-0.15171 -0.415106,-0.231752 -0.54008,-0.319018 -1.075009,-0.646678 -1.60458,-0.982852 -0.145194,-0.09307 -0.288527,-0.191731 -0.43279,-0.288527 -0.384266,-0.246921 -0.764671,-0.4998 -1.141076,-0.758546 -0.125649,-0.08376 -0.245713,-0.174977 -0.36857,-0.257812 -0.362985,-0.255955 -0.721316,-0.51656 -1.078717,-0.779956 -0.161947,-0.120065 -0.321102,-0.241991 -0.478395,-0.362055 -0.473575,-0.364164 -0.943004,-0.733688 -1.408196,-1.1085 -0.408797,-0.334844 -0.812775,-0.675527 -1.211812,-1.021943 L 45.192002,69.34638 c -0.430659,-0.379675 -0.855433,-0.765975 -1.274171,-1.15876 -0.121926,-0.116341 -0.240128,-0.228959 -0.359262,-0.345301 -0.310326,-0.294195 -0.61565,-0.593623 -0.915839,-0.898155 -0.120064,-0.120064 -0.241059,-0.238267 -0.359262,-0.358331 -0.3816,-0.390907 -0.755754,-0.787399 -1.123393,-1.188544 l -0.05584,-0.05864 C 40.716029,64.913408 40.335913,64.48085 39.964086,64.041214 39.863567,63.920219 39.76491,63.804809 39.665322,63.686606 39.387375,63.352202 39.114025,63.014005 38.845348,62.672109 38.743949,62.548352 38.643736,62.423628 38.544722,62.297955 38.221758,61.879126 37.90624,61.461228 37.597238,61.036815 29.050335,49.380341 25.980786,33.301033 32.810488,20.096754"
     fill="#0868ac"
     id="path374"
     sodipodi:nodetypes="cccccccccccccccccccccccccccccccccccccccccccccccccccccccccccccccccccccccccccccccc"
     style="stroke-width:0.930731" />
  <path
     d="m 50.835954,18.382347 c -5.609515,8.07316 -5.305166,18.880808 -0.928869,27.419333 0.732634,1.435331 1.56164,2.819393 2.481328,4.142684 0.84045,1.204365 1.772112,2.637691 2.888058,3.606582 0.404868,0.44582 0.82742,0.879541 1.259279,1.306746 0.108896,0.111688 0.220584,0.217791 0.33134,0.327617 0.418829,0.40673 0.845104,0.806944 1.286271,1.195059 0.01861,0.01396 0.03444,0.03165 0.05212,0.04561 0.0056,0.0047 0.01024,0.0065 0.01303,0.0121 0.486772,0.427206 0.990297,0.838589 1.502199,1.242526 0.11355,0.08656 0.225237,0.176839 0.340648,0.266189 0.511902,0.392769 1.034973,0.779022 1.571074,1.147591 0.01675,0.01117 0.02978,0.02234 0.04561,0.03444 0.236405,0.163809 0.477465,0.315518 0.717593,0.472812 0.11448,0.07446 0.223376,0.154501 0.339717,0.224306 0.38253,0.245713 0.769714,0.484911 1.164344,0.71387 0.05677,0.03444 0.109827,0.06329 0.16474,0.09587 0.339716,0.195453 0.684087,0.388115 1.029388,0.574261 0.120995,0.06794 0.242921,0.12751 0.366708,0.1908 0.238267,0.125648 0.477465,0.252228 0.719455,0.372292 0.0363,0.01861 0.07353,0.03444 0.108896,0.05026 0.494218,0.243852 0.992159,0.478396 1.501269,0.69991 0.108895,0.0484 0.221514,0.09121 0.33134,0.135887 0.40766,0.173116 0.818112,0.341578 1.231357,0.499802 0.174977,0.06608 0.352747,0.130303 0.526793,0.193592 0.375085,0.138679 0.752031,0.266189 1.130839,0.393699 0.172185,0.05491 0.339716,0.110757 0.511902,0.163809 0.538893,0.167532 1.072202,0.378808 1.634363,0.472811 28.967134,4.798836 35.655364,-17.504269 35.655364,-17.504269 -6.02927,8.682789 -17.703429,12.824541 -30.160332,9.591182 -0.71755,-0.188848 -1.428981,-0.400228 -2.133235,-0.633828 -0.560541,-0.181342 -1.116079,-0.377799 -1.666008,-0.589152 -0.414603,-0.158672 -0.826361,-0.324678 -1.23508,-0.497941 -0.110757,-0.04747 -0.223376,-0.09121 -0.332271,-0.140541 -0.509043,-0.221859 -1.012713,-0.455849 -1.510576,-0.701771 -0.255951,-0.124718 -0.507249,-0.256882 -0.757615,-0.386253 l -0.437444,-0.225237 c -0.32242,-0.175116 -0.642012,-0.355391 -0.958653,-0.540755 -0.07539,-0.04281 -0.15357,-0.0847 -0.22989,-0.129371 -0.391838,-0.229891 -0.778091,-0.465366 -1.160622,-0.709217 -0.118203,-0.07539 -0.231752,-0.156363 -0.349955,-0.233614 -0.252618,-0.1635 -0.503617,-0.329489 -0.752961,-0.497941 C 66.596879,50.814623 66.074909,50.432921 65.561979,50.039298 65.443776,49.946228 65.325573,49.855013 65.209232,49.76194 59.756079,45.456379 55.433765,39.573229 53.378711,32.90175 51.225,25.982696 51.689434,18.215747 55.420735,11.912837"
     fill="#0868ac"
     id="path376"
     sodipodi:nodetypes="cccccccccccccccccccccccccccccccccccccccccccccc"
     style="stroke-width:0.930731" />
  <path
     d="m 71.08959,11.363706 c -3.306887,4.866792 -3.631712,10.911889 -1.337461,16.287791 2.420831,5.70538 7.379766,10.182196 13.167051,12.304262 0.238267,0.08935 0.477465,0.168463 0.718524,0.250367 0.105173,0.03165 0.210345,0.06887 0.317379,0.09959 0.340648,0.107034 0.678503,0.231752 1.03125,0.297834 15.994607,3.090027 20.332747,-8.207185 21.487777,-9.870401 -3.80017,5.471767 -10.186842,6.785028 -18.022666,4.883545 C 87.810353,35.45243 87.177638,35.257056 86.555545,35.031264 85.789173,34.759187 85.037654,34.44696 84.304107,34.095878 82.911711,33.425909 81.58945,32.619022 80.356877,31.687146 73.344751,26.367088 68.98893,16.217467 73.564403,7.951647"
     fill="#0868ac"
     id="path378"
     sodipodi:nodetypes="cccccccccccc"
     style="stroke-width:0.930731" />
</svg>
