<?xml version="1.0" encoding="UTF-8" standalone="no"?>
<svg
   viewBox="495 168 512 512"
   version="1.1"
   id="svg2"
   sodipodi:docname="lightningcss.svg"
   width="512"
   height="512"
   inkscape:version="1.3 (0e150ed6c4, 2023-07-21)"
   inkscape:export-filename="lightningcss.png"
   inkscape:export-xdpi="96"
   inkscape:export-ydpi="96"
   xmlns:inkscape="http://www.inkscape.org/namespaces/inkscape"
   xmlns:sodipodi="http://sodipodi.sourceforge.net/DTD/sodipodi-0.dtd"
   xmlns="http://www.w3.org/2000/svg"
   xmlns:svg="http://www.w3.org/2000/svg">
  <defs
     id="defs2">
    <filter
       inkscape:collect="always"
       style="color-interpolation-filters:sRGB"
       id="filter3"
       x="-0.21681044"
       y="-0.11559714"
       width="1.4336209"
       height="1.2312489">
      <feGaussianBlur
         inkscape:collect="always"
         stdDeviation="16.804248"
         id="feGaussianBlur3" />
    </filter>
  </defs>
  <sodipodi:namedview
     id="namedview2"
     pagecolor="#ffffff"
     bordercolor="#666666"
     borderopacity="1.0"
     inkscape:showpageshadow="2"
     inkscape:pageopacity="0.0"
     inkscape:pagecheckerboard="0"
     inkscape:deskcolor="#d1d1d1"
     inkscape:zoom="1.1911315"
     inkscape:cx="278.3068"
     inkscape:cy="252.28113"
     inkscape:window-width="1920"
     inkscape:window-height="1017"
     inkscape:window-x="-8"
     inkscape:window-y="-8"
     inkscape:window-maximized="1"
     inkscape:current-layer="svg2" />
  <style
     id="style1">&#10;svg {&#10;    --gold: lab(80% 14.151 81.1149);&#10;    --gold-text: lab(85% 14.151 81.1149);&#10;    --gold-shadow: lab(80% 14.151 81.1149/.7);&#10;    filter: drop-shadow(0 0 5px var(--gold-shadow))drop-shadow(0 0 20px var(--gold-shadow));&#10;    grid-area: logo;&#10;    place-self: center end;&#10;    width: 100px;&#10;}&#10;svg .outer {&#10;    stroke-width: 30px;&#10;    stroke: var(--gold);&#10;}&#10;svg .inner {&#10;    fill: lch(100% 82.34 80.104);&#10;}&#10;</style>
  <path
     class="outer"
     stroke-width="21.7809"
     stroke="#f9bb03"
     d="m 699.23759,645.15676 c -0.51549,0 -1.03823,-0.10889 -1.53193,-0.34122 a 3.6410395,3.6410395 0 0 1 -1.9748,-4.23276 l 49.3555,-184.20102 H 643.11548 a 3.65193,3.65193 0 0 1 -3.22357,-1.95303 c -0.62438,-1.19795 -0.53001,-2.65001 0.24685,-3.76083 l 19.4939,-27.84324 q 18.55732,-26.50735 76.16779,-108.78104 l 77.18423,-110.22586 a 3.6236148,3.6236148 0 0 1 4.50864,-1.2052 3.6410395,3.6410395 0 0 1 1.97481,4.23275 L 770.11262,391.04634 H 872.0835 c 1.35042,0 2.59193,0.75507 3.21632,1.95301 0.62438,1.19795 0.53,2.65001 -0.24685,3.76084 L 702.20705,643.61032 a 3.6345052,3.6345052 0 0 1 -2.97673,1.54644 z M 650.09263,449.12872 h 99.73471 c 1.12535,0 2.19261,0.52274 2.88234,1.42302 0.68973,0.89301 0.92206,2.06192 0.62438,3.15097 L 708.08063,622.5845 865.11362,398.31389 h -99.72746 c -1.12534,0 -2.19261,-0.52274 -2.88234,-1.42301 a 3.6054641,3.6054641 0 0 1 -0.62438,-3.15098 l 45.25344,-168.88179 -65.37173,93.36017 q -57.61046,82.2737 -76.16779,108.78105 l -15.49348,22.12939 z"
     id="path3"
     style="mix-blend-mode:normal;filter:url(#filter3)"
     transform="matrix(0.90825137,0,0,0.90825137,69.09299,38.207367)" />
  <path
     class="outer"
     stroke-width="19.7825"
     stroke="#f9bb03"
     d="m 704.1765,624.17189 c -0.4682,0 -0.94298,-0.0989 -1.39139,-0.30992 a 3.3069791,3.3069791 0 0 1 -1.79361,-3.84442 l 44.8272,-167.30083 h -92.61519 a 3.3168705,3.3168705 0 0 1 -2.92781,-1.77384 c -0.5671,-1.08803 -0.48139,-2.40687 0.2242,-3.41577 l 17.70536,-25.28867 q 16.85471,-24.07533 69.1795,-98.80052 l 70.10268,-100.11279 a 3.2911532,3.2911532 0 0 1 4.09498,-1.09462 3.3069791,3.3069791 0 0 1 1.79362,3.84439 l -44.8272,167.30084 h 92.61519 c 1.22652,0 2.35412,0.6858 2.92122,1.77383 0.5671,1.08804 0.48138,2.40687 -0.2242,3.41578 L 706.87351,622.76732 a 3.3010443,3.3010443 0 0 1 -2.70362,1.40457 z M 659.54052,446.12915 h 90.58418 c 1.0221,0 1.99144,0.47478 2.61789,1.29245 0.62645,0.81108 0.83746,1.87274 0.5671,2.86188 L 712.20819,603.6706 854.83362,399.9765 h -90.5776 c -1.02209,0 -1.99144,-0.47478 -2.61789,-1.29244 a 3.2746678,3.2746678 0 0 1 -0.56709,-2.86189 l 41.10149,-153.38712 -59.37396,84.79451 q -52.32478,74.7252 -69.1795,98.80053 l -14.07197,20.09906 z"
     id="path1" />
  <path
     class="inner"
     fill="#fff157"
     d="m 704.1765,624.17189 c -0.4682,0 -0.94298,-0.0989 -1.39139,-0.30992 a 3.3069791,3.3069791 0 0 1 -1.79361,-3.84442 l 44.8272,-167.30083 h -92.61519 a 3.3168705,3.3168705 0 0 1 -2.92781,-1.77384 c -0.5671,-1.08803 -0.48139,-2.40687 0.2242,-3.41577 l 17.70536,-25.28867 q 16.85471,-24.07533 69.1795,-98.80052 l 70.10268,-100.11279 a 3.2911532,3.2911532 0 0 1 4.09498,-1.09462 3.3069791,3.3069791 0 0 1 1.79362,3.84439 l -44.8272,167.30084 h 92.61519 c 1.22652,0 2.35412,0.6858 2.92122,1.77383 0.5671,1.08804 0.48138,2.40687 -0.2242,3.41578 L 706.87351,622.76732 a 3.3010443,3.3010443 0 0 1 -2.70362,1.40457 z M 659.54052,446.12915 h 90.58418 c 1.0221,0 1.99144,0.47478 2.61789,1.29245 0.62645,0.81108 0.83746,1.87274 0.5671,2.86188 L 712.20819,603.6706 854.83362,399.9765 h -90.5776 c -1.02209,0 -1.99144,-0.47478 -2.61789,-1.29244 a 3.2746678,3.2746678 0 0 1 -0.56709,-2.86189 l 41.10149,-153.38712 -59.37396,84.79451 q -52.32478,74.7252 -69.1795,98.80053 l -14.07197,20.09906 z"
     id="path2"
     style="stroke-width:0.659417" />
</svg>
