<svg xmlns="http://www.w3.org/2000/svg" xml:space="preserve" id="Layer_1" x="0" y="0" style="enable-background:new 0 0 64 64" version="1.1" viewBox="0 0 64 64"><style id="style1" type="text/css">.st1544{fill:#3367b5}.st1552{fill:#3a80c3}.st1562{fill:#305bac}</style><g id="g74" transform="translate(3.732 -22.08) scale(1.46637)"><g id="g73" transform="translate(.81)"><linearGradient id="SVGID_1_" x1="-3013.968" x2="-3013.968" y1="285.82" y2="285.625" gradientTransform="matrix(45.6076 0 0 -81.335 137476.56 23285.014)" gradientUnits="userSpaceOnUse"><stop id="stop1" offset="0" style="stop-color:#4291d5"/><stop id="stop2" offset=".35" style="stop-color:#80cbf0"/><stop id="stop3" offset=".35" style="stop-color:#80cbf0"/><stop id="stop4" offset=".846" style="stop-color:#3879c3"/><stop id="stop5" offset=".846" style="stop-color:#3879c3"/><stop id="stop6" offset="1" style="stop-color:#3879c3"/></linearGradient><path id="path6" d="M13.7 40.35c1.2 3.66 1.65 10.18 5.14 10.18.27 0 .54-.03.81-.08-3.18-.74-3.55-7.19-5.49-10.53-.15.13-.31.28-.46.43" style="fill:url(#SVGID_1_)"/><linearGradient id="SVGID_00000159430760780441365940000007358301575426197687_" x1="-3017.144" x2="-3017.144" y1="286.039" y2="285.844" gradientTransform="matrix(47.8692 0 0 -83.4083 144445.42 23895.443)" gradientUnits="userSpaceOnUse"><stop id="stop7" offset="0" style="stop-color:#3574b6"/><stop id="stop8" offset=".36" style="stop-color:#5babe2"/><stop id="stop9" offset=".36" style="stop-color:#5babe2"/><stop id="stop10" offset=".846" style="stop-color:#4da9e8"/><stop id="stop11" offset=".846" style="stop-color:#4da9e8"/><stop id="stop12" offset="1" style="stop-color:#4da9e8"/></linearGradient><path id="path12" d="M14.16 39.91c1.94 3.34 2.32 9.79 5.49 10.53.25-.05.5-.12.75-.2-2.85-1.4-3.64-7.66-5.84-10.68-.13.12-.27.23-.4.35" style="fill:url(#SVGID_00000159430760780441365940000007358301575426197687_)"/><path id="path13" d="M16.95 37.93c-.27 0-.54.03-.81.08-.71.13-1.43.44-2.15.9.2.2.39.42.56.66.74-.61 1.47-1.06 2.2-1.33.27-.1.55-.18.82-.23-.19-.06-.4-.08-.62-.08" style="fill:#295494"/><linearGradient id="SVGID_00000047774283953441824710000012218037459887343546_" x1="-3014.311" x2="-3014.311" y1="285.865" y2="286.018" gradientTransform="matrix(45.4522 0 0 -84.5 137027.7 24205.762)" gradientUnits="userSpaceOnUse"><stop id="stop13" offset="0" style="stop-color:#3262b0"/><stop id="stop14" offset=".5" style="stop-color:#60b9ec"/><stop id="stop15" offset="1" style="stop-color:#60b9ec;stop-opacity:.4196"/></linearGradient><path id="path15" d="M22.63 48.96c.29-.23.58-.49.88-.77-1.21-3.64-1.65-10.25-5.17-10.25-.25 0-.51.02-.76.07 3.2.79 3.61 7.77 5.05 10.95" style="fill:url(#SVGID_00000047774283953441824710000012218037459887343546_)"/><path id="path16" d="M17.58 38c-.2-.05-.41-.08-.63-.08l1.38.01c-.25 0-.5.03-.75.07" style="fill:#4e8fbe"/><path id="path17" d="M22.57 49.73c-.14-.13-.27-.28-.4-.43-.59.42-1.18.74-1.77.94.21.1.43.18.66.22.18.04.37.06.56.06.66 0 1.18-.08 1.62-.29-.24-.13-.46-.3-.67-.5" class="st1544"/><linearGradient id="SVGID_00000062155137869731606830000004113837185787818369_" x1="-3013.547" x2="-3013.547" y1="286.276" y2="286.081" gradientTransform="matrix(45.0105 0 0 -86.5982 135661.06 24826.779)" gradientUnits="userSpaceOnUse"><stop id="stop17" offset="0" style="stop-color:#3268b1"/><stop id="stop18" offset=".4" style="stop-color:#5babe2"/><stop id="stop19" offset=".4" style="stop-color:#5babe2"/><stop id="stop20" offset=".846" style="stop-color:#4495d6"/><stop id="stop21" offset=".846" style="stop-color:#4495d6"/><stop id="stop22" offset="1" style="stop-color:#4495d6"/></linearGradient><path id="path22" d="M16.76 38.23c2.87 1.5 3.12 8.31 5.41 11.07.15-.11.31-.22.46-.34-1.44-3.18-1.85-10.16-5.05-10.96-.28.05-.55.13-.82.23" style="fill:url(#SVGID_00000062155137869731606830000004113837185787818369_)"/><linearGradient id="SVGID_00000173866730533464070660000000326825565119810991_" x1="-3028.452" x2="-3028.452" y1="286.856" y2="286.661" gradientTransform="matrix(58.3509 0 0 -92.0822 176731.28 26450.227)" gradientUnits="userSpaceOnUse"><stop id="stop23" offset="0" style="stop-color:#214275"/><stop id="stop24" offset=".39" style="stop-color:#3e84c4"/><stop id="stop25" offset=".39" style="stop-color:#3e84c4"/><stop id="stop26" offset=".78" style="stop-color:#285091"/><stop id="stop27" offset=".78" style="stop-color:#285091"/><stop id="stop28" offset="1" style="stop-color:#285091"/></linearGradient><path id="path28" d="M14.56 39.57c2.2 3.02 2.99 9.28 5.84 10.68.59-.21 1.18-.52 1.77-.94-2.29-2.76-2.54-9.57-5.41-11.07-.73.26-1.46.72-2.2 1.33" style="fill:url(#SVGID_00000173866730533464070660000000326825565119810991_)"/><linearGradient id="SVGID_00000021838120309464377920000009188014207324147113_" x1="-2924.316" x2="-2924.186" y1="269.439" y2="269.439" gradientTransform="matrix(19.4176 0 0 -30.9219 56794.375 8372.962)" gradientUnits="userSpaceOnUse"><stop id="stop29" offset="0" style="stop-color:#60b9ec;stop-opacity:.698"/><stop id="stop30" offset="1" style="stop-color:#52a8d3"/></linearGradient><path id="path30" d="M12.29 40.26c-.35.78-.7 1.81-1.12 3.15.85-1.19 1.69-2.22 2.53-3.06-.12-.36-.24-.68-.37-.98-.35.26-.69.56-1.04.89" style="fill:url(#SVGID_00000021838120309464377920000009188014207324147113_)"/><path id="path31" d="M13.63 39.15c-.1.07-.2.15-.31.23.13.29.26.62.37.98.15-.15.3-.29.46-.43-.16-.29-.33-.55-.52-.78" style="fill:#4072ab"/><path id="path32" d="m14 38.9-.36.24c.19.23.36.49.52.77.13-.12.27-.24.4-.35-.18-.24-.37-.46-.56-.66" style="fill:#2a5998"/><linearGradient id="SVGID_00000062895162203741243810000013654038066088187528_" x1="-3042.834" x2="-3042.834" y1="287.261" y2="287.389" gradientTransform="matrix(79.1425 0 0 -98.6787 240847.66 28396.41)" gradientUnits="userSpaceOnUse"><stop id="stop32" offset="0" style="stop-color:#3168ae"/><stop id="stop33" offset=".6" style="stop-color:#78c6f0;stop-opacity:.549"/><stop id="stop34" offset="1" style="stop-color:#78c6f0;stop-opacity:.2353"/></linearGradient><path id="path34" d="M33.59 37.65c-1.62 6.26-5.02 11.3-7.86 12.57h-.01c-.05.02-.1.04-.15.07-.01 0-.01 0-.02.01s-.03.01-.04.02c-.01 0-.01.01-.02.01-.02.01-.05.02-.07.03-.01 0-.02.01-.03.01-.01 0-.02.01-.04.01-.01 0-.02.01-.03.01-.01 0-.02.01-.03.01-.02.01-.04.01-.06.02-.01 0-.02 0-.03.01-.01 0-.03.01-.04.01-.01 0-.02.01-.03.01-.01 0-.03.01-.04.01-.02 0-.04.01-.05.01.13.05.26.07.41.07 2.7 0 5.42-4.83 9.92-12.87z" style="fill:url(#SVGID_00000062895162203741243810000013654038066088187528_)"/><linearGradient id="SVGID_00000145769088662170096990000008212638301721842354_" x1="-3037.126" x2="-3036.996" y1="287.379" y2="287.379" gradientTransform="matrix(72.0226 0 0 -99.1613 218743.86 28541.246)" gradientUnits="userSpaceOnUse"><stop id="stop35" offset="0" style="stop-color:#489edf;stop-opacity:.2471"/><stop id="stop36" offset="1" style="stop-color:#489edf"/></linearGradient><path id="path36" d="M10.58 38.18s.01 0 0 0c.01 0 .01 0 .01-.01.01-.01.03-.01.04-.02h.02c.02-.01.03-.01.05-.02a.3.3 0 0 0 .1-.04h.02c.01 0 .03-.01.04-.01.01 0 .01 0 .02-.01.02 0 .03-.01.04-.01h.02c.05-.01.1-.03.15-.04h.02c.01 0 .03-.01.04-.01.01 0 .01 0 .02-.01.01 0 .03 0 .04-.01h.01c.03-.01.06-.01.09-.02h.02c.01 0 .03 0 .04-.01h.02c.01 0 .03 0 .04-.01h.02c.03 0 .06-.01.1-.01-.09-.01-.19-.01-.29-.01-3.04 0-7.22 5.64-9.11 12.94h.36c.6-1.08 1.15-2.09 1.64-3.05 1.36-5.18 4.04-8.7 6.43-9.64" style="fill:url(#SVGID_00000145769088662170096990000008212638301721842354_)"/><path id="path37" d="M12.29 40.26c.35-.33.69-.63 1.03-.89-.08-.17-.16-.33-.25-.48-.27.34-.52.79-.78 1.37" class="st1552"/><path id="path38" d="M12.54 38.22c.2.17.38.4.54.67.05-.06.1-.12.16-.18-.23-.21-.47-.38-.73-.51 0 .01.02.02.03.02" class="st1552"/><linearGradient id="SVGID_00000138550937082038645630000006467689837304208026_" x1="-3017.299" x2="-3017.299" y1="284.466" y2="284.641" gradientTransform="matrix(49.0511 0 0 -73.8222 148009.27 21050.09)" gradientUnits="userSpaceOnUse"><stop id="stop38" offset="0" style="stop-color:#4d8bce"/><stop id="stop39" offset="1" style="stop-color:#5aa4de"/></linearGradient><path id="path39" d="M4.18 47.81c2.77-5.34 4.08-8.72 6.4-9.63-2.39.94-5.08 4.46-6.4 9.63" style="fill:url(#SVGID_00000138550937082038645630000006467689837304208026_)"/><path id="path40" d="M13.24 38.72c-.05.05-.11.11-.16.18.09.15.17.3.25.48.1-.08.2-.15.31-.23-.13-.16-.26-.3-.4-.43" style="fill:#3879c3"/><linearGradient id="SVGID_00000095319346014703912460000007961741008719675316_" x1="-3012.722" x2="-3012.722" y1="281.879" y2="282.098" gradientTransform="matrix(45.6036 0 0 -57.1283 137399.14 16153.491)" gradientUnits="userSpaceOnUse"><stop id="stop40" offset="0" style="stop-color:#489edf"/><stop id="stop41" offset="1" style="stop-color:#489edf;stop-opacity:.549"/></linearGradient><path id="path41" d="M5.44 50.84c-.02 0-.03 0-.05.01H5.33c-.03 0-.07 0-.1.01h-.01c2.8-.08 4.09-1.48 4.72-3.52.48-1.54.88-2.84 1.23-3.93-1.17 1.65-2.35 3.62-3.54 5.83-.57 1.06-1.44 1.5-2.19 1.6" style="fill:url(#SVGID_00000095319346014703912460000007961741008719675316_)"/><linearGradient id="SVGID_00000077316638555835208360000008464050979243759526_" x1="-3021.588" x2="-3021.588" y1="285.663" y2="285.793" gradientTransform="matrix(52.5191 0 0 -81.0936 158700.03 23216.252)" gradientUnits="userSpaceOnUse"><stop id="stop42" offset="0" style="stop-color:#2d58a0"/><stop id="stop43" offset=".5" style="stop-color:#489edf"/><stop id="stop44" offset=".5" style="stop-color:#489edf"/><stop id="stop45" offset=".918" style="stop-color:#8dc2e5"/><stop id="stop46" offset="1" style="stop-color:#8dc2e5"/></linearGradient><path id="path46" d="M5.44 50.84c.75-.1 1.62-.54 2.19-1.6 1.19-2.21 2.37-4.18 3.54-5.83.43-1.34.78-2.36 1.12-3.15-2.34 2.22-4.68 5.92-6.85 10.58" style="fill:url(#SVGID_00000077316638555835208360000008464050979243759526_)"/><path id="path47" d="M4.18 47.81c-.5.96-1.04 1.97-1.64 3.05H3.6c.14-1.07.34-2.09.58-3.05" style="fill:#489edf"/><linearGradient id="SVGID_00000000907694681667813140000003095771394901243544_" x1="-3037.564" x2="-3037.592" y1="287.309" y2="287.425" gradientTransform="matrix(72.6768 0 0 -99.0047 220769.73 28495.113)" gradientUnits="userSpaceOnUse"><stop id="stop47" offset="0" style="stop-color:#284f90"/><stop id="stop48" offset="1" style="stop-color:#3a80c3"/></linearGradient><path id="path48" d="M11.48 37.95h-.02c-.01 0-.03 0-.04.01h-.02c-.01 0-.03 0-.04.01h-.02c-.03.01-.06.01-.09.02h-.01c-.02.01-.04.01-.05.01-.01 0-.01 0-.02.01-.01 0-.03.01-.04.01h-.02c-.05.01-.1.02-.15.04-.01 0-.01 0-.02.01-.01 0-.03.01-.04.01-.01 0-.01 0-.02.01-.01 0-.03.01-.04.01h-.02c-.03.01-.07.03-.1.04-.01 0-.03.01-.05.02-.01 0-.01.01-.02.01s-.03.01-.04.02c-.01 0-.01 0-.01.01-2.32.91-3.63 4.29-6.4 9.63-.25.96-.44 1.98-.58 3.05H5.23c.03 0 .07 0 .1-.01H5.39c.02 0 .03 0 .05-.01 2.17-4.65 4.51-8.35 6.85-10.58.26-.58.51-1.03.79-1.36-.16-.27-.34-.5-.54-.67h-.01c-.01 0-.02-.01-.03-.02-.01-.01-.02-.01-.03-.02-.01 0-.02-.01-.03-.02-.01 0-.03-.01-.04-.02-.01 0-.02-.01-.03-.01l-.06-.03c-.01 0-.02-.01-.03-.01-.01-.01-.03-.01-.05-.02-.01 0-.02-.01-.02-.01-.02-.01-.04-.01-.06-.02h-.01c-.02-.01-.05-.01-.07-.02-.01 0-.01 0-.02-.01-.02-.01-.04-.01-.06-.02h-.01l-.15-.03h-.02c-.02 0-.04-.01-.07-.01h-.01c-.03 0-.05-.01-.08-.01h-.01c-.02 0-.04 0-.06-.01-.04-.01-.07-.01-.1-.01" style="fill:url(#SVGID_00000000907694681667813140000003095771394901243544_)"/><linearGradient id="SVGID_00000005965969026616818310000003385385214528583861_" x1="-2990.634" x2="-2990.634" y1="281.283" y2="281.388" gradientTransform="matrix(32.7663 0 0 -57.2261 98020.039 16140.435)" gradientUnits="userSpaceOnUse"><stop id="stop49" offset="0" style="stop-color:#489edf"/><stop id="stop50" offset=".874" style="stop-color:#4292cf"/><stop id="stop51" offset="1" style="stop-color:#4292cf"/></linearGradient><path id="path51" d="M27.24 41.12c-.53 1.71-.96 3.12-1.34 4.27 1.46-2.01 2.9-4.54 4.27-7.47-1.59.51-2.45 1.66-2.93 3.2" style="fill:url(#SVGID_00000005965969026616818310000003385385214528583861_)"/><linearGradient id="SVGID_00000027605399884543220740000014774687077489967262_" x1="-3031.302" x2="-3031.343" y1="287.187" y2="287.043" gradientTransform="matrix(60.2691 0 0 -96.3231 182724.84 27699.838)" gradientUnits="userSpaceOnUse"><stop id="stop52" offset="0" style="stop-color:#5aa4de;stop-opacity:.3294"/><stop id="stop53" offset=".962" style="stop-color:#3d85cc"/><stop id="stop54" offset=".962" style="stop-color:#3d85cc"/><stop id="stop55" offset="1" style="stop-color:#3d85cc"/></linearGradient><path id="path55" d="M25.95 50.11c-.07.04-.15.07-.22.11 2.84-1.27 6.24-6.3 7.86-12.57h-.33c-3.73 6.67-4.93 11.13-7.31 12.46" style="fill:url(#SVGID_00000027605399884543220740000014774687077489967262_)"/><path id="path56" d="M24.09 49.55c.62-.76 1.12-2.04 1.81-4.16-.79 1.09-1.59 2.03-2.39 2.79v.01c.17.52.36.99.58 1.36" style="fill:#4597da"/><path id="path57" d="M24.09 49.55c-.21.26-.43.45-.68.6-.05.03-.11.06-.17.09.26.14.55.24.87.27.05 0 .09.01.14.01h.42c.02 0 .04 0 .06-.01h.02c.02 0 .04-.01.06-.01h.02c.02 0 .04-.01.07-.01h.01l.13-.03c-.38-.14-.69-.45-.95-.91" class="st1544"/><path id="path58" d="M18.85 50.53c.27 0 .54-.03.81-.08.25-.05.5-.11.75-.2.21.1.43.18.66.22.18.04.37.06.56.06z" class="st1562"/><path id="path59" d="M21.62 50.53c.66 0 1.18-.08 1.62-.29.26.14.55.24.87.27.05 0 .09.01.14.01h.16z" class="st1562"/><path id="path60" d="M24.41 50.53H24.67c.02 0 .04 0 .05-.01h.02c.02 0 .04-.01.06-.01h.02c.02 0 .04-.01.07-.01h.01l.13-.03c.13.05.26.07.41.07z" style="fill:#315fae"/><path id="path61" d="M23.51 48.19c-.29.28-.59.53-.88.76-.15.12-.3.24-.46.34.13.15.26.3.4.43.21.2.43.37.68.51.06-.03.11-.06.16-.09.25-.15.47-.34.68-.6-.22-.36-.41-.83-.58-1.35" style="fill:#2e5ea5"/><linearGradient id="SVGID_00000070090212042368875900000007935976170479322778_" x1="-3038.079" x2="-3038.079" y1="287.337" y2="287.204" gradientTransform="matrix(70.2816 0 0 -98.1105 213549.61 28228.391)" gradientUnits="userSpaceOnUse"><stop id="stop61" offset="0" style="stop-color:#4189cd"/><stop id="stop62" offset=".5" style="stop-color:#4184c5"/><stop id="stop63" offset="1" style="stop-color:#254a87"/></linearGradient><path id="path63" d="M32.22 37.65h-1.66c-.09 0-.18.01-.26.01-.04.09-.08.17-.12.26-1.37 2.92-2.81 5.45-4.27 7.47-.69 2.12-1.19 3.4-1.81 4.16.26.45.57.77.94.9.01 0 .02 0 .03-.01h.03c.01 0 .03-.01.05-.01.01 0 .02 0 .03-.01.01 0 .03-.01.04-.01.01 0 .02-.01.03-.01.02-.01.04-.01.06-.02.01 0 .02-.01.03-.01.01 0 .02-.01.03-.01.01 0 .02-.01.04-.01.01 0 .02-.01.03-.01.02-.01.05-.02.07-.03.01 0 .01-.01.02-.01.01-.01.03-.01.04-.02.01 0 .01 0 .02-.01.05-.02.1-.04.15-.07h.01c.07-.03.15-.07.22-.11 2.38-1.33 3.58-5.79 7.31-12.46z" style="fill:url(#SVGID_00000070090212042368875900000007935976170479322778_)"/><path id="path64" d="M11.58 37.94H11.65c.03 0 .05.01.08.01h.01c.02 0 .04.01.07.01h.02l.15.03h.01c.02.01.04.01.06.02.01 0 .01 0 .02.01.03.01.05.01.07.02h.01c.02.01.04.01.06.02.01 0 .02.01.02.01.01.01.03.01.05.02.01 0 .02.01.03.01l.06.03c.01 0 .02.01.03.01.01.01.02.01.04.02.01.01.02.01.03.02.01.01.02.01.03.02.26.13.51.3.73.51.08-.09.17-.17.26-.24-.49-.35-1.05-.55-1.7-.55-.06.02-.14.02-.21.02" style="fill:#8ec8e7"/><path id="path65" d="M13.24 38.72c.14.13.27.27.4.43.12-.08.24-.17.36-.24-.16-.16-.32-.3-.5-.42-.09.06-.18.14-.26.23" style="fill:#79c2e8"/><linearGradient id="SVGID_00000145034083194301598470000013428394314372020615_" x1="-2986.833" x2="-2986.74" y1="487.573" y2="487.867" gradientTransform="matrix(32.4594 0 0 4.2491 96962.953 -2034.42)" gradientUnits="userSpaceOnUse"><stop id="stop65" offset="0" style="stop-color:#a4d3ea"/><stop id="stop66" offset=".703" style="stop-color:#72bee5"/><stop id="stop67" offset="1" style="stop-color:#72bee5"/></linearGradient><path id="path67" d="M11.58 37.94c.08-.01.15-.01.23-.01.65 0 1.2.2 1.7.55.52-.41 1.15-.55 2.02-.55H11.3c.09 0 .18 0 .28.01" style="fill:url(#SVGID_00000145034083194301598470000013428394314372020615_)"/><linearGradient id="SVGID_00000064353043064850856640000017955411209997708721_" x1="-2966.357" x2="-2966.267" y1="404.412" y2="404.268" gradientTransform="matrix(26.4722 0 0 7.484 78539.797 -2987.792)" gradientUnits="userSpaceOnUse"><stop id="stop68" offset="0" style="stop-color:#8cc9e7"/><stop id="stop69" offset="1" style="stop-color:#63b4e7"/></linearGradient><path id="path69" d="M15.52 37.93c-.87 0-1.5.14-2.02.55.17.12.34.26.5.42.73-.46 1.44-.77 2.15-.9.27-.05.54-.08.81-.08h-1.44z" style="fill:url(#SVGID_00000064353043064850856640000017955411209997708721_)"/><linearGradient id="SVGID_00000089538858276078375220000003416518743056885122_" x1="-3023.372" x2="-3023.372" y1="285.514" y2="285.356" gradientTransform="matrix(52.0449 0 0 -80.6355 157377.95 23060.93)" gradientUnits="userSpaceOnUse"><stop id="stop70" offset="0" style="stop-color:#4fa4e0"/><stop id="stop71" offset="1" style="stop-color:#5ba8e1;stop-opacity:0"/></linearGradient><path id="path71" d="M25.9 45.39c.38-1.16.81-2.57 1.34-4.28.48-1.54 1.33-2.69 2.93-3.19.04-.09.08-.17.12-.26-2.61.16-3.83 1.48-4.44 3.45-1.07 3.43-1.72 5.65-2.35 7.07.81-.76 1.61-1.7 2.4-2.79" style="fill:url(#SVGID_00000089538858276078375220000003416518743056885122_)"/><path id="path72" d="M29.73 49.61h-.3v.92h-.12v-.92h-.3v-.11h.71v.11z"/><path id="path73" d="M30.94 50.53h-.12v-.69c0-.05 0-.12.01-.2-.01.05-.02.08-.03.1l-.35.79h-.06l-.35-.78a.53.53 0 0 1-.03-.11c0 .04.01.11.01.2v.69h-.12V49.5h.16l.32.72c.02.05.04.1.05.12.02-.06.04-.1.05-.13l.32-.71h.15z"/></g></g><g id="g92" transform="translate(2)"><path id="path89" d="M7.45 26.83V13.06h3.19v11.17h6.9v2.6H7.45Z"/><path id="path90" d="M19.33 26.83V13.06h3.19v13.76h-3.19z"/><path id="path91" d="M25.78 26.83V13.06h2.63l8.12 9.91h-1.28v-9.91h3.15v13.76h-2.62l-8.14-9.91h1.28v9.91h-3.14z"/><path id="path92" d="M48.33 27.07a8.45 8.45 0 0 1-3-.53 7.2 7.2 0 0 1-2.4-1.49c-.68-.64-1.2-1.4-1.57-2.26-.37-.86-.56-1.81-.56-2.83s.19-1.97.56-2.83c.37-.87.9-1.62 1.58-2.26a7.2 7.2 0 0 1 2.4-1.49c.92-.35 1.91-.53 2.99-.53 1.09 0 2.09.18 3 .53.91.35 1.7.85 2.38 1.48.68.64 1.2 1.39 1.58 2.25.38.86.57 1.82.57 2.85 0 1.02-.19 1.97-.57 2.84-.38.87-.91 1.63-1.58 2.26-.68.64-1.47 1.13-2.38 1.48-.91.35-1.91.53-3 .53zm0-2.72c.62 0 1.18-.1 1.7-.31s.97-.51 1.37-.9c.4-.39.7-.86.91-1.41.22-.54.32-1.14.32-1.78 0-.66-.11-1.25-.32-1.79-.22-.54-.52-1-.91-1.4a3.8 3.8 0 0 0-1.37-.9c-.52-.21-1.09-.31-1.7-.31-.62 0-1.19.1-1.71.31s-.98.51-1.37.9c-.39.39-.69.86-.9 1.4-.22.54-.32 1.13-.32 1.79 0 .64.11 1.24.32 1.78.22.54.52 1.01.9 1.41.39.39.84.7 1.37.9.52.21 1.09.31 1.71.31zm4.5 5.65c-.54 0-1.05-.06-1.52-.18-.48-.12-.95-.31-1.42-.57-.47-.26-.95-.62-1.45-1.06-.5-.45-1.05-1-1.64-1.65l3.34-.85c.35.49.68.87.98 1.16.3.29.59.49.88.61.28.12.58.18.89.18.84 0 1.59-.34 2.24-1.02l1.42 1.69c-.93 1.12-2.17 1.69-3.72 1.69Z"/></g></svg>