<svg height="512" width="512" viewBox="0 0.04 141.638 141.662" xml:space="preserve" xmlns="http://www.w3.org/2000/svg"><defs><clipPath clipPathUnits="userSpaceOnUse" id="a"><ellipse style="fill:#fff;fill-opacity:1;stroke:none;stroke-width:4.91932;stroke-linecap:round;stroke-linejoin:round;stroke-dasharray:none;stroke-opacity:1;paint-order:stroke fill markers;stop-color:#000" cx="212.119" cy="181.557" rx="13.997" ry="13.674" transform="matrix(-.6772 -.7358 -.75137 .65988 0 0)"/></clipPath></defs><path style="fill:#225fe4;stroke-width:.546733" d="M171.601 416.959c-12.547-1.33-21.72-6.408-25.114-13.9-1.679-3.708-5.368-18.13-5.804-22.69-.158-1.654-.786-4.073-1.395-5.377-2.25-4.816-.183-12.9 4.494-17.576 2.436-2.437 9.288-5.913 14.692-7.453 4.043-1.153 8.862-3.718 10.817-5.758 1.966-2.052 2.046-5.477.259-11.128-1.5-4.74-1.436-11.937.132-15.133 2.377-4.846 7.567-8.187 13.287-8.555 12.012-.772 18.45 9.39 16.695 26.358-.511 4.938-.944 6.692-2.312 9.358-1.683 3.28-1.683 3.28-.149 4.51.844.676 3.322 2.08 5.507 3.12 6.99 3.329 11.303 8.378 13.212 15.466.423 1.57.95 2.297 1.82 2.508 2.07.501 11.751 1.452 20.087 1.972 5.661.353 8.943.838 11.481 1.695 1.955.66 5.743 1.356 8.419 1.546 4.437.316 4.96.475 5.948 1.803 3.163 4.248-2.59 6.66-12.316 5.164-2.597-.4-2.597-.4-2.597 2.913 0 3.313 0 3.313-2.597 4.944-2.98 1.87-4.023 2.002-6.113.767-1.38-.816-1.805-.815-5.432.01-4.538 1.032-5.838.66-6.741-1.931-.483-1.386-.781-1.582-2.007-1.32-.815.173-2.128-.056-3.025-.528-.872-.458-1.66-.759-1.751-.667-.092.091.499 1.51 1.311 3.153.813 1.643 1.764 3.787 2.114 4.764.36 1.003 1.019 1.777 1.514 1.777.483 0 3.582.874 6.887 1.943 3.305 1.068 6.243 1.798 6.528 1.621.286-.176 1.31-1.804 2.277-3.617 2.167-4.067 3.87-5.084 7.948-4.746 2.086.173 3.313.61 4.29 1.527 1.139 1.07 1.86 1.261 4.331 1.147 4.508-.21 5.317.845 4.872 6.356-.938 11.648-.854 11.272-2.73 12.21-.944.472-2.465 1.487-3.378 2.255-1.675 1.41-6.101 2.489-7.263 1.77-.335-.206-7.532-.536-15.994-.731-14.571-.337-15.522-.423-17.978-1.618-2.858-1.39-4.401-3.215-5.605-6.626-.448-1.272-2.4-4.002-4.491-6.284l-3.698-4.035-1.678 4.827c-2.52 7.247-5.47 10.531-11.305 12.582-2.58.907-11.108 2.33-12.714 2.122-.309-.04-2.44-.272-4.735-.515z" transform="translate(-130.15 -295.253)"/><path style="fill:#ee1212;stroke-width:.546733" d="M166.754 416.171c-11.278-2.304-18.151-7.265-21.001-15.158-1.72-4.762-5.237-19.644-5.24-22.167-.001-.987-.38-2.371-.84-3.074-2.688-4.102-.963-12.48 3.596-17.468 2.979-3.26 8.793-6.453 15.02-8.251 4.143-1.196 9.004-3.763 10.925-5.768 2.28-2.38 2.497-4.543.907-9.021-1.9-5.354-2.038-14.228-.271-17.496 1.497-2.77 4.143-5.269 7.292-6.887 3.865-1.986 10.198-1.835 14.215.34 5.706 3.088 8.37 9.075 8.386 18.849.012 7.305-.986 13.083-2.694 15.601-.725 1.069-1.318 2.16-1.318 2.426 0 .834 2.711 2.662 7.035 4.741 6.278 3.02 10.474 7.44 12.136 12.785.7 2.247 1.591 4.357 1.982 4.69 1.017.866 8.851 1.826 19.305 2.366 7.355.38 9.828.728 13.395 1.884 3.058.992 5.574 1.42 8.362 1.425 3.501.006 4.153.171 5.33 1.35 1.733 1.732 1.702 3.216-.098 4.632-1.204.947-2.213 1.133-6.154 1.133-2.593 0-5.512-.229-6.487-.509-1.773-.508-1.773-.508-1.773 2.496 0 3.785-.42 4.532-3.465 6.18-2.442 1.32-2.485 1.322-4.637.352-1.854-.836-2.587-.891-4.99-.376-5.523 1.185-7.684.632-7.684-1.965 0-1.103-.27-1.258-2.195-1.258-1.206 0-2.671-.298-3.255-.662-1.714-1.07-1.82-.185-.318 2.654.772 1.46 1.759 3.578 2.191 4.706.433 1.128 1.143 2.05 1.577 2.05.434 0 3.628.94 7.098 2.087l6.308 2.087 2.03-3.702c2.228-4.066 4.097-5.392 7.595-5.392 2.17 0 3.872.701 5.3 2.185.696.724 1.525.884 3.559.689 2.085-.2 2.937-.024 3.987.826 1.257 1.018 1.326 1.36 1.183 5.91-.083 2.656-.356 5.212-.606 5.68-.25.467-.332 1.496-.18 2.286.319 1.672-.628 3.746-1.711 3.746-.412 0-1.781.862-3.043 1.917-2.294 1.916-2.294 1.916-17.41 1.626-18.629-.358-20.899-.534-23.878-1.852-2.877-1.273-4.581-3.143-5.882-6.454-.539-1.372-2.447-4.096-4.24-6.052-1.793-1.957-3.26-3.769-3.26-4.026 0-.257-.246-.467-.547-.467-.3 0-.546.233-.546.518 0 .285-.751 2.592-1.668 5.128-2.713 7.497-6.462 10.814-14.314 12.665-4.221.995-14.128.993-19.01-.004zm48.48-10.515c-.344-.468-.236-.684.34-.684.464 0 1.347-.816 1.964-1.813.616-.997 1.62-2.265 2.231-2.818 2.71-2.453.354-3.343-2.937-1.11-2.12 1.439-3.06 1.703-3.06.86 0-.648 2.503-2.626 3.873-3.06.78-.249.924-.568.562-1.253-.266-.506-.782-2.364-1.145-4.127-.66-3.207-.66-3.207-2.658-2.865-1.099.188-3.474.496-5.279.685-1.804.189-3.667.54-4.14.782-1.234.63-2.334 4.6-1.636 5.904.927 1.732 6.001 5.993 7.997 6.715 2.199.795 2.666 2.416.542 1.883-1.338-.336-1.338-.336.05 2.81 2.175 4.929 2.528 5.117 3.21 1.709.358-1.795.391-3.2.085-3.618zm-55.528 4.672c1.805-3.372 3.5-16.677 3.12-24.478-.198-4.067.326-3.826-10.78-4.956-3.127-.318-6.547-.939-7.601-1.38-1.053-.44-2.016-.7-2.138-.577-.123.123.63 4.001 1.671 8.619 3.505 15.532 4.787 18.077 11.265 22.367 2.91 1.927 3.614 1.99 4.463.405zm31.558-29.273c1.482-1.956 3.373-6.16 3.373-7.502 0-1.643-1.754-3.572-3.249-3.572-1.859 0-13.677-3.8-16.939-5.446-2.13-1.076-4.236-2.82-6.537-5.415-4.201-4.74-6.588-5.825-11.871-5.401-1.982.159-3.852.538-4.157.843-1.069 1.069-1.736 8.378-1.008 11.045 1.536 5.63 8.503 9.924 22.712 14.003 12.697 3.645 15.814 3.9 17.676 1.445z" transform="translate(-130.15 -295.253)"/><path style="fill:#d90f0f;stroke-width:.546733" d="M166.754 416.171c-11.278-2.304-18.151-7.265-21.001-15.158-1.72-4.762-5.237-19.644-5.24-22.167-.001-.987-.38-2.371-.84-3.074-2.688-4.102-.963-12.48 3.596-17.468 2.979-3.26 8.793-6.453 15.02-8.251 4.143-1.196 9.004-3.763 10.925-5.768 2.28-2.38 2.497-4.543.907-9.021-1.9-5.354-2.038-14.228-.271-17.496 1.497-2.77 4.143-5.269 7.292-6.887 3.865-1.986 10.198-1.835 14.215.34 5.706 3.088 8.37 9.075 8.386 18.849.012 7.305-.986 13.083-2.694 15.601-.725 1.069-1.318 2.16-1.318 2.426 0 .834 2.711 2.662 7.035 4.741 6.278 3.02 10.474 7.44 12.136 12.785.7 2.247 1.591 4.357 1.982 4.69 1.017.866 8.851 1.826 19.305 2.366 7.355.38 9.828.728 13.395 1.884 3.058.992 5.574 1.42 8.362 1.425 3.501.006 4.153.171 5.33 1.35 1.733 1.732 1.702 3.216-.098 4.632-1.204.947-2.213 1.133-6.154 1.133-2.593 0-5.512-.229-6.487-.509-1.773-.508-1.773-.508-1.773 2.496 0 3.785-.42 4.532-3.465 6.18-2.442 1.32-2.485 1.322-4.637.352-1.854-.836-2.587-.891-4.99-.376-5.523 1.185-7.684.632-7.684-1.965 0-1.103-.27-1.258-2.195-1.258-1.206 0-2.671-.298-3.255-.662-1.714-1.07-1.82-.185-.318 2.654.772 1.46 1.759 3.578 2.191 4.706.433 1.128 1.143 2.05 1.577 2.05.434 0 3.628.94 7.098 2.087l6.308 2.087 2.03-3.702c2.228-4.066 4.097-5.392 7.595-5.392 2.17 0 3.872.701 5.3 2.185.696.724 1.525.884 3.559.689 2.085-.2 2.937-.024 3.987.826 1.257 1.018 1.326 1.36 1.183 5.91-.083 2.656-.356 5.212-.606 5.68-.25.467-.332 1.496-.18 2.286.319 1.672-.628 3.746-1.711 3.746-.412 0-1.781.862-3.043 1.917-2.294 1.916-2.294 1.916-17.41 1.626-18.629-.358-20.899-.534-23.878-1.852-2.877-1.273-4.581-3.143-5.882-6.454-.539-1.372-2.447-4.096-4.24-6.052-1.793-1.957-3.26-3.769-3.26-4.026 0-.257-.246-.467-.547-.467-.3 0-.546.233-.546.518 0 .285-.751 2.592-1.668 5.128-2.713 7.497-6.462 10.814-14.314 12.665-4.221.995-14.128.993-19.01-.004zm22.014-2.988c3.83-1.444 6.112-3.285 7.538-6.08 1.005-1.971 5.985-15.606 5.985-16.387 0-.196-2.275-.486-5.057-.644-2.781-.157-5.426-.43-5.877-.604-.57-.22-1.153.376-1.914 1.958-2.204 4.586-4.63 3.931-5.07-1.368-.244-2.942-.244-2.942-4.694-4.376-4.189-1.35-8.921-2.296-13.609-2.72-2.05-.186-2.05-.186-2.06 5.035-.008 4.748-.672 13.1-1.37 17.248-.243 1.442.02 1.862 2.17 3.464 1.413 1.054 2.72 1.653 3.099 1.419.38-.235.51-.173.313.147-.37.6.866 1.282 5.913 3.265 4.077 1.602 9.81 1.462 14.633-.357zm26.465-7.527c-.343-.468-.235-.684.342-.684.463 0 1.346-.816 1.963-1.813.616-.997 1.62-2.265 2.231-2.818 2.71-2.453.354-3.343-2.937-1.11-2.12 1.439-3.06 1.703-3.06.86 0-.648 2.503-2.626 3.873-3.06.78-.249.924-.568.562-1.253-.266-.506-.782-2.364-1.145-4.127-.66-3.207-.66-3.207-2.658-2.865-1.099.188-3.474.496-5.279.685-1.804.189-3.667.54-4.14.782-1.234.63-2.334 4.6-1.636 5.904.927 1.732 6.001 5.993 7.997 6.715 2.199.795 2.666 2.416.542 1.883-1.338-.336-1.338-.336.05 2.81 2.175 4.929 2.528 5.117 3.21 1.709.358-1.795.391-3.2.085-3.618zm-55.527 4.672c1.805-3.372 3.5-16.677 3.12-24.478-.198-4.067.326-3.826-10.78-4.956-3.127-.318-6.547-.939-7.601-1.38-1.053-.44-2.016-.7-2.138-.577-.123.123.63 4.001 1.671 8.619 3.505 15.532 4.787 18.077 11.265 22.367 2.91 1.927 3.614 1.99 4.463.405zm70.277-25.038c-.33-1.655.075-2.085 1.049-1.112.29.291 1.109.377 1.819.192 1.29-.338 1.29-.338-.001-1.312-1.822-1.374-.884-1.952.995-.613 1.02.725 2.055 1.004 3.039.816 1.527-.292 1.919-.923.945-1.525-.711-.44-.706-1.367.008-1.367.305 0 .994.722 1.53 1.604.722 1.186 1.182 1.473 1.77 1.102.436-.276 1.384-.506 2.108-.51 1.281-.009 1.29-.037.322-1.106-1.124-1.242-.721-2.145.503-1.128.44.365 1.492.585 2.337.488 1.378-.158 1.554-.411 1.703-2.455.166-2.279.166-2.279-2.734-2.862-5.424-1.09-10.436-.954-12.234.334-2.753 1.971-4.182 3.849-5.185 6.81-.964 2.849-.963 2.866.215 3.52 1.856 1.03 2.163.882 1.812-.876zm-38.72-4.235c1.483-1.956 3.374-6.16 3.374-7.502 0-1.643-1.754-3.572-3.249-3.572-1.859 0-13.677-3.8-16.939-5.446-2.13-1.076-4.236-2.82-6.537-5.415-4.201-4.74-6.588-5.825-11.871-5.401-1.982.159-3.852.538-4.157.843-1.069 1.069-1.736 8.378-1.008 11.045 1.536 5.63 8.503 9.924 22.712 14.003 12.697 3.645 15.814 3.9 17.676 1.445zm28.529-5.743c1.082-1.777 1.082-1.777-.692-2.154-.975-.207-3.004-.453-4.507-.546-2.64-.165-2.766-.105-3.693 1.743-.96 1.914-.96 1.914 1.093 2.246 5.22.845 6.642.61 7.799-1.29zm-10.12-1.13c1.094-2.36 1.094-2.36-3.617-2.495-4.492-.13-4.726-.078-5.036 1.106-.178.682-.273 1.28-.21 1.33.064.048.854.48 1.756.958 1.483.787 1.522.873.41.892-.677.012-1.23-.265-1.23-.616 0-.35-.148-.49-.329-.31-.868.869.716 1.495 3.778 1.495 3.385 0 3.385 0 4.478-2.36zm-4.1-7.093c0-2.785-1.377-8.375-2.477-10.056-.43-.657-1.653-1.859-2.718-2.671-1.872-1.428-1.973-1.445-3.018-.499-1.383 1.252-1.365 1.438.315 3.251 1.85 1.995 1.21 2.54-.762.65-1.541-1.476-1.541-1.476-4.694-.033-3.153 1.444-3.153 1.444-2.794 3.84.211 1.407.144 2.396-.162 2.396-.688 0-1.186-1.365-1.186-3.253 0-1.511-.035-1.526-4.237-1.813-4.237-.289-4.237-.289-6.277 1.67-2.652 2.545-3.405 1.825-.808-.772l1.981-1.981-2.027-1.357c-1.115-.747-2.543-1.99-3.173-2.763-1.147-1.406-1.147-1.406-2.734-.304-2.135 1.48-3.516 1.956-3.186 1.095.143-.372 1.126-1.143 2.186-1.713l1.927-1.038-1.907-1.908c-1.604-1.603-2.041-1.796-2.747-1.21-.461.383-2.204 1.25-3.872 1.929l-3.033 1.232 2.422.925c1.677.64 3.658 2.237 6.436 5.186 3.46 3.673 4.596 4.5 8.232 5.996 7.946 3.269 17.209 5.378 24.076 5.482 4.237.065 4.237.065 4.237-2.28z" transform="translate(-130.15 -295.253)"/><path style="fill:#a01616;stroke-width:.546733" d="M166.754 416.171c-11.278-2.304-18.151-7.265-21.001-15.158-1.72-4.762-5.237-19.644-5.24-22.167-.001-.987-.38-2.371-.84-3.074-2.688-4.102-.963-12.48 3.596-17.468 2.979-3.26 8.793-6.453 15.02-8.251 4.143-1.196 9.004-3.763 10.925-5.768 2.28-2.38 2.497-4.543.907-9.021-1.9-5.354-2.038-14.228-.271-17.496 1.497-2.77 4.143-5.269 7.292-6.887 3.865-1.986 10.198-1.835 14.215.34 5.706 3.088 8.37 9.075 8.386 18.849.012 7.305-.986 13.083-2.694 15.601-.725 1.069-1.318 2.16-1.318 2.426 0 .834 2.711 2.662 7.035 4.741 6.278 3.02 10.474 7.44 12.136 12.785.7 2.247 1.591 4.357 1.982 4.69 1.017.866 8.851 1.826 19.305 2.366 7.355.38 9.828.728 13.395 1.884 3.058.992 5.574 1.42 8.362 1.425 3.501.006 4.153.171 5.33 1.35 1.733 1.732 1.702 3.216-.098 4.632-1.204.947-2.213 1.133-6.154 1.133-2.593 0-5.512-.229-6.487-.509-1.773-.508-1.773-.508-1.773 2.496 0 3.785-.42 4.532-3.465 6.18-2.442 1.32-2.485 1.322-4.637.352-1.854-.836-2.587-.891-4.99-.376-5.523 1.185-7.684.632-7.684-1.965 0-1.103-.27-1.258-2.195-1.258-1.206 0-2.671-.298-3.255-.662-1.714-1.07-1.82-.185-.318 2.654.772 1.46 1.759 3.578 2.191 4.706.433 1.128 1.143 2.05 1.577 2.05.434 0 3.628.94 7.098 2.087l6.308 2.087 2.03-3.702c2.228-4.066 4.097-5.392 7.595-5.392 2.17 0 3.872.701 5.3 2.185.696.724 1.525.884 3.559.689 2.085-.2 2.937-.024 3.987.826 1.257 1.018 1.326 1.36 1.183 5.91-.083 2.656-.356 5.212-.606 5.68-.25.467-.332 1.496-.18 2.286.319 1.672-.628 3.746-1.711 3.746-.412 0-1.781.862-3.043 1.917-2.294 1.916-2.294 1.916-17.41 1.626-18.629-.358-20.899-.534-23.878-1.852-2.877-1.273-4.581-3.143-5.882-6.454-.539-1.372-2.447-4.096-4.24-6.052-1.793-1.957-3.26-3.769-3.26-4.026 0-.257-.246-.467-.547-.467-.3 0-.546.233-.546.518 0 .285-.751 2.592-1.668 5.128-2.713 7.497-6.462 10.814-14.314 12.665-4.221.995-14.128.993-19.01-.004zm20.802-2.415c3.613-1.116 7.564-3.906 8.83-6.235.353-.65 1.901-4.777 3.44-9.17l2.799-7.99-4.95-.344c-2.724-.19-5.444-.479-6.045-.643-.876-.24-1.366.222-2.46 2.317-.752 1.438-1.783 2.693-2.292 2.788-1.252.234-2.629-2.547-2.629-5.31 0-2.188 0-2.188-5.105-3.823-2.807-.9-6.436-1.781-8.064-1.96a379.315 379.315 0 0 1-5.01-.584c-2.05-.259-2.05-.259-2.05 3.222 0 9.2-1.673 21.423-3.5 25.576-.318.723.248 1.058 3.058 1.808 8.127 2.168 17.638 2.306 23.978.348zm41.062-1.683c.21-3.038.324-2.94-4.124-3.546-3.01-.41-3.597.036-3.597 2.733 0 2.79.816 3.303 5.535 3.479 1.997.074 1.997.074 2.186-2.666zm17.012 1.44c-.17-.891.11-1.552.896-2.102 1.104-.773 1.109-.834.15-1.702-.924-.836-1.297-.834-5.221.017-4.218.915-4.226.921-4.063 2.592.154 1.573.33 1.695 2.897 2 5.481.65 5.615.63 5.34-.805zm-30.397-7.857c-.343-.468-.235-.684.342-.684.463 0 1.346-.816 1.963-1.813.616-.997 1.62-2.265 2.231-2.818 2.71-2.453.354-3.343-2.937-1.11-2.12 1.439-3.06 1.703-3.06.86 0-.648 2.503-2.626 3.873-3.06.78-.249.924-.568.562-1.253-.266-.506-.782-2.364-1.145-4.127-.66-3.207-.66-3.207-2.658-2.865-1.099.188-3.474.496-5.279.685-1.804.189-3.667.54-4.14.782-1.234.63-2.334 4.6-1.636 5.904.927 1.732 6.001 5.993 7.997 6.715 2.199.795 2.666 2.416.542 1.883-1.338-.336-1.338-.336.05 2.81 2.175 4.929 2.528 5.117 3.21 1.709.358-1.795.391-3.2.085-3.618zm-55.527 4.672c1.805-3.372 3.5-16.677 3.12-24.478-.198-4.067.326-3.826-10.78-4.956-3.127-.318-6.547-.939-7.601-1.38-1.053-.44-2.016-.7-2.138-.577-.123.123.63 4.001 1.671 8.619 3.505 15.532 4.787 18.077 11.265 22.367 2.91 1.927 3.614 1.99 4.463.405zm77.393-3.99c.986-3.802 1.011-3.734-1.737-4.722-2.467-.887-2.467-.887-3.827.73-.936 1.112-1.36 2.276-1.36 3.73 0 2.038.081 2.13 2.323 2.638 3.493.791 3.825.62 4.601-2.376zm4.812 2.172c1.982-.46 4.088-1.32 4.681-1.913s1.319-1.078 1.613-1.078c.325 0 .29-.54-.09-1.372-.537-1.178-.446-1.563.64-2.72 1.114-1.185 1.158-1.389.364-1.693-.496-.19-1.292-.197-1.768-.014-.549.21-.783.082-.64-.352.123-.376.747-.76 1.386-.855.639-.094 1.313-.648 1.498-1.232.186-.584.97-1.393 1.744-1.798 1.407-.738 1.407-.738-.39-1.364-3.373-1.176-5.578-.064-7.674 3.868-.997 1.871-2.376 3.964-3.063 4.652-1.305 1.305-3.228 6.707-2.387 6.707.265 0 2.104-.376 4.086-.836zm-12.83-2.368c0-1.322.487-2.828 1.302-4.029 1.302-1.918 1.302-1.918-1.67-2.631-2.904-.697-3.004-.68-4.384.7-1.027 1.026-1.485 2.163-1.677 4.158-.264 2.745-.264 2.745 1.853 3.092 1.164.19 2.485.425 2.936.52.451.096 1.005.202 1.23.237.226.035.41-.886.41-2.047zm-32.213-19.13c-.927-1.733-.69-5.107.497-7.053 1.083-1.777 1.083-1.777-.755-1.777-1.668 0-1.982.273-3.374 2.931-1.309 2.5-1.457 3.204-1.005 4.784.463 1.625.796 1.889 2.697 2.144 2.65.356 2.674.343 1.94-1.028zm8.276 1.21c1.753-.29 1.96-.472 1.504-1.325-.918-1.715-.578-4.435.86-6.89 1.39-2.372 1.39-2.372-2.496-2.372-2.137 0-4.36.254-4.938.563-2.474 1.325-3.564 6.712-1.852 9.157.902 1.288 2.877 1.536 6.922.867zm9.175-1.285c1.248-.333 1.351-.587 1.183-2.904-.14-1.93.098-2.937.994-4.196 1.178-1.655 1.178-1.655-.15-1.655-.73 0-2.429-.15-3.775-.335-2.443-.335-2.452-.33-3.904 2.147-1.521 2.596-1.85 5.177-.887 6.975.576 1.078 2.407 1.069 6.54-.032zm-23.138-1.365c-.085-1.657-.24-1.852-1.191-1.503-.602.22-2.2.37-3.554.331-3.48-.098-21.382-5.318-26.049-7.595-4.722-2.304-9.296-6.285-10.653-9.272-1.089-2.398-1.333-7.138-.514-9.994.602-2.097.269-2.19-1.963-.543-7.26 5.358-9.184 16.902-3.387 20.326 1.65.974 7.25 1.875 23.704 3.815 4.91.578 8.693 1.468 15.035 3.535a1983.2 1983.2 0 0 0 8.572 2.784c.054.011.054-.836 0-1.884zm38.848-.073c-.249-1.299.336-1.775.953-.777.203.33.845.29 1.711-.105 1.386-.631 1.386-.631.117-1.607-.952-.733-1.051-.98-.396-.989.48-.007 1.322.486 1.873 1.095.683.754 1.18.928 1.56.546.309-.307 1.164-.56 1.903-.56 1.265 0 1.29-.056.437-.999-1.008-1.113-1.155-1.734-.412-1.734.271 0 .948.683 1.504 1.517.972 1.46 1.101 1.495 3.432.92 2.421-.597 2.421-.597 1.126-1.505-.712-.498-1.131-1.07-.931-1.27.2-.2.724-.066 1.164.3.44.365 1.492.585 2.337.488 1.38-.159 1.553-.41 1.703-2.471.163-2.24.118-2.307-1.913-2.85-1.144-.306-4.049-.711-6.454-.9-4.232-.334-4.455-.291-6.857 1.322-3.905 2.622-7.151 9.475-4.837 10.21.568.18 1.032.57 1.032.869 0 .298.27.376.598.172.33-.203.487-.955.35-1.672zm-7.703-.75c.044-.003.189-.929.322-2.056.133-1.128.42-2.454.64-2.946.325-.737-.025-.94-1.963-1.145-2.027-.214-2.528-.05-3.569 1.17-1.17 1.37-1.597 3.977-.933 5.707.28.727.62.734 2.87.05 1.405-.425 2.59-.777 2.633-.78zm-31.062-3.694c1.482-1.956 3.373-6.16 3.373-7.502 0-1.643-1.754-3.572-3.249-3.572-1.859 0-13.677-3.8-16.939-5.446-2.13-1.076-4.236-2.82-6.537-5.415-4.201-4.74-6.588-5.825-11.871-5.401-1.982.159-3.852.538-4.157.843-1.069 1.069-1.736 8.378-1.008 11.045 1.536 5.629 8.503 9.924 22.712 14.003 12.697 3.645 15.814 3.9 17.676 1.445zm28.495-5.551c1.256-2.462 1.367-2.384-4.355-3.069-3.248-.389-4.348.218-5.145 2.84-.384 1.258.015 1.386 6.247 1.998 1.053.103 1.97.227 2.04.275.069.048.615-.872 1.213-2.044zm-9.983-1.424 1.198-2.459h-4.878c-4.696 0-4.89.05-5.208 1.316-.655 2.614.526 3.605 4.293 3.603 3.398-.002 3.398-.002 4.595-2.46zm4.543-3.993c0-.242-.534-2.026-1.188-3.963-.941-2.79-1.858-4.193-4.398-6.735-3.425-3.427-4.346-3.71-2.885-.883.497.96 1.179 3.925 1.515 6.586.61 4.84.61 4.84 3.373 5.037 1.52.108 2.948.242 3.173.298.226.055.41-.097.41-.34zm-8.886-4.41c-.355-5.183-1.693-8.459-4.436-10.868-2.434-2.136-3.209-2.211-4.177-.403-.673 1.258-.603 1.51.83 3.007 1.883 1.965 1.194 2.202-.813.28-1.414-1.355-1.414-1.355-4.677-.012-1.795.74-3.232 1.533-3.194 1.765.039.231.234 1.343.435 2.47.219 1.228.15 2.051-.173 2.051-.296 0-.704-1.107-.907-2.46-.369-2.46-.369-2.46-3.005-2.46-1.45 0-3.272-.242-4.048-.538-1.26-.478-1.629-.298-3.393 1.655-1.09 1.206-2.101 2.07-2.25 1.922-.148-.148.527-1.176 1.5-2.284 1.646-1.874 1.699-2.053.757-2.55-.558-.293-2.021-1.5-3.253-2.68-2.24-2.149-2.24-2.149-4.237-.97-1.1.648-1.998.915-1.998.592 0-.323.772-.986 1.715-1.474 1.715-.886 1.715-.886-.196-2.798-1.912-1.911-1.912-1.911-4.282-.701-1.304.665-3.246 1.516-4.315 1.891-1.943.683-1.943.683.517 1.4 1.926.562 3.415 1.705 6.859 5.264 3.946 4.079 4.878 4.74 9.071 6.43 6.884 2.776 15.26 4.783 21.795 5.223 3.157.213 5.837.424 5.955.47.118.045.082-1.855-.08-4.222z" transform="translate(-130.15 -295.253)"/><path style="fill:#161a18;stroke-width:.546733" d="M168.034 416.226c-10.979-2.09-17.855-6.197-20.927-12.498-1.737-3.563-5.002-15.809-6.084-22.814-.348-2.254-1.017-4.837-1.487-5.739-2.116-4.067-.275-12.294 3.784-16.905 2.428-2.758 9.423-6.472 15.49-8.223 4.582-1.323 7.304-2.79 9.99-5.382 3.087-2.981 3.314-4.537 1.454-9.961-2.044-5.96-2.155-12.95-.267-16.814 2.543-5.207 8.142-8.34 14.65-8.195 6.25.138 10.034 2.708 12.9 8.758 1.732 3.656 1.747 3.766 1.747 12.163 0 9.045-.766 13.156-2.974 15.963-1.08 1.373-1.08 1.373.414 2.804.82.786 3.21 2.272 5.307 3.302 7.845 3.849 10.63 6.795 12.94 13.693 1.48 4.423 1.48 4.423 5.472 5.092 2.195.368 8.543.902 14.106 1.186 8.591.44 10.814.741 14.761 2.004 3.274 1.047 5.914 1.504 8.93 1.549 4.757.07 5.832.76 5.832 3.746 0 2.942-4.639 3.732-14.488 2.468-.978-.125-1.094.177-1.094 2.867 0 3.615-.199 3.964-3.297 5.78-2.317 1.357-2.497 1.38-4.157.553-2.063-1.03-3.317-1.074-6.92-.242-3.753.866-5.441.344-6.013-1.861-.417-1.607-.627-1.753-2.28-1.584-1.003.103-2.401-.123-3.108-.502-1.878-1.004-2.067-.367-.69 2.313.673 1.307 1.513 3.348 1.868 4.536.45 1.508 1.041 2.275 1.96 2.546.723.213 3.898 1.208 7.055 2.212 3.158 1.004 5.957 1.827 6.22 1.828.263.001 1.378-1.597 2.476-3.551 1.377-2.45 2.587-3.86 3.895-4.54 2.525-1.313 6.133-.958 7.992.786 1.12 1.051 1.97 1.294 4.528 1.294 4.718 0 5.015.43 4.667 6.763-.159 2.895-.377 6.126-.484 7.178a108.43 108.43 0 0 0-.256 2.834c-.033.506-.614 1.092-1.29 1.304-.678.21-2.025 1.076-2.996 1.923-2.284 1.992-4.554 2.378-10.71 1.822-2.761-.25-9.941-.465-15.955-.478-9.11-.02-11.41-.19-13.78-1.016-3.363-1.173-5.826-3.723-6.823-7.063-.412-1.382-1.601-3.224-2.917-4.52-1.222-1.203-2.93-3.126-3.796-4.274-1.575-2.088-1.575-2.088-3.372 2.945-3.007 8.422-5.159 10.73-12.23 13.116-4.508 1.52-14.299 1.928-20.043.834zm18.129-1.75c4.386-1.054 7.838-3.256 9.892-6.31 1.385-2.059 6.783-16.3 6.783-17.894 0-.247-2.399-.587-5.33-.754-2.932-.168-5.742-.468-6.244-.668-.698-.278-1.16.194-1.961 2.002-.577 1.301-1.436 2.685-1.909 3.075-1.288 1.063-2.598-1.128-2.598-4.346 0-2.572 0-2.572-2.916-3.663-7.113-2.662-17.741-4.49-18.145-3.121-.094.318-.3 4.394-.457 9.057-.288 8.512-1.416 15.887-2.858 18.675-.426.823-.774 1.624-.774 1.781 0 .615 7.635 2.557 11.764 2.992 5.168.544 10.232.26 14.753-.826zm70.108-.56c.772-.772 2.113-1.65 2.98-1.953 1.395-.486 1.577-.81 1.577-2.813 0-4.041.362-8.862.76-10.115.226-.715.114-1.552-.271-2.017-.891-1.073-3.806-1.053-3.806.026 0 .452-.43.801-.956.777-.572-.025-.682-.154-.274-.319 1.08-.435.796-1.218-.41-1.127-.601.045-1.093.3-1.093.565 0 .266-.784-.402-1.741-1.483-1.464-1.654-2.097-1.966-3.979-1.966-2.858 0-4.365 1.077-5.988 4.28-2.79 5.506-2.461 5.411-9.874 2.855-3.586-1.236-6.84-2.125-7.23-1.975-.392.15-.712.063-.712-.193s-.498-.596-1.106-.755c-.608-.16-1.284-.372-1.503-.474-.218-.101-.42.184-.45.636-.03.45-.092 1.112-.138 1.47-.046.357-1.067 1.787-2.27 3.177-2.595 2.998-2.643 3.282-.684 4.058 1.504.596 1.504.596-.084.287-1.994-.387-2.493.348-2.504 3.687-.01 2.728.189 2.995 2.77 3.735 1.52.437 1.626.38 1.346-.726-.303-1.2-.303-1.2.323.014.601 1.166.925 1.214 8.204 1.21 6.686-.002 7.578-.109 7.578-.908 0-.842.047-.842.683 0 .714.943 2.184 1.102 12.346 1.335 4.825.11 5.179.04 6.506-1.288zm-41.038-8.26c-.343-.468-.235-.684.342-.684.463 0 1.346-.816 1.963-1.813.616-.997 1.62-2.265 2.231-2.818 2.71-2.453.354-3.343-2.937-1.11-2.12 1.439-3.06 1.703-3.06.86 0-.648 2.503-2.626 3.873-3.06.78-.249.924-.568.562-1.253-.266-.506-.782-2.364-1.145-4.127-.66-3.207-.66-3.207-2.658-2.865-1.099.188-3.474.496-5.279.685-1.804.189-3.667.54-4.14.782-1.234.63-2.334 4.6-1.636 5.904.927 1.732 6.001 5.993 7.997 6.715 2.199.795 2.666 2.416.542 1.883-1.338-.336-1.338-.336.05 2.81 2.175 4.929 2.528 5.117 3.21 1.709.358-1.795.391-3.2.085-3.618zm-55.527 4.672c1.805-3.372 3.5-16.677 3.12-24.478-.198-4.067.326-3.826-10.78-4.956-3.127-.318-6.547-.939-7.601-1.38-1.053-.44-2.016-.7-2.138-.577-.123.123.63 4.001 1.671 8.619 3.505 15.532 4.787 18.077 11.265 22.367 2.91 1.927 3.614 1.99 4.463.405zm74.62-20.723c.328-.263.735-.34.905-.17.17.17 1.137.08 2.149-.2 1.404-.387 2.015-.32 2.577.28.405.434 1.2.668 1.765.52.566-.148.891-.046.723.226-.54.874.719.532 2.704-.734 1.862-1.188 1.929-1.347 1.951-4.628.019-2.744.22-3.503 1.045-3.945.562-.3 1.15-.418 1.308-.26.7.7 7.895 1.128 11.28.672 1.775-.24 2.682-1.726 1.742-2.859-.393-.473-.915-.735-1.16-.583-.247.152-.589.048-.761-.232-.173-.279-.99-.325-1.815-.101-.826.223-2.356.215-3.4-.018-1.29-.288-2.034-.215-2.316.23-.309.485-.418.489-.424.014-.013-1.004-6.547-2.924-11.792-3.465-3.991-.412-5.05-.348-6.472.387-1.579.816-1.646.814-.95-.026.667-.803.586-.905-.718-.905-.964 0-1.948.569-2.86 1.653-.765.909-1.917 1.918-2.562 2.243-.644.326-.248-.19.88-1.145 1.127-.955 2.05-1.933 2.05-2.173s-1.784-.607-3.964-.816c-2.18-.208-6.14-.75-8.8-1.202-4.56-.776-4.901-.766-6.004.172-.87.74-.993.767-.48.101.935-1.214-.877-1.649-6.378-1.53-2.294.05-5.278-.079-6.632-.287-2.46-.38-2.46-.38-2.481 2.806-.03 4.38-2.696 9.022-5.764 10.034-2.67.882-4.546.56-16.265-2.785-13.966-3.986-20.6-7.817-23.127-13.358-1.095-2.4-1.349-7.615-.513-10.528.58-2.022.528-2.055-1.521-.995-6.263 3.238-10.318 14.11-7.052 18.91 2.568 3.773 3.77 4.076 26.106 6.587 6.547.736 7.07.857 15.309 3.54 7.626 2.485 9.006 2.842 13.046 3.376 2.282.302 2.358.266 1.777-.82-.335-.625-.598-1.337-.586-1.582.012-.245.389.23.837 1.058.792 1.458.956 1.503 5.465 1.503 4.427 0 4.622-.05 4.083-1.057-.311-.582-.556-1.259-.544-1.504.012-.245.385.224.83 1.042.694 1.28 1.054 1.444 2.575 1.17 2.43-.435 12.082-2.949 12.348-3.215.119-.12.618.28 1.11.887 1.095 1.353 2.765.888 2.872-.798.071-1.117.085-1.12.296-.061.132.664 1.092 1.488 2.386 2.048 2.022.876 3.15 1.832 1.344 1.14-.852-.328-1.2 1.425-.436 2.19.449.449 3.447-.112 4.314-.807zm-43.062-8.55c1.482-1.956 3.373-6.16 3.373-7.502 0-1.643-1.754-3.572-3.249-3.572-1.859 0-13.677-3.8-16.939-5.446-2.13-1.076-4.236-2.82-6.537-5.415-4.201-4.74-6.588-5.825-11.871-5.401-1.982.159-3.852.538-4.157.843-1.069 1.069-1.736 8.378-1.008 11.045 1.536 5.63 8.503 9.924 22.712 14.003 12.697 3.645 15.814 3.9 17.676 1.445zm22.716-13.397c-1.19-4.128-3.35-7.39-6.697-10.119-1.608-1.31-3.013-2.294-3.122-2.185-.109.11.282 1.17.869 2.356 1.195 2.418 2.182 6.993 2.182 10.12 0 2.314.332 2.487 5.028 2.624 2.567.074 2.567.074 1.74-2.796zm-8.02-1.458c-.576-6.872-2.654-10.967-6.588-12.982-.95-.487-1.853-1.035-2.006-1.219-.153-.183-.937-.915-1.742-1.626-1.463-1.292-1.463-1.292-3.002-.223-2.774 1.928-4.81 2.69-6.203 2.323-4.15-1.095-4.272-1.099-4.527-.124-.17.655-.273.526-.323-.41-.082-1.521-4.051-5.218-4.984-4.641-.81.5-.181 1.233 2.096 2.435 1.108.585 1.768 1.074 1.468 1.086-.301.013-1.378-.484-2.394-1.104-1.848-1.126-1.848-1.126-3.384.346-1.464 1.402-1.495 1.534-.667 2.8.479.73 1.931 2.057 3.228 2.949 2.357 1.622 2.357 1.622 3.446-.441.6-1.135 1.1-1.869 1.113-1.631.061 1.092-2.267 4.67-4.165 6.402l-2.098 1.914 1.914-2.104c1.913-2.104 1.913-2.104.546-2.989-.751-.486-3.212-2.802-5.467-5.146l-4.1-4.262-3.189 1.63c-1.753.896-4.029 1.788-5.057 1.98-2.175.408-2.51 1.323-.485 1.323 2.755 0 5.503 1.708 9.55 5.939 4.624 4.831 7.9 6.51 17.887 9.169 7.082 1.885 9.395 2.246 14.86 2.323l4.59.064zm-29.941-18.853c.59-1.105.457-1.56-1.121-3.798-1.243-1.763-1.926-2.334-2.227-1.86-.733 1.154-.507 2.139.956 4.184 1.407 1.966 1.407 1.966-.267.08-1.673-1.885-1.673-1.885-3.325-.302-1.653 1.583-1.653 1.583.376 3.66 2.028 2.077 2.028 2.077 3.482.684.8-.766 1.756-1.958 2.126-2.648zm14.043 3.154c2.062-.978 5.806-5.004 5.346-5.749-.159-.257-.078-.467.18-.467.63 0 1.843-3.448 2.026-5.754.137-1.726.067-1.814-1.005-1.264-.913.468-1.02.45-.511-.09.352-.374.514-1.08.358-1.57-.244-.77-.202-.78.316-.07.829 1.135 1.672-.167 1.684-2.597.009-1.954-.554-2.23-1.866-.918-.473.473-.86.68-.86.462 0-.218-.43-.027-.956.425-1.456 1.25-2.324 1.655-2.324 1.084 0-.284.554-.68 1.23-.883 1.23-.367 1.23-.367-.041-.986-1.061-.516-1.218-.907-.947-2.354.486-2.587-.865-3.49-2.223-1.487-.564.832-1.053 2.005-1.085 2.607-.143 2.635-.239 3.056-.638 2.81-.233-.144-1.278-.084-2.323.133-1.763.367-5.342-.95-5.884-2.164-.994-2.227-1.514-2.22-3.332.041-1.762 2.193-1.785 2.286-.824 3.348.544.601 1.413.982 1.932.846 1.05-.274 1.87 1.079.858 1.416-.653.218-1.186-.115-3.3-2.056-.656-.602-1.367-1.035-1.582-.964-.215.072-.25-.236-.078-.683.171-.448.625-.814 1.009-.814 1.07 0 3.56-3.584 3.56-5.126 0-.771.5-1.722 1.14-2.17 1.088-.763 1.094-.825.136-1.382-.552-.32-.725-.59-.386-.6.339-.008.928.36 1.309.819.882 1.062 5.343 4.085 6.03 4.085.285 0 .519.247.519.547 0 1.212 1.703.435 2.836-1.294 1.194-1.82 1.216-1.829 2.109-.726.89 1.1.93 1.083 3.036-1.247 1.173-1.3 2.125-2.51 2.116-2.691-.083-1.62-1.036-3.883-1.634-3.883-.41 0-.92-.284-1.135-.631-.242-.391-.15-.483.241-.241.374.23.632.042.632-.463 0-1.369-4.203-5.226-5.696-5.226-.726 0-1.408-.262-1.515-.582-.107-.32-1.272-.726-2.59-.903-1.742-.234-2.288-.148-2.003.313.293.474.066.485-.897.046-1.016-.462-1.898-.347-4.162.546-2.977 1.173-7.385 4.749-6.874 5.576.16.26.055.472-.234.472-.853 0-1.726 3.222-1.726 6.369 0 1.609.112 2.925.25 2.925.136 0 1.155-.615 2.262-1.367 1.108-.752 2.288-1.36 2.622-1.35.334.009.115.285-.487.612-2.674 1.458-4.64 2.978-4.643 3.592-.008 1.416 2.828 9.247 4.205 11.61 2.184 3.75 4.667 6.653 5.437 6.358.39-.15.572.035.421.427-.146.38.666 1.355 1.805 2.166 2.438 1.737 2.55 1.656 5.145-3.732.869-1.805 1.516-2.789 1.44-2.187-.078.601-.918 2.445-1.868 4.097-.95 1.652-1.612 3.19-1.471 3.417.433.702 2.938.458 4.91-.478z" transform="translate(-130.15 -295.253)"/><path style="fill:#fff;fill-opacity:1;stroke:#080808;stroke-width:3.04352;stroke-linecap:round;stroke-linejoin:round;stroke-dasharray:none;stroke-opacity:1;paint-order:stroke fill markers;stop-color:#000" d="M-164.043 344.417a3.391 4.922 0 0 1-3-2.362 3.391 4.922 0 0 1-.065-4.953 3.391 4.922 0 0 1 2.936-2.527l.026 4.922z" transform="rotate(-55.08 -348.179 -22.832)"/><path style="fill:#fff;fill-opacity:1;stroke:#080808;stroke-width:2.83476;stroke-linecap:round;stroke-linejoin:round;stroke-dasharray:none;stroke-opacity:1;paint-order:stroke fill markers;stop-color:#000" d="M-286.313-39.982a3.289 4.404 0 0 1-2.91-2.113 3.289 4.404 0 0 1-.063-4.432 3.289 4.404 0 0 1 2.847-2.26l.026 4.403z" transform="matrix(-.523 -.72821 -.5955 .67021 -110.774 -146.81)" clip-path="url(#a)"/></svg>