<?xml version="1.0" encoding="UTF-8" standalone="no"?>
<svg
   width="512pt"
   height="512pt"
   version="1.1"
   id="svg3"
   sodipodi:docname="mirc.svg"
   inkscape:version="1.3 (0e150ed6c4, 2023-07-21)"
   xmlns:inkscape="http://www.inkscape.org/namespaces/inkscape"
   xmlns:sodipodi="http://sodipodi.sourceforge.net/DTD/sodipodi-0.dtd"
   xmlns="http://www.w3.org/2000/svg"
   xmlns:svg="http://www.w3.org/2000/svg">
  <defs
     id="defs3" />
  <sodipodi:namedview
     id="namedview3"
     pagecolor="#ffffff"
     bordercolor="#666666"
     borderopacity="1.0"
     inkscape:showpageshadow="2"
     inkscape:pageopacity="0.0"
     inkscape:pagecheckerboard="0"
     inkscape:deskcolor="#d1d1d1"
     inkscape:document-units="pt"
     inkscape:zoom="0.40344447"
     inkscape:cx="328.4219"
     inkscape:cy="501.92781"
     inkscape:window-width="1920"
     inkscape:window-height="1017"
     inkscape:window-x="1912"
     inkscape:window-y="-8"
     inkscape:window-maximized="1"
     inkscape:current-layer="svg3" />
  <path
     d="M 103.35695,62.216202 V 343.37868 H 227.75597 V 192.9054 c 4.90463,-2.44565 12.73642,-4.61724 26.99638,-4.14239 24.54218,0.81839 21.16775,13.8051 21.16775,13.8051 V 344.91364 H 401.08612 V 188.76301 c 4.54301,-0.80506 10.02051,-1.31703 17.33272,-1.07341 24.54218,0.81839 21.16774,13.9583 21.16774,13.9583 V 343.99343 H 564.7526 V 179.55899 c 0,0 6.33587,-101.277611 -83.44433,-115.348201 C 400.34576,51.521944 383.1396,102.55805 383.1396,102.55805 v 4.90843 C 371.06455,87.821327 351.00829,70.36013 317.64178,65.131001 262.86298,56.545524 238.57965,76.80923 227.75597,91.053013 V 62.217154 Z"
     style="fill:#043292;fill-opacity:1;stroke:#000000;stroke-width:14.7254;stroke-miterlimit:4;stroke-dasharray:none;stroke-opacity:1"
     id="path1" />
  <g
     transform="matrix(4.9084626,0,0,4.9084626,239.09542,12.1241)"
     id="g3">
    <path
       d="m 76.198,113.336 c -6.558,9.124 -18.58,14.11 -29.631,11.496 -12.035,-2.57 -21.303,-13.268 -23.43,-25.205 -2.629,-12.865 2.748,-27.252 13.915,-34.442 9.245,-6.213 22.136,-6.213 31.343,0.078 5.285,3.482 9.469,8.586 11.81,14.47 -7.013,19.589 -25.859,17.178 -34.372,10.434 5.51,25.778 20.188,14.64 30.365,23.169 z"
       style="fill:#fff508;fill-opacity:1;stroke:#000000;stroke-width:3;stroke-miterlimit:4;stroke-dasharray:none;stroke-opacity:1"
       id="path2" />
    <ellipse
       cx="-4.4169998"
       cy="79.917"
       rx="0.917"
       ry="3.4170001"
       style="fill:#ffff08;fill-opacity:1;stroke:#000000;stroke-width:2.21604;stroke-miterlimit:4;stroke-dasharray:none;stroke-opacity:1"
       transform="matrix(1.12667,-0.6895,0.66908,1.21717,9.678,-19.139)"
       id="ellipse2" />
    <ellipse
       cx="-4.4169998"
       cy="79.917"
       rx="0.917"
       ry="3.4170001"
       style="fill:#ffff08;fill-opacity:1;stroke:#000000;stroke-width:2.21604;stroke-miterlimit:4;stroke-dasharray:none;stroke-opacity:1"
       transform="matrix(1.12667,-0.6895,0.66908,1.21717,17.197,-23.165)"
       id="ellipse3" />
  </g>
  <path
     d="M 61.299568,323.73752 H 208.50927 V 433.68219 H 61.299568 Z m -0.41231,113.66037 H 208.09696 V 613.71477 H 60.887258 Z M 210.42357,322.82455 v 132.22908 h 0.91788 V 613.9651 H 342.3385 V 455.04872 h 83.44386 V 322.81964 Z"
     style="fill:#e10000;fill-opacity:1;stroke:#000000;stroke-width:14.7254;stroke-miterlimit:4;stroke-dasharray:none;stroke-opacity:1"
     id="path3" />
</svg>
