
<svg xmlns="http://www.w3.org/2000/svg" version="1.1" xmlns:xlink="http://www.w3.org/1999/xlink" preserveAspectRatio="none" x="0px" y="0px" width="600px" height="600px" viewBox="0 0 600 600">
<defs/>

<g id="_____1">
<g>
<g>
<g>
<path fill="#000000" stroke="none" d="
M 377 536
L 377 552 473 552 473 536 377 536
M 361 504
L 345 504 345 520 361 520 361 504
M 377 536
L 377 520 361 520 361 536 377 536
M 345 488
L 329 488 329 504 345 504 345 488
M 377 424
L 377 440 393 440 393 424 377 424
M 425 440
L 425 424 409 424 409 440 393 440 393 456 457 456 457 440 425 440
M 457 424
L 457 440 473 440 473 424 457 424
M 505 520
L 521 520 521 504 505 504 505 520
M 505 536
L 505 520 473 520 473 536 505 536
M 313 536
L 297 536 281 536 265 536 249 536 249 552 361 552 361 536 345 536 329 536 313 536
M 217 552
L 217 536 73 536 73 552 217 552
M 265 488
L 265 472 249 472 233 472 233 488 233 520 217 520 217 536 249 536 249 520 249 504 249 488 265 488
M 153 216
L 169 216 169 184 153 184 153 216
M 185 344
L 185 328 185 312 169 312 169 328 121 328 121 456 217 456 217 440 201 440 201 424 185 424 185 440 137 440 137 344 169 344 169 424 185 424 185 408 185 392 185 376 185 360 185 344
M 233 328
L 233 344 233 360 233 376 233 392 233 408 217 408 217 424 217 440 233 440 233 424 249 424 249 312 233 312 233 328
M 233 264
L 233 248 217 248 217 264 233 264
M 201 264
L 201 280 217 280 217 264 201 264
M 201 296
L 201 280 185 280 185 296 185 312 201 312 201 296
M 137 56
L 137 72 137 88 153 88 153 56 137 56
M 89 56
L 121 56 137 56 137 40 73 40 73 232 57 232 57 536 73 536 73 520 73 248 201 248 217 248 217 216 201 216 201 232 185 232 185 216 169 216 169 232 137 232 137 184 153 184 153 152 137 152 137 136 121 136 121 232 105 232 89 232 89 56
M 169 120
L 169 88 153 88 153 104 153 120 169 120
M 201 152
L 217 152 217 120 201 120 201 152
M 233 184
L 217 184 217 216 233 216 233 184
M 185 152
L 185 168 185 184 201 184 201 152 185 152
M 169 120
L 169 136 169 152 185 152 185 120 169 120
M 233 88
L 217 88 217 120 233 120 233 88
M 249 88
L 249 56 233 56 233 88 249 88
M 537 392
L 521 392 521 456 521 504 537 504 537 392
M 505 376
L 505 392 521 392 521 376 505 376
M 505 280
L 521 280 521 264 505 264 505 280
M 521 280
L 521 296 521 328 537 328 537 280 521 280
M 473 360
L 473 376 505 376 505 360 473 360
M 457 328
L 473 328 473 312 457 312 457 328
M 473 328
L 473 344 521 344 521 328 473 328
M 329 360
L 329 344 329 280 313 280 313 296 313 312 313 328 297 328 297 312 297 296 281 296 265 296 249 296 249 312 281 312 281 424 281 440 265 440 265 472 281 472 281 456 297 456 313 456 313 472 313 488 329 488 329 440 329 424 313 424 313 440 297 440 297 344 313 344 313 360 329 360
M 345 376
L 345 360 329 360 329 376 345 376
M 377 312
L 393 312 409 312 425 312 425 328 425 344 425 360 425 376 425 392 425 408 425 424 457 424 457 408 441 408 441 392 441 360 473 360 473 344 441 344 441 312 457 312 457 296 377 296 377 312
M 377 344
L 377 328 377 312 361 312 361 360 361 376 345 376 345 392 361 392 361 408 329 408 329 424 377 424 377 408 377 392 377 376 377 360 377 344
M 329 248
L 345 248 345 232 313 232 313 40 249 40 249 56 281 56 297 56 297 232 281 232 265 232 265 136 249 136 249 152 233 152 233 184 249 184 249 232 233 232 233 248 249 248 265 248 281 248 297 248 313 248 329 248
M 345 264
L 329 264 329 280 345 280 345 264
M 345 264
L 361 264 361 248 345 248 345 264
M 361 216
L 345 216 345 232 361 232 361 216
M 473 248
L 473 264 505 264 505 248 473 248
M 473 232
L 457 232 361 232 361 248 473 248 473 232
M 473 216
L 473 232 489 232 489 216 473 216
M 457 184
L 441 184 441 200 457 200 457 184
M 457 152
L 473 152 473 136 441 136 441 152 457 152
M 425 184
L 441 184 441 168 425 168 425 184
M 377 184
L 377 168 329 168 329 216 345 216 345 184 377 184
M 393 184
L 377 184 377 216 441 216 441 200 393 200 393 184
M 377 152
L 377 168 425 168 425 152 377 152
M 361 136
L 345 136 345 152 377 152 377 136 361 136
M 393 120
L 393 136 425 136 441 136 441 120 393 120
M 393 88
L 377 88 377 120 393 120 393 88
M 345 72
L 329 72 329 136 345 136 345 72
M 345 56
L 345 72 377 72 377 56 345 56
M 441 56
L 457 56 457 40 377 40 377 56 441 56
M 441 88
L 441 72 393 72 393 88 441 88
M 489 168
L 489 152 473 152 473 168 489 168
M 505 168
L 489 168 489 216 505 216 505 168
M 489 72
L 489 56 457 56 457 72 473 72 489 72
M 505 72
L 489 72 489 104 473 104 457 104 457 88 441 88 441 120 505 120 505 72 Z"/>

<path fill="#000080" stroke="none" d="
M 329 504
L 329 520 345 520 345 504 329 504
M 345 536
L 361 536 361 520 345 520 345 536
M 377 424
L 393 424 393 408 377 408 377 424
M 249 520
L 249 536 265 536 265 520 249 520
M 281 504
L 265 504 265 520 281 520 281 504
M 297 520
L 313 520 313 504 297 504 297 520
M 313 520
L 313 536 329 536 329 520 313 520
M 297 536
L 297 520 281 520 281 536 297 536
M 297 328
L 313 328 313 312 297 312 297 328
M 217 376
L 233 376 233 360 217 360 217 376
M 233 392
L 217 392 217 408 233 408 233 392
M 217 328
L 217 344 233 344 233 328 217 328
M 377 376
L 377 392 393 392 393 376 377 376
M 377 328
L 393 328 393 312 377 312 377 328
M 393 344
L 377 344 377 360 393 360 393 344
M 329 280
L 329 264 313 264 313 280 329 280
M 345 264
L 345 248 329 248 329 264 345 264 Z"/>

<path fill="#800080" stroke="none" d="
M 329 520
L 329 536 345 536 345 520 329 520
M 249 504
L 249 520 265 520 265 504 249 504
M 265 536
L 281 536 281 520 265 520 265 536
M 313 504
L 313 520 329 520 329 504 313 504
M 297 520
L 297 504 281 504 281 520 297 520
M 297 520
L 297 536 313 536 313 520 297 520
M 233 312
L 249 312 249 296 233 296 233 312
M 217 376
L 217 392 233 392 233 376 217 376
M 217 328
L 233 328 233 312 217 312 217 328
M 233 344
L 217 344 217 360 233 360 233 344
M 313 296
L 297 296 297 312 313 312 313 296
M 377 376
L 393 376 393 360 377 360 377 376
M 393 392
L 377 392 377 408 393 408 393 392
M 377 328
L 377 344 393 344 393 328 377 328 Z"/>

<path fill="#FF00FF" stroke="none" d="
M 409 424
L 409 408 393 408 393 424 409 424
M 201 408
L 185 408 185 424 201 424 201 408
M 217 440
L 217 424 201 424 201 440 217 440
M 297 472
L 313 472 313 456 297 456 297 472
M 313 488
L 297 488 297 504 313 504 313 488
M 281 472
L 281 488 297 488 297 472 281 472
M 281 488
L 265 488 265 504 281 504 281 488
M 217 392
L 201 392 201 408 217 408 217 392
M 201 360
L 201 376 217 376 217 360 201 360
M 185 392
L 201 392 201 376 185 376 185 392
M 201 344
L 185 344 185 360 201 360 201 344
M 201 312
L 185 312 185 328 201 328 201 312
M 217 344
L 217 328 201 328 201 344 217 344
M 217 296
L 201 296 201 312 217 312 217 296
M 217 280
L 217 296 233 296 233 280 217 280
M 313 264
L 297 264 297 280 313 280 313 264
M 249 280
L 249 264 233 264 233 280 249 280
M 281 280
L 281 296 297 296 297 280 281 280
M 249 280
L 249 296 265 296 265 280 249 280
M 265 264
L 265 248 249 248 249 264 265 264
M 281 248
L 281 264 297 264 297 248 281 248
M 281 264
L 265 264 265 280 281 280 281 264
M 425 392
L 409 392 409 408 425 408 425 392
M 425 360
L 409 360 409 376 425 376 425 360
M 409 344
L 425 344 425 328 409 328 409 344
M 393 344
L 393 360 409 360 409 344 393 344
M 393 376
L 393 392 409 392 409 376 393 376
M 393 312
L 393 328 409 328 409 312 393 312
M 329 264
L 329 248 313 248 313 264 329 264 Z"/>

<path fill="#0000FF" stroke="none" d="
M 409 440
L 409 424 393 424 393 440 409 440
M 425 408
L 409 408 409 424 425 424 425 408
M 313 488
L 313 504 329 504 329 488 313 488
M 217 424
L 217 408 201 408 201 424 217 424
M 297 488
L 281 488 281 504 297 504 297 488
M 297 472
L 297 488 313 488 313 472 297 472
M 281 456
L 281 472 297 472 297 456 281 456
M 265 488
L 249 488 249 504 265 504 265 488
M 265 488
L 281 488 281 472 265 472 265 488
M 201 360
L 217 360 217 344 201 344 201 360
M 201 376
L 201 392 217 392 217 376 201 376
M 201 392
L 185 392 185 408 201 408 201 392
M 201 360
L 185 360 185 376 201 376 201 360
M 185 344
L 201 344 201 328 185 328 185 344
M 217 328
L 217 312 201 312 201 328 217 328
M 233 296
L 217 296 217 312 233 312 233 296
M 233 264
L 217 264 217 280 233 280 233 264
M 201 280
L 201 296 217 296 217 280 201 280
M 297 280
L 297 296 313 296 313 280 297 280
M 313 264
L 313 248 297 248 297 264 313 264
M 281 264
L 281 280 297 280 297 264 281 264
M 265 280
L 265 264 249 264 249 280 265 280
M 265 280
L 265 296 281 296 281 280 265 280
M 249 296
L 249 280 233 280 233 296 249 296
M 249 264
L 249 248 233 248 233 264 249 264
M 265 264
L 281 264 281 248 265 248 265 264
M 409 392
L 393 392 393 408 409 408 409 392
M 409 392
L 425 392 425 376 409 376 409 392
M 425 344
L 409 344 409 360 425 360 425 344
M 425 312
L 409 312 409 328 425 328 425 312
M 393 360
L 393 376 409 376 409 360 393 360
M 393 328
L 393 344 409 344 409 328 393 328 Z"/>

<path fill="#808000" stroke="none" d="
M 457 424
L 473 424 473 408 457 408 457 424
M 489 472
L 489 488 473 488 473 504 393 504 393 488 361 488 361 472 345 472 345 440 329 440 329 488 345 488 345 504 361 504 361 520 377 520 377 536 473 536 473 520 505 520 505 504 521 504 521 456 505 456 505 472 489 472
M 457 392
L 441 392 441 408 457 408 457 392
M 473 312
L 473 328 521 328 521 296 505 296 505 312 473 312
M 361 360
L 345 360 345 376 361 376 361 360
M 345 344
L 329 344 329 360 345 360 345 344
M 473 296
L 457 296 457 312 473 312 473 296 Z"/>

<path fill="#800000" stroke="none" d="
M 233 488
L 217 488 217 504 89 504 89 520 73 520 73 536 217 536 217 520 233 520 233 488
M 265 440
L 249 440 249 472 265 472 265 440
M 265 440
L 281 440 281 424 265 424 265 440
M 201 248
L 201 264 217 264 217 248 201 248
M 201 264
L 185 264 185 280 201 280 201 264
M 121 296
L 121 328 169 328 169 312 185 312 185 296 121 296 Z"/>

<path fill="#FF0000" stroke="none" d="
M 121 328
L 121 296 185 296 185 280 185 264 201 264 201 248 73 248 73 520 89 520 89 504 217 504 217 488 233 488 233 472 249 472 249 440 265 440 265 424 281 424 281 312 249 312 249 424 233 424 233 440 217 440 217 456 121 456 121 328 Z"/>

<path fill="#808080" stroke="none" d="
M 137 136
L 137 120 121 120 121 104 105 104 105 232 121 232 121 136 137 136
M 153 88
L 137 88 137 104 153 104 153 88
M 121 56
L 121 72 137 72 137 56 121 56
M 265 136
L 265 120 249 120 249 136 265 136
M 201 184
L 185 184 185 200 201 200 201 184
M 185 168
L 185 152 169 152 169 168 185 168
M 169 136
L 169 120 153 120 153 136 169 136
M 297 56
L 281 56 281 232 297 232 297 56
M 489 216
L 489 168 473 168 473 216 489 216
M 473 232
L 473 216 457 216 457 232 473 232
M 473 168
L 473 152 457 152 457 168 473 168
M 441 136
L 425 136 425 152 441 152 441 136
M 377 88
L 361 88 361 136 377 136 393 136 393 120 377 120 377 88
M 377 88
L 393 88 393 72 377 72 377 88
M 441 56
L 441 72 457 72 457 56 441 56
M 489 104
L 489 72 473 72 473 104 489 104 Z"/>

<path fill="#C0C0C0" stroke="none" d="
M 249 56
L 249 88 233 88 233 120 217 120 217 152 201 152 201 184 201 200 185 200 185 184 185 168 169 168 169 152 169 136 153 136 153 120 153 104 137 104 137 88 137 72 121 72 121 56 89 56 89 232 105 232 105 104 121 104 121 120 137 120 137 136 137 152 153 152 153 184 169 184 169 216 185 216 185 232 201 232 201 216 217 216 217 184 233 184 233 152 249 152 249 136 249 120 265 120 265 136 265 232 281 232 281 56 249 56
M 377 184
L 345 184 345 216 361 216 361 232 457 232 457 216 473 216 473 168 457 168 457 152 441 152 425 152 425 168 441 168 441 184 457 184 457 200 441 200 441 216 377 216 377 184
M 393 136
L 377 136 377 152 425 152 425 136 393 136
M 377 88
L 377 72 345 72 345 136 361 136 361 88 377 88
M 441 72
L 441 88 457 88 457 104 473 104 473 72 457 72 441 72
M 441 72
L 441 56 377 56 377 72 393 72 441 72 Z"/>

<path fill="#FFFF00" stroke="none" d="
M 441 360
L 441 392 457 392 457 408 473 408 473 424 473 440 457 440 457 456 393 456 393 440 377 440 377 424 329 424 329 440 345 440 345 472 361 472 361 488 393 488 393 504 473 504 473 488 489 488 489 472 505 472 505 456 521 456 521 392 505 392 505 376 473 376 473 360 441 360
M 473 264
L 473 248 361 248 361 264 345 264 345 280 329 280 329 344 345 344 345 360 361 360 361 312 377 312 377 296 457 296 473 296 473 312 505 312 505 296 521 296 521 280 505 280 505 264 473 264 Z"/>
</g>
</g>
</g>
</g>
</svg>
