<?xml version="1.0" encoding="UTF-8" standalone="no"?>
<svg
   viewBox="0 0 32 32"
   version="1.1"
   id="svg8"
   sodipodi:docname="mustache.svg"
   inkscape:version="1.2 (dc2aedaf03, 2022-05-15)"
   xml:space="preserve"
   xmlns:inkscape="http://www.inkscape.org/namespaces/inkscape"
   xmlns:sodipodi="http://sodipodi.sourceforge.net/DTD/sodipodi-0.dtd"
   xmlns="http://www.w3.org/2000/svg"
   xmlns:svg="http://www.w3.org/2000/svg"><defs
     id="defs12" /><sodipodi:namedview
     id="namedview10"
     pagecolor="#ffffff"
     bordercolor="#666666"
     borderopacity="1.0"
     inkscape:showpageshadow="2"
     inkscape:pageopacity="0.0"
     inkscape:pagecheckerboard="0"
     inkscape:deskcolor="#d1d1d1"
     showgrid="false"
     inkscape:zoom="5.2149125"
     inkscape:cx="7.6703108"
     inkscape:cy="30.201849"
     inkscape:window-width="1538"
     inkscape:window-height="740"
     inkscape:window-x="220"
     inkscape:window-y="152"
     inkscape:window-maximized="0"
     inkscape:current-layer="svg8" /><title
     id="title2">file_type_wasm</title><path
     style="fill:#000000;stroke-width:0.0737268"
     d="m 2.7754336,17.04924 c 0.00162,-1.202311 0.116839,-1.873465 0.4167889,-2.424574 0.3624072,-0.66586 1.069266,-1.105408 2.0622699,-1.282388 0.7632243,-0.136029 2.7467762,-0.135421 4.3522877,0.0013 1.4073049,0.119869 3.3328459,0.157701 3.6734359,0.07218 0.361243,-0.09071 0.887881,-0.380721 1.128712,-0.621552 0.274559,-0.27456 0.503171,-0.86123 0.571727,-1.467183 l 0.05119,-0.452425 h 0.751515 0.751511 l 0.07972,0.51499 c 0.15511,1.002087 0.684472,1.70836 1.464288,1.953643 0.515179,0.162044 1.554074,0.162187 3.920237,5.06e-4 4.31872,-0.295039 5.697314,-0.0062 6.413889,1.343591 0.30081,0.566668 0.386702,1.090179 0.386702,2.356984 v 1.055497 H 28.099293 27.39889 V 17.44965 c 0,-0.866189 -0.141369,-1.324925 -0.511293,-1.659129 -0.59099,-0.533925 -1.386895,-0.621227 -4.5042,-0.494061 -3.931328,0.160373 -5.070767,0.05556 -5.78361,-0.532029 -0.298754,-0.246258 -0.596838,-0.678193 -0.670458,-0.971511 -0.02629,-0.104742 -0.07348,-0.190442 -0.104881,-0.190442 -0.0314,0 -0.144905,0.179505 -0.252245,0.398901 -0.222897,0.455584 -0.660154,0.883199 -1.103776,1.079434 -0.708469,0.31339 -1.885255,0.35673 -5.549865,0.204399 C 6.0691186,15.166789 5.2164007,15.271612 4.6820099,15.806 4.3341094,16.153901 4.1749645,16.681366 4.1749645,17.486538 v 0.613296 H 3.4745578 2.7741548 l 0.00123,-1.050606 z"
     id="path257" /></svg>
