<?xml version="1.0" encoding="UTF-8" standalone="no"?>
<svg
   height="512"
   style="shape-rendering:auto"
   version="1.1"
   viewBox="0 0 924.09756 1152"
   width="512"
   id="svg4"
   xmlns="http://www.w3.org/2000/svg"
   xmlns:svg="http://www.w3.org/2000/svg">
  <defs
     id="defs8" />
  <path
     d="M 180.65871,412.316 H 387.1688 v 16.45112 H 199.59343 v 123.80226 h 176.38802 v 16.45113 H 199.59343 v 135.92374 h 189.72536 v 16.45112 H 180.65871 Z m 225.00741,0 h 21.9447 L 524.8422,548.23975 624.22356,412.316 759.39853,239.66451 537.31955,562.52605 651.75824,721.39537 H 628.95353 L 524.8422,576.81236 420.30087,721.39537 H 397.92616 L 513.22485,562.52605 405.67353,412.316 Z m 254.26949,16.45112 V 412.316 h 235.32736 v 16.45112 H 786.85166 V 721.38796 H 767.91693 V 428.76712 H 659.94302 Z M -77.688361,412.316 h 23.6647 L 272.26304,901.64596 137.4217,721.39537 -57.901054,435.69156 -58.761049,721.39537 H -77.688361 Z M 893.36505,699.97704 c -3.8774,0 -6.77617,-3.00257 -6.77617,-6.87996 0,-3.88481 2.89877,-6.88738 6.76875,-6.88738 3.91446,0 6.76877,3.00257 6.76877,6.88738 0,3.87739 -2.85431,6.87996 -6.76877,6.87996 z m 18.5937,-18.1118 h 10.13459 c 0.14086,5.501 4.1517,9.19306 10.03823,9.19306 6.58341,0 10.31253,-3.96637 10.31253,-11.40977 v -47.12182 h 10.31253 v 47.1663 c 0,13.40407 -7.73255,21.12179 -20.5361,21.12179 -12.01028,0 -20.25437,-7.48789 -20.25437,-18.94956 z m 54.28349,-0.5931 h 10.22357 c 0.87483,6.32393 7.04307,10.34219 15.9322,10.34219 8.28119,0 14.36039,-4.29998 14.36039,-10.20874 0,-5.07842 -3.8626,-8.13289 -12.66264,-10.20874 l -8.56293,-2.07586 c -12.01028,-2.81722 -17.49645,-8.64443 -17.49645,-18.438 0,-11.87682 9.66753,-19.77989 24.16887,-19.77989 13.49305,0 23.35325,7.90307 23.94635,19.12748 h -10.0381 c -0.9639,-6.13859 -6.30177,-9.97891 -14.04176,-9.97891 -8.15511,0 -13.58198,3.92929 -13.58198,9.93443 0,4.75963 3.49929,7.4879 12.15856,9.51926 l 7.31737,1.80154 c 13.62651,3.18792 19.24611,8.7334 19.24611,18.7568 0,12.75165 -9.8603,20.7511 -25.59969,20.7511 -14.73113,0 -24.6359,-7.62876 -25.36987,-19.55007 z"
     fill="#000000"
     fill-rule="nonzero"
     id="path2"
     style="stroke-width:7.41375" />
</svg>
