<?xml version="1.0" encoding="UTF-8" standalone="no"?>
<svg xmlns="http://www.w3.org/2000/svg" xmlns:xlink="http://www.w3.org/1999/xlink" width="256" height="256">
  <defs>
    <path id="a" fill="#26272a" d="M122.98607 128.78392c0 .6625-.39573 1.19956-.88388 1.19956-.48816 0-.88389-.53706-.88389-1.19956s.39573-1.19956.88389-1.19956c.48815 0 .88388.53706.88388 1.19956z"/>
  </defs>
  <defs>
    <pattern id="b" width="124.24876" height="124.24876" patternTransform="translate(-9.0913729 793.76311) scale(2.10569)" patternUnits="userSpaceOnUse">
      <path fill="none" d="M0 0h124.24876v124.24876H0z"/>
      <path fill="none" d="M5.8105297 4.4232178h114.89468v115.40118H5.8105297z"/>
      <path fill="#fff" stroke="#000" stroke-width="3" d="M104.919504 10.28866c8.25078.0236 13.64304 3.44174 14.28571 12.5l-.35714 81.78572c-.66328 12.098-7.17489 11.96765-12.85714 13.57143l-51.964289.17857c-9.843785-1.03561-14.748973-4.88317-16.428573-14.64286l.892858-79.82143c.400841-5.98156 2.242906-10.78394 7.857143-12.5l58.571431-1.07143z"/>
      <path d="m129.92078 124.10968-17.38616 80.14358c-2.93612 11.59293-9.44773 10.45242-15.635059 11.04605l-37.029941-.20754.844666-77.6632c.400841-5.98156 2.242906-10.78394 7.857143-12.5l61.349351-.81889z" opacity=".26180258" transform="translate(-22.223356 -113.56848)"/>
      <path fill="none" stroke="#646464" stroke-width="2.5" d="m47.47717 106.06604 60.356614-.2525m-60.735421-9.7228 60.356611-.2525m-60.167207-9.9121 60.356617-.2525m-60.735424-9.7228 60.356614-.2525M46.119777 65.43897l60.356617-.2525m-60.735424-9.7228 60.356614-.2525m-60.16721-9.91212 60.35662-.2525m-60.735427-9.7228 60.356617-.2525"/>
      <path fill="#5fd5d4" stroke="#000" stroke-width="3" d="M14.919502 80.64581C4.076687 77.68646 7.228316 71.7484 9.858226 65.66375l24.530818-47.64049c1.535582-4.24327 7.427262-7.24915 11.244743-6.66316l60.357147-.35715c3.70927.86049 8.78776.80816 4.28571 7.14286l-27.45667 53.69398c-1.02423 5.80869-7.643263 8.76151-11.497282 8.91062l-56.40319-.1046z"/>
      <path fill="none" stroke="#171718" stroke-width="4" d="m43.312623 27.91491 45.713761-.2525m-52.320906 8.82394 45.713766-.2525"/>
      <use xlink:href="#a" transform="matrix(2.04511 0 0 1.47368 -149.541506 -174.50826)"/>
      <path fill="none" stroke="#838382" stroke-width="2" d="M100.098074 15.02081c-7.0368-7.32148 3.26677-13.74734 4.28571-6.25"/>
      <use xlink:href="#a" transform="matrix(2.04511 0 0 1.47368 -160.010407 -174.04509925)"/>
      <path fill="none" stroke="#838382" stroke-width="2" d="M89.629173 15.48397075c-7.0368-7.32148 3.26677-13.74734 4.28571-6.25"/>
      <use xlink:href="#a" transform="matrix(2.04511 0 0 1.47368 -170.746357 -174.04881626)"/>
      <path fill="none" stroke="#838382" stroke-width="2" d="M78.893223 15.48025374c-7.0368-7.32148 3.26677-13.74734 4.28571-6.25"/>
      <use xlink:href="#a" transform="matrix(2.04511 0 0 1.47368 -181.651905 -173.79627812)"/>
      <path fill="none" stroke="#838382" stroke-width="2" d="M67.987675 15.73279188c-7.0368-7.32148 3.26677-13.74734 4.28571-6.25"/>
      <use xlink:href="#a" transform="matrix(2.04511 0 0 1.47368 -192.221974 -173.58706867)"/>
      <path fill="none" stroke="#838382" stroke-width="2" d="M57.417606 15.94200133c-7.0368-7.32148 3.26677-13.74734 4.28571-6.25"/>
      <use xlink:href="#a" transform="matrix(2.04511 0 0 1.47368 -203.636316 -173.4607996)"/>
      <path fill="none" stroke="#838382" stroke-width="2" d="M46.003264 16.0682704c-7.0368-7.32148 3.26677-13.74734 4.28571-6.25"/>
    </pattern>
  </defs>
  <path fill="url(#b)" d="M-9.0913725 793.76312h261.62952v261.62952h-261.62952z" transform="translate(0 -796.36218)"/>
</svg>