<?xml version="1.0" encoding="UTF-8" standalone="no"?>
<!-- Creator: CorelDRAW 2018 (64-Bit) -->

<svg
   xml:space="preserve"
   width="512"
   height="512"
   version="1.1"
   style="clip-rule:evenodd;fill-rule:evenodd;image-rendering:optimizeQuality;shape-rendering:geometricPrecision;text-rendering:geometricPrecision"
   viewBox="0 0 663.54465 663.51489"
   id="svg12"
   sodipodi:docname="oracle.svg"
   inkscape:version="1.2 (dc2aedaf03, 2022-05-15)"
   xmlns:inkscape="http://www.inkscape.org/namespaces/inkscape"
   xmlns:sodipodi="http://sodipodi.sourceforge.net/DTD/sodipodi-0.dtd"
   xmlns="http://www.w3.org/2000/svg"
   xmlns:svg="http://www.w3.org/2000/svg"><sodipodi:namedview
   id="namedview14"
   pagecolor="#ffffff"
   bordercolor="#666666"
   borderopacity="1.0"
   inkscape:showpageshadow="2"
   inkscape:pageopacity="0.0"
   inkscape:pagecheckerboard="0"
   inkscape:deskcolor="#d1d1d1"
   inkscape:document-units="mm"
   showgrid="false"
   inkscape:zoom="0.78355347"
   inkscape:cx="449.23546"
   inkscape:cy="299.91572"
   inkscape:window-width="1920"
   inkscape:window-height="1017"
   inkscape:window-x="-8"
   inkscape:window-y="-8"
   inkscape:window-maximized="1"
   inkscape:current-layer="Layer_x0020_1" />
 <defs
   id="defs4">
  <style
   type="text/css"
   id="style2">
   <![CDATA[
    .fil1 {fill:#FEFEFE;fill-rule:nonzero}
    .fil0 {fill:#E32124;fill-rule:nonzero}
   ]]>
  </style>
 </defs>
 <g
   id="Layer_x0020_1"
   inkscape:label="Layer 1"
   inkscape:groupmode="layer">
  <metadata
   id="CorelCorpID_0Corel-Layer" />
  
  <g
   id="g292"
   transform="translate(-11.005652,220.29219)"><polygon
     class="fil0"
     points="94.32,34.5 94.32,0 0,0 0,34.5 "
     id="polygon7"
     transform="matrix(6.4617541,0,0,6.4617541,38.041654,0)" /><path
     class="fil1"
     d="m 520.54083,129.55817 c -8.27105,0 -15.18512,-5.55711 -17.3175,-13.11736 h 45.74922 l 6.33251,-9.82187 h -52.14635 c 2.06777,-7.560249 9.11107,-13.181976 17.31751,-13.181976 h 31.53335 l 6.2679,-9.821866 h -38.51205 c -15.44359,0 -27.91478,12.471183 -27.91478,27.850162 0,15.37897 12.47119,27.85015 27.91478,27.85015 h 33.08418 l 6.2679,-9.82186 h -38.64128 z m -131.10899,9.82186 c -15.37898,0 -27.85016,-12.47118 -27.85016,-27.85016 0,-15.378972 12.47118,-27.850154 27.85016,-27.850154 h 38.51206 l -6.33252,9.821865 h -31.53337 c -9.95109,0 -18.02829,8.077189 -18.02829,18.028289 0,9.9511 8.0772,18.0283 18.02829,18.0283 h 38.6413 l -6.33252,9.82186 H 389.3026 Z m -203.54525,-9.82186 c 9.9511,0 18.09291,-8.0772 18.09291,-18.0283 0,-9.9511 -8.0772,-18.028289 -18.09291,-18.028289 h -30.9518 c -9.9511,0 -18.0283,8.077189 -18.0283,18.028289 0,9.9511 8.0772,18.0283 18.0283,18.0283 z m -31.6626,9.82186 c -15.44359,0 -27.91478,-12.47118 -27.91478,-27.85016 0,-15.378972 12.47119,-27.850154 27.91478,-27.850154 h 32.37339 c 15.37898,0 27.85016,12.471182 27.85016,27.850154 0,15.37898 -12.47118,27.85016 -27.85016,27.85016 z m 112.82223,-18.02829 c 10.46804,0 18.86832,-8.4649 18.86832,-18.86832 0,-10.403424 -8.40028,-18.868322 -18.86832,-18.868322 h -46.91234 v 55.764932 h 10.72651 V 93.436964 h 35.47504 c 4.91093,0 8.98183,4.070905 8.98183,9.046456 0,4.97555 -4.0709,8.98184 -8.98183,8.98184 h -30.24101 l 31.92106,27.91477 h 15.57283 l -21.51764,-18.02829 h 4.84632 z m 177.31053,8.20643 V 83.679716 H 433.69486 V 134.0814 c 0,1.42159 0.51693,2.71393 1.55082,3.74782 1.03388,0.96926 2.45547,1.61544 3.94167,1.61544 h 48.91548 l 6.33252,-9.82188 h -50.01398 z m -131.1736,-9.82187 h 28.62557 L 326.68821,95.375487 298.90267,139.44466 H 286.30224 L 320.0326,86.587504 c 1.48621,-2.132378 3.94167,-3.424729 6.65561,-3.424729 2.5847,0 5.04016,1.227733 6.52637,3.295495 l 33.85959,52.98639 h -12.66504 l -5.94481,-9.82188 h -28.94866 l -6.33251,-9.82186 z"
     id="path9"
     style="stroke-width:6.46175"
     sodipodi:nodetypes="cccccsccssscccccssccsssccccsssssssssssssssssccccssscccccscccscsccccccccccsccccccc" /></g>
 </g>
</svg>
