<svg xmlns="http://www.w3.org/2000/svg" xml:space="preserve" width="512" height="512" style="clip-rule:evenodd;fill-rule:evenodd;image-rendering:optimizeQuality;shape-rendering:geometricPrecision;text-rendering:geometricPrecision" viewBox="0 0 663.545 663.515"><path d="M94.32 34.5V0H0v34.5z" style="fill:#e32124;fill-rule:nonzero" transform="matrix(6.46175 0 0 6.46175 27.036 220.292)"/><path d="M520.54 129.558c-8.27 0-15.184-5.557-17.317-13.117h45.75l6.332-9.822H503.16c2.067-7.56 9.11-13.182 17.317-13.182h31.534l6.267-9.822h-38.512c-15.443 0-27.914 12.471-27.914 27.85 0 15.38 12.47 27.85 27.914 27.85h33.085l6.267-9.821h-38.64zm-131.108 9.822c-15.38 0-27.85-12.471-27.85-27.85 0-15.38 12.47-27.85 27.85-27.85h38.512l-6.333 9.822h-31.533c-9.951 0-18.028 8.077-18.028 18.028 0 9.951 8.077 18.028 18.028 18.028h38.641l-6.332 9.822h-33.084Zm-203.545-9.822c9.95 0 18.093-8.077 18.093-18.028 0-9.951-8.078-18.028-18.093-18.028h-30.952c-9.951 0-18.029 8.077-18.029 18.028 0 9.951 8.078 18.028 18.029 18.028zm-31.663 9.822c-15.444 0-27.915-12.471-27.915-27.85 0-15.38 12.471-27.85 27.915-27.85h32.373c15.38 0 27.85 12.47 27.85 27.85 0 15.379-12.47 27.85-27.85 27.85zm112.822-18.028c10.468 0 18.869-8.465 18.869-18.869 0-10.403-8.4-18.868-18.869-18.868h-46.912v55.765h10.726V93.437h35.475c4.911 0 8.982 4.07 8.982 9.046 0 4.976-4.07 8.982-8.982 8.982h-30.24l31.92 27.915h15.573l-21.517-18.028h4.846zm177.31 8.206V83.68h-10.661v50.401c0 1.422.517 2.714 1.55 3.748 1.035.97 2.456 1.616 3.942 1.616h48.916l6.332-9.822h-50.014zm-131.173-9.822h28.626l-15.12-24.36-27.786 44.069h-12.6l33.73-52.857c1.486-2.133 3.941-3.425 6.655-3.425 2.585 0 5.04 1.228 6.527 3.295l33.86 52.987h-12.666l-5.945-9.822h-28.948l-6.333-9.822z" style="stroke-width:6.46175;fill:#fefefe;fill-rule:nonzero" transform="translate(-11.006 220.292)"/></svg>