<?xml version="1.0" encoding="UTF-8" standalone="no"?>
<svg
   width="256"
   height="256"
   version="1.1"
   id="svg6536"
   sodipodi:docname="pyscript.svg"
   inkscape:version="1.2 (dc2aedaf03, 2022-05-15)"
   xmlns:inkscape="http://www.inkscape.org/namespaces/inkscape"
   xmlns:sodipodi="http://sodipodi.sourceforge.net/DTD/sodipodi-0.dtd"
   xmlns="http://www.w3.org/2000/svg"
   xmlns:svg="http://www.w3.org/2000/svg">
  <defs
     id="defs6540" />
  <sodipodi:namedview
     id="namedview6538"
     pagecolor="#ffffff"
     bordercolor="#666666"
     borderopacity="1.0"
     inkscape:showpageshadow="2"
     inkscape:pageopacity="0.0"
     inkscape:pagecheckerboard="0"
     inkscape:deskcolor="#d1d1d1"
     showgrid="false"
     inkscape:zoom="1.3706546"
     inkscape:cx="183.48897"
     inkscape:cy="110.89592"
     inkscape:window-width="1573"
     inkscape:window-height="713"
     inkscape:window-x="334"
     inkscape:window-y="149"
     inkscape:window-maximized="0"
     inkscape:current-layer="svg6536" />
  <path
     id="path10"
     style="fill:#fda703;stroke:none;stroke-width:0.121207"
     d="m 105.30469,87.974609 c -5.85493,0.09706 -11.756208,3.321993 -15.853518,7.417969 -1.775312,1.774827 -3.842869,3.969509 -4.84961,6.302732 H 84.480469 V 89.453125 h -9.210938 v 76.482425 h 9.210938 v -21.33399 c 2.863261,0.002 5.742691,0.59721 8.605469,0.72266 4.929712,0.21587 9.875672,-0.58327 14.302732,-2.8125 11.57947,-5.83064 15.93624,-19.55682 15.87891,-31.60547 -0.0287,-6.04384 -1.30487,-12.47333 -5.47461,-17.089844 -1.35206,-1.497021 -2.97172,-2.797479 -4.70703,-3.824218 -2.46754,-1.460009 -5.11992,-2.061697 -7.78125,-2.017579 z m -2.02539,8.857422 c 1.92777,0.0315 3.82588,0.741791 5.5625,2.44336 3.19123,3.126889 4.08375,7.473489 4.37695,11.751949 0.607,8.85402 -1.89032,18.7709 -9.83008,23.82618 -5.899361,3.75606 -12.438441,2.84131 -18.908201,1.50586 V 116.8457 c 0,-1.24042 -0.299264,-2.94539 0.11914,-4.12109 0.616457,-1.7324 2.020819,-3.50276 3.109375,-4.96875 0.769904,-1.03692 1.553992,-2.05372 2.398438,-3.03125 3.123238,-3.61545 8.245338,-7.973078 13.171878,-7.892579 z" />
  <path
     style="fill:#fda703;stroke:none;stroke-width:0.121207"
     d="m 131.50937,89.453211 c 0.3915,1.360544 1.19268,2.597579 1.78053,3.878612 1.43993,3.136706 2.98774,6.225657 4.4907,9.332907 4.23375,8.75064 8.45901,17.51194 12.61034,26.30184 1.47387,3.12083 3.01077,6.21221 4.48465,9.33291 0.56967,1.20661 1.6775,2.66824 1.86294,3.99982 0.0921,0.65706 -0.45331,1.4683 -0.69088,2.06051 -0.72481,1.80901 -1.57326,3.53839 -2.57564,5.21189 -1.02419,1.71131 -2.06415,3.50202 -3.42893,4.96947 -0.98662,1.06165 -2.03385,2.11954 -3.26167,2.90241 -5.07614,3.2378 -10.7183,2.48486 -16.24169,1.21861 v 8.12085 c 6.4494,0.83281 12.99456,1.2877 19.02944,-1.72962 6.02276,-3.01126 9.64926,-8.96553 12.637,-14.75448 5.53066,-10.71649 9.65775,-22.21596 14.32178,-33.33183 2.52352,-6.01245 4.9925,-12.04745 7.51481,-18.059782 0.83026,-1.977608 1.63629,-3.966002 2.47625,-5.939125 0.47634,-1.11801 1.14419,-2.313835 1.35145,-3.514992 h -6.54515 c -0.65816,0 -1.9284,-0.242535 -2.49807,0.1246 -0.68361,0.441071 -0.98178,2.058452 -1.29328,2.784359 -1.08601,2.525219 -2.07021,5.095163 -3.11864,7.636017 -2.89684,7.020893 -5.78883,14.045913 -8.6287,21.089953 -1.24964,3.09792 -3.0835,6.32759 -3.85437,9.57532 h -0.24242 l -1.78779,-3.7574 -3.15016,-6.42395 -9.81895,-20.1203 -3.81801,-7.757227 -1.62296,-3.026772 -2.71018,-0.1246 z"
     id="path88" />
  <path
     style="fill:#fda703;stroke:none;stroke-width:0.121207"
     d="m 11.272398,117.69436 c 1.101913,0.91304 2.719428,1.45023 3.999818,2.09045 l 7.757225,3.87861 25.210978,12.60549 c 3.766133,1.88306 7.505599,3.8134 11.272217,5.69671 1.629744,0.81487 3.536688,2.19517 5.333091,2.5154 v -5.93912 l -0.1246,-2.37687 -2.784359,-1.53168 -7.029984,-3.515 -18.544614,-9.33291 -8.120844,-4.09108 8.120844,-4.02976 18.423407,-9.15183 7.151191,-3.57487 2.784359,-1.501748 0.1246,-2.346924 v -6.060331 c -1.873975,0.334045 -3.874854,1.786343 -5.575505,2.636608 L 47.391973,99.604629 23.39306,111.60409 c -4.02006,2.01009 -8.239723,3.82515 -12.120662,6.09027 z"
     id="path204" />
  <path
     style="fill:#fda703;stroke:none;stroke-width:0.121207"
     d="m 193.08234,91.028897 v 5.939125 c 0,0.635243 -0.22787,1.825129 0.12484,2.376862 0.43998,0.689426 1.94537,1.113286 2.66291,1.471816 l 6.90878,3.45366 c 6.1076,3.0538 12.19339,6.15717 18.3022,9.2117 2.71988,1.3597 5.55975,3.36967 8.48446,4.2123 v 0.24241 c -3.14046,0.90481 -6.28577,2.99198 -9.2117,4.45471 l -17.69617,8.84808 c -2.1296,1.06492 -4.23859,2.23626 -6.42395,3.18131 -0.79633,0.3441 -2.55019,0.87657 -3.02653,1.62296 -0.35271,0.55173 -0.12484,1.74149 -0.12484,2.37686 v 6.06033 l 6.66636,-3.24264 13.09032,-6.54516 22.30202,-11.15101 11.39342,-5.72665 c -1.21934,-1.2317 -3.54044,-1.92149 -5.09068,-2.69648 l -11.15101,-5.57551 -24.96856,-12.48428 -7.99964,-3.999819 c -1.36236,-0.681423 -2.77684,-1.608412 -4.24223,-2.030574 z"
     id="path218" />
</svg>
