<svg xmlns="http://www.w3.org/2000/svg" width="1000" height="1000" viewBox="0 0 264.58 264.58"><g style="fill:#00be5a;fill-opacity:1" transform="matrix(1.19681 0 0 1.22124 -22.052 -29.207)"><circle cx="132.287" cy="132.287" r="16.536" style="fill:#00be5a;fill-opacity:1;stroke:none;stroke-width:6.61449;stroke-linecap:butt;stroke-linejoin:round;stroke-miterlimit:10;stroke-dasharray:none;stroke-opacity:1"/><g style="fill:#00be5a;fill-opacity:1"><path d="M-48.79-278.768c1.375.38 3.778 1.699 6.747 3.783.413.29.847.603 1.3.936a38.482 38.482 0 0 1 4.69 4.048c1.745 1.77 3.713 4.09 5.796 7.198 1.754 2.617 3.583 5.785 5.4 9.609 3.15 6.626 6.228 15.151 8.702 25.733 2.217 9.481 3.907 20.455 4.684 32.69 1.492 23.474-.715 46.657-5.805 65.786-2.589 9.727-5.815 17.997-9.418 24.598-1.89 3.464-3.853 6.412-5.843 8.866-2.105 2.596-4.204 4.597-6.245 6.087-2.052 1.499-4.06 2.505-6.006 3.07-1.84.534-3.663.684-5.482.456-1.764-.22-3.612-.807-5.533-1.847-1.888-1.021-3.847-2.48-5.835-4.444-3.952-3.905-7.83-9.619-11.315-17.157-3.524-7.626-6.502-16.81-8.748-27.263-5.092-23.688-5.203-47.77-3.205-66.675 1.365-12.917 3.647-23.134 5.788-30.554a131.912 131.912 0 0 1 1.699-5.45c3.45-10.268 6.989-16.351 8.387-18.667l-8.466-5.114c-1.656 2.741-5.554 9.491-9.297 20.63a147.045 147.045 0 0 0-1.83 5.85c-2.304 7.938-4.737 18.714-6.21 32.24-2.147 19.719-2.13 44.903 3.184 69.868 2.35 11.038 5.525 20.972 9.42 29.418 3.832 8.308 8.351 15.153 13.43 20.145 2.578 2.533 5.314 4.603 8.19 6.137 2.947 1.572 6.016 2.567 9.155 2.925 3.253.372 6.459.046 9.548-.9 3.23-.988 6.248-2.627 9.038-4.738 2.777-2.101 5.434-4.74 7.951-7.905 2.38-2.993 4.635-6.454 6.74-10.363 4.003-7.43 7.456-16.453 10.168-26.762 5.325-20.244 7.542-44.486 5.824-68.86-.897-12.733-2.778-24.21-5.276-34.175-2.787-11.118-6.298-20.193-10.04-27.312-2.162-4.112-4.386-7.547-6.592-10.39-2.625-3.383-5.196-5.894-7.583-7.736-2.49-1.922-4.75-3.093-6.61-3.777a16.27 16.27 0 0 0-1.9-.572c-4.366-1.026-7.442.259-8.602.588z" style="fill:#00be5a;fill-opacity:1;fill-rule:nonzero;stroke:none;stroke-width:.55391;stroke-linecap:butt;stroke-linejoin:round;stroke-miterlimit:10;stroke-dasharray:none;stroke-opacity:1" transform="rotate(150)"/><g style="fill:#00be5a;fill-opacity:1" transform="translate(-4.84 -166.837)"><g style="fill:#00be5a;fill-opacity:1"><path d="M16.14 5.327h.264c.123 0 .247.061.344.126.056.047.142.085.174.1l.011.003-.003-.011a.421.421 0 0 0-.143-.15.732.732 0 0 0-.383-.138h-.265z" style="fill:#00be5a;fill-opacity:1;fill-rule:nonzero;stroke:none;stroke-width:.185206;stroke-linecap:butt;stroke-linejoin:miter;stroke-miterlimit:4;stroke-dasharray:none;stroke-opacity:1" transform="matrix(0 14.645 -19.33674 0 300.322 141.467)"/><path d="M16.14 5.282h.264c.141 0 .282-.07.383-.139a.422.422 0 0 0 .143-.15l.003-.011-.011.003c-.032.015-.118.053-.174.1a.656.656 0 0 1-.344.127h-.265z" style="fill:#00be5a;fill-opacity:1;fill-rule:nonzero;stroke:none;stroke-width:.185206;stroke-linecap:butt;stroke-linejoin:miter;stroke-miterlimit:4;stroke-dasharray:none;stroke-opacity:1" transform="matrix(0 14.645 -19.33674 0 300.322 141.467)"/></g><path d="m207.284 355.53-3.384 20.927c-.309 1.91-1.955 3.487-4.385 3.487h-2.004c-2.43 0-4.076-1.576-4.385-3.487l-3.383-20.927c-.31-1.91 1.956-3.487 4.385-3.487h8.77c2.43 0 4.695 1.576 4.386 3.487z" style="vector-effect:none;fill:#00be5a;fill-opacity:1;fill-rule:evenodd;stroke-width:3.91082;stroke-linejoin:bevel;stop-color:#000"/><circle cx="204.277" cy="366.443" r="2.095" style="fill:#00be5a;fill-opacity:1;stroke:none;stroke-width:1;stroke-linecap:butt;stroke-linejoin:round;stroke-miterlimit:10;stroke-dasharray:none;stroke-opacity:1"/><circle cx="192.593" cy="366.443" r="2.095" style="fill:#00be5a;fill-opacity:1;stroke:none;stroke-width:1;stroke-linecap:butt;stroke-linejoin:round;stroke-miterlimit:10;stroke-dasharray:none;stroke-opacity:1"/></g></g><g style="fill:#00be5a;fill-opacity:1"><path d="M-48.79-278.768c1.375.38 3.778 1.699 6.747 3.783.413.29.847.603 1.3.936a38.482 38.482 0 0 1 4.69 4.048c1.745 1.77 3.713 4.09 5.796 7.198 1.754 2.617 3.583 5.785 5.4 9.609 3.15 6.626 6.228 15.151 8.702 25.733 2.217 9.481 3.907 20.455 4.684 32.69 1.492 23.474-.715 46.657-5.805 65.786-2.589 9.727-5.815 17.997-9.418 24.598-1.89 3.464-3.853 6.412-5.843 8.866-2.105 2.596-4.204 4.597-6.245 6.087-2.052 1.499-4.06 2.505-6.006 3.07-1.84.534-3.663.684-5.482.456-1.764-.22-3.612-.807-5.533-1.847-1.888-1.021-3.847-2.48-5.835-4.444-3.952-3.905-7.83-9.619-11.315-17.157-3.524-7.626-6.502-16.81-8.748-27.263-5.092-23.688-5.203-47.77-3.205-66.675 1.365-12.917 3.647-23.134 5.788-30.554a131.912 131.912 0 0 1 1.699-5.45c3.45-10.268 6.989-16.351 8.387-18.667l-8.466-5.114c-1.656 2.741-5.554 9.491-9.297 20.63a147.045 147.045 0 0 0-1.83 5.85c-2.304 7.938-4.737 18.714-6.21 32.24-2.147 19.719-2.13 44.903 3.184 69.868 2.35 11.038 5.525 20.972 9.42 29.418 3.832 8.308 8.351 15.153 13.43 20.145 2.578 2.533 5.314 4.603 8.19 6.137 2.947 1.572 6.016 2.567 9.155 2.925 3.253.372 6.459.046 9.548-.9 3.23-.988 6.248-2.627 9.038-4.738 2.777-2.101 5.434-4.74 7.951-7.905 2.38-2.993 4.635-6.454 6.74-10.363 4.003-7.43 7.456-16.453 10.168-26.762 5.325-20.244 7.542-44.486 5.824-68.86-.897-12.733-2.778-24.21-5.276-34.175-2.787-11.118-6.298-20.193-10.04-27.312-2.162-4.112-4.386-7.547-6.592-10.39-2.625-3.383-5.196-5.894-7.583-7.736-2.49-1.922-4.75-3.093-6.61-3.777a16.27 16.27 0 0 0-1.9-.572c-4.366-1.026-7.442.259-8.602.588z" style="fill:#00be5a;fill-opacity:1;fill-rule:nonzero;stroke:none;stroke-width:.55391;stroke-linecap:butt;stroke-linejoin:round;stroke-miterlimit:10;stroke-dasharray:none;stroke-opacity:1" transform="rotate(-90 198.435 -114.566)"/><g style="fill:#00be5a;fill-opacity:1" transform="rotate(120 182.872 214.311)"><g style="fill:#00be5a;fill-opacity:1"><path d="M16.14 5.327h.264c.123 0 .247.061.344.126.056.047.142.085.174.1l.011.003-.003-.011a.421.421 0 0 0-.143-.15.732.732 0 0 0-.383-.138h-.265z" style="fill:#00be5a;fill-opacity:1;fill-rule:nonzero;stroke:none;stroke-width:.185206;stroke-linecap:butt;stroke-linejoin:miter;stroke-miterlimit:4;stroke-dasharray:none;stroke-opacity:1" transform="matrix(0 14.645 -19.33674 0 300.322 141.467)"/><path d="M16.14 5.282h.264c.141 0 .282-.07.383-.139a.422.422 0 0 0 .143-.15l.003-.011-.011.003c-.032.015-.118.053-.174.1a.656.656 0 0 1-.344.127h-.265z" style="fill:#00be5a;fill-opacity:1;fill-rule:nonzero;stroke:none;stroke-width:.185206;stroke-linecap:butt;stroke-linejoin:miter;stroke-miterlimit:4;stroke-dasharray:none;stroke-opacity:1" transform="matrix(0 14.645 -19.33674 0 300.322 141.467)"/></g><path d="m207.284 355.53-3.384 20.927c-.309 1.91-1.955 3.487-4.385 3.487h-2.004c-2.43 0-4.076-1.576-4.385-3.487l-3.383-20.927c-.31-1.91 1.956-3.487 4.385-3.487h8.77c2.43 0 4.695 1.576 4.386 3.487z" style="vector-effect:none;fill:#00be5a;fill-opacity:1;fill-rule:evenodd;stroke-width:3.91082;stroke-linejoin:bevel;stop-color:#000"/><circle cx="204.277" cy="366.443" r="2.095" style="fill:#00be5a;fill-opacity:1;stroke:none;stroke-width:1;stroke-linecap:butt;stroke-linejoin:round;stroke-miterlimit:10;stroke-dasharray:none;stroke-opacity:1"/><circle cx="192.593" cy="366.443" r="2.095" style="fill:#00be5a;fill-opacity:1;stroke:none;stroke-width:1;stroke-linecap:butt;stroke-linejoin:round;stroke-miterlimit:10;stroke-dasharray:none;stroke-opacity:1"/></g></g><g style="fill:#00be5a;fill-opacity:1"><path d="M-48.79-278.768c1.375.38 3.778 1.699 6.747 3.783.413.29.847.603 1.3.936a38.482 38.482 0 0 1 4.69 4.048c1.745 1.77 3.713 4.09 5.796 7.198 1.754 2.617 3.583 5.785 5.4 9.609 3.15 6.626 6.228 15.151 8.702 25.733 2.217 9.481 3.907 20.455 4.684 32.69 1.492 23.474-.715 46.657-5.805 65.786-2.589 9.727-5.815 17.997-9.418 24.598-1.89 3.464-3.853 6.412-5.843 8.866-2.105 2.596-4.204 4.597-6.245 6.087-2.052 1.499-4.06 2.505-6.006 3.07-1.84.534-3.663.684-5.482.456-1.764-.22-3.612-.807-5.533-1.847-1.888-1.021-3.847-2.48-5.835-4.444-3.952-3.905-7.83-9.619-11.315-17.157-3.524-7.626-6.502-16.81-8.748-27.263-5.092-23.688-5.203-47.77-3.205-66.675 1.365-12.917 3.647-23.134 5.788-30.554a131.912 131.912 0 0 1 1.699-5.45c3.45-10.268 6.989-16.351 8.387-18.667l-8.466-5.114c-1.656 2.741-5.554 9.491-9.297 20.63a147.045 147.045 0 0 0-1.83 5.85c-2.304 7.938-4.737 18.714-6.21 32.24-2.147 19.719-2.13 44.903 3.184 69.868 2.35 11.038 5.525 20.972 9.42 29.418 3.832 8.308 8.351 15.153 13.43 20.145 2.578 2.533 5.314 4.603 8.19 6.137 2.947 1.572 6.016 2.567 9.155 2.925 3.253.372 6.459.046 9.548-.9 3.23-.988 6.248-2.627 9.038-4.738 2.777-2.101 5.434-4.74 7.951-7.905 2.38-2.993 4.635-6.454 6.74-10.363 4.003-7.43 7.456-16.453 10.168-26.762 5.325-20.244 7.542-44.486 5.824-68.86-.897-12.733-2.778-24.21-5.276-34.175-2.787-11.118-6.298-20.193-10.04-27.312-2.162-4.112-4.386-7.547-6.592-10.39-2.625-3.383-5.196-5.894-7.583-7.736-2.49-1.922-4.75-3.093-6.61-3.777a16.27 16.27 0 0 0-1.9-.572c-4.366-1.026-7.442.259-8.602.588z" style="fill:#00be5a;fill-opacity:1;fill-rule:nonzero;stroke:none;stroke-width:.55391;stroke-linecap:butt;stroke-linejoin:round;stroke-miterlimit:10;stroke-dasharray:none;stroke-opacity:1" transform="rotate(30 -542.135 313.002)"/><g style="fill:#00be5a;fill-opacity:1" transform="rotate(-120 86.549 217.106)"><g style="fill:#00be5a;fill-opacity:1"><path d="M16.14 5.327h.264c.123 0 .247.061.344.126.056.047.142.085.174.1l.011.003-.003-.011a.421.421 0 0 0-.143-.15.732.732 0 0 0-.383-.138h-.265z" style="fill:#00be5a;fill-opacity:1;fill-rule:nonzero;stroke:none;stroke-width:.185206;stroke-linecap:butt;stroke-linejoin:miter;stroke-miterlimit:4;stroke-dasharray:none;stroke-opacity:1" transform="matrix(0 14.645 -19.33674 0 300.322 141.467)"/><path d="M16.14 5.282h.264c.141 0 .282-.07.383-.139a.422.422 0 0 0 .143-.15l.003-.011-.011.003c-.032.015-.118.053-.174.1a.656.656 0 0 1-.344.127h-.265z" style="fill:#00be5a;fill-opacity:1;fill-rule:nonzero;stroke:none;stroke-width:.185206;stroke-linecap:butt;stroke-linejoin:miter;stroke-miterlimit:4;stroke-dasharray:none;stroke-opacity:1" transform="matrix(0 14.645 -19.33674 0 300.322 141.467)"/></g><path d="m207.284 355.53-3.384 20.927c-.309 1.91-1.955 3.487-4.385 3.487h-2.004c-2.43 0-4.076-1.576-4.385-3.487l-3.383-20.927c-.31-1.91 1.956-3.487 4.385-3.487h8.77c2.43 0 4.695 1.576 4.386 3.487z" style="vector-effect:none;fill:#00be5a;fill-opacity:1;fill-rule:evenodd;stroke-width:3.91082;stroke-linejoin:bevel;stop-color:#000"/><circle cx="204.277" cy="366.443" r="2.095" style="fill:#00be5a;fill-opacity:1;stroke:none;stroke-width:1;stroke-linecap:butt;stroke-linejoin:round;stroke-miterlimit:10;stroke-dasharray:none;stroke-opacity:1"/><circle cx="192.593" cy="366.443" r="2.095" style="fill:#00be5a;fill-opacity:1;stroke:none;stroke-width:1;stroke-linecap:butt;stroke-linejoin:round;stroke-miterlimit:10;stroke-dasharray:none;stroke-opacity:1"/></g></g></g></svg>