<svg xmlns="http://www.w3.org/2000/svg" id="svg13" width="150" height="150" class="w-auto h-8" version="1.1"><defs id="defs1"><clipPath id="clip-path" transform="translate(.01 .01)"><path id="rect1" d="M0 0h146.42v125.48H0z" style="fill:none"/></clipPath><style id="style1">.cls-3{fill:#a32422}.cls-4{fill:#dc382c}.cls-5{fill:#fff}</style></defs><g id="g13" transform="translate(2 14)"><g id="g6" clip-path="url(#clip-path)" style="clip-path:url(#clip-path)"><path id="path1" d="M140.66 96.74c-7.8 4.08-48.28 20.73-57 25.3-8.72 4.57-13.39 4.44-20.21 1.18-6.82-3.26-49.75-20.72-57.53-24.44C2 96.94 0 95.37 0 93.9V79.09s56.08-12.17 65.13-15.45c9.05-3.28 12.18-3.36 19.87-.54 7.69 2.82 53.79 11.14 61.4 13.9v14.6c0 1.52-1.75 3-5.74 5.13z" class="cls-3" transform="translate(.01 .01)"/><path id="path2" d="M140.66 82c-7.8 4.06-48.28 20.71-57 25.2-8.72 4.49-13.39 4.45-20.21 1.2S13.7 87.69 5.92 84c-7.78-3.69-7.93-6.27-.3-9.25C13.25 71.77 56.08 55 65.13 51.7c9.05-3.3 12.18-3.37 19.87-.54 7.69 2.83 48 18.84 55.57 21.63 7.57 2.79 7.92 5.08.09 9.13z" class="cls-4" transform="translate(.01 .01)"/><path id="path3" d="M140.66 72.62c-7.8 4.07-48.28 20.71-57 25.2-8.72 4.49-13.35 4.45-20.17 1.18-6.82-3.27-49.79-20.63-57.57-24.34C2 72.8 0 71.24 0 69.76V55s56.08-12.21 65.13-15.49C74.18 36.23 77.31 36.14 85 39c7.69 2.86 53.79 11.1 61.4 13.88v14.6c0 1.52-1.75 3.04-5.74 5.14z" class="cls-3" transform="translate(.01 .01)"/><path id="path4" d="M140.66 57.81c-7.8 4.08-48.28 20.72-57 25.21-8.72 4.49-13.39 4.46-20.21 1.2S13.7 63.57 5.92 59.85c-7.78-3.72-7.92-6.25-.3-9.23 7.62-2.98 50.46-19.79 59.51-23C74.18 24.41 77.31 24.21 85 27c7.69 2.79 48 18.94 55.57 21.65 7.57 2.71 7.92 5.09.09 9.13z" class="cls-4" transform="translate(.01 .01)"/><path id="path5" d="M140.66 47.59c-7.8 4.08-48.28 20.73-57 25.21-8.72 4.48-13.35 4.45-20.17 1.2-6.82-3.25-49.79-20.66-57.57-24.37C2 47.79 0 46.22 0 44.74V29.93s56.08-12.17 65.13-15.44c9.05-3.27 12.18-3.37 19.87-.55 7.69 2.82 53.77 11.14 61.38 13.92v14.6c.02 1.54-1.73 3.04-5.72 5.13z" class="cls-3" transform="translate(.01 .01)"/><path id="path6" d="M140.66 32.8c-7.8 4-48.28 20.75-57 25.2-8.72 4.45-13.39 4.44-20.21 1.2S13.7 38.53 5.92 34.83c-7.78-3.7-7.93-6.27-.3-9.25C13.25 22.6 56.08 5.8 65.13 2.54 74.18-.72 77.31-.82 85 2c7.69 2.82 48 18.85 55.57 21.63 7.57 2.78 7.92 5.09.09 9.14z" class="cls-4" transform="translate(.01 .01)"/></g><path id="polygon6" d="m75.51 11.78 9.66-3.17-2.62 6.26 9.83 3.68-12.67 1.32-2.85 6.84-4.58-7.63-14.65-1.32 10.94-3.94-3.29-6.06z" class="cls-5"/><path id="polygon7" d="M86.36 36.67 76.12 51.71l-23.68-9.83z" class="cls-5"/><path id="path7" d="M43.29 22.35c10 0 18.13 3.15 18.13 7s-8.15 7-18.13 7c-9.98 0-18.14-3.15-18.14-7s8.13-7 18.14-7z" class="cls-5"/><path id="polygon8" d="m107.41 36.28-.02-15.86 20.07 7.93z" style="fill:#741113"/><path id="polygon9" d="m107.39 20.42.02 15.86-2.18.85-20.06-7.93z" style="fill:#ac2724"/></g></svg>