<svg id="Capa_1" data-name="Capa 1" xmlns="http://www.w3.org/2000/svg" viewBox="0 0 1761.09 1370"><defs><style>.cls-1{fill:#564341;}.cls-2{fill:#ffbc9c;}.cls-3{fill:#ffcb87;}.cls-4{fill:#f28773;}.cls-5{fill:#ffe768;}.cls-6{fill:#ffbf4b;}.cls-7{fill:#fff;}.cls-8{fill:#f67751;}.cls-9{fill:#835650;}.cls-10{fill:#f28972;}.cls-11{fill:#845750;}.cls-12{fill:#f59f6c;}.cls-13{fill:#fffffe;}.cls-14{fill:#f4996d;}.cls-15{fill:#fea479;}.cls-16{fill:#ab6360;}.cls-17{fill:#fef1ee;}.cls-18{fill:#f59d6c;}.cls-19{fill:#b65e52;}.cls-20{fill:#f3886b;}.cls-21{fill:#f67852;}.cls-22{fill:#f57b57;}.cls-23{fill:#ad625d;}.cls-24{fill:#f57b56;}.cls-25{fill:#c25d46;}.cls-26{fill:#f3976d;}.cls-27{fill:#c05d47;}.cls-28{fill:#ae605c;}.cls-29{fill:#aa6160;}.cls-30{fill:#c05c46;}.cls-31{fill:#aa625f;}.cls-32{fill:#fffef1;}.cls-33{fill:#fff8d0;}.cls-34{fill:#574341;}</style></defs><title>Rspack</title><path class="cls-1" d="M581,1222.36c-27.55,4.85-55,21.63-83.58,13.22-36.92-14.38-16.44-64.44-1.33-88.79-1.12-2.13-2.51-1.71-3.64-1.44-9.55,2.28-19.23,1.69-28.89,1.37-17.16-.58-32.9-15.28-29.57-33.25,7.36-43.17,47.39-69.18,81.41-90.19-139.57-13.32-286-70.35-363.84-193-24.35-36.37-52-72-63.76-114.92-2.68-7.88-7.24-14.92-17.17-13.48C27.89,708,4.92,669.43.71,631.86c-5.59-104.45,80.12-256.24,159.41-322.4,118-115.55,278.47-150.1,436.18-105.82,134.59,38.26,233.46,153.53,289,277.51,31.74-54.67,75.21-110.25,141.87-119.8,56.78-9.2,121.36-3.31,165.93,36.27,8.34,7.13,18.67,11.4,25.93,19.91,3.1,3.24,3.86,2.93,5.79-1.27,6.87-15.17,4.54-32.68,6-48.92.33-11.65-2.31-15.41-13.22-19.5a157.48,157.48,0,0,0-40.75-9.57c-54.88-6.71-113.95,1.14-165.28-22.71-115.88-78.35,222-272.89,289.77-289.41C1347.48,9.35,1396.7,4.92,1445.53,5c30.6-.14,37.2,25.07,19.77,47.44-31.4,40.47-75.93,68.7-111.21,105.31.82,2.52,2.93,1.68,4.49,1.64,44.32-.25,94.12-.59,131.84,25.8,23.35,18,31.2,42.33,26.51,70.48-11.34,68.19-76.11,106.38-124.46,147.44.94,2.54,3.29,1.94,5.14,2,10.26.34,20.17,2.75,30,5.22,53.28,20.34,86,74.5,97.72,128.26.71,3.32,1.22,5.93,5.59,5.27,13.82-2.09,27.37.58,41,2.51,102.93,15,172.69,104.14,186.58,203.58,4,40.8,10.51,105.07-29.29,130.25-3.15,1.8-4.58,4.54-6.16,7.47-30.68,70.35-72.69,106.58-144.89,130.48-6.63,6.61-13.35,12.93-16.21,22.6-3.75,12.67-8.6,25-13.4,37.37-1.62,4.17-.86,7.18,1.61,10.53,14.37,14,34.67,20.39,47.82,36.29,16.11,18.9,34,40,36.42,65.65.4,14-7.52,28.31-28.39,29.15-2.18.09-5-1.73-6.43.6-1.8,2.81-.46,5.91.91,8.7,8.81,19,16.88,43.68,3.25,62.4-3.29,4.47-7.26,6.76-12.9,6.69-17.57-2.82,2.64,32-3.41,48-4.58,24.23-30.52,25.6-49.17,16.23-27.15-10.18-54.18-20.7-81.54-30.29-59.69-18.39-122.39-29-185-25.92-71.13,5-142.19,8.32-213.54,7-29.69.27-58.06-10.56-87.79-10.13-44.67-.83-88.09,12.34-132.53,15.19-56.18,14.8-113.33,26.59-170,39.79-34.6,5.52-69,19.52-104.26,16.57-30.87-6.49-29.06-44.37-24.23-68.81C544.85,1273.72,563,1248.4,581,1222.36Z" transform="translate(-0.45 -5)"/><path class="cls-2" d="M697.46,283.54c43,30.4,79.31,70.45,108.59,114.13,25.53,54.34,28.73,198.55-1,251.5C755.69,751.73,664.66,828.27,569,886.53c-58,34.69-123.63,51.78-191,52.9-21-.89-42.08,6.91-62.66-.44C224.88,896.52,153.93,811.89,132,714c-1.58-6.18,2.15-8.25,7.18-9.18,15.52-2.86,31.12-4.91,46.94-4.85,34.54-.36,73.92-4.29,93.94,30.24,7.33,11.31,15.39,22.17,21.19,34.4,6.55,13.84,17.4,21.86,32,25.94,21.88,6.11,43.89,4.89,65.85,2,72-10,143.16-25.19,215-36.43,20.47-4,29.82,3,35.74,25-.59,10,2,23,14.14,22.63,24.26,1.9,11-54.82,7.3-68.54-13-41.53-57.15-11-86.19-8.45-61.42,13-122.84,27.07-185.51,32.54-28.73,2.89-64.94,2.88-79.6-27.09-17.82-31.19-18-66.8-21.26-101.46-6.45-44.3-40.11-27.12-68-14.6-45,16.51-86.88,42.42-133.64,53.61-2.87-2.49-2.21-5.53-1-8.39C119,600.08,145.15,536.25,192.66,490c3.76-.7,6.35,1.37,8.59,3.89,7.32,8.19,16.16,14.64,24.56,21.59,23.82,12.3,52.29,16.33,78.8,17.59,88.06,4.71,212.68-96.36,170.75-190-6.14-8.65.9-14.16,9.73-14.25,28-3.39,56-6.2,84.29-6.45C616.06,324.27,650.25,279.38,697.46,283.54Z" transform="translate(-0.45 -5)"/><path class="cls-2" d="M1267.42,1281c-108.24,31.51-224.46,9.76-330.36-21.51-24.95-9.15-40.56-33.75-57-53.49-17-21.74-36.34-45.13-62.88-55.12-31.16-11.07-57.89-32.7-80.07-56.85-27.48-24.28-72.1-48.1-65.66-91,.31-3.49,2.72-4.59,5.32-5.73,33.5-13.71,65.38-30.91,94.39-52.63,3.93-3.11,9.15-6,13.61-1.94,56.7,46.1,201.3,12.14,215-66.39-.22-9.72,9.09-5.6,15.3-4.82,74.25,13.27,145.7-54.27,179.46-114,3.51,27,6.4,53.41,20,77.42,27.5,46.21,94,82,147.74,70,5.52-1,6.88,2.9,8.1,6.92,6.37,24.55,26.26,43.38,49.46,52.18,19.14,7.53,38.55,14.33,59.28,16.48,13.18,2.5,42.91-6,34.7,17.29C1478,1129.08,1387.6,1221.93,1267.42,1281Z" transform="translate(-0.45 -5)"/><path class="cls-3" d="M193.4,490.84c-31.31,40.6-61.53,82-78.22,131.34-5.09,16.14-14,31.23-18.07,47.57A41.48,41.48,0,0,1,80.73,673C73,674.9,64.86,674.93,57,674.16c-22-4-27.68-32.32-28.77-51.31C25.09,578.59,46.12,537,60.94,496.31c66.17-153.37,219-285.8,392.29-283.25,85.57-.4,175.43,16.84,244.23,70.48-4,4.16-9.51,3.28-14.29,3.87-26.92,3.44-49.39,19.16-73.43,30.33-18.46,9.11-39.84,7-59.71,8.38-25.24,1.62-50.45,4.7-75.51,7.4-4.65.37-6.7-3-8.83-6.2-40.55-57.63-122.17-49.41-178.95-24-68.17,25.24-138.28,102.56-95.8,177C192.66,483.51,195.52,486.64,193.4,490.84Z" transform="translate(-0.45 -5)"/><path class="cls-4" d="M1565.34,921.93c-4.55-60.16-20-124-59.09-171.14-2.89-1.9-2.48-3.92-1.65-6.5,12.05-41.46,20.7-84.27,23.61-127.37.42-11.53,8.23-20.62,14.62-29.59,8.86-11.33,20.76-14.77,34.08-11.68,84.87,15.55,138.95,90.8,153.27,172.62,4.18,26.37,13.28,119.14-31.58,109.78-13.15-3.12-22.4-14.07-35.46-17.41-31.46-10.81-60.23,40.18-30.31,47.72,8.61.62,13.58-3.43,15.27-12.39.42-4.68,3.3-10.77,8.92-8.2,9,4.26,16.77,10.62,26,14.37,3.24,3.46,1,6.53-.69,9.65-15.21,26.68-41.77,45.43-69.56,57.22C1587.23,962.23,1566.92,948.2,1565.34,921.93Z" transform="translate(-0.45 -5)"/><path class="cls-5" d="M1064.06,204.89c104.08-92.8,235.36-176.16,379.52-171.82C1437,48.33,1422,58.88,1410.34,70.43c-19,16.9-38.27,33.55-57.4,50.32-9.24,10.27-86.28,61.16-56.85,71.85,46.18,1.63,93.85-7.88,139.48.22l0,0c10.32,17.7-17.87,53-35.16,59.91-63.26,31.44-138.7,39.38-206.88,21-42.11-14.13-96.65-11.26-124.64-51C1065.52,217.45,1059.61,212.44,1064.06,204.89Z" transform="translate(-0.45 -5)"/><path class="cls-4" d="M347.61,938.7c122.47-2.36,211-36.4,305.95-114.49C718.3,769.65,782.18,706.1,811.1,624.81c6.2-18.76,10.53-38.21,10.27-58.37C820.31,522,824.82,477,814.1,433.38c-2.79-11.88-5.37-23.8-8.05-35.71C899.79,514.5,891.84,661.85,836.82,794c-3,7.43-7.9,17.56-17.56,16-18.14-2.62-71.81,42.62-94.23,52.63-94.5,56.29-205.59,76.17-314.2,81.26-19.76.75-39.67,2.82-59.13-2.14A5,5,0,0,1,347.61,938.7Z" transform="translate(-0.45 -5)"/><path class="cls-6" d="M1064.06,204.89c6.94,25.52,31.79,41.78,56.26,47,33.72,8.53,67.39,17.29,101.45,24.47,63.78,10.16,134.93.34,189.71-35.17,14.82-11.4,22.46-30.1,24.06-48.36,62.74,7.41,67.68,59,34,103.47-34.1,41.8-78.47,74.26-123.77,103.13C1319,413.13,1291.5,425,1267,442.69c-4.33,1.67-13,11.11-16.69,9.61-1.43-1.1-.6-2.77-.38-4.25,1.89-12.58,3.85-25.15,5.58-37.76,2.39-17.43,3.08-35,3.15-52.56,0-11,6.53-17.45,17.45-17.34,12.14-1.37,41.1,6.14,40.45-12.91-1.53-12.86-97.71-14.92-113.9-16.77-58.61-4.62-120.85,1.19-176.8-18.92C992.57,275.16,1047.6,218.63,1064.06,204.89Z" transform="translate(-0.45 -5)"/><path class="cls-7" d="M900.91,737c42.21,40.81,107.13,36.86,157.4,14.09,113.82-50.23,143.21-203.34,129.22-315.54,3.33-.53,4,1.84,5.15,3.28,42,66.23,20.73,150.51,4.12,221.75-12.28,52.61-29.49,107.37-73.33,142.31-30.73,26.73-69.1,51.44-111.46,39.88C956.14,833.56,906.46,796.3,900.91,737Z" transform="translate(-0.45 -5)"/><path class="cls-8" d="M347.61,938.7c50.38,6.76,101.33-.71,151.63-6.45C592.46,921,682.71,890.1,760.37,836.76c19.31-9.62,43.22-36.59,65.32-29.45,3.59,3.92.41,7.26-1.28,10.32-27.11,48.9-69,87.09-111.38,122.64-112.71,92.44-276.88,55.86-397.71-1.28Z" transform="translate(-0.45 -5)"/><path class="cls-7" d="M966.4,666.92c-88.14-36.47-59-192.16,30.44-206.23,77.24-6.16,95.59,97.43,64.84,151.77-4,26.84-35.52,51.75-61.16,58C991.76,671.68,971.92,674.45,966.4,666.92Z" transform="translate(-0.45 -5)"/><path class="cls-7" d="M1264.29,700.65c-55.58-52-27.82-164.49,47.12-181.78C1380,509,1400,597.16,1378.82,648.38c.44,24.08-30.11,53.59-52,62.58C1308.78,718.91,1275.32,719.89,1264.29,700.65Z" transform="translate(-0.45 -5)"/><path class="cls-4" d="M1004.56,869.78c-11.07,74.59-96.81,97.82-161.95,96.55-21.05-1-43.34-6-59.29-20.35-2.14-2.23-4.35-4.32-7.74-4.29C833,900,857.87,854.43,888.15,792.28,919.66,839.42,949.25,856.83,1004.56,869.78Z" transform="translate(-0.45 -5)"/><path class="cls-4" d="M1510.3,984.58c-53.93,1.21-128.62-13.8-143.72-73.93-.57-2.59-1.5-4.88-4.34-5.73,62.15-16.42,103.81-66.38,128.64-123.4,27,43.17,51.86,153.91,44.12,205C1527.62,978.64,1519.56,988.78,1510.3,984.58Z" transform="translate(-0.45 -5)"/><path class="cls-9" d="M1264.29,700.65c46.32,33.53,97.31-7.13,114.53-52.27,34.57,9.54,59.16,51.77,37.78,84.13a145.15,145.15,0,0,1-54.06,44.66,151.75,151.75,0,0,1-69.75,13.22c-23.8-.85-57-15.09-49-44.18,3-12.72,7.17-24.93,15.18-35.55C1261.22,707.66,1263.69,704.61,1264.29,700.65Z" transform="translate(-0.45 -5)"/><path class="cls-10" d="M636.4,1206.23c24.43-20.77,51.5-36.11,83.86-40.27,40.58-5.51,131.89,8.15,98.25,66.88-16.89,29.88-45.21,48.07-74.19,64.43-3.87,2.16-7.71,5.27-12.73,3.18-1.34-11.27-10.22-17.25-17.27-24.52A740.35,740.35,0,0,0,649,1216.41C644.84,1213,638.3,1212.43,636.4,1206.23Z" transform="translate(-0.45 -5)"/><path class="cls-11" d="M966.4,666.92c40.9,10,76.16-17.94,94.67-52.27,2,7.79,12.36,3.68,18.25,4.69,15.71-.64,61.35,12.11,53.74,33.23-26.41,57.22-89,101-153.11,94.78-26-6-28.36-48.18-17.42-68.24C964.39,675.23,966.87,671.54,966.4,666.92Z" transform="translate(-0.45 -5)"/><path class="cls-12" d="M636.4,1206.23c6.25,1.61,11.35,5,16.35,9.11,27.2,22,52.33,46.26,76.8,71.14,22.89,21-55.92,40.12-69.45,43.53-11.55,2.19-96.19,28.2-94.79,12C559.84,1288.05,597.79,1239.72,636.4,1206.23Z" transform="translate(-0.45 -5)"/><path class="cls-13" d="M1444.55,727.69c37.18-61.12,49.45-132.3,47.9-203,21.81,70.4,1.2,172.74-24.93,240.63-23.16,57.85-76.08,124.27-145.25,112.58-28.93-8.25-57.5-21.88-76.27-46.12,4.43-18.41,37.47,30,100.84,5,4.36-1.54,8.22-3.73,9.67-8.84.92-3.22,3.55-5.42,6.28-7.43Q1383,805.65,1402,789.22a52.68,52.68,0,0,0,10-11.41C1422.27,760.78,1437.11,746.31,1444.55,727.69Z" transform="translate(-0.45 -5)"/><path class="cls-14" d="M505,1206.31c-1.14-28.7,19-52.58,36.73-73,20-29.34,59-38.33,92.69-41.86,9.86.2,57.85-3.61,51.25,13.3C667.16,1154.41,555.68,1209.8,505,1206.31Z" transform="translate(-0.45 -5)"/><path class="cls-10" d="M649.88,781.11c-7.19-10.67-14-26.62-29.6-22.4-86.85,12-172.53,36.84-260.35,39.49-67.91-2.73-55.36-38.76-93.49-78.8-22.38-22.86-58.53-14.64-87.45-15.88-7.74,1-48.8,1.75-47,10.49-2.51-7.12-1.29-14.48-1.48-21.75-.07-2.8,1.74-3.86,4-4.8,37.9-14.41,75.12-35,115.59-40.5,20.45-2.31,21.5,15.17,24.22,30.44,4,20.65,8,41.66,17.58,60.58,21.14,51,77.42,54.83,125.46,47.33,70.42-7.72,138.53-27.7,208.24-39.22,15.88-2.4,17.12-3.78,21.52,15C648.71,767.66,650.65,774.23,649.88,781.11Z" transform="translate(-0.45 -5)"/><path class="cls-15" d="M1510.3,984.58c6.48-2.59,13.55-3.27,19.94-6.21,5.4-2.55,4.38,4.85,4.76,8.15-8.44,61.94-32,124.22-74.6,170.89-51.69,57.35-116.7,106.08-193,123.55,52.7-37.83,113.14-66.8,154.74-118.46,41.53-48,70.86-105.48,88.58-166.18C1511.77,992.33,1512.84,988.4,1510.3,984.58Z" transform="translate(-0.45 -5)"/><path class="cls-16" d="M644,1334.49c55.27-19.1,113.1-39,155.36-81.41,18.66-22.13,31-38.28,15.62-66.55,34.79,19.67,59.47,71,17.63,100.81-33.32,17.1-71.88,19.59-107.74,28.9C697.87,1321.92,671.34,1330.34,644,1334.49Z" transform="translate(-0.45 -5)"/><path class="cls-17" d="M1444.55,727.69c-2.66,18.49-17.42,31.76-26.18,47.52a64.64,64.64,0,0,1-13.72,16.25c-12.86,11.14-26,21.9-39.83,31.85-3,2.16-5.72,4.2-5.87,8.31-.1,2.94-2.22,4.37-4.58,5.57-32,15.94-71.34,12.83-101.22-6.42-2.67-1.39-5.22-2.42-7.15,1-13.84-15.31-16.39-34.85-23.31-54.13,38,37,86.56,39.16,135,22.17C1394.81,787.43,1422.53,759.1,1444.55,727.69Z" transform="translate(-0.45 -5)"/><path class="cls-18" d="M1501.28,1248.94c36.75,8.36,60.12,40.1,64.6,76.38,1.35,9.56-3.56,13.82-13,12-26.27-9.48-52.59-18.93-79.29-27.31-7-3.91-18.6-4.38-22.8-11.53-2.06-9.8,30.58-34.56,38-44C1492.21,1251.07,1496,1248.14,1501.28,1248.94Z" transform="translate(-0.45 -5)"/><path class="cls-19" d="M666.92,970.75C816.19,866.07,859,782.14,877.81,602.58c5.33,64.63-8.93,129.78-29.21,190.85C835.13,834.64,808,868.2,780.18,900.69,748.3,931.5,708.31,955.17,666.92,970.75Z" transform="translate(-0.45 -5)"/><path class="cls-20" d="M462.36,1117.52c8.85-55.72,107.65-95.52,158.5-80.58,8.22,21.19-115.64,67.75-135.7,77.59C478,1117.57,470.31,1119.23,462.36,1117.52Z" transform="translate(-0.45 -5)"/><path class="cls-16" d="M505,1206.31c60.36-10.59,119.36-36.18,163.13-79.83,5.55-5.89,21.23-24.9,12.52-31.76,18.91,4.43,35.57,12.17,44.88,30.65,1.7,4.13,7.71,12.45-.64,12.11-37.8,3.18-70.27,19-99.6,42.12a28,28,0,0,1-14.34,6.08c-18.47,2.43-36.05,8.54-53.69,14.25C548.06,1202.26,508.59,1217.64,505,1206.31Z" transform="translate(-0.45 -5)"/><path class="cls-21" d="M1518,1228.63c-12.79-5.19-25.3-11.59-30.63-25.22-2.41-4.94-3-9.43-.19-14.22,5.82-7.31,11.81-14.5,17.38-22,10-12.65,43,27.08,48.64,35.93C1552.77,1209.58,1524.65,1223.85,1518,1228.63Z" transform="translate(-0.45 -5)"/><path class="cls-22" d="M1501.28,1248.94c-16.19,11.28-28.49,27.29-43,40.61-5,4.33-6.81,14.27-14.51,7.28-9.82-6.31-36.12-36.38-22.08-46.21,10.36-5.15,21.66-5.43,32.74-5.32C1470,1246.17,1486.14,1245.65,1501.28,1248.94Z" transform="translate(-0.45 -5)"/><path class="cls-23" d="M462.36,1117.52c6.11.81,11.51-1.77,16.8-4,18.18-7.78,36.09-16.18,54.34-23.77,25.87-12,71.53-29.5,87.36-52.78A61.21,61.21,0,0,1,650,1051c7.12,6.31,9.32,14.82-3.49,12.92-40-.8-79.09,11.75-110.39,36.82-2,1.54-4,3.49-6.33,4.13C507.77,1109.93,485.34,1125.18,462.36,1117.52Z" transform="translate(-0.45 -5)"/><path class="cls-24" d="M1536.24,1116.09c29.31,12.43,50.62,33.48,65.71,61.19,2.13,4.28,9.17,17.09-1.41,13.4-32.9-9.64-38.68-23.39-62.86-43.86-7.53-7.58-11.25-16.19-7.2-26.88C1531.48,1117.3,1532.25,1114.27,1536.24,1116.09Z" transform="translate(-0.45 -5)"/><path class="cls-25" d="M1565.34,921.93c7.41,24.84,22.55,35.3,47.29,24.19,5.31,3.28,22.61,8.92,16.86,17.11-18.06,11.91-37.51,21.65-58.63,26.75-5.9,1.12-7.25.23-6.58-5.53C1566.16,963.65,1565.39,942.77,1565.34,921.93Z" transform="translate(-0.45 -5)"/><path class="cls-26" d="M1518,1228.63c3.18-9.7,26.16-19.5,35.2-25.5,11.34,15.76,21.09,32.4,27.49,50.84,1.1,3.65,6.63,22.09-2,16.86C1558.41,1256.79,1539.09,1241.37,1518,1228.63Z" transform="translate(-0.45 -5)"/><path class="cls-27" d="M1421.72,1250.62c-1.81,3.07-1.76,6.25-.63,9.53,7.29,25.87,30.35,38.44,52.47,49.84-22.52-4.46-44.13-13.14-66.8-17.39C1365.07,1288.83,1402.24,1257,1421.72,1250.62Z" transform="translate(-0.45 -5)"/><path class="cls-28" d="M1629.49,963.23c-.71-9.07-15.79-7.84-16.86-17.11,27.69-14.49,59.11-33.58,70.42-64,5.92,2.61,6,2.64,3.51,7.84-4.89,10.29-9.89,20.54-14.8,30.84C1662.45,938.92,1647,953.56,1629.49,963.23Z" transform="translate(-0.45 -5)"/><path class="cls-29" d="M274.38,677.39c-6.12-14.2-6.14-30.29-26.87-26.62-21.75,2.75-41.7,12.36-63.28,16,26.42-13.89,55-23.31,82.36-35.21C275.48,625.08,272.81,671.74,274.38,677.39Z" transform="translate(-0.45 -5)"/><path class="cls-30" d="M1487.16,1189.19c.35,12.21,8.86,22.57,15.48,32.28C1463.6,1202.73,1457.77,1213.59,1487.16,1189.19Z" transform="translate(-0.45 -5)"/><path class="cls-25" d="M1536.24,1116.09c-10.88,4.33-.41,22.76,1.44,30.73-4.2-3.6-19.49-5.9-15.37-13.11C1525.88,1129.64,1529.18,1109.74,1536.24,1116.09Z" transform="translate(-0.45 -5)"/><path class="cls-31" d="M648.41,766.19c-8.13-12.69-3.13-21.58-22.75-20.1,6-.62,16.82-9.1,19.92-.57C647.49,752.27,649.26,759.05,648.41,766.19Z" transform="translate(-0.45 -5)"/><path class="cls-6" d="M1435.57,192.82c-2.18.31-4.3.32-6.12-1.22C1431.61,191.43,1433.72,191.48,1435.57,192.82Z" transform="translate(-0.45 -5)"/><path class="cls-2" d="M75.91,673.76a8.12,8.12,0,0,1,4.82-.79A6.29,6.29,0,0,1,75.91,673.76Z" transform="translate(-0.45 -5)"/><path class="cls-32" d="M485.2,397.69c-11.65,60.86-63,106.08-118.88,127.83-41.23,16.3-89.25,13.53-130.14-2.68-25-13-36.59-41.28-31.68-68.52,1.51-10.63,10.26-16.75,17.56-23.31,57.17-51.92,126.76-89.64,202-107.42C469.11,313.78,490.28,359.14,485.2,397.69Z" transform="translate(-0.45 -5)"/><path class="cls-33" d="M485.2,397.69c.39-43.06-21.88-84.71-70.57-68.25-63,17-122,47.09-172.26,88.8-12.58,12.31-33.87,22.56-35.26,41.82-1.63,22.18,6.58,43.62,24.28,57.19,1.85,1.69,4.4,2.69,4.79,5.59-35.54-13.19-60.32-49.28-61.43-87.07-1-75.46,72.05-125.5,137.5-145.34C363.91,273,432.45,275,466.92,323,483.71,343.63,490.87,371.56,485.2,397.69Z" transform="translate(-0.45 -5)"/><path class="cls-7" d="M610.7,492.17c2.58,92.33-184,128.37-158.33,28.47,19.57-49.67,77.84-93.17,131.75-69.71C601.53,460,610,474.57,610.7,492.17Z" transform="translate(-0.45 -5)"/><path class="cls-34" d="M1232.34,918c-30.75,15-104.08,2.25-122.88-27.82-9.6-14.77,11.35-33.71,15.09-24C1139.68,903.06,1197,912.3,1232.34,918Z" transform="translate(-0.45 -5)"/><path class="cls-2" d="M174.74,430c0,1.92,0,3.83,0,5.75A4.38,4.38,0,0,1,174.74,430Z" transform="translate(-0.45 -5)"/></svg>