<?xml version="1.0" encoding="UTF-8" standalone="no"?>
<svg
   viewBox="12.100000000000001 8.4 262.79999999999995 272.2"
   width="2376"
   height="2500"
   version="1.1"
   id="svg45"
   sodipodi:docname="rxjs.svg"
   inkscape:version="1.2 (dc2aedaf03, 2022-05-15)"
   xmlns:inkscape="http://www.inkscape.org/namespaces/inkscape"
   xmlns:sodipodi="http://sodipodi.sourceforge.net/DTD/sodipodi-0.dtd"
   xmlns="http://www.w3.org/2000/svg"
   xmlns:svg="http://www.w3.org/2000/svg">
  <defs
     id="defs49" />
  <sodipodi:namedview
     id="namedview47"
     pagecolor="#ffffff"
     bordercolor="#666666"
     borderopacity="1.0"
     inkscape:showpageshadow="2"
     inkscape:pageopacity="0.0"
     inkscape:pagecheckerboard="0"
     inkscape:deskcolor="#d1d1d1"
     showgrid="false"
     inkscape:zoom="0.0944"
     inkscape:cx="296.61017"
     inkscape:cy="1250"
     inkscape:window-width="1920"
     inkscape:window-height="1017"
     inkscape:window-x="-8"
     inkscape:window-y="-8"
     inkscape:window-maximized="1"
     inkscape:current-layer="svg45" />
  <linearGradient
     id="a"
     gradientUnits="userSpaceOnUse"
     x1="53.496"
     x2="177.932"
     y1="247.701"
     y2="115.323"
     gradientTransform="matrix(0.92080475,0,0,0.92080475,13.069649,13.04082)">
    <stop
       offset="0"
       stop-color="#e01d84"
       id="stop2" />
    <stop
       offset=".401"
       stop-color="#df1d85"
       id="stop4" />
    <stop
       offset=".77"
       stop-color="#932c87"
       id="stop6" />
    <stop
       offset="1"
       stop-color="#5d2f88"
       id="stop8" />
  </linearGradient>
  <radialGradient
     id="b"
     cx="190.456"
     cy="80.2"
     gradientTransform="matrix(0.92080475,0.00220073,-0.00184161,0.76997694,13.216978,24.721229)"
     gradientUnits="userSpaceOnUse"
     r="121.582">
    <stop
       offset="0"
       stop-color="#e01d84"
       id="stop11" />
    <stop
       offset=".139"
       stop-color="#de1e85"
       id="stop13" />
    <stop
       offset=".285"
       stop-color="#d62085"
       id="stop15" />
    <stop
       offset=".434"
       stop-color="#c92386"
       id="stop17" />
    <stop
       offset=".586"
       stop-color="#b72786"
       id="stop19" />
    <stop
       offset=".739"
       stop-color="#9d2b87"
       id="stop21" />
    <stop
       offset=".891"
       stop-color="#7c2e88"
       id="stop23" />
    <stop
       offset="1"
       stop-color="#5d2f88"
       id="stop25" />
  </radialGradient>
  <linearGradient
     id="c"
     gradientUnits="userSpaceOnUse"
     x1="83.212"
     x2="137.371"
     y1="62.336"
     y2="62.336"
     gradientTransform="matrix(0.92080475,0,0,0.92080475,13.069649,13.04082)">
    <stop
       offset="0"
       stop-color="#e01d84"
       id="stop28" />
    <stop
       offset=".238"
       stop-color="#da1e85"
       id="stop30" />
    <stop
       offset=".658"
       stop-color="#c72085"
       id="stop32" />
    <stop
       offset=".999"
       stop-color="#b52284"
       id="stop34" />
  </linearGradient>
  <path
     d="m 40.32547,174.45789 c -4.788184,-14.91704 -6.169392,-30.66279 -3.406977,-46.86895 1.197045,-6.72188 3.038655,-13.16752 5.064426,-19.70523 0,0 12.707105,-41.712455 55.708689,-60.773114 0,0 14.824952,-7.82684 37.108432,-8.379322 0,0 -3.03866,-2.946576 -4.97235,-4.235703 -10.49717,-6.998116 -26.15085,-9.300127 -35.635142,0.552483 -2.854495,2.946576 -5.248587,6.169392 -7.918921,9.115967 -3.038655,3.314897 -6.721875,6.077312 -10.957576,7.64268 -3.68322,1.381206 -7.366438,1.104966 -11.141738,1.749528 -3.86738,0.644564 -7.82684,2.025771 -10.957576,4.511944 -3.406978,2.762414 -4.788185,6.445634 -5.156507,10.681335 -0.368322,3.314898 -0.276241,6.721875 -0.460402,10.036772 -0.460403,9.76053 -3.591139,12.522945 -10.589255,17.955693 -2.946575,2.209932 -5.432748,5.156507 -7.274357,8.287247 -5.52483,9.76052 3.314896,19.88938 3.775299,29.74199 0.09208,2.02577 -0.09208,4.05154 -0.828725,5.98523 -0.736643,2.11785 -2.209931,3.49906 -3.406977,5.24858 -1.657448,2.30202 -2.762414,5.06443 -2.302012,7.91893 0.460403,2.85449 1.93369,5.52483 3.314897,8.011 2.670334,4.41987 5.985232,8.37932 9.484289,12.15462 0.184161,0 0.368322,0.18416 0.552483,0.36832"
     fill="#e32286"
     id="path37"
     style="stroke-width:0.920805" />
  <path
     d="m 216.01502,209.81679 c 21.17851,-9.20804 30.20239,-25.13796 30.20239,-25.13796 19.7973,-26.97959 13.07543,-55.43245 13.07543,-55.43245 -12.61503,27.43998 -24.12508,34.99058 -24.12508,34.99058 31.03111,-47.23728 0.18416,-75.78223 0.18416,-75.78223 12.61502,26.8875 -4.14362,59.66815 -4.14362,59.66815 -14.08832,29.64991 -34.06978,40.23917 -34.06978,40.23917 22.28347,4.14362 38.6738,-10.8655 38.6738,-10.8655 -31.95193,34.53018 -66.57418,32.87273 -66.57418,32.87273 14.54872,16.29825 36.37178,14.91704 36.37178,14.91704 -28.54494,6.72187 -55.34036,-2.76242 -77.34759,-21.08643 -4.14362,-3.40698 -8.10309,-7.0902 -11.78631,-11.04966 0,0 -3.3149,-3.49906 -3.95946,-4.41986 l -0.0921,-0.0921 c -0.46041,17.03489 17.31112,32.87273 17.31112,32.87273 -22.28348,-9.20804 -32.504407,-29.18951 -32.504407,-29.18951 0,0 -15.009117,-25.59837 -4.143621,-54.78788 10.865498,-29.18951 43.738228,-35.45098 43.738228,-35.45098 27.16374,13.1675 50.18385,17.31113 50.18385,17.31113 48.52642,8.10308 45.764,-15.65368 45.764,-15.65368 C 233.23407,83.298223 202.3871,61.567231 202.3871,61.567231 147.41506,20.77558 97.691608,47.110596 97.691608,47.110596 54.690024,66.171255 41.982919,107.88371 41.982919,107.88371 c -2.025771,6.53771 -3.867381,12.98335 -5.064426,19.70523 -4.696105,27.34789 2.394092,53.22251 17.771531,76.24262 23.940924,35.72723 62.798886,48.06602 62.798886,48.06602 57.5503,19.52106 96.86866,-9.20805 96.86866,-9.20805 36.18763,-24.86174 43.46198,-53.59084 43.46198,-53.59084 -29.18951,22.83596 -41.80453,20.7181 -41.80453,20.7181 z M 171.07975,75.471383 c 2.76241,0 4.97234,2.209931 4.97234,4.972345 0,2.762415 -2.20993,4.972347 -4.97234,4.972347 -2.76242,0 -4.97235,-2.209932 -4.97235,-4.972347 0,-2.762414 2.20993,-4.972345 4.97235,-4.972345 z"
     fill="url(#a)"
     id="path39"
     style="fill:url(#a);stroke-width:0.920805" />
  <path
     d="M 232.68158,103.64801 C 233.14198,83.206143 202.29503,61.47515 202.29503,61.47515 147.32299,20.77558 97.599523,47.110596 97.599523,47.110596 54.597944,66.171255 41.890838,107.88371 41.890838,107.88371 c -2.486173,7.0902 -4.696105,17.95569 -4.696105,17.95569 -2.670333,13.62791 -1.473286,26.24294 -1.473286,26.24294 1.104965,12.06254 3.775299,20.16562 3.775299,20.16562 2.762414,8.65556 4.051541,11.3259 4.051541,11.3259 -0.09208,-0.27624 -0.552483,-2.30201 -0.552483,-2.30201 0,0 -3.86738,-18.60025 -0.276241,-36.46386 0,0 3.130735,-18.60026 15.837841,-32.96482 0,0 20.626026,-29.373671 59.023586,-17.863612 0,0 8.28724,2.946576 11.14174,4.419861 2.85449,1.38121 7.82683,3.499061 7.82683,3.499061 27.16375,13.16751 50.18387,17.31113 50.18387,17.31113 48.71056,8.19516 45.94815,-15.5616 45.94815,-15.5616 z M 171.07975,85.508155 c -2.76242,0 -4.97235,-2.209932 -4.97235,-4.972346 0,-2.762414 2.20993,-4.972346 4.97235,-4.972346 2.76241,0 4.97234,2.209932 4.97234,4.972346 0,2.762414 -2.20993,4.972346 -4.97234,4.972346 z"
     fill="url(#b)"
     id="path41"
     style="fill:url(#b);stroke-width:0.920805" />
  <path
     d="m 139.58822,66.631657 -31.39944,-9.76053 c -0.18416,0 -1.10496,-0.460403 -2.76242,0 0,0 -18.508169,4.696104 -15.285352,14.824957 0,0 1.933689,6.353552 7.182277,12.522944 l 34.530175,-1.657449 z"
     fill="url(#c)"
     id="path43"
     style="fill:url(#c);stroke-width:0.920805" />
</svg>
