<?xml version="1.0" encoding="UTF-8" standalone="no"?>
<svg
   height="2500"
   viewBox="-0.7 0.8 100.50463 100.5"
   width="2500"
   version="1.1"
   id="svg16"
   sodipodi:docname="scratch.svg"
   inkscape:version="1.3 (0e150ed6c4, 2023-07-21)"
   xmlns:inkscape="http://www.inkscape.org/namespaces/inkscape"
   xmlns:sodipodi="http://sodipodi.sourceforge.net/DTD/sodipodi-0.dtd"
   xmlns="http://www.w3.org/2000/svg"
   xmlns:svg="http://www.w3.org/2000/svg">
  <defs
     id="defs16" />
  <sodipodi:namedview
     id="namedview16"
     pagecolor="#ffffff"
     bordercolor="#666666"
     borderopacity="1.0"
     inkscape:showpageshadow="2"
     inkscape:pageopacity="0.0"
     inkscape:pagecheckerboard="0"
     inkscape:deskcolor="#d1d1d1"
     inkscape:zoom="0.0779"
     inkscape:cx="911.4249"
     inkscape:cy="1296.534"
     inkscape:window-width="1474"
     inkscape:window-height="844"
     inkscape:window-x="298"
     inkscape:window-y="115"
     inkscape:window-maximized="0"
     inkscape:current-layer="svg16" />
  <g
     fill-rule="evenodd"
     id="g16"
     transform="matrix(0.86072826,0,0,0.86072826,11.752242,7.7824622)">
    <path
       d="M 21.9,73.8 C 19.5,73.3 16.6,72.5 14.2,70.3 8.7,65.4 7,57.3 3.2,59.4 c -3.9,2.1 -3.8,15.2 8.4,19.2 4.2,1.4 8,1.4 11.1,1.3 0.8,0 7.7,-0.7 10.1,-4.1 2.4,-3.4 0.7,-4.3 -0.1,-4.7 -0.9,-0.5 -7.4,3.3 -10.8,2.7 z"
       fill="#ffab19"
       stroke="#001026"
       stroke-linecap="round"
       stroke-linejoin="round"
       stroke-width="1.2"
       id="path1" />
    <path
       d="m 3.8,59.6 c -2,0.6 -3,4.8 -2,8.3 1,3.5 2.6,5.3 3.9,6.6 -0.2,-0.7 -0.6,-2.9 1.1,-4.2 2.1,-1.7 5.8,-0.8 5.8,-0.8 0,0 -3.1,-3.8 -4.7,-6.5 C 6.3,60.7 5.8,59.2 3.8,59.6 Z"
       fill="#ffffff"
       id="path2" />
    <path
       d="m 37.7,81.5 c -1.8,1.2 -8,5.6 -15.9,8.1 l -0.4,0.1 c -0.4,0.1 -0.6,0.6 -0.4,1 1.7,2.4 4.8,7.2 -0.7,8.9 -5.3,1.7 -15.2,-12.4 -11,-16.1 1.9,-1.4 3.6,-0.7 4.5,-0.3 0.5,0.2 1,0.2 1.5,0.1 1.2,-0.4 3.4,-1.2 5.1,-2.1 4.3,-2.2 5.3,-3.1 7.3,-4.6 2,-1.5 6.6,-5.2 10.3,-2 3.2,2.7 1.4,5.7 -0.3,6.9 z M 53.6,60.7 c 0.5,0.4 6.6,7.6 8.6,5.8 2.4,-2.1 5.7,-6.2 9.3,-2.9 3.6,3.3 -3.2,8.9 -6.1,10.4 -6.9,3.1 -12.5,-2.8 -13.7,-4.4 -1.2,-1.6 -3.3,-4.3 -3.3,-6.9 0.1,-2.8 3.5,-3.5 5.2,-2 z"
       fill="#ffab19"
       stroke="#001026"
       stroke-linecap="round"
       stroke-linejoin="round"
       stroke-width="1.2"
       id="path3" />
    <path
       d="m 46.2,76.7 c 1.2,-0.9 2.4,-2.4 4,-4.7 1.3,-1.9 2.7,-5.6 2.7,-5.6 0.9,-2.5 1.5,-7.3 -1.8,-7.2 -2.2,0.1 -4.2,-0.2 -7.6,-0.7 -6,-1.2 -7.1,-2 -9.6,2.1 -2.7,4.8 -9.6,8.3 -1.1,16.6 0,0 4.9,3.8 10.8,9.6 4,3.9 10.3,9.5 12.5,11.4 0.5,0.4 1.1,0.6 1.7,0.7 9.7,0.9 16.9,-0.1 16.9,-4.4 0,-7.2 -14.3,-4.7 -14.3,-4.7 0,0 -4.6,-3.9 -6.7,-5.8 z"
       fill="#ffab19"
       stroke="#001026"
       stroke-linecap="round"
       stroke-linejoin="round"
       stroke-width="1.2"
       id="path4" />
    <path
       d="m 50.6,70 c 0,0 1.9,-2.5 -2.4,-5.2 -4.5,-2.9 -6.2,0.3 -8,2.7 -2,3.1 0,4.6 2,6.4 1.6,1.5 3.1,2.7 3.1,2.7 0,0 3.1,-2.1 5.3,-6.6 z"
       fill="#ffffff"
       id="path5" />
    <path
       d="m 30.2,68.4 c 2.2,2.8 5.6,6.3 1.3,9.2 -5.9,3.3 -10.8,-6.7 -11.8,-10.2 -0.9,-3.1 1.7,-5.1 3.9,-6.8 4.3,-3.1 7.9,-5.9 11.9,-4.4 5,1.8 1.4,5.8 -1.1,7.6 -1.5,1.1 -3,2.3 -4.1,3 -0.3,0.5 -0.4,1.1 -0.1,1.6 z"
       fill="#ffab19"
       stroke="#001026"
       stroke-linecap="round"
       stroke-linejoin="round"
       stroke-width="1.2"
       id="path6" />
    <path
       d="M 53.1,9 C 50.8,8.6 48.4,8.4 45.6,8.6 40.9,8.8 36.4,10.5 36.4,10.5 L 24.3,2.6 C 23.9,2.4 23.4,2.7 23.5,3.1 L 25.6,21 C 26.2,20.2 15,33.8 22.1,45.2 29.2,56.6 44.3,61.7 63.1,58 81.9,54.3 86.3,43.5 85.1,37.8 83.9,32.1 76.8,30 76.8,30 c 0,0 -0.1,-4.5 -3.3,-10 -1.9,-3.3 -8.3,-8 -8.3,-8 L 62.6,1.3 C 62.5,0.9 62,0.8 61.7,1 Z"
       fill="#ffab19"
       stroke="#001026"
       stroke-width="1.2"
       id="path7" />
    <path
       d="m 76.5,30.4 c 0,0 6.9,1.8 8.1,7.5 1.2,5.7 -3.6,16 -22.2,19.6 -24.2,5 -35.7,-9.4 -29,-20 6.7,-10.7 18.2,-1.6 26.6,-2.2 7.2,-0.5 8,-6.8 16.5,-4.9 z"
       fill="#ffffff"
       id="path8" />
    <g
       stroke="#001026"
       stroke-linecap="round"
       stroke-linejoin="round"
       stroke-width="1.2"
       id="g13">
      <path
         d="m 45,41.1 c 0,-0.4 0.4,-0.7 0.8,-0.6 1.9,0.7 7.3,2.3 13.3,2.7 5.4,0.3 8.6,0 10.1,-0.3 0.5,-0.1 0.9,0.4 0.7,0.9 C 69,46.5 65.2,54 54.7,53.4 45.6,52.4 44.7,46 45,41.1 Z"
         fill="#ffffff"
         id="path9" />
      <path
         d="m 83,35.4 c 0,0 7.2,-0.1 11.9,-3.9 m -11.5,9.8 c 0,0 3.9,1.9 10.2,1.4"
         fill="none"
         id="path10" />
      <path
         d="m 59.6,32.7 c 2.1,0 4.3,0.2 4.4,0.9 0.1,1.4 -1.4,4.2 -3,4.3 -1.8,0.2 -6,-2.3 -6,-3.9 -0.1,-1.2 2.6,-1.3 4.6,-1.3 z"
         fill="#001026"
         id="path11" />
      <path
         d="m 14.6,31.2 c 0,0 8.6,2.8 12.1,5.9 m -11.4,4.1 c 0,0 7.4,1.1 11.7,-0.6"
         fill="none"
         id="path12" />
      <path
         d="m 71.4,21 c 2.9,4.5 3,9.6 0.2,11.4 -2.8,1.8 -7.4,-0.3 -10.4,-4.8 -2.9,-4.5 -3,-9.6 -0.2,-11.4 2.8,-1.9 7.5,0.3 10.4,4.8 z"
         fill="#ffffff"
         id="path13" />
    </g>
    <path
       d="m 71,26.7 c 0,1.1 -0.8,2 -1.8,2 -1,0 -1.8,-0.9 -1.8,-2 0,-1.1 0.8,-2 1.8,-2 1,0 1.8,0.9 1.8,2"
       fill="#001026"
       id="path14" />
    <path
       d="m 46.6,23.8 c 3,4.4 2.8,9.8 0.1,11.7 C 43.4,37.4 39,36 36,31.6 32.9,27.2 32.7,21.5 35.8,19.3 c 3.1,-2.3 7.8,0.1 10.8,4.5 z"
       fill="#ffffff"
       stroke="#001026"
       stroke-linecap="round"
       stroke-linejoin="round"
       stroke-width="1.2"
       id="path15" />
    <path
       d="m 46,29.6 c 0,1.1 -0.8,2 -1.8,2 -1,0 -1.8,-0.9 -1.8,-2 0,-1.1 0.8,-2 1.8,-2 1,0.1 1.8,0.9 1.8,2"
       fill="#001026"
       id="path16" />
  </g>
</svg>
