<svg xmlns="http://www.w3.org/2000/svg" id="Layer_1" width="33" height="33" data-name="Layer 1" version="1.1"><defs id="defs1"><style id="style1">.cls-1{fill:#43b02a}</style></defs><path id="path9" d="M21.772 20.877a2.527 2.417 0 0 0-2.589 2.145.081.078 0 0 0 .082.097h5.024a.081.078 0 0 0 .081-.087 2.446 2.34 0 0 0-2.598-2.155z" class="cls-1" style="stroke-width:.992544"/><path id="path10" d="M32.54 4.766 21.884 16.209a.325.31 0 0 1-.477 0l-5.44-5.368a.325.31 0 0 1 0-.388l1.796-2.203a.325.31 0 0 1 .528 0l3.045 3.222a.325.31 0 0 0 .498 0L30.318.35A.233.223 0 0 0 30.135 0H.254A.254.243 0 0 0 0 .243v32.514A.254.243 0 0 0 .254 33h32.48a.254.243 0 0 0 .253-.243V4.911a.236.226 0 0 0-.446-.145ZM9.197 29.38a8.201 7.842 0 0 1-5.826-1.941.315.3 0 0 1 0-.398l1.269-1.699a.315.3 0 0 1 .436-.107 6.242 5.97 0 0 0 4.263 1.592c1.665 0 2.477-.738 2.477-1.514 0-2.407-8.202-.757-8.202-5.882 0-2.261 2.03-4.144 5.4-4.144a7.998 7.648 0 0 1 5.329 1.708.315.3 0 0 1 0 .417l-1.249 1.66a.315.3 0 0 1-.456.049 6.171 5.901 0 0 0-3.898-1.282c-1.3 0-2.03.554-2.03 1.369 0 2.164 8.181.718 8.181 5.823 0 2.466-1.857 4.349-5.704 4.349zm17.884-4.727a.274.262 0 0 1-.284.272h-7.511a.091.087 0 0 0-.081.097 2.852 2.727 0 0 0 3.045 2.252 4.69 4.484 0 0 0 2.598-.816.274.262 0 0 1 .406.058l.914 1.272a.284.272 0 0 1-.061.36 6.77 6.474 0 0 1-4.162 1.241 5.36 5.125 0 0 1-5.653-5.318 5.39 5.154 0 0 1 5.48-5.3c3.157 0 5.299 2.262 5.299 5.571z" class="cls-1" style="stroke-width:.992544"/></svg>