<?xml version="1.0" encoding="UTF-8" standalone="no"?>
<svg
   width="425"
   height="425"
   viewBox="0 0 425 425"
   fill="none"
   version="1.1"
   id="svg4"
   sodipodi:docname="shoelace.svg"
   inkscape:export-filename="shoelace.png"
   inkscape:export-xdpi="115.65176"
   inkscape:export-ydpi="115.65176"
   inkscape:version="1.3 (0e150ed6c4, 2023-07-21)"
   xmlns:inkscape="http://www.inkscape.org/namespaces/inkscape"
   xmlns:sodipodi="http://sodipodi.sourceforge.net/DTD/sodipodi-0.dtd"
   xmlns="http://www.w3.org/2000/svg"
   xmlns:svg="http://www.w3.org/2000/svg">
  <defs
     id="defs4" />
  <sodipodi:namedview
     id="namedview4"
     pagecolor="#ffffff"
     bordercolor="#666666"
     borderopacity="1.0"
     inkscape:showpageshadow="2"
     inkscape:pageopacity="0.0"
     inkscape:pagecheckerboard="0"
     inkscape:deskcolor="#d1d1d1"
     inkscape:zoom="0.66687189"
     inkscape:cx="132.70915"
     inkscape:cy="83.22438"
     inkscape:window-width="1920"
     inkscape:window-height="1017"
     inkscape:window-x="-8"
     inkscape:window-y="-8"
     inkscape:window-maximized="1"
     inkscape:current-layer="svg4" />
  <g
     id="g4"
     transform="matrix(0.84714705,0,0,0.84714705,55.815998,37.973309)">
    <path
       fill-rule="evenodd"
       clip-rule="evenodd"
       d="m 213.224,1.01236 c -0.055,-0.016402 -0.109,-0.03281 -0.164,-0.049225 -8.129,-1.28418 -16.129,-1.28418 -24,0 -0.023,0.013778 -0.046,0.027516 -0.07,0.041215 -10.571,0.50753 -20.484,3.14331 -29.737,7.90754 -0.065,0.01708 -0.129,0.03416 -0.193,0.05124 -14.581,6.39647 -27.081,15.72947 -37.5,27.99997 -5.223,7.1133 -9.389,14.7803 -12.5,23 -0.017,0.0792 -0.034,0.1584 -0.05,0.2375 -6.15,17.1147 -6.471,34.3449 -0.962,51.6914 0.004,0.024 0.008,0.048 0.012,0.071 0.522,3.068 1.355,6.068 2.5,9 12.096,24.967 31.263,41.967 57.5,51 11.933,5.15 24.267,9.65 37,13.5 17.677,7.185 32.677,18.018 45,32.5 11.92,14.645 18.087,30.978 18.5,49 -10.133,-3.125 -19.633,-7.625 -28.5,-13.5 -22.07,-15.068 -44.403,-29.735 -67,-44 -14.808,-8.77 -30.808,-14.27 -48,-16.5 -0.125,-0.002 -0.249,-0.004 -0.373,-0.006 -10.365,-1.12 -20.9,-1.271 -31.605,-0.457 -9.0416,0.936 -17.6584,3.082 -25.8495,6.438 -0.0575,0.009 -0.1151,0.017 -0.1727,0.025 -7.0083,2.336 -13.6753,5.503 -20,9.5 -22.5503,17.092 -36.8833,39.592 -42.99996,67.5 4.9e-4,0.038 9.5e-4,0.076 0.00137,0.113 C 0.3287,289.675 -0.831023,303.65 0.582138,318 c 0.189157,2.188 0.681792,4.171 1.477912,5.951 -7e-5,0.004 -1.4e-4,0.008 -2.1e-4,0.012 -0.08447,1.059 -0.07959,2.11 0.01514,3.155 0.08642,0.955 0.24804,1.903 0.48486,2.845 12.09666,36.596 36.59666,60.596 73.49996,72 10.3477,2.027 20.6807,4.193 31.0002,6.5 0.313,0.216 0.555,0.469 0.727,0.759 -0.17,-0.275 -0.405,-0.515 -0.705,-0.722 -10.319,-2.306 -20.652,-4.473 -31,-6.5 10.17,4.209 20.837,6.876 32,8 -0.002,-0.012 -0.004,-0.025 -0.007,-0.037 h 4.985 c 13.65,0.812 27.317,1.145 41,1 18.539,-1.006 36.539,-4.839 54,-11.5 48.573,-18.978 77.406,-54.145 86.5,-105.5 8.246,-1.533 16.079,-4.366 23.5,-8.5 5.491,-4.246 11.158,-8.246 17,-12 2.618,-2.106 4.618,-4.606 6,-7.5 1.568,-2.31 2.402,-4.977 2.5,-8 l 26,-24 c 1.187,-4.658 -0.647,-7.325 -5.5,-8 -0.916,0.043 -1.583,0.376 -2,1 -7.26,4.923 -13.926,10.59 -20,17 6.061,-3.882 11.727,-8.382 17,-13.5 0.667,-0.667 1.333,-0.667 2,0 l -3,3 c 2.068,-0.016 3.734,-1.016 5,-3 0.948,-0.483 1.948,-0.649 3,-0.5 1.282,1.208 1.282,2.542 0,4 -7.482,6.315 -14.815,12.815 -22,19.5 -0.49,0.214 -0.964,0.296 -1.422,0.246 -0.548,-0.059 -1.075,-0.308 -1.578,-0.746 -1.125,-1.152 -1.125,-2.152 0,-3 5.61,-4.271 10.943,-8.937 16,-14 -0.502,-1.02 -1.168,-1.187 -2,-0.5 -4.177,4.568 -8.843,8.401 -14,11.5 v -2 c -2.386,0.873 -4.386,2.373 -6,4.5 -4.451,0.13 -8.784,0.796 -13,2 -7.854,6.762 -16.521,12.262 -26,16.5 -1.996,-8.628 -3.829,-17.295 -5.5,-26 -1.038,-3.969 -2.538,-7.636 -4.5,-11 -6.975,-17.098 -17.309,-31.931 -31,-44.5 -19.26,-15.374 -40.927,-26.207 -65,-32.5 -11.228,-3.444 -21.895,-8.277 -32,-14.5 -31.274,-23.265 -37.107,-51.7655 -17.5,-85.4999 19.458,-22.9316 44.291,-32.2646 74.5,-28 3.022,0.3047 6.022,0.8047 9,1.5 1.229,0.3213 2.137,0.9744 2.724,1.9583 -0.588,-0.9639 -1.488,-1.6043 -2.702,-1.9214 -2.978,-0.696 -5.978,-1.196 -9,-1.5 3.803,1.6249 7.803,2.9582 12,4 -0.005,-0.0112 -0.01,-0.0224 -0.015,-0.0336 21.058,9.1255 30.556,25.1245 28.493,47.9967 -3.028,12.1973 -9.195,22.5309 -18.5,30.9999 0.003,0.026 0.007,0.051 0.01,0.077 -0.812,2.794 -1.308,5.78 -1.488,8.96 -2.372,2.203 -4.539,4.537 -6.5,7 0,0.238 0.042,0.433 0.127,0.586 -0.1,-0.157 -0.149,-0.365 -0.149,-0.623 -7.298,5.631 -13.965,11.964 -20,19 -1.165,0.996 -1.832,2.329 -2,4 3.022,7.09 7.02,7.758 11.993,2.008 l 0.029,0.029 c 0.667,0 1,-0.333 1,-1 -0.007,-0.013 -0.013,-0.026 -0.02,-0.039 6.953,-5.288 13.277,-11.277 18.972,-17.967 0.016,0.002 0.032,0.004 0.048,0.006 1.51,-1.336 3.177,-2.503 5,-3.5 3.633,-0.149 6.966,-0.982 10,-2.5 -0.207,-0.103 -0.416,-0.215 -0.625,-0.334 0.202,0.099 0.402,0.197 0.603,0.297 11.404,-7.078 19.071,-17.078 23,-29.9999 0.051,-4.6865 1.051,-9.0205 3,-13 v -3 c -0.188,-9.7519 -1.188,-19.4189 -3,-29 C 270.529,28.4322 256.529,14.0983 235.061,6.96343 234.213,5.51984 232.887,4.69873 231.082,4.5 225.236,2.70691 219.283,1.54434 213.224,1.01236 Z M 233.147,131.965 c -0.022,0.011 -0.043,0.023 -0.065,0.035 -5.368,4.37 -10.015,9.343 -13.942,14.917 5.826,-3.339 10.966,-7.658 15.42,-12.954 0.517,-1.29 0.047,-1.956 -1.413,-1.998 z m -16.084,16.037 c -2.457,0.268 -4.784,0.934 -6.979,1.997 1.635,2.408 3.627,2.563 5.976,0.464 0.742,-0.662 1.077,-1.482 1.003,-2.461 z m -6.993,1.976 c -0.003,-0.005 -0.007,-0.01 -0.01,-0.015 -0.961,-1.765 -1.295,-3.765 -1,-6 h 2 l 18.962,-17.964 c 0.02,0.001 0.04,0.001 0.06,0.001 1.385,-1.114 2.885,-2.114 4.5,-3 -6.306,7.639 -13.472,14.806 -21.5,21.5 -0.937,0.692 -1.603,0.525 -2,-0.5 h -2 c -0.294,2.226 0.036,4.219 0.988,5.978 z M 186.981,5.49036 c 0.026,-0.00902 0.052,-0.01809 0.079,-0.02723 -2.053,-0.18918 -4.03,-0.67984 -5.933,-1.47198 -0.015,0.00296 -0.03,0.00591 -0.045,0.00885 1.892,0.79464 3.858,1.29143 5.899,1.49036 z M 101.657,216.919 c -0.199,0.014 -0.398,0.029 -0.597,0.044 -35.3639,3.857 -59.1969,22.522 -71.5002,56 -8.1484,26.286 -5.4819,51.286 8,75 18.6734,20.466 41.8404,32.632 69.5002,36.5 17.304,1.341 34.637,1.841 52,1.5 7.835,-1.528 15.835,-2.861 24,-4 6.198,-2.234 12.532,-4.4 19,-6.5 37.349,-15.843 59.682,-43.676 67,-83.5 -13.864,-2.93 -26.864,-8.096 -39,-15.5 -18.344,-11.504 -36.344,-23.504 -54,-36 -11.304,-7.486 -23.301,-13.651 -35.993,-18.497 0.005,0.011 0.01,0.022 0.015,0.034 -12.628,-4.35 -25.628,-6.017 -39,-5 0.192,-0.028 0.383,-0.054 0.575,-0.081 z"
       fill="#439efc"
       id="path1" />
    <path
       d="m 277.082,50 c 3.775,9.413 4.775,19.079 3,29 -0.188,-9.752 -1.188,-19.419 -3,-29 z"
       fill="#439efc"
       id="path2" />
    <path
       d="m 154.082,411 c -13.683,0.145 -27.35,-0.188 -41,-1 7.774,1.531 15.774,2.198 24,2 5.843,-10e-4 11.51,-0.334 17,-1 z"
       fill="#439efc"
       id="path3" />
    <path
       d="m 280.082,82 c 0.075,4.692 -0.925,9.026 -3,13 0.051,-4.687 1.051,-9.021 3,-13 z"
       fill="#439efc"
       id="path4" />
  </g>
</svg>
