<?xml version="1.0" encoding="UTF-8" standalone="no"?>
<!-- Generator: Adobe Illustrator 18.1.1, SVG Export Plug-In . SVG Version: 6.00 Build 0)  -->

<svg
   version="1.1"
   id="Capa_1"
   x="0px"
   y="0px"
   viewBox="0 0 256 256"
   xml:space="preserve"
   sodipodi:docname="sql.svg"
   width="256"
   height="256"
   inkscape:version="1.2 (dc2aedaf03, 2022-05-15)"
   xmlns:inkscape="http://www.inkscape.org/namespaces/inkscape"
   xmlns:sodipodi="http://sodipodi.sourceforge.net/DTD/sodipodi-0.dtd"
   xmlns="http://www.w3.org/2000/svg"
   xmlns:svg="http://www.w3.org/2000/svg"><defs
   id="defs45" /><sodipodi:namedview
   id="namedview43"
   pagecolor="#ffffff"
   bordercolor="#666666"
   borderopacity="1.0"
   inkscape:showpageshadow="2"
   inkscape:pageopacity="0.0"
   inkscape:pagecheckerboard="0"
   inkscape:deskcolor="#d1d1d1"
   showgrid="false"
   inkscape:zoom="1.4258134"
   inkscape:cx="21.040622"
   inkscape:cy="134.65998"
   inkscape:window-width="1920"
   inkscape:window-height="1017"
   inkscape:window-x="-8"
   inkscape:window-y="-8"
   inkscape:window-maximized="1"
   inkscape:current-layer="Capa_1" />
<g
   id="g10"
   transform="matrix(4.3845665,0,0,4.3845665,11.852272,60.722831)"
   style="fill:#9d9d9d;fill-opacity:1">
	<path
   style="fill:#9d9d9d;fill-opacity:1"
   d="m 14.627,15.954 c -5.494,0 -10.098,-1.614 -11.355,-3.79 -0.221,0.383 -0.35,0.781 -0.35,1.194 v 3.561 c 0,2.751 5.242,4.983 11.705,4.983 6.467,0 11.711,-2.232 11.711,-4.983 v -3.561 c 0,-0.413 -0.131,-0.811 -0.354,-1.194 -1.257,2.175 -5.857,3.79 -11.357,3.79 z"
   id="path2" />
	<path
   style="fill:#9d9d9d;fill-opacity:1"
   d="m 14.627,23.31 c -5.494,0 -10.098,-1.616 -11.355,-3.788 -0.221,0.381 -0.35,0.779 -0.35,1.191 v 3.564 c 0,2.752 5.242,4.983 11.705,4.983 6.467,0 11.711,-2.23 11.711,-4.983 v -3.564 c 0,-0.412 -0.131,-0.81 -0.354,-1.19 -1.257,2.171 -5.857,3.787 -11.357,3.787 z"
   id="path4" />
	<path
   style="fill:#9d9d9d;fill-opacity:1"
   d="M 26.018,5.042 C 25.788,7.058 20.786,8.671 14.627,8.671 8.471,8.671 3.469,7.058 3.24,5.043 3.039,5.409 2.922,5.791 2.922,6.184 v 3.561 c 0,2.752 5.242,4.983 11.705,4.983 6.467,0 11.711,-2.23 11.711,-4.983 V 6.184 c 0,-0.393 -0.119,-0.775 -0.32,-1.142 z"
   id="path6" />
	<path
   style="fill:#9d9d9d;fill-opacity:1"
   d="m 14.627,7.541 c 6.303,0 11.41,-1.687 11.41,-3.771 C 26.037,1.688 20.93,0 14.627,0 8.328,0.001 3.219,1.689 3.219,3.771 c 0,2.083 5.109,3.77 11.408,3.77 z"
   id="path8" />
</g>
<g
   id="g12">
</g>
<g
   id="g14">
</g>
<g
   id="g16">
</g>
<g
   id="g18">
</g>
<g
   id="g20">
</g>
<g
   id="g22">
</g>
<g
   id="g24">
</g>
<g
   id="g26">
</g>
<g
   id="g28">
</g>
<g
   id="g30">
</g>
<g
   id="g32">
</g>
<g
   id="g34">
</g>
<g
   id="g36">
</g>
<g
   id="g38">
</g>
<g
   id="g40">
</g>
<text
   xml:space="preserve"
   style="font-style:normal;font-variant:normal;font-weight:bold;font-stretch:normal;font-size:86.0626px;line-height:1.25;font-family:'Courier New';-inkscape-font-specification:'Courier New Bold';letter-spacing:-3.24524px;stroke-width:0.597657"
   x="91.770264"
   y="156.84816"
   id="text382"><tspan
     sodipodi:role="line"
     id="tspan380"
     x="91.770264"
     y="156.84816"
     style="font-style:normal;font-variant:normal;font-weight:bold;font-stretch:normal;font-size:86.0626px;font-family:'Courier New';-inkscape-font-specification:'Courier New Bold';stroke-width:0.597657">SQL</tspan></text></svg>
