<?xml version="1.0" encoding="UTF-8" standalone="no"?>
<svg
   width="64"
   height="64"
   viewBox="0 0 64 64"
   version="1.1"
   xml:space="preserve"
   style="clip-rule:evenodd;fill-rule:evenodd;stroke-linejoin:round;stroke-miterlimit:1.41421"
   id="svg47"
   sodipodi:docname="sublime-text.svg"
   inkscape:version="1.2 (dc2aedaf03, 2022-05-15)"
   xmlns:inkscape="http://www.inkscape.org/namespaces/inkscape"
   xmlns:sodipodi="http://sodipodi.sourceforge.net/DTD/sodipodi-0.dtd"
   xmlns="http://www.w3.org/2000/svg"
   xmlns:svg="http://www.w3.org/2000/svg"><sodipodi:namedview
     id="namedview49"
     pagecolor="#ffffff"
     bordercolor="#666666"
     borderopacity="1.0"
     inkscape:showpageshadow="2"
     inkscape:pageopacity="0.0"
     inkscape:pagecheckerboard="0"
     inkscape:deskcolor="#d1d1d1"
     showgrid="false"
     inkscape:zoom="2.4482072"
     inkscape:cx="216.48495"
     inkscape:cy="64.537022"
     inkscape:window-width="1920"
     inkscape:window-height="1017"
     inkscape:window-x="-8"
     inkscape:window-y="-8"
     inkscape:window-maximized="1"
     inkscape:current-layer="svg47" /><g
     id="g34"
     transform="matrix(1.2271213,0,0,1.2271213,9.7184703,-0.69167095)"><path
       d="m 35.995,26.563 c 0,-0.548 -0.405,-0.864 -0.902,-0.707 L 0.902,36.698 C 0.404,36.856 0,37.429 0,37.976 v 11.081 c 0,0.548 0.404,0.865 0.902,0.707 L 35.093,38.923 c 0.497,-0.158 0.902,-0.731 0.902,-1.279 z"
       style="fill:url(#_Linear1)"
       id="path28" /><path
       d="m 0,26.21 c 0,0.548 0.404,1.121 0.902,1.279 L 35.098,38.332 C 35.596,38.49 36,38.173 36,37.626 V 26.544 c 0,-0.547 -0.404,-1.12 -0.902,-1.278 L 0.902,14.423 C 0.404,14.265 0,14.581 0,15.129 Z"
       style="fill:#ff9800"
       id="path30" /><path
       d="m 35.995,3.793 c 0,-0.548 -0.405,-0.865 -0.902,-0.707 L 0.902,13.927 C 0.404,14.085 0,14.658 0,15.206 v 11.081 c 0,0.548 0.404,0.864 0.902,0.707 L 35.093,16.152 c 0.497,-0.158 0.902,-0.731 0.902,-1.278 z"
       style="fill:#ff9800"
       id="path32" /></g><defs
     id="defs45"><linearGradient
       id="_Linear1"
       x1="0"
       y1="0"
       x2="1"
       y2="0"
       gradientUnits="userSpaceOnUse"
       gradientTransform="matrix(3.08228,-10.3064,8.72379,3.56577,19.8394,42.498)"><stop
         offset="0"
         style="stop-color:#ff9700;stop-opacity:1"
         id="stop38" /><stop
         offset="0.53"
         style="stop-color:#f48e00;stop-opacity:1"
         id="stop40" /><stop
         offset="1"
         style="stop-color:#d06f00;stop-opacity:1"
         id="stop42" /></linearGradient></defs></svg>
