<svg width="160" height="89" viewBox="0 0 160 89" fill="none" xmlns="http://www.w3.org/2000/svg">
<path d="M106.674 17.7755C101.758 17.7755 97.7859 13.8038 97.7859 8.88773C97.7859 3.9717 101.758 0 106.674 0H151.112C156.028 0 160 3.9717 160 8.88773V53.3264C160 58.2424 156.028 62.2141 151.112 62.2141C146.196 62.2141 142.225 58.2424 142.225 53.3264V30.3572L95.1751 77.3788C91.7033 80.8506 86.0652 80.8506 82.5934 77.3788L53.3472 48.1326L15.1855 86.2665C11.7138 89.7383 6.0756 89.7383 2.60383 86.2665C-0.867943 82.7948 -0.867943 77.1566 2.60383 73.6848L47.0425 29.2462C50.5143 25.7744 56.1524 25.7744 59.6242 29.2462L88.8981 58.5202L129.643 17.7755H106.674Z" fill="#4DD437"/>
</svg>
