<?xml version="1.0" encoding="UTF-8" standalone="no"?>
<svg
   aria-hidden="true"
   role="img"
   class="iconify iconify--logos"
   width="512"
   height="512"
   preserveAspectRatio="xMidYMid"
   viewBox="0 0 4111.4179 4112"
   version="1.1"
   id="svg20"
   sodipodi:docname="vite.svg"
   inkscape:version="1.2 (dc2aedaf03, 2022-05-15)"
   xmlns:inkscape="http://www.inkscape.org/namespaces/inkscape"
   xmlns:sodipodi="http://sodipodi.sourceforge.net/DTD/sodipodi-0.dtd"
   xmlns="http://www.w3.org/2000/svg"
   xmlns:svg="http://www.w3.org/2000/svg">
  <sodipodi:namedview
     id="namedview22"
     pagecolor="#ffffff"
     bordercolor="#666666"
     borderopacity="1.0"
     inkscape:showpageshadow="2"
     inkscape:pageopacity="0.0"
     inkscape:pagecheckerboard="0"
     inkscape:deskcolor="#d1d1d1"
     showgrid="false"
     inkscape:zoom="0.4609375"
     inkscape:cx="318.91525"
     inkscape:cy="210.44068"
     inkscape:window-width="1920"
     inkscape:window-height="1017"
     inkscape:window-x="1912"
     inkscape:window-y="-8"
     inkscape:window-maximized="1"
     inkscape:current-layer="svg20" />
  <defs
     id="defs14">
    <linearGradient
       id="IconifyId1813088fe1fbc01fb466"
       x1="-2.0007203"
       x2="139.28905"
       y1="48.343502"
       y2="219.34656"
       gradientTransform="matrix(15.460626,0,0,13.778202,156.80917,174.23876)"
       gradientUnits="userSpaceOnUse">
      <stop
         offset="0%"
         stop-color="#41D1FF"
         id="stop2" />
      <stop
         offset="100%"
         stop-color="#BD34FE"
         id="stop4" />
    </linearGradient>
    <linearGradient
       id="IconifyId1813088fe1fbc01fb467"
       x1="188.00648"
       x2="199.00609"
       y1="3.5533929"
       y2="141.10861"
       gradientTransform="matrix(10.809716,0,0,19.706313,156.80917,174.23876)"
       gradientUnits="userSpaceOnUse">
      <stop
         offset="0%"
         stop-color="#FFEA83"
         id="stop7" />
      <stop
         offset="8.333%"
         stop-color="#FFDD35"
         id="stop9" />
      <stop
         offset="100%"
         stop-color="#FFA800"
         id="stop11" />
    </linearGradient>
  </defs>
  <path
     fill="url(#IconifyId1813088fe1fbc01fb466)"
     d="M 3880.8163,727.95117 2125.6569,3866.4722 c -36.2399,64.8026 -129.3426,65.1821 -166.1225,0.7005 L 169.57996,728.24307 C 129.50157,657.98182 189.58997,572.86265 269.22134,587.10756 L 2026.2636,901.15232 a 95.408772,95.408772 0 0 0 33.8901,-0.0584 l 1720.2915,-313.5485 c 79.3686,-14.46384 139.7344,69.99854 100.3711,140.40575 z"
     id="path16"
     style="fill:url(#IconifyId1813088fe1fbc01fb466);stroke-width:14.5952" />
  <path
     fill="url(#IconifyId1813088fe1fbc01fb467)"
     d="M 2863.2249,175.15826 1564.3696,429.66922 a 47.697089,47.697089 0 0 0 -38.4438,43.98991 l -79.8941,1349.41307 a 47.697089,47.697089 0 0 0 58.337,49.3026 l 361.6251,-83.4553 c 33.8317,-7.8084 64.4086,21.995 57.4467,56.0163 l -107.4352,526.1129 c -7.2246,35.408 26.0086,65.6784 60.5846,55.1699 l 223.3648,-67.8531 c 34.6198,-10.5085 67.8969,19.8495 60.5701,55.2866 l -170.7346,826.3944 c -10.6836,51.6962 58.0743,79.8795 86.7393,35.5685 l 19.1634,-29.5991 1058.385,-2112.2162 c 17.7332,-35.3642 -12.8438,-75.6907 -51.667,-68.1888 l -372.2503,71.8376 c -34.9701,6.743 -64.7297,-25.8335 -54.8634,-60.0446 l 242.9516,-842.21562 c 9.8809,-34.2987 -19.9954,-66.88976 -55.0093,-60.03002 z"
     id="path18"
     style="fill:url(#IconifyId1813088fe1fbc01fb467);stroke-width:14.5952" />
</svg>
