<?xml version="1.0" encoding="UTF-8" standalone="no"?>
<svg
   width="512"
   height="512"
   viewBox="0 0 512 512"
   fill="none"
   version="1.1"
   id="svg10"
   sodipodi:docname="vitepress.svg"
   inkscape:version="1.3 (0e150ed6c4, 2023-07-21)"
   xmlns:inkscape="http://www.inkscape.org/namespaces/inkscape"
   xmlns:sodipodi="http://sodipodi.sourceforge.net/DTD/sodipodi-0.dtd"
   xmlns="http://www.w3.org/2000/svg"
   xmlns:svg="http://www.w3.org/2000/svg">
  <sodipodi:namedview
     id="namedview10"
     pagecolor="#ffffff"
     bordercolor="#666666"
     borderopacity="1.0"
     inkscape:showpageshadow="2"
     inkscape:pageopacity="0.0"
     inkscape:pagecheckerboard="0"
     inkscape:deskcolor="#d1d1d1"
     inkscape:zoom="0.71723461"
     inkscape:cx="322.07035"
     inkscape:cy="222.38191"
     inkscape:window-width="1554"
     inkscape:window-height="791"
     inkscape:window-x="284"
     inkscape:window-y="184"
     inkscape:window-maximized="0"
     inkscape:current-layer="svg10" />
  <path
     d="M 79.220065,108.24782 C 76.684573,89.977882 89.254135,73.08574 107.29501,70.518075 L 335.95546,37.973847 c 18.04114,-2.567668 34.72098,10.161505 37.25629,28.431446 L 419.12073,397.211 c 2.53531,18.26968 -10.03371,35.16191 -28.07485,37.73038 l -228.66036,32.54414 c -18.04115,2.56758 -34.72098,-10.16187 -37.2563,-28.43154 z"
     fill="url(#paint0_linear_1287_1214)"
     id="path1"
     style="fill:url(#paint0_linear_1287_1214);stroke-width:8.96187" />
  <path
     d="M 95.552987,105.92329 C 94.28524,96.788277 100.57002,88.342161 109.59041,87.058373 L 338.2506,54.514144 c 9.02101,-1.283878 17.36093,5.080754 18.62904,14.215679 l 45.90808,330.805887 c 1.2681,9.13484 -5.01686,17.5814 -14.03698,18.86474 l -228.66036,32.54414 c -9.02102,1.28424 -17.36094,-5.08048 -18.62904,-14.21532 z"
     fill="#ffffff"
     id="path2"
     style="stroke-width:8.96187" />
  <path
     d="m 331.49155,171.35123 -65.73712,172.40938 c -1.35683,3.55876 -6.04209,4.23359 -8.35963,1.20358 L 144.62398,197.46971 c -2.52456,-3.30155 -0.11292,-8.06568 3.99969,-7.89989 l 90.73626,3.65913 c 0.57804,0.0233 1.15698,-0.0592 1.70544,-0.24197 L 325.42526,164.896 c 3.89214,-1.29589 7.54142,2.58639 6.06629,6.45523 z"
     fill="url(#paint1_linear_1287_1214)"
     id="path3"
     style="fill:url(#paint1_linear_1287_1214);stroke-width:8.96187" />
  <path
     d="m 276.28105,150.3455 -63.53878,22.10983 c -1.04405,0.36296 -1.70992,1.39716 -1.61851,2.51291 l 5.70871,69.36399 c 0.13443,1.63375 1.78162,2.68677 3.2908,2.10335 l 17.59932,-6.79758 c 1.6472,-0.63629 3.40103,0.66856 3.29708,2.45197 l -1.61583,27.58016 c -0.10754,1.856 1.78431,3.16623 3.44853,2.38744 l 10.75245,-5.03119 c 1.66691,-0.77879 3.55966,0.53413 3.44763,2.39371 l -2.63479,43.33513 c -0.16489,2.71097 3.49872,3.66362 4.62254,1.20269 l 0.75011,-1.64361 38.04135,-115.13585 c 0.63629,-1.9277 -1.19193,-3.76847 -3.09274,-3.11336 l -18.2177,6.27959 c -1.71171,0.58969 -3.44494,-0.86124 -3.1949,-2.67602 l 6.15591,-44.64983 c 0.25093,-1.81657 -1.48767,-3.26929 -3.20118,-2.67333 z"
     fill="url(#paint2_linear_1287_1214)"
     id="path4"
     style="fill:url(#paint2_linear_1287_1214);stroke-width:8.96187" />
  <defs
     id="defs10">
    <linearGradient
       id="paint0_linear_1287_1214"
       x1="6.4816298"
       y1="1.9759001"
       x2="39.049999"
       y2="48.206402"
       gradientUnits="userSpaceOnUse"
       gradientTransform="matrix(8.9618715,0,0,8.9618715,34.085572,37.644586)">
      <stop
         stop-color="#49C7FF"
         id="stop4" />
      <stop
         offset="1"
         stop-color="#BD36FF"
         id="stop5" />
    </linearGradient>
    <linearGradient
       id="paint1_linear_1287_1214"
       x1="11.8848"
       y1="16.4266"
       x2="26.7246"
       y2="31.4177"
       gradientUnits="userSpaceOnUse"
       gradientTransform="matrix(8.9618715,0,0,8.9618715,34.085572,37.644586)">
      <stop
         stop-color="#41D1FF"
         id="stop6" />
      <stop
         offset="1"
         stop-color="#BD34FE"
         id="stop7" />
    </linearGradient>
    <linearGradient
       id="paint2_linear_1287_1214"
       x1="21.813801"
       y1="13.7046"
       x2="26.246401"
       y2="28.8069"
       gradientUnits="userSpaceOnUse"
       gradientTransform="matrix(8.9618715,0,0,8.9618715,34.085572,37.644586)">
      <stop
         stop-color="#FFEA83"
         id="stop8" />
      <stop
         offset="0.0833333"
         stop-color="#FFDD35"
         id="stop9" />
      <stop
         offset="1"
         stop-color="#FFA800"
         id="stop10" />
    </linearGradient>
  </defs>
</svg>
