<?xml version="1.0" encoding="UTF-8" standalone="no"?>
<svg
   fill="#ffffff"
   viewBox="0 0 512 512"
   version="1.1"
   id="svg153"
   sodipodi:docname="webkit.svg"
   width="512"
   height="512"
   inkscape:version="1.2 (dc2aedaf03, 2022-05-15)"
   xmlns:inkscape="http://www.inkscape.org/namespaces/inkscape"
   xmlns:sodipodi="http://sodipodi.sourceforge.net/DTD/sodipodi-0.dtd"
   xmlns:xlink="http://www.w3.org/1999/xlink"
   xmlns="http://www.w3.org/2000/svg"
   xmlns:svg="http://www.w3.org/2000/svg">
  <defs
     id="defs157" />
  <sodipodi:namedview
     id="namedview155"
     pagecolor="#ffffff"
     bordercolor="#666666"
     borderopacity="1.0"
     inkscape:showpageshadow="2"
     inkscape:pageopacity="0.0"
     inkscape:pagecheckerboard="0"
     inkscape:deskcolor="#d1d1d1"
     showgrid="false"
     inkscape:zoom="0.44950088"
     inkscape:cx="144.60484"
     inkscape:cy="375.97257"
     inkscape:window-width="1920"
     inkscape:window-height="1017"
     inkscape:window-x="-8"
     inkscape:window-y="-8"
     inkscape:window-maximized="1"
     inkscape:current-layer="svg153" />
  <linearGradient
     id="b"
     x1="2631.3613"
     x2="2631.3613"
     y1="256.06635"
     y2="4659.3882"
     gradientTransform="scale(1.1286933,0.88598026)"
     gradientUnits="userSpaceOnUse">
    <stop
       offset="0%"
       stop-color="#34aadc"
       id="stop134" />
    <stop
       offset="100%"
       stop-color="#007aff"
       id="stop136" />
  </linearGradient>
  <path
     id="a"
     d="M 202.51681,403.1782 70.529297,299.45039 A 49.903692,49.903692 0 0 1 49.86541,260.24618 c 0,-14.70158 7.350788,-28.74975 20.663887,-39.20421 L 202.51681,117.15081 a 81.920465,81.920465 0 0 1 50.31206,-16.25341 c 19.03038,0 36.75395,5.88064 50.31207,16.33509 L 435.12843,220.9603 a 49.903692,49.903692 0 0 1 20.66393,39.2042 c 0,14.86493 -7.35083,28.83143 -20.66393,39.20421 L 303.14094,403.09652 a 81.348734,81.348734 0 0 1 -50.31207,16.41676 c -19.03038,0 -36.75394,-5.71728 -50.31206,-16.33508 z"
     style="stroke-width:0.0816752" />
  <path
     id="c"
     d="M 202.51681,337.83784 70.529297,234.11004 A 49.903692,49.903692 0 0 1 49.86541,194.90583 c 0,-14.70158 7.350788,-28.74975 20.663887,-39.20421 L 202.51681,51.810466 a 81.920465,81.920465 0 0 1 50.31206,-16.253417 c 19.03038,0 36.75395,5.880636 50.31207,16.335093 L 435.12843,155.61994 a 49.903692,49.903692 0 0 1 20.66393,39.20421 c 0,14.86494 -7.35083,28.83144 -20.66393,39.20422 l -131.98749,103.7278 a 81.348734,81.348734 0 0 1 -50.31207,16.41676 c -19.03038,0 -36.75394,-5.71728 -50.31206,-16.33509 z"
     style="stroke-width:0.0816752" />
  <path
     fill="#ff9d00"
     d="m 434.96512,284.91216 a 48.188508,48.188508 0 0 1 0,79.4702 L 303.46765,467.62011 a 86.575963,86.575963 0 0 1 -101.27755,0 L 70.692642,364.54571 a 48.188508,48.188508 0 0 1 0.08168,-79.55187 L 202.27178,181.75609 c 27.933,-21.72567 73.34454,-21.72567 101.27754,0 z"
     id="path141"
     style="stroke-width:0.0816752" />
  <use
     fill="#ffcc00"
     xlink:href="#a"
     id="use143" />
  <use
     fill="url(#b)"
     xlink:href="#c"
     id="use145"
     style="fill:url(#b)" />
  <path
     d="m 253.31893,294.30483 c 67.38223,0 122.0231,-44.67646 122.0231,-99.80737 0,-54.96757 -54.72254,-99.889068 -122.0231,-99.889068 -67.46391,0 -122.18646,44.921498 -122.18646,99.889068 0,55.13091 54.72255,99.80737 122.10478,99.80737 z m 0,10.29111 c -74.32465,0 -134.76448,-49.25029 -134.76448,-110.09848 0,-60.76653 60.43983,-110.016821 134.76448,-110.016821 74.32465,0 134.60111,49.331961 134.60111,110.016821 0,60.84819 -60.27646,110.09848 -134.60111,110.09848 z"
     id="path147"
     style="stroke-width:0.0816752" />
  <path
     fill="#8cc8f6"
     d="m 262.30322,236.887 c 6.69739,-0.81675 13.3131,-2.77696 19.35708,-5.71728 l 38.38746,15.84504 -20.09216,-30.21991 a 35.120438,35.120438 0 0 0 0,-44.59479 l 20.09216,-30.21991 -36.18222,14.9466 -1.06178,15.92671 a 26.952894,26.952894 0 0 1 -0.9801,43.94139 41.981174,41.981174 0 0 1 -13.06808,6.94241 l -6.53403,13.06807 z m -17.96859,-84.61575 c -11.18954,1.47016 -19.60211,5.71728 -19.60211,5.71728 l -38.38745,-15.84503 20.09216,30.21991 a 35.202114,35.202114 0 0 0 0,44.51311 l -20.09216,30.21991 37.08064,-15.27331 0.81676,-14.9466 a 26.952894,26.952894 0 0 1 0.24503,-44.59479 c 3.67539,-3.26701 11.92461,-6.69738 13.06806,-6.94241 l 6.53404,-13.06807 z"
     id="path149"
     style="stroke-width:0.0816752" />
  <path
     fill-rule="evenodd"
     d="m 234.86028,191.23043 -5.14555,90.65974 41.40944,-84.1257 5.88063,-90.41471 z m -0.57173,73.26287 33.16023,-67.30055 -29.07646,-5.30891 -4.08377,72.69114 z"
     id="path151"
     style="stroke-width:0.0816752" />
</svg>
