<?xml version="1.0" encoding="UTF-8" standalone="no"?>
<svg
   clip-rule="evenodd"
   fill-rule="evenodd"
   stroke-linejoin="round"
   stroke-miterlimit="1.41421"
   viewBox="0 0 256 256"
   version="1.1"
   id="svg22"
   sodipodi:docname="word.svg"
   width="256"
   height="256"
   inkscape:version="1.2 (dc2aedaf03, 2022-05-15)"
   xmlns:inkscape="http://www.inkscape.org/namespaces/inkscape"
   xmlns:sodipodi="http://sodipodi.sourceforge.net/DTD/sodipodi-0.dtd"
   xmlns="http://www.w3.org/2000/svg"
   xmlns:svg="http://www.w3.org/2000/svg">
  <defs
     id="defs26" />
  <sodipodi:namedview
     id="namedview24"
     pagecolor="#ffffff"
     bordercolor="#666666"
     borderopacity="1.0"
     inkscape:showpageshadow="2"
     inkscape:pageopacity="0.0"
     inkscape:pagecheckerboard="0"
     inkscape:deskcolor="#d1d1d1"
     showgrid="false"
     inkscape:zoom="0.59"
     inkscape:cx="137.28814"
     inkscape:cy="200"
     inkscape:window-width="1920"
     inkscape:window-height="1017"
     inkscape:window-x="-8"
     inkscape:window-y="-8"
     inkscape:window-maximized="1"
     inkscape:current-layer="svg22" />
  <g
     fill-rule="nonzero"
     id="g18"
     transform="translate(-154.23729,-71.186441)">
    <path
       d="M 380.829,103.753 H 234.17 c -5.028,0 -9.165,4.137 -9.165,9.165 v 38.959 L 307.503,175.939 390,151.877 v -38.959 c 0,-5.028 -4.137,-9.165 -9.164,-9.165 z"
       fill="#41a5ee"
       id="path2" />
    <path
       d="M 389.993,151.877 H 224.999 V 200 L 307.496,224.062 389.993,200 Z"
       fill="#2b7cd3"
       id="path4" />
    <path
       d="M 389.993,200 H 224.999 v 48.124 l 82.497,24.061 82.497,-24.061 z"
       fill="#185abd"
       id="path6" />
    <path
       d="M 389.993,248.124 H 224.999 v 38.959 c 0,5.027 4.136,9.164 9.163,9.164 h 146.66 c 5.027,0 9.164,-4.137 9.164,-9.164 z"
       fill="#103f91"
       id="path8" />
    <path
       d="m 284.582,138.127 h -59.583 v 130.621 h 59.583 c 5.022,-0.015 9.149,-4.143 9.164,-9.164 V 147.298 c -0.015,-5.021 -4.142,-9.149 -9.164,-9.164 z"
       fill-opacity="0.098039"
       id="path10" />
    <path
       d="m 277.708,145.002 h -52.709 v 130.621 h 52.709 c 5.021,-0.015 9.149,-4.143 9.163,-9.165 V 154.173 c -0.014,-5.021 -4.142,-9.149 -9.163,-9.164 z m 0,0 h -52.709 v 116.871 h 52.709 c 5.021,-0.015 9.149,-4.143 9.163,-9.164 v -98.536 c -0.014,-5.021 -4.142,-9.149 -9.163,-9.164 z m -6.875,0 h -45.834 v 116.871 h 45.834 c 5.021,-0.015 9.149,-4.143 9.163,-9.164 v -98.536 c -0.014,-5.021 -4.142,-9.149 -9.163,-9.164 z"
       fill-opacity="0.2"
       id="path12" />
    <path
       d="m 179.164,145.002 h 91.661 c 5.028,0 9.165,4.136 9.165,9.164 v 91.662 c 0,5.027 -4.137,9.163 -9.165,9.163 h -91.661 c -5.027,0 -9.164,-4.136 -9.164,-9.163 v -91.662 c 0,-5.028 4.137,-9.164 9.164,-9.164 z"
       fill="#185abd"
       id="path14" />
    <path
       d="m 252.154,234.374 h -12.375 l -14.437,-47.436 -15.125,47.436 h -12.374 l -13.75,-68.748 h 12.375 l 9.624,48.123 14.438,-46.748 h 10.312 l 13.75,46.748 9.624,-48.123 h 11.687 z"
       fill="#ffffff"
       id="path16" />
  </g>
  <path
     d="M 15.762712,18.817559 H 235.75571 V 238.81056 H 15.762712 Z"
     fill="none"
     id="path20" />
</svg>
