<?xml version="1.0" encoding="UTF-8" standalone="no"?>
<svg
   viewBox="0 0 32 32"
   version="1.1"
   id="svg8"
   sodipodi:docname="wsl.svg"
   xml:space="preserve"
   inkscape:version="1.2 (dc2aedaf03, 2022-05-15)"
   xmlns:inkscape="http://www.inkscape.org/namespaces/inkscape"
   xmlns:sodipodi="http://sodipodi.sourceforge.net/DTD/sodipodi-0.dtd"
   xmlns="http://www.w3.org/2000/svg"
   xmlns:svg="http://www.w3.org/2000/svg"><defs
     id="defs12" /><sodipodi:namedview
     id="namedview10"
     pagecolor="#ffffff"
     bordercolor="#666666"
     borderopacity="1.0"
     inkscape:showpageshadow="2"
     inkscape:pageopacity="0.0"
     inkscape:pagecheckerboard="0"
     inkscape:deskcolor="#d1d1d1"
     showgrid="false"
     inkscape:zoom="10.429825"
     inkscape:cx="11.888982"
     inkscape:cy="20.326324"
     inkscape:window-width="1652"
     inkscape:window-height="853"
     inkscape:window-x="78"
     inkscape:window-y="78"
     inkscape:window-maximized="0"
     inkscape:current-layer="svg8" /><title
     id="title2">file_type_wasm</title><path
     style="fill:#000000;stroke-width:0.0720577"
     d="m 24.994168,25.947979 c -0.131492,-0.05959 -0.33106,-0.173862 -0.443469,-0.25391 -0.195946,-0.139517 -0.311459,-0.145528 -2.796547,-0.145528 -2.256646,0 -2.628281,0.01547 -2.871185,0.11978 -0.361844,0.15533 -1.305201,0.154042 -1.792225,-0.0021 -0.310259,-0.09967 -0.843062,-0.115877 -3.837068,-0.116552 L 9.7768939,25.54889 v -1.044833 -1.044844 h 1.5774551 1.577457 l 0.04353,-0.173447 c 0.02394,-0.09541 0.06335,-0.225099 0.08757,-0.288234 0.0395,-0.102888 -0.124334,-0.114776 -1.58496,-0.114776 H 9.8489471 v -2.376195 -2.376219 l 2.7349279,-0.01973 2.734929,-0.01973 0.04111,0.163947 c 0.05427,0.216378 0.511301,0.717262 0.782364,0.857433 0.287625,0.148737 0.708189,0.08638 1.019584,-0.151104 l 0.24588,-0.187536 0.0216,0.400539 c 0.01962,0.363257 0.0434,0.414306 0.255831,0.548415 l 0.234183,0.147864 v -0.87176 -0.871771 h 1.08086 1.080871 v 2.666134 2.666135 h 1.678528 1.678528 l 0.389513,-0.234194 c 0.357681,-0.215038 0.39975,-0.268808 0.514537,-0.657584 0.06873,-0.232865 0.146401,-0.719255 0.172554,-1.08086 0.100916,-1.395444 0.337715,-2.078268 0.82802,-2.387785 0.180901,-0.114195 0.286759,-0.235097 0.286759,-0.32751 0,-0.08057 0.08337,-0.229812 0.185158,-0.331652 0.165733,-0.165723 0.229148,-0.181981 0.604105,-0.154863 0.473059,0.03426 1.23348,0.369496 1.513107,0.667157 0.102265,0.108837 0.171598,0.270251 0.171598,0.399417 0,0.132593 0.03727,0.216762 0.09604,0.216762 0.06468,0 0.09604,-0.0979 0.09604,-0.299394 0,-0.253048 -0.04236,-0.339481 -0.27348,-0.558444 -0.150409,-0.142487 -0.434375,-0.339906 -0.631016,-0.438704 l -0.357546,-0.179656 0.02585,-0.51219 c 0.0352,-0.697182 -0.08732,-1.220803 -0.459064,-1.961695 -0.2827,-0.563458 -1.009565,-1.511653 -1.094035,-1.427183 -0.01848,0.01848 0.136485,0.255094 0.344453,0.525719 0.207968,0.270635 0.455233,0.659754 0.549473,0.864721 0.221725,0.482186 0.403384,1.358805 0.348316,1.680781 -0.113717,0.664873 -0.104549,0.648718 -0.368229,0.648718 -0.162213,0 -0.246476,-0.03416 -0.246476,-0.09998 0,-0.323201 -0.449076,-1.540682 -0.972261,-2.63586 -0.331922,-0.694825 -0.674362,-1.441655 -0.760982,-1.659632 -0.247306,-0.622409 -0.716711,-2.018372 -0.716711,-2.131456 0,-0.143743 -0.09926,-0.127256 -0.252331,0.04195 -0.167021,0.184555 -1.760725,0.987762 -2.077998,1.047283 -0.374926,0.07029 -0.780002,-0.07891 -1.296366,-0.477503 -0.260866,-0.201375 -0.503562,-0.348056 -0.53934,-0.325942 -0.03582,0.02211 -0.08617,0.22024 -0.112066,0.440283 -0.07382,0.627859 -0.442256,1.687218 -1.09034,3.134792 -0.328247,0.733188 -0.61945,1.40837 -0.647119,1.500409 -0.0299,0.09936 -0.08949,0.152308 -0.146764,0.130329 -0.05305,-0.02035 -0.212245,-0.05876 -0.353777,-0.08524 -0.141521,-0.02658 -0.257315,-0.05503 -0.257315,-0.06323 0,-0.148156 0.305167,-0.941758 0.54831,-1.425864 0.174008,-0.346479 0.315633,-0.671133 0.314719,-0.721467 -0.0031,-0.168577 -0.711553,1.117344 -0.899675,1.632908 l -0.185858,0.509367 -0.347915,0.01059 c -0.191352,0.0062 -0.419686,0.049 -0.50741,0.09593 -0.08772,0.04693 -0.177115,0.06769 -0.198654,0.0462 -0.02154,-0.02159 0.124131,-0.372745 0.32371,-0.780458 0.393205,-0.803269 1.099532,-1.900232 1.714097,-2.662096 0.452638,-0.561122 0.83236,-1.233013 1.011725,-1.790169 0.107706,-0.33458 0.129374,-0.699414 0.139081,-2.3418742 0.01225,-2.0710311 0.04413,-2.3110181 0.402408,-3.0283731 0.225389,-0.4513084 0.834976,-0.9977084 1.312354,-1.1763152 0.64634,-0.2418246 1.466574,-0.3353381 2.077676,-0.2368723 1.055403,0.1700622 1.739773,0.6667517 2.15301,1.5625577 0.326139,0.7069935 0.43941,1.4235283 0.494997,3.1311995 0.04568,1.4027216 0.06645,1.5867276 0.220271,1.9455606 0.216762,0.505785 0.602558,1.082844 1.304215,1.950752 0.980422,1.212726 1.708232,2.500101 1.972846,3.489597 0.176198,0.658913 0.215453,1.572369 0.09261,2.154546 l -0.104955,0.49723 0.301855,0.295407 c 0.260689,0.255125 0.324177,0.381644 0.465605,0.927805 0.121172,0.467951 0.228577,0.709983 0.413081,0.930805 0.467224,0.559242 0.590711,0.950603 0.41606,1.318646 -0.129187,0.272245 -0.445473,0.492391 -1.436537,0.999868 -0.495973,0.253972 -0.792596,0.473038 -1.261014,0.931334 -0.750807,0.7346 -1.236616,0.995102 -1.93033,1.035137 -0.328974,0.019 -0.560042,-0.0062 -0.722681,-0.08046 z m 1.532823,-0.396531 c 0.19634,-0.09573 0.596131,-0.413268 0.888414,-0.705551 0.586683,-0.586693 1.030755,-0.895546 1.839568,-1.279463 1.069762,-0.507768 1.158406,-0.83996 0.450301,-1.687519 -0.151789,-0.18167 -0.302301,-0.473506 -0.368592,-0.714635 -0.290425,-1.056514 -0.44672,-1.264378 -1.014808,-1.349565 -0.284683,-0.04267 -0.347423,-0.02627 -0.51734,0.135292 -0.285306,0.27129 -0.897291,0.554498 -1.198212,0.554498 -0.144833,0 -0.353403,-0.04662 -0.463476,-0.103511 -0.203317,-0.105132 -0.474056,-0.561995 -0.548113,-0.924908 -0.0352,-0.172637 -0.06001,-0.189456 -0.182365,-0.123965 -0.324447,0.173644 -0.481802,0.681391 -0.613927,1.981037 -0.05638,0.554841 -0.167851,1.219579 -0.247649,1.477184 -0.07984,0.257606 -0.145352,0.50891 -0.145653,0.558444 -3.53e-4,0.06354 0.148082,0.09012 0.503853,0.09012 h 0.504403 v 1.044834 1.044834 l -0.306246,0.0021 c -0.303932,0.0021 -0.304887,0.0031 -0.126094,0.10944 0.278485,0.165245 1.102757,0.107083 1.545936,-0.109087 z M 17.919406,23.593885 V 21.639239 L 17.554198,20.963787 17.18899,20.288335 h -1.179777 c -0.721014,0 -1.197371,0.02845 -1.225018,0.07319 -0.02488,0.04028 -0.19703,0.152236 -0.382555,0.248844 l -0.337318,0.175658 1.639311,0.0031 1.639306,0.0031 v 2.33659 c 0,2.559965 -0.02959,2.387972 0.414337,2.410854 l 0.16213,0.0083 z M 15.253272,23.17064 v -0.288234 h -0.929699 -0.9297 l -0.0791,0.226926 c -0.04351,0.124806 -0.0791,0.254512 -0.0791,0.288234 0,0.03374 0.453963,0.06125 1.008807,0.06125 h 1.008806 z m -1.57596,-2.547008 c 0.212855,-0.09303 0.468075,-0.204303 0.567154,-0.247317 0.139113,-0.06042 -0.102971,-0.07932 -1.06285,-0.08306 l -1.242994,-0.0052 v 0.252197 0.252207 h 0.67584 c 0.551147,0 0.747244,-0.03125 1.06285,-0.169107 z m 8.567643,-8.675963 c 0.455087,-0.227892 0.893729,-0.462978 0.974742,-0.522428 0.381602,-0.28001 0.515118,-0.803216 0.263161,-1.031243 -0.07101,-0.06427 -0.351815,-0.200659 -0.624018,-0.303122 C 22.586626,9.9884032 22.231292,9.8270522 22.069193,9.7322717 21.653298,9.489087 21.192718,9.3979511 20.83482,9.4879968 c -0.249404,0.062709 -0.7392,0.4013694 -1.456243,1.0067722 -0.258821,0.218527 -0.216378,0.535654 0.113603,0.848878 0.410828,0.38997 0.867535,0.740736 1.155841,0.887718 0.424751,0.216554 0.693112,0.168879 1.596934,-0.283696 z m -1.749637,-0.332701 c -0.396531,-0.147813 -1.062701,-0.68463 -1.062701,-0.856354 0,-0.04651 0.154021,0.06479 0.342273,0.247255 0.46465,0.450457 0.762767,0.59229 1.24299,0.591397 0.492807,-9.24e-4 1.024236,-0.224642 1.639314,-0.690112 0.485404,-0.367347 0.624859,-0.358169 0.180144,0.01184 -0.723232,0.601758 -1.764587,0.911213 -2.34202,0.695957 z m 0.0542,-1.7029368 c 0.0245,-0.03966 0.115586,-0.07153 0.202413,-0.07091 0.128357,9.03e-4 0.13767,0.01412 0.04984,0.07091 -0.141967,0.09178 -0.308904,0.09178 -0.252207,0 z m 0.936754,0 c -0.127703,-0.05482 -0.121546,-0.0625 0.05399,-0.06697 0.108993,-0.0031 0.198156,0.02741 0.198156,0.06697 0,0.08462 -0.05534,0.08462 -0.252196,0 z m -1.623585,0.01547 c -0.001,-0.02834 -0.04994,-0.114444 -0.10809,-0.1913767 C 19.63222,9.5743267 19.614612,9.1017449 19.723347,8.8984802 19.896316,8.575279 20.29727,8.8622462 20.29727,9.309308 c 0,0.2255556 0.0042,0.2283692 0.21617,0.1483112 0.192457,-0.072676 0.216181,-0.1144649 0.216181,-0.3812486 0,-0.7698064 -0.571764,-1.3103093 -1.091731,-1.0320323 -0.360037,0.1926956 -0.533547,1.0997145 -0.311853,1.6302918 0.163189,0.3905719 0.24116,0.4637259 0.402335,0.3774589 0.07506,-0.04018 0.13552,-0.09624 0.134264,-0.1245878 z m 3.607114,-0.105546 c 0.302665,-0.6667933 0.100916,-1.556505 -0.434292,-1.9153071 -0.657075,-0.4405004 -1.513211,0.1838707 -1.513211,1.1035664 0,0.2867697 0.02367,0.3379233 0.184836,0.3991893 0.328081,0.1247434 0.391631,0.091987 0.391631,-0.2019255 0,-0.5267774 0.382163,-0.7933327 0.69249,-0.4830056 0.139226,0.1392163 0.172201,0.2470262 0.172201,0.5629701 0,0.2718088 -0.0354,0.4201616 -0.116386,0.4873454 -0.103408,0.085862 -0.08534,0.110322 0.16213,0.219658 0.153181,0.06769 0.288203,0.1254708 0.300049,0.1284088 0.01184,0.0031 0.0841,-0.1324678 0.160552,-0.3008998 z M 1.7785074,21.837562 v -3.710968 h 1.043948 1.0439481 l 0.018906,2.648121 0.018906,2.648111 0.2702162,0.02232 0.2702161,0.02232 v -2.670471 -2.670484 h 1.0808647 1.0808644 v 2.666134 2.666135 h 0.2522018 0.2522018 v -2.666135 -2.666134 h 1.0808644 1.0808644 v 3.710968 3.710968 H 5.5255125 1.7785157 Z M 16.224722,18.96293 c -0.349014,-0.15208 -0.660319,-0.56406 -0.758827,-1.004249 -0.118804,-0.530868 -0.06115,-0.705924 0.299173,-0.908442 0.270841,-0.152225 0.360832,-0.164736 0.921015,-0.128117 0.341463,0.02232 0.708456,0.07413 0.815549,0.115036 0.267127,0.102162 0.443418,0.461846 0.383325,0.782161 -0.08046,0.428831 -0.976209,1.252542 -1.34978,1.241205 -0.05112,-0.001 -0.190824,-0.04547 -0.310455,-0.09759 z"
     id="path253" /></svg>
