<svg xmlns="http://www.w3.org/2000/svg" xml:space="preserve" width="856.99" height="857"><path d="M716.795 805.205H135.312c-48.829 0-88.41-39.58-88.41-88.41V135.314c0-48.83 39.581-88.41 88.41-88.41h581.475c48.829 0 88.41 39.58 88.41 88.41v581.474c.007 48.838-39.573 88.418-88.402 88.418z" style="stroke-width:.885867;stroke:#fff;stroke-miterlimit:10"/><path d="M491.03 374.75 721.1 682.38 489.58 932.49h52.11l202.7-218.98 163.77 218.98h177.32L842.46 607.56l215.5-232.81h-52.11L819.18 576.42 668.35 374.75Zm76.63 38.39h81.46l359.72 480.97h-81.46z" style="fill:#fff" transform="matrix(.88587 0 0 .88587 -271.593 -152.965)"/></svg>