<?xml version="1.0" encoding="UTF-8" standalone="no"?>
<!-- Generator: Adobe Illustrator 12.0.0, SVG Export Plug-In . SVG Version: 6.00 Build 51448)  -->

<svg
   version="1.1"
   id="Ebene_1"
   width="550"
   height="550"
   viewBox="0 0 550 550"
   style="overflow:visible;enable-background:new 0 0 550 550;"
   xml:space="preserve"
   inkscape:version="1.2 (dc2aedaf03, 2022-05-15)"
   sodipodi:docname="flex.svg"
   xmlns:inkscape="http://www.inkscape.org/namespaces/inkscape"
   xmlns:sodipodi="http://sodipodi.sourceforge.net/DTD/sodipodi-0.dtd"
   xmlns:xlink="http://www.w3.org/1999/xlink"
   xmlns="http://www.w3.org/2000/svg"
   xmlns:svg="http://www.w3.org/2000/svg"
   xmlns:rdf="http://www.w3.org/1999/02/22-rdf-syntax-ns#"
   xmlns:cc="http://creativecommons.org/ns#"
   xmlns:dc="http://purl.org/dc/elements/1.1/"><metadata
   id="metadata9"><rdf:RDF><cc:Work
       rdf:about=""><dc:format>image/svg+xml</dc:format><dc:type
         rdf:resource="http://purl.org/dc/dcmitype/StillImage" /><dc:title /></cc:Work></rdf:RDF></metadata><defs
   id="defs7"><linearGradient
     id="linearGradient3788"><stop
       style="stop-color:#6a6963;stop-opacity:1;"
       offset="0"
       id="stop3790" /><stop
       id="stop3822"
       offset="0.62777776"
       style="stop-color:#3a3a38;stop-opacity:1;" /><stop
       style="stop-color:#191917;stop-opacity:1;"
       offset="1"
       id="stop3792" /></linearGradient><radialGradient
     inkscape:collect="always"
     xlink:href="#linearGradient3788"
     id="radialGradient3794"
     cx="29.005142"
     cy="-60.08823"
     fx="29.005142"
     fy="-60.08823"
     r="255.56613"
     gradientTransform="matrix(-1.6780591,0.8179559,-0.85979153,-1.7638861,170.55821,-50.645027)"
     gradientUnits="userSpaceOnUse" /></defs><sodipodi:namedview
   pagecolor="#ffffff"
   bordercolor="#666666"
   borderopacity="1"
   objecttolerance="10"
   gridtolerance="10"
   guidetolerance="10"
   inkscape:pageopacity="0"
   inkscape:pageshadow="2"
   inkscape:window-width="1250"
   inkscape:window-height="915"
   id="namedview5"
   showgrid="false"
   inkscape:zoom="0.70710678"
   inkscape:cx="219.2031"
   inkscape:cy="253.14423"
   inkscape:window-x="0"
   inkscape:window-y="27"
   inkscape:window-maximized="0"
   inkscape:current-layer="Ebene_1"
   inkscape:showpageshadow="2"
   inkscape:pagecheckerboard="0"
   inkscape:deskcolor="#d1d1d1" />

<rect
   style="fill:url(#radialGradient3794);fill-opacity:1;stroke:none"
   id="rect2988"
   width="511.13226"
   height="510.94391"
   x="19.806459"
   y="13.101345" /><path
   id="rect3015"
   style="fill:#ffffff;fill-opacity:1;stroke:none"
   d="M 279.52815,209.91084 H 321.125 c 1.94541,0.0399 3.47037,0.83666 4.375,2.75 l 24.75758,53.7253 h 4.5 L 380.75,212.28584 c 0.78011,-1.59226 2.21994,-2.45589 4.375,-2.375 h 35.75492 c 1.40152,0 3.32068,1.68879 2.19987,3.69988 l -44.25,76.45178 48.0625,80.35319 c 1.4973,2.50325 1.58672,4.62174 -1.57487,4.62174 h -43.56921 c -1.79793,0.11963 -2.97265,-0.74005 -3.75092,-2.22274 l -26.79417,-53.83976 -5.40624,0.0156 -25.67396,54.07546 c -0.96877,1.98061 -2.61313,1.93446 -4.22978,1.97142 h -38.13843 c -1.42648,0 -2.18162,-1.20844 -1.42643,-2.41862 l 46.66659,-77.56075 -46.04159,-82.57234 c -0.80508,-1.44386 -0.59273,-2.57241 2.57487,-2.57488 0.47348,0 0,2e-5 0,2e-5 z M 133.6875,142.96875 c -0.17831,0 -0.36333,0.0283 -0.53125,0.0625 -0.51202,0.10424 -0.92983,0.36064 -1.28125,0.71875 -0.10958,0.11167 -0.22468,0.21354 -0.3125,0.34375 -0.005,0.007 0.005,0.0245 0,0.0312 -0.0861,0.13052 -0.18852,0.26042 -0.25,0.40625 -0.004,0.008 0.004,0.023 0,0.0312 -0.12302,0.30119 -0.1875,0.62228 -0.1875,0.96875 -1.2e-4,0.0104 0,0.0208 0,0.0312 v 30.0625 70.84375 30.8125 95.15625 c 0,1.42648 1.13602,2.5625 2.5625,2.5625 h 37.59375 c 1.42648,0 2.5625,-1.13602 2.5625,-2.5625 V 279.8436 H 250.375 c 1.42648,0 2.59375,-1.13602 2.59375,-2.5625 v -30.8125 c 0,-1.42648 -1.16727,-2.5625 -2.59375,-2.5625 h -76.53125 v -65.6875 h 85.71875 c 1.42648,0 2.7561,-1.18047 2.5625,-2.59375 L 258,145.5625 C 257.8064,144.14922 256.86398,143 255.4375,143 h -83.875 c -0.0916,-0.01 -0.18692,-0.0312 -0.28125,-0.0312 H 133.6875 Z"
   inkscape:connector-curvature="0"
   sodipodi:nodetypes="cccccccsccssccccccsccsccccccccccscccsssscssssccsccscscc" /></svg>
