<?xml version="1.0" encoding="UTF-8" standalone="no"?>
<svg
   width="396.612"
   height="182.19324"
   viewBox="0 0 0 0 400 0 172"
   version="1.1"
   id="svg5"
   xmlns="http://www.w3.org/2000/svg"
   xmlns:svg="http://www.w3.org/2000/svg">
  <defs
     id="defs5" />
  <path
     d="m 164.29407,124.03136 h -15.49 l -6.419,-19.141 h -30.92 l -6.302,19.141 H 92.795073 L 119.47407,43.639359 h 17.846 z m -25.796,-30.743001 -11.72,-35.868 -11.721,35.868 z m 27.033,11.367001 14.076,-3.004 c 1.688,7.97067 8.16633,11.956 19.435,11.956 5.144,0 9.1,-1.021 11.868,-3.063 2.768,-2.04133 4.152,-4.57367 4.152,-7.597 0,-2.19933 -0.62833,-4.231334 -1.885,-6.096001 -1.256,-1.865333 -3.94533,-3.328 -8.068,-4.388 l -15.372,-4.005 c -5.26133,-1.374 -9.14866,-2.934667 -11.662,-4.682 -2.51266,-1.747333 -4.52466,-4.211 -6.036,-7.391 -1.512,-3.180667 -2.268,-6.577 -2.268,-10.189 0,-7.185333 2.67,-12.947333 8.01,-17.286 5.34,-4.338666 12.172,-6.508 20.496,-6.508 6.91,0 13.084,1.511667 18.522,4.535 5.438,3.023334 8.903,7.303 10.395,12.839 l -13.781,3.416 c -2.12067,-6.086 -7.068,-9.129 -14.842,-9.129 -4.51533,0 -7.96067,0.942333 -10.336,2.827 -2.37533,1.884667 -3.563,4.28 -3.563,7.186 0,4.593333 3.73,7.812667 11.19,9.658 l 13.664,3.416 c 8.28467,2.081333 13.84033,5.153667 16.667,9.217 2.82733,4.064 4.241,8.55 4.241,13.458 0,7.892001 -2.97433,14.105671 -8.923,18.641001 -5.94867,4.53467 -13.65433,6.802 -23.117,6.802 -7.97,0 -14.949,-1.66867 -20.937,-5.006 -5.98733,-3.33733 -9.96266,-8.53967 -11.926,-15.607 z m 91.818,19.376 h -14.488 V 43.639359 h 32.922 c 9.384,0 16.34367,2.365667 20.879,7.097 4.53467,4.731333 6.802,10.316333 6.802,16.755 0,7.342667 -2.454,13.291333 -7.362,17.846 -4.908,4.554667 -11.13133,6.832 -18.67,6.832 h -20.083 z m 0,-44.289001 h 17.138 c 4.47667,0 7.89267,-1.099333 10.248,-3.298 2.356,-2.199333 3.534,-5.124667 3.534,-8.776 0,-3.298 -1.08967,-6.125 -3.269,-8.481 -2.17867,-2.356 -6.11467,-3.534 -11.808,-3.534 h -15.843 z"
     id="path1" />
  <path
     d="m 0,167.11524 h 78.737 v 15.078 H 0 Z"
     fill="#73d041"
     id="path2" />
  <path
     d="m 94.336,167.11524 h 78.737 v 15.078 H 94.336 Z"
     fill="#fad13b"
     id="path3" />
  <path
     d="m 188.672,167.11524 h 78.737 v 15.078 h -78.737 z"
     fill="#ef4730"
     id="path4" />
  <path
     d="m 317.876,167.11524 h 78.736 v 15.078 h -78.736 z"
     fill="#41aafa"
     id="path5" />
  <g
     id="g5"
     transform="matrix(0.59423541,0,0,0.59423541,8.0508417,173.32379)">
    <path
       d="m 132.59354,-29.363752 h -7.4817 l -3.10024,-9.398193 h -14.93448 l -3.04453,9.398193 h -5.973365 l 12.886225,-39.472839 h 8.61939 z m -12.45986,-15.095171 -5.66056,-17.610498 -5.66162,17.610498 z m 32.94241,4.366469 5.57593,0.578482 c -0.72061,3.663006 -2.11467,6.371517 -4.18221,8.125532 -2.06682,1.754015 -4.56072,2.631023 -7.4817,2.631023 -3.96368,0 -7.01214,-1.469773 -9.14538,-4.40932 -2.13396,-2.940261 -3.20093,-6.540419 -3.20093,-10.800476 0,-4.395751 1.1666,-8.029833 3.49981,-10.902247 2.3325,-2.872414 5.44274,-4.308621 9.33071,-4.308621 6.25832,0 9.98489,3.354482 11.1797,10.063447 l -5.57593,0.780951 c -0.49278,-3.62444 -2.24715,-5.436661 -5.26311,-5.436661 -2.19966,0 -3.79728,0.97842 -4.79283,2.935261 -0.99556,1.956842 -1.49334,4.323262 -1.49334,7.099262 0,2.949545 0.5167,5.224195 1.55011,6.823948 1.03342,1.600467 2.47962,2.400701 4.33862,2.400701 2.84456,0 4.73142,-1.860428 5.66055,-5.581282 z m 23.86775,5.581282 v 5.14742 c -1.9347,0.423506 -3.43304,0.635259 -4.49502,0.635259 -1.74473,0 -3.24307,-0.351731 -4.49502,-1.055194 -1.25124,-0.703464 -2.16609,-1.667243 -2.74458,-2.89134 -0.57848,-1.224097 -0.86772,-3.108806 -0.86772,-5.654128 v -15.123024 h -3.58445 v -5.118496 h 3.95404 l 0.59776,-7.605969 5.31989,-0.490639 v 8.096608 h 5.77411 v 5.118496 h -5.77411 v 14.256372 c 0,1.831146 0.32709,3.079168 0.98128,3.744066 0.65419,0.665611 1.8915,0.998417 3.71193,0.998417 0.51206,0 1.0527,-0.01928 1.62189,-0.05785 z m 11.91888,-27.471476 h -6.48543 v -6.853943 h 6.48543 z m 0,32.618896 h -6.48543 v -29.206923 h 6.48543 z m 29.41474,-29.206923 -9.75706,29.206923 h -5.37667 l -9.98525,-29.206923 h 6.77039 l 6.7136,19.80873 6.54328,-19.80873 z m 19.32667,19.895502 5.85981,0.808804 c -0.75846,2.641735 -2.23752,4.820328 -4.43718,6.535777 -2.20037,1.71545 -4.95995,2.573175 -8.27872,2.573175 -3.98224,0 -7.1871,-1.359077 -9.61459,-4.077228 -2.42748,-2.718152 -3.64122,-6.400084 -3.64122,-11.045796 0,-4.415033 1.22303,-8.068399 3.66908,-10.960095 2.44676,-2.891696 5.76553,-4.337545 9.95632,-4.337545 4.09651,0 7.26388,1.426566 9.5021,4.279697 2.23752,2.853131 3.35627,6.516138 3.35627,10.989019 l -0.0279,0.752027 h -19.71446 c 0,1.985407 0.18497,3.575876 0.55491,4.771406 0.36994,1.194816 1.10483,2.235727 2.20466,3.122733 1.09984,0.887006 2.47462,1.330509 4.12437,1.330509 3.20522,0 5.36738,-1.580828 6.4865,-4.742483 z m -0.39851,-8.734009 c -0.0185,-2.101105 -0.63955,-3.816555 -1.86293,-5.146349 -1.22338,-1.330509 -2.73601,-1.995764 -4.53787,-1.995764 -1.78258,0 -3.27129,0.62169 -4.4661,1.865069 -1.19481,1.24338 -1.89649,3.002395 -2.10503,5.277044 z"
       id="path1-1"
       style="stroke-width:1.07126" />
    <path
       d="m 255.27974,-37.651711 6.346,-1.377 c 0.76133,3.65333 3.68233,5.48 8.763,5.48 2.31933,0 4.103,-0.468 5.351,-1.404 1.248,-0.93533 1.872,-2.096 1.872,-3.482 0,-1.00733 -0.283,-1.93867 -0.849,-2.794 -0.56667,-0.85467 -1.77933,-1.525 -3.638,-2.011 l -6.931,-1.835 c -2.37267,-0.63 -4.12533,-1.34533 -5.258,-2.146 -1.13333,-0.80133 -2.04067,-1.93067 -2.722,-3.388 -0.68133,-1.458 -1.022,-3.01467 -1.022,-4.67 0,-3.29333 1.20367,-5.93433 3.611,-7.923 2.408,-1.988 5.48833,-2.982 9.241,-2.982 3.116,0 5.9,0.69267 8.352,2.078 2.452,1.386 4.01433,3.34767 4.687,5.885 l -6.214,1.565 c -0.956,-2.78933 -3.18667,-4.184 -6.692,-4.184 -2.036,0 -3.58933,0.432 -4.66,1.296 -1.07133,0.864 -1.607,1.96167 -1.607,3.293 0,2.106 1.682,3.58167 5.046,4.427 l 6.16,1.566 c 3.73533,0.954 6.24033,2.362 7.515,4.224 1.27467,1.86267 1.912,3.919 1.912,6.169 0,3.61667 -1.341,6.46433 -4.023,8.543 -2.682,2.07867 -6.15633,3.118 -10.423,3.118 -3.59333,0 -6.74,-0.765 -9.44,-2.295 -2.7,-1.52933 -4.49233,-3.91367 -5.377,-7.153 z m 51.57,0.189 5.47,0.756 c -0.708,2.46533 -2.089,4.49867 -4.143,6.1 -2.05333,1.602 -4.629,2.403 -7.727,2.403 -3.718,0 -6.71,-1.26867 -8.976,-3.806 -2.266,-2.53733 -3.399,-5.97467 -3.399,-10.312 0,-4.12067 1.142,-7.531 3.426,-10.231 2.28333,-2.69933 5.38133,-4.049 9.294,-4.049 3.824,0 6.78033,1.33167 8.869,3.995 2.08933,2.664 3.134,6.08333 3.134,10.258 l -0.027,0.702 h -18.402 c 0,1.85333 0.17267,3.338 0.518,4.454 0.34467,1.116 1.03067,2.08767 2.058,2.915 1.02667,0.828 2.31,1.242 3.85,1.242 2.992,0 5.01033,-1.47567 6.055,-4.427 z m -0.372,-8.152 c -0.018,-1.96133 -0.598,-3.563 -1.74,-4.805 -1.14133,-1.242 -2.553,-1.863 -4.235,-1.863 -1.664,0 -3.05367,0.58033 -4.169,1.741 -1.11533,1.16133 -1.77033,2.80367 -1.965,4.927 z m 17.06,16.844 h -6.054 v -27.264 h 5.47 v 6.506 c 0.77867,-2.53733 1.84967,-4.391 3.213,-5.561 1.36333,-1.17 2.762,-1.755 4.196,-1.755 0.19467,0 0.46033,0.009 0.797,0.027 v 6.614 c -3.08067,0 -5.121,0.99867 -6.121,2.996 -1.00067,1.998 -1.501,3.93267 -1.501,5.804 z m 33.46,-27.264 -9.109,27.264 h -5.019 l -9.321,-27.264 h 6.321 l 6.267,18.491 6.107,-18.491 z m 20.553,18.572 5.47,0.756 c -0.708,2.46533 -2.08867,4.49867 -4.142,6.1 -2.05333,1.602 -4.62933,2.403 -7.728,2.403 -3.71733,0 -6.709,-1.26867 -8.975,-3.806 -2.266,-2.53733 -3.399,-5.97467 -3.399,-10.312 0,-4.12067 1.14167,-7.531 3.425,-10.231 2.284,-2.69933 5.38233,-4.049 9.295,-4.049 3.824,0 6.78033,1.33167 8.869,3.995 2.08867,2.664 3.133,6.08333 3.133,10.258 l -0.026,0.702 h -18.403 c 0,1.85333 0.17267,3.338 0.518,4.454 0.34533,1.116 1.03133,2.08767 2.058,2.915 1.02667,0.828 2.31033,1.242 3.851,1.242 2.99133,0 5.00933,-1.47567 6.054,-4.427 z m -0.372,-8.152 c -0.0173,-1.96133 -0.597,-3.563 -1.739,-4.805 -1.142,-1.242 -2.55367,-1.863 -4.235,-1.863 -1.66467,0 -3.05467,0.58033 -4.17,1.741 -1.11533,1.16133 -1.77033,2.80367 -1.965,4.927 z m 17.584,16.844 h -6.054 v -27.264 h 5.47 v 6.506 c 0.77933,-2.53733 1.85033,-4.391 3.213,-5.561 1.36333,-1.17 2.762,-1.755 4.196,-1.755 0.19467,0 0.46033,0.009 0.797,0.027 v 6.614 c -3.08067,0 -5.121,0.99867 -6.121,2.996 -1.00067,1.998 -1.501,3.93267 -1.501,5.804 z m 29.205,0 h -6.533 v -36.847 h 14.845 c 4.23067,0 7.36833,1.08433 9.413,3.253 2.04467,2.16867 3.067,4.72867 3.067,7.68 0,3.36533 -1.10633,6.09167 -3.319,8.179 -2.21267,2.08733 -5.01867,3.131 -8.418,3.131 h -9.055 z m 0,-20.299 h 7.727 c 2.01867,0 3.559,-0.504 4.621,-1.512 1.062,-1.008 1.593,-2.34867 1.593,-4.022 0,-1.512 -0.49133,-2.80767 -1.474,-3.887 -0.982,-1.08 -2.75667,-1.62 -5.324,-1.62 h -7.143 z m 47.542,20.299 h -5.762 c -0.51333,-1.65533 -0.823,-3.491 -0.929,-5.507 -1.61133,4.04933 -4.63867,6.074 -9.082,6.074 -2.67333,0 -4.82,-0.79633 -6.44,-2.389 -1.62,-1.59267 -2.43,-3.59467 -2.43,-6.006 0,-6.26267 5.40867,-9.394 16.226,-9.394 0.42467,0 1,0.009 1.726,0.027 v -2.052 c 0,-2.82533 -1.89433,-4.238 -5.683,-4.238 -3.68267,0 -5.77167,1.41267 -6.267,4.238 l -5.152,-0.782 c 0.28333,-2.268 1.434,-4.13533 3.452,-5.602 2.01867,-1.46667 4.93967,-2.2 8.763,-2.2 2.07133,0 3.762,0.17567 5.072,0.527 1.31067,0.35067 2.41733,0.94433 3.32,1.781 0.90267,0.83733 1.52667,1.74633 1.872,2.727 0.34533,0.98067 0.518,2.64067 0.518,4.98 v 12.309 c 0,1.782 0.26533,3.61767 0.796,5.507 z m -6.691,-13.875 c -7.82533,0 -11.738,1.89867 -11.738,5.696 0,1.13333 0.394,2.10067 1.182,2.902 0.788,0.80067 1.97867,1.201 3.572,1.201 2.30133,0 4.04067,-0.74233 5.218,-2.227 1.17733,-1.48467 1.766,-3.17167 1.766,-5.061 z m 37.602,-18.599 v 4.724 h -1.859 c -0.81467,0 -1.52733,0.099 -2.138,0.297 -0.61067,0.198 -1.208,0.837 -1.792,1.917 2.124,1.76333 3.186,3.72467 3.186,5.884 0,2.412 -0.99567,4.40967 -2.987,5.993 -1.992,1.584 -4.62533,2.376 -7.9,2.376 -1.41667,0 -3.072,-0.234 -4.966,-0.702 -1.23933,0.576 -1.859,1.46667 -1.859,2.672 0,0.666 0.301,1.278 0.903,1.836 0.602,0.55733 1.51367,0.836 2.735,0.836 h 7.966 c 2.72667,0 4.86467,0.71533 6.414,2.146 1.54867,1.43133 2.323,3.20867 2.323,5.332 0,2.57333 -1.17267,4.70567 -3.518,6.397 -2.346,1.692 -5.82033,2.538 -10.423,2.538 -8.65733,0 -12.986,-2.45667 -12.986,-7.37 0,-2.42933 1.30133,-4.27367 3.904,-5.533 -1.664,-1.44 -2.496,-2.94267 -2.496,-4.508 0,-2.37533 1.425,-4.265 4.275,-5.669 -2.47867,-1.52933 -3.718,-3.635 -3.718,-6.317 0,-2.26733 0.91167,-4.20167 2.735,-5.803 1.824,-1.602 4.59467,-2.403 8.312,-2.403 1.7,0 3.426,0.189 5.178,0.567 0.81467,-3.47333 2.96567,-5.21 6.453,-5.21 z m -13.756,17.546 c 3.29267,0 4.939,-1.57467 4.939,-4.724 0,-1.20533 -0.41167,-2.222 -1.235,-3.05 -0.82267,-0.828 -2.022,-1.242 -3.598,-1.242 -1.59333,0 -2.828,0.432 -3.704,1.296 -0.87667,0.864 -1.315,1.94367 -1.315,3.239 0,1.332 0.434,2.412 1.302,3.24 0.86733,0.82733 2.071,1.241 3.611,1.241 z m -6.639,13.443 c -0.86733,0.81 -1.301,1.593 -1.301,2.349 0,1.24133 0.726,2.33433 2.178,3.279 1.45133,0.94533 3.76133,1.418 6.93,1.418 4.656,0 6.984,-1.21467 6.984,-3.644 0,-0.9 -0.407,-1.57967 -1.221,-2.039 -0.81467,-0.45867 -1.744,-0.688 -2.788,-0.688 h -6.427 c -1.22133,0 -2.673,-0.225 -4.355,-0.675 z m 41.161,-7.207 5.47,0.756 c -0.708,2.46533 -2.089,4.49867 -4.143,6.1 -2.05333,1.602 -4.629,2.403 -7.727,2.403 -3.718,0 -6.71,-1.26867 -8.976,-3.806 -2.266,-2.53733 -3.399,-5.97467 -3.399,-10.312 0,-4.12067 1.142,-7.531 3.426,-10.231 2.28333,-2.69933 5.38133,-4.049 9.294,-4.049 3.824,0 6.78033,1.33167 8.869,3.995 2.08933,2.664 3.134,6.08333 3.134,10.258 l -0.027,0.702 h -18.402 c 0,1.85333 0.17267,3.338 0.518,4.454 0.34467,1.116 1.03067,2.08767 2.058,2.915 1.02667,0.828 2.31,1.242 3.85,1.242 2.992,0 5.01033,-1.47567 6.055,-4.427 z m -0.372,-8.152 c -0.018,-1.96133 -0.598,-3.563 -1.74,-4.805 -1.14133,-1.242 -2.553,-1.863 -4.235,-1.863 -1.664,0 -3.05367,0.58033 -4.169,1.741 -1.11533,1.16133 -1.77033,2.80367 -1.965,4.927 z m 8.577,10.581 5.683,-1.106 c 0.86733,2.21333 2.77933,3.32 5.736,3.32 3.75267,0 5.629,-1.12467 5.629,-3.374 0,-0.72 -0.292,-1.314 -0.876,-1.782 -0.584,-0.468 -1.27433,-0.783 -2.071,-0.945 l -4.886,-0.944 c -5.41733,-1.062 -8.126,-3.75267 -8.126,-8.072 0,-2.41133 0.85867,-4.45833 2.576,-6.141 1.71733,-1.68267 4.27533,-2.524 7.674,-2.524 5.66533,0 9.12633,2.11467 10.383,6.344 l -5.391,1.107 c -0.566,-2.052 -2.177,-3.078 -4.833,-3.078 -3.222,0 -4.833,1.026 -4.833,3.078 0,1.42133 1.30133,2.402 3.904,2.942 l 5.762,1.215 c 4.47933,0.93533 6.719,3.54467 6.719,7.828 0,3.00533 -1.15067,5.25033 -3.452,6.735 -2.30133,1.48467 -5.03667,2.227 -8.206,2.227 -2.744,0 -5.16933,-0.56233 -7.276,-1.687 -2.10667,-1.12467 -3.47867,-2.839 -4.116,-5.143 z"
       id="path1-5" />
  </g>
  <g
     id="g6"
     transform="translate(-1,11.16424)">
    <text
       xml:space="preserve"
       style="font-weight:800;font-size:45.7565px;line-height:1.25;font-family:Jost;-inkscape-font-specification:'Jost Ultra-Bold';letter-spacing:0px;stroke-width:0.635507"
       x="105.48669"
       y="22.147787"
       id="text5"><tspan
         id="tspan5"
         x="105.48669"
         y="22.147787"
         style="font-style:normal;font-variant:normal;font-weight:normal;font-stretch:normal;font-family:Arial;-inkscape-font-specification:Arial;stroke-width:0.635507">Microsoft</tspan></text>
    <text
       xml:space="preserve"
       style="font-weight:800;font-size:11.7239px;line-height:1.25;font-family:Jost;-inkscape-font-specification:'Jost Ultra-Bold';letter-spacing:0px;stroke-width:0.162831"
       x="292.39194"
       y="-2.6289203"
       id="text6"><tspan
         id="tspan6"
         x="292.39194"
         y="-2.6289203"
         style="font-style:normal;font-variant:normal;font-weight:normal;font-stretch:normal;font-family:Arial;-inkscape-font-specification:Arial;stroke-width:0.162831">®</tspan></text>
  </g>
</svg>
