<svg xmlns="http://www.w3.org/2000/svg" xml:space="preserve" id="_x30_1" x="0" y="0" style="enable-background:new 0 0 963 961.4" version="1.1" viewBox="0 0 963 961.4"><style id="style1" type="text/css">.st0{fill:#1b1e2e}</style><g id="g10"><path id="path1" d="M340.4 382.8c38.4 0 69.6 20.5 85.6 56.1l1.2 2.8 64.4-21.9-1.3-3.3c-24.9-60.8-82.4-98.5-149.9-98.5-47.5 0-86.1 15.2-118 46.5-31.7 31.1-47.7 70.2-47.7 116.2 0 45.7 16.1 84.6 47.7 115.6 31.9 31.3 70.5 46.5 118 46.5 67.5 0 124.9-37.8 149.9-98.5l1.3-3.3-64.5-21.9-1.1 2.9c-14.4 35.1-46.4 56-85.6 56-26.7 0-49.3-9.3-67.1-27.7-18.1-18.6-27.2-42.1-27.2-69.6 0-27.7 8.9-50.7 27.2-70.2 17.9-18.4 40.4-27.7 67.1-27.7z" class="st0"/><g id="g2"><linearGradient id="SVGID_1_" x1="992.991" x2="568.87" y1="483.702" y2="758.304" gradientUnits="userSpaceOnUse"><stop id="stop1" offset=".081" style="stop-color:#69d3a7"/><stop id="stop2" offset="1" style="stop-color:#69d3a7;stop-opacity:0"/></linearGradient><path id="path2" d="m620 934.4-19.2-63.3C774 818.5 890.4 661.6 890.4 480.7c0-49.9-8.9-98.7-26.5-144.9l61.8-23.5c20.5 53.8 30.9 110.4 30.9 168.5-.1 210.1-135.3 392.4-336.6 453.6z" style="fill:url(#SVGID_1_)"/></g><g id="g3"><path id="path3" d="M872.5 361.1c-52.9-172.6-210-288.5-391-288.5-24.6 0-49.2 2.2-73.2 6.5L396.6 14c27.8-5 56.4-7.6 84.9-7.6 210.2 0 392.7 134.7 454.2 335.2l-63.2 19.5z" style="fill:#69d3a7"/></g><g id="g5"><linearGradient id="SVGID_00000148651166423619572140000005281795770302588552_" x1="323.384" x2="56.936" y1="12.396" y2="577.503" gradientUnits="userSpaceOnUse"><stop id="stop3" offset="0" style="stop-color:#69d3a7"/><stop id="stop4" offset=".823" style="stop-color:#2ab586"/><stop id="stop5" offset="1" style="stop-color:#1cae7f"/></linearGradient><path id="path5" d="M36.9 647.9C16.7 594.5 6.5 538.2 6.5 480.7c0-245 183.9-447.9 427.8-471.9l6.5 65.8C230.9 95.3 72.6 269.9 72.6 480.7c0 49.5 8.8 98 26.1 143.9l-61.8 23.3z" style="fill:url(#SVGID_00000148651166423619572140000005281795770302588552_)"/></g><path id="polygon5" d="M743.7 324 652 556.4 559.6 324H484l129.6 317.2-94.4 229 66.1 13.2L815.1 324z" class="st0"/><linearGradient id="SVGID_00000098925399032608532410000009288675756932014269_" x1="5.828" x2="704.494" y1="697.848" y2="917.116" gradientUnits="userSpaceOnUse"><stop id="stop6" offset=".077" style="stop-color:#1cae7f"/><stop id="stop7" offset=".164" style="stop-color:#1ca379"/><stop id="stop8" offset=".316" style="stop-color:#1c8568"/><stop id="stop9" offset=".516" style="stop-color:#1b554d"/><stop id="stop10" offset=".719" style="stop-color:#1b1e2e"/></linearGradient><path id="path10" d="m531.1 841.4-13.9 33.7c-3.2 7.7-10.5 13-18.7 13.3-5.7.2-11.3.4-17.1.4-181.5 0-343.1-121.5-393-295.5l-63.6 18.2c58 202.1 245.7 343.3 456.5 343.4h.1c6.6 0 13.2-.1 19.8-.4 33.9-1.4 64.2-22.7 77.2-54.2l18.8-45.7-66.1-13.2z" style="fill:url(#SVGID_00000098925399032608532410000009288675756932014269_)"/></g></svg>