<?xml version="1.0" encoding="UTF-8" standalone="no"?>
<!-- Generator: Adobe Illustrator 16.0.0, SVG Export Plug-In . SVG Version: 6.00 Build 0)  -->

<svg
   version="1.1"
   id="Layer_1"
   x="0px"
   y="0px"
   width="125"
   height="125"
   viewBox="71.07 323.663 125 125"
   enable-background="new 71.07 323.663 469.86 110.329"
   xml:space="preserve"
   sodipodi:docname="eclipse.svg"
   inkscape:version="1.3 (0e150ed6c4, 2023-07-21)"
   xmlns:inkscape="http://www.inkscape.org/namespaces/inkscape"
   xmlns:sodipodi="http://sodipodi.sourceforge.net/DTD/sodipodi-0.dtd"
   xmlns="http://www.w3.org/2000/svg"
   xmlns:svg="http://www.w3.org/2000/svg"><defs
   id="defs19" /><sodipodi:namedview
   id="namedview19"
   pagecolor="#ffffff"
   bordercolor="#666666"
   borderopacity="1.0"
   inkscape:showpageshadow="2"
   inkscape:pageopacity="0.0"
   inkscape:pagecheckerboard="0"
   inkscape:deskcolor="#d1d1d1"
   inkscape:zoom="2.377304"
   inkscape:cx="134.60626"
   inkscape:cy="51.108315"
   inkscape:window-width="1920"
   inkscape:window-height="1017"
   inkscape:window-x="-8"
   inkscape:window-y="-8"
   inkscape:window-maximized="1"
   inkscape:current-layer="Layer_1" />&#10;<path
   fill="#2c2255"
   d="M 109.124,400.874 H 92.38 c 2.217,7.605 6.331,14.422 12.354,20.445 9.602,9.604 21.148,14.398 34.65,14.398 2.699,0 5.314,-0.201 7.854,-0.584 10.17,-1.535 19.074,-6.133 26.703,-13.814 6.062,-6.021 10.205,-12.84 12.439,-20.445 h -6.795 -9.936 z"
   id="path1" />&#10;<g
   id="g3"
   transform="translate(8,7.938)">&#10;	<path
   fill="#2c2255"
   d="m 91.891,370.194 h -8.747 c -0.32,1.922 -0.538,3.884 -0.637,5.896 h 10.396 5.215 75.275 6.871 c -0.1,-2.012 -0.318,-3.974 -0.641,-5.896"
   id="path2" />&#10;	<path
   fill="#2c2255"
   d="m 82.507,381.565 c 0.099,2.013 0.316,3.975 0.637,5.896 h 9.094 6.893 73.648 6.846 c 0.322,-1.921 0.542,-3.883 0.642,-5.896"
   id="path3" />&#10;</g>&#10;<path
   fill="#2c2255"
   d="m 186.382,372.656 c -2.232,-7.626 -6.376,-14.474 -12.441,-20.54 -7.609,-7.608 -16.488,-12.174 -26.625,-13.71 -2.564,-0.389 -5.205,-0.593 -7.932,-0.593 -13.502,0 -25.049,4.769 -34.65,14.303 -6.025,6.066 -10.141,12.914 -12.357,20.54"
   id="path4" />&#10;<g
   id="g5"
   transform="translate(8,7.938)">&#10;	<path
   fill="#f7941e"
   d="m 79.6,378.829 c 0,-25.824 19.395,-47.281 44.626,-51.055 -0.626,-0.023 -1.255,-0.049 -1.887,-0.049 -28.314,0 -51.269,22.881 -51.269,51.104 0,28.224 22.954,51.103 51.269,51.103 0.634,0 1.263,-0.023 1.891,-0.047 C 98.995,426.111 79.6,404.654 79.6,378.829 Z"
   id="path5" />&#10;</g>&#10;&#10;&#10;&#10;&#10;&#10;&#10;&#10;&#10;<g
   id="g16"
   transform="translate(8,7.938)">&#10;	&#10;		<linearGradient
   id="SVGID_1_"
   gradientUnits="userSpaceOnUse"
   x1="502.3848"
   y1="-40.075699"
   x2="502.3848"
   y2="-113.7106"
   gradientTransform="translate(-371,474.5)">&#10;		<stop
   offset="0.3033"
   style="stop-color:#473788"
   id="stop11" />&#10;		<stop
   offset="0.872"
   style="stop-color:#2C2255"
   id="stop12" />&#10;	</linearGradient>&#10;	<path
   fill="url(#SVGID_1_)"
   d="m 164.653,376.089 c -0.164,-2.021 -0.504,-3.992 -1.012,-5.896 h -64.51 c -0.508,1.902 -0.849,3.874 -1.013,5.896 z"
   id="path12"
   style="fill:url(#SVGID_1_)" />&#10;	&#10;		<linearGradient
   id="SVGID_2_"
   gradientUnits="userSpaceOnUse"
   x1="502.38571"
   y1="-40.074699"
   x2="502.38571"
   y2="-113.7096"
   gradientTransform="translate(-371,474.5)">&#10;		<stop
   offset="0.3033"
   style="stop-color:#473788"
   id="stop13" />&#10;		<stop
   offset="0.872"
   style="stop-color:#2C2255"
   id="stop14" />&#10;	</linearGradient>&#10;	<path
   fill="url(#SVGID_2_)"
   d="M 164.653,381.565 H 98.119 c 0.164,2.021 0.503,3.991 1.012,5.896 h 64.511 c 0.508,-1.904 0.847,-3.875 1.011,-5.896 z"
   id="path14"
   style="fill:url(#SVGID_2_)" />&#10;	&#10;		<linearGradient
   id="SVGID_3_"
   gradientUnits="userSpaceOnUse"
   x1="502.38571"
   y1="-40.077599"
   x2="502.38571"
   y2="-113.7071"
   gradientTransform="translate(-371,474.5)">&#10;		<stop
   offset="0.3033"
   style="stop-color:#473788"
   id="stop15" />&#10;		<stop
   offset="0.8631"
   style="stop-color:#2C2255"
   id="stop16" />&#10;	</linearGradient>&#10;	<path
   fill="url(#SVGID_3_)"
   d="m 131.386,412.217 c 13.397,0 24.945,-7.893 30.263,-19.281 h -60.526 c 5.318,11.388 16.866,19.281 30.263,19.281 z"
   id="path16"
   style="fill:url(#SVGID_3_)" />&#10;</g>&#10;<g
   id="g19"
   transform="translate(8,7.938)">&#10;	<path
   fill="#ffffff"
   d="m 93.188,381.565 h 4.884 66.706 8.763 6.657 c 0.046,-0.871 0.072,-1.748 0.072,-2.632 0,-0.955 -0.035,-1.901 -0.089,-2.845 H 173.54 164.777 98.071 92.842 82.507 c -0.054,0.942 -0.089,1.89 -0.089,2.845 0,0.884 0.026,1.761 0.072,2.632 z"
   id="path17" />&#10;	<path
   fill="#ffffff"
   d="M 100.928,364.718 H 84.376 c -0.544,1.783 -0.895,3.612 -1.232,5.477 h 8.525 7.259 64.679 9.16 6.547 c -0.338,-1.863 -0.773,-3.692 -1.316,-5.477"
   id="path18" />&#10;	<path
   fill="#ffffff"
   d="m 173.026,387.46 h -9.16 -64.678 -6.912 -9.133 c 0.328,1.863 0.701,3.691 1.236,5.476 h 16.807 60.682 9.962 6.488 c 0.534,-1.783 0.965,-3.611 1.294,-5.476 z"
   id="path19" />&#10;</g>&#10;</svg>
