<?xml version="1.0" encoding="UTF-8" standalone="no"?>
<svg
   class="elastic-logo"
   width="40.152699"
   height="39.983017"
   viewBox="0 0 40.152699 39.983017"
   fill="none"
   version="1.1"
   id="svg8"
   sodipodi:docname="elasticsearch.svg"
   inkscape:version="1.3 (0e150ed6c4, 2023-07-21)"
   xmlns:inkscape="http://www.inkscape.org/namespaces/inkscape"
   xmlns:sodipodi="http://sodipodi.sourceforge.net/DTD/sodipodi-0.dtd"
   xmlns="http://www.w3.org/2000/svg"
   xmlns:svg="http://www.w3.org/2000/svg">
  <defs
     id="defs8" />
  <sodipodi:namedview
     id="namedview8"
     pagecolor="#ffffff"
     bordercolor="#666666"
     borderopacity="1.0"
     inkscape:showpageshadow="2"
     inkscape:pageopacity="0.0"
     inkscape:pagecheckerboard="0"
     inkscape:deskcolor="#d1d1d1"
     inkscape:zoom="4.7735043"
     inkscape:cx="62.951656"
     inkscape:cy="36.555953"
     inkscape:window-width="1920"
     inkscape:window-height="1017"
     inkscape:window-x="1912"
     inkscape:window-y="-8"
     inkscape:window-maximized="1"
     inkscape:current-layer="svg8" />
  <path
     d="m 40.1527,20.958815 c 0,-3.3602 -2.0874,-6.3131 -5.227,-7.4501 0.1358,-0.7128 0.2037,-1.4256 0.2037,-2.1553 C 35.1294,5.0912253 30.0382,0 23.793,0 c -3.6657,0 -7.0599,1.7479853 -9.1982,4.7008953 -1.0522,-0.8146 -2.3419,-1.25583 -3.6826,-1.25583 -3.32629,0 -6.02463,2.69834 -6.02463,6.0246 0,0.7297497 0.13576,1.4425497 0.37335,2.1043497 C 2.13831,12.694115 0,15.697915 0,19.041115 c 0,3.3772 2.10437,6.3301 5.24395,7.4672 -0.13576,0.6958 -0.20365,1.4255 -0.20365,2.1552 0,6.2453 5.0743,11.3195 11.3195,11.3195 3.6657,0 7.0598,-1.7649 9.1811,-4.7179 1.0522,0.8316 2.342,1.2898 3.6827,1.2898 3.3262,0 6.0246,-2.6983 6.0246,-6.0246 0,-0.7297 -0.1358,-1.4425 -0.3734,-2.1044 3.1226,-1.12 5.2779,-4.1238 5.2779,-7.4671 z"
     fill="#ffffff"
     id="path1" />
  <path
     d="m 15.7824,17.225315 8.7908,4.0051 8.8588,-7.7726 c 0.1357,-0.6449 0.1866,-1.2728 0.1866,-1.9517 0,-5.4645397 -4.4463,-9.9108697 -9.9109,-9.9108697 -3.2753,0 -6.3131,1.61222 -8.1629,4.31057 l -1.4764,7.6537997 z"
     fill="#fed10a"
     id="path2" />
  <path
     d="m 6.68665,26.525315 c -0.13577,0.6449 -0.18668,1.3067 -0.18668,1.9855 0,5.4816 4.46333,9.9279 9.94483,9.9279 3.2923,0 6.364,-1.6292 8.2139,-4.3445 l 1.4594,-7.6198 -1.9516,-3.7336 -8.8248,-4.0221 z"
     fill="#24bbb1"
     id="path3" />
  <path
     d="m 6.63518,11.319515 6.02462,1.4255 1.3237,-6.8391697 c -0.8146,-0.62792 -1.8328,-0.96734 -2.885,-0.96734 -2.61351,0 -4.75182,2.12134 -4.75182,4.7518 0,0.5600097 0.10182,1.1201097 0.2885,1.6292097 z"
     fill="#ef5098"
     id="path4" />
  <path
     d="m 6.10983,12.762015 c -2.68137,0.8824 -4.56512,3.462 -4.56512,6.2961 0,2.7662 1.71404,5.227 4.27662,6.2113 l 8.45147,-7.6368 -1.5444,-3.3093 z"
     fill="#1ba9f5"
     id="path5" />
  <path
     d="m 26.186,34.094215 c 0.8316,0.6279 1.8329,0.9843 2.8681,0.9843 2.6135,0 4.7518,-2.1214 4.7518,-4.7518 0,-0.577 -0.1018,-1.1371 -0.2885,-1.6462 l -6.0076,-1.4086 z"
     fill="#93c83e"
     id="path6" />
  <path
     d="m 27.4075,25.693715 6.6186,1.5443 c 2.6984,-0.8825 4.5651,-3.462 4.5651,-6.3131 0,-2.7492 -1.714,-5.227 -4.2766,-6.1943 l -8.6551,7.5859 z"
     fill="#0077cc"
     id="path7" />
</svg>
