<?xml version="1.0" encoding="UTF-8" standalone="no"?>
<svg
   xml:space="preserve"
   x="0"
   y="0"
   version="1.1"
   viewBox="0 0 3068 3068"
   id="svg8"
   sodipodi:docname="fastify-black.svg"
   width="3068"
   height="3068"
   inkscape:version="1.3 (0e150ed6c4, 2023-07-21)"
   xmlns:inkscape="http://www.inkscape.org/namespaces/inkscape"
   xmlns:sodipodi="http://sodipodi.sourceforge.net/DTD/sodipodi-0.dtd"
   xmlns="http://www.w3.org/2000/svg"
   xmlns:svg="http://www.w3.org/2000/svg"><defs
   id="defs8" /><sodipodi:namedview
   id="namedview8"
   pagecolor="#ffffff"
   bordercolor="#666666"
   borderopacity="1.0"
   inkscape:showpageshadow="2"
   inkscape:pageopacity="0.0"
   inkscape:pagecheckerboard="0"
   inkscape:deskcolor="#d1d1d1"
   inkscape:zoom="0.12316585"
   inkscape:cx="-255.75271"
   inkscape:cy="990.5343"
   inkscape:window-width="1643"
   inkscape:window-height="798"
   inkscape:window-x="167"
   inkscape:window-y="188"
   inkscape:window-maximized="0"
   inkscape:current-layer="svg8" />&#10;  <path
   fill="#000000"
   d="m 2826.491,904.23276 87.2454,-224.85927 -3.5977,-14.39099 -859.8619,226.65814 c 91.7426,-133.11669 60.2623,-239.25026 60.2623,-239.25026 0,0 -274.3283,175.39023 -482.0982,170.89304 -207.77,-4.49719 -274.3284,-60.26228 -592.729,41.37411 -318.40076,101.63643 -408.34446,412.84167 -500.98648,480.29947 -91.74258,66.5583 -380.46188,288.7193 -380.46188,288.7193 l 260.83675,-83.6477 c 0,0 -73.75384,70.1561 -225.75871,274.3283 v 0.8995 c 24.2848,34.1786 131.31782,175.3902 237.45139,144.8093 11.69268,-3.5977 25.18424,-9.8938 40.47467,-17.0893 47.67016,26.9831 111.5302,53.0668 180.78685,60.2623 0,0 -46.77073,-53.9662 -86.34596,-116.9268 l 32.37974,-20.6871 -5.39663,3.5978 99.83752,35.9775 -10.79325,-93.5415 h 0.89944 l 97.1392,35.9775 -11.69268,-85.4465 36.87692,-17.9888 101.63639,-384.959 420.93652,-287.8199 -33.2792,84.5471 c -85.4465,209.5688 -245.5463,259.0379 -245.5463,259.0379 l -66.55831,26.0836 c -50.36847,58.4634 -71.05552,72.8544 -88.14483,270.7306 40.47467,-10.7933 78.25103,-12.5921 113.32904,-3.5978 179.8874,48.5696 241.9486,265.334 193.379,325.5963 -11.6927,14.391 -40.4747,40.4746 -77.3516,70.1561 h -72.8544 l -0.8994,59.3628 -7.1955,6.2961 h -74.6533 l -0.89944,57.5639 -19.78761,14.391 c -69.25666,1.7989 -158.30093,-59.3628 -158.30093,-59.3628 0.89944,55.7651 46.77073,141.2116 46.77073,141.2116 l 8.09494,-4.4972 -7.1955,5.3966 c 0,0 187.08291,124.1223 304.90921,78.2511 104.3346,-41.3741 375.0652,-254.5407 608.9188,-355.2777 l 706.9575,-187.0829 93.5415,-241.0491 -538.7628,142.111 v -217.6637 l 632.3043,-166.3959 93.5414,-241.9486 -725.8457,191.5801 v -216.7643 z m -1283.4967,459.61234 168.1948,-44.0724 1.7988,8.095 -52.1673,135.815 -173.5914,45.8712 z m 57.564,290.5182 -173.5913,45.8713 56.6645,-145.7088 167.2953,-44.0724 2.6983,8.0949 z m 226.6581,-48.5696 -173.5913,45.8713 56.6645,-145.7088 167.2953,-44.0724 2.6983,8.0949 z"
   id="path1"
   style="stroke-width:0.899437" />&#10;  &#10;</svg>
