<?xml version="1.0" encoding="UTF-8" standalone="no"?>
<svg
   height="225"
   viewBox="0 0 225 225"
   width="225"
   version="1.1"
   id="svg16"
   sodipodi:docname="golang.svg"
   inkscape:version="1.2 (dc2aedaf03, 2022-05-15)"
   xmlns:inkscape="http://www.inkscape.org/namespaces/inkscape"
   xmlns:sodipodi="http://sodipodi.sourceforge.net/DTD/sodipodi-0.dtd"
   xmlns="http://www.w3.org/2000/svg"
   xmlns:svg="http://www.w3.org/2000/svg">
  <defs
     id="defs20" />
  <sodipodi:namedview
     id="namedview18"
     pagecolor="#ffffff"
     bordercolor="#666666"
     borderopacity="1.0"
     inkscape:showpageshadow="2"
     inkscape:pageopacity="0.0"
     inkscape:pagecheckerboard="0"
     inkscape:deskcolor="#d1d1d1"
     showgrid="false"
     inkscape:zoom="3.025641"
     inkscape:cx="71.720339"
     inkscape:cy="91.881356"
     inkscape:window-width="1920"
     inkscape:window-height="1017"
     inkscape:window-x="1912"
     inkscape:window-y="-8"
     inkscape:window-maximized="1"
     inkscape:current-layer="svg16" />
  <g
     fill="#000000"
     fill-rule="evenodd"
     id="g14"
     transform="translate(9.5847458,69.40678)"
     style="fill:#74cddd;fill-opacity:1">
    <path
       d="m 16.2,24.1 c -0.4,0 -0.5,-0.2 -0.3,-0.5 L 18,20.9 c 0.2,-0.3 0.7,-0.5 1.1,-0.5 h 35.7 c 0.4,0 0.5,0.3 0.3,0.6 l -1.7,2.6 c -0.2,0.3 -0.7,0.6 -1,0.6 z"
       id="path2"
       style="fill:#74cddd;fill-opacity:1" />
    <path
       d="M 1.1,33.3 C 0.7,33.3 0.6,33.1 0.8,32.8 L 2.9,30.1 C 3.1,29.8 3.6,29.6 4,29.6 h 45.6 c 0.4,0 0.6,0.3 0.5,0.6 l -0.8,2.4 c -0.1,0.4 -0.5,0.6 -0.9,0.6 z"
       id="path4"
       style="fill:#74cddd;fill-opacity:1" />
    <path
       d="m 25.3,42.5 c -0.4,0 -0.5,-0.3 -0.3,-0.6 l 1.4,-2.5 c 0.2,-0.3 0.6,-0.6 1,-0.6 h 20 c 0.4,0 0.6,0.3 0.6,0.7 l -0.2,2.4 c 0,0.4 -0.4,0.7 -0.7,0.7 z"
       id="path6"
       style="fill:#74cddd;fill-opacity:1" />
    <g
       transform="translate(55)"
       id="g12"
       style="fill:#74cddd;fill-opacity:1">
      <path
         d="m 74.1,22.3 c -6.3,1.6 -10.6,2.8 -16.8,4.4 -1.5,0.4 -1.6,0.5 -2.9,-1 -1.5,-1.7 -2.6,-2.8 -4.7,-3.8 -6.3,-3.1 -12.4,-2.2 -18.1,1.5 -6.8,4.4 -10.3,10.9 -10.2,19 0.1,8 5.6,14.6 13.5,15.7 6.8,0.9 12.5,-1.5 17,-6.6 0.9,-1.1 1.7,-2.3 2.7,-3.7 -3.6,0 -8.1,0 -19.3,0 -2.1,0 -2.6,-1.3 -1.9,-3 1.3,-3.1 3.7,-8.3 5.1,-10.9 0.3,-0.6 1,-1.6 2.5,-1.6 H 77.4 C 77.2,35 77.2,37.7 76.8,40.4 75.7,47.6 73,54.2 68.6,60 61.4,69.5 52,75.4 40.1,77 30.3,78.3 21.2,76.4 13.2,70.4 5.8,64.8 1.6,57.4 0.5,48.2 -0.8,37.3 2.4,27.5 9,18.9 16.1,9.6 25.5,3.7 37,1.6 46.4,-0.1 55.4,1 63.5,6.5 c 5.3,3.5 9.1,8.3 11.6,14.1 0.6,0.9 0.2,1.4 -1,1.7 z"
         id="path8"
         style="fill:#74cddd;fill-opacity:1" />
      <path
         d="M 107.2,77.6 C 98.1,77.4 89.8,74.8 82.8,68.8 76.9,63.7 73.2,57.2 72,49.5 70.2,38.2 73.3,28.2 80.1,19.3 87.4,9.7 96.2,4.7 108.1,2.6 c 10.2,-1.8 19.8,-0.8 28.5,5.1 7.9,5.4 12.8,12.7 14.1,22.3 1.7,13.5 -2.2,24.5 -11.5,33.9 -6.6,6.7 -14.7,10.9 -24,12.8 -2.7,0.5 -5.4,0.6 -8,0.9 z M 131,37.2 c -0.1,-1.3 -0.1,-2.3 -0.3,-3.3 C 128.9,24 119.8,18.4 110.3,20.6 101,22.7 95,28.6 92.8,38 c -1.8,7.8 2,15.7 9.2,18.9 5.5,2.4 11,2.1 16.3,-0.6 7.9,-4.1 12.2,-10.5 12.7,-19.1 z"
         fill-rule="nonzero"
         id="path10"
         style="fill:#74cddd;fill-opacity:1" />
    </g>
  </g>
</svg>
