<?xml version="1.0" encoding="UTF-8" standalone="no"?>
<svg
   width="2500"
   height="2500"
   viewBox="0 0 316.04938 316"
   preserveAspectRatio="xMinYMin"
   version="1.1"
   id="svg3"
   sodipodi:docname="haml.svg"
   inkscape:version="1.3 (0e150ed6c4, 2023-07-21)"
   xmlns:inkscape="http://www.inkscape.org/namespaces/inkscape"
   xmlns:sodipodi="http://sodipodi.sourceforge.net/DTD/sodipodi-0.dtd"
   xmlns="http://www.w3.org/2000/svg"
   xmlns:svg="http://www.w3.org/2000/svg">
  <defs
     id="defs3" />
  <sodipodi:namedview
     id="namedview3"
     pagecolor="#ffffff"
     bordercolor="#666666"
     borderopacity="1.0"
     inkscape:showpageshadow="2"
     inkscape:pageopacity="0.0"
     inkscape:pagecheckerboard="0"
     inkscape:deskcolor="#d1d1d1"
     inkscape:zoom="0.11016724"
     inkscape:cx="1275.3338"
     inkscape:cy="1298.0266"
     inkscape:window-width="1507"
     inkscape:window-height="1008"
     inkscape:window-x="279"
     inkscape:window-y="0"
     inkscape:window-maximized="0"
     inkscape:current-layer="svg3" />
  <g
     id="g3"
     transform="translate(-7.9627247,0.02790412)">
    <path
       d="m 159.51461,158.40576 -18.01147,128.62093 c 0,0 -29.36532,10.76787 -55.989912,-11.74563 L 114.68267,150.5745 59.671344,38.985616 c 0,0 21.730789,-9.201618 35.630325,-6.069117 L 143.65705,124.1458 227.44687,52.885152 c 0,0 28.19084,9.788441 30.73569,19.185111 z"
       fill="#ecdfa7"
       id="path1"
       style="stroke-width:0.833555" />
    <path
       d="m 269.53725,171.26335 c -1.37037,-2.74073 -3.13167,-5.28558 -5.08969,-7.63537 -3.91521,-4.50203 -8.61396,-8.22219 -13.70365,-11.1588 -4.89464,-3.13167 -10.3761,-5.67652 -15.85756,-7.43865 l -2.15391,-0.58766 -1.7613,-0.58766 c -1.17531,-0.39177 -2.15391,-0.97859 -3.1325,-1.37036 -1.95802,-1.17448 -3.32839,-2.34896 -4.30698,-3.91521 -1.95802,-2.93662 -2.15391,-7.43948 -1.17531,-12.1374 0.19671,-1.17531 0.58765,-2.34979 0.97942,-3.52427 0.39177,-1.17448 0.78354,-2.34896 1.17532,-3.71932 0.39093,-1.76214 0.58682,-3.52427 0.58682,-5.67735 l 0.97859,-0.78354 11.74647,-9.78844 c 2.15307,-1.76214 4.30698,-3.719324 6.46005,-5.48146 0.78354,0.391771 1.56708,0.978594 2.15391,1.370365 0,0 6.06828,0.587656 9.39667,-8.613962 l -1.76214,-1.174479 1.17531,-0.978594 2.93579,-2.545678 c 0.97942,-0.782709 1.76213,-1.761303 2.1539,-3.523439 -1.76213,-0.195886 -2.93661,0.391771 -3.91521,1.175313 l -3.1325,2.348126 -2.15391,1.567084 -27.01553,-18.599122 c 1.36954,-1.174479 2.54485,-2.153073 3.91521,-3.327553 l 5.67652,-5.090523 0.58765,-0.586823 c 0.58766,0.391771 0.97943,0.783543 1.56709,1.17448 a 52.616517,52.616517 0 0 0 4.30614,2.74073 l 8.61397,4.698752 c 2.74073,1.56625 5.67734,3.131667 8.61396,4.502866 1.37036,0.782709 2.93661,1.370365 4.50286,1.957188 0.78355,0.195886 1.56625,0.587657 2.34896,0.783542 0.39177,0 0.97943,0.195052 1.37037,0.195052 h 0.97943 c 0.39177,0 0.7827,-0.195052 1.17447,-0.782708 v -0.195886 c 0,-0.195885 0,-0.391771 0.19589,-0.586823 v -0.783542 c 0,-0.391771 -0.19589,-0.586823 -0.39177,-0.783542 -0.19589,-0.391771 -0.58766,-0.782709 -0.78354,-1.17448 -0.58683,-0.586823 -1.17448,-1.370365 -1.76131,-1.761302 -1.17531,-1.175313 -2.54567,-2.153907 -3.72015,-3.132501 -2.54485,-1.958022 -5.28558,-3.719324 -8.02714,-5.48146 -2.7399,-1.762137 -5.48063,-3.328387 -8.41724,-4.698752 -1.37037,-0.783542 -2.93662,-1.370365 -4.50287,-1.958022 -0.78354,-0.195052 -1.56625,-0.586823 -2.54484,-0.782708 -0.39178,0 -0.97943,-0.195886 -1.56709,-0.195886 -0.39094,0 -0.58682,0 -1.17364,0.195886 -0.39178,0.195885 -0.97943,0.391771 -1.56709,0.978594 -1.36953,0.587656 -2.54401,1.175313 -3.52344,1.958021 l -5.87323,3.328387 c -1.7613,1.370365 -3.71932,2.936616 -5.48146,4.306981 l -1.95719,-1.370365 c 0,0 -8.22302,0.782708 -5.48229,6.068283 l 0.78354,0.783542 c -7.83125,6.460054 -15.46579,13.116827 -23.10115,19.576882 -7.83042,6.65594 -15.46579,13.311876 -23.29621,20.163706 l -11.55057,10.18104 c -0.58766,0.58683 -1.17531,1.17448 -1.95802,1.76131 -0.39177,-1.17448 -0.9786,-2.15308 -1.37037,-3.13167 l -2.74073,-5.87323 -5.28557,-11.74647 c -3.52428,-7.831248 -7.04771,-15.661667 -10.76787,-23.49292 l -10.96292,-23.296206 -1.76214,-3.524272 h 2.34979 c 0,0 0.78271,-6.460054 -3.91604,-7.635367 0,0 -0.78354,0 -1.95719,0.196719 -1.76213,-3.524272 -3.32838,-7.047712 -5.09052,-10.571984 l -0.78354,-2.936615 c -0.19505,-0.978594 -0.78271,-1.370365 -1.17365,-1.762136 -0.39177,-0.195886 -0.78354,-0.391771 -0.97942,-0.391771 -0.58683,-0.195052 -0.9786,-0.195052 -1.56626,-0.391771 -0.97859,-0.195052 -1.76046,-0.195052 -2.54401,-0.195052 -1.76213,0 -3.32755,0.195885 -4.893801,0.391771 -3.132501,0.391771 -6.460054,0.978594 -9.593389,1.761302 -3.131667,0.783542 -6.264168,1.567084 -9.39667,2.545678 -1.56625,0.586823 -3.132501,0.978594 -4.502866,1.761303 l -2.348959,1.175313 c -0.391771,0.195052 -0.783542,0.586823 -1.175313,0.783542 l -0.586823,0.586823 c -0.195885,0.195885 -0.195885,0.391771 -0.391771,0.586823 v 0.783542 c 0.195886,0.783543 0.587657,0.978594 0.979428,1.17448 0.391771,0.195886 0.586823,0.391771 0.783542,0.391771 0.586823,0.195052 0.97776,0.195052 1.369531,0.391771 0.783542,0.195052 1.762136,0.195052 2.544845,0.195052 1.567084,0 3.328386,-0.195885 4.894637,-0.391771 3.132501,-0.391771 6.460054,-0.782709 9.592555,-1.370365 l 9.592554,-1.565418 c 1.56709,-0.195885 3.1325,-0.587656 4.89464,-0.979427 1.37036,2.74073 2.74073,5.677346 4.11109,8.41891 -9.00573,0.782708 -23.10115,1.957188 -31.910997,2.935782 -0.978594,-1.762136 -1.761302,-3.327553 -2.74073,-5.089689 -0.195052,-0.391771 -0.782708,-0.783542 -1.370365,-0.587657 -0.586823,0.195886 -0.783542,0.783542 -0.586823,1.370365 0.586823,1.567084 1.17448,2.936616 1.762136,4.502866 -2.741563,0.391771 -4.502866,0.783542 -4.698751,1.175313 -0.978594,1.761303 1.957188,10.962921 5.873231,13.31188 0,0 1.56625,-0.587657 4.30698,-1.175313 l 4.111096,9.397503 11.745629,26.624593 11.941514,26.625422 c 3.91521,8.80985 8.02714,17.61886 12.13823,26.62459 0,0 0,0.19589 0.19506,0.19589 l -1.76131,5.87323 -4.69875,16.44438 c -2.93661,10.96292 -5.67734,22.12256 -8.41891,33.08548 l -4.11026,16.64027 -3.915209,16.6411 c -2.74073,11.1588 -5.286409,22.12172 -8.41891,33.08464 0,0.19589 0,0.58766 0.195886,0.78354 1.567084,2.15308 3.720157,3.71933 5.677346,5.28558 2.153907,1.56625 4.30698,2.74073 6.460057,3.91521 4.5037,2.34979 9.20245,4.11109 14.09542,5.67734 4.89464,1.37037 9.98516,2.3498 15.27073,2.54485 2.54485,0.19588 5.28558,0 7.83126,-0.39177 2.54484,-0.39094 5.08969,-0.78271 7.83042,-1.56542 0.78354,-0.19588 1.37036,-0.97859 1.56708,-1.76213 v -0.19589 c 2.15307,-10.76704 3.91438,-21.73079 5.8724,-32.49782 l 5.48146,-32.69371 c 1.76213,-10.96292 3.71932,-21.73079 5.48145,-32.69371 0.19589,-1.17532 0.39177,-2.54485 0.58766,-3.71933 0.39177,0.39177 0.58682,0.9786 0.97859,1.37037 1.95803,2.34896 4.30698,4.30698 6.65594,6.06828 4.69876,3.32839 9.78928,5.87323 14.87897,7.83125 5.08969,1.95803 10.3761,3.52344 15.66167,4.69876 3.52427,0.7827 6.85183,1.37036 10.3761,1.7613 -1.56709,3.52427 -2.54568,7.24359 -2.3498,11.35469 0,0.39177 0.19589,0.78354 0.58766,0.97943 h 0.19589 c 3.71932,1.95719 7.63536,3.52344 11.94151,4.50286 4.11193,0.78271 8.61396,1.17448 12.92094,0.58683 4.50287,-0.58683 9.00574,-2.34896 12.53001,-5.28558 3.52344,-2.93661 6.06828,-6.85182 7.63537,-10.96292 l 0.19505,-0.19588 v -0.19589 l 0.58765,-5.28557 v -0.19589 c 1.95719,-1.17531 3.91521,-2.34979 5.8724,-3.91604 2.34979,-1.95719 4.50287,-4.1111 6.06912,-6.85183 1.56708,-2.74073 2.54484,-6.06828 2.34979,-9.39667 -0.19588,-3.1325 -1.37036,-6.265 -2.74156,-9.00573 z m -3.71933,-98.667947 c 0,0 0,0.195052 0,0 z M 251.91839,62.219306 c 2.74073,1.56625 5.28557,3.132501 7.83042,5.089689 1.17531,0.979427 2.54567,1.762136 3.72015,2.936615 0.58683,0.587657 1.17448,0.978594 1.56625,1.567085 l 0.39178,0.390937 h -0.39178 c -0.78354,-0.195886 -1.37036,-0.391771 -2.1539,-0.587657 -1.37037,-0.586823 -2.93662,-1.174479 -4.30698,-1.762136 -2.74073,-1.370365 -5.67652,-2.74073 -8.22219,-4.502032 -2.54485,-1.762136 -5.08969,-3.720158 -7.2436,-5.873232 -0.78354,-0.783542 -1.56625,-1.567084 -2.15307,-2.349792 l 2.93661,1.175313 c 2.54485,0.978594 5.28474,2.348959 8.02631,3.91521 z m -13.31188,-8.613962 0.19505,0.195886 v 0.390937 c 0,0 0,-0.195052 -0.19589,-0.195052 V 53.605344 Z M 99.02016,31.677836 c -2.739063,1.371198 -5.872398,2.350626 -8.807347,3.134168 -3.132501,0.783542 -6.069116,1.370365 -9.201618,1.566251 -1.56625,0.195886 -3.132501,0.195886 -4.698751,0.195886 -0.783542,0 -1.566251,0 -2.153074,-0.195886 h -0.587656 c 0.195885,0 0.195885,-0.195886 0.391771,-0.195886 0.587656,-0.391771 1.370365,-0.586823 1.958021,-0.978594 1.370365,-0.587657 2.936616,-0.979428 4.306981,-1.567084 2.935782,-0.782709 6.068283,-1.565417 9.200784,-2.153074 a 78.91769,78.91769 0 0 1 9.201618,-1.174479 c 0.978594,0 1.957191,0 2.936621,-0.195886 -0.58766,0.587657 -1.56709,0.979428 -2.545683,1.567084 z m 135.86619,66.759451 -12.13823,9.396673 -12.13657,9.59172 c -3.32839,2.74073 -6.65594,5.48146 -9.98433,8.02714 0.19589,-0.19589 0.39177,-0.58766 0.58766,-0.78355 1.56542,-2.1539 3.13167,-4.11109 4.69792,-6.06828 3.32838,-3.91604 6.46005,-8.02714 9.98432,-11.74729 3.52428,-3.71933 7.2436,-7.438652 10.96292,-10.767039 1.95886,-1.762136 3.91605,-3.328387 6.06912,-4.698752 l 1.76214,-1.174479 c 1.76213,1.370365 3.71932,2.74073 5.48146,4.111095 -1.56625,1.370365 -3.52344,2.74073 -5.28558,4.111095 z M 91.386459,74.356706 l 0.978594,0.979427 c 1.958022,1.957188 3.91521,3.91521 5.481461,6.068283 1.567084,2.153907 2.936616,4.502867 3.524276,6.851826 0.39177,1.958855 0.39177,4.111928 -0.58766,5.873231 L 100.58724,93.54265 91.386459,74.355872 Z m 9.592561,20.360423 c 0.58765,-0.587656 0.97859,-1.370365 1.37036,-2.348959 0.58766,-1.370365 0.58766,-2.936615 0.39177,-4.30698 -0.39177,-2.936616 -1.76213,-5.677346 -3.524271,-7.831253 -2.544845,-3.328387 -5.676512,-6.068283 -9.200785,-8.418076 l -2.153907,-4.502866 c -1.370365,-2.936616 -2.74073,-5.873231 -4.30698,-8.613962 2.936615,-0.783542 6.460054,-1.957188 10.376097,-2.936615 3.523439,5.677346 6.655936,11.550577 9.592556,17.619694 3.32839,7.635367 6.65594,15.661672 7.2436,23.883862 0.19588,1.958022 0,4.111096 0,6.265006 0,2.15307 0,4.30698 0.19588,6.46005 0.19589,2.93662 0.78354,6.06912 1.37037,9.00573 z m 46.20147,159.553331 c -0.58682,0.78354 -0.97859,1.37037 -1.7613,1.95719 -0.97943,0.78354 -1.95802,1.17531 -3.1325,0.97943 -0.9786,-0.19589 -1.76214,-1.17532 -2.15391,-2.15391 -0.39177,-0.97859 -0.78271,-2.15307 -0.78271,-3.32755 -0.19589,-2.3498 -0.19589,-4.69875 0.39177,-7.04771 0.39177,-2.3498 1.17448,-4.50287 2.15308,-6.65678 0.58765,-0.97859 1.17531,-1.95718 1.95802,-2.74073 0.78354,-0.78354 1.76213,-1.37036 2.74073,-1.17448 0.97859,0 1.95802,0.9786 2.54484,1.95803 0.39177,0.58682 0.58766,1.17447 0.78354,1.7613 l -2.34979,13.90037 c -0.19588,0.97859 -0.19588,1.7613 -0.39177,2.54484 z m 11.55058,-67.54132 -3.52344,20.55547 c -0.19589,-1.36953 -0.58766,-2.73989 -0.9786,-4.11026 -0.97942,-3.72016 -2.1539,-7.2436 -3.32838,-10.76787 -2.54485,-7.04771 -5.48146,-13.89953 -9.00573,-20.35959 2.1539,7.2436 4.69875,14.09542 7.24359,21.14313 1.37037,3.52344 2.54485,7.04771 3.71933,10.37527 l 1.76213,5.28641 c 0,0.19588 0.19589,0.58682 0.19589,0.78354 -0.58683,3.13167 -1.17532,6.26417 -1.56625,9.59172 l -2.93662,17.81558 c -0.19588,-0.39177 -0.19588,-0.78354 -0.39177,-1.17531 -0.58682,-1.17365 -1.36953,-2.34896 -2.93578,-2.7399 -1.37037,-0.39177 -2.74073,0.39177 -3.91605,1.17448 -0.97859,0.78354 -1.7613,1.95719 -2.54484,2.93661 -1.37037,2.15308 -2.15307,4.69792 -2.54484,7.04772 -0.39178,2.54484 -0.58766,5.08968 0,7.63536 0.19588,1.17448 0.58765,2.54485 1.37036,3.71933 0.58766,1.17448 1.76214,2.34896 3.1325,2.54484 1.37037,0.19589 2.74073,-0.58765 3.52344,-1.56625 0.39177,-0.39177 0.78354,-0.97859 1.17531,-1.37036 -1.3712,9.20161 -2.93661,18.4024 -4.30698,27.79907 a 25.637663,25.637663 0 0 1 -5.28641,1.17531 c -2.34895,0.39177 -4.69791,0.58682 -7.04771,0.78354 -4.8938,0.19506 -9.59255,-0.19672 -14.48719,-1.3712 -4.69792,-0.97859 -9.59255,-2.54484 -14.09542,-4.50286 -4.306982,-1.95719 -8.418077,-4.50203 -11.550578,-8.02631 2.936615,-10.76703 6.265002,-21.5349 9.593388,-32.30193 l 5.08969,-16.24933 4.89464,-16.44438 c 3.32755,-10.96376 6.65594,-21.92668 9.78844,-32.8896 1.56625,-5.48146 2.93661,-10.96375 4.50286,-16.44521 1.17448,-5.67652 3.52344,-10.96292 1.76131,-17.22793 v -0.19505 c -0.19589,-0.19588 -0.39177,-0.19588 -0.39177,0 -0.9786,0.9786 -1.56542,1.7613 -2.34896,2.74073 -2.15308,-4.89464 -4.50287,-9.59339 -6.65594,-14.48719 -0.58766,-1.76213 -1.17532,-3.52427 -1.56625,-5.48146 -0.9786,-4.11109 -1.76214,-8.22302 -1.95802,-12.33412 -0.19506,-2.15307 -0.19506,-4.11109 -0.19506,-6.26416 0,-2.15391 0.19506,-4.306984 0,-6.460058 -0.78354,-8.614795 -4.11193,-16.836985 -7.83125,-24.471519 -2.93662,-6.069117 -6.460054,-11.746462 -10.376097,-17.227923 6.460057,-1.762136 13.312717,-3.524272 18.794177,-4.502866 0.78354,1.762136 1.76213,3.327553 2.54484,5.089689 l 11.74646,23.101154 11.74647,22.905273 5.87323,11.35469 2.93661,5.67651 c 0.78354,1.17531 1.17448,2.54568 1.95719,3.52427 l -7.63537,7.04771 c -0.19505,0.19588 -0.39177,0.58765 0,0.97943 0.19672,0.39177 0.78355,0.39177 0.97943,0.19588 4.1111,-2.93662 8.22219,-6.06911 12.33329,-9.20161 l 12.33411,-9.39667 c 8.22219,-6.26501 16.2485,-12.529173 24.27563,-18.794176 8.02631,-6.265002 16.05261,-12.725056 24.07975,-19.185944 l 0.19505,-0.195052 c 4.30699,4.111095 10.76787,10.179378 17.6197,15.465787 -2.93662,1.56625 -5.67651,3.131667 -8.22219,5.089689 -4.1111,3.132501 -8.02714,6.655936 -11.55058,10.571986 -3.52427,3.91521 -6.85182,7.83042 -9.78844,12.1374 -2.15391,2.93661 -4.11109,6.06828 -6.06828,9.3975 -11.94235,9.78844 -23.68965,19.77193 -35.0435,30.14803 -0.39178,0.39177 -0.39178,0.97942 -0.19589,1.37036 0.39177,0.39177 0.97859,0.58766 1.37036,0.39177 -1.37036,3.91521 -2.1539,7.83126 -2.93661,11.74647 -1.17531,5.48146 -2.34896,10.96292 -3.32838,16.44438 z m 86.53138,26.23365 c -2.74157,2.15307 -6.06912,3.52344 -9.59339,4.30698 -3.52344,0.78354 -7.43865,0.78354 -11.15881,0.39177 -3.52344,-0.39177 -7.24359,-0.97942 -10.76703,-1.95885 -0.39177,-3.13167 0.19588,-6.65511 1.56625,-9.78761 1.37036,0.19589 2.54484,0.19589 3.91521,0.39177 0.58682,0 0.97859,-0.19588 1.17448,-0.78354 0.19588,-0.58766 0,-1.37037 -0.78355,-1.56625 -0.97859,-0.39177 -1.7613,-0.58682 -2.74073,-0.9786 0.78355,-1.37036 1.76214,-2.54484 2.74157,-3.72015 1.17448,-1.17448 2.34896,-2.34896 3.52344,-3.32756 2.54484,1.56625 5.09052,2.74073 8.02714,3.71933 3.32755,0.97943 6.85182,1.37036 10.57114,0.97943 3.52428,-0.39178 7.2436,-2.15391 9.59256,-5.09053 2.15391,-2.54484 3.1325,-5.48146 3.32839,-8.61396 0.39177,1.17531 0.39177,2.54485 0.19588,3.72016 -0.19588,1.56542 -0.39177,3.32755 -0.78354,4.8938 l -0.58682,2.93662 -2.93662,1.76213 c -1.17531,0.78355 -2.15391,1.56626 -3.1325,3.32756 1.76214,0.58765 3.1325,0.39177 4.50287,0 0.19588,0 0.19588,-0.19505 0.39177,-0.19505 -0.19589,0.58682 -0.19589,0.97859 -0.39177,1.56541 -1.56625,3.1325 -3.91521,5.87323 -6.65594,8.02714 z m 19.38016,-25.646 c -0.97776,2.15308 -2.54401,4.1111 -4.30615,5.87323 -0.78354,0.78355 -1.76213,1.56625 -2.54484,2.15308 0,-1.76214 -0.19589,-3.52344 -0.58766,-5.28558 -0.19588,-0.97859 -0.39177,-1.76213 -0.78354,-2.74073 -0.39094,-0.78354 -0.78271,-1.76213 -1.7613,-2.34896 -0.19589,0 -0.39177,0 -0.39177,0.19506 -1.17448,2.93661 -3.13251,5.48229 -5.28558,7.24359 -2.15391,1.76214 -4.89464,2.54568 -7.63537,2.74073 -2.74073,0.19589 -5.67651,-0.39177 -8.61396,-1.17448 -2.93661,-0.78354 -5.87323,-1.76213 -8.80901,-2.74073 l -0.39177,-0.19588 c -0.58766,-0.19589 -1.37037,0 -1.76214,0.39177 -1.56625,1.95802 -2.74073,3.71932 -4.11109,5.67734 -0.9786,1.56625 -1.76214,2.93662 -2.54485,4.50287 -3.52427,-1.37037 -6.85182,-2.54484 -10.3761,-3.91521 -4.89463,-1.95802 -9.78844,-3.91604 -14.2913,-6.265 -4.69875,-2.15308 -9.20079,-4.69875 -13.11683,-7.63537 -3.91521,-2.93662 -7.43865,-6.06828 -9.20078,-9.98433 v -0.19505 a 3.8418568,3.8418568 0 0 0 -1.76214,-1.76213 c 0,-0.39178 0.19589,-0.97943 0.19589,-1.37037 0.58682,-4.69875 1.37036,-9.3975 0.97859,-14.29131 15.85756,-11.1588 31.32334,-22.9061 46.59324,-35.04266 l -0.58682,1.7613 c -0.97859,2.93662 -1.37036,6.265 -1.37036,9.59255 0.19588,3.32839 1.17448,7.04771 3.32755,10.18022 2.15391,3.1325 5.09052,5.48146 8.02714,6.85182 a 26.559575,26.559575 0 0 0 4.50286,1.76214 l 2.34896,0.58765 1.95803,0.39177 c 5.08968,1.37037 9.98432,3.32756 14.48719,5.8724 4.50203,2.54568 8.80901,5.67735 12.33328,9.20162 3.52344,3.52344 6.26417,8.02714 6.65594,12.52917 0.19589,3.1325 -0.19588,5.48146 -1.17531,7.43948 z"
       fill="#3f3e29"
       id="path2"
       style="stroke-width:0.833555" />
    <path
       d="m 134.65132,232.34379 c -1.56625,2.1539 -2.74073,4.69875 -3.32755,7.24359 -0.39178,1.37037 -0.58766,2.74073 -0.58766,3.91521 l -0.19589,3.91605 c -0.39177,5.08969 -0.19588,10.57115 1.37037,15.66167 1.56708,5.08969 3.72016,9.78844 6.265,14.29131 -0.78354,-2.54568 -1.76214,-4.89464 -2.54484,-7.2436 -0.78355,-2.34979 -1.56709,-4.89464 -2.15391,-7.43948 -1.17531,-4.89464 -1.17531,-9.98433 -0.97859,-15.07485 l 0.19588,-3.91521 c 0,-1.17448 0.19589,-2.54485 0.39177,-3.71933 0.58682,-2.34895 1.56542,-4.69875 2.7399,-6.85182 1.3712,-2.15391 2.93661,-4.1111 4.89464,-5.87323 a 24.353988,24.353988 0 0 1 6.265,-4.50287 c -4.89464,1.95802 -9.39751,5.08969 -12.33412,9.59256 z"
       fill="#3f3e29"
       id="path3"
       style="stroke-width:0.833555" />
  </g>
</svg>
