<?xml version="1.0" encoding="UTF-8" standalone="no"?>
<!-- Created with Inkscape (http://www.inkscape.org/) -->

<svg
   width="512"
   height="512"
   viewBox="0 0 135.46667 135.46667"
   version="1.1"
   id="svg3753"
   inkscape:version="1.3 (0e150ed6c4, 2023-07-21)"
   sodipodi:docname="jsx.svg"
   xmlns:inkscape="http://www.inkscape.org/namespaces/inkscape"
   xmlns:sodipodi="http://sodipodi.sourceforge.net/DTD/sodipodi-0.dtd"
   xmlns="http://www.w3.org/2000/svg"
   xmlns:svg="http://www.w3.org/2000/svg"
   xmlns:rdf="http://www.w3.org/1999/02/22-rdf-syntax-ns#"
   xmlns:cc="http://creativecommons.org/ns#"
   xmlns:dc="http://purl.org/dc/elements/1.1/">
  <defs
     id="defs3747">
    <clipPath
       clipPathUnits="userSpaceOnUse"
       id="clipPath821">
      <path
         style="fill:#000000;fill-opacity:1;stroke:none;stroke-width:0.264583px;stroke-linecap:butt;stroke-linejoin:miter;stroke-opacity:1"
         d="M 95.362994,147.23734 125.4121,4.7403199 154.13829,5.3072842 154.32728,151.0171 Z"
         id="path823"
         inkscape:connector-curvature="0" />
    </clipPath>
    <clipPath
       clipPathUnits="userSpaceOnUse"
       id="clipPath821-1">
      <path
         style="fill:#000000;fill-opacity:1;stroke:none;stroke-width:0.264583px;stroke-linecap:butt;stroke-linejoin:miter;stroke-opacity:1"
         d="M 95.362994,147.23734 125.4121,4.7403199 154.13829,5.3072842 154.32728,151.0171 Z"
         id="path823-0"
         inkscape:connector-curvature="0" />
    </clipPath>
  </defs>
  <sodipodi:namedview
     id="base"
     pagecolor="#ffffff"
     bordercolor="#666666"
     borderopacity="1.0"
     inkscape:pageopacity="0.0"
     inkscape:pageshadow="2"
     inkscape:zoom="0.49497475"
     inkscape:cx="219.2031"
     inkscape:cy="408.10163"
     inkscape:document-units="mm"
     inkscape:current-layer="layer1"
     showgrid="false"
     inkscape:window-width="1444"
     inkscape:window-height="950"
     inkscape:window-x="98"
     inkscape:window-y="-8"
     inkscape:window-maximized="0"
     fit-margin-top="0"
     fit-margin-left="0"
     fit-margin-right="0"
     fit-margin-bottom="0"
     inkscape:snap-global="false"
     inkscape:showpageshadow="2"
     inkscape:pagecheckerboard="0"
     inkscape:deskcolor="#d1d1d1" />
  <metadata
     id="metadata3750">
    <rdf:RDF>
      <cc:Work
         rdf:about="">
        <dc:format>image/svg+xml</dc:format>
        <dc:type
           rdf:resource="http://purl.org/dc/dcmitype/StillImage" />
      </cc:Work>
    </rdf:RDF>
  </metadata>
  <g
     inkscape:label="Capa 1"
     inkscape:groupmode="layer"
     id="layer1"
     transform="translate(-7.4835286,-6.7452898)">
    <g
       id="g250"
       transform="matrix(1.9878434,0,0,1.9878434,-3.2859299,-44.992816)">
      <path
         style="opacity:1;vector-effect:none;fill:#f0db4f;fill-opacity:1;stroke:none;stroke-width:1.85177;stroke-linecap:square;stroke-linejoin:miter;stroke-miterlimit:4;stroke-dasharray:none;stroke-dashoffset:0;stroke-opacity:1"
         d="M 7.2949634,47.660252 H 54.04905 L 49.149593,72.541811 H 7.2949634 Z"
         id="rect3766-4"
         inkscape:connector-curvature="0"
         sodipodi:nodetypes="ccccc" />
      <path
         sodipodi:nodetypes="ccccc"
         inkscape:connector-curvature="0"
         id="path52"
         d="M 71.68791,72.541811 H 47.023708 l 5.13061,-24.881559 H 71.68791 Z"
         style="opacity:1;vector-effect:none;fill:#8a53a6;fill-opacity:1;stroke:none;stroke-width:1.85177;stroke-linecap:square;stroke-linejoin:miter;stroke-miterlimit:4;stroke-dasharray:none;stroke-dashoffset:0;stroke-opacity:1" />
      <path
         style="font-size:27.0251px;line-height:1.25;font-family:'Neutra Text';-inkscape-font-specification:'Neutra Text';letter-spacing:0px;word-spacing:0px;fill:#323330;stroke-width:0.122486"
         d="m 24.529712,69.787972 c 3.351113,0 5.648246,-1.783656 5.648246,-5.702296 V 51.167678 h -3.783514 v 12.863948 c 0,1.891757 -0.783728,2.378209 -2.026882,2.378209 -1.297205,0 -1.837707,-0.891829 -2.43226,-1.945808 l -3.080861,1.864732 c 0.891828,1.891757 2.64846,3.459213 5.675271,3.459213 z m 14.593563,0 c 3.594338,0 6.269823,-1.864732 6.269823,-5.269894 0,-3.161937 -1.810682,-4.567242 -5.026669,-5.945522 l -0.945878,-0.405377 c -1.621506,-0.702653 -2.324159,-1.162079 -2.324159,-2.297134 0,-0.918853 0.702653,-1.621506 1.810682,-1.621506 1.081004,0 1.783656,0.459427 2.432259,1.621506 l 2.945736,-1.891757 c -1.243155,-2.189033 -2.972761,-3.026811 -5.377995,-3.026811 -3.378138,0 -5.540146,2.162008 -5.540146,4.999644 0,3.080861 1.810682,4.540217 4.540217,5.702296 l 0.945879,0.405377 c 1.729606,0.756702 2.75656,1.216129 2.75656,2.513334 0,1.081004 -0.999929,1.864732 -2.567385,1.864732 -1.864732,0 -2.918711,-0.972904 -3.729464,-2.297134 l -3.080861,1.783657 c 1.108029,2.189033 3.378138,3.864589 6.891401,3.864589 z"
         id="text3770"
         aria-label="JS" />
      <path
         style="font-size:27.0251px;line-height:1.25;font-family:'Neutra Text';-inkscape-font-specification:'Neutra Text';letter-spacing:0px;word-spacing:0px;fill:#ffffff;stroke-width:0.122486"
         d="m 52.942698,69.544746 h 3.97269 l 2.837635,-4.891543 c 0.567528,-0.972903 1.135055,-2.594409 1.135055,-2.594409 0,0 0.702652,1.648531 1.270179,2.594409 l 2.891686,4.891543 h 4.324016 l -6.107672,-10.080362 4.918568,-8.296706 h -4.02674 l -1.783657,3.161937 c -0.540502,0.945878 -1.053979,2.513334 -1.053979,2.513334 0,0 -0.675627,-1.594481 -1.216129,-2.513334 l -1.864732,-3.161937 h -4.296991 l 4.999643,8.269681 z"
         id="text898"
         aria-label="X" />
    </g>
  </g>
</svg>
