<?xml version="1.0" encoding="UTF-8" standalone="no"?>
<svg
   height="512"
   width="512"
   viewBox="0 0.04 141.63798 141.66221"
   version="1.1"
   id="svg22"
   sodipodi:docname="meme-spiderman.svg"
   xml:space="preserve"
   inkscape:version="1.2 (dc2aedaf03, 2022-05-15)"
   xmlns:inkscape="http://www.inkscape.org/namespaces/inkscape"
   xmlns:sodipodi="http://sodipodi.sourceforge.net/DTD/sodipodi-0.dtd"
   xmlns="http://www.w3.org/2000/svg"
   xmlns:svg="http://www.w3.org/2000/svg"><defs
     id="defs26"><clipPath
       clipPathUnits="userSpaceOnUse"
       id="clipPath1150"><rect
         style="fill:#792c52;fill-opacity:1;stroke:none;stroke-width:13.8342;paint-order:stroke fill markers;stop-color:#000000"
         id="rect1152"
         width="139.89456"
         height="126.42323"
         x="193.22757"
         y="110.91939"
         ry="23.072632" /></clipPath><clipPath
       clipPathUnits="userSpaceOnUse"
       id="clipPath8404"><ellipse
         style="fill:#ffffff;fill-opacity:1;stroke:none;stroke-width:4.91932;stroke-linecap:round;stroke-linejoin:round;stroke-dasharray:none;stroke-opacity:1;paint-order:stroke fill markers;stop-color:#000000"
         id="ellipse8406"
         cx="212.11937"
         cy="181.55656"
         rx="13.997302"
         ry="13.674178"
         transform="matrix(-0.67719727,-0.73580151,-0.75137293,0.65987781,0,0)" /></clipPath></defs><sodipodi:namedview
     id="namedview24"
     pagecolor="#ffffff"
     bordercolor="#666666"
     borderopacity="1.0"
     inkscape:showpageshadow="2"
     inkscape:pageopacity="0.0"
     inkscape:pagecheckerboard="0"
     inkscape:deskcolor="#d1d1d1"
     showgrid="false"
     inkscape:zoom="0.7552"
     inkscape:cx="166.84322"
     inkscape:cy="338.98305"
     inkscape:window-width="1920"
     inkscape:window-height="1017"
     inkscape:window-x="-8"
     inkscape:window-y="-8"
     inkscape:window-maximized="1"
     inkscape:current-layer="svg22" /><g
     id="g8425"
     transform="translate(-130.14981,-295.25289)"><path
       style="fill:#225fe4;stroke-width:0.546733"
       d="m 171.60149,416.95903 c -12.54794,-1.33045 -21.72125,-6.40777 -25.1143,-13.90047 -1.67886,-3.70735 -5.36842,-18.12986 -5.80439,-22.68941 -0.15813,-1.65386 -0.78565,-4.07345 -1.39449,-5.37686 -2.24973,-4.81629 -0.18322,-12.90003 4.4932,-17.57646 2.43639,-2.43639 9.28899,-5.91258 14.69225,-7.4531 4.04372,-1.15289 8.86221,-3.71773 10.81705,-5.75782 1.96654,-2.05227 2.04625,-5.47649 0.25908,-11.12813 -1.49899,-4.74034 -1.4362,-11.93657 0.13205,-15.13326 2.37713,-4.8455 7.56667,-8.18649 13.28718,-8.5542 12.01236,-0.77215 18.44902,9.39008 16.69441,26.35725 -0.51071,4.93855 -0.94402,6.69281 -2.31146,9.35797 -1.68292,3.28004 -1.68292,3.28004 -0.1487,4.50989 0.84382,0.67641 3.32176,2.08093 5.50653,3.12115 6.99028,3.32824 11.30332,8.37692 13.2121,15.46559 0.42278,1.57008 0.95037,2.29701 1.82003,2.50771 2.06925,0.50132 11.75106,1.45187 20.08693,1.9721 5.66145,0.35333 8.9435,0.83784 11.48139,1.69493 1.95457,0.66009 5.74291,1.356 8.41853,1.54646 4.43738,0.31586 4.95999,0.47419 5.9486,1.80221 3.16238,4.24811 -2.59093,6.66027 -12.31688,5.16402 -2.59698,-0.39952 -2.59698,-0.39952 -2.59698,2.91337 0,3.3129 0,3.3129 -2.59698,4.94371 -2.97939,1.87095 -4.02229,2.00183 -6.11256,0.76708 -1.38025,-0.81534 -1.80503,-0.81453 -5.43164,0.0103 -4.53878,1.03233 -5.83827,0.66006 -6.74161,-1.93128 -0.483,-1.38552 -0.78118,-1.58171 -2.00705,-1.32058 -0.81453,0.17351 -2.128,-0.0554 -3.02462,-0.52707 -0.87167,-0.45857 -1.65973,-0.7589 -1.75123,-0.6674 -0.0915,0.0915 0.49867,1.51058 1.31149,3.15349 0.81283,1.64292 1.76403,3.78672 2.11379,4.76401 0.35885,1.0027 1.01833,1.77688 1.51362,1.77688 0.48274,0 3.58181,0.87418 6.88684,1.94262 3.30502,1.06845 6.24285,1.79818 6.52852,1.62163 0.28565,-0.17654 1.31011,-1.80457 2.27656,-3.61782 2.1673,-4.06626 3.87112,-5.08343 7.9486,-4.7453 2.08547,0.17295 3.31311,0.60991 4.28884,1.52657 1.13944,1.07045 1.86065,1.2614 4.33178,1.14693 4.50842,-0.20884 5.31669,0.84553 4.87252,6.35612 -0.9389,11.64841 -0.85488,11.27263 -2.73003,12.20985 -0.94496,0.4723 -2.46521,1.48738 -3.37835,2.25573 -1.67555,1.40988 -6.10109,2.48841 -7.26333,1.77011 -0.33453,-0.20675 -7.53162,-0.53605 -15.99353,-0.73178 -14.57137,-0.33704 -15.52248,-0.42263 -17.97846,-1.61783 -2.85776,-1.39074 -4.40113,-3.21533 -5.60431,-6.62549 -0.44884,-1.27215 -2.40007,-4.00202 -4.49177,-6.28422 l -3.69821,-4.03501 -1.67787,4.82701 c -2.51906,7.24703 -5.46978,10.5312 -11.30445,12.58191 -2.58021,0.90688 -11.10825,2.33025 -12.71429,2.12208 -0.30859,-0.04 -2.43907,-0.27184 -4.7344,-0.51522 z"
       id="path7877"
       sodipodi:nodetypes="sssssssssssssssssssssssssssssssssssssssssssssscsssss" /><path
       style="fill:#ee1212;stroke-width:0.546733"
       d="m 166.75373,416.17136 c -11.27802,-2.30442 -18.15121,-7.26558 -21.00093,-15.15874 -1.71928,-4.76207 -5.23723,-19.64323 -5.24015,-22.16622 -0.001,-0.98786 -0.37903,-2.37142 -0.83975,-3.07456 -2.68769,-4.10194 -0.96297,-12.48003 3.59605,-17.46832 2.97863,-3.2591 8.79284,-6.4529 15.02063,-8.25097 4.14258,-1.19603 9.00302,-3.76222 10.92458,-5.7679 2.27912,-2.37888 2.49673,-4.54272 0.90722,-9.02094 -1.90028,-5.35376 -2.03817,-14.22808 -0.27185,-17.49545 1.49734,-2.76981 4.14361,-5.26914 7.29212,-6.8872 3.86501,-1.98628 10.19799,-1.83524 14.21505,0.33903 5.70631,3.08859 8.37023,9.07607 8.38649,18.84966 0.0121,7.30518 -0.98582,13.08374 -2.69441,15.60149 -0.72502,1.06838 -1.31822,2.15976 -1.31822,2.42528 0,0.83464 2.71146,2.6621 7.03578,4.74192 6.27747,3.01921 10.47322,7.43913 12.13603,12.78443 0.69892,2.24675 1.59084,4.35746 1.98205,4.69048 1.01691,0.86565 8.8506,1.82579 19.30435,2.36603 7.35544,0.38013 9.82867,0.72801 13.39495,1.88408 3.05784,0.99126 5.57397,1.41997 8.36252,1.42485 3.50082,0.006 4.1528,0.17111 5.33064,1.34896 1.73224,1.73224 1.70064,3.21713 -0.0986,4.6324 -1.20438,0.94736 -2.2134,1.13314 -6.15435,1.13314 -2.59259,0 -5.51176,-0.22885 -6.48706,-0.50856 -1.77327,-0.50857 -1.77327,-0.50857 -1.77327,2.49624 0,3.78492 -0.41895,4.53197 -3.46504,6.17876 -2.44157,1.31998 -2.48439,1.32324 -4.6369,0.35259 -1.85356,-0.83584 -2.58626,-0.89098 -4.98985,-0.3755 -5.52264,1.1844 -7.68405,0.63154 -7.68405,-1.96545 0,-1.10328 -0.26908,-1.25748 -2.19435,-1.25748 -1.20689,0 -2.67188,-0.29823 -3.25553,-0.66272 -1.71365,-1.07019 -1.81976,-0.18458 -0.31802,2.65439 0.77259,1.46056 1.75881,3.57817 2.19158,4.7058 0.43277,1.12764 1.14207,2.05025 1.57622,2.05025 0.43415,0 3.62827,0.93914 7.09806,2.08696 l 6.3087,2.08697 2.02934,-3.70208 c 2.22872,-4.06582 4.09723,-5.39244 7.59509,-5.39244 2.17097,0 3.8726,0.70173 5.29967,2.18553 0.69616,0.72382 1.52573,0.8844 3.55952,0.68898 2.08494,-0.20034 2.93713,-0.0238 3.98658,0.82603 1.25752,1.01828 1.32601,1.36027 1.18357,5.90989 -0.0831,2.65597 -0.35599,5.21173 -0.6063,5.67943 -0.25031,0.46772 -0.33155,1.49678 -0.18052,2.28682 0.31951,1.67143 -0.62777,3.74589 -1.71053,3.74589 -0.41202,0 -1.78134,0.86238 -3.04292,1.91641 -2.29379,1.91641 -2.29379,1.91641 -17.41049,1.62609 -18.6282,-0.35775 -20.898,-0.53378 -23.87778,-1.85188 -2.87682,-1.27256 -4.58092,-3.14236 -5.88153,-6.45346 -0.53899,-1.37216 -2.447,-4.09582 -4.24002,-6.05259 -1.79302,-1.95677 -3.26004,-3.76821 -3.26004,-4.02542 0,-0.25721 -0.24603,-0.46766 -0.54673,-0.46766 -0.30071,0 -0.54674,0.23317 -0.54674,0.51815 0,0.28499 -0.75063,2.59265 -1.66808,5.12813 -2.71276,7.49708 -6.46107,10.81374 -14.31337,12.66508 -4.22136,0.99528 -14.1277,0.99288 -19.00943,-0.004 z m 48.47936,-10.51582 c -0.34273,-0.46772 -0.23489,-0.68342 0.34167,-0.68342 0.46335,0 1.34663,-0.81578 1.96285,-1.81285 0.61623,-0.99707 1.62042,-2.26535 2.23153,-2.8184 2.71028,-2.45277 0.35374,-3.34284 -2.93736,-1.10944 -2.11975,1.4385 -3.05905,1.7025 -3.05905,0.85978 0,-0.64795 2.50242,-2.62627 3.8718,-3.06089 0.78116,-0.24793 0.92447,-0.56686 0.56286,-1.25268 -0.2668,-0.50604 -0.78202,-2.36315 -1.14491,-4.12691 -0.65982,-3.20683 -0.65982,-3.20683 -2.6582,-2.86497 -1.09911,0.18802 -3.47456,0.49635 -5.27878,0.68519 -1.80421,0.18883 -3.66765,0.54095 -4.14097,0.78248 -1.23334,0.62936 -2.33357,4.59975 -1.63588,5.9034 0.92702,1.73215 6.00185,5.99336 7.99686,6.71476 2.19934,0.79529 2.66614,2.41626 0.54232,1.88321 -1.33817,-0.33586 -1.33817,-0.33586 0.0506,2.81108 2.17468,4.92769 2.52788,5.1157 3.20887,1.70813 0.35872,-1.79505 0.39204,-3.20051 0.0858,-3.61847 z m -55.52723,4.67245 c 1.80467,-3.37205 3.50047,-16.6766 3.12003,-24.47837 -0.19832,-4.06689 0.32651,-3.82561 -10.77933,-4.95575 -3.12734,-0.31825 -6.54803,-0.93877 -7.60152,-1.37895 -1.05349,-0.44017 -2.01567,-0.70008 -2.13819,-0.57756 -0.12252,0.12251 0.62964,4.00071 1.67145,8.61822 3.50451,15.53257 4.78621,18.07763 11.2644,22.36768 2.90943,1.92671 3.6144,1.99064 4.46316,0.40473 z m 31.55776,-29.27343 c 1.48257,-1.95515 3.37347,-6.15984 3.37347,-7.50139 0,-1.64312 -1.75424,-3.57194 -3.24864,-3.57194 -1.85928,0 -13.67735,-3.79992 -16.93945,-5.44662 -2.13079,-1.07562 -4.23583,-2.81934 -6.53703,-5.41497 -4.20145,-4.73901 -6.58804,-5.82477 -11.87121,-5.40069 -1.98163,0.15907 -3.85211,0.53837 -4.15664,0.8429 -1.06916,1.06916 -1.73661,8.37858 -1.00861,11.04552 1.53649,5.62869 8.50311,9.92385 22.71238,14.00295 12.69743,3.64511 15.81377,3.89974 17.67573,1.44424 z"
       id="path7875"
       sodipodi:nodetypes="cscsssssssssssssssscssssssssssssssscsssssssssssssssssssccsssssssssssssssssssssssssssssssssssss" /><path
       style="fill:#d90f0f;stroke-width:0.546733"
       d="m 166.75373,416.17136 c -11.27802,-2.30442 -18.15121,-7.26558 -21.00093,-15.15874 -1.71928,-4.76207 -5.23723,-19.64323 -5.24015,-22.16622 -0.001,-0.98786 -0.37903,-2.37142 -0.83975,-3.07456 -2.68769,-4.10194 -0.96297,-12.48003 3.59605,-17.46832 2.97863,-3.2591 8.79284,-6.4529 15.02063,-8.25097 4.14258,-1.19603 9.00302,-3.76222 10.92458,-5.7679 2.27912,-2.37888 2.49673,-4.54272 0.90722,-9.02094 -1.90028,-5.35376 -2.03817,-14.22808 -0.27185,-17.49545 1.49734,-2.76981 4.14361,-5.26914 7.29212,-6.8872 3.86501,-1.98628 10.19799,-1.83524 14.21505,0.33903 5.70631,3.08859 8.37023,9.07607 8.38649,18.84966 0.0121,7.30518 -0.98582,13.08374 -2.69441,15.60149 -0.72502,1.06838 -1.31822,2.15976 -1.31822,2.42528 0,0.83464 2.71146,2.6621 7.03578,4.74192 6.27747,3.01921 10.47322,7.43913 12.13603,12.78443 0.69892,2.24675 1.59084,4.35746 1.98205,4.69048 1.01691,0.86565 8.8506,1.82579 19.30435,2.36603 7.35544,0.38013 9.82867,0.72801 13.39495,1.88408 3.05784,0.99126 5.57397,1.41997 8.36252,1.42485 3.50082,0.006 4.1528,0.17111 5.33064,1.34896 1.73224,1.73224 1.70064,3.21713 -0.0986,4.6324 -1.20438,0.94736 -2.2134,1.13314 -6.15435,1.13314 -2.59259,0 -5.51176,-0.22885 -6.48706,-0.50856 -1.77327,-0.50857 -1.77327,-0.50857 -1.77327,2.49624 0,3.78492 -0.41895,4.53197 -3.46504,6.17876 -2.44157,1.31998 -2.48439,1.32324 -4.6369,0.35259 -1.85356,-0.83584 -2.58626,-0.89098 -4.98985,-0.3755 -5.52264,1.1844 -7.68405,0.63154 -7.68405,-1.96545 0,-1.10328 -0.26908,-1.25748 -2.19435,-1.25748 -1.20689,0 -2.67188,-0.29823 -3.25553,-0.66272 -1.71365,-1.07019 -1.81976,-0.18458 -0.31802,2.65439 0.77259,1.46056 1.75881,3.57817 2.19158,4.7058 0.43277,1.12764 1.14207,2.05025 1.57622,2.05025 0.43415,0 3.62827,0.93914 7.09806,2.08696 l 6.3087,2.08697 2.02934,-3.70208 c 2.22872,-4.06582 4.09723,-5.39244 7.59509,-5.39244 2.17097,0 3.8726,0.70173 5.29967,2.18553 0.69616,0.72382 1.52573,0.8844 3.55952,0.68898 2.08494,-0.20034 2.93713,-0.0238 3.98658,0.82603 1.25752,1.01828 1.32601,1.36027 1.18357,5.90989 -0.0831,2.65597 -0.35599,5.21173 -0.6063,5.67943 -0.25031,0.46772 -0.33155,1.49678 -0.18052,2.28682 0.31951,1.67143 -0.62777,3.74589 -1.71053,3.74589 -0.41202,0 -1.78134,0.86238 -3.04292,1.91641 -2.29379,1.91641 -2.29379,1.91641 -17.41049,1.62609 -18.6282,-0.35775 -20.898,-0.53378 -23.87778,-1.85188 -2.87682,-1.27256 -4.58092,-3.14236 -5.88153,-6.45346 -0.53899,-1.37216 -2.447,-4.09582 -4.24002,-6.05259 -1.79302,-1.95677 -3.26004,-3.76821 -3.26004,-4.02542 0,-0.25721 -0.24603,-0.46766 -0.54673,-0.46766 -0.30071,0 -0.54674,0.23317 -0.54674,0.51815 0,0.28499 -0.75063,2.59265 -1.66808,5.12813 -2.71276,7.49708 -6.46107,10.81374 -14.31337,12.66508 -4.22136,0.99528 -14.1277,0.99288 -19.00943,-0.004 z m 22.01451,-2.9879 c 3.82931,-1.44409 6.11167,-3.28532 7.53792,-6.08101 1.00524,-1.97042 5.98519,-15.60501 5.98519,-16.38682 0,-0.19597 -2.27578,-0.48542 -5.05728,-0.64323 -2.7815,-0.15782 -5.42632,-0.42961 -5.87737,-0.60399 -0.57039,-0.22052 -1.15305,0.37565 -1.91357,1.95794 -2.20416,4.58584 -4.6305,3.93094 -5.06997,-1.36846 -0.24394,-2.94163 -0.24394,-2.94163 -4.69451,-4.3759 -4.1886,-1.34984 -8.92079,-2.29591 -13.60834,-2.72059 -2.05024,-0.18575 -2.05024,-0.18575 -2.05972,5.03511 -0.009,4.74851 -0.67236,13.10059 -1.37078,17.24898 -0.24262,1.44103 0.0208,1.86158 2.16945,3.46343 1.41392,1.0541 2.72151,1.65273 3.09961,1.41904 0.37949,-0.23453 0.511,-0.1728 0.31331,0.14706 -0.37025,0.59908 0.86578,1.28161 5.91244,3.26486 4.07705,1.60221 9.81019,1.46258 14.63362,-0.35642 z m 26.46485,-7.52792 c -0.34273,-0.46772 -0.23489,-0.68342 0.34167,-0.68342 0.46335,0 1.34663,-0.81578 1.96285,-1.81285 0.61623,-0.99707 1.62042,-2.26535 2.23153,-2.8184 2.71028,-2.45277 0.35374,-3.34284 -2.93736,-1.10944 -2.11975,1.4385 -3.05905,1.7025 -3.05905,0.85978 0,-0.64795 2.50242,-2.62627 3.8718,-3.06089 0.78116,-0.24793 0.92447,-0.56686 0.56286,-1.25268 -0.2668,-0.50604 -0.78202,-2.36315 -1.14491,-4.12691 -0.65982,-3.20683 -0.65982,-3.20683 -2.6582,-2.86497 -1.09911,0.18802 -3.47456,0.49635 -5.27878,0.68519 -1.80421,0.18883 -3.66765,0.54095 -4.14097,0.78248 -1.23334,0.62936 -2.33357,4.59975 -1.63588,5.9034 0.92702,1.73215 6.00185,5.99336 7.99686,6.71476 2.19934,0.79529 2.66614,2.41626 0.54232,1.88321 -1.33817,-0.33586 -1.33817,-0.33586 0.0506,2.81108 2.17468,4.92769 2.52788,5.1157 3.20887,1.70813 0.35872,-1.79505 0.39204,-3.20051 0.0858,-3.61847 z m -55.52723,4.67245 c 1.80467,-3.37205 3.50047,-16.6766 3.12003,-24.47837 -0.19832,-4.06689 0.32651,-3.82561 -10.77933,-4.95575 -3.12734,-0.31825 -6.54803,-0.93877 -7.60152,-1.37895 -1.05349,-0.44017 -2.01567,-0.70008 -2.13819,-0.57756 -0.12252,0.12251 0.62964,4.00071 1.67145,8.61822 3.50451,15.53257 4.78621,18.07763 11.2644,22.36768 2.90943,1.92671 3.6144,1.99064 4.46316,0.40473 z m 70.27749,-25.03824 c -0.33093,-1.65467 0.0748,-2.08483 1.04823,-1.11138 0.29085,0.29086 1.1094,0.377 1.81901,0.19144 1.29018,-0.3374 1.29018,-0.3374 -0.001,-1.31154 -1.82162,-1.37405 -0.88366,-1.95208 0.99588,-0.61372 1.01948,0.72593 2.05497,1.00402 3.03851,0.816 1.52726,-0.29195 1.91854,-0.92304 0.94525,-1.52457 -0.71127,-0.43959 -0.70582,-1.36683 0.008,-1.36683 0.30512,0 0.99367,0.72172 1.53011,1.60382 0.72135,1.18616 1.18198,1.47309 1.76884,1.10184 0.43643,-0.27609 1.3852,-0.50575 2.10839,-0.51036 1.28154,-0.008 1.28971,-0.0362 0.32228,-1.10518 -1.12391,-1.24191 -0.72107,-2.14483 0.50349,-1.12852 0.44014,0.36528 1.49171,0.58486 2.33683,0.48796 1.37819,-0.15803 1.55368,-0.41109 1.7025,-2.45497 0.16593,-2.27879 0.16593,-2.27879 -2.73366,-2.86185 -5.42414,-1.09071 -10.43587,-0.954 -12.2338,0.3337 -2.75284,1.97162 -4.18224,3.8494 -5.18496,6.81135 -0.96416,2.84806 -0.96311,2.86532 0.21433,3.51894 1.85678,1.03073 2.16369,0.88233 1.812,-0.87613 z m -38.71973,-4.23519 c 1.48257,-1.95515 3.37347,-6.15984 3.37347,-7.50139 0,-1.64312 -1.75424,-3.57194 -3.24864,-3.57194 -1.85928,0 -13.67735,-3.79992 -16.93945,-5.44662 -2.13079,-1.07562 -4.23583,-2.81934 -6.53703,-5.41497 -4.20145,-4.73901 -6.58804,-5.82477 -11.87121,-5.40069 -1.98163,0.15907 -3.85211,0.53837 -4.15664,0.8429 -1.06916,1.06916 -1.73661,8.37858 -1.00861,11.04552 1.53649,5.62869 8.50311,9.92385 22.71238,14.00295 12.69743,3.64511 15.81377,3.89974 17.67573,1.44424 z m 28.52803,-5.74269 c 1.08225,-1.77688 1.08225,-1.77688 -0.69145,-2.15355 -0.97554,-0.20718 -3.00386,-0.45321 -4.50737,-0.54674 -2.64068,-0.16427 -2.76629,-0.10496 -3.69299,1.74351 -0.95932,1.91357 -0.95932,1.91357 1.09347,2.24603 5.21938,0.84532 6.64142,0.61022 7.79834,-1.28925 z m -10.11941,-1.12998 c 1.09346,-2.35927 1.09346,-2.35927 -3.61751,-2.49494 -4.49155,-0.12935 -4.72609,-0.0778 -5.03559,1.10568 -0.17854,0.68274 -0.27287,1.28114 -0.20962,1.32976 0.0633,0.0487 0.85308,0.48008 1.75519,0.95877 1.48335,0.78712 1.52257,0.87244 0.41005,0.89224 -0.67658,0.012 -1.23015,-0.26514 -1.23015,-0.61597 0,-0.35081 -0.14765,-0.4902 -0.32811,-0.30974 -0.86807,0.86807 0.71539,1.49429 3.77746,1.49391 3.38481,-4.4e-4 3.38481,-4.4e-4 4.47828,-2.35971 z m -4.1005,-7.09282 c 0,-2.78482 -1.37688,-8.37514 -2.47685,-10.05634 -0.42958,-0.65655 -1.65256,-1.85848 -2.71776,-2.67095 -1.87166,-1.42758 -1.97304,-1.44432 -3.01828,-0.49839 -1.3826,1.25123 -1.36448,1.43784 0.31555,3.25063 1.84893,1.99503 1.20998,2.53968 -0.76248,0.64994 -1.54088,-1.47626 -1.54088,-1.47626 -4.69398,-0.0327 -3.15311,1.44353 -3.15311,1.44353 -2.79377,3.83973 0.21106,1.4075 0.14405,2.39622 -0.16241,2.39622 -0.68809,0 -1.18546,-1.36491 -1.18546,-3.25321 0,-1.51102 -0.0349,-1.52597 -4.23718,-1.81276 -4.23718,-0.28919 -4.23718,-0.28919 -6.27738,1.66945 -2.65144,2.54542 -3.40522,1.82555 -0.80802,-0.77165 l 1.98124,-1.98125 -2.0268,-1.35714 c -1.11474,-0.74642 -2.54274,-1.98967 -3.17332,-2.76276 -1.14651,-1.40564 -1.14651,-1.40564 -2.73366,-0.30435 -2.13477,1.48126 -3.51635,1.95611 -3.18592,1.09502 0.14252,-0.37139 1.12624,-1.14223 2.18605,-1.71297 l 1.92693,-1.03772 -1.90739,-1.90739 c -1.60397,-1.60396 -2.04091,-1.79659 -2.74666,-1.21086 -0.46161,0.38309 -2.20407,1.25123 -3.87216,1.92919 l -3.03287,1.23265 2.42204,0.92498 c 1.67643,0.64024 3.6577,2.23658 6.436,5.1856 3.4607,3.67335 4.59536,4.49979 8.23213,5.9959 7.946,3.26886 17.20853,5.37808 24.07523,5.48229 4.23718,0.0643 4.23718,0.0643 4.23718,-2.28112 z"
       id="path7873"
       sodipodi:nodetypes="cscsssssssssssssssscssssssssssssssscsssssssssssssssssssccssssssssscssssssssssssssssssssssssssssssssscsscsssssscssssssssccssssssssssssssssssssssssssssssssssssssscssssscssscssssss" /><path
       style="fill:#a01616;stroke-width:0.546733"
       d="m 166.75373,416.17136 c -11.27802,-2.30442 -18.15121,-7.26558 -21.00093,-15.15874 -1.71928,-4.76207 -5.23723,-19.64323 -5.24015,-22.16622 -0.001,-0.98786 -0.37903,-2.37142 -0.83975,-3.07456 -2.68769,-4.10194 -0.96297,-12.48003 3.59605,-17.46832 2.97863,-3.2591 8.79284,-6.4529 15.02063,-8.25097 4.14258,-1.19603 9.00302,-3.76222 10.92458,-5.7679 2.27912,-2.37888 2.49673,-4.54272 0.90722,-9.02094 -1.90028,-5.35376 -2.03817,-14.22808 -0.27185,-17.49545 1.49734,-2.76981 4.14361,-5.26914 7.29212,-6.8872 3.86501,-1.98628 10.19799,-1.83524 14.21505,0.33903 5.70631,3.08859 8.37023,9.07607 8.38649,18.84966 0.0121,7.30518 -0.98582,13.08374 -2.69441,15.60149 -0.72502,1.06838 -1.31822,2.15976 -1.31822,2.42528 0,0.83464 2.71146,2.6621 7.03578,4.74192 6.27747,3.01921 10.47322,7.43913 12.13603,12.78443 0.69892,2.24675 1.59084,4.35746 1.98205,4.69048 1.01691,0.86565 8.8506,1.82579 19.30435,2.36603 7.35544,0.38013 9.82867,0.72801 13.39495,1.88408 3.05784,0.99126 5.57397,1.41997 8.36252,1.42485 3.50082,0.006 4.1528,0.17111 5.33064,1.34896 1.73224,1.73224 1.70064,3.21713 -0.0986,4.6324 -1.20438,0.94736 -2.2134,1.13314 -6.15435,1.13314 -2.59259,0 -5.51176,-0.22885 -6.48706,-0.50856 -1.77327,-0.50857 -1.77327,-0.50857 -1.77327,2.49624 0,3.78492 -0.41895,4.53197 -3.46504,6.17876 -2.44157,1.31998 -2.48439,1.32324 -4.6369,0.35259 -1.85356,-0.83584 -2.58626,-0.89098 -4.98985,-0.3755 -5.52264,1.1844 -7.68405,0.63154 -7.68405,-1.96545 0,-1.10328 -0.26908,-1.25748 -2.19435,-1.25748 -1.20689,0 -2.67188,-0.29823 -3.25553,-0.66272 -1.71365,-1.07019 -1.81976,-0.18458 -0.31802,2.65439 0.77259,1.46056 1.75881,3.57817 2.19158,4.7058 0.43277,1.12764 1.14207,2.05025 1.57622,2.05025 0.43415,0 3.62827,0.93914 7.09806,2.08696 l 6.3087,2.08697 2.02934,-3.70208 c 2.22872,-4.06582 4.09723,-5.39244 7.59509,-5.39244 2.17097,0 3.8726,0.70173 5.29967,2.18553 0.69616,0.72382 1.52573,0.8844 3.55952,0.68898 2.08494,-0.20034 2.93713,-0.0238 3.98658,0.82603 1.25752,1.01828 1.32601,1.36027 1.18357,5.90989 -0.0831,2.65597 -0.35599,5.21173 -0.6063,5.67943 -0.25031,0.46772 -0.33155,1.49678 -0.18052,2.28682 0.31951,1.67143 -0.62777,3.74589 -1.71053,3.74589 -0.41202,0 -1.78134,0.86238 -3.04292,1.91641 -2.29379,1.91641 -2.29379,1.91641 -17.41049,1.62609 -18.6282,-0.35775 -20.898,-0.53378 -23.87778,-1.85188 -2.87682,-1.27256 -4.58092,-3.14236 -5.88153,-6.45346 -0.53899,-1.37216 -2.447,-4.09582 -4.24002,-6.05259 -1.79302,-1.95677 -3.26004,-3.76821 -3.26004,-4.02542 0,-0.25721 -0.24603,-0.46766 -0.54673,-0.46766 -0.30071,0 -0.54674,0.23317 -0.54674,0.51815 0,0.28499 -0.75063,2.59265 -1.66808,5.12813 -2.71276,7.49708 -6.46107,10.81374 -14.31337,12.66508 -4.22136,0.99528 -14.1277,0.99288 -19.00943,-0.004 z m 20.80201,-2.41492 c 3.61334,-1.11605 7.56457,-3.90628 8.83014,-6.23557 0.3532,-0.65006 1.90146,-4.7769 3.44059,-9.17076 l 2.79842,-7.98886 -4.95068,-0.34412 c -2.72288,-0.18927 -5.44274,-0.47876 -6.04415,-0.64331 -0.8756,-0.23957 -1.3658,0.22204 -2.4603,2.31676 -0.75175,1.43877 -1.78315,2.69371 -2.29199,2.78878 -1.25191,0.23389 -2.6286,-2.54695 -2.6286,-5.30967 0,-2.18841 0,-2.18841 -5.10478,-3.82361 -2.80763,-0.89937 -6.43656,-1.78127 -8.06431,-1.95978 -1.62773,-0.17851 -3.88213,-0.44124 -5.00977,-0.58385 -2.05024,-0.25929 -2.05024,-0.25929 -2.05024,3.22154 0,9.20023 -1.67279,21.42268 -3.50042,25.57626 -0.31814,0.72303 0.2485,1.05793 3.05848,1.80766 8.12674,2.1683 17.63826,2.30656 23.97761,0.34853 z m 41.06269,-1.68367 c 0.20998,-3.03755 0.32365,-2.93982 -4.12434,-3.54592 -3.00979,-0.41012 -3.59709,0.036 -3.59709,2.7327 0,2.79024 0.81634,3.30344 5.5345,3.47931 1.99747,0.0745 1.99747,0.0745 2.18693,-2.66609 z m 17.01136,1.44042 c -0.17045,-0.89161 0.11116,-1.55206 0.89621,-2.10193 1.10359,-0.77299 1.10899,-0.83416 0.15004,-1.702 -0.92364,-0.83588 -1.29661,-0.83466 -5.22128,0.017 -4.21727,0.91518 -4.22623,0.9209 -4.06288,2.59206 0.15372,1.57264 0.33056,1.69465 2.89738,1.99902 5.48095,0.64992 5.61465,0.62979 5.34053,-0.80418 z m -30.3967,-7.85765 c -0.34273,-0.46772 -0.23489,-0.68342 0.34167,-0.68342 0.46335,0 1.34663,-0.81578 1.96285,-1.81285 0.61623,-0.99707 1.62042,-2.26535 2.23153,-2.8184 2.71028,-2.45277 0.35374,-3.34284 -2.93736,-1.10944 -2.11975,1.4385 -3.05905,1.7025 -3.05905,0.85978 0,-0.64795 2.50242,-2.62627 3.8718,-3.06089 0.78116,-0.24793 0.92447,-0.56686 0.56286,-1.25268 -0.2668,-0.50604 -0.78202,-2.36315 -1.14491,-4.12691 -0.65982,-3.20683 -0.65982,-3.20683 -2.6582,-2.86497 -1.09911,0.18802 -3.47456,0.49635 -5.27878,0.68519 -1.80421,0.18883 -3.66765,0.54095 -4.14097,0.78248 -1.23334,0.62936 -2.33357,4.59975 -1.63588,5.9034 0.92702,1.73215 6.00185,5.99336 7.99686,6.71476 2.19934,0.79529 2.66614,2.41626 0.54232,1.88321 -1.33817,-0.33586 -1.33817,-0.33586 0.0506,2.81108 2.17468,4.92769 2.52788,5.1157 3.20887,1.70813 0.35872,-1.79505 0.39204,-3.20051 0.0858,-3.61847 z m -55.52723,4.67245 c 1.80467,-3.37205 3.50047,-16.6766 3.12003,-24.47837 -0.19832,-4.06689 0.32651,-3.82561 -10.77933,-4.95575 -3.12734,-0.31825 -6.54803,-0.93877 -7.60152,-1.37895 -1.05349,-0.44017 -2.01567,-0.70008 -2.13819,-0.57756 -0.12252,0.12251 0.62964,4.00071 1.67145,8.61822 3.50451,15.53257 4.78621,18.07763 11.2644,22.36768 2.90943,1.92671 3.6144,1.99064 4.46316,0.40473 z m 77.39358,-3.98968 c 0.98566,-3.80253 1.01091,-3.73392 -1.73723,-4.72214 -2.46675,-0.88704 -2.46675,-0.88704 -3.82713,0.72967 -0.93575,1.11208 -1.36037,2.27619 -1.36037,3.72952 0,2.03863 0.0816,2.13128 2.32361,2.63897 3.49305,0.79097 3.82458,0.61977 4.60112,-2.37602 z m 4.81164,2.17202 c 1.98178,-0.4596 4.0883,-1.3207 4.68115,-1.91356 0.59286,-0.59285 1.31867,-1.07792 1.61293,-1.07792 0.3249,0 0.28946,-0.53892 -0.0902,-1.37223 -0.53676,-1.17807 -0.44615,-1.56287 0.64035,-2.7194 1.11352,-1.18528 1.15721,-1.38875 0.36359,-1.69328 -0.4961,-0.19038 -1.2916,-0.19663 -1.76778,-0.0139 -0.54902,0.21068 -0.78339,0.0821 -0.64059,-0.35156 0.12386,-0.37608 0.74785,-0.76088 1.38667,-0.85511 0.6388,-0.0942 1.31301,-0.64878 1.49823,-1.23235 0.18522,-0.58358 0.96997,-1.39281 1.74389,-1.79831 1.40713,-0.73727 1.40713,-0.73727 -0.39105,-1.36412 -3.37197,-1.17547 -5.57735,-0.0636 -7.67315,3.86853 -0.99717,1.87089 -2.37562,3.96419 -3.06322,4.65179 -1.30528,1.30527 -3.22804,6.70706 -2.38737,6.70706 0.26583,0 2.10479,-0.37604 4.08657,-0.83565 z m -12.82984,-2.36845 c 0,-1.32159 0.48663,-2.82773 1.3017,-4.0288 1.3017,-1.91816 1.3017,-1.91816 -1.66999,-2.63106 -2.90426,-0.69672 -3.00373,-0.68084 -4.3843,0.69973 -1.02652,1.02652 -1.48472,2.16294 -1.6764,4.15781 -0.26378,2.74519 -0.26378,2.74519 1.85246,3.09211 1.16393,0.19081 2.48528,0.42502 2.93634,0.52047 0.45105,0.0954 1.00462,0.20207 1.23014,0.23696 0.22553,0.0349 0.41005,-0.88637 0.41005,-2.04722 z m -32.21292,-19.12917 c -0.92768,-1.73339 -0.69022,-5.10735 0.49644,-7.05361 1.08338,-1.77688 1.08338,-1.77688 -0.75512,-1.77688 -1.6674,0 -1.98132,0.27279 -3.37319,2.93122 -1.30913,2.50042 -1.45696,3.20351 -1.00579,4.78391 0.46367,1.6242 0.79639,1.8886 2.69781,2.14379 2.6489,0.35553 2.67353,0.34247 1.93985,-1.02843 z m 8.27584,1.20935 c 1.75248,-0.2897 1.95977,-0.47236 1.50352,-1.32487 -0.91789,-1.71509 -0.57814,-4.4349 0.86067,-6.89005 1.38988,-2.37165 1.38988,-2.37165 -2.49624,-2.37165 -2.13736,0 -4.35945,0.25332 -4.93798,0.56294 -2.47462,1.32438 -3.56449,6.71206 -1.85228,9.15659 0.90236,1.2883 2.87758,1.5357 6.92231,0.86704 z m 9.1753,-1.28536 c 1.24718,-0.33236 1.35067,-0.58659 1.18219,-2.90408 -0.14035,-1.93044 0.0981,-2.93701 0.99401,-4.19512 1.17866,-1.65528 1.17866,-1.65528 -0.14909,-1.65528 -0.73027,0 -2.42945,-0.151 -3.77596,-0.33556 -2.44212,-0.33473 -2.45182,-0.32939 -3.90344,2.1476 -1.52141,2.5961 -1.84983,5.1768 -0.88759,6.97474 0.57687,1.07789 2.40771,1.06885 6.53988,-0.0323 z m -23.13832,-1.36439 c -0.0851,-1.65748 -0.23956,-1.8524 -1.19128,-1.50351 -0.6014,0.22046 -2.20059,0.36964 -3.55376,0.33149 -3.47986,-0.0981 -21.38246,-5.31799 -26.04893,-7.59514 -4.722,-2.30424 -9.29593,-6.28552 -10.65285,-9.27256 -1.08931,-2.39794 -1.33318,-7.1375 -0.5142,-9.99314 0.60163,-2.09777 0.26849,-2.18994 -1.96308,-0.54312 -7.26003,5.35762 -9.18372,16.90133 -3.38713,20.32546 1.6497,0.9745 7.24931,1.8757 23.70392,3.81492 4.91009,0.57867 8.69294,1.46826 15.03514,3.53575 4.6609,1.51939 8.51838,2.77192 8.57217,2.78337 0.0538,0.0115 0.0538,-0.83612 0,-1.88352 z m 38.8475,-0.0733 c -0.24831,-1.29897 0.33629,-1.77517 0.95342,-0.77662 0.20318,0.32874 0.84504,0.28924 1.71096,-0.1053 1.3858,-0.63142 1.3858,-0.63142 0.11716,-1.60743 -0.95259,-0.73285 -1.05139,-0.97904 -0.3966,-0.98816 0.47963,-0.007 1.32262,0.48571 1.87331,1.09422 0.68292,0.75462 1.17921,0.92845 1.56092,0.54674 0.30781,-0.30781 1.16365,-0.55966 1.90187,-0.55966 1.26569,0 1.29063,-0.057 0.43739,-0.99983 -1.00762,-1.1134 -1.15497,-1.73383 -0.41179,-1.73383 0.27117,0 0.94775,0.68273 1.50351,1.51718 0.97261,1.46033 1.10121,1.49479 3.43207,0.91973 2.4216,-0.59744 2.4216,-0.59744 1.12645,-1.5046 -0.71233,-0.49894 -1.13141,-1.07089 -0.93129,-1.27101 0.20011,-0.20012 0.72396,-0.065 1.16409,0.3003 0.44014,0.36528 1.49171,0.58486 2.33683,0.48796 1.38015,-0.15825 1.55355,-0.40978 1.70327,-2.47065 0.16277,-2.24049 0.11777,-2.30753 -1.91356,-2.85025 -1.14415,-0.30569 -4.0485,-0.71091 -6.45412,-0.9005 -4.23156,-0.3335 -4.45464,-0.29047 -6.85659,1.32257 -3.90449,2.62209 -7.15098,9.47495 -4.83668,10.20948 0.56759,0.18015 1.03198,0.57151 1.03198,0.86969 0,0.29819 0.2692,0.37579 0.59822,0.17244 0.32902,-0.20335 0.48616,-0.95596 0.34918,-1.67247 z m -7.7023,-0.75009 c 0.0436,-0.003 0.1883,-0.92853 0.32157,-2.05616 0.13327,-1.12764 0.42097,-2.45345 0.63933,-2.94625 0.32616,-0.73609 -0.0239,-0.94035 -1.96176,-1.14446 -2.02737,-0.21355 -2.52887,-0.0493 -3.56928,1.16937 -1.1707,1.37122 -1.5968,3.97791 -0.933,5.70774 0.27911,0.72734 0.62069,0.73337 2.87035,0.0506 1.40445,-0.42623 2.5892,-0.77762 2.63279,-0.78088 z m -31.06272,-3.69437 c 1.48257,-1.95515 3.37347,-6.15984 3.37347,-7.50139 0,-1.64312 -1.75424,-3.57194 -3.24864,-3.57194 -1.85928,0 -13.67735,-3.79992 -16.93945,-5.44662 -2.13079,-1.07562 -4.23583,-2.81934 -6.53703,-5.41497 -4.20145,-4.73901 -6.58804,-5.82477 -11.87121,-5.40069 -1.98163,0.15907 -3.85211,0.53837 -4.15664,0.8429 -1.06916,1.06916 -1.73661,8.37858 -1.00861,11.04552 1.53649,5.62869 8.50311,9.92385 22.71238,14.00295 12.69743,3.64511 15.81377,3.89974 17.67573,1.44424 z m 28.49511,-5.55099 c 1.25603,-2.46204 1.36704,-2.38381 -4.35513,-3.0686 -3.24741,-0.38863 -4.34721,0.21838 -5.14498,2.83965 -0.38312,1.25882 0.015,1.38614 6.24777,1.99802 1.05246,0.10332 1.97007,0.22723 2.03914,0.27535 0.0691,0.0481 0.615,-0.87186 1.2132,-2.04442 z m -9.98238,-1.42356 1.19757,-2.45858 h -4.8776 c -4.69648,0 -4.88987,0.0489 -5.20788,1.31591 -0.65586,2.61318 0.52561,3.60487 4.29249,3.60297 3.39784,-0.002 3.39784,-0.002 4.59542,-2.4603 z m 4.54311,-3.99262 c 0,-0.24231 -0.53486,-2.02603 -1.18859,-3.96381 -0.94084,-2.78884 -1.85749,-4.19258 -4.39755,-6.73438 -3.42518,-3.42752 -4.34669,-3.70975 -2.88527,-0.88367 0.49701,0.96112 1.17854,3.92516 1.51449,6.58675 0.61082,4.83925 0.61082,4.83925 3.37382,5.03633 1.51965,0.10839 2.94753,0.24259 3.17305,0.29822 0.22553,0.0556 0.41005,-0.0971 0.41005,-0.33944 z m -8.88647,-4.41016 c -0.35524,-5.18282 -1.6925,-8.45876 -4.43631,-10.86783 -2.43348,-2.1366 -3.20857,-2.21147 -4.17621,-0.40342 -0.67323,1.25795 -0.60342,1.51086 0.83,3.00703 1.88258,1.96499 1.19307,2.20156 -0.81352,0.27912 -1.41373,-1.35444 -1.41373,-1.35444 -4.67714,-0.0109 -1.79488,0.73895 -3.23194,1.53297 -3.19348,1.76449 0.0385,0.23153 0.23414,1.34356 0.43483,2.4712 0.21844,1.22738 0.14896,2.05025 -0.17312,2.05025 -0.29591,0 -0.70403,-1.10714 -0.90695,-2.4603 -0.36895,-2.4603 -0.36895,-2.4603 -3.00494,-2.4603 -1.44979,0 -3.27166,-0.24167 -4.04857,-0.53706 -1.25867,-0.47854 -1.62834,-0.29825 -3.39267,1.65465 -1.08904,1.20544 -2.10133,2.07046 -2.24953,1.92225 -0.14819,-0.14819 0.5268,-1.17632 1.49998,-2.28472 1.64544,-1.87405 1.69843,-2.05267 0.75618,-2.54891 -0.55729,-0.29351 -2.02101,-1.5002 -3.2527,-2.68155 -2.23944,-2.1479 -2.23944,-2.1479 -4.23717,-0.96921 -1.09876,0.64829 -1.99774,0.91469 -1.99774,0.59201 0,-0.32269 0.77176,-0.9858 1.71503,-1.47358 1.71503,-0.88688 1.71503,-0.88688 -0.19625,-2.79816 -1.91128,-1.91128 -1.91128,-1.91128 -4.28212,-0.70177 -1.30396,0.66524 -3.24539,1.51658 -4.31429,1.89187 -1.94346,0.68235 -1.94346,0.68235 0.51684,1.40014 1.92616,0.56197 3.41517,1.70472 6.85861,5.2637 3.94629,4.07872 4.87861,4.73959 9.07168,6.43037 6.88362,2.77569 15.25863,4.78273 21.79425,5.22289 3.15738,0.21264 5.83736,0.42377 5.9555,0.46918 0.11815,0.0454 0.0821,-1.85424 -0.0802,-4.22144 z"
       id="path7871"
       sodipodi:nodetypes="cscsssssssssssssssscssssssssssssssscsssssssssssssssssssccssscsssssssssssssssssssssssssssssssssssssssssssssssssssssssssssssssssssssssssssssssssssssssssssssssssssssssssssssssssssssssssscssssssssssssssssssssssssssssssssssssssssssssccssccssssssssssssssssssssssssssssssssssssss" /><path
       style="fill:#161a18;stroke-width:0.546733"
       d="m 168.03394,416.22649 c -10.97859,-2.0907 -17.85529,-6.19794 -20.9266,-12.49881 -1.73684,-3.56316 -5.00271,-15.80849 -6.08451,-22.81377 -0.34811,-2.25418 -1.01697,-4.83661 -1.48635,-5.73872 -2.11646,-4.06766 -0.27538,-12.29387 3.78342,-16.90491 2.42827,-2.75867 9.42323,-6.47216 15.48975,-8.22322 4.58222,-1.32263 7.30441,-2.78928 9.99014,-5.38243 3.08733,-2.98092 3.31447,-4.5365 1.45442,-9.96068 -2.0438,-5.96001 -2.15506,-12.94901 -0.26766,-16.81395 2.54296,-5.20735 8.14226,-8.33938 14.65085,-8.1951 6.24913,0.13853 10.03334,2.70775 12.89919,8.75769 1.73195,3.65624 1.74773,3.76601 1.74773,12.16389 0,9.04443 -0.76591,13.15531 -2.974,15.96244 -1.07999,1.37299 -1.07999,1.37299 0.41326,2.80361 0.82129,0.78684 3.20961,2.27277 5.30739,3.30206 7.84537,3.8494 10.62952,6.79589 12.93909,13.69354 1.48104,4.4232 1.48104,4.4232 5.4725,5.09195 2.1953,0.36782 8.54301,0.90157 14.10601,1.18613 8.5914,0.43946 10.81438,0.74118 14.76178,2.00354 3.27334,1.04681 5.91323,1.50474 8.92954,1.54898 4.75754,0.0698 5.83224,0.76008 5.83224,3.74609 0,2.9422 -4.63904,3.73251 -14.48841,2.46825 -0.97794,-0.12553 -1.09347,0.17735 -1.09347,2.86668 0,3.61481 -0.19916,3.96387 -3.29768,5.77972 -2.31624,1.35741 -2.49619,1.38136 -4.15623,0.55322 -2.06377,-1.02954 -3.31765,-1.07331 -6.92092,-0.24158 -3.75267,0.86622 -5.4404,0.34379 -6.01241,-1.86113 -0.41681,-1.60664 -0.62722,-1.75275 -2.28072,-1.58366 -1.00186,0.10245 -2.40028,-0.12345 -3.10761,-0.502 -1.87726,-1.00468 -2.06702,-0.36769 -0.68903,2.31299 0.67193,1.30712 1.51209,3.34801 1.86704,4.5353 0.45096,1.50845 1.04141,2.27538 1.96017,2.54603 0.72315,0.21303 3.89813,1.20878 7.05551,2.21278 3.15738,1.004 5.9562,1.82653 6.2196,1.82783 0.2634,10e-4 1.37769,-1.59682 2.47621,-3.55139 1.37655,-2.44926 2.58709,-3.86039 3.89496,-4.54036 2.52481,-1.31268 6.13257,-0.95757 7.99162,0.7866 1.12016,1.05093 1.96931,1.29347 4.52856,1.29347 4.71797,0 5.01457,0.42982 4.66683,6.763 -0.159,2.89581 -0.37688,6.12622 -0.48417,7.17868 -0.10729,1.05246 -0.22246,2.32754 -0.25593,2.8335 -0.0335,0.50597 -0.61442,1.09273 -1.291,1.30392 -0.67658,0.21118 -2.02449,1.07673 -2.99534,1.92344 -2.28399,1.99192 -4.55355,2.37801 -10.70937,1.82186 -2.76148,-0.2495 -9.94147,-0.46447 -15.95553,-0.47773 -9.10995,-0.0201 -11.40938,-0.18968 -13.77951,-1.01635 -3.36283,-1.17292 -5.82627,-3.72298 -6.82308,-7.06299 -0.41255,-1.38234 -1.60123,-3.22364 -2.9177,-4.51961 -1.22183,-1.20281 -2.92996,-3.12641 -3.79583,-4.27467 -1.57432,-2.08775 -1.57432,-2.08775 -3.37136,2.94533 -3.007,8.42182 -5.15896,10.72945 -12.23103,13.11579 -4.50712,1.52084 -14.29821,1.92863 -20.04236,0.83475 z m 18.1288,-1.75006 c 4.38592,-1.05413 7.83836,-3.25631 9.89199,-6.30974 1.38522,-2.05962 6.78335,-16.30044 6.78335,-17.89519 0,-0.24689 -2.39879,-0.58607 -5.33064,-0.75375 -2.93186,-0.16767 -5.7414,-0.4682 -6.24344,-0.66785 -0.69779,-0.27749 -1.15977,0.19411 -1.96139,2.00224 -0.57673,1.30088 -1.43547,2.68449 -1.9083,3.07471 -1.28833,1.06322 -2.59841,-1.12778 -2.59841,-4.34561 0,-2.57273 0,-2.57273 -2.91595,-3.66373 -7.11254,-2.66115 -17.74104,-4.48927 -18.14496,-3.12096 -0.0941,0.3188 -0.29992,4.39444 -0.45737,9.05698 -0.28745,8.51238 -1.41592,15.88751 -2.85749,18.67521 -0.42566,0.82313 -0.77392,1.62475 -0.77392,1.78139 0,0.61533 7.63497,2.55716 11.7642,2.99203 5.16723,0.54417 10.23206,0.26068 14.75233,-0.82573 z m 70.10841,-0.56016 c 0.77209,-0.77209 2.11313,-1.65108 2.98009,-1.95331 1.39494,-0.48627 1.57628,-0.80993 1.57635,-2.81338 1.4e-4,-4.04091 0.36226,-8.86197 0.7597,-10.11421 0.2271,-0.7155 0.11477,-1.55276 -0.2706,-2.01711 -0.89078,-1.07332 -3.80535,-1.05322 -3.80535,0.0262 0,0.45105 -0.43055,0.80067 -0.95678,0.77693 -0.57158,-0.0258 -0.68164,-0.15418 -0.27337,-0.31892 1.08006,-0.43582 0.79546,-1.21859 -0.41005,-1.12779 -0.60141,0.0453 -1.09347,0.29976 -1.09347,0.56546 0,0.26569 -0.78335,-0.40174 -1.74079,-1.48318 -1.46387,-1.65347 -2.09683,-1.96626 -3.97884,-1.96626 -2.85775,0 -4.36455,1.07716 -5.98779,4.28045 -2.78999,5.5058 -2.46175,5.4109 -9.87456,2.85486 -3.58571,-1.23641 -6.83945,-2.12523 -7.23053,-1.97516 -0.39107,0.15007 -0.71104,0.0632 -0.71104,-0.19295 0,-0.2562 -0.4977,-0.59596 -1.106,-0.75503 -0.6083,-0.15908 -1.28455,-0.3723 -1.50279,-0.47382 -0.21824,-0.10153 -0.42116,0.18445 -0.45093,0.63551 -0.0298,0.45105 -0.0916,1.11267 -0.13741,1.47026 -0.0458,0.35759 -1.06739,1.78722 -2.2702,3.17696 -2.59484,2.99811 -2.64267,3.28212 -0.68342,4.05821 1.50352,0.59556 1.50352,0.59556 -0.0848,0.28722 -1.99355,-0.387 -2.49289,0.34823 -2.50379,3.68661 -0.009,2.72847 0.18899,2.99531 2.77031,3.73563 1.5205,0.43607 1.62585,0.3792 1.34614,-0.72669 -0.30345,-1.19979 -0.30345,-1.19979 0.32261,0.0144 0.60133,1.16627 0.92552,1.21411 8.20387,1.21076 6.68656,-0.003 7.57781,-0.10994 7.57781,-0.90867 0,-0.84177 0.0479,-0.84186 0.68342,-0.001 0.71358,0.94384 2.18395,1.10287 12.3463,1.33534 4.82467,0.11036 5.17844,0.0403 6.50593,-1.28712 z m -41.03806,-8.26073 c -0.34273,-0.46772 -0.23489,-0.68342 0.34167,-0.68342 0.46335,0 1.34663,-0.81578 1.96285,-1.81285 0.61623,-0.99707 1.62042,-2.26535 2.23153,-2.8184 2.71028,-2.45277 0.35374,-3.34284 -2.93736,-1.10944 -2.11975,1.4385 -3.05905,1.7025 -3.05905,0.85978 0,-0.64795 2.50242,-2.62627 3.8718,-3.06089 0.78116,-0.24793 0.92447,-0.56686 0.56286,-1.25268 -0.2668,-0.50604 -0.78202,-2.36315 -1.14491,-4.12691 -0.65982,-3.20683 -0.65982,-3.20683 -2.6582,-2.86497 -1.09911,0.18802 -3.47456,0.49635 -5.27878,0.68519 -1.80421,0.18883 -3.66765,0.54095 -4.14097,0.78248 -1.23334,0.62936 -2.33357,4.59975 -1.63588,5.9034 0.92702,1.73215 6.00185,5.99336 7.99686,6.71476 2.19934,0.79529 2.66614,2.41626 0.54232,1.88321 -1.33817,-0.33586 -1.33817,-0.33586 0.0506,2.81108 2.17468,4.92769 2.52788,5.1157 3.20887,1.70813 0.35872,-1.79505 0.39204,-3.20051 0.0858,-3.61847 z m -55.52723,4.67245 c 1.80467,-3.37205 3.50047,-16.6766 3.12003,-24.47837 -0.19832,-4.06689 0.32651,-3.82561 -10.77933,-4.95575 -3.12734,-0.31825 -6.54803,-0.93877 -7.60152,-1.37895 -1.05349,-0.44017 -2.01567,-0.70008 -2.13819,-0.57756 -0.12252,0.12251 0.62964,4.00071 1.67145,8.61822 3.50451,15.53257 4.78621,18.07763 11.2644,22.36768 2.90943,1.92671 3.6144,1.99064 4.46316,0.40473 z m 74.61965,-20.72277 c 0.32837,-0.26337 0.73585,-0.34004 0.90551,-0.17038 0.16966,0.16966 1.13662,0.0798 2.1488,-0.19966 1.40371,-0.38758 2.01503,-0.3211 2.57675,0.28023 0.40505,0.4336 1.19951,0.66727 1.76548,0.51927 0.56596,-0.14801 0.89114,-0.046 0.72263,0.22665 -0.54009,0.87388 0.7191,0.53191 2.70412,-0.73441 1.86225,-1.18799 1.92913,-1.34659 1.95148,-4.62799 0.0187,-2.74382 0.21978,-3.50307 1.04472,-3.94457 0.56187,-0.30071 1.15045,-0.41786 1.30797,-0.26035 0.69954,0.69955 7.89536,1.12799 11.27957,0.67159 1.77573,-0.23948 2.68198,-1.72606 1.74242,-2.85817 -0.39251,-0.47294 -0.91481,-0.73558 -1.16067,-0.58364 -0.24585,0.15195 -0.58819,0.0478 -0.76076,-0.2314 -0.17256,-0.27922 -0.98916,-0.32501 -1.81466,-0.10175 -0.82549,0.22325 -2.35579,0.2151 -3.40065,-0.0181 -1.29015,-0.28797 -2.03308,-0.21432 -2.31525,0.22952 -0.30881,0.48575 -0.41763,0.48953 -0.42386,0.0147 -0.0132,-1.00374 -6.54728,-2.92352 -11.79231,-3.46466 -3.99124,-0.41179 -5.04981,-0.34856 -6.47177,0.38656 -1.57861,0.81612 -1.64643,0.81428 -0.94967,-0.0257 0.6664,-0.80337 0.58597,-0.90459 -0.71871,-0.90459 -0.96355,0 -1.94755,0.56865 -2.85958,1.65252 -0.76478,0.90889 -1.91753,1.9185 -2.56168,2.24358 -0.64415,0.32508 -0.24856,-0.19044 0.87907,-1.1456 1.12764,-0.95515 2.05025,-1.93297 2.05025,-2.17292 0,-0.23997 -1.78372,-0.60694 -3.96381,-0.81552 -2.1801,-0.20857 -6.13981,-0.74952 -8.79936,-1.20211 -4.56149,-0.77626 -4.9018,-0.76652 -6.00464,0.17189 -0.87037,0.74061 -0.99312,0.76641 -0.4804,0.10097 0.93582,-1.21457 -0.87618,-1.64913 -6.37707,-1.52939 -2.2944,0.05 -5.27878,-0.0797 -6.63194,-0.28808 -2.4603,-0.3789 -2.4603,-0.3789 -2.48179,2.8064 -0.0296,4.37957 -2.69588,9.02166 -5.76335,10.03402 -2.67076,0.88143 -4.5468,0.56025 -16.26557,-2.78465 -13.96538,-3.98615 -20.59897,-7.81786 -23.12675,-13.35853 -1.09458,-2.39924 -1.34879,-7.61458 -0.51318,-10.52822 0.57974,-2.02139 0.52851,-2.05491 -1.52086,-0.99515 -6.26331,3.23889 -10.31791,14.11121 -7.05201,18.90982 2.56829,3.77359 3.77001,4.07686 26.10648,6.58808 6.54658,0.73601 7.06955,0.85696 15.30851,3.54033 7.62629,2.48382 9.00642,2.84087 13.04587,3.37499 2.28231,0.30178 2.35852,0.26661 1.77688,-0.82019 -0.33423,-0.62453 -0.59785,-1.3362 -0.58581,-1.58149 0.012,-0.2453 0.38894,0.23059 0.83756,1.05752 0.79118,1.45837 0.95526,1.50351 5.46467,1.50351 4.42691,0 4.62197,-0.0505 4.08303,-1.05752 -0.31128,-0.58164 -0.55611,-1.25822 -0.54407,-1.50351 0.012,-0.2453 0.38528,0.2236 0.82942,1.04199 0.69469,1.28007 1.0545,1.44367 2.57509,1.17083 2.42983,-0.43598 12.08216,-2.94999 12.3484,-3.21622 0.1189,-0.11891 0.61835,0.28046 1.10989,0.88747 1.09513,1.35244 2.76495,0.88814 2.87213,-0.79861 0.071,-1.117 0.0848,-1.11984 0.29577,-0.0608 0.13226,0.66391 1.09222,1.48819 2.38584,2.04862 2.02196,0.87598 3.15036,1.83171 1.34443,1.13872 -0.85177,-0.32686 -1.20098,1.42609 -0.4364,2.19067 0.44919,0.44918 3.44701,-0.11134 4.31384,-0.80658 z m -43.06189,-8.55066 c 1.48257,-1.95515 3.37347,-6.15984 3.37347,-7.50139 0,-1.64312 -1.75424,-3.57194 -3.24864,-3.57194 -1.85928,0 -13.67735,-3.79992 -16.93945,-5.44662 -2.13079,-1.07562 -4.23583,-2.81934 -6.53703,-5.41497 -4.20145,-4.73901 -6.58804,-5.82477 -11.87121,-5.40069 -1.98163,0.15907 -3.85211,0.53837 -4.15664,0.8429 -1.06916,1.06916 -1.73661,8.37858 -1.00861,11.04552 1.53649,5.62869 8.50311,9.92385 22.71238,14.00295 12.69743,3.64511 15.81377,3.89974 17.67573,1.44424 z m 22.71589,-13.39694 c -1.19029,-4.12747 -3.34944,-7.38998 -6.6964,-10.11834 -1.608,-1.3108 -3.01284,-2.29407 -3.12187,-2.18504 -0.10903,0.10904 0.28171,1.16894 0.86831,2.35534 1.19594,2.4188 2.18239,6.99367 2.18239,10.12132 0,2.31324 0.33204,2.48643 5.02781,2.62261 2.56751,0.0745 2.56751,0.0745 1.73976,-2.79589 z m -8.01946,-1.45781 c -0.57613,-6.87202 -2.65403,-10.96636 -6.58826,-12.98162 -0.95022,-0.48674 -1.85282,-1.03517 -2.00578,-1.21874 -0.15295,-0.18357 -0.93672,-0.91535 -1.74171,-1.62618 -1.46362,-1.29242 -1.46362,-1.29242 -3.00229,-0.2231 -2.77436,1.92805 -4.80941,2.69008 -6.20254,2.32255 -4.15094,-1.09511 -4.27239,-1.09843 -4.52702,-0.12396 -0.17125,0.65539 -0.2732,0.52623 -0.32337,-0.40971 -0.0816,-1.5212 -4.05115,-5.21768 -4.98404,-4.64112 -0.81067,0.50102 -0.18103,1.2327 2.09555,2.43514 1.10815,0.58531 1.76879,1.07414 1.46809,1.08631 -0.30071,0.0122 -1.37803,-0.48468 -2.39406,-1.1041 -1.84732,-1.12623 -1.84732,-1.12623 -3.38364,0.34566 -1.46382,1.40243 -1.49527,1.53456 -0.6665,2.79942 0.4784,0.73014 1.93071,2.05743 3.22735,2.94954 2.35752,1.62202 2.35752,1.62202 3.44644,-0.441 0.5989,-1.13466 1.09979,-1.86869 1.11307,-1.63118 0.0611,1.09262 -2.26686,4.67109 -4.1651,6.40232 l -2.09816,1.91357 1.91357,-2.10396 c 1.91356,-2.10395 1.91356,-2.10395 0.54673,-2.98854 -0.75176,-0.48653 -3.21205,-2.80227 -5.46733,-5.14611 l -4.10049,-4.26151 -3.18818,1.62961 c -1.75351,0.8963 -4.02928,1.78742 -5.05728,1.98027 -2.17491,0.40802 -2.51007,1.32242 -0.4847,1.32242 2.75477,0 5.50217,1.7085 9.55026,5.93896 4.6232,4.83147 7.89905,6.51078 17.88592,9.16889 7.08245,1.88507 9.3957,2.24672 14.86065,2.32328 l 4.58984,0.0643 z m -29.94147,-18.85267 c 0.59125,-1.10476 0.45708,-1.55937 -1.12101,-3.79823 -1.24253,-1.76279 -1.92571,-2.33372 -2.22622,-1.86047 -0.73285,1.15414 -0.50777,2.13946 0.95598,4.18495 1.40629,1.96517 1.40629,1.96517 -0.26699,0.0799 -1.67327,-1.88528 -1.67327,-1.88528 -3.32556,-0.30228 -1.6523,1.583 -1.6523,1.583 0.37592,3.66008 2.02822,2.07709 2.02822,2.07709 3.48223,0.68406 0.79971,-0.76616 1.75625,-1.95777 2.12565,-2.648 z m 14.04339,3.15422 c 2.06166,-0.97832 5.80623,-5.0048 5.34637,-5.74887 -0.15897,-0.25723 -0.0779,-0.46769 0.18011,-0.46769 0.62897,0 1.84297,-3.44777 2.02593,-5.75363 0.13694,-1.72586 0.0666,-1.81432 -1.00497,-1.2645 -0.91357,0.46873 -1.01952,0.45028 -0.51153,-0.0891 0.35238,-0.37415 0.5137,-1.08085 0.35847,-1.57044 -0.24438,-0.77084 -0.20201,-0.78022 0.3161,-0.0701 0.82808,1.13506 1.67194,-0.16677 1.6834,-2.59698 0.009,-1.95372 -0.55344,-2.23043 -1.86614,-0.91773 -0.47254,0.47253 -0.85915,0.68043 -0.85915,0.462 0,-0.21844 -0.43056,-0.0274 -0.95679,0.42452 -1.45592,1.25033 -2.32361,1.65513 -2.32361,1.08403 0,-0.28338 0.55357,-0.68053 1.23015,-0.88254 1.23015,-0.36731 1.23015,-0.36731 -0.0417,-0.98602 -1.06063,-0.51596 -1.21776,-0.90694 -0.94622,-2.3544 0.48535,-2.58714 -0.86498,-3.49003 -2.22335,-1.48665 -0.56426,0.8322 -1.0526,2.00514 -1.08521,2.60654 -0.14289,2.6356 -0.23841,3.05653 -0.63764,2.8098 -0.23296,-0.14398 -1.27859,-0.0839 -2.32362,0.13345 -1.76257,0.36662 -5.34182,-0.94999 -5.88358,-2.16427 -0.99363,-2.22707 -1.51405,-2.22061 -3.33186,0.0414 -1.7623,2.19295 -1.78521,2.28603 -0.82392,3.34825 0.54384,0.60093 1.41313,0.98163 1.93176,0.84601 1.05043,-0.2747 1.87042,1.07827 0.85803,1.41574 -0.65253,0.21751 -1.18573,-0.11471 -3.30071,-2.05654 -0.65502,-0.60141 -1.36663,-1.03491 -1.58133,-0.96334 -0.21471,0.0716 -0.24989,-0.23597 -0.0782,-0.68342 0.1717,-0.44745 0.62571,-0.81354 1.0089,-0.81354 1.07071,0 3.56016,-3.58469 3.56016,-5.12648 0,-0.77101 0.4993,-1.72203 1.13953,-2.17046 1.08898,-0.76275 1.09504,-0.82402 0.13668,-1.38121 -0.55157,-0.32068 -0.72543,-0.59054 -0.38637,-0.59968 0.33905,-0.009 0.92822,0.35901 1.30925,0.81813 0.88207,1.06283 5.343,4.08584 6.0293,4.08584 0.28563,0 0.51933,0.24603 0.51933,0.54673 0,1.21187 1.70349,0.43485 2.83672,-1.29392 1.19383,-1.8212 1.21611,-1.82888 2.10879,-0.72647 0.89049,1.09972 0.92992,1.08352 3.03563,-1.24725 1.17338,-1.29878 2.12582,-2.50956 2.11653,-2.69061 -0.0831,-1.61983 -1.03571,-3.88296 -1.63451,-3.88296 -0.40942,0 -0.91994,-0.28404 -1.1345,-0.6312 -0.2417,-0.39108 -0.14998,-0.4828 0.2411,-0.24111 0.37402,0.23116 0.63121,0.0428 0.63121,-0.46225 0,-1.36936 -4.20292,-5.22623 -5.69514,-5.22623 -0.72669,0 -1.40857,-0.2619 -1.51527,-0.582 -0.1067,-0.3201 -1.272,-0.72659 -2.58955,-0.90331 -1.74218,-0.23368 -2.28867,-0.14837 -2.00366,0.31278 0.29291,0.47394 0.0663,0.48575 -0.89711,0.0468 -1.01593,-0.46289 -1.8976,-0.34742 -4.1618,0.54504 -2.97719,1.17351 -7.38517,4.7492 -6.87407,5.57617 0.16039,0.25953 0.0552,0.47187 -0.23389,0.47187 -0.8528,0 -1.72595,3.22203 -1.72595,6.36901 0,1.60899 0.1121,2.92544 0.24909,2.92544 0.137,0 1.15545,-0.61507 2.26323,-1.36683 1.10777,-0.75176 2.28734,-1.35935 2.62126,-1.35021 0.33391,0.009 0.11506,0.28473 -0.48635,0.61242 -2.67449,1.45723 -4.64005,2.97738 -4.64349,3.59124 -0.008,1.41643 2.8282,9.24701 4.20524,11.61065 2.18427,3.74925 4.66733,6.65276 5.43686,6.35745 0.39012,-0.1497 0.57195,0.0349 0.42124,0.42758 -0.14583,0.38004 0.6663,1.35454 1.80473,2.16557 2.43817,1.73698 2.54918,1.65644 5.14464,-3.73232 0.86899,-1.80422 1.51678,-2.78834 1.43954,-2.18693 -0.0772,0.6014 -0.91747,2.44513 -1.86717,4.09717 -0.9497,1.65203 -1.61177,3.18972 -1.47125,3.41708 0.43363,0.70162 2.93874,0.45797 4.91028,-0.47759 z"
       id="path7867"
       sodipodi:nodetypes="ssssssssssssssssssssssssssssssssscssssssssssssssssssssssssssssssssscsssssssssssssssssssssssssssscsccssssssssssssssssssssssssssssssssssssssssssssssssssssssssssssssssssssssssssssssssssssssssssssssssssssssssssssssssssssssssscssscsssssscssssssssssscssssssscssssssssssssssssssssssscsssssssssssssssssssssscsssssssssscc" /><g
       id="g8410"><path
         style="fill:#ffffff;fill-opacity:1;stroke:#080808;stroke-width:3.04352;stroke-linecap:round;stroke-linejoin:round;stroke-dasharray:none;stroke-opacity:1;paint-order:stroke fill markers;stop-color:#000000"
         id="path8294"
         sodipodi:type="arc"
         sodipodi:cx="-164.14561"
         sodipodi:cy="339.49725"
         sodipodi:rx="3.391263"
         sodipodi:ry="4.9222159"
         sodipodi:start="1.5404425"
         sodipodi:end="4.7045546"
         sodipodi:arc-type="slice"
         d="m -164.04269,344.4172 a 3.391263,4.9222159 0 0 1 -3.00034,-2.3621 3.391263,4.9222159 0 0 1 -0.0652,-4.95327 3.391263,4.9222159 0 0 1 2.93602,-2.52664 l 0.0266,4.92206 z"
         transform="rotate(-55.080228)" /><path
         style="fill:#ffffff;fill-opacity:1;stroke:#080808;stroke-width:2.83476;stroke-linecap:round;stroke-linejoin:round;stroke-dasharray:none;stroke-opacity:1;paint-order:stroke fill markers;stop-color:#000000"
         id="path8348"
         sodipodi:type="arc"
         sodipodi:cx="-286.41309"
         sodipodi:cy="-44.383743"
         sodipodi:rx="3.2885144"
         sodipodi:ry="4.403553"
         sodipodi:start="1.5404425"
         sodipodi:end="4.7045546"
         sodipodi:arc-type="slice"
         d="m -286.31328,-39.982219 a 3.2885144,4.403553 0 0 1 -2.90944,-2.1132 3.2885144,4.403553 0 0 1 -0.0632,-4.43134 3.2885144,4.403553 0 0 1 2.84706,-2.260402 l 0.0258,4.403418 z"
         transform="matrix(-0.52299395,-0.72821472,-0.59550949,0.67021474,19.37553,148.44244)"
         clip-path="url(#clipPath8404)" /></g></g></svg>
