<?xml version="1.0" encoding="UTF-8" standalone="no"?>
<svg
   width="512"
   height="512"
   viewBox="0 0 512 512"
   version="1.1"
   xml:space="preserve"
   style="clip-rule:evenodd;fill-rule:evenodd;stroke-linejoin:round;stroke-miterlimit:2"
   id="svg1"
   sodipodi:docname="mermaid-logo.svg"
   inkscape:version="1.3 (0e150ed6c4, 2023-07-21)"
   xmlns:inkscape="http://www.inkscape.org/namespaces/inkscape"
   xmlns:sodipodi="http://sodipodi.sourceforge.net/DTD/sodipodi-0.dtd"
   xmlns="http://www.w3.org/2000/svg"
   xmlns:svg="http://www.w3.org/2000/svg"><defs
   id="defs1" /><sodipodi:namedview
   id="namedview1"
   pagecolor="#ffffff"
   bordercolor="#666666"
   borderopacity="1.0"
   inkscape:showpageshadow="2"
   inkscape:pageopacity="0.0"
   inkscape:pagecheckerboard="0"
   inkscape:deskcolor="#d1d1d1"
   inkscape:zoom="1.121866"
   inkscape:cx="342.73257"
   inkscape:cy="322.23101"
   inkscape:window-width="1920"
   inkscape:window-height="1017"
   inkscape:window-x="1912"
   inkscape:window-y="-8"
   inkscape:window-maximized="1"
   inkscape:current-layer="svg1" />&#10;    <!-- <path d="M490.16,84.61C490.16,37.912 452.248,0 405.55,0L84.61,0C37.912,0 0,37.912 0,84.61L0,405.55C0,452.248 37.912,490.16 84.61,490.16L405.55,490.16C452.248,490.16 490.16,452.248 490.16,405.55L490.16,84.61Z" style="fill:rgb(255,54,112);"/> --><rect
   style="fill:#fe356f;fill-opacity:1;stroke:#ffffff;stroke-width:2.95643;stroke-linecap:round;paint-order:stroke fill markers"
   id="rect1"
   width="509.04358"
   height="509.04358"
   x="1.4782104"
   y="1.4782104" />&#10;    <path
   d="m 418.39901,122.10046 c -71.893,-3.077 -137.907,41.158 -162.4,108.82 -24.493,-67.662 -90.507,-111.897 -162.399998,-108.82 -2.395,57.049 24.896998,111.452 72.059998,143.64 24.168,16.599 38.61,44.131 38.53,73.45 v 50.86 h 103.63 v -50.86 c -0.084,-29.317 14.355,-56.85 38.52,-73.45 47.176,-32.176 74.472,-86.587 72.06,-143.64 z"
   style="fill:#ffffff;fill-rule:nonzero"
   id="path1" />&#10;</svg>
