<?xml version="1.0" encoding="UTF-8" standalone="no"?>
<svg
   class="img"
   version="1.1"
   viewBox="0 0 700 700"
   id="svg1"
   sodipodi:docname="milligram.svg"
   width="700"
   height="700"
   inkscape:version="1.3 (0e150ed6c4, 2023-07-21)"
   inkscape:export-filename="milligram.png"
   inkscape:export-xdpi="70.21714"
   inkscape:export-ydpi="70.21714"
   xmlns:inkscape="http://www.inkscape.org/namespaces/inkscape"
   xmlns:sodipodi="http://sodipodi.sourceforge.net/DTD/sodipodi-0.dtd"
   xmlns="http://www.w3.org/2000/svg"
   xmlns:svg="http://www.w3.org/2000/svg">
  <defs
     id="defs1" />
  <sodipodi:namedview
     id="namedview1"
     pagecolor="#ffffff"
     bordercolor="#666666"
     borderopacity="1.0"
     inkscape:showpageshadow="2"
     inkscape:pageopacity="0.0"
     inkscape:pagecheckerboard="0"
     inkscape:deskcolor="#d1d1d1"
     inkscape:zoom="0.41168624"
     inkscape:cx="195.53726"
     inkscape:cy="596.32792"
     inkscape:window-width="1920"
     inkscape:window-height="1017"
     inkscape:window-x="-8"
     inkscape:window-y="-8"
     inkscape:window-maximized="1"
     inkscape:current-layer="svg1" />
  <g
     transform="matrix(0.0884556,0,0,-0.0884556,144.29626,648.67857)"
     id="g1"
     style="fill:#9b4dca;fill-opacity:1;stroke:none;stroke-opacity:1">
    <path
       d="m 2303,6677 c -11,-13 -58,-89 -393,-627 -128,-206 -247,-397 -265,-425 -18,-27 -85,-135 -150,-240 -65,-104 -281,-451 -480,-770 -358,-575 -604,-970 -641,-1032 -10,-18 -45,-74 -76,-126 -47,-78 -106,-194 -107,-212 -1,-3 -11,-26 -24,-53 C 107,3074 35,2786 10,2569 -9,2411 2,2078 30,1920 112,1458 321,1048 649,707 841,508 1036,367 1295,240 1630,75 1933,5 2315,5 c 382,0 685,70 1020,235 259,127 454,268 646,467 328,341 537,751 619,1213 28,158 39,491 20,649 -25,217 -97,505 -157,623 -13,27 -23,50 -23,53 0,16 -57,127 -107,210 -32,52 -67,110 -77,128 -37,62 -283,457 -641,1032 -199,319 -415,666 -480,770 -65,105 -132,213 -150,240 -18,28 -137,219 -265,425 -354,570 -393,630 -400,635 -4,3 -12,-1 -17,-8 z m 138,-904 c 118,-191 654,-1050 1214,-1948 148,-236 271,-440 273,-452 2,-13 8,-23 11,-23 14,0 72,-99 125,-212 92,-195 146,-384 171,-598 C 4351,1566 3709,656 2747,430 1879,225 968,664 574,1476 321,1998 317,2600 564,3135 c 45,97 108,210 126,225 4,3 9,13 13,22 3,9 126,209 273,445 734,1176 1102,1766 1213,1946 67,108 124,197 126,197 2,0 59,-89 126,-197 z M 1080,3228 C 1005,3211 966,3161 890,2985 799,2773 762,2617 753,2405 719,1633 1250,954 2007,800 c 77,-15 112,-18 143,-11 155,35 212,213 106,329 -32,36 -62,48 -181,75 -223,50 -392,140 -552,291 -115,109 -178,192 -242,316 -101,197 -136,355 -128,580 3,111 10,167 30,241 30,113 80,237 107,267 11,12 20,26 20,32 0,6 8,22 17,36 26,41 27,99 3,147 -54,105 -142,149 -250,125 z"
       id="path1"
       style="fill:#9b4dca;fill-opacity:1;stroke:none;stroke-opacity:1" />
  </g>
</svg>
