<?xml version="1.0" encoding="UTF-8" standalone="no"?>
<svg
   role="img"
   viewBox="0 0 24 24"
   version="1.1"
   id="svg1"
   sodipodi:docname="neutralino.svg"
   inkscape:version="1.3 (0e150ed6c4, 2023-07-21)"
   inkscape:export-filename="neutralino.png"
   inkscape:export-xdpi="2048"
   inkscape:export-ydpi="2048"
   xmlns:inkscape="http://www.inkscape.org/namespaces/inkscape"
   xmlns:sodipodi="http://sodipodi.sourceforge.net/DTD/sodipodi-0.dtd"
   xmlns="http://www.w3.org/2000/svg"
   xmlns:svg="http://www.w3.org/2000/svg">
  <defs
     id="defs1" />
  <sodipodi:namedview
     id="namedview1"
     pagecolor="#ffffff"
     bordercolor="#666666"
     borderopacity="1.0"
     inkscape:showpageshadow="2"
     inkscape:pageopacity="0.0"
     inkscape:pagecheckerboard="0"
     inkscape:deskcolor="#d1d1d1"
     inkscape:zoom="11.475754"
     inkscape:cx="6.5790886"
     inkscape:cy="12.853186"
     inkscape:window-width="1920"
     inkscape:window-height="1017"
     inkscape:window-x="-8"
     inkscape:window-y="-8"
     inkscape:window-maximized="1"
     inkscape:current-layer="svg1" />
  <title
     id="title1">Neutralinojs</title>
  <path
     d="m 6.5825767,2.9964769 a 0.81584411,0.81584411 0 0 0 -0.458108,0.15785 c -0.3465836,0.2633692 -0.429798,0.7720923 -0.3645992,1.4189339 0.064341,0.6476997 0.2873899,1.461828 0.6442681,2.4020647 0.3062632,0.8038338 0.71633,1.7020344 1.2070375,2.6551393 -1.0037199,0.1252506 -1.9216518,0.2899636 -2.7091858,0.4889922 -0.9265107,0.235059 -1.6797295,0.514728 -2.2159047,0.834717 -0.5353173,0.319989 -0.8758957,0.696599 -0.8758957,1.139265 0,0.442667 0.3405784,0.819276 0.8758957,1.139265 0.4718341,0.2831 1.1221073,0.53017 1.9019205,0.746356 a 0.81498623,0.81498623 0 0 0 -0.00515,0.08322 c 0,0.416072 0.3131263,0.76094 0.7034618,0.76094 0.3156999,0 0.5816428,-0.223049 0.6725781,-0.528455 0.508723,0.0978 1.052619,0.182729 1.6282568,0.254791 a 26.43129,26.43129 0 0 0 -1.2078954,2.631119 c -0.3611676,0.937663 -0.5885059,1.750076 -0.6562785,2.397775 -0.06863,0.646842 0.013726,1.155565 0.3603097,1.420649 0.172434,0.132114 0.394625,0.17844 0.6296841,0.155277 0.2350592,-0.02231 0.4907076,-0.107235 0.7686608,-0.246211 0.5567643,-0.277095 1.2070374,-0.766946 1.9250832,-1.432661 0.8252803,-0.763513 1.7380653,-1.765517 2.6748703,-2.934808 0.931658,1.175296 1.841011,2.181589 2.662002,2.950251 0.715472,0.669146 1.362314,1.162427 1.917363,1.442954 0.277095,0.139835 0.531886,0.227338 0.766944,0.251359 0.23506,0.02316 0.458109,-0.02144 0.631401,-0.152703 0.347441,-0.263369 0.430656,-0.772092 0.365456,-1.418934 -0.04632,-0.463255 -0.176722,-1.012298 -0.374893,-1.629972 a 0.78067102,0.78067102 0 0 0 0.294253,-0.617674 0.79268134,0.79268134 0 0 0 -0.204175,-0.536175 0.6820148,0.6820148 0 0 0 -0.601375,-0.215329 C 17.270905,15.97106 16.946626,15.278751 16.573448,14.555557 a 22.76471,22.76471 0 0 0 2.734065,-0.493281 c 0.92651,-0.234201 1.679729,-0.512155 2.215905,-0.832143 0.535316,-0.320848 0.875895,-0.697457 0.875895,-1.140123 0,-0.442667 -0.340579,-0.820992 -0.875895,-1.140981 -0.536174,-0.319992 -1.289393,-0.597087 -2.215903,-0.831288 A 22.70809,22.70809 0 0 0 16.600044,9.6304648 26.411559,26.411559 0 0 0 17.806224,7.0027777 C 18.16825,6.0651146 18.395588,5.252702 18.46336,4.6050024 18.531993,3.9581607 18.448777,3.4494377 18.10305,3.1843528 a 0.81327047,0.81327047 0 0 0 -0.455533,-0.1587079 1.1495595,1.1495595 0 0 0 -0.17415,0.00343 c -0.23506,0.022305 -0.488993,0.1089507 -0.767803,0.2479273 -0.43752,0.2179016 -0.936806,0.5704904 -1.47727,1.0337457 A 0.66571507,0.66571507 0 0 0 14.8697,4.2052302 c -0.391193,0 -0.703462,0.3431521 -0.703462,0.7600819 0,0.1012299 0.01716,0.1981703 0.05147,0.286532 A 30.051545,30.051545 0 0 0 12.103036,7.6461878 C 11.171378,6.4708919 10.262025,5.4645984 9.4410337,4.6959377 8.7255615,4.0267911 8.0787198,3.53351 7.5236713,3.2529832 7.246576,3.1131486 6.9917856,3.0256449 6.7567263,3.0016242 a 1.1512753,1.1512753 0 0 0 -0.1750075,-0.00515 z m 0.018015,0.3302839 a 0.84758568,0.84758568 0 0 1 0.1226768,0.00343 c 0.1758659,0.017159 0.3963411,0.09008 0.6494158,0.2179033 0.5078651,0.2556484 1.1409807,0.7334877 1.8418688,1.3897661 0.8192759,0.766087 1.7346339,1.7818172 2.6757279,2.9734129 -0.367172,0.4666868 -0.736918,0.9608258 -1.106665,1.475554 A 35.627766,35.627766 0 0 0 7.9611903,9.5884287 26.461316,26.461316 0 0 1 6.7146903,6.856938 C 6.3638172,5.9347168 6.150205,5.1394618 6.0892955,4.5406614 6.0292439,3.9401452 6.1321896,3.5661095 6.3260705,3.4194119 a 0.47183413,0.47183413 0 0 1 0.2745212,-0.092651 z m 11.0271933,0.02831 a 0.47183413,0.47183413 0 0 1 0.274521,0.092651 c 0.193023,0.1475554 0.294254,0.523307 0.231628,1.1221075 -0.06348,0.5996582 -0.2831,1.3931975 -0.637405,2.3145608 A 26.422711,26.422711 0 0 1 16.248313,9.586713 35.636345,35.636345 0 0 0 13.407014,9.3859691 42.259181,42.259181 0 0 0 12.314075,7.9129886 30.140764,30.140764 0 0 1 14.403871,5.5349446 0.67172023,0.67172023 0 0 0 14.8697,5.7262519 c 0.391194,0 0.703461,-0.34401 0.703461,-0.7609398 a 0.80469167,0.80469167 0 0 0 -0.114098,-0.415214 c 0.523308,-0.4452399 0.997715,-0.7798132 1.394056,-0.9771257 0.25479,-0.1261083 0.476124,-0.1973124 0.651989,-0.21447 a 0.85187508,0.85187508 0 0 1 0.121819,-0.00343 z m -5.526464,4.8230027 c 0.29511,0.3800409 0.591936,0.7832447 0.887906,1.1958851 -0.29168,-0.006 -0.585933,-0.012011 -0.884475,-0.012011 -0.304547,0 -0.603948,0.00515 -0.900774,0.012011 0.300257,-0.4126404 0.599657,-0.8149862 0.897343,-1.1958851 z m 0.0034,1.5158744 c 0.381756,0 0.757507,0.00686 1.127254,0.017157 0.227339,0.3217051 0.454676,0.6519891 0.680299,0.9899941 0.313984,0.471835 0.609095,0.937663 0.893053,1.400919 a 46.028707,46.028707 0 0 1 -0.897343,1.392339 c -0.225621,0.334574 -0.452102,0.658852 -0.678583,0.976268 -0.369746,0.01115 -0.744639,0.01887 -1.12468,0.01887 -0.391194,0 -0.776382,-0.0077 -1.156423,-0.01887 A 45.35956,45.35956 0 0 1 10.271462,13.485778 44.383292,44.383292 0 0 1 9.3792663,12.08486 45.158816,45.158816 0 0 1 10.957766,9.7128214 c 0.376609,-0.011152 0.758366,-0.018873 1.146986,-0.018873 z m -1.564745,0.034315 C 10.359823,9.9821957 10.181384,10.240418 10.003803,10.504645 9.7172711,10.930153 9.4487546,11.35223 9.1862433,11.771734 A 40.148795,40.148795 0 0 1 8.1233296,9.9032708 35.370403,35.370403 0 0 1 10.539978,9.7274053 Z m 3.109816,0 a 35.421876,35.421876 0 0 1 2.434664,0.1732918 40.079307,40.079307 0 0 1 -1.08436,1.8856213 45.721585,45.721585 0 0 0 -1.350304,-2.0589131 z m 2.786395,0.2153279 c 1.040609,0.1252512 1.987708,0.2916792 2.789827,0.4941392 0.906779,0.229912 1.635978,0.503576 2.125827,0.796113 0.489849,0.292537 0.715472,0.591079 0.715472,0.856165 0,0.265942 -0.225623,0.561911 -0.715472,0.854448 -0.488992,0.293395 -1.219048,0.567917 -2.125827,0.797829 -0.808981,0.205033 -1.763802,0.371462 -2.814705,0.49757 A 40.347824,40.347824 0 0 0 15.19655,12.102018 40.251741,40.251741 0 0 0 16.436187,9.9435908 Z m -8.6637325,0.00172 C 8.1361978,10.6359 8.5436909,11.35223 8.9889308,12.08486 A 40.286056,40.286056 0 0 0 7.7510096,14.236424 25.43186,25.43186 0 0 1 5.9846342,13.963618 0.78238679,0.78238679 0 0 0 5.7873217,13.527815 0.6820148,0.6820148 0 0 0 5.2863196,13.30305 0.69145148,0.69145148 0 0 0 4.6892349,13.661644 C 3.92229,13.449748 3.2908902,13.206967 2.8568028,12.947888 2.367811,12.65535 2.1421885,12.359382 2.1421885,12.093439 c 0,-0.265943 0.2256225,-0.561054 0.7154721,-0.854449 0.4889918,-0.293395 1.2190478,-0.567916 2.1258273,-0.797828 0.8021181,-0.203318 1.7492178,-0.369747 2.7898265,-0.495855 z m 3.7232005,0.6863002 c -0.494139,0 -0.893054,0.42894 -0.893054,0.953963 0,0.415214 0.248786,0.769518 0.596227,0.899916 v 0.05405 c 0,0.525023 0.399773,0.951389 0.893054,0.951389 0.494138,0 0.893053,-0.426366 0.893053,-0.952247 0,-0.01373 0,-0.02917 -0.0017,-0.04289 0.363741,-0.120962 0.626252,-0.484702 0.626252,-0.911927 0,-0.252217 -0.09179,-0.493281 -0.259079,-0.67172 a 0.86903269,0.86903269 0 0 0 -0.633085,-0.27967 0.85788024,0.85788024 0 0 0 -0.609953,0.257364 0.86302753,0.86302753 0 0 0 -0.611668,-0.257364 z m -2.3119875,1.768092 a 43.379573,43.379573 0 0 0 1.3485875,2.056338 C 9.6829559,14.421726 8.8671118,14.36339 8.1027405,14.280176 8.4295929,13.671081 8.7916183,13.042254 9.1836696,12.399703 Z m 5.8155705,0.01716 c 0.38433,0.637405 0.739492,1.262799 1.06034,1.866748 a 35.713554,35.713554 0 0 1 -2.414075,0.170717 c 0.178438,-0.253932 0.358594,-0.510438 0.536175,-0.773808 0.285674,-0.42465 0.555049,-0.845869 0.81756,-1.263657 z m -7.0603547,2.176442 c 0.8861902,0.100372 1.8367216,0.16986 2.8344367,0.20246 0.366314,0.514728 0.732629,1.011441 1.096371,1.478128 -0.946242,1.18559 -1.866748,2.197031 -2.689455,2.959686 -0.7043197,0.651989 -1.340009,1.123823 -1.848732,1.376898 -0.2539325,0.126109 -0.4752657,0.197312 -0.651989,0.214471 -0.1758654,0.01716 -0.300258,-0.01544 -0.3963406,-0.08922 -0.1930231,-0.147556 -0.294253,-0.523307 -0.2316277,-1.122108 0.063483,-0.5988 0.2822426,-1.393197 0.6365471,-2.31456 0.3139842,-0.813271 0.738635,-1.731203 1.2507895,-2.705755 z m 8.2836917,0.0034 c 0.393767,0.758366 0.73263,1.481559 1.010582,2.148132 a 0.78067102,0.78067102 0 0 0 -0.298542,0.621105 c 0,0.41693 0.312269,0.76094 0.703463,0.76094 a 0.67172023,0.67172023 0 0 0 0.105519,-0.0086 c 0.187017,0.588506 0.308837,1.109239 0.350014,1.528743 0.06005,0.5988 -0.0429,0.973694 -0.235916,1.120392 -0.09694,0.07377 -0.221333,0.106377 -0.397199,0.08922 -0.175865,-0.01716 -0.39634,-0.09008 -0.650273,-0.217901 -0.506149,-0.255649 -1.140123,-0.733487 -1.841011,-1.389766 -0.819275,-0.766087 -1.735492,-1.781817 -2.676586,-2.973413 0.368888,-0.467544 0.739492,-0.9634 1.110097,-1.479843 a 35.693823,35.693823 0 0 0 2.819852,-0.199029 z m -3.239356,0.211039 a 41.881714,41.881714 0 0 1 -0.900774,1.201032 41.928897,41.928897 0 0 1 -0.892195,-1.199316 40.599183,40.599183 0 0 0 1.792969,-0.0017 z"
     id="path1"
     style="fill:#ff9900;fill-opacity:1;stroke:#ffffff;stroke-width:1.71576;stroke-dasharray:none;stroke-opacity:1;paint-order:stroke fill markers" />
</svg>
