<?xml version="1.0" encoding="UTF-8" standalone="no"?>
<svg
   viewBox="0 0 32 32"
   version="1.1"
   id="svg12"
   sodipodi:docname="node-modules.svg"
   xml:space="preserve"
   inkscape:version="1.2 (dc2aedaf03, 2022-05-15)"
   xmlns:inkscape="http://www.inkscape.org/namespaces/inkscape"
   xmlns:sodipodi="http://sodipodi.sourceforge.net/DTD/sodipodi-0.dtd"
   xmlns:xlink="http://www.w3.org/1999/xlink"
   xmlns="http://www.w3.org/2000/svg"
   xmlns:svg="http://www.w3.org/2000/svg"><defs
     id="defs16"><linearGradient
       inkscape:collect="always"
       id="linearGradient1419"><stop
         style="stop-color:#cbcbcb;stop-opacity:1;"
         offset="0"
         id="stop1415" /><stop
         style="stop-color:#595959;stop-opacity:1;"
         offset="0.23464978"
         id="stop1510" /><stop
         style="stop-color:#595959;stop-opacity:1;"
         offset="0.74114555"
         id="stop1514" /><stop
         style="stop-color:#cbcbcb;stop-opacity:1;"
         offset="0.99056602"
         id="stop1512" /></linearGradient><linearGradient
       inkscape:collect="always"
       xlink:href="#linearGradient1419"
       id="linearGradient1421"
       x1="-47.148441"
       y1="24.425146"
       x2="-36.985279"
       y2="14.261984"
       gradientUnits="userSpaceOnUse"
       gradientTransform="matrix(0.79207685,0,0,0.79207685,57.045129,8.4469681)" /></defs><sodipodi:namedview
     id="namedview14"
     pagecolor="#ffffff"
     bordercolor="#666666"
     borderopacity="1.0"
     inkscape:showpageshadow="2"
     inkscape:pageopacity="0.0"
     inkscape:pagecheckerboard="0"
     inkscape:deskcolor="#d1d1d1"
     showgrid="false"
     inkscape:zoom="10.429825"
     inkscape:cx="-9.3961308"
     inkscape:cy="21.47687"
     inkscape:window-width="1920"
     inkscape:window-height="1017"
     inkscape:window-x="1912"
     inkscape:window-y="-8"
     inkscape:window-maximized="1"
     inkscape:current-layer="svg12" /><title
     id="title2">folder_type_light_node_opened</title><path
     d="M27.4,5.5H18.2L16.1,9.7H4.3V26.5H29.5V5.5Zm0,18.7H6.6V11.8H27.4Zm0-14.5H19.2l1-2.1h7.1V9.7Z"
     style="fill:#6c9f2b;fill-opacity:1"
     id="path4" /><polygon
     points="25.7 13.7 0.5 13.7 4.3 26.5 29.5 26.5 25.7 13.7"
     style="fill:#6c9f2b;fill-opacity:1"
     id="polygon6" /><path
     style="fill:#595959;fill-opacity:0.862745;stroke:none;stroke-width:0.792077px;stroke-linecap:butt;stroke-linejoin:miter;stroke-opacity:1"
     d="m 25.200954,28.154914 1.074003,0.966602 2.738706,-2.953507 -1.127702,-0.805502 z"
     id="path2244" /><path
     d="m 12.077051,25.188197 a 0.80347941,0.80347941 0 0 1 -0.401989,-0.107594 l -1.280187,-0.757154 c -0.190783,-0.107098 -0.09963,-0.144956 -0.03487,-0.166873 a 2.5509101,2.5509101 0 0 0 0.578824,-0.263011 0.09962547,0.09962547 0 0 1 0.09514,0.0075 l 0.983304,0.583805 a 0.12702247,0.12702247 0 0 0 0.119052,0 l 3.83558,-2.212682 a 0.12054682,0.12054682 0 0 0 0.05878,-0.10361 v -4.424395 a 0.12353558,0.12353558 0 0 0 -0.05928,-0.105603 l -3.831594,-2.210689 a 0.12104495,0.12104495 0 0 0 -0.118554,0 l -3.834585,2.211187 a 0.12303745,0.12303745 0 0 0 -0.06077,0.105105 v 4.423868 a 0.11755805,0.11755805 0 0 0 0.06027,0.102615 l 1.051547,0.606719 c 0.569858,0.284929 0.919045,-0.04981 0.919045,-0.387543 v -4.368079 a 0.11008614,0.11008614 0 0 1 0.111082,-0.110584 h 0.486173 a 0.11058427,0.11058427 0 0 1 0.110584,0.110584 v 4.368079 A 1.0620075,1.0620075 0 0 1 9.729869,23.685348 1.6398352,1.6398352 0 0 1 8.846689,23.44525 L 7.8429676,22.867422 a 0.80945694,0.80945694 0 0 1 -0.401988,-0.697378 v -4.425861 a 0.80746443,0.80746443 0 0 1 0.401988,-0.697378 l 3.8355814,-2.215173 a 0.83934458,0.83934458 0 0 1 0.805472,0 l 3.827111,2.213678 a 0.80895881,0.80895881 0 0 1 0.402487,0.697378 v 4.423869 a 0.81095132,0.81095132 0 0 1 -0.402487,0.697378 l -3.835579,2.213181 a 0.80397754,0.80397754 0 0 1 -0.398502,0.111081 z m 1.3031,-3.084902 c 1.214434,0 1.910816,-0.478202 1.910816,-1.313562 0,-0.83536 -0.559895,-1.046067 -1.737468,-1.204472 -1.190523,-0.157408 -1.31107,-0.238603 -1.31107,-0.517554 0,-0.230135 0.102116,-0.537479 0.983801,-0.537479 0.787539,0 1.077947,0.169861 1.195505,0.700865 a 0.11058427,0.11058427 0 0 0 0.107596,0.08667 h 0.498127 a 0.11058427,0.11058427 0 0 0 0.110086,-0.120547 c -0.07671,-0.914558 -0.684427,-1.340457 -1.912809,-1.340457 -1.09289,0 -1.743444,0.461266 -1.743444,1.234858 0,0.838846 0.647565,1.070973 1.697617,1.174584 1.254782,0.123038 1.352415,0.306349 1.352415,0.55342 0,0.428389 -0.343708,0.611202 -1.151172,0.611202 -1.014186,0 -1.237845,-0.254543 -1.312066,-0.759146 a 0.1110824,0.1110824 0 0 0 -0.110087,-0.09365 h -0.498127 a 0.11008614,0.11008614 0 0 0 -0.110584,0.110584 c 9.96e-4,0.645075 0.352176,1.414682 2.029868,1.414682 z"
     style="fill:#83cd29;fill-opacity:1;stroke-width:0.498127"
     id="path10" /><path
     style="fill:#883700;fill-opacity:1;stroke:none;stroke-width:0.792077px;stroke-linecap:butt;stroke-linejoin:miter;stroke-opacity:1"
     d="m 20.206843,22.0868 -6.873616,-6.981016 0.483301,-1.288803 1.235103,-0.483302 7.034717,6.981017 z"
     id="path2242" /><path
     style="fill:url(#linearGradient1421);fill-opacity:1;stroke:#000000;stroke-width:0.792077px;stroke-linecap:butt;stroke-linejoin:miter;stroke-opacity:1"
     d="m 17.212791,26.141791 0.721464,-1.898586 6.417221,-6.265335 1.746699,-0.683491 4.518635,4.404721 -1.177124,2.316275 -5.809673,5.619814 -2.012501,0.987266 z"
     id="path798" /><g
     id="g637"
     transform="matrix(0.04448746,0,0,0.04448746,10.619357,10.674991)"><g
       id="g581">
	<path
   d="M 457.078,239.227 356.926,139.076 c -2.864,-2.864 -7.174,-3.719 -10.915,-2.16 l -45.983,19.145 c -0.028,0.011 -0.056,0.023 -0.084,0.034 l -0.032,0.014 c -0.048,0.02 -0.092,0.046 -0.139,0.066 -0.246,0.106 -0.491,0.219 -0.73,0.347 -0.058,0.03 -0.112,0.067 -0.168,0.1 -0.226,0.126 -0.451,0.256 -0.668,0.401 -0.086,0.058 -0.165,0.124 -0.25,0.184 -0.18,0.129 -0.362,0.255 -0.536,0.397 -0.256,0.209 -0.502,0.431 -0.736,0.665 L 254.136,200.818 112.638,59.318 C 104.991,51.672 94.346,48.961 83.44,51.885 80.581,52.651 77.772,53.8 75.068,55.24 72.523,49.594 69.124,42.552 65.116,35.459 51.637,11.601 38.575,0.003 25.182,0.003 20.781,0.003 14.188,1.35 7.77,7.767 c -8.181,8.182 -8.452,16.647 -7.237,22.31 2.59,12.078 14.665,23.901 36.915,36.144 6.413,3.528 12.678,6.537 17.796,8.844 -1.441,2.704 -2.59,5.513 -3.356,8.372 -2.923,10.909 -0.213,21.552 7.433,29.198 l 26.02,26.02 c 0.032,0.032 0.064,0.064 0.096,0.097 0.019,0.018 0.037,0.036 0.055,0.054 l 52.157,52.157 c 0.007,0.007 0.013,0.015 0.02,0.021 0.003,0.004 0.007,0.007 0.011,0.01 l 63.14,63.141 -42.549,42.549 c -0.234,0.234 -0.455,0.479 -0.664,0.734 -0.156,0.19 -0.296,0.39 -0.437,0.588 -0.047,0.066 -0.099,0.129 -0.144,0.196 -0.156,0.232 -0.296,0.473 -0.43,0.715 -0.023,0.041 -0.049,0.08 -0.071,0.121 -0.133,0.248 -0.25,0.503 -0.361,0.759 -0.017,0.039 -0.038,0.075 -0.054,0.114 l -0.011,0.026 c -0.013,0.031 -0.026,0.062 -0.039,0.093 l -19.143,45.979 c -1.557,3.74 -0.704,8.05 2.161,10.915 L 239.23,457.075 c 1.914,1.914 4.473,2.929 7.073,2.929 1.328,0 2.667,-0.265 3.938,-0.809 l 45.518,-19.508 c 0.01,-0.004 0.019,-0.008 0.029,-0.012 l 0.157,-0.067 c 0.086,-0.037 0.167,-0.083 0.251,-0.122 0.187,-0.087 0.374,-0.172 0.557,-0.271 0.106,-0.058 0.208,-0.123 0.312,-0.185 0.172,-0.101 0.344,-0.199 0.51,-0.312 0.13,-0.087 0.252,-0.185 0.377,-0.277 0.132,-0.098 0.268,-0.19 0.396,-0.296 0.253,-0.208 0.496,-0.427 0.728,-0.658 l 30.144,-30.145 12.516,12.517 c 1.875,1.875 4.419,2.929 7.071,2.929 2.652,0 5.195,-1.054 7.071,-2.929 l 63.984,-63.984 c 1.875,-1.876 2.929,-4.419 2.929,-7.071 0,-2.652 -1.054,-5.196 -2.929,-7.071 l -12.516,-12.516 30.144,-30.145 c 0.232,-0.231 0.45,-0.476 0.658,-0.728 0.108,-0.131 0.202,-0.27 0.303,-0.404 0.091,-0.123 0.186,-0.242 0.271,-0.368 0.115,-0.172 0.217,-0.349 0.321,-0.525 0.058,-0.099 0.12,-0.194 0.174,-0.296 0.102,-0.188 0.19,-0.381 0.279,-0.573 0.037,-0.08 0.081,-0.156 0.115,-0.237 l 0.063,-0.147 c 0.006,-0.014 0.012,-0.027 0.018,-0.042 l 19.506,-45.514 c 1.61,-3.759 0.771,-8.12 -2.12,-11.011 z M 20.088,25.882 c -0.142,-0.661 -0.379,-1.77 1.825,-3.973 1.265,-1.266 2.365,-1.906 3.269,-1.906 3.042,0 11.188,5.289 22.418,25.112 1.035,1.826 2.028,3.657 2.975,5.464 C 35.306,42.489 21.581,32.844 20.088,25.882 Z m 59.579,78.814 -6.204,-6.204 c -1.66,-1.66 -3.7,-4.49 -2.256,-9.879 1.01,-3.771 3.455,-7.6 6.59,-10.744 0.042,-0.042 0.085,-0.081 0.126,-0.123 3.136,-3.111 6.943,-5.537 10.693,-6.542 1.288,-0.345 2.428,-0.491 3.442,-0.491 3.231,0 5.174,1.484 6.437,2.748 l 6.174,6.174 c -5.187,2.154 -10.257,5.553 -14.868,10.164 -4.449,4.449 -7.912,9.568 -10.134,14.897 z M 118.572,143.6 99.524,124.552 c -6.355,-6.449 0.104,-16.295 4.42,-20.611 3.655,-3.656 8.029,-6.169 11.999,-6.895 4.653,-0.849 7.175,1.036 8.668,2.53 0.019,0.018 0.037,0.036 0.055,0.054 l 6.473,6.473 c -8.161,11.135 -12.34,24.288 -12.567,37.497 z m 97.177,47.114 24.245,24.245 -24.245,24.245 c -4.559,-7.188 -7.013,-15.525 -7.013,-24.245 0,-8.72 2.453,-17.057 7.013,-24.245 z m -62.096,-12.032 -1.846,-1.847 c -15.268,-15.271 -17.35,-38.797 -6.273,-56.336 l 20.713,20.714 c -7.965,10.833 -12.356,23.809 -12.594,37.469 z m 35.111,35.11 -1.841,-1.841 -0.001,-0.001 c -8.575,-8.574 -13.297,-19.976 -13.297,-32.103 0,-8.719 2.453,-17.057 7.013,-24.245 l 20.721,20.722 c -7.965,10.833 -12.357,23.808 -12.595,37.468 z m 160.043,184.854 -5.445,-5.445 49.841,-49.841 5.445,5.444 z m 37.335,-76.509 c -0.003,0.003 -0.007,0.006 -0.01,0.009 -0.003,0.003 -0.006,0.007 -0.009,0.01 l -63.964,63.965 c -0.003,0.003 -0.007,0.006 -0.01,0.009 -0.003,0.003 -0.006,0.007 -0.009,0.01 l -30.135,30.136 -64.748,-64.749 c -3.906,-3.903 -10.237,-3.903 -14.142,0 -3.905,3.905 -3.906,10.237 0,14.143 l 61.375,61.375 -25.904,11.102 -90.63,-90.63 10.878,-26.128 22.083,22.083 c 1.953,1.952 4.512,2.929 7.071,2.929 2.559,0 5.119,-0.977 7.071,-2.929 3.905,-3.905 3.906,-10.237 0,-14.143 l -25.574,-25.574 42.542,-42.543 c 0.002,-0.002 0.005,-0.004 0.007,-0.006 l 39.174,-39.174 c 0.003,-0.003 0.005,-0.006 0.008,-0.009 l 42.541,-42.54 112.521,112.52 z m 40.905,-47.651 -105.658,-105.657 26.129,-10.878 90.63,90.631 z"
   id="path575"
   style="stroke-width:22.4782;stroke-dasharray:none" />
	<path
   d="m 377.535,302.463 c 2.794,0 5.421,-1.088 7.379,-3.046 1.984,-1.974 3.079,-4.603 3.083,-7.401 0.004,-2.8 -1.085,-5.432 -3.065,-7.412 -1.976,-1.977 -4.603,-3.064 -7.396,-3.064 -2.795,0 -5.422,1.088 -7.418,3.084 -4.057,4.079 -4.048,10.707 0.021,14.775 1.974,1.976 4.601,3.064 7.396,3.064 z"
   id="path577" />
	<path
   d="m 331.831,295.934 c 2.794,0 5.421,-1.088 7.397,-3.064 4.078,-4.078 4.078,-10.716 -0.001,-14.795 -1.976,-1.976 -4.603,-3.063 -7.396,-3.063 -2.793,0 -5.421,1.088 -7.397,3.064 -4.078,4.078 -4.078,10.716 10e-4,14.795 1.976,1.975 4.603,3.063 7.396,3.063 z"
   id="path579" />
</g><g
       id="g583">
</g><g
       id="g585">
</g><g
       id="g587">
</g><g
       id="g589">
</g><g
       id="g591">
</g><g
       id="g593">
</g><g
       id="g595">
</g><g
       id="g597">
</g><g
       id="g599">
</g><g
       id="g601">
</g><g
       id="g603">
</g><g
       id="g605">
</g><g
       id="g607">
</g><g
       id="g609">
</g><g
       id="g611">
</g></g></svg>
