<?xml version="1.0" encoding="UTF-8" standalone="no"?>
<svg
   xmlns:dc="http://purl.org/dc/elements/1.1/"
   xmlns:cc="http://creativecommons.org/ns#"
   xmlns:rdf="http://www.w3.org/1999/02/22-rdf-syntax-ns#"
   xmlns:svg="http://www.w3.org/2000/svg"
   xmlns="http://www.w3.org/2000/svg"
   xmlns:sodipodi="http://sodipodi.sourceforge.net/DTD/sodipodi-0.dtd"
   xmlns:inkscape="http://www.inkscape.org/namespaces/inkscape"
   version="1.1"
   viewBox="0 0 200 200"
   id="svg12"
   sodipodi:docname="npm-red.svg"
   width="200"
   height="200"
   inkscape:version="1.0.2 (e86c870879, 2021-01-15)">
  <metadata
     id="metadata18">
    <rdf:RDF>
      <cc:Work
         rdf:about="">
        <dc:format>image/svg+xml</dc:format>
        <dc:type
           rdf:resource="http://purl.org/dc/dcmitype/StillImage" />
        <dc:title></dc:title>
      </cc:Work>
    </rdf:RDF>
  </metadata>
  <defs
     id="defs16" />
  <sodipodi:namedview
     pagecolor="#ffffff"
     bordercolor="#666666"
     borderopacity="1"
     objecttolerance="10"
     gridtolerance="10"
     guidetolerance="10"
     inkscape:pageopacity="0"
     inkscape:pageshadow="2"
     inkscape:window-width="1495"
     inkscape:window-height="960"
     id="namedview14"
     showgrid="false"
     inkscape:zoom="2.1428571"
     inkscape:cx="259"
     inkscape:cy="101"
     inkscape:window-x="0"
     inkscape:window-y="0"
     inkscape:window-maximized="0"
     inkscape:current-layer="svg12" />
  <polygon
     points="518,173 518,0 0,0 0,173 144,173 144,202 259,202 259,173 "
     fill="#cb3837"
     id="polygon2"
     transform="matrix(0.33234323,0,0,0.33234323,13.533333,66.733333)"
     style="stroke-width:3.00894" />
  <g
     fill="#ffffff"
     id="g10"
     transform="matrix(0.33234323,0,0,0.33234323,13.533333,66.733333)"
     style="stroke-width:3.00894">
    <polygon
       points="115,144 144,144 144,58 144,29 86,29 29,29 29,58 29,144 86,144 86,58 115,58 "
       id="polygon4"
       style="stroke-width:3.00894" />
    <path
       d="m 173,29 v 144 h 58 v -29 h 57 v -115 z m 86,86 h -28 v -57 h 28 z"
       id="path6"
       style="stroke-width:3.00894" />
    <polygon
       points="403,144 432,144 432,58 461,58 461,144 490,144 490,58 490,31 490,29 374,29 317,29 317,58 317,144 374,144 374,58 403,58 "
       id="polygon8"
       style="stroke-width:3.00894" />
  </g>
</svg>
