<svg xmlns="http://www.w3.org/2000/svg" id="svg26" width="512" height="512" version="1.1"><defs id="defs4"><style id="style2">.cls-1{fill:#f1592a}</style></defs><g id="Layer_2" data-name="Layer 2" transform="matrix(6.06194 0 0 6.06194 24.406 24.404)"><g id="Layer_1-2" data-name="Layer 1"><path id="path8" d="M38.1 76.41c-20.53 0-37.94-17.34-38.1-38a37.66 37.66 0 0 1 11-26.87A38.29 38.29 0 0 1 38.2 0 37.75 37.75 0 0 1 65 11.13a37.79 37.79 0 0 1 11.41 26.72 38.39 38.39 0 0 1-38 38.56ZM38.22 2a36.3 36.3 0 0 0-25.77 10.95A35.67 35.67 0 0 0 2 38.39c.15 19.58 16.65 36 36.09 36h.26a36.39 36.39 0 0 0 36.06-36.53 35.81 35.81 0 0 0-10.82-25.31A35.64 35.64 0 0 0 38.22 2Z" class="cls-1" style="fill:#f1592a"/><path id="path10" d="M8.57 49.38V27.06H14v2h-2.88v18.36H14v2z" class="cls-1" style="fill:#f1592a"/><path id="path12" d="M27 38c0 4.07-2.47 6.39-5.82 6.39s-5.58-2.61-5.58-6.18c0-3.73 2.34-6.36 5.76-6.36S27 34.59 27 38zm-9.06.18c0 2.47 1.24 4.43 3.37 4.43s3.35-2 3.35-4.52c0-2.29-1.13-4.45-3.35-4.45s-3.39 2.09-3.39 4.59z" class="cls-1" style="fill:#f1592a"/><path id="path14" d="M28.88 32.27A18.52 18.52 0 0 1 32.1 32a5.75 5.75 0 0 1 3.48.77 2.56 2.56 0 0 1 1.26 2.27 2.82 2.82 0 0 1-2 2.63 3.06 3.06 0 0 1 2.45 3 3.15 3.15 0 0 1-1.17 2.5c-.86.76-2.29 1.13-4.5 1.13a21.41 21.41 0 0 1-2.72-.16Zm2.2 4.79h1.13c1.53 0 2.39-.72 2.39-1.75s-.86-1.66-2.27-1.66a6 6 0 0 0-1.26.09zm0 5.58a9.75 9.75 0 0 0 1.17.05c1.42 0 2.68-.54 2.68-2s-1.22-2-2.75-2h-1.1z" class="cls-1" style="fill:#f1592a"/><path id="path16" d="M41.66 32.11h2.21V40c0 3.35-1.62 4.47-4 4.47a5.91 5.91 0 0 1-1.87-.32l.27-1.78a4.85 4.85 0 0 0 1.37.22c1.26 0 2-.58 2-2.68z" class="cls-1" style="fill:#f1592a"/><path id="path18" d="M50.16 38.68v1.53h-4.6v-1.53z" class="cls-1" style="fill:#f1592a"/><path id="path20" d="M60.9 43.88a7.67 7.67 0 0 1-3.13.54c-3.85 0-6.19-2.41-6.19-6.1a6.1 6.1 0 0 1 6.48-6.41 7 7 0 0 1 3 .54l-.49 1.76a5.89 5.89 0 0 0-2.38-.47c-2.47 0-4.25 1.55-4.25 4.47 0 2.66 1.57 4.38 4.23 4.38a6.2 6.2 0 0 0 2.41-.45z" class="cls-1" style="fill:#f1592a"/><path id="path22" d="M67.84 27v22.38h-5.43v-2h2.88V29h-2.88v-2z" class="cls-1" style="fill:#f1592a"/></g></g></svg>