<?xml version="1.0" encoding="UTF-8"?>
<!DOCTYPE svg PUBLIC "-//W3C//DTD SVG 1.1//EN" "http://www.w3.org/Graphics/SVG/1.1/DTD/svg11.dtd">
<svg xmlns="http://www.w3.org/2000/svg" version="1.1" width="256px" height="256px" style="shape-rendering:geometricPrecision; text-rendering:geometricPrecision; image-rendering:optimizeQuality; fill-rule:evenodd; clip-rule:evenodd" xmlns:xlink="http://www.w3.org/1999/xlink">
<g><path style="opacity:1" fill="#fefefe" d="M -0.5,-0.5 C 84.8333,-0.5 170.167,-0.5 255.5,-0.5C 255.5,84.8333 255.5,170.167 255.5,255.5C 170.167,255.5 84.8333,255.5 -0.5,255.5C -0.5,170.167 -0.5,84.8333 -0.5,-0.5 Z"/></g>
<g><path style="opacity:1" fill="#7f807f" d="M 79.5,17.5 C 78.1667,17.5 76.8333,17.5 75.5,17.5C 75.5,21.5 75.5,25.5 75.5,29.5C 75.5,30.8333 75.5,32.1667 75.5,33.5C 74.1667,33.5 72.8333,33.5 71.5,33.5C 71.5,25.5 71.5,17.5 71.5,9.5C 72.8333,9.5 74.1667,9.5 75.5,9.5C 75.5,10.8333 75.5,12.1667 75.5,13.5C 76.8333,13.5 78.1667,13.5 79.5,13.5C 79.5,14.8333 79.5,16.1667 79.5,17.5 Z"/></g>
<g><path style="opacity:1" fill="#7f807f" d="M 91.5,25.5 C 90.1667,25.5 88.8333,25.5 87.5,25.5C 87.5,22.8333 87.5,20.1667 87.5,17.5C 86.1667,17.5 84.8333,17.5 83.5,17.5C 83.5,16.1667 83.5,14.8333 83.5,13.5C 84.8333,13.5 86.1667,13.5 87.5,13.5C 87.5,12.1667 87.5,10.8333 87.5,9.5C 88.8333,9.5 90.1667,9.5 91.5,9.5C 91.5,14.8333 91.5,20.1667 91.5,25.5 Z"/></g>
<g><path style="opacity:1" fill="#7f807f" d="M 95.5,9.5 C 96.8333,9.5 98.1667,9.5 99.5,9.5C 99.5,10.8333 99.5,12.1667 99.5,13.5C 98.1667,13.5 96.8333,13.5 95.5,13.5C 95.5,12.1667 95.5,10.8333 95.5,9.5 Z"/></g>
<g><path style="opacity:1" fill="#7f807f" d="M 175.5,13.5 C 175.5,12.1667 175.5,10.8333 175.5,9.5C 176.833,9.5 178.167,9.5 179.5,9.5C 179.5,10.8333 179.5,12.1667 179.5,13.5C 178.167,13.5 176.833,13.5 175.5,13.5 Z"/></g>
<g><path style="opacity:1" fill="#7f807f" d="M 163.5,29.5 C 163.5,26.8333 163.5,24.1667 163.5,21.5C 162.167,21.5 160.833,21.5 159.5,21.5C 159.5,20.1667 159.5,18.8333 159.5,17.5C 163.5,17.5 167.5,17.5 171.5,17.5C 171.5,16.1667 171.5,14.8333 171.5,13.5C 172.833,13.5 174.167,13.5 175.5,13.5C 175.5,14.8333 175.5,16.1667 175.5,17.5C 178.167,17.5 180.833,17.5 183.5,17.5C 183.5,14.8333 183.5,12.1667 183.5,9.5C 184.833,9.5 186.167,9.5 187.5,9.5C 187.5,12.1667 187.5,14.8333 187.5,17.5C 188.833,17.5 190.167,17.5 191.5,17.5C 191.5,18.8333 191.5,20.1667 191.5,21.5C 190.167,21.5 188.833,21.5 187.5,21.5C 187.5,25.5 187.5,29.5 187.5,33.5C 186.167,33.5 184.833,33.5 183.5,33.5C 183.5,29.5 183.5,25.5 183.5,21.5C 180.833,21.5 178.167,21.5 175.5,21.5C 175.5,25.5 175.5,29.5 175.5,33.5C 174.167,33.5 172.833,33.5 171.5,33.5C 171.5,29.5 171.5,25.5 171.5,21.5C 170.167,21.5 168.833,21.5 167.5,21.5C 167.5,24.1667 167.5,26.8333 167.5,29.5C 166.167,29.5 164.833,29.5 163.5,29.5 Z"/></g>
<g><path style="opacity:1" fill="#fefffe" d="M 79.5,17.5 C 79.5,18.8333 79.5,20.1667 79.5,21.5C 80.8333,21.5 82.1667,21.5 83.5,21.5C 83.5,20.1667 83.5,18.8333 83.5,17.5C 84.8333,17.5 86.1667,17.5 87.5,17.5C 87.5,20.1667 87.5,22.8333 87.5,25.5C 84.8333,25.5 82.1667,25.5 79.5,25.5C 79.5,26.8333 79.5,28.1667 79.5,29.5C 78.1667,29.5 76.8333,29.5 75.5,29.5C 75.5,25.5 75.5,21.5 75.5,17.5C 76.8333,17.5 78.1667,17.5 79.5,17.5 Z"/></g>
<g><path style="opacity:1" fill="#7f807f" d="M 79.5,17.5 C 80.8333,17.5 82.1667,17.5 83.5,17.5C 83.5,18.8333 83.5,20.1667 83.5,21.5C 82.1667,21.5 80.8333,21.5 79.5,21.5C 79.5,20.1667 79.5,18.8333 79.5,17.5 Z"/></g>
<g><path style="opacity:1" fill="#7f807f" d="M 99.5,25.5 C 98.1667,25.5 96.8333,25.5 95.5,25.5C 95.5,22.8333 95.5,20.1667 95.5,17.5C 96.8333,17.5 98.1667,17.5 99.5,17.5C 99.5,20.1667 99.5,22.8333 99.5,25.5 Z"/></g>
<g><path style="opacity:1" fill="#7f807f" d="M 107.5,21.5 C 107.5,20.1667 107.5,18.8333 107.5,17.5C 110.167,17.5 112.833,17.5 115.5,17.5C 115.5,18.8333 115.5,20.1667 115.5,21.5C 112.833,21.5 110.167,21.5 107.5,21.5 Z"/></g>
<g><path style="opacity:1" fill="#7f807f" d="M 127.5,21.5 C 126.167,21.5 124.833,21.5 123.5,21.5C 123.5,22.8333 123.5,24.1667 123.5,25.5C 122.167,25.5 120.833,25.5 119.5,25.5C 119.5,22.8333 119.5,20.1667 119.5,17.5C 122.167,17.5 124.833,17.5 127.5,17.5C 127.5,18.8333 127.5,20.1667 127.5,21.5 Z"/></g>
<g><path style="opacity:1" fill="#7f807f" d="M 135.5,17.5 C 135.5,18.8333 135.5,20.1667 135.5,21.5C 134.167,21.5 132.833,21.5 131.5,21.5C 131.5,20.1667 131.5,18.8333 131.5,17.5C 132.833,17.5 134.167,17.5 135.5,17.5 Z"/></g>
<g><path style="opacity:1" fill="#000000" d="M 135.5,17.5 C 142.167,17.5 148.833,17.5 155.5,17.5C 155.5,18.8333 155.5,20.1667 155.5,21.5C 155.5,25.5 155.5,29.5 155.5,33.5C 155.5,36.1667 155.5,38.8333 155.5,41.5C 154.167,41.5 152.833,41.5 151.5,41.5C 151.5,34.8333 151.5,28.1667 151.5,21.5C 150.167,21.5 148.833,21.5 147.5,21.5C 144.833,21.5 142.167,21.5 139.5,21.5C 139.5,28.1667 139.5,34.8333 139.5,41.5C 138.167,41.5 136.833,41.5 135.5,41.5C 135.5,38.8333 135.5,36.1667 135.5,33.5C 135.5,32.1667 135.5,30.8333 135.5,29.5C 135.5,26.8333 135.5,24.1667 135.5,21.5C 135.5,20.1667 135.5,18.8333 135.5,17.5 Z"/></g>
<g><path style="opacity:1" fill="#7f807f" d="M 107.5,21.5 C 107.5,22.8333 107.5,24.1667 107.5,25.5C 106.167,25.5 104.833,25.5 103.5,25.5C 103.5,24.1667 103.5,22.8333 103.5,21.5C 104.833,21.5 106.167,21.5 107.5,21.5 Z"/></g>
<g><path style="opacity:1" fill="#fefffe" d="M 127.5,21.5 C 127.5,22.8333 127.5,24.1667 127.5,25.5C 126.167,25.5 124.833,25.5 123.5,25.5C 123.5,24.1667 123.5,22.8333 123.5,21.5C 124.833,21.5 126.167,21.5 127.5,21.5 Z"/></g>
<g><path style="opacity:1" fill="#7f807f" d="M 127.5,21.5 C 128.833,21.5 130.167,21.5 131.5,21.5C 131.5,24.1667 131.5,26.8333 131.5,29.5C 130.167,29.5 128.833,29.5 127.5,29.5C 127.5,28.1667 127.5,26.8333 127.5,25.5C 127.5,24.1667 127.5,22.8333 127.5,21.5 Z"/></g>
<g><path style="opacity:1" fill="#fefffe" d="M 131.5,21.5 C 132.833,21.5 134.167,21.5 135.5,21.5C 135.5,24.1667 135.5,26.8333 135.5,29.5C 134.167,29.5 132.833,29.5 131.5,29.5C 131.5,26.8333 131.5,24.1667 131.5,21.5 Z"/></g>
<g><path style="opacity:1" fill="#fefffe" d="M 147.5,21.5 C 147.5,22.8333 147.5,24.1667 147.5,25.5C 146.167,25.5 144.833,25.5 143.5,25.5C 143.5,30.8333 143.5,36.1667 143.5,41.5C 142.167,41.5 140.833,41.5 139.5,41.5C 139.5,34.8333 139.5,28.1667 139.5,21.5C 142.167,21.5 144.833,21.5 147.5,21.5 Z"/></g>
<g><path style="opacity:1" fill="#7f807f" d="M 147.5,21.5 C 148.833,21.5 150.167,21.5 151.5,21.5C 151.5,28.1667 151.5,34.8333 151.5,41.5C 150.167,41.5 148.833,41.5 147.5,41.5C 147.5,36.1667 147.5,30.8333 147.5,25.5C 147.5,24.1667 147.5,22.8333 147.5,21.5 Z"/></g>
<g><path style="opacity:1" fill="#7f807f" d="M 155.5,21.5 C 156.833,21.5 158.167,21.5 159.5,21.5C 159.5,24.1667 159.5,26.8333 159.5,29.5C 160.833,29.5 162.167,29.5 163.5,29.5C 163.5,30.8333 163.5,32.1667 163.5,33.5C 160.833,33.5 158.167,33.5 155.5,33.5C 155.5,29.5 155.5,25.5 155.5,21.5 Z"/></g>
<g><path style="opacity:1" fill="#fefffe" d="M 159.5,21.5 C 160.833,21.5 162.167,21.5 163.5,21.5C 163.5,24.1667 163.5,26.8333 163.5,29.5C 162.167,29.5 160.833,29.5 159.5,29.5C 159.5,26.8333 159.5,24.1667 159.5,21.5 Z"/></g>
<g><path style="opacity:1" fill="#000000" d="M 87.5,25.5 C 88.8333,25.5 90.1667,25.5 91.5,25.5C 92.8333,25.5 94.1667,25.5 95.5,25.5C 96.8333,25.5 98.1667,25.5 99.5,25.5C 100.833,25.5 102.167,25.5 103.5,25.5C 104.833,25.5 106.167,25.5 107.5,25.5C 108.833,25.5 110.167,25.5 111.5,25.5C 111.5,26.8333 111.5,28.1667 111.5,29.5C 100.833,29.5 90.1667,29.5 79.5,29.5C 79.5,28.1667 79.5,26.8333 79.5,25.5C 82.1667,25.5 84.8333,25.5 87.5,25.5 Z"/></g>
<g><path style="opacity:1" fill="#000000" d="M 119.5,25.5 C 120.833,25.5 122.167,25.5 123.5,25.5C 124.833,25.5 126.167,25.5 127.5,25.5C 127.5,26.8333 127.5,28.1667 127.5,29.5C 124.833,29.5 122.167,29.5 119.5,29.5C 119.5,28.1667 119.5,26.8333 119.5,25.5 Z"/></g>
<g><path style="opacity:1" fill="#bfc0bf" d="M 147.5,25.5 C 147.5,30.8333 147.5,36.1667 147.5,41.5C 147.5,49.5 147.5,57.5 147.5,65.5C 146.167,65.5 144.833,65.5 143.5,65.5C 143.5,57.5 143.5,49.5 143.5,41.5C 143.5,36.1667 143.5,30.8333 143.5,25.5C 144.833,25.5 146.167,25.5 147.5,25.5 Z"/></g>
<g><path style="opacity:1" fill="#000000" d="M 75.5,29.5 C 76.8333,29.5 78.1667,29.5 79.5,29.5C 79.5,30.8333 79.5,32.1667 79.5,33.5C 78.1667,33.5 76.8333,33.5 75.5,33.5C 75.5,32.1667 75.5,30.8333 75.5,29.5 Z"/></g>
<g><path style="opacity:1" fill="#fefffe" d="M 79.5,29.5 C 90.1667,29.5 100.833,29.5 111.5,29.5C 111.5,30.8333 111.5,32.1667 111.5,33.5C 100.833,33.5 90.1667,33.5 79.5,33.5C 79.5,32.1667 79.5,30.8333 79.5,29.5 Z"/></g>
<g><path style="opacity:1" fill="#000000" d="M 111.5,29.5 C 114.167,29.5 116.833,29.5 119.5,29.5C 119.5,30.8333 119.5,32.1667 119.5,33.5C 116.833,33.5 114.167,33.5 111.5,33.5C 111.5,32.1667 111.5,30.8333 111.5,29.5 Z"/></g>
<g><path style="opacity:1" fill="#000000" d="M 127.5,29.5 C 128.833,29.5 130.167,29.5 131.5,29.5C 131.5,30.8333 131.5,32.1667 131.5,33.5C 131.5,37.5 131.5,41.5 131.5,45.5C 130.167,45.5 128.833,45.5 127.5,45.5C 127.5,42.8333 127.5,40.1667 127.5,37.5C 127.5,34.8333 127.5,32.1667 127.5,29.5 Z"/></g>
<g><path style="opacity:1" fill="#7f807f" d="M 131.5,29.5 C 132.833,29.5 134.167,29.5 135.5,29.5C 135.5,30.8333 135.5,32.1667 135.5,33.5C 134.167,33.5 132.833,33.5 131.5,33.5C 131.5,32.1667 131.5,30.8333 131.5,29.5 Z"/></g>
<g><path style="opacity:1" fill="#000000" d="M 71.5,33.5 C 72.8333,33.5 74.1667,33.5 75.5,33.5C 75.5,34.8333 75.5,36.1667 75.5,37.5C 74.1667,37.5 72.8333,37.5 71.5,37.5C 71.5,36.1667 71.5,34.8333 71.5,33.5 Z"/></g>
<g><path style="opacity:1" fill="#c7c7c7" d="M 119.5,29.5 C 122.167,29.5 124.833,29.5 127.5,29.5C 127.5,32.1667 127.5,34.8333 127.5,37.5C 126.167,37.5 124.833,37.5 123.5,37.5C 123.5,38.8333 123.5,40.1667 123.5,41.5C 122.167,41.5 120.833,41.5 119.5,41.5C 119.5,40.1667 119.5,38.8333 119.5,37.5C 116.833,37.5 114.167,37.5 111.5,37.5C 111.5,38.8333 111.5,40.1667 111.5,41.5C 108.833,41.5 106.167,41.5 103.5,41.5C 103.5,42.8333 103.5,44.1667 103.5,45.5C 103.5,49.5 103.5,53.5 103.5,57.5C 102.167,57.5 100.833,57.5 99.5,57.5C 99.5,53.5 99.5,49.5 99.5,45.5C 99.5,44.1667 99.5,42.8333 99.5,41.5C 96.8333,41.5 94.1667,41.5 91.5,41.5C 91.5,40.1667 91.5,38.8333 91.5,37.5C 86.1667,37.5 80.8333,37.5 75.5,37.5C 75.5,36.1667 75.5,34.8333 75.5,33.5C 76.8333,33.5 78.1667,33.5 79.5,33.5C 90.1667,33.5 100.833,33.5 111.5,33.5C 114.167,33.5 116.833,33.5 119.5,33.5C 119.5,32.1667 119.5,30.8333 119.5,29.5 Z"/></g>
<g><path style="opacity:1" fill="#000000" d="M 71.5,37.5 C 71.5,38.8333 71.5,40.1667 71.5,41.5C 71.5,42.8333 71.5,44.1667 71.5,45.5C 72.8333,45.5 74.1667,45.5 75.5,45.5C 75.5,46.8333 75.5,48.1667 75.5,49.5C 74.1667,49.5 72.8333,49.5 71.5,49.5C 71.5,50.8333 71.5,52.1667 71.5,53.5C 70.1667,53.5 68.8333,53.5 67.5,53.5C 67.5,48.1667 67.5,42.8333 67.5,37.5C 68.8333,37.5 70.1667,37.5 71.5,37.5 Z"/></g>
<g><path style="opacity:1" fill="#fefffe" d="M 71.5,37.5 C 72.8333,37.5 74.1667,37.5 75.5,37.5C 75.5,38.8333 75.5,40.1667 75.5,41.5C 74.1667,41.5 72.8333,41.5 71.5,41.5C 71.5,40.1667 71.5,38.8333 71.5,37.5 Z"/></g>
<g><path style="opacity:1" fill="#7f807f" d="M 75.5,37.5 C 80.8333,37.5 86.1667,37.5 91.5,37.5C 91.5,38.8333 91.5,40.1667 91.5,41.5C 86.1667,41.5 80.8333,41.5 75.5,41.5C 75.5,40.1667 75.5,38.8333 75.5,37.5 Z"/></g>
<g><path style="opacity:1" fill="#7f807f" d="M 119.5,41.5 C 116.833,41.5 114.167,41.5 111.5,41.5C 111.5,40.1667 111.5,38.8333 111.5,37.5C 114.167,37.5 116.833,37.5 119.5,37.5C 119.5,38.8333 119.5,40.1667 119.5,41.5 Z"/></g>
<g><path style="opacity:1" fill="#7f807f" d="M 127.5,37.5 C 127.5,40.1667 127.5,42.8333 127.5,45.5C 124.833,45.5 122.167,45.5 119.5,45.5C 119.5,44.1667 119.5,42.8333 119.5,41.5C 120.833,41.5 122.167,41.5 123.5,41.5C 123.5,40.1667 123.5,38.8333 123.5,37.5C 124.833,37.5 126.167,37.5 127.5,37.5 Z"/></g>
<g><path style="opacity:1" fill="#000000" d="M 187.5,45.5 C 186.167,45.5 184.833,45.5 183.5,45.5C 183.5,44.1667 183.5,42.8333 183.5,41.5C 182.167,41.5 180.833,41.5 179.5,41.5C 174.167,41.5 168.833,41.5 163.5,41.5C 163.5,40.1667 163.5,38.8333 163.5,37.5C 171.5,37.5 179.5,37.5 187.5,37.5C 187.5,40.1667 187.5,42.8333 187.5,45.5 Z"/></g>
<g><path style="opacity:1" fill="#7f807f" d="M 71.5,41.5 C 72.8333,41.5 74.1667,41.5 75.5,41.5C 75.5,42.8333 75.5,44.1667 75.5,45.5C 74.1667,45.5 72.8333,45.5 71.5,45.5C 71.5,44.1667 71.5,42.8333 71.5,41.5 Z"/></g>
<g><path style="opacity:1" fill="#000000" d="M 75.5,41.5 C 80.8333,41.5 86.1667,41.5 91.5,41.5C 91.5,42.8333 91.5,44.1667 91.5,45.5C 94.1667,45.5 96.8333,45.5 99.5,45.5C 99.5,49.5 99.5,53.5 99.5,57.5C 100.833,57.5 102.167,57.5 103.5,57.5C 103.5,53.5 103.5,49.5 103.5,45.5C 106.167,45.5 108.833,45.5 111.5,45.5C 111.5,46.8333 111.5,48.1667 111.5,49.5C 110.167,49.5 108.833,49.5 107.5,49.5C 107.5,52.1667 107.5,54.8333 107.5,57.5C 108.833,57.5 110.167,57.5 111.5,57.5C 111.5,58.8333 111.5,60.1667 111.5,61.5C 111.5,62.8333 111.5,64.1667 111.5,65.5C 111.5,66.8333 111.5,68.1667 111.5,69.5C 111.5,70.8333 111.5,72.1667 111.5,73.5C 116.833,73.5 122.167,73.5 127.5,73.5C 127.5,74.8333 127.5,76.1667 127.5,77.5C 108.833,77.5 90.1667,77.5 71.5,77.5C 71.5,76.1667 71.5,74.8333 71.5,73.5C 78.1667,73.5 84.8333,73.5 91.5,73.5C 91.5,72.1667 91.5,70.8333 91.5,69.5C 91.5,68.1667 91.5,66.8333 91.5,65.5C 91.5,64.1667 91.5,62.8333 91.5,61.5C 91.5,60.1667 91.5,58.8333 91.5,57.5C 92.8333,57.5 94.1667,57.5 95.5,57.5C 95.5,54.8333 95.5,52.1667 95.5,49.5C 92.8333,49.5 90.1667,49.5 87.5,49.5C 87.5,48.1667 87.5,46.8333 87.5,45.5C 83.5,45.5 79.5,45.5 75.5,45.5C 75.5,44.1667 75.5,42.8333 75.5,41.5 Z"/></g>
<g><path style="opacity:1" fill="#7f807f" d="M 91.5,41.5 C 94.1667,41.5 96.8333,41.5 99.5,41.5C 99.5,42.8333 99.5,44.1667 99.5,45.5C 96.8333,45.5 94.1667,45.5 91.5,45.5C 91.5,44.1667 91.5,42.8333 91.5,41.5 Z"/></g>
<g><path style="opacity:1" fill="#7f807f" d="M 111.5,41.5 C 111.5,42.8333 111.5,44.1667 111.5,45.5C 108.833,45.5 106.167,45.5 103.5,45.5C 103.5,44.1667 103.5,42.8333 103.5,41.5C 106.167,41.5 108.833,41.5 111.5,41.5 Z"/></g>
<g><path style="opacity:1" fill="#000000" d="M 111.5,41.5 C 114.167,41.5 116.833,41.5 119.5,41.5C 119.5,42.8333 119.5,44.1667 119.5,45.5C 116.833,45.5 114.167,45.5 111.5,45.5C 111.5,44.1667 111.5,42.8333 111.5,41.5 Z"/></g>
<g><path style="opacity:1" fill="#000000" d="M 139.5,41.5 C 140.833,41.5 142.167,41.5 143.5,41.5C 143.5,49.5 143.5,57.5 143.5,65.5C 144.833,65.5 146.167,65.5 147.5,65.5C 147.5,57.5 147.5,49.5 147.5,41.5C 148.833,41.5 150.167,41.5 151.5,41.5C 151.5,50.8333 151.5,60.1667 151.5,69.5C 148.833,69.5 146.167,69.5 143.5,69.5C 142.167,69.5 140.833,69.5 139.5,69.5C 139.5,68.1667 139.5,66.8333 139.5,65.5C 139.5,64.1667 139.5,62.8333 139.5,61.5C 139.5,60.1667 139.5,58.8333 139.5,57.5C 139.5,52.1667 139.5,46.8333 139.5,41.5 Z"/></g>
<g><path style="opacity:1" fill="#000000" d="M 155.5,41.5 C 158.167,41.5 160.833,41.5 163.5,41.5C 163.5,42.8333 163.5,44.1667 163.5,45.5C 162.167,45.5 160.833,45.5 159.5,45.5C 159.5,53.5 159.5,61.5 159.5,69.5C 158.167,69.5 156.833,69.5 155.5,69.5C 155.5,60.1667 155.5,50.8333 155.5,41.5 Z"/></g>
<g><path style="opacity:1" fill="#fefffe" d="M 163.5,41.5 C 168.833,41.5 174.167,41.5 179.5,41.5C 179.5,42.8333 179.5,44.1667 179.5,45.5C 174.167,45.5 168.833,45.5 163.5,45.5C 163.5,44.1667 163.5,42.8333 163.5,41.5 Z"/></g>
<g><path style="opacity:1" fill="#7f807f" d="M 179.5,41.5 C 180.833,41.5 182.167,41.5 183.5,41.5C 183.5,42.8333 183.5,44.1667 183.5,45.5C 182.167,45.5 180.833,45.5 179.5,45.5C 179.5,44.1667 179.5,42.8333 179.5,41.5 Z"/></g>
<g><path style="opacity:1" fill="#7f807f" d="M 75.5,45.5 C 79.5,45.5 83.5,45.5 87.5,45.5C 87.5,46.8333 87.5,48.1667 87.5,49.5C 83.5,49.5 79.5,49.5 75.5,49.5C 75.5,48.1667 75.5,46.8333 75.5,45.5 Z"/></g>
<g><path style="opacity:1" fill="#7f807f" d="M 111.5,45.5 C 114.167,45.5 116.833,45.5 119.5,45.5C 119.5,46.8333 119.5,48.1667 119.5,49.5C 116.833,49.5 114.167,49.5 111.5,49.5C 111.5,48.1667 111.5,46.8333 111.5,45.5 Z"/></g>
<g><path style="opacity:1" fill="#000000" d="M 119.5,45.5 C 122.167,45.5 124.833,45.5 127.5,45.5C 127.5,46.8333 127.5,48.1667 127.5,49.5C 124.833,49.5 122.167,49.5 119.5,49.5C 119.5,48.1667 119.5,46.8333 119.5,45.5 Z"/></g>
<g><path style="opacity:1" fill="#dfdfdf" d="M 151.5,41.5 C 152.833,41.5 154.167,41.5 155.5,41.5C 155.5,50.8333 155.5,60.1667 155.5,69.5C 154.167,69.5 152.833,69.5 151.5,69.5C 151.5,60.1667 151.5,50.8333 151.5,41.5 Z"/></g>
<g><path style="opacity:1" fill="#fefffe" d="M 163.5,45.5 C 163.5,53.5 163.5,61.5 163.5,69.5C 162.167,69.5 160.833,69.5 159.5,69.5C 159.5,61.5 159.5,53.5 159.5,45.5C 160.833,45.5 162.167,45.5 163.5,45.5 Z"/></g>
<g><path style="opacity:1" fill="#000000" d="M 179.5,45.5 C 180.833,45.5 182.167,45.5 183.5,45.5C 183.5,46.8333 183.5,48.1667 183.5,49.5C 182.167,49.5 180.833,49.5 179.5,49.5C 179.5,48.1667 179.5,46.8333 179.5,45.5 Z"/></g>
<g><path style="opacity:1" fill="#fefffe" d="M 183.5,45.5 C 184.833,45.5 186.167,45.5 187.5,45.5C 187.5,46.8333 187.5,48.1667 187.5,49.5C 186.167,49.5 184.833,49.5 183.5,49.5C 183.5,48.1667 183.5,46.8333 183.5,45.5 Z"/></g>
<g><path style="opacity:1" fill="#000000" d="M 187.5,45.5 C 190.167,45.5 192.833,45.5 195.5,45.5C 195.5,53.5 195.5,61.5 195.5,69.5C 194.167,69.5 192.833,69.5 191.5,69.5C 191.5,64.1667 191.5,58.8333 191.5,53.5C 191.5,52.1667 191.5,50.8333 191.5,49.5C 190.167,49.5 188.833,49.5 187.5,49.5C 187.5,48.1667 187.5,46.8333 187.5,45.5 Z"/></g>
<g><path style="opacity:1" fill="#000000" d="M 179.5,49.5 C 179.5,50.8333 179.5,52.1667 179.5,53.5C 176.833,53.5 174.167,53.5 171.5,53.5C 171.5,52.1667 171.5,50.8333 171.5,49.5C 174.167,49.5 176.833,49.5 179.5,49.5 Z"/></g>
<g><path style="opacity:1" fill="#fefffe" d="M 179.5,49.5 C 180.833,49.5 182.167,49.5 183.5,49.5C 183.5,50.8333 183.5,52.1667 183.5,53.5C 182.167,53.5 180.833,53.5 179.5,53.5C 179.5,52.1667 179.5,50.8333 179.5,49.5 Z"/></g>
<g><path style="opacity:1" fill="#000000" d="M 183.5,49.5 C 184.833,49.5 186.167,49.5 187.5,49.5C 187.5,50.8333 187.5,52.1667 187.5,53.5C 186.167,53.5 184.833,53.5 183.5,53.5C 183.5,52.1667 183.5,50.8333 183.5,49.5 Z"/></g>
<g><path style="opacity:1" fill="#fefffe" d="M 187.5,49.5 C 188.833,49.5 190.167,49.5 191.5,49.5C 191.5,50.8333 191.5,52.1667 191.5,53.5C 190.167,53.5 188.833,53.5 187.5,53.5C 187.5,52.1667 187.5,50.8333 187.5,49.5 Z"/></g>
<g><path style="opacity:1" fill="#a8a8a8" d="M 75.5,49.5 C 75.5,50.8333 75.5,52.1667 75.5,53.5C 79.5,53.5 83.5,53.5 87.5,53.5C 87.5,52.1667 87.5,50.8333 87.5,49.5C 90.1667,49.5 92.8333,49.5 95.5,49.5C 95.5,52.1667 95.5,54.8333 95.5,57.5C 94.1667,57.5 92.8333,57.5 91.5,57.5C 83.5,57.5 75.5,57.5 67.5,57.5C 67.5,56.1667 67.5,54.8333 67.5,53.5C 68.8333,53.5 70.1667,53.5 71.5,53.5C 71.5,52.1667 71.5,50.8333 71.5,49.5C 72.8333,49.5 74.1667,49.5 75.5,49.5 Z"/></g>
<g><path style="opacity:1" fill="#fefffe" d="M 75.5,49.5 C 79.5,49.5 83.5,49.5 87.5,49.5C 87.5,50.8333 87.5,52.1667 87.5,53.5C 83.5,53.5 79.5,53.5 75.5,53.5C 75.5,52.1667 75.5,50.8333 75.5,49.5 Z"/></g>
<g><path style="opacity:1" fill="#c8c8c8" d="M 131.5,33.5 C 132.833,33.5 134.167,33.5 135.5,33.5C 135.5,36.1667 135.5,38.8333 135.5,41.5C 136.833,41.5 138.167,41.5 139.5,41.5C 139.5,46.8333 139.5,52.1667 139.5,57.5C 130.167,57.5 120.833,57.5 111.5,57.5C 110.167,57.5 108.833,57.5 107.5,57.5C 107.5,54.8333 107.5,52.1667 107.5,49.5C 108.833,49.5 110.167,49.5 111.5,49.5C 114.167,49.5 116.833,49.5 119.5,49.5C 119.5,50.8333 119.5,52.1667 119.5,53.5C 122.167,53.5 124.833,53.5 127.5,53.5C 127.5,52.1667 127.5,50.8333 127.5,49.5C 127.5,48.1667 127.5,46.8333 127.5,45.5C 128.833,45.5 130.167,45.5 131.5,45.5C 131.5,41.5 131.5,37.5 131.5,33.5 Z"/></g>
<g><path style="opacity:1" fill="#7f807f" d="M 119.5,49.5 C 122.167,49.5 124.833,49.5 127.5,49.5C 127.5,50.8333 127.5,52.1667 127.5,53.5C 124.833,53.5 122.167,53.5 119.5,53.5C 119.5,52.1667 119.5,50.8333 119.5,49.5 Z"/></g>
<g><path style="opacity:1" fill="#000000" d="M 171.5,53.5 C 171.5,56.1667 171.5,58.8333 171.5,61.5C 170.167,61.5 168.833,61.5 167.5,61.5C 167.5,58.8333 167.5,56.1667 167.5,53.5C 168.833,53.5 170.167,53.5 171.5,53.5 Z"/></g>
<g><path style="opacity:1" fill="#000000" d="M 179.5,53.5 C 180.833,53.5 182.167,53.5 183.5,53.5C 183.5,56.1667 183.5,58.8333 183.5,61.5C 182.167,61.5 180.833,61.5 179.5,61.5C 179.5,58.8333 179.5,56.1667 179.5,53.5 Z"/></g>
<g><path style="opacity:1" fill="#7f807f" d="M 187.5,53.5 C 188.833,53.5 190.167,53.5 191.5,53.5C 191.5,58.8333 191.5,64.1667 191.5,69.5C 190.167,69.5 188.833,69.5 187.5,69.5C 187.5,64.1667 187.5,58.8333 187.5,53.5 Z"/></g>
<g><path style="opacity:1" fill="#fefffe" d="M 111.5,57.5 C 120.833,57.5 130.167,57.5 139.5,57.5C 139.5,58.8333 139.5,60.1667 139.5,61.5C 130.167,61.5 120.833,61.5 111.5,61.5C 111.5,60.1667 111.5,58.8333 111.5,57.5 Z"/></g>
<g><path style="opacity:1" fill="#e9e9e9" d="M 171.5,53.5 C 174.167,53.5 176.833,53.5 179.5,53.5C 179.5,56.1667 179.5,58.8333 179.5,61.5C 176.833,61.5 174.167,61.5 171.5,61.5C 171.5,58.8333 171.5,56.1667 171.5,53.5 Z"/></g>
<g><path style="opacity:1" fill="#bfc0bf" d="M 91.5,61.5 C 91.5,62.8333 91.5,64.1667 91.5,65.5C 83.5,65.5 75.5,65.5 67.5,65.5C 67.5,64.1667 67.5,62.8333 67.5,61.5C 75.5,61.5 83.5,61.5 91.5,61.5 Z"/></g>
<g><path style="opacity:1" fill="#00ff00" d="M 103.5,61.5 C 103.5,65.5 103.5,69.5 103.5,73.5C 100.833,73.5 98.1667,73.5 95.5,73.5C 95.5,72.1667 95.5,70.8333 95.5,69.5C 96.8333,69.5 98.1667,69.5 99.5,69.5C 99.5,68.1667 99.5,66.8333 99.5,65.5C 98.1667,65.5 96.8333,65.5 95.5,65.5C 95.5,64.1667 95.5,62.8333 95.5,61.5C 98.1667,61.5 100.833,61.5 103.5,61.5 Z"/></g>
<g><path style="opacity:1" fill="#7f807f" d="M 103.5,61.5 C 104.833,61.5 106.167,61.5 107.5,61.5C 107.5,65.5 107.5,69.5 107.5,73.5C 106.167,73.5 104.833,73.5 103.5,73.5C 103.5,69.5 103.5,65.5 103.5,61.5 Z"/></g>
<g><path style="opacity:1" fill="#bfc0bf" d="M 111.5,61.5 C 120.833,61.5 130.167,61.5 139.5,61.5C 139.5,62.8333 139.5,64.1667 139.5,65.5C 130.167,65.5 120.833,65.5 111.5,65.5C 111.5,64.1667 111.5,62.8333 111.5,61.5 Z"/></g>
<g><path style="opacity:1" fill="#b5b5b5" d="M 163.5,45.5 C 168.833,45.5 174.167,45.5 179.5,45.5C 179.5,46.8333 179.5,48.1667 179.5,49.5C 176.833,49.5 174.167,49.5 171.5,49.5C 171.5,50.8333 171.5,52.1667 171.5,53.5C 170.167,53.5 168.833,53.5 167.5,53.5C 167.5,56.1667 167.5,58.8333 167.5,61.5C 168.833,61.5 170.167,61.5 171.5,61.5C 171.5,62.8333 171.5,64.1667 171.5,65.5C 171.5,66.8333 171.5,68.1667 171.5,69.5C 170.167,69.5 168.833,69.5 167.5,69.5C 167.5,70.8333 167.5,72.1667 167.5,73.5C 167.5,74.8333 167.5,76.1667 167.5,77.5C 166.167,77.5 164.833,77.5 163.5,77.5C 163.5,78.8333 163.5,80.1667 163.5,81.5C 162.167,81.5 160.833,81.5 159.5,81.5C 159.5,82.8333 159.5,84.1667 159.5,85.5C 158.167,85.5 156.833,85.5 155.5,85.5C 155.5,86.8333 155.5,88.1667 155.5,89.5C 154.167,89.5 152.833,89.5 151.5,89.5C 151.5,90.8333 151.5,92.1667 151.5,93.5C 150.167,93.5 148.833,93.5 147.5,93.5C 146.167,93.5 144.833,93.5 143.5,93.5C 143.5,94.8333 143.5,96.1667 143.5,97.5C 142.167,97.5 140.833,97.5 139.5,97.5C 139.5,98.8333 139.5,100.167 139.5,101.5C 138.167,101.5 136.833,101.5 135.5,101.5C 135.5,105.5 135.5,109.5 135.5,113.5C 134.167,113.5 132.833,113.5 131.5,113.5C 131.5,106.833 131.5,100.167 131.5,93.5C 132.833,93.5 134.167,93.5 135.5,93.5C 135.5,92.1667 135.5,90.8333 135.5,89.5C 136.833,89.5 138.167,89.5 139.5,89.5C 139.5,88.1667 139.5,86.8333 139.5,85.5C 140.833,85.5 142.167,85.5 143.5,85.5C 143.5,84.1667 143.5,82.8333 143.5,81.5C 146.167,81.5 148.833,81.5 151.5,81.5C 151.5,78.8333 151.5,76.1667 151.5,73.5C 152.833,73.5 154.167,73.5 155.5,73.5C 155.5,72.1667 155.5,70.8333 155.5,69.5C 156.833,69.5 158.167,69.5 159.5,69.5C 160.833,69.5 162.167,69.5 163.5,69.5C 163.5,61.5 163.5,53.5 163.5,45.5 Z"/></g>
<g><path style="opacity:1" fill="#000000" d="M 171.5,61.5 C 174.167,61.5 176.833,61.5 179.5,61.5C 179.5,62.8333 179.5,64.1667 179.5,65.5C 176.833,65.5 174.167,65.5 171.5,65.5C 171.5,64.1667 171.5,62.8333 171.5,61.5 Z"/></g>
<g><path style="opacity:1" fill="#e0e0e0" d="M 183.5,53.5 C 184.833,53.5 186.167,53.5 187.5,53.5C 187.5,58.8333 187.5,64.1667 187.5,69.5C 182.167,69.5 176.833,69.5 171.5,69.5C 171.5,68.1667 171.5,66.8333 171.5,65.5C 174.167,65.5 176.833,65.5 179.5,65.5C 179.5,64.1667 179.5,62.8333 179.5,61.5C 180.833,61.5 182.167,61.5 183.5,61.5C 183.5,58.8333 183.5,56.1667 183.5,53.5 Z"/></g>
<g><path style="opacity:1" fill="#fefffe" d="M 95.5,65.5 C 96.8333,65.5 98.1667,65.5 99.5,65.5C 99.5,66.8333 99.5,68.1667 99.5,69.5C 98.1667,69.5 96.8333,69.5 95.5,69.5C 95.5,68.1667 95.5,66.8333 95.5,65.5 Z"/></g>
<g><path style="opacity:1" fill="#fefffe" d="M 111.5,65.5 C 120.833,65.5 130.167,65.5 139.5,65.5C 139.5,66.8333 139.5,68.1667 139.5,69.5C 138.167,69.5 136.833,69.5 135.5,69.5C 127.5,69.5 119.5,69.5 111.5,69.5C 111.5,68.1667 111.5,66.8333 111.5,65.5 Z"/></g>
<g><path style="opacity:1" fill="#bfc0bf" d="M 91.5,69.5 C 91.5,70.8333 91.5,72.1667 91.5,73.5C 84.8333,73.5 78.1667,73.5 71.5,73.5C 70.1667,73.5 68.8333,73.5 67.5,73.5C 67.5,72.1667 67.5,70.8333 67.5,69.5C 75.5,69.5 83.5,69.5 91.5,69.5 Z"/></g>
<g><path style="opacity:1" fill="#000000" d="M 135.5,69.5 C 136.833,69.5 138.167,69.5 139.5,69.5C 139.5,73.5 139.5,77.5 139.5,81.5C 140.833,81.5 142.167,81.5 143.5,81.5C 143.5,82.8333 143.5,84.1667 143.5,85.5C 142.167,85.5 140.833,85.5 139.5,85.5C 139.5,86.8333 139.5,88.1667 139.5,89.5C 138.167,89.5 136.833,89.5 135.5,89.5C 135.5,82.8333 135.5,76.1667 135.5,69.5 Z"/></g>
<g><path style="opacity:1" fill="#fefffe" d="M 139.5,69.5 C 140.833,69.5 142.167,69.5 143.5,69.5C 143.5,70.8333 143.5,72.1667 143.5,73.5C 144.833,73.5 146.167,73.5 147.5,73.5C 147.5,74.8333 147.5,76.1667 147.5,77.5C 146.167,77.5 144.833,77.5 143.5,77.5C 143.5,78.8333 143.5,80.1667 143.5,81.5C 142.167,81.5 140.833,81.5 139.5,81.5C 139.5,77.5 139.5,73.5 139.5,69.5 Z"/></g>
<g><path style="opacity:1" fill="#feff00" d="M 143.5,69.5 C 146.167,69.5 148.833,69.5 151.5,69.5C 151.5,70.8333 151.5,72.1667 151.5,73.5C 150.167,73.5 148.833,73.5 147.5,73.5C 146.167,73.5 144.833,73.5 143.5,73.5C 143.5,72.1667 143.5,70.8333 143.5,69.5 Z"/></g>
<g><path style="opacity:1" fill="#000000" d="M 151.5,69.5 C 152.833,69.5 154.167,69.5 155.5,69.5C 155.5,70.8333 155.5,72.1667 155.5,73.5C 154.167,73.5 152.833,73.5 151.5,73.5C 151.5,72.1667 151.5,70.8333 151.5,69.5 Z"/></g>
<g><path style="opacity:1" fill="#7f807f" d="M 171.5,69.5 C 176.833,69.5 182.167,69.5 187.5,69.5C 187.5,70.8333 187.5,72.1667 187.5,73.5C 180.833,73.5 174.167,73.5 167.5,73.5C 167.5,72.1667 167.5,70.8333 167.5,69.5C 168.833,69.5 170.167,69.5 171.5,69.5 Z"/></g>
<g><path style="opacity:1" fill="#000000" d="M 187.5,69.5 C 188.833,69.5 190.167,69.5 191.5,69.5C 191.5,70.8333 191.5,72.1667 191.5,73.5C 190.167,73.5 188.833,73.5 187.5,73.5C 187.5,72.1667 187.5,70.8333 187.5,69.5 Z"/></g>
<g><path style="opacity:1" fill="#7f807f" d="M 191.5,69.5 C 192.833,69.5 194.167,69.5 195.5,69.5C 195.5,70.8333 195.5,72.1667 195.5,73.5C 194.167,73.5 192.833,73.5 191.5,73.5C 191.5,72.1667 191.5,70.8333 191.5,69.5 Z"/></g>
<g><path style="opacity:1" fill="#000000" d="M 147.5,73.5 C 148.833,73.5 150.167,73.5 151.5,73.5C 151.5,76.1667 151.5,78.8333 151.5,81.5C 148.833,81.5 146.167,81.5 143.5,81.5C 143.5,80.1667 143.5,78.8333 143.5,77.5C 144.833,77.5 146.167,77.5 147.5,77.5C 147.5,76.1667 147.5,74.8333 147.5,73.5 Z"/></g>
<g><path style="opacity:1" fill="#000000" d="M 167.5,73.5 C 174.167,73.5 180.833,73.5 187.5,73.5C 187.5,74.8333 187.5,76.1667 187.5,77.5C 180.833,77.5 174.167,77.5 167.5,77.5C 167.5,76.1667 167.5,74.8333 167.5,73.5 Z"/></g>
<g><path style="opacity:1" fill="#000000" d="M 71.5,77.5 C 71.5,93.5 71.5,109.5 71.5,125.5C 71.5,126.833 71.5,128.167 71.5,129.5C 70.1667,129.5 68.8333,129.5 67.5,129.5C 67.5,112.167 67.5,94.8333 67.5,77.5C 68.8333,77.5 70.1667,77.5 71.5,77.5 Z"/></g>
<g><path style="opacity:1" fill="#fefffe" d="M 71.5,77.5 C 90.1667,77.5 108.833,77.5 127.5,77.5C 127.5,78.8333 127.5,80.1667 127.5,81.5C 126.167,81.5 124.833,81.5 123.5,81.5C 107.5,81.5 91.5,81.5 75.5,81.5C 75.5,96.1667 75.5,110.833 75.5,125.5C 74.1667,125.5 72.8333,125.5 71.5,125.5C 71.5,109.5 71.5,93.5 71.5,77.5 Z"/></g>
<g><path style="opacity:1" fill="#000000" d="M 127.5,77.5 C 128.833,77.5 130.167,77.5 131.5,77.5C 131.5,81.5 131.5,85.5 131.5,89.5C 132.833,89.5 134.167,89.5 135.5,89.5C 135.5,90.8333 135.5,92.1667 135.5,93.5C 134.167,93.5 132.833,93.5 131.5,93.5C 131.5,100.167 131.5,106.833 131.5,113.5C 131.5,116.167 131.5,118.833 131.5,121.5C 131.5,122.833 131.5,124.167 131.5,125.5C 134.167,125.5 136.833,125.5 139.5,125.5C 139.5,126.833 139.5,128.167 139.5,129.5C 138.167,129.5 136.833,129.5 135.5,129.5C 134.167,129.5 132.833,129.5 131.5,129.5C 131.5,130.833 131.5,132.167 131.5,133.5C 111.5,133.5 91.5,133.5 71.5,133.5C 71.5,132.167 71.5,130.833 71.5,129.5C 90.1667,129.5 108.833,129.5 127.5,129.5C 127.5,113.5 127.5,97.5 127.5,81.5C 127.5,80.1667 127.5,78.8333 127.5,77.5 Z"/></g>
<g><path style="opacity:1" fill="#000000" d="M 167.5,77.5 C 167.5,78.8333 167.5,80.1667 167.5,81.5C 166.167,81.5 164.833,81.5 163.5,81.5C 163.5,80.1667 163.5,78.8333 163.5,77.5C 164.833,77.5 166.167,77.5 167.5,77.5 Z"/></g>
<g><path style="opacity:1" fill="#8c8c8c" d="M 187.5,73.5 C 188.833,73.5 190.167,73.5 191.5,73.5C 191.5,74.8333 191.5,76.1667 191.5,77.5C 192.833,77.5 194.167,77.5 195.5,77.5C 195.5,78.8333 195.5,80.1667 195.5,81.5C 186.167,81.5 176.833,81.5 167.5,81.5C 167.5,80.1667 167.5,78.8333 167.5,77.5C 174.167,77.5 180.833,77.5 187.5,77.5C 187.5,76.1667 187.5,74.8333 187.5,73.5 Z"/></g>
<g><path style="opacity:1" fill="#0000ff" d="M 123.5,81.5 C 123.5,96.1667 123.5,110.833 123.5,125.5C 107.5,125.5 91.5,125.5 75.5,125.5C 75.5,110.833 75.5,96.1667 75.5,81.5C 91.5,81.5 107.5,81.5 123.5,81.5 Z"/></g>
<g><path style="opacity:1" fill="#7f807f" d="M 123.5,81.5 C 124.833,81.5 126.167,81.5 127.5,81.5C 127.5,97.5 127.5,113.5 127.5,129.5C 108.833,129.5 90.1667,129.5 71.5,129.5C 71.5,128.167 71.5,126.833 71.5,125.5C 72.8333,125.5 74.1667,125.5 75.5,125.5C 91.5,125.5 107.5,125.5 123.5,125.5C 123.5,110.833 123.5,96.1667 123.5,81.5 Z"/></g>
<g><path style="opacity:1" fill="#d9d9d9" d="M 111.5,69.5 C 119.5,69.5 127.5,69.5 135.5,69.5C 135.5,76.1667 135.5,82.8333 135.5,89.5C 134.167,89.5 132.833,89.5 131.5,89.5C 131.5,85.5 131.5,81.5 131.5,77.5C 130.167,77.5 128.833,77.5 127.5,77.5C 127.5,76.1667 127.5,74.8333 127.5,73.5C 122.167,73.5 116.833,73.5 111.5,73.5C 111.5,72.1667 111.5,70.8333 111.5,69.5 Z"/></g>
<g><path style="opacity:1" fill="#000000" d="M 163.5,81.5 C 163.5,82.8333 163.5,84.1667 163.5,85.5C 162.167,85.5 160.833,85.5 159.5,85.5C 159.5,84.1667 159.5,82.8333 159.5,81.5C 160.833,81.5 162.167,81.5 163.5,81.5 Z"/></g>
<g><path style="opacity:1" fill="#fefffe" d="M 87.5,85.5 C 87.5,86.8333 87.5,88.1667 87.5,89.5C 88.8333,89.5 90.1667,89.5 91.5,89.5C 91.5,90.8333 91.5,92.1667 91.5,93.5C 90.1667,93.5 88.8333,93.5 87.5,93.5C 87.5,96.1667 87.5,98.8333 87.5,101.5C 86.1667,101.5 84.8333,101.5 83.5,101.5C 83.5,96.1667 83.5,90.8333 83.5,85.5C 84.8333,85.5 86.1667,85.5 87.5,85.5 Z"/></g>
<g><path style="opacity:1" fill="#000080" d="M 87.5,85.5 C 88.8333,85.5 90.1667,85.5 91.5,85.5C 91.5,86.8333 91.5,88.1667 91.5,89.5C 91.5,88.1667 91.5,86.8333 91.5,85.5C 90.1667,85.5 88.8333,85.5 87.5,85.5 Z"/></g>
<g><path style="opacity:1" fill="#000080" d="M 99.5,85.5 C 99.5,86.8333 99.5,88.1667 99.5,89.5C 98.1667,89.5 96.8333,89.5 95.5,89.5C 95.5,88.1667 95.5,86.8333 95.5,85.5C 96.8333,85.5 98.1667,85.5 99.5,85.5 Z"/></g>
<g><path style="opacity:1" fill="#fefffe" d="M 99.5,85.5 C 100.833,85.5 102.167,85.5 103.5,85.5C 103.5,90.8333 103.5,96.1667 103.5,101.5C 102.167,101.5 100.833,101.5 99.5,101.5C 99.5,98.8333 99.5,96.1667 99.5,93.5C 98.1667,93.5 96.8333,93.5 95.5,93.5C 95.5,92.1667 95.5,90.8333 95.5,89.5C 96.8333,89.5 98.1667,89.5 99.5,89.5C 99.5,88.1667 99.5,86.8333 99.5,85.5 Z"/></g>
<g><path style="opacity:1" fill="#000080" d="M 111.5,85.5 C 111.5,86.8333 111.5,88.1667 111.5,89.5C 110.167,89.5 108.833,89.5 107.5,89.5C 107.5,88.1667 107.5,86.8333 107.5,85.5C 108.833,85.5 110.167,85.5 111.5,85.5 Z"/></g>
<g><path style="opacity:1" fill="#fefffe" d="M 111.5,85.5 C 112.833,85.5 114.167,85.5 115.5,85.5C 115.5,86.8333 115.5,88.1667 115.5,89.5C 114.167,89.5 112.833,89.5 111.5,89.5C 111.5,88.1667 111.5,86.8333 111.5,85.5 Z"/></g>
<g><path style="opacity:1" fill="#000000" d="M 159.5,85.5 C 159.5,86.8333 159.5,88.1667 159.5,89.5C 158.167,89.5 156.833,89.5 155.5,89.5C 155.5,88.1667 155.5,86.8333 155.5,85.5C 156.833,85.5 158.167,85.5 159.5,85.5 Z"/></g>
<g><path style="opacity:1" fill="#b4b4b4" d="M 163.5,81.5 C 164.833,81.5 166.167,81.5 167.5,81.5C 167.5,82.8333 167.5,84.1667 167.5,85.5C 176.833,85.5 186.167,85.5 195.5,85.5C 195.5,86.8333 195.5,88.1667 195.5,89.5C 183.5,89.5 171.5,89.5 159.5,89.5C 159.5,88.1667 159.5,86.8333 159.5,85.5C 160.833,85.5 162.167,85.5 163.5,85.5C 163.5,84.1667 163.5,82.8333 163.5,81.5 Z"/></g>
<g><path style="opacity:1" fill="#000080" d="M 91.5,89.5 C 92.8333,89.5 94.1667,89.5 95.5,89.5C 95.5,90.8333 95.5,92.1667 95.5,93.5C 94.1667,93.5 92.8333,93.5 91.5,93.5C 91.5,92.1667 91.5,90.8333 91.5,89.5 Z"/></g>
<g><path style="opacity:1" fill="#fefffe" d="M 107.5,89.5 C 108.833,89.5 110.167,89.5 111.5,89.5C 111.5,90.8333 111.5,92.1667 111.5,93.5C 110.167,93.5 108.833,93.5 107.5,93.5C 107.5,92.1667 107.5,90.8333 107.5,89.5 Z"/></g>
<g><path style="opacity:1" fill="#000000" d="M 155.5,89.5 C 155.5,92.1667 155.5,94.8333 155.5,97.5C 155.5,98.8333 155.5,100.167 155.5,101.5C 155.5,102.833 155.5,104.167 155.5,105.5C 155.5,106.833 155.5,108.167 155.5,109.5C 155.5,110.833 155.5,112.167 155.5,113.5C 155.5,114.833 155.5,116.167 155.5,117.5C 155.5,118.833 155.5,120.167 155.5,121.5C 155.5,122.833 155.5,124.167 155.5,125.5C 150.167,125.5 144.833,125.5 139.5,125.5C 139.5,124.167 139.5,122.833 139.5,121.5C 140.833,121.5 142.167,121.5 143.5,121.5C 143.5,120.167 143.5,118.833 143.5,117.5C 144.833,117.5 146.167,117.5 147.5,117.5C 147.5,118.833 147.5,120.167 147.5,121.5C 148.833,121.5 150.167,121.5 151.5,121.5C 151.5,113.5 151.5,105.5 151.5,97.5C 150.167,97.5 148.833,97.5 147.5,97.5C 147.5,96.1667 147.5,94.8333 147.5,93.5C 148.833,93.5 150.167,93.5 151.5,93.5C 151.5,92.1667 151.5,90.8333 151.5,89.5C 152.833,89.5 154.167,89.5 155.5,89.5 Z"/></g>
<g><path style="opacity:1" fill="#fefffe" d="M 91.5,93.5 C 92.8333,93.5 94.1667,93.5 95.5,93.5C 95.5,94.8333 95.5,96.1667 95.5,97.5C 94.1667,97.5 92.8333,97.5 91.5,97.5C 91.5,96.1667 91.5,94.8333 91.5,93.5 Z"/></g>
<g><path style="opacity:1" fill="#fefffe" d="M 111.5,93.5 C 112.833,93.5 114.167,93.5 115.5,93.5C 115.5,94.8333 115.5,96.1667 115.5,97.5C 114.167,97.5 112.833,97.5 111.5,97.5C 111.5,96.1667 111.5,94.8333 111.5,93.5 Z"/></g>
<g><path style="opacity:1" fill="#7f807f" d="M 147.5,93.5 C 147.5,94.8333 147.5,96.1667 147.5,97.5C 147.5,98.8333 147.5,100.167 147.5,101.5C 146.167,101.5 144.833,101.5 143.5,101.5C 143.5,102.833 143.5,104.167 143.5,105.5C 144.833,105.5 146.167,105.5 147.5,105.5C 147.5,106.833 147.5,108.167 147.5,109.5C 146.167,109.5 144.833,109.5 143.5,109.5C 143.5,110.833 143.5,112.167 143.5,113.5C 144.833,113.5 146.167,113.5 147.5,113.5C 147.5,114.833 147.5,116.167 147.5,117.5C 146.167,117.5 144.833,117.5 143.5,117.5C 143.5,118.833 143.5,120.167 143.5,121.5C 142.167,121.5 140.833,121.5 139.5,121.5C 139.5,114.833 139.5,108.167 139.5,101.5C 139.5,100.167 139.5,98.8333 139.5,97.5C 140.833,97.5 142.167,97.5 143.5,97.5C 143.5,96.1667 143.5,94.8333 143.5,93.5C 144.833,93.5 146.167,93.5 147.5,93.5 Z"/></g>
<g><path style="opacity:1" fill="#bababa" d="M 155.5,89.5 C 156.833,89.5 158.167,89.5 159.5,89.5C 159.5,90.8333 159.5,92.1667 159.5,93.5C 171.5,93.5 183.5,93.5 195.5,93.5C 195.5,94.8333 195.5,96.1667 195.5,97.5C 182.167,97.5 168.833,97.5 155.5,97.5C 155.5,94.8333 155.5,92.1667 155.5,89.5 Z"/></g>
<g><path style="opacity:1" fill="#fefffe" d="M 111.5,97.5 C 111.5,98.8333 111.5,100.167 111.5,101.5C 110.167,101.5 108.833,101.5 107.5,101.5C 107.5,100.167 107.5,98.8333 107.5,97.5C 108.833,97.5 110.167,97.5 111.5,97.5 Z"/></g>
<g><path style="opacity:1" fill="#7f807f" d="M 111.5,97.5 C 112.833,97.5 114.167,97.5 115.5,97.5C 115.5,98.8333 115.5,100.167 115.5,101.5C 114.167,101.5 112.833,101.5 111.5,101.5C 111.5,100.167 111.5,98.8333 111.5,97.5 Z"/></g>
<g><path style="opacity:1" fill="#feff00" d="M 147.5,97.5 C 148.833,97.5 150.167,97.5 151.5,97.5C 151.5,105.5 151.5,113.5 151.5,121.5C 150.167,121.5 148.833,121.5 147.5,121.5C 147.5,120.167 147.5,118.833 147.5,117.5C 147.5,116.167 147.5,114.833 147.5,113.5C 147.5,112.167 147.5,110.833 147.5,109.5C 147.5,108.167 147.5,106.833 147.5,105.5C 147.5,104.167 147.5,102.833 147.5,101.5C 147.5,100.167 147.5,98.8333 147.5,97.5 Z"/></g>
<g><path style="opacity:1" fill="#000000" d="M 147.5,101.5 C 147.5,102.833 147.5,104.167 147.5,105.5C 146.167,105.5 144.833,105.5 143.5,105.5C 143.5,104.167 143.5,102.833 143.5,101.5C 144.833,101.5 146.167,101.5 147.5,101.5 Z"/></g>
<g><path style="opacity:1" fill="#bfc0bf" d="M 155.5,101.5 C 168.833,101.5 182.167,101.5 195.5,101.5C 195.5,102.833 195.5,104.167 195.5,105.5C 182.167,105.5 168.833,105.5 155.5,105.5C 155.5,104.167 155.5,102.833 155.5,101.5 Z"/></g>
<g><path style="opacity:1" fill="#fefffe" d="M 87.5,109.5 C 86.1667,109.5 84.8333,109.5 83.5,109.5C 83.5,112.167 83.5,114.833 83.5,117.5C 84.8333,117.5 86.1667,117.5 87.5,117.5C 87.5,118.833 87.5,120.167 87.5,121.5C 84.8333,121.5 82.1667,121.5 79.5,121.5C 79.5,116.167 79.5,110.833 79.5,105.5C 82.1667,105.5 84.8333,105.5 87.5,105.5C 87.5,106.833 87.5,108.167 87.5,109.5 Z"/></g>
<g><path style="opacity:1" fill="#7f807f" d="M 99.5,105.5 C 99.5,106.833 99.5,108.167 99.5,109.5C 98.1667,109.5 96.8333,109.5 95.5,109.5C 95.5,108.167 95.5,106.833 95.5,105.5C 96.8333,105.5 98.1667,105.5 99.5,105.5 Z"/></g>
<g><path style="opacity:1" fill="#fefffe" d="M 99.5,105.5 C 100.833,105.5 102.167,105.5 103.5,105.5C 103.5,106.833 103.5,108.167 103.5,109.5C 102.167,109.5 100.833,109.5 99.5,109.5C 99.5,108.167 99.5,106.833 99.5,105.5 Z"/></g>
<g><path style="opacity:1" fill="#7f807f" d="M 103.5,105.5 C 104.833,105.5 106.167,105.5 107.5,105.5C 107.5,106.833 107.5,108.167 107.5,109.5C 106.167,109.5 104.833,109.5 103.5,109.5C 103.5,108.167 103.5,106.833 103.5,105.5 Z"/></g>
<g><path style="opacity:1" fill="#7f807f" d="M 115.5,105.5 C 115.5,106.833 115.5,108.167 115.5,109.5C 114.167,109.5 112.833,109.5 111.5,109.5C 111.5,108.167 111.5,106.833 111.5,105.5C 112.833,105.5 114.167,105.5 115.5,105.5 Z"/></g>
<g><path style="opacity:1" fill="#fefffe" d="M 115.5,105.5 C 116.833,105.5 118.167,105.5 119.5,105.5C 119.5,106.833 119.5,108.167 119.5,109.5C 118.167,109.5 116.833,109.5 115.5,109.5C 115.5,108.167 115.5,106.833 115.5,105.5 Z"/></g>
<g><path style="opacity:1" fill="#0000ff" d="M 87.5,109.5 C 87.5,112.167 87.5,114.833 87.5,117.5C 86.1667,117.5 84.8333,117.5 83.5,117.5C 83.5,114.833 83.5,112.167 83.5,109.5C 84.8333,109.5 86.1667,109.5 87.5,109.5 Z"/></g>
<g><path style="opacity:1" fill="#fefffe" d="M 87.5,109.5 C 88.8333,109.5 90.1667,109.5 91.5,109.5C 91.5,112.167 91.5,114.833 91.5,117.5C 90.1667,117.5 88.8333,117.5 87.5,117.5C 87.5,114.833 87.5,112.167 87.5,109.5 Z"/></g>
<g><path style="opacity:1" fill="#fefffe" d="M 95.5,109.5 C 96.8333,109.5 98.1667,109.5 99.5,109.5C 99.5,112.167 99.5,114.833 99.5,117.5C 98.1667,117.5 96.8333,117.5 95.5,117.5C 95.5,114.833 95.5,112.167 95.5,109.5 Z"/></g>
<g><path style="opacity:1" fill="#0000ff" d="M 99.5,109.5 C 100.833,109.5 102.167,109.5 103.5,109.5C 103.5,112.167 103.5,114.833 103.5,117.5C 102.167,117.5 100.833,117.5 99.5,117.5C 99.5,114.833 99.5,112.167 99.5,109.5 Z"/></g>
<g><path style="opacity:1" fill="#fefffe" d="M 103.5,109.5 C 104.833,109.5 106.167,109.5 107.5,109.5C 107.5,112.167 107.5,114.833 107.5,117.5C 106.167,117.5 104.833,117.5 103.5,117.5C 103.5,114.833 103.5,112.167 103.5,109.5 Z"/></g>
<g><path style="opacity:1" fill="#fefffe" d="M 111.5,109.5 C 112.833,109.5 114.167,109.5 115.5,109.5C 115.5,110.833 115.5,112.167 115.5,113.5C 114.167,113.5 112.833,113.5 111.5,113.5C 111.5,112.167 111.5,110.833 111.5,109.5 Z"/></g>
<g><path style="opacity:1" fill="#000000" d="M 147.5,109.5 C 147.5,110.833 147.5,112.167 147.5,113.5C 146.167,113.5 144.833,113.5 143.5,113.5C 143.5,112.167 143.5,110.833 143.5,109.5C 144.833,109.5 146.167,109.5 147.5,109.5 Z"/></g>
<g><path style="opacity:1" fill="#bfc0bf" d="M 155.5,109.5 C 168.833,109.5 182.167,109.5 195.5,109.5C 195.5,110.833 195.5,112.167 195.5,113.5C 182.167,113.5 168.833,113.5 155.5,113.5C 155.5,112.167 155.5,110.833 155.5,109.5 Z"/></g>
<g><path style="opacity:1" fill="#fefffe" d="M 115.5,113.5 C 116.833,113.5 118.167,113.5 119.5,113.5C 119.5,114.833 119.5,116.167 119.5,117.5C 118.167,117.5 116.833,117.5 115.5,117.5C 115.5,116.167 115.5,114.833 115.5,113.5 Z"/></g>
<g><path style="opacity:1" fill="#dbdbdb" d="M 139.5,101.5 C 139.5,108.167 139.5,114.833 139.5,121.5C 136.833,121.5 134.167,121.5 131.5,121.5C 131.5,118.833 131.5,116.167 131.5,113.5C 132.833,113.5 134.167,113.5 135.5,113.5C 135.5,109.5 135.5,105.5 135.5,101.5C 136.833,101.5 138.167,101.5 139.5,101.5 Z"/></g>
<g><path style="opacity:1" fill="#7f807f" d="M 95.5,117.5 C 96.8333,117.5 98.1667,117.5 99.5,117.5C 99.5,118.833 99.5,120.167 99.5,121.5C 98.1667,121.5 96.8333,121.5 95.5,121.5C 95.5,120.167 95.5,118.833 95.5,117.5 Z"/></g>
<g><path style="opacity:1" fill="#fefffe" d="M 99.5,117.5 C 100.833,117.5 102.167,117.5 103.5,117.5C 103.5,118.833 103.5,120.167 103.5,121.5C 102.167,121.5 100.833,121.5 99.5,121.5C 99.5,120.167 99.5,118.833 99.5,117.5 Z"/></g>
<g><path style="opacity:1" fill="#7f807f" d="M 103.5,117.5 C 104.833,117.5 106.167,117.5 107.5,117.5C 107.5,118.833 107.5,120.167 107.5,121.5C 106.167,121.5 104.833,121.5 103.5,121.5C 103.5,120.167 103.5,118.833 103.5,117.5 Z"/></g>
<g><path style="opacity:1" fill="#fefffe" d="M 115.5,117.5 C 115.5,118.833 115.5,120.167 115.5,121.5C 114.167,121.5 112.833,121.5 111.5,121.5C 111.5,120.167 111.5,118.833 111.5,117.5C 112.833,117.5 114.167,117.5 115.5,117.5 Z"/></g>
<g><path style="opacity:1" fill="#7f807f" d="M 115.5,117.5 C 116.833,117.5 118.167,117.5 119.5,117.5C 119.5,118.833 119.5,120.167 119.5,121.5C 118.167,121.5 116.833,121.5 115.5,121.5C 115.5,120.167 115.5,118.833 115.5,117.5 Z"/></g>
<g><path style="opacity:1" fill="#bfc0bf" d="M 155.5,117.5 C 168.833,117.5 182.167,117.5 195.5,117.5C 195.5,118.833 195.5,120.167 195.5,121.5C 182.167,121.5 168.833,121.5 155.5,121.5C 155.5,120.167 155.5,118.833 155.5,117.5 Z"/></g>
<g><path style="opacity:1" fill="#7f807f" d="M 131.5,121.5 C 134.167,121.5 136.833,121.5 139.5,121.5C 139.5,122.833 139.5,124.167 139.5,125.5C 136.833,125.5 134.167,125.5 131.5,125.5C 131.5,124.167 131.5,122.833 131.5,121.5 Z"/></g>
<g><path style="opacity:1" fill="#7f807f" d="M 139.5,125.5 C 144.833,125.5 150.167,125.5 155.5,125.5C 155.5,126.833 155.5,128.167 155.5,129.5C 150.167,129.5 144.833,129.5 139.5,129.5C 139.5,128.167 139.5,126.833 139.5,125.5 Z"/></g>
<g><path style="opacity:1" fill="#bfc0bf" d="M 155.5,125.5 C 168.833,125.5 182.167,125.5 195.5,125.5C 195.5,126.833 195.5,128.167 195.5,129.5C 182.167,129.5 168.833,129.5 155.5,129.5C 155.5,128.167 155.5,126.833 155.5,125.5 Z"/></g>
<g><path style="opacity:1" fill="#7f807f" d="M 135.5,129.5 C 136.833,129.5 138.167,129.5 139.5,129.5C 139.5,130.833 139.5,132.167 139.5,133.5C 138.167,133.5 136.833,133.5 135.5,133.5C 135.5,132.167 135.5,130.833 135.5,129.5 Z"/></g>
<g><path style="opacity:1" fill="#000000" d="M 51.5,161.5 C 50.1667,161.5 48.8333,161.5 47.5,161.5C 47.5,168.167 47.5,174.833 47.5,181.5C 46.1667,181.5 44.8333,181.5 43.5,181.5C 43.5,169.5 43.5,157.5 43.5,145.5C 44.8333,145.5 46.1667,145.5 47.5,145.5C 47.5,148.167 47.5,150.833 47.5,153.5C 48.8333,153.5 50.1667,153.5 51.5,153.5C 51.5,156.167 51.5,158.833 51.5,161.5 Z"/></g>
<g><path style="opacity:1" fill="#000000" d="M 63.5,161.5 C 63.5,158.833 63.5,156.167 63.5,153.5C 64.8333,153.5 66.1667,153.5 67.5,153.5C 67.5,150.833 67.5,148.167 67.5,145.5C 68.8333,145.5 70.1667,145.5 71.5,145.5C 71.5,157.5 71.5,169.5 71.5,181.5C 70.1667,181.5 68.8333,181.5 67.5,181.5C 67.5,174.833 67.5,168.167 67.5,161.5C 66.1667,161.5 64.8333,161.5 63.5,161.5 Z"/></g>
<g><path style="opacity:1" fill="#000000" d="M 79.5,145.5 C 80.8333,145.5 82.1667,145.5 83.5,145.5C 83.5,146.833 83.5,148.167 83.5,149.5C 82.1667,149.5 80.8333,149.5 79.5,149.5C 79.5,148.167 79.5,146.833 79.5,145.5 Z"/></g>
<g><path style="opacity:1" fill="#000000" d="M 195.5,149.5 C 195.5,148.167 195.5,146.833 195.5,145.5C 196.833,145.5 198.167,145.5 199.5,145.5C 199.5,146.833 199.5,148.167 199.5,149.5C 198.167,149.5 196.833,149.5 195.5,149.5 Z"/></g>
<g><path style="opacity:1" fill="#000000" d="M 195.5,149.5 C 195.5,152.167 195.5,154.833 195.5,157.5C 196.833,157.5 198.167,157.5 199.5,157.5C 199.5,158.833 199.5,160.167 199.5,161.5C 198.167,161.5 196.833,161.5 195.5,161.5C 195.5,168.167 195.5,174.833 195.5,181.5C 194.167,181.5 192.833,181.5 191.5,181.5C 191.5,170.833 191.5,160.167 191.5,149.5C 192.833,149.5 194.167,149.5 195.5,149.5 Z"/></g>
<g><path style="opacity:1" fill="#000000" d="M 207.5,177.5 C 206.167,177.5 204.833,177.5 203.5,177.5C 203.5,168.167 203.5,158.833 203.5,149.5C 204.833,149.5 206.167,149.5 207.5,149.5C 207.5,152.167 207.5,154.833 207.5,157.5C 208.833,157.5 210.167,157.5 211.5,157.5C 211.5,158.833 211.5,160.167 211.5,161.5C 210.167,161.5 208.833,161.5 207.5,161.5C 207.5,166.833 207.5,172.167 207.5,177.5 Z"/></g>
<g><path style="opacity:1" fill="#000000" d="M 79.5,157.5 C 80.8333,157.5 82.1667,157.5 83.5,157.5C 83.5,165.5 83.5,173.5 83.5,181.5C 82.1667,181.5 80.8333,181.5 79.5,181.5C 79.5,173.5 79.5,165.5 79.5,157.5 Z"/></g>
<g><path style="opacity:1" fill="#000000" d="M 103.5,161.5 C 99.5,161.5 95.5,161.5 91.5,161.5C 91.5,160.167 91.5,158.833 91.5,157.5C 95.5,157.5 99.5,157.5 103.5,157.5C 103.5,158.833 103.5,160.167 103.5,161.5 Z"/></g>
<g><path style="opacity:1" fill="#000000" d="M 111.5,157.5 C 114.167,157.5 116.833,157.5 119.5,157.5C 119.5,158.833 119.5,160.167 119.5,161.5C 118.167,161.5 116.833,161.5 115.5,161.5C 115.5,168.167 115.5,174.833 115.5,181.5C 114.167,181.5 112.833,181.5 111.5,181.5C 111.5,173.5 111.5,165.5 111.5,157.5 Z"/></g>
<g><path style="opacity:1" fill="#000000" d="M 139.5,161.5 C 135.5,161.5 131.5,161.5 127.5,161.5C 127.5,160.167 127.5,158.833 127.5,157.5C 131.5,157.5 135.5,157.5 139.5,157.5C 139.5,158.833 139.5,160.167 139.5,161.5 Z"/></g>
<g><path style="opacity:1" fill="#000000" d="M 159.5,161.5 C 156.833,161.5 154.167,161.5 151.5,161.5C 151.5,160.167 151.5,158.833 151.5,157.5C 154.167,157.5 156.833,157.5 159.5,157.5C 159.5,158.833 159.5,160.167 159.5,161.5 Z"/></g>
<g><path style="opacity:1" fill="#000000" d="M 183.5,161.5 C 179.5,161.5 175.5,161.5 171.5,161.5C 171.5,160.167 171.5,158.833 171.5,157.5C 175.5,157.5 179.5,157.5 183.5,157.5C 183.5,158.833 183.5,160.167 183.5,161.5 Z"/></g>
<g><path style="opacity:1" fill="#000000" d="M 51.5,161.5 C 52.8333,161.5 54.1667,161.5 55.5,161.5C 55.5,164.167 55.5,166.833 55.5,169.5C 54.1667,169.5 52.8333,169.5 51.5,169.5C 51.5,166.833 51.5,164.167 51.5,161.5 Z"/></g>
<g><path style="opacity:1" fill="#000000" d="M 63.5,161.5 C 63.5,164.167 63.5,166.833 63.5,169.5C 62.1667,169.5 60.8333,169.5 59.5,169.5C 59.5,166.833 59.5,164.167 59.5,161.5C 60.8333,161.5 62.1667,161.5 63.5,161.5 Z"/></g>
<g><path style="opacity:1" fill="#000000" d="M 91.5,161.5 C 91.5,166.833 91.5,172.167 91.5,177.5C 90.1667,177.5 88.8333,177.5 87.5,177.5C 87.5,172.167 87.5,166.833 87.5,161.5C 88.8333,161.5 90.1667,161.5 91.5,161.5 Z"/></g>
<g><path style="opacity:1" fill="#000000" d="M 103.5,161.5 C 104.833,161.5 106.167,161.5 107.5,161.5C 107.5,162.833 107.5,164.167 107.5,165.5C 106.167,165.5 104.833,165.5 103.5,165.5C 103.5,164.167 103.5,162.833 103.5,161.5 Z"/></g>
<g><path style="opacity:1" fill="#000000" d="M 127.5,161.5 C 127.5,166.833 127.5,172.167 127.5,177.5C 126.167,177.5 124.833,177.5 123.5,177.5C 123.5,172.167 123.5,166.833 123.5,161.5C 124.833,161.5 126.167,161.5 127.5,161.5 Z"/></g>
<g><path style="opacity:1" fill="#fefffe" d="M 127.5,161.5 C 131.5,161.5 135.5,161.5 139.5,161.5C 139.5,166.833 139.5,172.167 139.5,177.5C 135.5,177.5 131.5,177.5 127.5,177.5C 127.5,172.167 127.5,166.833 127.5,161.5 Z"/></g>
<g><path style="opacity:1" fill="#000000" d="M 139.5,161.5 C 140.833,161.5 142.167,161.5 143.5,161.5C 143.5,166.833 143.5,172.167 143.5,177.5C 142.167,177.5 140.833,177.5 139.5,177.5C 139.5,172.167 139.5,166.833 139.5,161.5 Z"/></g>
<g><path style="opacity:1" fill="#000000" d="M 151.5,161.5 C 151.5,162.833 151.5,164.167 151.5,165.5C 150.167,165.5 148.833,165.5 147.5,165.5C 147.5,164.167 147.5,162.833 147.5,161.5C 148.833,161.5 150.167,161.5 151.5,161.5 Z"/></g>
<g><path style="opacity:1" fill="#000000" d="M 159.5,161.5 C 160.833,161.5 162.167,161.5 163.5,161.5C 163.5,162.833 163.5,164.167 163.5,165.5C 162.167,165.5 160.833,165.5 159.5,165.5C 159.5,164.167 159.5,162.833 159.5,161.5 Z"/></g>
<g><path style="opacity:1" fill="#000000" d="M 171.5,161.5 C 171.5,166.833 171.5,172.167 171.5,177.5C 170.167,177.5 168.833,177.5 167.5,177.5C 167.5,172.167 167.5,166.833 167.5,161.5C 168.833,161.5 170.167,161.5 171.5,161.5 Z"/></g>
<g><path style="opacity:1" fill="#fefffe" d="M 171.5,161.5 C 175.5,161.5 179.5,161.5 183.5,161.5C 183.5,166.833 183.5,172.167 183.5,177.5C 179.5,177.5 175.5,177.5 171.5,177.5C 171.5,172.167 171.5,166.833 171.5,161.5 Z"/></g>
<g><path style="opacity:1" fill="#000000" d="M 183.5,161.5 C 184.833,161.5 186.167,161.5 187.5,161.5C 187.5,166.833 187.5,172.167 187.5,177.5C 186.167,177.5 184.833,177.5 183.5,177.5C 183.5,172.167 183.5,166.833 183.5,161.5 Z"/></g>
<g><path style="opacity:1" fill="#000000" d="M 151.5,165.5 C 152.833,165.5 154.167,165.5 155.5,165.5C 155.5,166.833 155.5,168.167 155.5,169.5C 155.5,168.167 155.5,166.833 155.5,165.5C 154.167,165.5 152.833,165.5 151.5,165.5 Z"/></g>
<g><path style="opacity:1" fill="#000000" d="M 55.5,169.5 C 56.8333,169.5 58.1667,169.5 59.5,169.5C 59.5,172.167 59.5,174.833 59.5,177.5C 58.1667,177.5 56.8333,177.5 55.5,177.5C 55.5,174.833 55.5,172.167 55.5,169.5 Z"/></g>
<g><path style="opacity:1" fill="#000000" d="M 155.5,169.5 C 156.833,169.5 158.167,169.5 159.5,169.5C 159.5,170.833 159.5,172.167 159.5,173.5C 159.5,172.167 159.5,170.833 159.5,169.5C 158.167,169.5 156.833,169.5 155.5,169.5 Z"/></g>
<g><path style="opacity:1" fill="#000000" d="M 103.5,177.5 C 103.5,176.167 103.5,174.833 103.5,173.5C 104.833,173.5 106.167,173.5 107.5,173.5C 107.5,174.833 107.5,176.167 107.5,177.5C 106.167,177.5 104.833,177.5 103.5,177.5 Z"/></g>
<g><path style="opacity:1" fill="#000000" d="M 151.5,177.5 C 150.167,177.5 148.833,177.5 147.5,177.5C 147.5,176.167 147.5,174.833 147.5,173.5C 148.833,173.5 150.167,173.5 151.5,173.5C 151.5,174.833 151.5,176.167 151.5,177.5 Z"/></g>
<g><path style="opacity:1" fill="#000000" d="M 159.5,173.5 C 160.833,173.5 162.167,173.5 163.5,173.5C 163.5,174.833 163.5,176.167 163.5,177.5C 162.167,177.5 160.833,177.5 159.5,177.5C 159.5,176.167 159.5,174.833 159.5,173.5 Z"/></g>
<g><path style="opacity:1" fill="#000000" d="M 91.5,177.5 C 95.5,177.5 99.5,177.5 103.5,177.5C 103.5,178.833 103.5,180.167 103.5,181.5C 99.5,181.5 95.5,181.5 91.5,181.5C 91.5,180.167 91.5,178.833 91.5,177.5 Z"/></g>
<g><path style="opacity:1" fill="#000000" d="M 127.5,177.5 C 131.5,177.5 135.5,177.5 139.5,177.5C 139.5,178.833 139.5,180.167 139.5,181.5C 135.5,181.5 131.5,181.5 127.5,181.5C 127.5,180.167 127.5,178.833 127.5,177.5 Z"/></g>
<g><path style="opacity:1" fill="#000000" d="M 151.5,177.5 C 154.167,177.5 156.833,177.5 159.5,177.5C 159.5,178.833 159.5,180.167 159.5,181.5C 156.833,181.5 154.167,181.5 151.5,181.5C 151.5,180.167 151.5,178.833 151.5,177.5 Z"/></g>
<g><path style="opacity:1" fill="#000000" d="M 171.5,177.5 C 175.5,177.5 179.5,177.5 183.5,177.5C 183.5,178.833 183.5,180.167 183.5,181.5C 179.5,181.5 175.5,181.5 171.5,181.5C 171.5,180.167 171.5,178.833 171.5,177.5 Z"/></g>
<g><path style="opacity:1" fill="#000000" d="M 207.5,177.5 C 208.833,177.5 210.167,177.5 211.5,177.5C 211.5,178.833 211.5,180.167 211.5,181.5C 210.167,181.5 208.833,181.5 207.5,181.5C 207.5,180.167 207.5,178.833 207.5,177.5 Z"/></g>
<g><path style="opacity:1" fill="#000000" d="M 75.5,201.5 C 70.1667,201.5 64.8333,201.5 59.5,201.5C 59.5,200.167 59.5,198.833 59.5,197.5C 64.8333,197.5 70.1667,197.5 75.5,197.5C 75.5,198.833 75.5,200.167 75.5,201.5 Z"/></g>
<g><path style="opacity:1" fill="#000000" d="M 103.5,201.5 C 99.5,201.5 95.5,201.5 91.5,201.5C 91.5,205.5 91.5,209.5 91.5,213.5C 95.5,213.5 99.5,213.5 103.5,213.5C 103.5,214.833 103.5,216.167 103.5,217.5C 99.5,217.5 95.5,217.5 91.5,217.5C 91.5,221.5 91.5,225.5 91.5,229.5C 95.5,229.5 99.5,229.5 103.5,229.5C 103.5,230.833 103.5,232.167 103.5,233.5C 98.1667,233.5 92.8333,233.5 87.5,233.5C 87.5,221.5 87.5,209.5 87.5,197.5C 92.8333,197.5 98.1667,197.5 103.5,197.5C 103.5,198.833 103.5,200.167 103.5,201.5 Z"/></g>
<g><path style="opacity:1" fill="#000000" d="M 127.5,205.5 C 126.167,205.5 124.833,205.5 123.5,205.5C 123.5,202.833 123.5,200.167 123.5,197.5C 124.833,197.5 126.167,197.5 127.5,197.5C 127.5,200.167 127.5,202.833 127.5,205.5 Z"/></g>
<g><path style="opacity:1" fill="#000000" d="M 159.5,201.5 C 155.5,201.5 151.5,201.5 147.5,201.5C 147.5,200.167 147.5,198.833 147.5,197.5C 151.5,197.5 155.5,197.5 159.5,197.5C 159.5,198.833 159.5,200.167 159.5,201.5 Z"/></g>
<g><path style="opacity:1" fill="#000000" d="M 171.5,197.5 C 172.833,197.5 174.167,197.5 175.5,197.5C 175.5,209.5 175.5,221.5 175.5,233.5C 174.167,233.5 172.833,233.5 171.5,233.5C 171.5,221.5 171.5,209.5 171.5,197.5 Z"/></g>
<g><path style="opacity:1" fill="#000000" d="M 203.5,201.5 C 198.167,201.5 192.833,201.5 187.5,201.5C 187.5,200.167 187.5,198.833 187.5,197.5C 192.833,197.5 198.167,197.5 203.5,197.5C 203.5,198.833 203.5,200.167 203.5,201.5 Z"/></g>
<g><path style="opacity:1" fill="#000000" d="M 59.5,201.5 C 59.5,210.833 59.5,220.167 59.5,229.5C 58.1667,229.5 56.8333,229.5 55.5,229.5C 55.5,220.167 55.5,210.833 55.5,201.5C 56.8333,201.5 58.1667,201.5 59.5,201.5 Z"/></g>
<g><path style="opacity:1" fill="#fefffe" d="M 59.5,201.5 C 64.8333,201.5 70.1667,201.5 75.5,201.5C 75.5,209.5 75.5,217.5 75.5,225.5C 74.1667,225.5 72.8333,225.5 71.5,225.5C 71.5,226.833 71.5,228.167 71.5,229.5C 67.5,229.5 63.5,229.5 59.5,229.5C 59.5,220.167 59.5,210.833 59.5,201.5 Z"/></g>
<g><path style="opacity:1" fill="#000000" d="M 75.5,201.5 C 76.8333,201.5 78.1667,201.5 79.5,201.5C 79.5,210.833 79.5,220.167 79.5,229.5C 78.1667,229.5 76.8333,229.5 75.5,229.5C 75.5,230.833 75.5,232.167 75.5,233.5C 70.1667,233.5 64.8333,233.5 59.5,233.5C 59.5,232.167 59.5,230.833 59.5,229.5C 63.5,229.5 67.5,229.5 71.5,229.5C 71.5,228.167 71.5,226.833 71.5,225.5C 72.8333,225.5 74.1667,225.5 75.5,225.5C 75.5,217.5 75.5,209.5 75.5,201.5 Z"/></g>
<g><path style="opacity:1" fill="#fefffe" d="M 103.5,201.5 C 103.5,205.5 103.5,209.5 103.5,213.5C 99.5,213.5 95.5,213.5 91.5,213.5C 91.5,209.5 91.5,205.5 91.5,201.5C 95.5,201.5 99.5,201.5 103.5,201.5 Z"/></g>
<g><path style="opacity:1" fill="#000000" d="M 103.5,201.5 C 104.833,201.5 106.167,201.5 107.5,201.5C 107.5,205.5 107.5,209.5 107.5,213.5C 106.167,213.5 104.833,213.5 103.5,213.5C 103.5,209.5 103.5,205.5 103.5,201.5 Z"/></g>
<g><path style="opacity:1" fill="#000000" d="M 147.5,201.5 C 147.5,205.5 147.5,209.5 147.5,213.5C 146.167,213.5 144.833,213.5 143.5,213.5C 143.5,209.5 143.5,205.5 143.5,201.5C 144.833,201.5 146.167,201.5 147.5,201.5 Z"/></g>
<g><path style="opacity:1" fill="#000000" d="M 159.5,201.5 C 160.833,201.5 162.167,201.5 163.5,201.5C 163.5,202.833 163.5,204.167 163.5,205.5C 162.167,205.5 160.833,205.5 159.5,205.5C 159.5,204.167 159.5,202.833 159.5,201.5 Z"/></g>
<g><path style="opacity:1" fill="#000000" d="M 187.5,201.5 C 187.5,210.833 187.5,220.167 187.5,229.5C 186.167,229.5 184.833,229.5 183.5,229.5C 183.5,220.167 183.5,210.833 183.5,201.5C 184.833,201.5 186.167,201.5 187.5,201.5 Z"/></g>
<g><path style="opacity:1" fill="#000000" d="M 203.5,201.5 C 204.833,201.5 206.167,201.5 207.5,201.5C 207.5,202.833 207.5,204.167 207.5,205.5C 206.167,205.5 204.833,205.5 203.5,205.5C 203.5,204.167 203.5,202.833 203.5,201.5 Z"/></g>
<g><path style="opacity:1" fill="#000000" d="M 123.5,205.5 C 123.5,208.167 123.5,210.833 123.5,213.5C 122.167,213.5 120.833,213.5 119.5,213.5C 119.5,210.833 119.5,208.167 119.5,205.5C 120.833,205.5 122.167,205.5 123.5,205.5 Z"/></g>
<g><path style="opacity:1" fill="#fefffe" d="M 123.5,205.5 C 124.833,205.5 126.167,205.5 127.5,205.5C 127.5,208.167 127.5,210.833 127.5,213.5C 128.833,213.5 130.167,213.5 131.5,213.5C 131.5,216.167 131.5,218.833 131.5,221.5C 127.5,221.5 123.5,221.5 119.5,221.5C 119.5,218.833 119.5,216.167 119.5,213.5C 120.833,213.5 122.167,213.5 123.5,213.5C 123.5,210.833 123.5,208.167 123.5,205.5 Z"/></g>
<g><path style="opacity:1" fill="#000000" d="M 127.5,205.5 C 128.833,205.5 130.167,205.5 131.5,205.5C 131.5,208.167 131.5,210.833 131.5,213.5C 130.167,213.5 128.833,213.5 127.5,213.5C 127.5,210.833 127.5,208.167 127.5,205.5 Z"/></g>
<g><path style="opacity:1" fill="#000000" d="M 119.5,213.5 C 119.5,216.167 119.5,218.833 119.5,221.5C 123.5,221.5 127.5,221.5 131.5,221.5C 131.5,218.833 131.5,216.167 131.5,213.5C 132.833,213.5 134.167,213.5 135.5,213.5C 135.5,217.5 135.5,221.5 135.5,225.5C 128.833,225.5 122.167,225.5 115.5,225.5C 115.5,221.5 115.5,217.5 115.5,213.5C 116.833,213.5 118.167,213.5 119.5,213.5 Z"/></g>
<g><path style="opacity:1" fill="#000000" d="M 147.5,213.5 C 151.5,213.5 155.5,213.5 159.5,213.5C 159.5,214.833 159.5,216.167 159.5,217.5C 155.5,217.5 151.5,217.5 147.5,217.5C 147.5,216.167 147.5,214.833 147.5,213.5 Z"/></g>
<g><path style="opacity:1" fill="#fefffe" d="M 103.5,217.5 C 103.5,221.5 103.5,225.5 103.5,229.5C 99.5,229.5 95.5,229.5 91.5,229.5C 91.5,225.5 91.5,221.5 91.5,217.5C 95.5,217.5 99.5,217.5 103.5,217.5 Z"/></g>
<g><path style="opacity:1" fill="#000000" d="M 103.5,217.5 C 104.833,217.5 106.167,217.5 107.5,217.5C 107.5,221.5 107.5,225.5 107.5,229.5C 106.167,229.5 104.833,229.5 103.5,229.5C 103.5,225.5 103.5,221.5 103.5,217.5 Z"/></g>
<g><path style="opacity:1" fill="#000000" d="M 159.5,217.5 C 160.833,217.5 162.167,217.5 163.5,217.5C 163.5,221.5 163.5,225.5 163.5,229.5C 162.167,229.5 160.833,229.5 159.5,229.5C 159.5,225.5 159.5,221.5 159.5,217.5 Z"/></g>
<g><path style="opacity:1" fill="#000000" d="M 71.5,225.5 C 70.1667,225.5 68.8333,225.5 67.5,225.5C 67.5,224.167 67.5,222.833 67.5,221.5C 68.8333,221.5 70.1667,221.5 71.5,221.5C 71.5,222.833 71.5,224.167 71.5,225.5 Z"/></g>
<g><path style="opacity:1" fill="#000000" d="M 115.5,225.5 C 115.5,228.167 115.5,230.833 115.5,233.5C 114.167,233.5 112.833,233.5 111.5,233.5C 111.5,230.833 111.5,228.167 111.5,225.5C 112.833,225.5 114.167,225.5 115.5,225.5 Z"/></g>
<g><path style="opacity:1" fill="#000000" d="M 135.5,225.5 C 136.833,225.5 138.167,225.5 139.5,225.5C 139.5,228.167 139.5,230.833 139.5,233.5C 138.167,233.5 136.833,233.5 135.5,233.5C 135.5,230.833 135.5,228.167 135.5,225.5 Z"/></g>
<g><path style="opacity:1" fill="#000000" d="M 147.5,229.5 C 146.167,229.5 144.833,229.5 143.5,229.5C 143.5,228.167 143.5,226.833 143.5,225.5C 144.833,225.5 146.167,225.5 147.5,225.5C 147.5,226.833 147.5,228.167 147.5,229.5 Z"/></g>
<g><path style="opacity:1" fill="#000000" d="M 203.5,229.5 C 203.5,228.167 203.5,226.833 203.5,225.5C 204.833,225.5 206.167,225.5 207.5,225.5C 207.5,226.833 207.5,228.167 207.5,229.5C 206.167,229.5 204.833,229.5 203.5,229.5 Z"/></g>
<g><path style="opacity:1" fill="#000000" d="M 147.5,229.5 C 151.5,229.5 155.5,229.5 159.5,229.5C 159.5,230.833 159.5,232.167 159.5,233.5C 155.5,233.5 151.5,233.5 147.5,233.5C 147.5,232.167 147.5,230.833 147.5,229.5 Z"/></g>
<g><path style="opacity:1" fill="#000000" d="M 187.5,229.5 C 192.833,229.5 198.167,229.5 203.5,229.5C 203.5,230.833 203.5,232.167 203.5,233.5C 198.167,233.5 192.833,233.5 187.5,233.5C 187.5,232.167 187.5,230.833 187.5,229.5 Z"/></g>
<g><path style="opacity:1" fill="#000000" d="M 75.5,233.5 C 76.8333,233.5 78.1667,233.5 79.5,233.5C 79.5,234.833 79.5,236.167 79.5,237.5C 78.1667,237.5 76.8333,237.5 75.5,237.5C 75.5,236.167 75.5,234.833 75.5,233.5 Z"/></g>
</svg>
