<?xml version="1.0" encoding="UTF-8" standalone="no"?>
<svg
   height="98.760559"
   viewBox="0 0 98.760559 98.760559"
   width="98.760559"
   version="1.1"
   id="svg1"
   sodipodi:docname="ruby-on-rails.svg"
   inkscape:version="1.3 (0e150ed6c4, 2023-07-21)"
   xmlns:inkscape="http://www.inkscape.org/namespaces/inkscape"
   xmlns:sodipodi="http://sodipodi.sourceforge.net/DTD/sodipodi-0.dtd"
   xmlns="http://www.w3.org/2000/svg"
   xmlns:svg="http://www.w3.org/2000/svg">
  <defs
     id="defs1" />
  <sodipodi:namedview
     id="namedview1"
     pagecolor="#ffffff"
     bordercolor="#666666"
     borderopacity="1.0"
     inkscape:showpageshadow="2"
     inkscape:pageopacity="0.0"
     inkscape:pagecheckerboard="0"
     inkscape:deskcolor="#d1d1d1"
     inkscape:zoom="3.1027778"
     inkscape:cx="66.553268"
     inkscape:cy="88.791405"
     inkscape:window-width="1920"
     inkscape:window-height="1017"
     inkscape:window-x="1912"
     inkscape:window-y="-8"
     inkscape:window-maximized="1"
     inkscape:current-layer="svg1" />
  <circle
     style="fill:#d30001;fill-opacity:1;stroke:none;stroke-width:20.1251;stroke-linecap:round;paint-order:stroke fill markers"
     id="path2"
     cx="49.38028"
     cy="49.38028"
     r="49.38028" />
  <path
     d="m 92.14472,42.937116 v 4.009791 h -7.116278 v 1.850672 h 3.591185 c 1.922777,0 3.96985,1.429458 4.092156,3.866505 l 0.0058,0.231413 v 1.542226 c -0.08559,2.93212 -2.479001,4.034647 -3.968885,4.095255 l -0.129033,0.0026 h -7.204398 v -3.987759 l 7.292529,-0.02203 v -1.93877 l -1.160104,7.26e-4 -0.338164,8.04e-4 -0.08247,3.17e-4 -0.124421,6.92e-4 -0.04367,3.7e-4 -0.05439,7.75e-4 -0.01599,8.05e-4 c 5.07e-4,4.06e-4 0.01296,8.17e-4 0.03353,0.0013 l 0.05088,7.92e-4 c 0.02983,3.88e-4 0.06521,7.61e-4 0.102567,0.0011 l 0.07613,6.54e-4 -0.151462,-4.58e-4 c -0.306454,-0.0016 -0.830997,-0.004 -1.685437,-0.0078 -1.7305,0 -3.978915,-1.305157 -4.113592,-3.855205 l -0.0068,-0.242712 v -1.388005 c 0,-2.63021 2.220769,-4.077391 3.962958,-4.160244 l 0.156989,-0.0038 z m -18.220313,0 v 11.566703 h 6.014681 v 4.031823 H 69.473977 V 42.937116 Z m -6.279072,0 v 15.598526 h -4.47246 V 42.937116 Z m -10.531201,0 c 1.031081,0 3.947137,0.712095 4.092293,3.8516 l 0.0058,0.246317 V 58.535642 H 57.048258 V 55.781664 H 53.01644 v 2.753978 H 48.720231 V 47.035033 c 0,-1.285188 0.978765,-3.944816 3.847388,-4.091582 l 0.25053,-0.0063 z m -23.538362,-0.0027 8.363849,5.61e-4 c 0.174858,0.01918 4.633515,0.555905 4.633515,5.404068 0,4.848162 -3.680495,5.258695 -3.824831,5.27293 l -0.0039,4.11e-4 4.879482,4.923245 h -6.214229 l -3.632262,-3.763547 v 3.763547 H 33.57623 Z m 21.853393,-2.629164 0.03256,0.0321 c 0,0 -0.374542,0.264382 -0.771115,0.594859 C 42.176543,31.678818 34.531502,36.041117 32.130035,37.208804 21.224282,43.294211 24.375827,58.232906 24.439949,58.531072 l 9.75e-4,0.0045 H 7.0357959 c 0,0 0.6609545,-6.521418 5.2876361,-14.232553 C 16.950113,36.591883 24.837496,30.753452 31.248759,30.180625 43.61065,28.9423 54.751825,39.642162 55.429146,40.305194 Z m -30.327267,13.824015 2.379436,0.859241 c 0.11016,0.862913 0.266224,1.679926 0.42993,2.42554 l 0.09883,0.438596 -2.643818,-0.947368 c -0.110151,-0.660954 -0.220311,-1.608323 -0.264381,-2.776009 z m 30.712357,-7.468785 h -1.47613 c -1.099589,0 -1.299518,0.575194 -1.335868,0.784356 l -0.0068,0.05487 -8.88e-4,0.01485 -1.26e-4,3.816669 h 4.031827 l -3.12e-4,-3.817734 c -0.0049,-0.07754 -0.0812,-0.853011 -1.211436,-0.853011 z m -49.2190824,0.330477 2.5336669,0.925336 c -0.3084519,0.71328 -0.7012326,1.628978 -0.9864846,2.348583 L 8.0272423,50.560083 5.4935851,49.634747 c 0.2203214,-0.594859 0.6829847,-1.69645 1.1015875,-2.643818 z M 41.146622,46.851101 h -3.369683 v 3.566616 h 3.347809 c 0,0 0.962768,-0.371977 0.962768,-1.794248 0,-1.422271 -0.940894,-1.772368 -0.940894,-1.772368 z m -15.053288,-0.741445 1.586291,1.255814 c -0.176261,0.687392 -0.310207,1.374785 -0.401866,2.062178 l -0.06083,0.515544 -1.784572,-1.410036 c 0.176251,-0.793145 0.374543,-1.608322 0.660955,-2.4235 z m 3.899627,-6.146876 0.991436,1.498164 c -0.38776,0.405384 -0.74732,0.81077 -1.067402,1.238716 l -0.232477,0.325542 -1.057527,-1.58629 c 0.396573,-0.506732 0.859236,-1.013464 1.36597,-1.476132 z m -15.774777,-3.260708 1.56426,1.365972 c -0.396572,0.413096 -0.780755,0.850978 -1.143249,1.295057 l -0.35492,0.445457 -1.696442,-1.4541 c 0.506723,-0.550796 1.057527,-1.101592 1.630351,-1.652386 z m 21.833528,-0.08813 0.484703,1.4541 c -0.51114,0.158629 -1.022279,0.359559 -1.533419,0.59151 l -0.383354,0.179603 -0.506724,-1.520195 c 0.550794,-0.24235 1.189718,-0.484699 1.938794,-0.705018 z m 5.155444,-0.528764 c 0.564022,0.03525 1.142129,0.0987 1.734351,0.201635 l 0.446804,0.08478 -0.08812,1.365973 C 42.718555,37.614188 42.136909,37.53311 41.555273,37.494335 l -0.436227,-0.02115 z m -18.088122,-6.080781 0.991437,1.520196 c -0.429618,0.21481 -0.846847,0.454405 -1.270275,0.709493 l -0.426177,0.259906 -1.013466,-1.542227 c 0.594863,-0.352509 1.167687,-0.660955 1.718481,-0.947368 z m 18.132192,-0.837209 c 1.310894,0.374541 1.875013,0.631171 2.100686,0.75133 l 0.03636,0.01979 -0.08812,1.476131 C 42.830138,31.223494 42.360125,31.042343 41.88359,30.870985 L 41.163096,30.62133 Z m -8.416156,-1.299833 0.440633,1.343941 h -0.220312 c -0.479196,0 -0.958391,0.01239 -1.437577,0.04647 l -0.479196,0.04165 -0.418603,-1.299877 c 0.727045,-0.08813 1.43207,-0.132191 2.115055,-0.132191 z"
     id="path1"
     style="fill:#ffffff;fill-opacity:1;stroke-width:0.974787" />
</svg>
