<?xml version="1.0" encoding="UTF-8" standalone="no"?>
<svg
   width="256"
   height="256"
   version="1.1"
   id="svg4"
   sodipodi:docname="slim.svg"
   inkscape:version="1.3 (0e150ed6c4, 2023-07-21)"
   xmlns:inkscape="http://www.inkscape.org/namespaces/inkscape"
   xmlns:sodipodi="http://sodipodi.sourceforge.net/DTD/sodipodi-0.dtd"
   xmlns="http://www.w3.org/2000/svg"
   xmlns:svg="http://www.w3.org/2000/svg">
  <defs
     id="defs4" />
  <sodipodi:namedview
     id="namedview4"
     pagecolor="#ffffff"
     bordercolor="#666666"
     borderopacity="1.0"
     inkscape:showpageshadow="2"
     inkscape:pageopacity="0.0"
     inkscape:pagecheckerboard="0"
     inkscape:deskcolor="#d1d1d1"
     inkscape:zoom="0.86068154"
     inkscape:cx="-84.23557"
     inkscape:cy="209.13659"
     inkscape:window-width="1565"
     inkscape:window-height="820"
     inkscape:window-x="260"
     inkscape:window-y="103"
     inkscape:window-maximized="0"
     inkscape:current-layer="svg4" />
  <g
     fill="none"
     fill-rule="nonzero"
     id="g4"
     transform="matrix(6.5179657,0,0,6.5179657,-3.7726577,-2.9043485)">
    <g
       fill="#6f9b3e"
       id="g2">
      <path
         d="m 14.305,37.944 a 5.91,5.91 0 0 0 -0.367,-0.119 c -0.321,-0.101 -0.993,-0.536 -1.213,-0.796 -0.406,-0.48 -0.542,-0.7 -0.717,-1.19 -0.13,-0.35 -0.13,-0.35 -0.146,-10.423 -0.012,-7.2 -0.029,-10.078 -0.074,-10.106 -0.079,-0.045 -0.265,0 -0.321,0.085 -0.023,0.034 -0.051,1.461 -0.068,3.165 -0.028,3.104 -0.028,3.104 -0.277,3.612 -0.451,0.92 -1.235,1.546 -2.195,1.75 -0.496,0.1 -2.872,0.118 -3.352,0.022 C 4.565,23.741 3.77,23.154 3.33,22.284 3.03,21.698 3.025,21.636 3.008,19.458 2.985,17.257 2.991,17.218 3.301,16.851 c 0.283,-0.333 0.548,-0.407 1.518,-0.407 0.83,0 0.886,0.006 1.151,0.147 0.305,0.158 0.542,0.446 0.632,0.762 0.034,0.107 0.057,0.733 0.057,1.394 0,1.275 0.04,1.518 0.27,1.642 a 0.533,0.533 0 0 0 0.638,-0.102 c 0.164,-0.164 0.164,-0.164 0.164,-3.188 0,-3.29 0,-3.307 0.333,-4.018 0.226,-0.48 0.807,-1.083 1.292,-1.337 0.564,-0.294 0.954,-0.378 1.8,-0.378 0.728,0 0.728,0 0.802,-0.548 0.23,-1.777 0.716,-3.103 1.659,-4.497 0.592,-0.886 1.681,-1.992 2.522,-2.556 0.276,-0.186 1.016,-0.638 1.044,-0.638 0.011,0 0.231,-0.096 0.49,-0.22 0.255,-0.118 0.57,-0.248 0.695,-0.282 0.124,-0.04 0.276,-0.09 0.338,-0.119 0.97,-0.4 3.12,-0.62 4.402,-0.445 0.632,0.084 1.614,0.27 1.75,0.333 a 8.4,8.4 0 0 0 0.552,0.197 c 0.897,0.294 1.986,0.931 2.776,1.625 0.373,0.333 0.373,0.333 2.698,0.344 2.556,0.012 2.477,0.006 3.256,0.39 0.835,0.412 1.563,1.275 1.833,2.167 0.074,0.231 0.085,1.134 0.085,5.834 0,5.48 0,5.57 -0.118,5.925 -0.26,0.807 -0.785,1.462 -1.575,1.981 -0.186,0.119 -0.367,0.214 -0.412,0.214 a 0.203,0.203 0 0 0 -0.124,0.051 c -0.14,0.13 -0.835,0.249 -1.597,0.271 -0.807,0.028 -0.807,0.028 -0.79,0.209 0.017,0.158 0.045,0.18 0.288,0.243 0.762,0.186 1.614,0.863 1.958,1.54 0.3,0.587 0.339,0.796 0.339,1.732 0,0.858 0,0.858 0.169,0.982 0.175,0.136 0.395,0.536 0.395,0.734 0,0.068 -0.05,0.305 -0.119,0.525 -0.434,1.506 -0.49,1.613 -0.835,1.613 -0.327,0 -0.344,-0.028 -0.84,-1.382 -0.175,-0.485 -0.198,-0.999 -0.051,-1.219 a 1.37,1.37 0 0 1 0.333,-0.305 c 0.225,-0.152 0.225,-0.152 0.203,-0.976 -0.023,-0.795 -0.028,-0.846 -0.209,-1.213 -0.299,-0.62 -0.886,-1.129 -1.456,-1.253 -0.186,-0.04 -0.186,-0.04 -0.186,6.326 0,6.309 0,6.36 -0.119,6.76 -0.169,0.576 -0.332,0.858 -0.722,1.287 a 3.134,3.134 0 0 1 -1.36,0.874 c -0.338,0.119 -0.468,0.124 -1.817,0.13 -0.795,0 -1.506,-0.023 -1.58,-0.05 A 5.281,5.281 0 0 0 25.45,37.825 c -0.621,-0.186 -1.394,-0.863 -1.716,-1.5 -0.321,-0.644 -0.321,-0.661 -0.361,-2.557 -0.04,-1.778 -0.04,-1.778 -0.186,-2.032 -0.316,-0.536 -0.655,-0.784 -1.242,-0.908 -0.643,-0.141 -1.472,0.248 -1.788,0.824 -0.22,0.406 -0.237,0.536 -0.237,2.116 0,1.693 -0.023,1.868 -0.333,2.505 -0.18,0.378 -0.796,1.084 -1.056,1.22 -0.09,0.044 -0.225,0.123 -0.304,0.174 a 3.02,3.02 0 0 1 -0.52,0.215 c -0.35,0.107 -0.496,0.118 -1.833,0.112 -0.802,0 -1.507,-0.022 -1.57,-0.05 z M 17.74,36.9 c 0.446,-0.226 0.83,-0.615 1.061,-1.084 0.187,-0.383 0.187,-0.383 0.22,-2.133 0.017,-0.96 0.057,-1.828 0.09,-1.918 0.243,-0.723 0.69,-1.236 1.355,-1.563 0.457,-0.226 0.52,-0.243 1.055,-0.26 0.474,-0.017 0.632,0 0.937,0.102 0.626,0.208 1.1,0.575 1.439,1.123 0.321,0.519 0.327,0.58 0.367,2.46 0.028,1.648 0.04,1.766 0.163,2.076 0.18,0.457 0.65,0.948 1.123,1.18 0.378,0.186 0.378,0.186 1.874,0.186 1.495,0 1.495,0 1.828,-0.17 0.395,-0.197 0.83,-0.609 1.004,-0.947 0.277,-0.548 0.271,-0.35 0.271,-7.697 0,-6.901 0,-6.901 -0.897,-6.901 -0.976,0 -1.603,-0.085 -2.235,-0.3 -1.788,-0.615 -3.227,-2.076 -3.797,-3.876 a 4.83,4.83 0 0 1 -0.249,-1.495 c -0.016,-0.508 -0.016,-0.508 0.407,-0.508 0.423,0 0.423,0 0.462,0.553 0.09,1.241 0.548,2.28 1.394,3.16 a 5.047,5.047 0 0 0 3.11,1.563 c 0.739,0.09 3.837,0.073 4.3,-0.023 a 2.747,2.747 0 0 0 2.076,-1.885 c 0.107,-0.35 0.113,-0.53 0.113,-5.563 0,-4.16 -0.017,-5.254 -0.08,-5.48 C 34.866,6.513 34.021,5.7 33.038,5.497 32.824,5.452 32.056,5.441 30.567,5.452 c -2.45,0.028 -2.523,0.04 -3.51,0.525 a 5.06,5.06 0 0 0 -2.494,2.68 c -0.232,0.564 -0.305,0.92 -0.35,1.603 -0.034,0.57 -0.034,0.57 -0.446,0.587 -0.344,0.01 -0.412,0 -0.446,-0.085 -0.056,-0.152 0.08,-1.354 0.215,-1.823 0.485,-1.743 1.834,-3.25 3.51,-3.921 C 27.254,4.933 27.435,4.843 27.452,4.82 27.497,4.747 26.651,4.16 26.03,3.844 A 9.15,9.15 0 0 0 23.615,3.037 c -0.852,-0.152 -2.602,-0.141 -3.476,0.022 -2.788,0.52 -5.26,2.404 -6.45,4.921 -0.536,1.134 -0.807,2.229 -0.87,3.527 -0.039,0.733 -0.039,0.733 -1.308,0.762 -1.27,0.028 -1.27,0.028 -1.682,0.248 -0.48,0.254 -0.745,0.536 -0.993,1.05 -0.175,0.366 -0.175,0.366 -0.203,3.554 -0.028,3.505 -0.017,3.37 -0.39,3.792 -0.265,0.305 -0.671,0.458 -1.162,0.43 -0.35,-0.018 -0.434,-0.04 -0.677,-0.22 A 1.281,1.281 0 0 1 5.953,20.586 C 5.783,20.253 5.783,20.253 5.766,18.882 5.744,17.511 5.744,17.511 5.603,17.421 c -0.187,-0.125 -1.1,-0.175 -1.388,-0.08 -0.362,0.119 -0.35,0.068 -0.333,2.06 0.01,1.044 0.04,1.907 0.073,2.037 a 2.31,2.31 0 0 0 1.224,1.45 c 0.379,0.187 0.379,0.187 2.015,0.187 1.636,0 1.636,0 2.003,-0.18 a 2.37,2.37 0 0 0 1.292,-1.682 c 0.04,-0.21 0.062,-1.366 0.062,-3.177 0,-2.85 0,-2.85 0.142,-3.093 0.09,-0.152 0.248,-0.304 0.411,-0.4 0.249,-0.147 0.305,-0.158 0.943,-0.158 0.677,0 0.677,0 0.705,10.495 0.028,10.496 0.028,10.496 0.164,10.829 0.152,0.356 0.57,0.858 0.886,1.055 0.519,0.316 0.615,0.333 2.167,0.316 1.439,-0.011 1.439,-0.011 1.771,-0.18 z m 16.077,-9.367 c 0.226,-0.723 0.231,-0.785 0.096,-0.903 -0.226,-0.203 -0.734,-0.074 -0.734,0.186 0,0.14 0.423,1.253 0.457,1.207 0.023,-0.022 0.102,-0.242 0.18,-0.49 z"
         id="path1" />
      <path
         d="m 17.064,11.766 c -0.468,-0.118 -0.812,-0.58 -0.812,-1.083 a 1.08,1.08 0 0 1 1.568,-0.96 c 0.644,0.328 0.807,1.14 0.339,1.677 -0.288,0.327 -0.7,0.468 -1.095,0.366 z M 33.666,9.284 C 33.609,9.221 33.547,9.024 33.519,8.815 33.451,8.273 33.349,7.997 33.119,7.732 32.938,7.529 32.825,7.461 32.435,7.337 32.175,7.247 31.781,7.167 31.555,7.151 31.205,7.122 31.126,7.094 31.036,6.976 30.822,6.705 30.94,6.332 31.262,6.259 c 0.355,-0.079 1.427,0.17 2.02,0.474 0.536,0.27 0.897,0.813 1.055,1.574 0.119,0.565 0.113,0.875 -0.017,0.988 -0.147,0.135 -0.53,0.124 -0.654,-0.011 z"
         id="path2" />
    </g>
    <g
       fill="#fffeff"
       id="g3">
      <path
         d="M 14.265,36.99 C 13.656,36.747 13.148,36.268 12.917,35.709 12.781,35.376 12.781,35.376 12.753,24.88 12.725,14.385 12.725,14.385 12.048,14.385 c -0.638,0 -0.694,0.01 -0.943,0.158 a 1.218,1.218 0 0 0 -0.411,0.4 c -0.142,0.243 -0.142,0.243 -0.142,3.093 0,1.81 -0.022,2.968 -0.062,3.177 a 2.37,2.37 0 0 1 -1.292,1.681 c -0.367,0.18 -0.367,0.18 -2.003,0.18 -1.636,0 -1.636,0 -2.015,-0.186 A 2.31,2.31 0 0 1 3.956,21.438 C 3.922,21.308 3.894,20.445 3.883,19.401 3.866,17.409 3.854,17.46 4.216,17.341 c 0.287,-0.095 1.201,-0.045 1.388,0.08 0.14,0.09 0.14,0.09 0.163,1.461 0.017,1.371 0.017,1.371 0.187,1.704 0.118,0.243 0.248,0.395 0.45,0.536 0.244,0.18 0.328,0.203 0.678,0.22 0.491,0.029 0.897,-0.124 1.163,-0.429 0.372,-0.423 0.36,-0.287 0.389,-3.792 0.028,-3.188 0.028,-3.188 0.203,-3.555 0.248,-0.513 0.514,-0.795 0.993,-1.05 0.412,-0.22 0.412,-0.22 1.682,-0.247 1.27,-0.029 1.27,-0.029 1.309,-0.762 0.062,-1.298 0.333,-2.393 0.869,-3.527 1.19,-2.517 3.662,-4.401 6.45,-4.92 0.874,-0.164 2.624,-0.175 3.476,-0.023 a 9.15,9.15 0 0 1 2.415,0.807 c 0.62,0.316 1.467,0.903 1.422,0.976 -0.017,0.023 -0.198,0.113 -0.407,0.198 -1.675,0.671 -3.024,2.178 -3.51,3.921 -0.135,0.469 -0.27,1.67 -0.214,1.823 0.034,0.085 0.102,0.096 0.446,0.085 0.412,-0.017 0.412,-0.017 0.446,-0.587 0.045,-0.683 0.118,-1.039 0.35,-1.603 a 5.06,5.06 0 0 1 2.494,-2.68 c 0.987,-0.485 1.06,-0.497 3.51,-0.525 1.49,-0.011 2.257,0 2.471,0.045 0.982,0.203 1.828,1.016 2.094,2.003 0.062,0.226 0.079,1.32 0.079,5.48 0,5.033 -0.006,5.214 -0.113,5.563 a 2.747,2.747 0 0 1 -2.077,1.885 c -0.462,0.096 -3.56,0.113 -4.3,0.023 a 5.047,5.047 0 0 1 -3.109,-1.563 c -0.846,-0.88 -1.303,-1.919 -1.394,-3.16 -0.04,-0.553 -0.04,-0.553 -0.462,-0.553 -0.423,0 -0.423,0 -0.407,0.508 0.08,2.725 2.173,5.106 4.915,5.586 0.282,0.05 0.835,0.085 1.366,0.085 0.897,0 0.897,0 0.897,6.9 0,7.348 0.006,7.15 -0.27,7.698 -0.176,0.338 -0.61,0.75 -1.005,0.948 -0.333,0.169 -0.333,0.169 -1.828,0.169 -1.496,0 -1.496,0 -1.874,-0.186 -0.474,-0.232 -0.942,-0.723 -1.123,-1.18 -0.124,-0.31 -0.135,-0.428 -0.163,-2.076 -0.04,-1.88 -0.046,-1.941 -0.367,-2.46 a 2.584,2.584 0 0 0 -1.44,-1.123 c -0.304,-0.102 -0.462,-0.119 -0.936,-0.102 -0.536,0.017 -0.598,0.034 -1.055,0.26 -0.666,0.327 -1.112,0.84 -1.354,1.563 -0.034,0.09 -0.074,0.959 -0.09,1.918 -0.034,1.75 -0.034,1.75 -0.22,2.133 A 2.433,2.433 0 0 1 17.74,36.9 c -0.332,0.169 -0.332,0.169 -1.771,0.18 -1.293,0.012 -1.468,0.006 -1.705,-0.09 z m 3.567,-25.314 c 0.231,-0.118 0.496,-0.451 0.564,-0.71 0.13,-0.48 -0.113,-1.005 -0.576,-1.242 a 1.08,1.08 0 0 0 -1.568,0.959 c 0,0.824 0.857,1.366 1.58,0.993 z M 34.32,9.295 C 34.45,9.182 34.456,8.872 34.337,8.307 34.179,7.546 33.817,7.004 33.282,6.733 32.689,6.428 31.617,6.18 31.262,6.259 c -0.322,0.073 -0.44,0.446 -0.226,0.717 0.09,0.118 0.17,0.146 0.52,0.175 0.225,0.016 0.62,0.095 0.88,0.186 0.722,0.237 0.97,0.581 1.083,1.478 0.028,0.209 0.09,0.406 0.147,0.469 0.124,0.135 0.507,0.146 0.654,0.01 z m -0.93,18.187 c -0.114,-0.322 -0.21,-0.621 -0.21,-0.666 0,-0.141 0.22,-0.294 0.423,-0.294 0.271,0 0.44,0.164 0.39,0.384 -0.057,0.271 -0.31,1.072 -0.356,1.117 -0.017,0.023 -0.13,-0.22 -0.248,-0.541 z"
         id="path3" />
    </g>
  </g>
</svg>
