<?xml version="1.0" encoding="UTF-8" standalone="no"?>
<svg
   width="64"
   height="64"
   version="1.1"
   id="svg1"
   sodipodi:docname="springboot.svg"
   inkscape:version="1.3 (0e150ed6c4, 2023-07-21)"
   inkscape:export-filename="springboot.png"
   inkscape:export-xdpi="768"
   inkscape:export-ydpi="768"
   xmlns:inkscape="http://www.inkscape.org/namespaces/inkscape"
   xmlns:sodipodi="http://sodipodi.sourceforge.net/DTD/sodipodi-0.dtd"
   xmlns="http://www.w3.org/2000/svg"
   xmlns:svg="http://www.w3.org/2000/svg">
  <defs
     id="defs1" />
  <sodipodi:namedview
     id="namedview1"
     pagecolor="#ffffff"
     bordercolor="#666666"
     borderopacity="1.0"
     inkscape:showpageshadow="2"
     inkscape:pageopacity="0.0"
     inkscape:pagecheckerboard="0"
     inkscape:deskcolor="#d1d1d1"
     inkscape:zoom="6.0859375"
     inkscape:cx="38.695764"
     inkscape:cy="44.282413"
     inkscape:window-width="1920"
     inkscape:window-height="1017"
     inkscape:window-x="-8"
     inkscape:window-y="-8"
     inkscape:window-maximized="1"
     inkscape:current-layer="svg1" />
  <path
     style="fill:#ffffff;stroke:none;stroke-width:1px;stroke-linecap:butt;stroke-linejoin:miter;stroke-opacity:1;fill-opacity:1"
     d="M 7.5584082,36.641849 19.060334,19.060334 45.679076,15.774069 52.251605,13.145058 54.716303,8.5442875 58.166881,20.37484 59.481386,32.534018 57.181001,42.557124 46.664955,55.044929 15.445443,54.880616 10.680359,50.279846 Z"
     id="path2" />
  <path
     d="M 54.97068,7.2205394 A 25.870292,25.870292 0 0 1 51.972661,12.537878 28.142262,28.142262 0 1 0 12.674862,52.823911 l 1.039968,0.918083 A 28.129985,28.129985 0 0 0 59.899565,34.229008 C 60.666826,27.064982 58.563215,17.998147 54.971556,7.2214163 Z M 16.677772,52.987009 a 2.4061309,2.4061309 0 1 1 -0.354255,-3.382087 2.4061309,2.4061309 0 0 1 0.354255,3.382087 z m 38.177161,-8.42672 c -6.94481,9.250977 -21.772679,6.129321 -31.279702,6.578278 0,0 -1.685344,0.09909 -3.382087,0.377054 0,0 0.640115,-0.27183 1.458234,-0.581365 6.676488,-2.323705 9.832342,-2.770909 13.887865,-4.857859 7.635783,-3.881903 15.18914,-12.383156 16.758737,-21.220251 -2.90507,8.501254 -11.726381,15.811718 -19.755878,18.780799 -5.503235,2.0282 -15.445186,4.003788 -15.445186,4.003788 L 16.696187,47.4259 C 9.9320128,44.137638 9.7233178,29.487773 22.024925,24.763198 c 5.386611,-2.074674 10.539976,-0.93562 16.35713,-2.323705 6.211747,-1.475772 13.398572,-6.12932 16.322933,-12.202521 3.270725,9.715718 7.211378,24.922395 0.14556,34.329455 z"
     fill="#68bd45"
     id="path1"
     style="stroke-width:0.87687" />
</svg>
