<?xml version="1.0" encoding="UTF-8" standalone="no"?>
<svg
   version="1.1"
   width="301px"
   height="327px"
   style="shape-rendering:geometricPrecision; text-rendering:geometricPrecision; image-rendering:optimizeQuality; fill-rule:evenodd; clip-rule:evenodd"
   id="svg29"
   xmlns="http://www.w3.org/2000/svg"
   xmlns:svg="http://www.w3.org/2000/svg">
  <defs
     id="defs29" />
  <g
     id="g1">
    <path
       style="opacity:0.918"
       fill="#aaacb0"
       d="M 121.5,-0.5 C 121.833,-0.5 122.167,-0.5 122.5,-0.5C 123.774,1.99253 124.44,4.65919 124.5,7.5C 123.609,6.89022 122.609,6.55688 121.5,6.5C 121.649,5.44802 121.483,4.44802 121,3.5C 107.067,8.71628 93.5673,14.8829 80.5,22C 87.3779,23.7688 94.3779,24.9354 101.5,25.5C 99.7484,27.2459 98.4151,29.2459 97.5,31.5C 90.8466,29.6708 84.1799,28.1708 77.5,27C 85.3378,33.6714 92.6712,40.8381 99.5,48.5C 95.426,48.2182 91.426,47.5515 87.5,46.5C 82.8203,39.8302 77.6536,33.4968 72,27.5C 71.6174,28.056 71.1174,28.3893 70.5,28.5C 73.4866,25.7537 76.1532,22.587 78.5,19C 77.944,18.6174 77.6107,18.1174 77.5,17.5C 91.7644,10.5228 106.431,4.52281 121.5,-0.5 Z"
       id="path1" />
  </g>
  <g
     id="g2">
    <path
       style="opacity:0.996"
       fill="#91949b"
       d="M 77.5,17.5 C 77.6107,18.1174 77.944,18.6174 78.5,19C 76.1532,22.587 73.4866,25.7537 70.5,28.5C 65.9387,31.3861 62.9387,35.3861 61.5,40.5C 56.986,39.9737 53.986,37.6404 52.5,33.5C 59.2976,25.9248 67.6309,20.5915 77.5,17.5 Z"
       id="path2" />
  </g>
  <g
     id="g3">
    <path
       style="opacity:0.913"
       fill="#d2d2d3"
       d="M 121.5,6.5 C 122.609,6.55688 123.609,6.89022 124.5,7.5C 131.327,24.1569 138.993,40.4902 147.5,56.5C 144.246,56.7931 141.246,56.1264 138.5,54.5C 136.1,49.3682 133.434,44.3682 130.5,39.5C 125.149,43.1921 119.815,46.8588 114.5,50.5C 111.098,50.6576 107.764,50.3242 104.5,49.5C 111.775,44.5221 119.441,40.0221 127.5,36C 117.473,34.6064 107.473,33.1064 97.5,31.5C 98.4151,29.2459 99.7484,27.2459 101.5,25.5C 110.135,27.3278 118.801,28.8278 127.5,30C 124.171,22.5181 122.171,14.6848 121.5,6.5 Z"
       id="path3" />
  </g>
  <g
     id="g4">
    <path
       style="opacity:0.952"
       fill="#b7051a"
       d="M 52.5,33.5 C 53.986,37.6404 56.986,39.9737 61.5,40.5C 70.0948,42.8154 78.7615,44.8154 87.5,46.5C 91.426,47.5515 95.426,48.2182 99.5,48.5C 100.167,48.5 100.833,48.5 101.5,48.5C 101.189,49.4778 100.522,50.1445 99.5,50.5C 97.8988,49.8346 96.3988,49.5012 95,49.5C 94,50.5 93,51.5 92,52.5C 91.6667,51.8333 91.3333,51.1667 91,50.5C 89.9563,51.6226 89.2896,52.9559 89,54.5C 88.6667,53.5 88.3333,52.5 88,51.5C 87.3292,52.2524 86.4959,52.5858 85.5,52.5C 80.5369,51.1722 75.5369,50.3389 70.5,50C 71.7305,51.4048 73.0639,52.5714 74.5,53.5C 74.5875,56.5983 74.0875,56.9316 73,54.5C 72.5,55 72,55.5 71.5,56C 72.5981,56.7697 72.5981,57.603 71.5,58.5C 64.2063,53.0404 57.7063,46.7071 52,39.5C 51.2109,37.2884 51.3775,35.2884 52.5,33.5 Z"
       id="path4" />
  </g>
  <g
     id="g5">
    <path
       style="opacity:1"
       fill="#d10815"
       d="M 101.5,48.5 C 102.391,49.1098 103.391,49.4431 104.5,49.5C 107.764,50.3242 111.098,50.6576 114.5,50.5C 122.267,52.4611 130.267,53.7945 138.5,54.5C 141.246,56.1264 144.246,56.7931 147.5,56.5C 157.582,57.7359 167.582,59.4026 177.5,61.5C 177.33,62.8221 177.663,63.9887 178.5,65C 182.817,68.2414 186.817,71.0747 190.5,73.5C 189.915,78.3752 188.915,83.0419 187.5,87.5C 186.598,85.6593 185.264,84.326 183.5,83.5C 183.927,80.6239 184.594,77.7906 185.5,75C 185.167,74.5 184.833,74 184.5,73.5C 181.78,74.8599 179.114,76.1932 176.5,77.5C 176.881,75.0582 176.214,74.3915 174.5,75.5C 174.213,74.7997 173.88,74.1331 173.5,73.5C 174.842,72.207 176.509,71.3736 178.5,71C 164.406,67.1507 150.073,64.484 135.5,63C 136.337,64.0113 136.67,65.1779 136.5,66.5C 135.167,65.1667 133.833,65.1667 132.5,66.5C 132.029,65.0992 131.362,63.7658 130.5,62.5C 127.961,63.9308 125.628,65.5975 123.5,67.5C 122.198,64.0178 120.365,63.6845 118,66.5C 117.601,66.2716 117.435,65.9382 117.5,65.5C 119.769,64.0242 122.102,62.5242 124.5,61C 114.035,58.707 103.535,56.5403 93,54.5C 92.1667,54.8333 91.3333,55.1667 90.5,55.5C 93.1249,61.0783 95.4582,66.745 97.5,72.5C 96.7784,72.9175 96.2784,73.5842 96,74.5C 94.4313,74.1528 92.598,73.9861 90.5,74C 91.5171,75.0495 91.6838,76.2161 91,77.5C 90.6667,77.1667 90.3333,76.8333 90,76.5C 89.7216,77.4158 89.2216,78.0825 88.5,78.5C 83.613,71.271 77.9464,64.6043 71.5,58.5C 72.5981,57.603 72.5981,56.7697 71.5,56C 72,55.5 72.5,55 73,54.5C 74.0875,56.9316 74.5875,56.5983 74.5,53.5C 80.1757,59.0129 85.3424,65.0129 90,71.5C 89.0392,65.1007 87.5392,58.7674 85.5,52.5C 86.4959,52.5858 87.3292,52.2524 88,51.5C 88.3333,52.5 88.6667,53.5 89,54.5C 89.2896,52.9559 89.9563,51.6226 91,50.5C 91.3333,51.1667 91.6667,51.8333 92,52.5C 93,51.5 94,50.5 95,49.5C 96.3988,49.5012 97.8988,49.8346 99.5,50.5C 100.522,50.1445 101.189,49.4778 101.5,48.5 Z"
       id="path5" />
  </g>
  <g
     id="g6">
    <path
       style="opacity:1"
       fill="#bf0418"
       d="M 177.5,61.5 C 189.554,63.4294 201.221,66.4294 212.5,70.5C 212.918,71.2216 213.584,71.7216 214.5,72C 213.902,74.5981 215.069,76.4314 218,77.5C 217.645,78.9594 217.811,80.2928 218.5,81.5C 209.341,78.2249 200.008,75.5583 190.5,73.5C 186.817,71.0747 182.817,68.2414 178.5,65C 177.663,63.9887 177.33,62.8221 177.5,61.5 Z"
       id="path6" />
  </g>
  <g
     id="g7">
    <path
       style="opacity:0.988"
       fill="#ad011b"
       d="M 212.5,70.5 C 222.026,72.6723 231.026,76.0056 239.5,80.5C 238.624,80.3691 237.957,80.7025 237.5,81.5C 238.959,83.583 240.292,85.7497 241.5,88C 240.874,88.7504 240.374,89.5838 240,90.5C 239.329,89.7476 238.496,89.4142 237.5,89.5C 231.282,86.5575 224.949,83.8909 218.5,81.5C 217.811,80.2928 217.645,78.9594 218,77.5C 215.069,76.4314 213.902,74.5981 214.5,72C 213.584,71.7216 212.918,71.2216 212.5,70.5 Z"
       id="path7" />
  </g>
  <g
     id="g8">
    <path
       style="opacity:0.993"
       fill="#9e021b"
       d="M 239.5,80.5 C 264.675,90.3379 284.008,107.005 297.5,130.5C 279.807,134.039 262.141,137.705 244.5,141.5C 245.994,139.058 246.994,136.391 247.5,133.5C 261.77,131.258 276.103,129.425 290.5,128C 278.059,114.543 263.893,103.377 248,94.5C 246.914,98.3464 245.081,101.68 242.5,104.5C 240.621,104.607 240.288,104.107 241.5,103C 240.429,102.148 239.429,101.315 238.5,100.5C 239.529,98.4832 240.529,96.4832 241.5,94.5C 242.833,94.1667 242.833,93.8333 241.5,93.5C 238.937,92.9117 236.604,91.9117 234.5,90.5C 235.791,90.7373 236.791,90.404 237.5,89.5C 238.496,89.4142 239.329,89.7476 240,90.5C 240.374,89.5838 240.874,88.7504 241.5,88C 240.292,85.7497 238.959,83.583 237.5,81.5C 237.957,80.7025 238.624,80.3691 239.5,80.5 Z"
       id="path8" />
  </g>
  <g
     id="g9">
    <path
       style="opacity:1"
       fill="#ea1011"
       d="M 123.5,67.5 C 117.039,72.7908 110.705,78.2908 104.5,84C 114.308,86.3686 123.975,89.2019 133.5,92.5C 134.81,83.767 134.476,75.1003 132.5,66.5C 133.833,65.1667 135.167,65.1667 136.5,66.5C 138.335,69.842 139.502,73.5086 140,77.5C 140.333,82.1667 140.667,86.8333 141,91.5C 151.231,84.4409 162.064,78.4409 173.5,73.5C 173.88,74.1331 174.213,74.7997 174.5,75.5C 176.214,74.3915 176.881,75.0582 176.5,77.5C 166.523,83.7992 156.523,90.1325 146.5,96.5C 145.603,97.5981 144.77,97.5981 144,96.5C 143.667,97.1667 143.333,97.8333 143,98.5C 141.566,96.8645 139.733,95.8645 137.5,95.5C 136.094,96.6682 134.928,96.3348 134,94.5C 129.063,94.7084 124.396,94.7084 120,94.5C 119.768,95.7375 119.268,96.7375 118.5,97.5C 113.221,95.9628 107.888,94.6295 102.5,93.5C 102.5,94.8333 102.5,96.1667 102.5,97.5C 103.024,101.31 101.357,103.31 97.5,103.5C 95.8854,94.6552 92.8854,86.3219 88.5,78.5C 89.2216,78.0825 89.7216,77.4158 90,76.5C 90.3333,76.8333 90.6667,77.1667 91,77.5C 91.6838,76.2161 91.5171,75.0495 90.5,74C 92.598,73.9861 94.4313,74.1528 96,74.5C 96.2784,73.5842 96.7784,72.9175 97.5,72.5C 97.8781,75.0221 98.7114,77.3554 100,79.5C 105.043,73.7433 110.876,69.0766 117.5,65.5C 117.435,65.9382 117.601,66.2716 118,66.5C 120.365,63.6845 122.198,64.0178 123.5,67.5 Z"
       id="path9" />
  </g>
  <g
     id="g10">
    <path
       style="opacity:1"
       fill="#f42b24"
       d="M 146.5,96.5 C 148.072,97.6873 149.739,98.6873 151.5,99.5C 149.972,99.5173 149.472,100.184 150,101.5C 154.284,104.067 158.117,107.234 161.5,111C 161.5,112 161.5,113 161.5,114C 163.175,115.709 164.842,117.376 166.5,119C 165.833,119.333 165.167,119.667 164.5,120C 165.732,122.641 167.398,124.807 169.5,126.5C 166.305,131.569 162.638,136.235 158.5,140.5C 158.453,136.77 158.12,133.103 157.5,129.5C 158.625,128.348 158.625,127.348 157.5,126.5C 155.56,124.37 154.894,122.036 155.5,119.5C 157.1,118.356 158.767,117.189 160.5,116C 153.473,112.487 146.473,108.987 139.5,105.5C 135.281,105.729 131.114,105.729 127,105.5C 126.536,104.906 126.369,104.239 126.5,103.5C 127.562,102.425 127.562,101.425 126.5,100.5C 123.718,99.4844 121.051,98.4844 118.5,97.5C 119.268,96.7375 119.768,95.7375 120,94.5C 124.396,94.7084 129.063,94.7084 134,94.5C 134.928,96.3348 136.094,96.6682 137.5,95.5C 139.733,95.8645 141.566,96.8645 143,98.5C 143.333,97.8333 143.667,97.1667 144,96.5C 144.77,97.5981 145.603,97.5981 146.5,96.5 Z"
       id="path10" />
  </g>
  <g
     id="g11">
    <path
       style="opacity:0.995"
       fill="#c40517"
       d="M 234.5,90.5 C 236.604,91.9117 238.937,92.9117 241.5,93.5C 241.5,93.8333 241.5,94.1667 241.5,94.5C 227.892,98.036 214.559,102.369 201.5,107.5C 200.602,106.842 199.602,106.176 198.5,105.5C 198.212,104.139 197.879,102.806 197.5,101.5C 209.639,97.2319 221.972,93.5653 234.5,90.5 Z"
       id="path11" />
  </g>
  <g
     id="g12">
    <path
       style="opacity:0.961"
       fill="#b7031a"
       d="M 238.5,100.5 C 239.429,101.315 240.429,102.148 241.5,103C 240.288,104.107 240.621,104.607 242.5,104.5C 237.125,116.214 229.459,126.214 219.5,134.5C 219.217,133.784 218.884,132.951 218.5,132C 220.394,130.899 221.061,129.566 220.5,128C 219.956,127.283 219.289,126.783 218.5,126.5C 225.178,117.795 231.845,109.128 238.5,100.5 Z"
       id="path12" />
  </g>
  <g
     id="g13">
    <path
       style="opacity:1"
       fill="#eb1716"
       d="M 183.5,83.5 C 185.264,84.326 186.598,85.6593 187.5,87.5C 186.059,94.3238 183.725,100.824 180.5,107C 186.079,105.228 191.746,103.394 197.5,101.5C 197.879,102.806 198.212,104.139 198.5,105.5C 199.602,106.176 200.602,106.842 201.5,107.5C 194.744,110.043 188.077,112.876 181.5,116C 190.819,123.145 198.486,131.645 204.5,141.5C 201.93,142.484 201.93,143.651 204.5,145C 203.167,145.667 203.167,146.333 204.5,147C 203.833,147.333 203.167,147.667 202.5,148C 203.38,149.356 203.714,150.856 203.5,152.5C 195.366,154.434 187.366,156.767 179.5,159.5C 176.579,159.283 173.913,159.949 171.5,161.5C 162.625,164.124 153.958,167.124 145.5,170.5C 142.772,170.171 140.438,170.837 138.5,172.5C 135.759,172.707 133.426,173.707 131.5,175.5C 122.647,178.256 113.981,181.589 105.5,185.5C 103.784,185.629 102.117,185.962 100.5,186.5C 98.6455,185.31 96.8121,183.977 95,182.5C 93.8932,183.712 93.3932,183.379 93.5,181.5C 102.018,177.714 110.684,174.214 119.5,171C 121.426,170.578 122.426,169.411 122.5,167.5C 123.404,166.791 123.737,165.791 123.5,164.5C 124.5,164.5 125.5,164.5 126.5,164.5C 126.246,166.401 126.58,167.067 127.5,166.5C 128.833,165.833 129.833,164.833 130.5,163.5C 131.721,164.028 132.887,164.695 134,165.5C 134.422,163.574 135.589,162.574 137.5,162.5C 137.735,163.097 138.235,163.43 139,163.5C 158.69,156.381 178.524,149.881 198.5,144C 190.549,135.564 181.549,128.898 171.5,124C 170.619,124.708 169.953,125.542 169.5,126.5C 167.398,124.807 165.732,122.641 164.5,120C 165.167,119.667 165.833,119.333 166.5,119C 164.842,117.376 163.175,115.709 161.5,114C 161.5,113 161.5,112 161.5,111C 158.117,107.234 154.284,104.067 150,101.5C 149.472,100.184 149.972,99.5173 151.5,99.5C 157.933,102.216 164.266,105.216 170.5,108.5C 175.658,100.514 179.992,92.1809 183.5,83.5 Z"
       id="path13" />
  </g>
  <g
     id="g14">
    <path
       style="opacity:0.991"
       fill="#f63a31"
       d="M 102.5,97.5 C 103.33,105.99 103.83,114.657 104,123.5C 110.796,115.86 118.296,109.194 126.5,103.5C 126.369,104.239 126.536,104.906 127,105.5C 131.114,105.729 135.281,105.729 139.5,105.5C 138,113.67 135.334,121.336 131.5,128.5C 131.08,126.906 130.414,125.406 129.5,124C 131.007,122.333 130.673,121.166 128.5,120.5C 129.671,116.508 130.505,112.508 131,108.5C 122.667,115.5 114.333,122.5 106,129.5C 105.312,130.332 105.479,130.998 106.5,131.5C 110.268,133.706 113.602,136.372 116.5,139.5C 115.624,139.369 114.957,139.702 114.5,140.5C 115.427,142.491 115.594,144.491 115,146.5C 115.333,146.167 115.667,145.833 116,145.5C 117.912,147.657 119.579,149.991 121,152.5C 122.277,153.072 123.777,153.072 125.5,152.5C 126.554,157.107 127.221,161.773 127.5,166.5C 126.58,167.067 126.246,166.401 126.5,164.5C 125.5,164.5 124.5,164.5 123.5,164.5C 123.737,165.791 123.404,166.791 122.5,167.5C 121.685,162.204 119.519,157.537 116,153.5C 112.968,157.359 109.802,161.026 106.5,164.5C 106.446,162.368 105.446,161.035 103.5,160.5C 103.631,159.761 103.464,159.094 103,158.5C 101.226,159.965 99.3925,161.298 97.5,162.5C 96.7888,160.97 95.7888,159.637 94.5,158.5C 99.3149,154.53 104.315,150.697 109.5,147C 106.937,144.47 104.103,142.303 101,140.5C 99.2282,143.71 97.7282,147.044 96.5,150.5C 95.3485,148.221 94.3485,145.888 93.5,143.5C 98.1185,130.502 99.4519,117.168 97.5,103.5C 101.357,103.31 103.024,101.31 102.5,97.5 Z"
       id="path14" />
  </g>
  <g
     id="g15">
    <path
       style="opacity:1"
       fill="#f94b41"
       d="M 155.5,119.5 C 154.894,122.036 155.56,124.37 157.5,126.5C 145.896,133.307 134.23,140.14 122.5,147C 123.639,148.78 124.639,150.614 125.5,152.5C 123.777,153.072 122.277,153.072 121,152.5C 119.579,149.991 117.912,147.657 116,145.5C 115.667,145.833 115.333,146.167 115,146.5C 115.594,144.491 115.427,142.491 114.5,140.5C 114.957,139.702 115.624,139.369 116.5,139.5C 117.117,139.611 117.617,139.944 118,140.5C 121.613,133.773 125.113,127.106 128.5,120.5C 130.673,121.166 131.007,122.333 129.5,124C 130.414,125.406 131.08,126.906 131.5,128.5C 130.708,129.967 130.708,131.3 131.5,132.5C 139.235,127.633 147.235,123.3 155.5,119.5 Z"
       id="path15" />
  </g>
  <g
     id="g16">
    <path
       style="opacity:0.988"
       fill="#ca0616"
       d="M 218.5,126.5 C 219.289,126.783 219.956,127.283 220.5,128C 221.061,129.566 220.394,130.899 218.5,132C 218.884,132.951 219.217,133.784 219.5,134.5C 218.04,136.463 216.373,138.296 214.5,140C 217.832,139.839 221.165,139.339 224.5,138.5C 224.918,139.222 225.584,139.722 226.5,140C 225.833,140.333 225.167,140.667 224.5,141C 225.71,142.895 225.376,144.728 223.5,146.5C 216.917,148.483 210.25,150.483 203.5,152.5C 203.714,150.856 203.38,149.356 202.5,148C 203.167,147.667 203.833,147.333 204.5,147C 203.167,146.333 203.167,145.667 204.5,145C 201.93,143.651 201.93,142.484 204.5,141.5C 206.017,141.489 207.184,140.823 208,139.5C 211.04,134.731 214.54,130.397 218.5,126.5 Z"
       id="path16" />
  </g>
  <g
     id="g17">
    <path
       style="opacity:0.983"
       fill="#b5021a"
       d="M 247.5,133.5 C 246.994,136.391 245.994,139.058 244.5,141.5C 237.633,143.633 230.633,145.3 223.5,146.5C 225.376,144.728 225.71,142.895 224.5,141C 225.167,140.667 225.833,140.333 226.5,140C 225.584,139.722 224.918,139.222 224.5,138.5C 232.117,136.71 239.784,135.043 247.5,133.5 Z"
       id="path17" />
  </g>
  <g
     id="g18">
    <path
       style="opacity:0.993"
       fill="#f73a33"
       d="M 157.5,129.5 C 158.12,133.103 158.453,136.77 158.5,140.5C 152.202,148.466 145.202,155.799 137.5,162.5C 135.589,162.574 134.422,163.574 134,165.5C 132.887,164.695 131.721,164.028 130.5,163.5C 139.992,152.492 148.992,141.158 157.5,129.5 Z"
       id="path18" />
  </g>
  <g
     id="g19">
    <path
       style="opacity:0.996"
       fill="#e21015"
       d="M 93.5,143.5 C 94.3485,145.888 95.3485,148.221 96.5,150.5C 95.1799,153.14 93.8466,155.807 92.5,158.5C 92.9698,159.463 93.6365,159.463 94.5,158.5C 95.7888,159.637 96.7888,160.97 97.5,162.5C 92.5291,165.99 87.5291,169.49 82.5,173C 79.4049,177.185 76.0716,181.185 72.5,185C 72.8333,185.167 73.1667,185.333 73.5,185.5C 84.1035,177.897 94.1035,169.564 103.5,160.5C 105.446,161.035 106.446,162.368 106.5,164.5C 99.6968,171.134 92.6968,177.634 85.5,184C 88.1849,183.506 90.8515,182.673 93.5,181.5C 93.3932,183.379 93.8932,183.712 95,182.5C 96.8121,183.977 98.6455,185.31 100.5,186.5C 100.5,187.167 100.167,187.5 99.5,187.5C 99.1667,187.5 98.8333,187.5 98.5,187.5C 95.1315,189.173 91.7981,190.84 88.5,192.5C 83.3797,194.56 78.3797,196.893 73.5,199.5C 73.5774,198.25 74.244,197.417 75.5,197C 74,195.5 72.5,194 71,192.5C 70.3828,191.551 70.5494,190.718 71.5,190C 70.0692,189.535 68.9025,188.701 68,187.5C 67.3333,191.5 66.6667,191.5 66,187.5C 65.31,188.738 64.81,188.738 64.5,187.5C 76.1802,174.134 85.8468,159.467 93.5,143.5 Z"
       id="path19" />
  </g>
  <g
     id="g20">
    <path
       style="opacity:0.876"
       fill="#ebeaea"
       d="M 179.5,159.5 C 183.103,182.109 183.436,204.775 180.5,227.5C 178.888,226.548 177.388,226.214 176,226.5C 175.489,224.122 174.822,221.788 174,219.5C 173.768,220.737 173.268,221.737 172.5,222.5C 173.37,213.846 173.536,205.18 173,196.5C 164.893,202.47 156.393,207.803 147.5,212.5C 146.778,212.082 146.278,211.416 146,210.5C 145.309,212.891 144.309,212.891 143,210.5C 142.667,211.167 142.333,211.833 142,212.5C 140.698,211.915 139.531,211.249 138.5,210.5C 150.254,205.123 161.588,198.956 172.5,192C 160.783,186.104 149.45,179.604 138.5,172.5C 140.438,170.837 142.772,170.171 145.5,170.5C 153.966,176.906 162.966,182.573 172.5,187.5C 172.833,186 173.167,184.5 173.5,183C 172.668,175.843 172.001,168.676 171.5,161.5C 173.913,159.949 176.579,159.283 179.5,159.5 Z"
       id="path20" />
  </g>
  <g
     id="g21">
    <path
       style="opacity:0.985"
       fill="#dedede"
       d="M 138.5,172.5 C 138.473,185.379 136.807,198.046 133.5,210.5C 133.833,211.167 134.167,211.833 134.5,212.5C 135.86,211.82 137.193,211.153 138.5,210.5C 139.531,211.249 140.698,211.915 142,212.5C 142.333,211.833 142.667,211.167 143,210.5C 144.309,212.891 145.309,212.891 146,210.5C 146.278,211.416 146.778,212.082 147.5,212.5C 143.563,214.807 139.563,217.14 135.5,219.5C 146.122,226.894 157.622,232.561 170,236.5C 170.998,231.844 171.831,227.178 172.5,222.5C 173.268,221.737 173.768,220.737 174,219.5C 174.822,221.788 175.489,224.122 176,226.5C 177.388,226.214 178.888,226.548 180.5,227.5C 178.591,244.473 174.591,260.473 168.5,275.5C 167.442,276.6 166.608,277.934 166,279.5C 164.658,276.331 162.492,275.665 159.5,277.5C 163.477,266.411 166.311,255.078 168,243.5C 163.343,246.245 158.51,248.579 153.5,250.5C 153.611,249.883 153.944,249.383 154.5,249C 152.942,248.79 151.609,248.29 150.5,247.5C 156.625,244.937 162.625,242.104 168.5,239C 154.839,235.782 142.006,230.616 130,223.5C 126.94,232.61 123.107,241.276 118.5,249.5C 116.089,249.863 114.589,248.863 114,246.5C 112.893,247.712 112.393,247.379 112.5,245.5C 114.75,239.165 117.417,232.998 120.5,227C 119.423,226.53 118.423,226.697 117.5,227.5C 116.164,225.99 114.997,224.323 114,222.5C 113.333,226.5 112.667,226.5 112,222.5C 111.147,224.603 109.98,224.603 108.5,222.5C 112.922,221.303 117.256,219.803 121.5,218C 111.594,209.609 104.261,199.442 99.5,187.5C 100.167,187.5 100.5,187.167 100.5,186.5C 102.117,185.962 103.784,185.629 105.5,185.5C 110.031,195.884 116.531,204.884 125,212.5C 129.715,200.676 131.882,188.343 131.5,175.5C 133.426,173.707 135.759,172.707 138.5,172.5 Z"
       id="path21" />
  </g>
  <g
     id="g22">
    <path
       style="opacity:1"
       fill="#c00c1b"
       d="M 64.5,187.5 C 64.81,188.738 65.31,188.738 66,187.5C 66.6667,191.5 67.3333,191.5 68,187.5C 68.9025,188.701 70.0692,189.535 71.5,190C 70.5494,190.718 70.3828,191.551 71,192.5C 72.5,194 74,195.5 75.5,197C 74.244,197.417 73.5774,198.25 73.5,199.5C 69.9568,201.438 66.2901,203.105 62.5,204.5C 59.1667,206.167 55.8333,207.833 52.5,209.5C 51.6836,207.856 50.3502,206.69 48.5,206C 49.3081,205.692 49.9747,205.192 50.5,204.5C 49.7997,204.213 49.1331,203.88 48.5,203.5C 53.5,197.833 58.8333,192.5 64.5,187.5 Z"
       id="path22" />
  </g>
  <g
     id="g23">
    <path
       style="opacity:1"
       fill="#ab031b"
       d="M 48.5,203.5 C 49.1331,203.88 49.7997,204.213 50.5,204.5C 49.9747,205.192 49.3081,205.692 48.5,206C 50.3502,206.69 51.6836,207.856 52.5,209.5C 52.5,209.833 52.5,210.167 52.5,210.5C 46.7019,213.233 41.0353,216.233 35.5,219.5C 33.9008,218.438 32.2341,218.438 30.5,219.5C 36.177,213.824 42.177,208.491 48.5,203.5 Z"
       id="path23" />
  </g>
  <g
     id="g24">
    <path
       style="opacity:1"
       fill="#bec0c1"
       d="M 62.5,204.5 C 60.3175,214.639 61.4841,224.306 66,233.5C 67.2775,231.253 68.7775,229.253 70.5,227.5C 72.7343,232.281 75.7343,236.614 79.5,240.5C 77.0458,241.621 74.3791,242.454 71.5,243C 79.6191,252.625 89.1191,260.458 100,266.5C 104.193,259.437 108.359,252.437 112.5,245.5C 112.393,247.379 112.893,247.712 114,246.5C 114.589,248.863 116.089,249.863 118.5,249.5C 117.119,253.264 115.453,256.931 113.5,260.5C 114,260.833 114.5,261.167 115,261.5C 126.902,256.923 138.735,252.257 150.5,247.5C 151.609,248.29 152.942,248.79 154.5,249C 153.944,249.383 153.611,249.883 153.5,250.5C 139.35,257.741 125.016,264.741 110.5,271.5C 125.441,278.591 141.107,283.258 157.5,285.5C 157.963,282.779 158.629,280.112 159.5,277.5C 162.492,275.665 164.658,276.331 166,279.5C 166.608,277.934 167.442,276.6 168.5,275.5C 163.057,292.155 156.057,308.155 147.5,323.5C 146.272,322.694 145.272,321.694 144.5,320.5C 148.39,310.997 151.557,301.33 154,291.5C 139.227,298.924 123.727,304.258 107.5,307.5C 105.78,306.692 104.113,305.692 102.5,304.5C 119.048,299.356 135.715,294.189 152.5,289C 135.783,286.858 119.616,282.691 104,276.5C 103.601,276.728 103.435,277.062 103.5,277.5C 87.5724,266.216 72.5724,252.382 58.5,236C 57.9056,235.536 57.2389,235.369 56.5,235.5C 54.8714,233.142 53.7048,230.476 53,227.5C 52.5006,221.843 52.3339,216.176 52.5,210.5C 52.5,210.167 52.5,209.833 52.5,209.5C 55.8333,207.833 59.1667,206.167 62.5,204.5 Z"
       id="path24" />
  </g>
  <g
     id="g25">
    <path
       style="opacity:1"
       fill="#a73638"
       d="M 35.5,219.5 C 34.7095,220.401 33.7095,221.068 32.5,221.5C 29.2794,222.709 26.2794,224.376 23.5,226.5C 22.8933,226.376 22.56,226.043 22.5,225.5C 24.8838,223.115 27.5505,221.115 30.5,219.5C 32.2341,218.438 33.9008,218.438 35.5,219.5 Z"
       id="path25" />
  </g>
  <g
     id="g26">
    <path
       style="opacity:0.955"
       fill="#cccdce"
       d="M 98.5,187.5 C 93.3982,203.371 86.3982,218.371 77.5,232.5C 87.8083,230.067 98.1416,226.734 108.5,222.5C 109.98,224.603 111.147,224.603 112,222.5C 112.667,226.5 113.333,226.5 114,222.5C 114.997,224.323 116.164,225.99 117.5,227.5C 105.263,233.024 92.5963,237.357 79.5,240.5C 75.7343,236.614 72.7343,232.281 70.5,227.5C 77.2659,216.303 83.2659,204.637 88.5,192.5C 91.7981,190.84 95.1315,189.173 98.5,187.5 Z"
       id="path26" />
  </g>
  <g
     id="g27">
    <path
       style="opacity:0.991"
       fill="#8d9298"
       d="M 32.5,221.5 C 22.5226,229.489 15.1893,239.489 10.5,251.5C 12.0745,252.631 13.7412,252.798 15.5,252C 24.2137,249.595 32.8803,247.095 41.5,244.5C 41.8333,246.5 42.1667,248.5 42.5,250.5C 33.387,251.887 24.5536,254.221 16,257.5C 14.3745,257.146 12.5412,257.146 10.5,257.5C 10.9196,262.391 12.4196,267.057 15,271.5C 18.989,277.155 23.6556,282.155 29,286.5C 32.6969,281.315 36.5302,276.315 40.5,271.5C 41.8333,272.167 42.8333,273.167 43.5,274.5C 41.2167,277.956 38.7167,281.29 36,284.5C 34.6989,286.402 34.0322,288.402 34,290.5C 47.4694,285.732 60.9694,281.066 74.5,276.5C 76.1401,277.32 77.8068,278.153 79.5,279C 78.7476,279.671 78.4142,280.504 78.5,281.5C 64.5554,285.56 50.8888,289.393 37.5,293C 48.5545,299.909 60.3879,305.075 73,308.5C 76.9714,303.913 80.4714,298.913 83.5,293.5C 86.763,293.674 88.4296,295.341 88.5,298.5C 85.7146,302.458 82.7146,306.291 79.5,310C 87.1792,308.502 94.8459,306.669 102.5,304.5C 104.113,305.692 105.78,306.692 107.5,307.5C 101.614,309.305 95.614,310.805 89.5,312C 107.836,316.392 126.169,319.226 144.5,320.5C 145.272,321.694 146.272,322.694 147.5,323.5C 124.189,324.361 101.022,322.028 78,316.5C 61.7159,313.294 46.2159,308.128 31.5,301C 21.3792,295.022 12.5458,287.522 5,278.5C 2.44545,273.983 0.612121,269.316 -0.5,264.5C -0.5,263.167 -0.5,261.833 -0.5,260.5C 2.86116,246.139 10.5278,234.472 22.5,225.5C 22.56,226.043 22.8933,226.376 23.5,226.5C 26.2794,224.376 29.2794,222.709 32.5,221.5 Z"
       id="path27" />
  </g>
  <g
     id="g28">
    <path
       style="opacity:0.996"
       fill="#afb1b5"
       d="M 56.5,235.5 C 57.2389,235.369 57.9056,235.536 58.5,236C 72.5724,252.382 87.5724,266.216 103.5,277.5C 98.8558,284.802 93.8558,291.802 88.5,298.5C 88.4296,295.341 86.763,293.674 83.5,293.5C 87.0041,288.485 90.3375,283.319 93.5,278C 88.499,278.826 83.499,279.993 78.5,281.5C 78.4142,280.504 78.7476,279.671 79.5,279C 77.8068,278.153 76.1401,277.32 74.5,276.5C 79.7735,274.457 85.1068,272.291 90.5,270C 80.6295,264.967 72.1295,258.134 65,249.5C 57.9685,258.025 50.8018,266.359 43.5,274.5C 42.8333,273.167 41.8333,272.167 40.5,271.5C 45.7772,263.13 51.4439,254.963 57.5,247C 52.4442,247.68 47.4442,248.846 42.5,250.5C 42.1667,248.5 41.8333,246.5 41.5,244.5C 46.4368,242.911 51.4368,241.411 56.5,240C 57.4132,238.586 57.4132,237.086 56.5,235.5 Z"
       id="path28" />
  </g>
  <g
     id="g29" />
  <text
     xml:space="preserve"
     style="font-weight:800;font-size:29.272px;line-height:1.25;font-family:Jost;-inkscape-font-specification:'Jost Ultra-Bold';letter-spacing:0px;stroke-width:0.406556;paint-order:fill markers stroke;fill:#7d7d7d;fill-opacity:1"
     x="164.612"
     y="318.98019"
     id="text29"><tspan
       id="tspan29"
       x="164.612"
       y="318.98019"
       style="font-style:normal;font-variant:normal;font-weight:normal;font-stretch:normal;font-family:Arial;-inkscape-font-specification:Arial;stroke-width:0.406556;fill:#7d7d7d;fill-opacity:1">®</tspan></text>
</svg>
