<?xml version="1.0" encoding="UTF-8" standalone="no"?>
<svg
   width="325"
   height="325"
   preserveAspectRatio="xMidYMid"
   version="1.1"
   id="svg6"
   sodipodi:docname="svelte-kit.svg"
   inkscape:version="1.2 (dc2aedaf03, 2022-05-15)"
   xmlns:inkscape="http://www.inkscape.org/namespaces/inkscape"
   xmlns:sodipodi="http://sodipodi.sourceforge.net/DTD/sodipodi-0.dtd"
   xmlns="http://www.w3.org/2000/svg"
   xmlns:svg="http://www.w3.org/2000/svg">
  <defs
     id="defs10" />
  <sodipodi:namedview
     id="namedview8"
     pagecolor="#ffffff"
     bordercolor="#666666"
     borderopacity="1.0"
     inkscape:showpageshadow="2"
     inkscape:pageopacity="0.0"
     inkscape:pagecheckerboard="0"
     inkscape:deskcolor="#d1d1d1"
     showgrid="false"
     inkscape:zoom="0.76623377"
     inkscape:cx="-214.0339"
     inkscape:cy="154"
     inkscape:window-width="1920"
     inkscape:window-height="1017"
     inkscape:window-x="1912"
     inkscape:window-y="-8"
     inkscape:window-maximized="1"
     inkscape:current-layer="svg6" />
  <path
     d="M 248.82332,62.488527 C 223.40525,26.109249 173.20524,15.326875 136.9096,38.451281 L 73.163783,79.080696 a 73.132235,73.132235 0 0 0 -33.039314,48.983774 77.018481,77.018481 0 0 0 7.594549,49.44643 73.334199,73.334199 0 0 0 -10.939852,27.33094 77.93488,77.93488 0 0 0 13.313594,58.93784 c 25.422522,36.38283 75.62253,47.16076 111.91373,24.03635 L 225.7523,247.1884 a 73.118,73.118 0 0 0 33.03931,-48.98467 77.049621,77.049621 0 0 0 -7.58921,-49.44731 73.319964,73.319964 0 0 0 10.93452,-27.33006 77.914417,77.914417 0 0 0 -13.31271,-58.937833"
     fill="#ff3e00"
     id="path2"
     style="stroke-width:0.889708" />
  <path
     d="m 130.6763,267.24064 c -20.55404,5.34448 -42.25847,-2.70115 -54.363839,-20.15011 a 46.874277,46.874277 0 0 1 -8.010043,-35.45487 44.465837,44.465837 0 0 1 1.52407,-5.95482 l 1.201106,-3.66115 3.266119,2.39954 a 82.250855,82.250855 0 0 0 24.943857,12.46215 l 2.3693,0.71888 -0.21798,2.36573 a 14.294942,14.294942 0 0 0 2.57125,9.48074 15.252268,15.252268 0 0 0 16.36796,6.07492 14.044934,14.044934 0 0 0 3.91739,-1.72158 l 63.76539,-40.63476 a 13.276226,13.276226 0 0 0 5.99129,-8.87661 14.166824,14.166824 0 0 0 -2.41378,-10.68629 15.263834,15.263834 0 0 0 -16.37419,-6.07849 14.039596,14.039596 0 0 0 -3.91115,1.71981 l -24.33352,15.51117 a 46.52996,46.52996 0 0 1 -12.94793,5.68613 c -20.55315,5.34448 -42.25847,-2.70116 -54.362057,-20.151 a 46.870718,46.870718 0 0 1 -8.010933,-35.45399 43.976497,43.976497 0 0 1 19.87608,-29.4618 l 63.76005,-40.6392 a 46.458783,46.458783 0 0 1 12.95682,-5.692353 c 20.55315,-5.344477 42.25847,2.701154 54.36206,20.150112 a 46.874277,46.874277 0 0 1 8.01093,35.454871 44.982757,44.982757 0 0 1 -1.52407,5.95393 l -1.2011,3.66204 -3.26523,-2.39598 A 82.185017,82.185017 0 0 0 199.6794,109.40017 l -2.37018,-0.71977 0.21887,-2.36485 a 14.323412,14.323412 0 0 0 -2.57126,-9.480727 15.252268,15.252268 0 0 0 -16.36885,-6.074928 14.044934,14.044934 0 0 0 -3.9165,1.721586 l -63.76539,40.636539 a 13.254873,13.254873 0 0 0 -5.98773,8.87484 14.146361,14.146361 0 0 0 2.41022,10.68717 15.263834,15.263834 0 0 0 16.37419,6.07849 14.093868,14.093868 0 0 0 3.91649,-1.72159 l 24.32907,-15.50494 a 46.395614,46.395614 0 0 1 12.94704,-5.69147 c 20.55315,-5.34358 42.25847,2.70205 54.36295,20.1519 a 46.870718,46.870718 0 0 1 8.01004,35.45309 43.99874,43.99874 0 0 1 -19.87608,29.46713 l -63.76005,40.63565 a 46.458783,46.458783 0 0 1 -12.95682,5.69235"
     fill="#ffffff"
     id="path4"
     style="stroke-width:0.889708" />
  <text
     xml:space="preserve"
     style="font-weight:bold;font-size:81.1973px;line-height:1.25;font-family:'VictorMono NF';-inkscape-font-specification:'VictorMono NF Bold';letter-spacing:0px;mix-blend-mode:multiply;fill:#949494;fill-opacity:1;stroke:#949494;stroke-width:1.69161;stroke-dasharray:none;stroke-opacity:1"
     x="152.84763"
     y="300.82367"
     id="text184"><tspan
       sodipodi:role="line"
       id="tspan182"
       x="152.84763"
       y="300.82367"
       style="font-size:81.1973px;fill:#949494;fill-opacity:1;stroke:#949494;stroke-width:1.69161;stroke-dasharray:none;stroke-opacity:1">KIT</tspan></text>
</svg>
