<svg id="Capa_1" data-name="Capa 1" xmlns="http://www.w3.org/2000/svg" viewBox="0 0 1706.92 1922.86"><defs><style>.cls-1{fill:none;}.cls-2{fill:#fdfefe;}.cls-3{fill:#de7e2d;}.cls-4{fill:#cf6629;}.cls-5{fill:#de7d2d;}.cls-6{fill:#eba129;}.cls-7{fill:#261c12;}.cls-8{fill:#f7ce5e;}</style></defs><title>this-is-fine</title><path class="cls-1" d="M562.05,1662.48a217.76,217.76,0,0,1-22.37,8.18A122.34,122.34,0,0,0,562.05,1662.48Z" transform="translate(-149.83 -39.91)"/><path class="cls-1" d="M488.63,1760.66c-9.29,19.88-17.24,40.35-22.54,61.57A391.13,391.13,0,0,1,488.63,1760.66Z" transform="translate(-149.83 -39.91)"/><path class="cls-1" d="M1138.68,1568.19c8.7.4,21.81-4.09,33-9.12C1160.5,1564.06,1147.37,1568.52,1138.68,1568.19Z" transform="translate(-149.83 -39.91)"/><path class="cls-1" d="M585.64,1162.74c-58.76,54.62-114.39,117-153.52,186.58C471.45,1279.92,527.33,1217.85,585.64,1162.74Z" transform="translate(-149.83 -39.91)"/><path class="cls-1" d="M510.1,1718.9l-.1.17.1-.17c8.23-12.94,8.49-29.3,12.75-43.89h0C518.59,1689.6,518.33,1706,510.1,1718.9Z" transform="translate(-149.83 -39.91)"/><path class="cls-1" d="M981.55,934.16c-31.11,24.88-78.32,49.31-130,67.65C899,987.12,944.44,966.16,981.55,934.16Z" transform="translate(-149.83 -39.91)"/><path class="cls-1" d="M429.27,1354.45c.79-1.43,1.57-2.86,2.38-4.28C430.85,1351.59,430.05,1353,429.27,1354.45Z" transform="translate(-149.83 -39.91)"/><path class="cls-1" d="M1201.47,1352l2.27-1.38a30.6,30.6,0,0,1-2.92,1.17Z" transform="translate(-149.83 -39.91)"/><path class="cls-1" d="M1175.12,1341a171.51,171.51,0,0,1-32.09-24.64A130.6,130.6,0,0,0,1175.12,1341Z" transform="translate(-149.83 -39.91)"/><path class="cls-1" d="M1391.4,1609c52.19,10.38,108.14,18.2,160.95,12.93C1499.64,1626.73,1443.86,1618.32,1391.4,1609Z" transform="translate(-149.83 -39.91)"/><path class="cls-1" d="M1333.72,1603.7c-2.18.14-4.35.17-6.51.13a26.26,26.26,0,0,0,8-.22A6.85,6.85,0,0,1,1333.72,1603.7Z" transform="translate(-149.83 -39.91)"/><path class="cls-1" d="M1339.47,1598.84a7.27,7.27,0,0,0,.06-1l.41.1a17.53,17.53,0,0,0-1.15-1.7A4.89,4.89,0,0,1,1339.47,1598.84Z" transform="translate(-149.83 -39.91)"/><path class="cls-1" d="M1589.45,1245.61a11.29,11.29,0,0,1,2.87-.81A6.1,6.1,0,0,0,1589.45,1245.61Z" transform="translate(-149.83 -39.91)"/><path class="cls-1" d="M398.15,1632.62c20,32.31,53.76,50.55,100.5,45.68C456.19,1680.87,420,1665.34,398.15,1632.62Z" transform="translate(-149.83 -39.91)"/><path class="cls-1" d="M1399,1264.59c-1.19.27-2.29.59-3.42.9Z" transform="translate(-149.83 -39.91)"/><path class="cls-1" d="M648.15,1108c22.85,74.53,39.38,160.17,39.73,244.47C688.44,1269.88,672.56,1186.64,648.15,1108Z" transform="translate(-149.83 -39.91)"/><path class="cls-1" d="M870.11,843.46c-31.05,21.59-62.52,38.78-96.75,48.87C807.5,882.44,838.61,865.47,870.11,843.46Z" transform="translate(-149.83 -39.91)"/><path class="cls-1" d="M683.09,822.44l-1.39,1Z" transform="translate(-149.83 -39.91)"/><path class="cls-1" d="M646.33,896.74a344.57,344.57,0,0,0,35.88,4.55,294.24,294.24,0,0,1-29.9-4.1C650.33,897,648.33,896.88,646.33,896.74Z" transform="translate(-149.83 -39.91)"/><path class="cls-1" d="M748.06,786.34a405.72,405.72,0,0,1,133.33-32.63l.2-.06A403,403,0,0,0,748.06,786.34Z" transform="translate(-149.83 -39.91)"/><path class="cls-1" d="M677.5,826.38c-1.15.83-2.3,1.66-3.45,2.51C675.2,828,676.35,827.21,677.5,826.38Z" transform="translate(-149.83 -39.91)"/><path class="cls-1" d="M665.29,835.53q-3.09,2.41-6.12,4.9Q662.2,837.94,665.29,835.53Z" transform="translate(-149.83 -39.91)"/><path class="cls-1" d="M671.52,830.77c-1.68,1.25-3.34,2.52-5,3.8C668.18,833.29,669.84,832,671.52,830.77Z" transform="translate(-149.83 -39.91)"/><path class="cls-1" d="M1025,883.44l.1-.18Z" transform="translate(-149.83 -39.91)"/><path class="cls-1" d="M648.14,1108c4.3-8.27,9.56-19.44,15.54-30.82q-8.49,15-15.54,30.82Z" transform="translate(-149.83 -39.91)"/><path class="cls-1" d="M568.79,975.3c13.29,38.8,51.87,51.77,91.53,55.81C617.63,1025.89,583.83,1008.9,568.79,975.3Z" transform="translate(-149.83 -39.91)"/><path class="cls-1" d="M1017.94,895.17h0c2.43-3.75,4.79-7.66,7-11.71Q1021.62,889.54,1017.94,895.17Z" transform="translate(-149.83 -39.91)"/><path class="cls-1" d="M583.67,1649.15c25.07-19.21,42.72-47.21,56.73-77.62A323.87,323.87,0,0,1,583.67,1649.15Z" transform="translate(-149.83 -39.91)"/><path class="cls-1" d="M1027.22,896.73h0a259.56,259.56,0,0,1,32.52,3.55,312.87,312.87,0,0,0-41.79-5.1C1021.06,896.79,1024.5,894.67,1027.22,896.73Z" transform="translate(-149.83 -39.91)"/><path class="cls-1" d="M1014.81,899.89a14,14,0,0,1,7.62-3.59h.16a12.77,12.77,0,0,1,4.63.45C1022.26,895.27,1018.24,896.93,1014.81,899.89Z" transform="translate(-149.83 -39.91)"/><path class="cls-1" d="M930.42,796.84l-9.71-14.18C924.89,789.17,928.5,794.74,930.42,796.84Z" transform="translate(-149.83 -39.91)"/><path class="cls-1" d="M1715,1520.52q-2.34,4.63-4.93,9.16Q1712.68,1525.17,1715,1520.52Z" transform="translate(-149.83 -39.91)"/><path class="cls-1" d="M1723.36,1501.56q-1.84,4.85-3.93,9.59Q1721.52,1506.4,1723.36,1501.56Z" transform="translate(-149.83 -39.91)"/><path class="cls-1" d="M1731.18,1476.71q-1.29,5.08-2.79,10.08Q1729.89,1481.8,1731.18,1476.71Z" transform="translate(-149.83 -39.91)"/><path class="cls-1" d="M1698.64,1547.32q-4.7,6.43-10,12.6Q1694,1553.77,1698.64,1547.32Z" transform="translate(-149.83 -39.91)"/><path class="cls-1" d="M1710.08,1529.68q-2.6,4.53-5.45,8.94Q1707.48,1534.21,1710.08,1529.68Z" transform="translate(-149.83 -39.91)"/><path class="cls-1" d="M1685,1564q-3.69,4.05-7.7,8Q1681.3,1568,1685,1564Z" transform="translate(-149.83 -39.91)"/><path class="cls-1" d="M1673.22,1575.85a1036.28,1036.28,0,0,1-31.79,100.23A882.49,882.49,0,0,0,1673.22,1575.85Z" transform="translate(-149.83 -39.91)"/><path class="cls-1" d="M1737.68,1440q-.59,5.38-1.36,10.7Q1737.1,1445.39,1737.68,1440Z" transform="translate(-149.83 -39.91)"/><path class="cls-1" d="M640.4,896l.71.07Z" transform="translate(-149.83 -39.91)"/><path class="cls-1" d="M1684.15,715.46c-9.76,17.73-19.94,35.42-30.56,52.93,10.62-17.5,20.8-35.19,30.56-52.92Z" transform="translate(-149.83 -39.91)"/><path class="cls-1" d="M255.13,1338.79c4.66-146.2,40.2-298,86-430.33C293.06,1045.38,258.12,1194,255.13,1338.79Z" transform="translate(-149.83 -39.91)"/><path class="cls-1" d="M1404.62,461.68c18.14,41.62,30,86.52,37.64,133.18C1436.27,548.56,1425.83,503.22,1404.62,461.68Z" transform="translate(-149.83 -39.91)"/><path class="cls-1" d="M642,896.18l1.72.2Z" transform="translate(-149.83 -39.91)"/><path class="cls-1" d="M644.05,896.42c.76.1,1.52.2,2.28.32C645.57,896.62,644.81,896.52,644.05,896.42Z" transform="translate(-149.83 -39.91)"/><path class="cls-1" d="M1210.11,1541.21a247.16,247.16,0,0,0,60.72,34.4,247.16,247.16,0,0,1-60.72-34.4c-2.86-2.26-3.79-3.51-.09-6l.06,0-.06,0C1206.32,1537.7,1207.25,1539,1210.11,1541.21Z" transform="translate(-149.83 -39.91)"/><path class="cls-1" d="M1130.46,1556.25c-.9,1.65-1,3.71-1.19,5.67l0,0,0,0C1129.46,1560,1129.56,1557.9,1130.46,1556.25Z" transform="translate(-149.83 -39.91)"/><path class="cls-1" d="M1320.28,1603.72h0a11.1,11.1,0,0,1,1.8-.15c-13.45-1-26.66-4.85-39.92-7.55A210.07,210.07,0,0,0,1320.28,1603.72Z" transform="translate(-149.83 -39.91)"/><path class="cls-1" d="M1233.79,1574.51a371,371,0,0,1-35.71-26.7A225.61,225.61,0,0,0,1233.79,1574.51Z" transform="translate(-149.83 -39.91)"/><path class="cls-1" d="M1130.59,1556a6.61,6.61,0,0,1,.6-.82A6.61,6.61,0,0,0,1130.59,1556Z" transform="translate(-149.83 -39.91)"/><path class="cls-1" d="M1237.34,1491.93l-1,1c-20.16,19.25-41.93,35.81-66.52,47.58,24.59-11.77,46.36-28.33,66.52-47.58Z" transform="translate(-149.83 -39.91)"/><path class="cls-1" d="M1259.86,1485.05c-4-4.47-8.33-4.19-12.35-2C1251.53,1480.87,1255.8,1480.59,1259.86,1485.05Z" transform="translate(-149.83 -39.91)"/><path class="cls-1" d="M1229.08,1520.41c9.37-7.18,19.24-15.27,25.28-23.24C1248.25,1504.48,1238.24,1513.07,1229.08,1520.41Z" transform="translate(-149.83 -39.91)"/><path class="cls-1" d="M1354.86,1701.4l1.56,3.44Z" transform="translate(-149.83 -39.91)"/><path class="cls-1" d="M1351.37,1693.77c.3.66.61,1.31.91,2C1352,1695.08,1351.67,1694.43,1351.37,1693.77Z" transform="translate(-149.83 -39.91)"/><path class="cls-1" d="M1349.61,1690c.16.37.33.73.5,1.09C1349.94,1690.68,1349.77,1690.32,1349.61,1690Z" transform="translate(-149.83 -39.91)"/><path class="cls-1" d="M1347.83,1686.14l0,.07Z" transform="translate(-149.83 -39.91)"/><path class="cls-1" d="M1353.12,1697.59c.42.9.83,1.8,1.24,2.71C1354,1699.39,1353.54,1698.49,1353.12,1697.59Z" transform="translate(-149.83 -39.91)"/><path class="cls-1" d="M1356.56,1705.14c19.71,43.76,37.11,88.73,47.13,135.26C1393.76,1794,1376.28,1748.91,1356.56,1705.14Z" transform="translate(-149.83 -39.91)"/><path class="cls-1" d="M1558.91,1841.54q12.43-19.93,24-40.63-11.21,19.39-23.58,38.11C1558.78,1839.84,1558.15,1840.58,1558.91,1841.54Z" transform="translate(-149.83 -39.91)"/><path class="cls-1" d="M1404.25,1843.08c.08.36.15.73.23,1.1C1404.4,1843.81,1404.33,1843.44,1404.25,1843.08Z" transform="translate(-149.83 -39.91)"/><path class="cls-1" d="M592,904c-13.27,6.79-23.34,17.83-26.64,33.72C568.73,922.45,578.49,911.09,592,904Z" transform="translate(-149.83 -39.91)"/><path class="cls-1" d="M1491.84,1282.45c-33.24,22.8-45.53,51.07-42.82,78.94C1448.54,1330.77,1466.16,1303.08,1491.84,1282.45Z" transform="translate(-149.83 -39.91)"/><path class="cls-1" d="M984.45,234.73c-14-7-26.37-11-27.54-4.59C958.12,223.9,970.48,227.78,984.45,234.73Z" transform="translate(-149.83 -39.91)"/><path class="cls-1" d="M1379.13,1227.39a1.28,1.28,0,0,1,1.49.24A1.26,1.26,0,0,0,1379.13,1227.39Z" transform="translate(-149.83 -39.91)"/><path class="cls-1" d="M805.23,651.51c-45.06-28.62-89.32-30.19-124.44-13.49C716.92,623.21,762.12,626.63,805.23,651.51Z" transform="translate(-149.83 -39.91)"/><path class="cls-1" d="M638.75,881.45c3.06,6.25,6.41,12.37,7.58,15.29h0C645.18,893.84,641.82,887.7,638.75,881.45Z" transform="translate(-149.83 -39.91)"/><path class="cls-1" d="M497.54,922.06c-29.28-20.64-53.19-48.6-71.24-80.22C444.35,873.46,468.26,901.42,497.54,922.06Z" transform="translate(-149.83 -39.91)"/><path class="cls-1" d="M1568.65,1472.56c53.48,12.34,116.43,2.08,170.38-48.91a96.61,96.61,0,0,0,12-15.46C1718.57,1454.55,1639,1482.7,1568.65,1472.56Z" transform="translate(-149.83 -39.91)"/><path class="cls-1" d="M1715.06,1275.84q-6.43-4-13.18-7.55c3.13,1.74,6.21,3.57,9.22,5.52,26.16,21,41.92,41.81,49.44,61.56-6.84-23.58-22.72-45.14-45.48-59.53,1.33-126.51-.86-255.53-11-382.85C1714.2,1020.31,1716.38,1149.32,1715.06,1275.84Z" transform="translate(-149.83 -39.91)"/><path class="cls-1" d="M1562.08,896.34c-31.76,36.92-67,70.68-106.68,99.29h0C1495.05,967,1530.32,933.26,1562.08,896.34Z" transform="translate(-149.83 -39.91)"/><path class="cls-1" d="M1047.76,1388.58c-.17.43-.34.86-.52,1.29C1047.42,1389.44,1047.59,1389,1047.76,1388.58Z" transform="translate(-149.83 -39.91)"/><path class="cls-1" d="M1400.3,456.17c-.86-.3-1.69.31-2.86,1.76C1398.61,456.48,1399.44,455.88,1400.3,456.17Z" transform="translate(-149.83 -39.91)"/><path class="cls-1" d="M1153.47,800.11c-2.84-14.59-5.16-29.46-7.1-44.53,1.94,15.07,4.26,29.94,7.1,44.53Z" transform="translate(-149.83 -39.91)"/><path class="cls-1" d="M1451.33,997.33c-1-.58-1.48-2.25-1.09-4.31,2.68-59.39,4.52-118.84,4.31-178.3-.87,61.31-3.65,121.76-4.31,178.3C1449.74,995.62,1450.32,996.94,1451.33,997.33Z" transform="translate(-149.83 -39.91)"/><path class="cls-1" d="M658.91,840.64q-13.33,10.93-25.69,23.23h0Q645.52,851.62,658.91,840.64Z" transform="translate(-149.83 -39.91)"/><path class="cls-1" d="M830.36,1232.41c-21.59,36-19.21,82.33-2.37,119.1C811.15,1314.74,808.78,1268.46,830.36,1232.41Z" transform="translate(-149.83 -39.91)"/><path class="cls-1" d="M1003.65,1297c-.24-27-8.37-53.86-23.83-75.65a97,97,0,0,0-27.1-25.91C982.22,1215.68,1002.2,1255.84,1003.65,1297Z" transform="translate(-149.83 -39.91)"/><path class="cls-1" d="M1049.19,1384.75A225.46,225.46,0,0,0,1062.4,1297,229.42,229.42,0,0,1,1049.19,1384.75Z" transform="translate(-149.83 -39.91)"/><path class="cls-1" d="M1412.27,1912.88c0-2.63-.12-5.26-.22-7.88C1411.58,1907.64,1410.33,1910.29,1412.27,1912.88Z" transform="translate(-149.83 -39.91)"/><path class="cls-1" d="M1045.12,1395.08l-.07.16Z" transform="translate(-149.83 -39.91)"/><path class="cls-1" d="M845.91,1212.52c14.85-14.22,29.61-23,43.81-27.28C873.89,1189.32,858.71,1198.37,845.91,1212.52Z" transform="translate(-149.83 -39.91)"/><path class="cls-1" d="M830.59,1232a1.74,1.74,0,0,0,.11-.18A1.74,1.74,0,0,1,830.59,1232Z" transform="translate(-149.83 -39.91)"/><path class="cls-1" d="M1020,1176.39c-20.57-27.35-45.17-44.67-71-53.29a142.79,142.79,0,0,1,27.4,13.56A171.66,171.66,0,0,1,1020,1176.39Z" transform="translate(-149.83 -39.91)"/><path class="cls-1" d="M1062.14,1292.16l0,.44Z" transform="translate(-149.83 -39.91)"/><path class="cls-1" d="M749.55,1292.43h0c-8.32,88.19,39.39,163.85,102,193.33C789,1456.27,741.24,1380.62,749.55,1292.43Z" transform="translate(-149.83 -39.91)"/><path class="cls-1" d="M833.53,1138.68c-32.6,20.27-59.65,53.6-73.73,96.53C773.58,1195.74,800.22,1160.52,833.53,1138.68Z" transform="translate(-149.83 -39.91)"/><path class="cls-1" d="M609.57,744.4c-4.53,35.84,2,77.06,23.65,119.47C613.71,818.09,606.94,777.94,609.57,744.4Z" transform="translate(-149.83 -39.91)"/><path class="cls-1" d="M1286.16,1087.87c22.88-4.61,48.72,3,75.58,28.6C1336.32,1088.79,1310,1081.78,1286.16,1087.87Z" transform="translate(-149.83 -39.91)"/><path class="cls-1" d="M1381.18,1204.51c-.06-1.88,0-3.75,0-5.63C1381.14,1200.76,1381.12,1202.63,1381.18,1204.51Z" transform="translate(-149.83 -39.91)"/><path class="cls-1" d="M1361.76,1116.49h0a44.75,44.75,0,0,1,2.93,4.12c-14-31.41-36.66-58.52-66.58-74.42C1320.06,1060.07,1341.7,1082.82,1361.76,1116.49Z" transform="translate(-149.83 -39.91)"/><path class="cls-1" d="M1198.76,1242.71c-1.4-34.73,7.58-71.55,23.76-100.71C1204.28,1172.47,1194.47,1210.4,1198.76,1242.71Z" transform="translate(-149.83 -39.91)"/><path class="cls-1" d="M1194.87,1039.71c-55.71,20.58-88,77-94.17,136.8C1110.44,1117.32,1147.67,1062.38,1194.87,1039.71Z" transform="translate(-149.83 -39.91)"/><path class="cls-1" d="M1237.25,1330.72l.1.09c-2.27.9-6.33,3.41-11,6.41q6-3.45,12.08-6.81l-1,.4Z" transform="translate(-149.83 -39.91)"/><path class="cls-1" d="M958.11,765.29c-8.81,10.89-16.72,23.11-27.68,31.56h0c16.67-12.85,26.26-34.37,42.75-46.78A57.26,57.26,0,0,0,958.11,765.29Z" transform="translate(-149.83 -39.91)"/><path class="cls-1" d="M898.3,752.78c1.78-2.5-.42-4.1-1.53-5.7q-4.59-6.57-9.34-13Q893,743,898.3,752.78c-1.08,0-2.15.08-3.22.12.75,0,1.49,0,2.23,0,1.36-.51,3.81,1.71,6.8,5.39" transform="translate(-149.83 -39.91)"/><path class="cls-1" d="M1310.69,1294.87q13.24-5.65,26.74-10.73l-1.83.53C1329,1286.64,1320.27,1290.36,1310.69,1294.87Z" transform="translate(-149.83 -39.91)"/><path class="cls-1" d="M1008.25,741.87c7.75,1.94,14.54,6.47,20.36,13.17A35.61,35.61,0,0,0,1008.25,741.87Z" transform="translate(-149.83 -39.91)"/><path class="cls-2" d="M1237.25,1330.72c-25.31-20.76-37.08-53.34-38.49-88-4.29-32.31,5.52-70.24,23.76-100.71,15.53-28,37.68-48.89,63.64-54.13,23.88-6.09,50.16.92,75.58,28.6l0,0c-13.38-37.5-29.87-48.67-52.73-70.3-15.3-14.48-44.65-19.28-63.4-17.31h0c.54.9,1.08,1.79,1.61,2.69a137.89,137.89,0,0,0-52.36,8.14c-57,16.91-95.95,70.88-94.17,136.8-5.29,50.9,8.29,104.21,42.33,139.87a171.51,171.51,0,0,0,32.09,24.64,135.49,135.49,0,0,0,25.7,10.73,30.6,30.6,0,0,0,2.92-1.17q11.19-6.82,22.56-13.36c4.72-3,8.78-5.51,11-6.41Z" transform="translate(-149.83 -39.91)"/><path class="cls-1" d="M1381.2,1205c0,.18,0,.37,0,.57C1381.22,1205.4,1381.21,1205.21,1381.2,1205Z" transform="translate(-149.83 -39.91)"/><path class="cls-1" d="M1163.2,942.13a277.87,277.87,0,0,1,82.42,86.75h0A272.48,272.48,0,0,0,1163.2,942.13Z" transform="translate(-149.83 -39.91)"/><path class="cls-1" d="M1600.58,1245.06l-.26,0q9.42-.21,18.87.32a15.69,15.69,0,0,1-2.21-.51q-22.15-2.3-44.1-2.88,11.64.84,23.24,2.59l-.14,0c1.79,0,3.6.23,5.36.22C1601.09,1245,1600.84,1245,1600.58,1245.06Z" transform="translate(-149.83 -39.91)"/><path class="cls-1" d="M1393.45,1266.06l1.25-.33-1.07.26Z" transform="translate(-149.83 -39.91)"/><path class="cls-1" d="M1356.54,1277.29l1.13-.38c0-.1,0-.2.08-.3C1357.35,1276.84,1357,1277.07,1356.54,1277.29Z" transform="translate(-149.83 -39.91)"/><path class="cls-1" d="M1624,1245.75a211.56,211.56,0,0,1,34,5.46,198.75,198.75,0,0,0-29.85-5.45l0,0C1626.77,1245.73,1625.36,1245.76,1624,1245.75Z" transform="translate(-149.83 -39.91)"/><path class="cls-3" d="M887.37,734.08c3.17,4.29,4.64,9.08,7.7,13.46,1.11,1.6.64,1.5,3.17,5.24,1.69,1,2.51,3.47,4.63,4.86a3.46,3.46,0,0,1,1.08.84c4.88,6,11.32,15.8,16.71,24.19l9.71,14.17v0c11-8.46,18.87-20.68,27.68-31.57a57.45,57.45,0,0,1,15.08-15.22,46.18,46.18,0,0,1,18.11-8.47,38.87,38.87,0,0,1,17,.27A35.57,35.57,0,0,1,1028.57,755l.09.11c29.86,37.06,18.15,89-3.59,128.13l-.11.18v0c-2.25,4-4.61,8-7,11.71h0c3.85.21,7,1.75,10.79,2.1,10.26.93,21.08,1.1,31,3a266.7,266.7,0,0,1,103.47,41.86,272.47,272.47,0,0,1,82.44,86.77c17.27.81,35,6.24,52.49,17.31,29.93,15.9,52.54,43,66.59,74.43,5.67,8.92,9.14,20.35,11.63,30.12a186,186,0,0,1,4.56,31.47c.83,5.54.45,11.12.31,16.69,0,1.88-.07,3.76,0,5.63,0,.16,0,.33,0,.49v0c0,.19,0,.38,0,.57.18,2.33.81,6.06-.62,8-.17.32-.34.6-.5.88a214.65,214.65,0,0,1-10.51,47.49,25,25,0,0,1-11.86,14.67c0,.1-.06.2-.08.3q17.68-6,35.78-10.84l.19-.07,1.07-.26.92-.25c1.12-.3,2.22-.62,3.41-.89l.26-.07h0a582,582,0,0,1,75.81-16.59c32.41-5.45,65.18-8.26,97.8-5.89,15.12,6,30,9.49,44.11,2.88h0c3.74.11,7.6-1.1,11.2.85a197.3,197.3,0,0,1,29.85,5.46,178.1,178.1,0,0,1,43.9,17.08c4.49,2.36,8.89,4.86,13.18,7.54,1.33-126.53-.86-255.56-11-382.9-4.74-59.7-11.23-119-19.93-177.56h0c-9.77,17.73-19.94,35.43-30.57,52.93-27.13,44.7-57.28,88.18-91.52,128-31.77,36.93-67,70.69-106.7,99.3h0c-1.31,1.44-2.91,2-4,1.6s-1.15-1.7-1.13-4.21c.66-56.54,3.45-117,4.31-178.32,1-73.83-.69-148.9-12.29-219.9-7.62-46.66-19.5-91.56-37.64-133.19l-.09-.2c-2-3.2-3.15-4.95-4.23-5.32-.87-.29-1.7.32-2.87,1.77-.72.89-1.57,2.09-2.65,3.63C1314.11,574,1236.15,689.77,1153.45,800.11h0c-2.84-14.6-5.16-29.46-7.1-44.54-21.76-169.13,4.2-364.54-120.73-494.17-3.7-4.51-23.71-18-41.21-26.75-14-7-26.34-10.83-27.55-4.6a3.23,3.23,0,0,0-.06.33c-37.07,152.47-69.1,307.56-103,460A278.07,278.07,0,0,1,887.37,734.08Zm491.77,493.38a1.26,1.26,0,0,1,1.49.24A1.28,1.28,0,0,0,1379.14,1227.46Z" transform="translate(-149.83 -39.91)"/><polygon class="cls-1" points="1439.62 1205.7 1439.61 1205.7 1439.62 1205.7 1439.62 1205.7 1439.62 1205.7 1439.62 1205.7"/><path class="cls-1" d="M1616.94,1244.91h0Z" transform="translate(-149.83 -39.91)"/><path class="cls-1" d="M1399.3,1264.52c24.87-6.34,50.21-12.28,75.79-16.59a579.67,579.67,0,0,0-75.79,16.59Z" transform="translate(-149.83 -39.91)"/><path class="cls-4" d="M1856.17,1203.78c.44-235.35-37.44-484.72-149.8-692.26-56.78,100.09-108.76,210.75-191.66,295,2.85-154.34,11.7-472.42-91.42-590.32-4.42-4.47-7.92-.27-10.09,4.08-60.38,107.86-119.93,216.18-180.69,323.81-46.16-186.54-57.44-455.75-288.23-504.19-54.88,146.85-94,302.7-123.93,457.33-1.25,6.91-1.46,6.89-8,3.79C773.71,481.51,749,443.23,732,404.77c-24.51-55.74-33-115.85-37.81-176-.79-6.24-3-7-8.27-3.4-149.58,128-174.85,394.12-186.5,580-53.17-88-76.85-191.24-104.77-289.47-.55-3.49-3.07-10.84-7-5.71C173.75,890-36,1595.57,428.24,1816.89c-23.61-26.42-57.35-54.58-75.22-83.29-76.64-109.76-102.52-249.53-97.89-394.81,3-144.76,37.93-293.41,86-430.33,17.31-50.05,36.08-97.33,55.2-140.49a306,306,0,0,0,30,73.87c18.05,31.62,42,59.58,71.24,80.22a198.71,198.71,0,0,0,66.59,30.68,57.66,57.66,0,0,1,1.23-15c3.3-15.89,13.37-26.93,26.64-33.72,13.32-7,30.29-9.75,48.4-8l.71.07.89.1,1.72.2.33,0c.76.1,1.52.2,2.28.32-1.17-2.92-4.52-9-7.58-15.29-3.63-7.41-6.85-15-5.53-17.58C611.59,821.46,605,780.24,609.57,744.4c4.2-53.72,32.5-90.51,71.22-106.38,35.12-16.7,79.38-15.13,124.44,13.49a216.1,216.1,0,0,1,48.62,38.88c33.9-152.41,65.93-307.48,103-459.93a3,3,0,0,1,.06-.32c1.17-6.37,13.56-2.43,27.54,4.59,17.5,8.71,37.51,22.24,41.21,26.75,124.91,129.61,98.95,325,120.71,494.1,1.94,15.07,4.26,29.94,7.1,44.53,82.69-110.33,160.64-226.1,241.32-338.55,1.08-1.54,1.92-2.74,2.65-3.63,1.17-1.45,2-2.06,2.86-1.77,1.79.61,3.06,3.3,3.81,4.86a52,52,0,0,1,2.52,7.06c2.17,6.92,4.95,13.61,7.08,20.52,1.16,3.73,2.23,7.49,3.24,11.26,2.33,8.74,4.37,17.56,6.24,26.4,2.15,10.16,4.09,20.36,5.89,30.59q3,16.75,5.46,33.59,2.65,17.68,5,35.44,2.35,18,4.38,36.11,2,17.79,3.73,35.62,1.65,17,3,33.95,1.25,15.56,2.22,31.13c.55,9,1,18.07,1.34,27.12.27,7.31.44,14.63.41,22,0,1,0,2,0,3-1,59.47-3.47,118.93-4.31,178.3-.39,2.06.07,3.73,1.09,4.31,1.12.43,2.76-.27,4.07-1.7,39.65-28.61,74.92-62.37,106.68-99.29,34.23-39.79,64.38-83.26,91.51-128,10.62-17.51,20.8-35.2,30.57-52.93,8.69,58.52,15.18,117.84,19.92,177.53,10.12,127.32,12.31,256.34,11,382.85,22.76,14.39,38.64,36,45.48,59.53,10.19,26.79,5.22,51.69-9.55,72.82a96.61,96.61,0,0,1-12,15.46q-.46,8.26-1.35,16.35-.59,5.38-1.36,10.7a258.9,258.9,0,0,1-5.14,26q-1.29,5.08-2.79,10.08-2.25,7.5-5,14.77-1.84,4.85-3.93,9.59t-4.42,9.37q-2.34,4.63-4.93,9.16t-5.45,8.94q-2.87,4.41-6,8.7-4.7,6.43-10,12.6-1.77,2.05-3.63,4.08-3.69,4.05-7.7,8c-1.33,1.31-10,2.6-11.43,3.89-8.53,33.92-11.87,67.43-24.43,100.23a841.61,841.61,0,0,1-58.52,124.83q-11.57,20.67-24,40.63a1,1,0,0,1,.08.11l-.26.18-.07.12C1773.63,1713.94,1865,1444.51,1856.17,1203.78Z" transform="translate(-149.83 -39.91)"/><path class="cls-3" d="M1022.43,896.3l.16,0h-.16Z" transform="translate(-149.83 -39.91)"/><path class="cls-5" d="M488.63,1760.66c6.5-14.17,13.7-28,21.37-41.59l.1-.17c8.23-12.94,8.49-29.3,12.75-43.89a169,169,0,0,1-24.2,3.29c-46.74,4.87-80.46-13.37-100.5-45.68-15-22.54-23.2-53.23-21.8-91.8,1.15-67.19,21.38-129.24,52.92-186.37.78-1.43,1.58-2.86,2.38-4.28l.47-.85c39.13-69.61,94.76-132,153.52-186.58,18.29-17.29,36.82-33.9,55.15-49.83,2.26-1.86,4.16-4.39,7.35-4.88h0c5.18-10.46,10.4-20.72,15.54-30.82,7-13.71,15.35-27.55,24.16-37.19,1.76-2.39,6.47-5.19,8.3-7.54-7.84-.88-25.34-.09-35.82-1.37-39.66-4-78.24-17-91.53-55.81-.38-.84-.75-1.69-1.11-2.56a81.13,81.13,0,0,1-3.55-20,198.71,198.71,0,0,1-66.59-30.68c-29.28-20.64-53.19-48.6-71.24-80.22a306,306,0,0,1-30-73.87c-19.12,43.16-40.7,91.12-59.87,140.49-51,131.25-97,282-91.72,430.33,5.15,145.27,31.67,285,108.31,394.81a450.31,450.31,0,0,0,108.24,109.21c1.37-6.92,3-13.78,4.83-20.58C471.39,1801,479.34,1780.54,488.63,1760.66Z" transform="translate(-149.83 -39.91)"/><path class="cls-6" d="M567.68,972.74c.36.87.81,1.69,1.11,2.56,13.46,40.54,47.7,53.3,91.53,58,9.69,1,15.09,1.52,27.36.18.79-.09,7.13-.63,7.93-.64a37.26,37.26,0,0,1,3.16-2.13,555.58,555.58,0,0,0,55.36-6.2c32.12-5.7,120.39-26.73,152.55-36.67,51.71-18.34,43.76-28.82,74.87-53.7a248.5,248.5,0,0,0,27.27-27.4,38.93,38.93,0,0,1,6-6.87c3.43-3,7.45-4.62,12.41-3.16-1.33-2-6.39-1.39-9.27-1.56h0q3.66-5.62,7-11.71v0l.1-.18c21.75-39.17,33.45-91,3.6-128.11l-.09-.11c-5.82-6.7-12.61-11.23-20.36-13.17a38.73,38.73,0,0,0-17-.26,46.1,46.1,0,0,0-18.11,8.46c-16.49,12.41-26.08,33.93-42.75,46.78h0c-20.36,16.89-40.25,32.67-60.32,46.61-31.5,22-62.61,39-96.75,48.87a244.71,244.71,0,0,1-91.15,9,344.57,344.57,0,0,1-35.88-4.55h0c-.76-.12-1.52-.22-2.28-.32l-.33,0-1.72-.2-.89-.1-.71-.07c-18.11-1.74-35.08,1-48.4,8-13.51,7.07-23.27,18.43-26.64,33.72a57.66,57.66,0,0,0-1.23,15A81.13,81.13,0,0,0,567.68,972.74Z" transform="translate(-149.83 -39.91)"/><path class="cls-3" d="M1559.7,1842.16a14,14,0,0,0,1.08-1q12.67-19.14,24.12-39a861,861,0,0,0,59.87-127.71A1059.38,1059.38,0,0,0,1677.29,1572h0c-36.6,29.74-79,43.06-123.66,47.13-54,5.4-111.26-2.6-164.65-13.22-14.41-2.57-28.58-5.19-42.37-7.64-7.47-.11-9.07-1.78-10.28-3.63l-.42-.09c0,.34,0,.67-.06,1a5,5,0,0,1-4.32,4.87c-2.35.62-5.34.44-8.23.22-1.75,0-3.5-.12-5.24-.26a13,13,0,0,0-1.85.15c.75,9.51-2,19.78,1.51,28.8,8.92,18.32,17.94,36.82,26.68,55.53l0,.07c.6,1.28,1.19,2.55,1.78,3.83.18.37.35.74.52,1.11l1.29,2.79.93,2c.29.63.58,1.26.86,1.89.43.92.85,1.85,1.27,2.77l.51,1.13c.53,1.17,1.07,2.34,1.6,3.52,0,.1.09.2.14.31,20.18,44.77,38.06,90.92,48.21,138.38.2.91.39,1.82.58,2.73.08.38.16.75.23,1.13a399.87,399.87,0,0,1,7.91,60.43,9,9,0,0,1-.16,1.79c.11,2.69,2.68,1.3,2.72,4,52.33-18.45,99.72-36.36,145-68.74.09-.07.65-.73.74-.79A14.28,14.28,0,0,1,1559.7,1842.16Z" transform="translate(-149.83 -39.91)"/><path class="cls-2" d="M1062.4,1297c-.07-1.46-.13-2.93-.23-4.39l0-.44a226.21,226.21,0,0,0-18.69-76.28,220.07,220.07,0,0,0-23.42-39.49,171.66,171.66,0,0,0-43.64-39.73A142.79,142.79,0,0,0,949,1123.1c-38.74-12.91-80.33-6.26-115.46,15.58-33.31,21.84-59.95,57.06-73.73,96.53a213.78,213.78,0,0,0-10.25,57.21h0c-8.31,88.19,39.4,163.84,102,193.33,58.79,27.7,130.72,14.66,181.67-67a205.93,205.93,0,0,0,11.85-23.5l.07-.16c.73-1.73,1.44-3.46,2.12-5.21.18-.43.35-.86.52-1.29.49-1.27,1-2.55,1.43-3.83A229.42,229.42,0,0,0,1062.4,1297Zm-88.74,84.65C913.94,1442,853.87,1408,828,1351.51c-16.84-36.77-19.22-83.06,2.37-119.1.08-.12.15-.25.23-.38a1.74,1.74,0,0,0,.11-.18,102.27,102.27,0,0,1,15.15-19.27l.06-.06c12.8-14.15,28-23.2,43.81-27.28,23.2-7,44.89-2.16,63,10.24a97,97,0,0,1,27.1,25.91c15.46,21.79,23.59,48.65,23.83,75.65C1004.71,1327.15,995.89,1357.81,973.66,1381.64Z" transform="translate(-149.83 -39.91)"/><path class="cls-7" d="M1334,1593.72a341.89,341.89,0,0,1-63.2-18.11,247.16,247.16,0,0,1-60.72-34.4c-2.86-2.26-3.79-3.51-.09-6l.06,0c4.61-4,11.65-9.12,19-14.76,9.16-7.34,19.17-15.93,25.28-23.24,3.07-4.05,5.15-8.08,5.66-12l-.16-.17c-4.06-4.46-8.33-4.18-12.35-2-3.75,2.06-7.28,5.79-10.17,8.86l-1,1c-20.16,19.25-41.93,35.81-66.52,47.58a190.8,190.8,0,0,1-35.41,12.88,7.41,7.41,0,0,0-2.23.94,5.21,5.21,0,0,0-1,.87,6.61,6.61,0,0,0-.6.82l-.13.21c-.9,1.65-1,3.71-1.19,5.67l0,0c.92,4.2,4.44,6,9.39,6.22,8.69.33,21.82-4.13,33-9.12,9.21-4.12,17.17-8.61,20.37-11.06,2-1.33,3.4-2.53,5.94-.24l0,0a371,371,0,0,0,35.71,26.7,212.47,212.47,0,0,0,48.37,21.51c13.26,2.7,26.47,6.5,39.92,7.55,1.71.13,3.42.22,5.13.26,2.16,0,4.33,0,6.51-.13a6.85,6.85,0,0,0,1.53-.09,4.89,4.89,0,0,0,3.54-7.33C1338,1595.26,1336.71,1594.32,1334,1593.72Z" transform="translate(-149.83 -39.91)"/><path class="cls-4" d="M1600.78,1248.15l.27-.06c.25-.06.51-.11.76-.18-1.76,0-3.57-.17-5.37-.23-1.2.17-2.44.08-3.66.16a11,11,0,0,0-2.87.8h0A40.31,40.31,0,0,0,1600.78,1248.15Z" transform="translate(-149.83 -39.91)"/><path class="cls-6" d="M659.17,840.43q3-2.49,6.12-4.9l1.23-1c1.66-1.28,3.32-2.55,5-3.8.84-.64,1.69-1.26,2.53-1.88,1.15-.85,2.3-1.68,3.45-2.51q2.09-1.5,4.2-3l1.39-1a385,385,0,0,1,65-36.1,403,403,0,0,1,133.53-32.69c4.53-.22,9-.12,13.49-.75,1.07,0,2.14-.09,3.22-.12q-5.25-9.76-10.87-18.69a278.21,278.21,0,0,0-33.58-43.7c-15.46-16.32-32.35-28.44-48.62-38.88C762,623.73,719.7,620.82,682.5,635.36c-39.77,15.54-69.77,48.92-75.93,109-3.53,34.48,2.55,76.31,26.65,119.47q12.35-12.33,25.69-23.23Z" transform="translate(-149.83 -39.91)"/><path class="cls-7" d="M652.31,897.19a294.24,294.24,0,0,0,29.9,4.1,244.71,244.71,0,0,0,91.15-9c34.23-10.09,65.7-27.28,96.75-48.87,20.07-13.94,40-29.72,60.32-46.61h0c-1.92-2.1-5.53-7.67-9.71-14.18-5.39-8.39-11.72-18.32-16.6-24.33-3-3.68-4.72-5.51-6.31-5.53l-.64,0c-5.57-.07-10.45.9-15.77.89h0a405.72,405.72,0,0,0-133.33,32.63,385,385,0,0,0-65,36.1l-1.39,1q-2.12,1.47-4.2,3c-1.15.83-2.3,1.66-3.45,2.51-.84.62-1.69,1.24-2.53,1.88-1.68,1.25-3.34,2.52-5,3.8l-1.23,1q-3.09,2.41-6.12,4.9l-.26.21q-13.36,11-25.69,23.23h0c-1.32,2.6,1.9,10.17,5.53,17.58,3.07,6.25,6.43,12.39,7.58,15.29C648.33,896.88,650.33,897,652.31,897.19Z" transform="translate(-149.83 -39.91)"/><path class="cls-4" d="M1380.12,1214.45c.16-.27.32-.56.5-.88,1.42-1.91.8-5.65.62-8,0-.2,0-.39,0-.57v0c0-.17,0-.33,0-.49-.06-1.88,0-3.75,0-5.63.15-5.57.53-11.15-.31-16.69A199.8,199.8,0,0,1,1380.12,1214.45Z" transform="translate(-149.83 -39.91)"/><path class="cls-4" d="M1624,1245.75c1.41,0,2.82,0,4.23,0l0,0c-3.6-2-7.45-.74-11.2-.85h0a15.69,15.69,0,0,0,2.21.51A29.07,29.07,0,0,0,1624,1245.75Z" transform="translate(-149.83 -39.91)"/><path class="cls-7" d="M952.72,1195.48c-18.11-12.4-39.8-17.27-63-10.24-14.2,4.31-29,13.06-43.81,27.28l-.06.06a102.27,102.27,0,0,0-15.15,19.27,1.74,1.74,0,0,1-.11.18c-.08.13-.15.26-.23.38-21.58,36-19.21,82.33-2.37,119.1,25.88,56.52,86,90.52,145.67,30.13,22.23-23.83,31.05-54.49,30-84.6C1002.2,1255.84,982.22,1215.68,952.72,1195.48Z" transform="translate(-149.83 -39.91)"/><path class="cls-7" d="M1369.45,1261.85c3.61-7.3,5.07-15.55,6.81-23.73a245.14,245.14,0,0,0,5.26-40.56c1.11-26.32-2.43-54.31-16.83-77a44.15,44.15,0,0,0-3-4.14c-26.86-25.65-52.7-33.21-75.58-28.6-26,5.24-48.11,26.15-63.64,54.13-16.18,29.16-25.16,66-23.76,100.71s13.18,67.25,38.49,88l.11.09,1-.4c21.28-8.28,43.27-19.52,62.89-31.11,19.35-11.43,45.78-10.24,62.14-27C1366.17,1269.47,1367.81,1265.17,1369.45,1261.85Z" transform="translate(-149.83 -39.91)"/><path class="cls-8" d="M1412.24,1905c-.06-1.61-.11-3.22-.21-4.84q-.39-6.53-1-13c-.82-8.65-2-17.26-3.36-25.83-.94-5.72-2-11.43-3.17-17.11-.08-.37-.15-.74-.23-1.1-.19-.9-.37-1.79-.56-2.68-10-46.53-27.42-91.5-47.13-135.26,0-.1-.1-.2-.14-.3l-1.56-3.44c-.16-.37-.33-.73-.5-1.1-.41-.91-.82-1.81-1.24-2.71l-.84-1.85c-.3-.66-.61-1.31-.91-2l-1.26-2.73c-.17-.36-.34-.72-.5-1.09-.58-1.24-1.16-2.49-1.75-3.74l0-.07c-8.54-18.29-17.36-36.37-26.08-54.27-3.44-8.82-.73-18.86-1.47-28.15a210.07,210.07,0,0,1-38.12-7.7,212.47,212.47,0,0,1-48.37-21.51,225.61,225.61,0,0,1-35.71-26.7l0,0c-2.54-2.29-4-1.09-5.94.24-3.2,2.45-11.16,6.94-20.37,11.06-11.23,5-24.34,9.52-33,9.12-5-.22-8.47-2-9.39-6.22l0,0c.19-2,.29-4,1.19-5.67l.13-.21a6.61,6.61,0,0,1,.6-.82,5.21,5.21,0,0,1,1-.87,7.41,7.41,0,0,1,2.23-.94,190.8,190.8,0,0,0,35.41-12.88c24.59-11.77,46.36-28.33,66.52-47.58l1-1c2.89-3.07,6.42-6.8,10.17-8.86,4-2.21,8.3-2.49,12.35,2l.16.17c-.51,3.87-2.59,7.9-5.66,12-6,8-15.91,16.06-25.28,23.24-7.35,5.64-14.39,10.72-19,14.76l-.06,0c-3.7,2.48-2.77,3.73.09,6a247.16,247.16,0,0,0,60.72,34.4,341.89,341.89,0,0,0,63.2,18.11c2.68.6,3.93,1.54,4.76,2.56a17.53,17.53,0,0,1,1.15,1.7c1.18,1.81,2.75,3.44,10.06,3.54,13.48,2.4,27.32,5,41.4,7.47,52.46,9.33,108.24,17.74,160.95,12.93,43.59-4,85.09-17,120.87-46.07,1.38-1.29,2.74-2.58,4.07-3.89q4-3.92,7.7-8,1.86-2,3.63-4.08,5.34-6.15,10-12.6,3.13-4.29,6-8.7t5.45-8.94q2.6-4.52,4.93-9.16t4.42-9.37q2.08-4.76,3.93-9.59,2.78-7.27,5-14.77,1.5-5,2.79-10.08a258.9,258.9,0,0,0,5.14-26q.78-5.31,1.36-10.7.88-8.09,1.35-16.35c-54,51-116.9,61.25-170.38,48.91-64.31-14.85-114.9-62.39-119.63-111.17-2.71-27.87,9.58-56.14,42.82-78.94,22.41-15.36,54.32-28.25,97.61-36.84.46.57,4.92,1.24,5.91,1.18,1.21-.08,5.79-1.42,7-1.59,0,0-6.29-.56-6.24-.57q-11.61-1.77-23.24-2.59c-32.62-2.37-65.39.44-97.79,5.89-25.58,4.31-50.92,10.25-75.8,16.6l-.25.06-3.42.9-.92.24-1.25.33q-18.09,4.85-35.78,10.85l-1.13.38c-5.8,3.15-12.62,5-19.11,6.85q-13.48,5.07-26.74,10.73c-25.35,11.94-56.81,29.51-72.31,35.54q-6.08,3.36-12.08,6.81-11.37,6.52-22.56,13.36l-2.27,1.38-.65-.21a135.49,135.49,0,0,1-25.7-10.73,130.6,130.6,0,0,1-32.09-24.64c-34-35.66-47.62-89-42.33-139.87,6.21-59.78,38.46-116.22,94.17-136.8a137.89,137.89,0,0,1,52.36-8.14c-.53-.9-1.07-1.79-1.61-2.69a277.87,277.87,0,0,0-82.42-86.75,266.72,266.72,0,0,0-103.46-41.86,257.69,257.69,0,0,0-32.52-3.54,12.77,12.77,0,0,0-4.63-.45l-.16,0a14,14,0,0,0-7.62,3.59,38.93,38.93,0,0,0-6,6.87,248.5,248.5,0,0,1-27.27,27.4c-37.11,32-82.53,53-130,67.65-32.15,9.94-65.26,17-97.38,22.72a555.58,555.58,0,0,1-55.36,6.2,37.26,37.26,0,0,0-3.16,2.13,56.1,56.1,0,0,0-7.77,7.16c-8.81,9.64-17,23.56-24.16,37.19-6,11.38-11.24,22.55-15.53,30.83,24.41,78.6,40.29,161.84,39.73,244.47-.37,55.38-8.11,110.48-25.62,163.74-6.53,18.39-13.56,37.26-21.86,55.28-14,30.41-31.66,58.41-56.73,77.62a122.07,122.07,0,0,1-44,21.51,134.75,134.75,0,0,1-16.51,3.23c-.12.37-.21.74-.32,1.12-4.26,14.59-4.52,31-12.75,43.89l-.1.17c-7.67,13.55-14.87,27.42-21.37,41.59a391.13,391.13,0,0,0-22.54,61.57c-1.83,6.8-3.46,13.66-4.83,20.58l-.53-.26q11.79,6.81,24,12.93,12.76,6.45,25.86,12.23,13.66,6.07,27.6,11.52,14.51,5.7,29.22,10.81,15.27,5.32,30.7,10.09,15.95,4.93,32,9.35,16.56,4.56,33.24,8.63,17.1,4.17,34.31,7.88,17.57,3.79,35.23,7.14,18,3.4,36,6.38,18.3,3,36.68,5.63,18.57,2.63,37.2,4.86t37.57,4.09q18.9,1.85,37.82,3.3t37.93,2.53q18.95,1.07,37.9,1.73t37.72.94q18.72.27,37.43.13,18.48-.13,37-.67,18.21-.54,36.4-1.49,17.87-.94,35.69-2.32,17.43-1.35,34.83-3.14,16.93-1.75,33.84-4,16.38-2.16,32.71-4.82,15.77-2.58,31.44-5.67,15.07-3,30-6.52,14.33-3.39,28.51-7.38,13.5-3.81,26.82-8.24c5.5-1.84,11-3.79,16.39-5.8A71.24,71.24,0,0,1,1412.24,1905Zm-363-520.24c-.47,1.28-.94,2.56-1.43,3.83-.17.43-.34.86-.52,1.29-.68,1.75-1.39,3.48-2.12,5.21l-.07.16a205.93,205.93,0,0,1-11.85,23.5c-51,81.68-122.88,94.72-181.67,67-62.59-29.48-110.3-105.14-102-193.33h0a213.78,213.78,0,0,1,10.25-57.21c14.08-42.93,41.13-76.26,73.73-96.53,35.13-21.84,76.72-28.49,115.46-15.58,25.87,8.62,50.47,25.94,71,53.29a220.07,220.07,0,0,1,23.42,39.49,226.21,226.21,0,0,1,18.69,76.28l0,.44c.1,1.46.16,2.93.23,4.39A225.46,225.46,0,0,1,1049.19,1384.75Z" transform="translate(-149.83 -39.91)"/><path class="cls-7" d="M1712.3,1272.8c-3-2-6.16-3.82-9.32-5.58a181.1,181.1,0,0,0-44.4-17.27,211.92,211.92,0,0,0-34.44-5.52,30.94,30.94,0,0,1-4.81-.33q-4.49-.25-9-.35c-5.2-.09-10.33.23-15.52.49-2.78.13-5.57.2-8.34.53a70.55,70.55,0,0,0-8.16,1.77c-1.25.31-2.49.62-3.75.9q-7.77,1.83-15.46,4-7.22,2-14.34,4.37-6.69,2.19-13.26,4.73c-4.1,1.58-8.17,3.27-12.18,5.07q-5.65,2.54-11.15,5.4-5.15,2.68-10.13,5.69c-2.56,1.56-5.09,3.18-7.56,4.88-28.62,18.85-46.21,47-43.32,79.85,4.59,52,58.48,92.18,103.71,107.17a186.66,186.66,0,0,0,155-17.48c42.43-25.61,74.52-61.4,56.36-116C1755.32,1314.06,1742.63,1291.58,1712.3,1272.8Z" transform="translate(-149.83 -39.91)"/><path class="cls-7" d="M648.15,1108c-3.86.12-6.81,4.5-9,6.31-5.17,4.25-11.25,9.79-16.49,14.51-12.54,11.31-24.27,22-35.93,32.86-58.82,54.66-116.27,120-155.61,189.42l-.68,1.23c-.81,1.42-1.55,2.8-2.33,4.23-31.54,57.13-50.59,119.45-51.74,186.65-1.4,38.57,6.78,69.25,21.8,91.8,19.54,29.32,53.14,45.67,88.08,45.72a179.66,179.66,0,0,0,58.8-9.47,157.9,157.9,0,0,0,27.37-12.49c2.72-1.57,6-2.83,8.48-4.64,3.09-2.21,6.11-5.53,8.83-8.17,6.2-6,12.69-12,17.86-18.43,13.36-16.51,22.94-34.84,32.83-53.62,8.3-18,15.33-36.89,21.86-55.28,17.51-53.26,25.25-108.36,25.62-163.73C687.53,1270.63,671,1182.58,648.15,1108Z" transform="translate(-149.83 -39.91)"/></svg>