<?xml version="1.0" encoding="UTF-8" standalone="no"?>
<svg
   aria-hidden="true"
   focusable="false"
   height="108"
   preserveAspectRatio="xMidYMid"
   viewBox="10 0 108 138.24"
   version="1.1"
   id="svg39"
   sodipodi:docname="vanilla-extract.svg"
   width="108"
   inkscape:export-filename="vanilla-extract.png"
   inkscape:export-xdpi="455.11111"
   inkscape:export-ydpi="455.11111"
   inkscape:version="1.3 (0e150ed6c4, 2023-07-21)"
   xmlns:inkscape="http://www.inkscape.org/namespaces/inkscape"
   xmlns:sodipodi="http://sodipodi.sourceforge.net/DTD/sodipodi-0.dtd"
   xmlns="http://www.w3.org/2000/svg"
   xmlns:svg="http://www.w3.org/2000/svg">
  <defs
     id="defs39" />
  <sodipodi:namedview
     id="namedview39"
     pagecolor="#ffffff"
     bordercolor="#666666"
     borderopacity="1.0"
     inkscape:showpageshadow="2"
     inkscape:pageopacity="0.0"
     inkscape:pagecheckerboard="0"
     inkscape:deskcolor="#d1d1d1"
     inkscape:zoom="3.8472222"
     inkscape:cx="68.231047"
     inkscape:cy="65.371841"
     inkscape:window-width="1920"
     inkscape:window-height="1017"
     inkscape:window-x="-8"
     inkscape:window-y="-8"
     inkscape:window-maximized="1"
     inkscape:current-layer="svg39" />
  <radialGradient
     id="IconifyId-178a58e6776-62d0d4-24"
     cx="63.667"
     cy="67.667"
     r="26.684999"
     gradientTransform="matrix(0,1,-1.5658,0,169.62,4)"
     gradientUnits="userSpaceOnUse">
    <stop
       stop-color="#BE5D23"
       offset="0"
       id="stop1" />
    <stop
       stop-color="#B65B25"
       offset=".158"
       id="stop2" />
    <stop
       stop-color="#9F552A"
       offset=".407"
       id="stop3" />
    <stop
       stop-color="#7A4C33"
       offset=".715"
       id="stop4" />
    <stop
       stop-color="#52423C"
       offset=".999"
       id="stop5" />
  </radialGradient>
  <linearGradient
     id="IconifyId-178a58e6776-62d0d4-25"
     x1="22.114"
     x2="102.08"
     y1="61.979"
     y2="61.979"
     gradientUnits="userSpaceOnUse">
    <stop
       stop-color="#FF85AE"
       offset="0"
       id="stop6" />
    <stop
       stop-color="#FF7DA9"
       offset=".317"
       id="stop7" />
    <stop
       stop-color="#FF669A"
       offset=".816"
       id="stop8" />
    <stop
       stop-color="#FF5C93"
       offset="1"
       id="stop9" />
  </linearGradient>
  <linearGradient
     id="IconifyId-178a58e6776-62d0d4-26"
     x1="21.117001"
     x2="99.384003"
     y1="47.691002"
     y2="47.691002"
     gradientUnits="userSpaceOnUse">
    <stop
       stop-color="#FFB0CB"
       offset=".003"
       id="stop10" />
    <stop
       stop-color="#F383A9"
       offset=".792"
       id="stop11" />
    <stop
       stop-color="#F0769F"
       offset="1"
       id="stop12" />
  </linearGradient>
  <linearGradient
     id="IconifyId-178a58e6776-62d0d4-27"
     x1="55.085999"
     x2="87.012001"
     y1="24.139999"
     y2="24.139999"
     gradientUnits="userSpaceOnUse">
    <stop
       stop-color="#F697B7"
       offset="0"
       id="stop13" />
    <stop
       stop-color="#F78FB2"
       offset=".335"
       id="stop14" />
    <stop
       stop-color="#F878A3"
       offset=".862"
       id="stop15" />
    <stop
       stop-color="#F9719F"
       offset="1"
       id="stop16" />
  </linearGradient>
  <linearGradient
     id="IconifyId-178a58e6776-62d0d4-28"
     x1="23.961"
     x2="95.222"
     y1="40.521999"
     y2="40.521999"
     gradientUnits="userSpaceOnUse">
    <stop
       stop-color="#F78FB2"
       offset="0"
       id="stop17" />
    <stop
       stop-color="#F887AD"
       offset=".272"
       id="stop18" />
    <stop
       stop-color="#FC709F"
       offset=".703"
       id="stop19" />
    <stop
       stop-color="#FF5C93"
       offset="1"
       id="stop20" />
  </linearGradient>
  <linearGradient
     id="IconifyId-178a58e6776-62d0d4-29"
     x1="64"
     x2="64"
     y1="83"
     y2="119.62"
     gradientUnits="userSpaceOnUse">
    <stop
       stop-color="#4FE8FF"
       offset="0"
       id="stop21" />
    <stop
       stop-color="#4BDDF3"
       offset=".497"
       id="stop22" />
    <stop
       stop-color="#45CEE3"
       offset="1"
       id="stop23" />
  </linearGradient>
  <g
     id="g39"
     transform="matrix(0.86383985,0,0,0.86383985,8.7228206,13.200664)">
    <path
       d="m 109.94,69.11 c -0.23,0.11 -0.46,0.25 -0.69,0.39 -0.01,-1.46 -0.78,-2.17 -1.32,-2.94 -2.6,-3.72 -7.62,-2.31 -9.1,1.11 -0.2,0.47 3.06,4.72 2.92,5.18 -2.16,0.97 -4.24,3.2 -4.66,5.15 0.43,-2.01 -1.07,-2.95 -3.34,-2.2 -2.27,0.75 -4.42,2.91 -4.73,4.91 0.32,-2 -1.3,-3.09 -3.62,-2.53 -2.32,0.56 -4.39,2.55 -4.6,4.54 0.21,-1.99 -1.53,-3.24 -3.87,-2.89 -2.34,0.35 -4.34,2.17 -4.44,4.15 0.09,-1.99 -1.75,-3.4 -4.11,-3.27 -2.36,0.13 -4.27,1.77 -4.25,3.76 -0.02,-1.98 -1.96,-3.58 -4.32,-3.66 -2.36,-0.08 -4.18,1.37 -4.05,3.36 -0.13,-1.99 -2.17,-3.76 -4.51,-4.06 -2.35,-0.3 -4.06,0.98 -3.82,2.97 -0.24,-1.99 -2.36,-3.94 -4.68,-4.45 -2.32,-0.51 -3.92,0.61 -3.57,2.61 -0.35,-1.99 -2.54,-4.11 -4.83,-4.82 -2.29,-0.7 -3.77,0.27 -3.3,2.27 -0.46,-2 -5.51,-10.45 -6.06,-11.7 -1.48,-3.42 -4.33,-4.5 -6.77,-2.28 -1,0.91 -1.62,2.56 -1.11,4.99 -1.59,-0.44 -2.38,0.33 -1.8,2.02 3.17,9.26 6.3,18.68 8.9,28.15 1.11,4.05 2.26,9.3 5.52,12.32 2.34,2.16 5.26,3.66 8.07,4.87 8.39,3.6 17.7,4.7 26.37,4.76 9.28,0.06 21.08,-2.18 29.29,-6.85 3.11,-1.76 6.07,-3.81 7.46,-7.26 2.29,-5.72 3.95,-11.72 5.7,-17.46 1.99,-6.52 3.49,-13.44 6.07,-19.53 0.64,-2 -0.58,-2.69 -2.75,-1.61 z"
       fill="#48a2ad"
       id="path1" />
    <ellipse
       cx="63.860001"
       cy="77.309998"
       rx="45.009998"
       ry="18.09"
       fill="url(#IconifyId-178a58e6776-62d0d4-24)"
       id="ellipse5"
       style="fill:url(#IconifyId-178a58e6776-62d0d4-24)" />
    <path
       d="m 102.08,51.48 c -0.84,-0.85 -1.87,-1.65 -3.1,-2.35 0,0 -28.68,9.33 -48.64,8.32 -19.96,-1.01 -17.02,-3.19 -27.16,3.27 0,0 -2.77,3.96 0.61,6.37 4.42,3.15 10,5.75 16.12,7.73 0.74,-0.54 1.48,-0.88 2.11,-0.88 19.03,-6.61 56.05,1.77 60.06,-22.46 z"
       fill="url(#IconifyId-178a58e6776-62d0d4-25)"
       id="path9"
       style="fill:url(#IconifyId-178a58e6776-62d0d4-25)" />
    <path
       d="m 102.08,51.48 c -4.01,24.23 -41.03,15.85 -60.05,22.46 -0.63,0 -1.37,0.33 -2.11,0.88 15.35,4.96 34.13,5.97 46.67,1.8 15.75,-5.22 22.86,-17.67 15.49,-25.14 z"
       fill="#eb5e8e"
       id="path10" />
    <path
       d="m 93.95,33.63 c 0,0 5.43,3.22 5.43,11.55 0,8.33 -6.93,19.13 -37.68,16.04 -30.48,-3.07 -38.35,-0.47 -38.35,-0.47 0,0 -9.34,-12.68 10.18,-12.61 17.47,0.06 43.45,2.12 49.57,-1.76 9.11,-5.8 9.45,-5.96 10.85,-12.75 z"
       fill="url(#IconifyId-178a58e6776-62d0d4-26)"
       id="path12"
       style="fill:url(#IconifyId-178a58e6776-62d0d4-26)" />
    <path
       d="m 58.45,27.44 c 9.46,-5.91 8.95,-14.5 4.44,-21.81 -0.49,0.28 -0.78,0.87 -0.53,1.48 0.99,2.38 1.87,5.74 0.27,8 -2.71,3.82 -7.73,4.79 -15.94,9.37 -7.83,4.36 -10.84,8.52 -11.39,13.74 -0.05,0.49 0.23,0.96 0.69,1.19 0.88,0.44 2.56,1.16 5.1,1.82 2.76,-6.83 11.07,-10.65 17.36,-13.79 z"
       fill="#f77ca5"
       id="path13" />
    <path
       d="M 79.09,16.45 C 74.86,11.89 69.86,8.17 64.07,5.57 63.65,5.38 63.22,5.44 62.88,5.63 c 4.51,7.3 5.02,15.89 -4.44,21.81 -6.28,3.14 -14.59,6.96 -17.36,13.79 2.76,0.72 6.54,1.37 11.46,1.52 12.06,0.36 28.31,-0.3 31.07,-5.03 2.77,-4.72 0.46,-15.9 -4.52,-21.27 z"
       fill="url(#IconifyId-178a58e6776-62d0d4-27)"
       id="path16"
       style="fill:url(#IconifyId-178a58e6776-62d0d4-27)" />
    <path
       d="m 93.1,32 c 0.23,-0.58 0.4,-1.18 0.52,-1.78 C 90.38,25.26 82.8,23.74 82.8,23.74 91.02,41.24 48.24,37.43 36.12,38.15 30.96,38.46 28,40.73 26.29,43.25 28.82,41.93 31.78,41.2 34.75,40.21 53.89,35.65 84.89,54.8 93.1,32 Z"
       fill="#f79ebc"
       id="path17" />
    <path
       d="m 94.82,32.96 a 8.561,8.561 0 0 0 -1.2,-2.74 c -0.12,0.61 -0.29,1.2 -0.52,1.78 -8.21,22.8 -39.21,3.65 -58.36,8.21 -2.96,0.99 -5.93,1.71 -8.46,3.04 -2.31,3.39 -2.32,7.21 -2.32,7.21 12.47,-3.78 21.67,0.02 45.64,0.37 23.97,0.33 26.94,-10.71 25.22,-17.87 z"
       fill="url(#IconifyId-178a58e6776-62d0d4-28)"
       id="path20"
       style="fill:url(#IconifyId-178a58e6776-62d0d4-28)" />
    <path
       d="m 109.96,76.04 c -2.19,1.02 -4.48,3.36 -5.05,5.31 0.58,-1.95 -0.77,-2.78 -3.01,-1.95 -2.25,0.83 -4.49,2.98 -4.96,4.89 0.47,-1.91 -1.01,-2.86 -3.3,-2.22 -2.29,0.64 -4.48,2.61 -4.83,4.49 0.36,-1.88 -1.24,-2.96 -3.56,-2.51 -2.32,0.45 -4.44,2.25 -4.68,4.11 0.25,-1.86 -1.47,-3.08 -3.81,-2.82 -2.35,0.26 -4.38,1.9 -4.51,3.74 0.13,-1.84 -1.68,-3.21 -4.04,-3.14 -2.36,0.07 -4.3,1.55 -4.32,3.39 0.02,-1.84 -1.89,-3.36 -4.25,-3.48 -2.35,-0.12 -4.2,1.21 -4.1,3.06 -0.09,-1.85 -2.09,-3.52 -4.44,-3.83 -2.34,-0.31 -4.08,0.88 -3.87,2.74 -0.21,-1.86 -2.28,-3.71 -4.6,-4.2 -2.32,-0.49 -3.93,0.55 -3.62,2.44 -0.32,-1.89 -2.46,-3.9 -4.74,-4.59 -2.28,-0.69 -3.77,0.24 -3.34,2.16 -0.43,-1.92 -2.63,-4.12 -4.86,-4.99 -2.23,-0.87 -3.59,-0.07 -3.05,1.89 -0.54,-1.96 -2.78,-4.35 -4.95,-5.41 -2.17,-1.06 -3.39,-0.37 -2.75,1.64 2.58,6.06 4.09,12.85 6.08,19.13 1.76,5.53 3.42,11.26 5.72,16.59 1.39,3.22 4.33,4.92 7.47,6.34 8.99,4.05 19.49,5.1 29.23,5.19 8.8,0.09 17.92,-0.68 26.31,-3.47 2.82,-0.94 5.74,-2.11 8.08,-3.98 3.27,-2.61 4.42,-7.6 5.54,-11.46 2.67,-9.24 5.82,-18.25 8.92,-27.35 0.68,-2.02 -0.52,-2.73 -2.71,-1.71 z"
       fill="url(#IconifyId-178a58e6776-62d0d4-29)"
       id="path23"
       style="fill:url(#IconifyId-178a58e6776-62d0d4-29)" />
    <circle
       cx="36.75"
       cy="49.25"
       r="2"
       fill="#b8eb96"
       id="circle23" />
    <circle
       cx="49.75"
       cy="56.5"
       r="2"
       fill="#ebd3db"
       id="circle24" />
    <circle
       cx="37.25"
       cy="64"
       r="2"
       fill="#eb5e8e"
       id="circle25" />
    <circle
       cx="52"
       cy="34.5"
       r="2"
       fill="#3dc2eb"
       id="circle26" />
    <circle
       cx="62.75"
       cy="48.25"
       r="2"
       fill="#ffa600"
       id="circle27" />
    <circle
       cx="95.5"
       cy="63.25"
       r="2"
       fill="#79eb2d"
       id="circle28" />
    <circle
       cx="71"
       cy="27.25"
       r="2"
       fill="#fff000"
       id="circle29" />
    <circle
       cx="81.5"
       cy="50.5"
       r="2"
       fill="#8052ff"
       id="circle30" />
    <circle
       cx="86.5"
       cy="35.5"
       r="2"
       fill="#5eebb3"
       id="circle31" />
    <circle
       cx="72.25"
       cy="65.75"
       r="2"
       fill="#a45eeb"
       id="circle32" />
    <g
       fill="none"
       stroke="#49a5b0"
       stroke-linecap="round"
       stroke-linejoin="round"
       stroke-miterlimit="10"
       stroke-width="3"
       id="g33">
      <path
         opacity="0.56"
         d="m 28.5,85.5 6,25.75"
         id="path32" />
      <path
         opacity="0.56"
         d="m 99.5,85.58 -6,25.92"
         id="path33" />
    </g>
    <g
       fill="none"
       stroke="#49a5b0"
       stroke-linecap="round"
       stroke-linejoin="round"
       stroke-miterlimit="10"
       stroke-width="3"
       id="g35">
      <path
         opacity="0.56"
         d="m 40.96,89.58 3.5,25.5"
         id="path34" />
      <path
         opacity="0.56"
         d="m 87.04,88.67 -3.5,25.5"
         id="path35" />
    </g>
    <g
       fill="none"
       stroke="#49a5b0"
       stroke-linecap="round"
       stroke-linejoin="round"
       stroke-miterlimit="10"
       stroke-width="3"
       id="g37">
      <path
         opacity="0.56"
         d="m 51.83,91 2.34,26.17"
         id="path36" />
      <path
         opacity="0.56"
         d="m 76.17,90.08 -2.34,26.17"
         id="path37" />
    </g>
    <path
       fill="none"
       opacity="0.56"
       stroke="#49a5b0"
       stroke-linecap="round"
       stroke-linejoin="round"
       stroke-miterlimit="10"
       stroke-width="3"
       d="m 64.17,92.67 0.33,25.16"
       id="path38" />
    <path
       d="m 66.35,10.09 c 3.86,2.2 7.4,5.01 10.54,8.41 1.38,1.49 2.65,3.74 3.55,6.34 0.33,0.96 1.13,1.68 2.11,1.92 1.04,0.26 6.35,1.72 8.56,5.1 0.38,0.59 0.64,1.18 0.79,1.8 0.09,0.39 0.17,0.82 0.23,1.26 0.09,0.7 0.43,1.35 0.95,1.83 1.23,1.13 3.3,3.73 3.31,8.43 0,1.1 -0.15,2.16 -0.45,3.16 -0.31,1.07 -0.02,2.22 0.78,2.99 0.39,0.38 0.86,0.64 1.37,0.77 0.7,0.45 1.33,0.95 1.86,1.5 3.13,3.17 2.12,6.83 0.72,9.35 -0.55,0.98 -0.5,2.19 0.13,3.12 0.56,0.84 1.5,1.33 2.49,1.33 0.11,0 0.23,-0.01 0.35,-0.02 0.08,-0.01 0.17,-0.01 0.25,-0.01 0.64,0 1.16,0.3 1.59,0.91 0.12,0.17 0.24,0.33 0.37,0.5 0.41,0.54 0.41,0.58 0.42,0.76 0.01,1.08 0.61,2.08 1.56,2.6 0.31,0.17 0.64,0.28 0.98,0.33 -0.26,0.73 -0.53,1.5 -0.8,2.31 -0.35,1.05 -0.09,2.21 0.68,3.01 0.19,0.2 0.4,0.37 0.63,0.51 l -0.68,1.99 c -2.66,7.8 -5.42,15.86 -7.77,23.97 -0.11,0.36 -0.21,0.74 -0.32,1.12 -0.94,3.31 -2,7.07 -4.21,8.83 -2.07,1.65 -4.78,2.68 -7.15,3.47 -6.73,2.24 -14.59,3.32 -24.03,3.32 -0.43,0 -0.87,0 -1.3,-0.01 -11.93,-0.12 -20.84,-1.69 -28.03,-4.93 -2.89,-1.3 -5.01,-2.62 -5.95,-4.79 -1.85,-4.27 -3.3,-8.92 -4.71,-13.43 -0.3,-0.96 -0.6,-1.93 -0.91,-2.88 -0.65,-2.04 -1.26,-4.2 -1.86,-6.28 -1.14,-4 -2.31,-8.12 -3.88,-12.03 0.09,-0.09 0.17,-0.19 0.24,-0.3 0.56,-0.78 0.7,-1.79 0.39,-2.7 l -0.39,-1.14 c -0.03,-0.08 -0.05,-0.16 -0.08,-0.24 0.18,-0.11 0.35,-0.24 0.5,-0.38 a 3.03,3.03 0 0 0 0.88,-2.81 c -0.24,-1.14 -0.08,-1.9 0.2,-2.15 0.3,-0.27 0.53,-0.37 0.64,-0.37 0.01,0 0.05,0 0.11,0.03 a 2.982,2.982 0 0 0 2.75,-0.26 c 0.82,-0.53 1.33,-1.42 1.37,-2.4 0.02,-0.45 0.23,-0.95 0.39,-1.26 0.36,-0.4 0.61,-0.89 0.72,-1.43 0.16,-0.8 -0.01,-1.64 -0.49,-2.31 -0.81,-1.16 -1.9,-3.41 -1.57,-4.9 0.09,-0.42 0.32,-0.97 1.3,-1.53 0.86,-0.49 1.42,-1.37 1.5,-2.36 0.07,-0.89 0.39,-3.18 1.78,-5.22 1.45,-2.13 3.76,-3.38 6.85,-3.71 a 2.987,2.987 0 0 0 2.67,-2.72 v -0.06 c 0.37,-3.25 1.86,-6.88 9.86,-11.34 2.78,-1.55 5.18,-2.67 7.3,-3.66 4.14,-1.93 7.41,-3.46 9.63,-6.59 1.28,-1.79 1.7,-4.08 1.28,-6.75 M 63.54,5.45 c -0.24,0 -0.46,0.07 -0.66,0.18 -0.49,0.28 -0.78,0.87 -0.53,1.48 0.99,2.38 1.87,5.74 0.27,8 -2.71,3.82 -7.73,4.79 -15.94,9.37 C 38.86,28.84 35.85,33 35.3,38.22 v 0.02 c -4.65,0.49 -7.4,2.63 -9.02,5.01 -1.78,2.62 -2.19,5.49 -2.29,6.66 -5.7,3.27 -1.23,9.99 -0.7,10.75 -0.04,0.02 -0.07,0.05 -0.11,0.07 0,0 -0.99,1.42 -1.06,3.08 -0.4,-0.16 -0.81,-0.24 -1.23,-0.24 -0.89,0 -1.8,0.37 -2.66,1.16 -1,0.91 -1.62,2.56 -1.11,4.99 -0.3,-0.08 -0.56,-0.12 -0.8,-0.12 -1.04,0 -1.47,0.76 -1,2.14 0.33,0.96 0.65,1.93 0.98,2.89 -1,0.01 -1.43,0.75 -1,2.12 2.58,6.06 4.09,12.85 6.08,19.13 1.76,5.53 3.42,11.26 5.72,16.59 1.39,3.22 4.33,4.92 7.47,6.34 8.99,4.05 19.49,5.1 29.23,5.19 0.44,0 0.89,0.01 1.33,0.01 8.38,0 17.01,-0.83 24.98,-3.47 2.82,-0.94 5.74,-2.11 8.08,-3.98 3.27,-2.61 4.42,-7.6 5.54,-11.46 2.67,-9.24 5.82,-18.25 8.92,-27.35 0.47,-1.38 0.03,-2.15 -1.01,-2.15 -0.24,0 -0.51,0.04 -0.81,0.12 0.56,-1.7 1.16,-3.36 1.84,-4.97 0.44,-1.38 0.01,-2.14 -1,-2.14 -0.47,0 -1.06,0.16 -1.74,0.5 -0.23,0.11 -0.46,0.25 -0.69,0.39 -0.01,-1.46 -0.78,-2.17 -1.32,-2.94 -1.08,-1.54 -2.57,-2.19 -4.05,-2.19 -0.2,0 -0.4,0.01 -0.6,0.03 2.53,-4.55 2.35,-9.31 -1.2,-12.91 -0.84,-0.85 -1.87,-1.65 -3.1,-2.35 l -0.17,0.05 c 0.4,-1.36 0.57,-2.71 0.57,-4.01 C 99.37,39.32 96.68,36 95.09,34.54 95.02,34 94.93,33.47 94.8,32.96 A 8.561,8.561 0 0 0 93.6,30.22 C 90.84,26 84.95,24.27 83.26,23.85 82.27,21.02 80.85,18.37 79.08,16.46 74.85,11.9 69.85,8.18 64.06,5.58 63.9,5.49 63.72,5.45 63.54,5.45 Z"
       fill="#424242"
       opacity="0.2"
       id="path39" />
  </g>
</svg>
