<?xml version="1.0" encoding="UTF-8"?>
<!DOCTYPE svg PUBLIC "-//W3C//DTD SVG 1.1//EN" "http://www.w3.org/Graphics/SVG/1.1/DTD/svg11.dtd">
<svg xmlns="http://www.w3.org/2000/svg" version="1.1" width="300px" height="300px" style="shape-rendering:geometricPrecision; text-rendering:geometricPrecision; image-rendering:optimizeQuality; fill-rule:evenodd; clip-rule:evenodd" xmlns:xlink="http://www.w3.org/1999/xlink">
<g><path style="opacity:1" fill="#c7c8c7" d="M 29.5,12.5 C 109.167,12.5 188.833,12.5 268.5,12.5C 268.5,103.5 268.5,194.5 268.5,285.5C 188.833,285.5 109.167,285.5 29.5,285.5C 29.5,194.5 29.5,103.5 29.5,12.5 Z"/></g>
<g><path style="opacity:1" fill="#f6f6f6" d="M 30.5,13.5 C 109.5,13.5 188.5,13.5 267.5,13.5C 267.5,103.833 267.5,194.167 267.5,284.5C 188.5,284.5 109.5,284.5 30.5,284.5C 30.5,194.167 30.5,103.833 30.5,13.5 Z"/></g>
<g><path style="opacity:1" fill="#000000" d="M 100.5,30.5 C 133.168,30.3334 165.835,30.5 198.5,31C 206.691,38.6925 215.024,46.1925 223.5,53.5C 228.626,58.1612 233.459,63.1612 238,68.5C 238.667,73.5 238.667,78.5 238,83.5C 235.322,86.7674 232.489,89.934 229.5,93C 224.944,94.1094 220.278,94.6094 215.5,94.5C 204.83,94.0665 194.164,93.5665 183.5,93C 178.977,89.9773 175.31,86.1439 172.5,81.5C 171.336,87.4724 171.17,93.4724 172,99.5C 173.011,100.337 174.178,100.67 175.5,100.5C 175.351,101.552 175.517,102.552 176,103.5C 196.085,122.481 215.919,141.815 235.5,161.5C 236,162.5 236.5,163.5 237,164.5C 238.095,177.488 238.428,190.488 238,203.5C 228.386,214.236 218.219,224.403 207.5,234C 171.833,234.667 136.167,234.667 100.5,234C 98.2542,232.743 96.9209,230.91 96.5,228.5C 93.5,228.833 92.1667,227.5 92.5,224.5C 88.6202,221.972 84.9536,218.972 81.5,215.5C 80.3349,207.187 80.1683,198.853 81,190.5C 83.9605,187.704 86.7939,184.704 89.5,181.5C 90.325,180.614 91.325,180.281 92.5,180.5C 92.1667,177.5 93.5,176.167 96.5,176.5C 96.9209,174.09 98.2542,172.257 100.5,171C 105.823,170.501 111.156,170.334 116.5,170.5C 116.666,165.156 116.499,159.823 116,154.5C 113.877,151.887 111.544,149.554 109,147.5C 108.517,146.552 108.351,145.552 108.5,144.5C 107.5,144.5 106.5,144.5 105.5,144.5C 105.649,143.448 105.483,142.448 105,141.5C 93.9025,128.313 82.5692,115.313 71,102.5C 70.3333,88.5 70.3333,74.5 71,60.5C 72.2568,58.2542 74.0901,56.9209 76.5,56.5C 76.1667,53.5 77.5,52.1667 80.5,52.5C 83.5,47.5 87.5,43.5 92.5,40.5C 92.1667,37.5 93.5,36.1667 96.5,36.5C 97.203,34.1274 98.5363,32.1274 100.5,30.5 Z"/></g>
<g><path style="opacity:1" fill="#7fbee9" d="M 165.5,85.5 C 164.061,84.4908 162.728,84.8241 161.5,86.5C 160.808,85.9747 160.308,85.3081 160,84.5C 158.75,85.5733 157.416,85.5733 156,84.5C 154.527,84.9031 153.194,85.5697 152,86.5C 151.667,85.8333 151.333,85.1667 151,84.5C 148.814,85.0217 146.481,85.0217 144,84.5C 141.802,86.3751 139.969,86.3751 138.5,84.5C 137.304,84.8457 137.304,85.3457 138.5,86C 136.555,85.8718 134.722,86.0385 133,86.5C 132.309,84.1088 131.309,84.1088 130,86.5C 129.667,85.8333 129.333,85.1667 129,84.5C 127.43,85.3578 125.763,86.0245 124,86.5C 122.909,84.6542 121.576,83.9875 120,84.5C 119.692,85.3081 119.192,85.9747 118.5,86.5C 112.476,85.8561 106.643,85.8561 101,86.5C 99,83.8333 97,83.8333 95,86.5C 93.4279,84.4106 91.5945,84.4106 89.5,86.5C 85.0828,86.2504 80.7495,86.2504 76.5,86.5C 76.1694,79.1365 76.5027,71.8032 77.5,64.5C 86.8333,55.8333 95.8333,46.8333 104.5,37.5C 133.492,36.5002 162.492,36.1668 191.5,36.5C 191.723,39.1142 190.556,40.7809 188,41.5C 180.858,51.7092 173.525,61.7092 166,71.5C 165.501,76.1548 165.334,80.8215 165.5,85.5 Z"/></g>
<g><path style="opacity:1" fill="#7fbee9" d="M 197.5,42.5 C 199.255,43.0722 200.922,43.9055 202.5,45C 212.027,54.1942 221.527,63.3609 231,72.5C 231.667,74.8333 231.667,77.1667 231,79.5C 228.489,81.6793 226.322,84.1793 224.5,87C 212.139,87.3987 199.805,86.8987 187.5,85.5C 183.611,82.0531 179.944,78.3865 176.5,74.5C 175.572,73.2322 175.405,71.8989 176,70.5C 183.464,61.2269 190.631,51.8935 197.5,42.5 Z"/></g>
<g><path style="opacity:1" fill="#000000" d="M 100.5,52.5 C 117.167,52.5 133.833,52.5 150.5,52.5C 150.5,53.8333 150.5,55.1667 150.5,56.5C 133.833,56.5 117.167,56.5 100.5,56.5C 100.5,55.1667 100.5,53.8333 100.5,52.5 Z"/></g>
<g><path style="opacity:1" fill="#000000" d="M 91.5,69.5 C 107.837,69.3334 124.17,69.5001 140.5,70C 141.833,71.3333 141.833,72.6667 140.5,74C 124.167,74.6667 107.833,74.6667 91.5,74C 90.2721,72.5098 90.2721,71.0098 91.5,69.5 Z"/></g>
<g><path style="opacity:1" fill="#79c0e9" d="M 165.5,85.5 C 165.5,89.5 165.5,93.5 165.5,97.5C 162.632,97.915 160.465,96.915 159,94.5C 157.33,96.6983 155.33,97.0317 153,95.5C 152.333,96.1667 151.667,96.8333 151,97.5C 148.912,96.6919 146.912,95.6919 145,94.5C 144.517,95.448 144.351,96.448 144.5,97.5C 141.551,96.9874 138.718,96.9874 136,97.5C 135.667,96.5 135.333,95.5 135,94.5C 134.653,96.1802 133.653,97.1802 132,97.5C 129.003,98.0264 126.336,97.0264 124,94.5C 122.818,96.3569 121.151,97.3569 119,97.5C 112.716,96.8178 106.883,96.8178 101.5,97.5C 99.6274,97.5177 99.2941,97.0177 100.5,96C 98.9826,94.2215 98.1492,94.7215 98,97.5C 96.0503,97.2488 93.8836,96.5821 91.5,95.5C 90.3044,95.8457 90.3044,96.3457 91.5,97C 90.5509,97.6172 89.7175,97.4506 89,96.5C 87.4279,98.5894 85.5945,98.5894 83.5,96.5C 82.1575,97.9023 81.3242,97.5689 81,95.5C 80.5161,97.1775 79.6828,97.8442 78.5,97.5C 76.5864,94.3157 75.9197,90.649 76.5,86.5C 80.7495,86.2504 85.0828,86.2504 89.5,86.5C 91.5945,84.4106 93.4279,84.4106 95,86.5C 97,83.8333 99,83.8333 101,86.5C 106.643,85.8561 112.476,85.8561 118.5,86.5C 119.192,85.9747 119.692,85.3081 120,84.5C 121.576,83.9875 122.909,84.6542 124,86.5C 125.763,86.0245 127.43,85.3578 129,84.5C 129.333,85.1667 129.667,85.8333 130,86.5C 131.309,84.1088 132.309,84.1088 133,86.5C 134.722,86.0385 136.555,85.8718 138.5,86C 137.304,85.3457 137.304,84.8457 138.5,84.5C 139.969,86.3751 141.802,86.3751 144,84.5C 146.481,85.0217 148.814,85.0217 151,84.5C 151.333,85.1667 151.667,85.8333 152,86.5C 153.194,85.5697 154.527,84.9031 156,84.5C 157.416,85.5733 158.75,85.5733 160,84.5C 160.308,85.3081 160.808,85.9747 161.5,86.5C 162.728,84.8241 164.061,84.4908 165.5,85.5 Z"/></g>
<g><path style="opacity:1" fill="#000000" d="M 91.5,88.5 C 107.833,88.5 124.167,88.5 140.5,88.5C 140.5,89.8333 140.5,91.1667 140.5,92.5C 124.167,92.5 107.833,92.5 91.5,92.5C 91.5,91.1667 91.5,89.8333 91.5,88.5 Z"/></g>
<g><path style="opacity:1" fill="#73c3e8" d="M 165.5,97.5 C 165.5,99.8333 165.5,102.167 165.5,104.5C 164.437,108.333 163.604,108.333 163,104.5C 162.667,105.5 162.333,106.5 162,107.5C 160.33,105.302 158.33,104.968 156,106.5C 155.333,103.833 154.667,103.833 154,106.5C 152.235,105.761 150.235,105.761 148,106.5C 146.983,103.972 145.816,103.972 144.5,106.5C 142.93,106.306 141.43,106.306 140,106.5C 137.367,104.84 134.534,104.34 131.5,105C 132.34,106.666 131.84,106.833 130,105.5C 129.283,106.044 128.783,106.711 128.5,107.5C 119.651,107.174 110.984,107.507 102.5,108.5C 101.732,109.263 101.232,110.263 101,111.5C 100.267,107.012 98.2667,106.012 95,108.5C 94.1597,105.536 93.1597,105.203 92,107.5C 90.4002,105.453 88.5668,105.453 86.5,107.5C 82.8944,104.976 80.2277,101.643 78.5,97.5C 79.6828,97.8442 80.5161,97.1775 81,95.5C 81.3242,97.5689 82.1575,97.9023 83.5,96.5C 85.5945,98.5894 87.4279,98.5894 89,96.5C 89.7175,97.4506 90.5509,97.6172 91.5,97C 90.3044,96.3457 90.3044,95.8457 91.5,95.5C 93.8836,96.5821 96.0503,97.2488 98,97.5C 98.1492,94.7215 98.9826,94.2215 100.5,96C 99.2941,97.0177 99.6274,97.5177 101.5,97.5C 106.883,96.8178 112.716,96.8178 119,97.5C 121.151,97.3569 122.818,96.3569 124,94.5C 126.336,97.0264 129.003,98.0264 132,97.5C 133.653,97.1802 134.653,96.1802 135,94.5C 135.333,95.5 135.667,96.5 136,97.5C 138.718,96.9874 141.551,96.9874 144.5,97.5C 144.351,96.448 144.517,95.448 145,94.5C 146.912,95.6919 148.912,96.6919 151,97.5C 151.667,96.8333 152.333,96.1667 153,95.5C 155.33,97.0317 157.33,96.6983 159,94.5C 160.465,96.915 162.632,97.915 165.5,97.5 Z"/></g>
<g><path style="opacity:1" fill="#68c8e6" d="M 165.5,104.5 C 173.833,110.833 181.167,118.167 187.5,126.5C 178.433,126.329 169.433,126.329 160.5,126.5C 144.833,125.167 129.167,125.167 113.5,126.5C 109.837,127.826 106.17,127.826 102.5,126.5C 97.1387,120.162 91.8054,113.829 86.5,107.5C 88.5668,105.453 90.4002,105.453 92,107.5C 93.1597,105.203 94.1597,105.536 95,108.5C 98.2667,106.012 100.267,107.012 101,111.5C 101.232,110.263 101.732,109.263 102.5,108.5C 102.5,109.5 102.5,110.5 102.5,111.5C 117.837,111.667 133.17,111.5 148.5,111C 149.337,109.989 149.67,108.822 149.5,107.5C 142.5,107.5 135.5,107.5 128.5,107.5C 128.783,106.711 129.283,106.044 130,105.5C 131.84,106.833 132.34,106.666 131.5,105C 134.534,104.34 137.367,104.84 140,106.5C 141.43,106.306 142.93,106.306 144.5,106.5C 145.816,103.972 146.983,103.972 148,106.5C 150.235,105.761 152.235,105.761 154,106.5C 154.667,103.833 155.333,103.833 156,106.5C 158.33,104.968 160.33,105.302 162,107.5C 162.333,106.5 162.667,105.5 163,104.5C 163.604,108.333 164.437,108.333 165.5,104.5 Z"/></g>
<g><path style="opacity:1" fill="#000000" d="M 128.5,107.5 C 135.5,107.5 142.5,107.5 149.5,107.5C 149.67,108.822 149.337,109.989 148.5,111C 133.17,111.5 117.837,111.667 102.5,111.5C 102.5,110.5 102.5,109.5 102.5,108.5C 110.984,107.507 119.651,107.174 128.5,107.5 Z"/></g>
<g><path style="opacity:1" fill="#60cce5" d="M 113.5,126.5 C 113.5,127.5 113.5,128.5 113.5,129.5C 129.167,129.5 144.833,129.5 160.5,129.5C 160.5,128.5 160.5,127.5 160.5,126.5C 169.433,126.329 178.433,126.329 187.5,126.5C 191.771,129.101 195.437,132.434 198.5,136.5C 196.775,137.278 195.109,137.611 193.5,137.5C 190.635,135.529 187.635,134.863 184.5,135.5C 182.622,136.642 180.788,137.642 179,138.5C 176.929,137.636 175.262,136.303 174,134.5C 171.529,135.401 169.029,136.401 166.5,137.5C 164.375,135.043 162.541,135.376 161,138.5C 158.667,137.5 156.333,136.5 154,135.5C 151.677,135.331 149.344,135.997 147,137.5C 146.667,136.833 146.333,136.167 146,135.5C 144.324,136.061 142.991,137.061 142,138.5C 141.581,137.328 140.915,136.328 140,135.5C 138,136.833 136,136.833 134,135.5C 132.846,137.957 131.512,137.957 130,135.5C 129.309,137.891 128.309,137.891 127,135.5C 126.751,136.624 126.251,137.624 125.5,138.5C 123.65,137.758 122.984,136.758 123.5,135.5C 121.119,137.396 118.619,137.729 116,136.5C 115.692,137.308 115.192,137.975 114.5,138.5C 113.304,138.154 113.304,137.654 114.5,137C 113.552,136.517 112.552,136.351 111.5,136.5C 110.504,136.586 109.671,136.252 109,135.5C 106.818,132.451 104.651,129.451 102.5,126.5C 106.17,127.826 109.837,127.826 113.5,126.5 Z"/></g>
<g><path style="opacity:1" fill="#000000" d="M 160.5,126.5 C 160.5,127.5 160.5,128.5 160.5,129.5C 144.833,129.5 129.167,129.5 113.5,129.5C 113.5,128.5 113.5,127.5 113.5,126.5C 129.167,125.167 144.833,125.167 160.5,126.5 Z"/></g>
<g><path style="opacity:1" fill="#5acfe4" d="M 198.5,136.5 C 201.622,139.446 204.956,142.279 208.5,145C 209.823,145.816 210.489,146.983 210.5,148.5C 201.259,148.104 191.592,148.104 181.5,148.5C 181.5,147.167 181.5,145.833 181.5,144.5C 165.167,144.5 148.833,144.5 132.5,144.5C 132.5,145.833 132.5,147.167 132.5,148.5C 128.833,148.5 125.167,148.5 121.5,148.5C 117.701,144.909 114.367,140.909 111.5,136.5C 112.552,136.351 113.552,136.517 114.5,137C 113.304,137.654 113.304,138.154 114.5,138.5C 115.192,137.975 115.692,137.308 116,136.5C 118.619,137.729 121.119,137.396 123.5,135.5C 122.984,136.758 123.65,137.758 125.5,138.5C 126.251,137.624 126.751,136.624 127,135.5C 128.309,137.891 129.309,137.891 130,135.5C 131.512,137.957 132.846,137.957 134,135.5C 136,136.833 138,136.833 140,135.5C 140.915,136.328 141.581,137.328 142,138.5C 142.991,137.061 144.324,136.061 146,135.5C 146.333,136.167 146.667,136.833 147,137.5C 149.344,135.997 151.677,135.331 154,135.5C 156.333,136.5 158.667,137.5 161,138.5C 162.541,135.376 164.375,135.043 166.5,137.5C 169.029,136.401 171.529,135.401 174,134.5C 175.262,136.303 176.929,137.636 179,138.5C 180.788,137.642 182.622,136.642 184.5,135.5C 187.635,134.863 190.635,135.529 193.5,137.5C 195.109,137.611 196.775,137.278 198.5,136.5 Z"/></g>
<g><path style="opacity:1" fill="#000000" d="M 181.5,148.5 C 165.167,148.5 148.833,148.5 132.5,148.5C 132.5,147.167 132.5,145.833 132.5,144.5C 148.833,144.5 165.167,144.5 181.5,144.5C 181.5,145.833 181.5,147.167 181.5,148.5 Z"/></g>
<g><path style="opacity:1" fill="#54d3e3" d="M 210.5,148.5 C 215.194,151.861 219.194,155.861 222.5,160.5C 219.266,159.873 216.099,159.873 213,160.5C 210.515,158.244 208.182,158.244 206,160.5C 205.692,159.692 205.192,159.025 204.5,158.5C 202.044,161.08 199.544,161.08 197,158.5C 195.598,160.973 194.098,160.973 192.5,158.5C 190.941,159.074 189.441,159.74 188,160.5C 180.173,160.164 172.507,160.164 165,160.5C 164.333,159.833 163.667,159.167 163,158.5C 161.451,161.003 159.784,161.003 158,158.5C 156.691,160.891 155.691,160.891 155,158.5C 153.806,159.43 152.473,160.097 151,160.5C 142.212,160.419 133.378,160.419 124.5,160.5C 124.817,157.428 124.484,154.428 123.5,151.5C 122.081,150.995 121.415,149.995 121.5,148.5C 125.167,148.5 128.833,148.5 132.5,148.5C 148.833,148.5 165.167,148.5 181.5,148.5C 191.592,148.104 201.259,148.104 210.5,148.5 Z"/></g>
<g><path style="opacity:1" fill="#4ed6e1" d="M 222.5,160.5 C 225.063,161.592 227.23,163.258 229,165.5C 230.009,167.025 230.509,168.692 230.5,170.5C 229.312,171.684 228.145,171.684 227,170.5C 226.333,173.167 225.667,173.167 225,170.5C 223.887,171.711 222.72,171.711 221.5,170.5C 220.459,172.991 219.626,172.991 219,170.5C 218.374,172.991 217.541,172.991 216.5,170.5C 215.212,172.475 213.545,172.475 211.5,170.5C 209.724,170.718 207.891,170.718 206,170.5C 203.396,172.823 200.396,172.823 197,170.5C 195.606,172.402 193.773,172.735 191.5,171.5C 169.242,170.511 146.908,170.178 124.5,170.5C 124.5,167.167 124.5,163.833 124.5,160.5C 133.378,160.419 142.212,160.419 151,160.5C 152.473,160.097 153.806,159.43 155,158.5C 155.691,160.891 156.691,160.891 158,158.5C 159.784,161.003 161.451,161.003 163,158.5C 163.667,159.167 164.333,159.833 165,160.5C 172.507,160.164 180.173,160.164 188,160.5C 189.441,159.74 190.941,159.074 192.5,158.5C 194.098,160.973 195.598,160.973 197,158.5C 199.544,161.08 202.044,161.08 204.5,158.5C 205.192,159.025 205.692,159.692 206,160.5C 208.182,158.244 210.515,158.244 213,160.5C 216.099,159.873 219.266,159.873 222.5,160.5 Z"/></g>
<g><path style="opacity:1" fill="#47dae0" d="M 230.5,170.5 C 230.5,174.833 230.5,179.167 230.5,183.5C 220.029,183.619 210.029,183.952 200.5,184.5C 198.275,180.765 195.442,177.432 192,174.5C 191.517,173.552 191.351,172.552 191.5,171.5C 193.773,172.735 195.606,172.402 197,170.5C 200.396,172.823 203.396,172.823 206,170.5C 207.891,170.718 209.724,170.718 211.5,170.5C 213.545,172.475 215.212,172.475 216.5,170.5C 217.541,172.991 218.374,172.991 219,170.5C 219.626,172.991 220.459,172.991 221.5,170.5C 222.72,171.711 223.887,171.711 225,170.5C 225.667,173.167 226.333,173.167 227,170.5C 228.145,171.684 229.312,171.684 230.5,170.5 Z"/></g>
<g><path style="opacity:1" fill="#41dedf" d="M 104.5,177.5 C 129.169,177.333 153.836,177.5 178.5,178C 174.333,182.167 170.167,186.333 166,190.5C 165.333,195.5 165.333,200.5 166,205.5C 172.325,212.662 178.492,219.995 184.5,227.5C 157.833,228.833 131.167,228.833 104.5,227.5C 99.1667,222.167 93.8333,216.833 88.5,211.5C 87.0491,205.439 87.2158,199.439 89,193.5C 94.2085,188.29 99.3752,182.956 104.5,177.5 Z"/></g>
<g><path style="opacity:1" fill="#40dedf" d="M 230.5,183.5 C 231.742,189.145 231.742,194.812 230.5,200.5C 221.272,209.306 212.272,218.306 203.5,227.5C 200.894,228.652 198.227,228.818 195.5,228C 194.663,226.989 194.33,225.822 194.5,224.5C 193.5,224.5 192.5,224.5 191.5,224.5C 185.979,216.135 179.479,208.468 172,201.5C 172.721,196.021 175.388,191.354 180,187.5C 186.444,188.81 192.944,188.81 199.5,187.5C 200.127,186.583 200.461,185.583 200.5,184.5C 210.029,183.952 220.029,183.619 230.5,183.5 Z"/></g>
<g><path style="opacity:1" fill="#121212" d="M 114.5,243.5 C 116.5,243.5 118.5,243.5 120.5,243.5C 120.335,246.518 120.502,249.518 121,252.5C 125.366,250.52 128.366,251.853 130,256.5C 131.159,261.275 130.326,265.608 127.5,269.5C 126.5,269.833 125.5,270.167 124.5,270.5C 121.313,270.007 117.979,270.007 114.5,270.5C 114.5,261.5 114.5,252.5 114.5,243.5 Z"/></g>
<g><path style="opacity:1" fill="#121212" d="M 174.5,243.5 C 179.159,243.015 180.492,244.848 178.5,249C 173.728,249.81 172.395,247.977 174.5,243.5 Z"/></g>
<g><path style="opacity:1" fill="#818181" d="M 208.5,247.5 C 206.833,247.5 205.167,247.5 203.5,247.5C 203.768,249.099 203.434,250.432 202.5,251.5C 202.5,249.833 202.5,248.167 202.5,246.5C 204.735,246.205 206.735,246.539 208.5,247.5 Z"/></g>
<g><path style="opacity:1" fill="#080808" d="M 208.5,247.5 C 208.5,248.833 208.5,250.167 208.5,251.5C 209.5,251.5 210.5,251.5 211.5,251.5C 211.5,252.833 211.5,254.167 211.5,255.5C 210.5,255.5 209.5,255.5 208.5,255.5C 208.335,258.85 208.502,262.183 209,265.5C 210.892,266.617 211.725,268.284 211.5,270.5C 208.635,270.945 206.135,270.278 204,268.5C 203.501,264.514 203.334,260.514 203.5,256.5C 202.5,256.5 201.5,256.5 200.5,256.5C 200.077,254.219 200.744,252.552 202.5,251.5C 203.434,250.432 203.768,249.099 203.5,247.5C 205.167,247.5 206.833,247.5 208.5,247.5 Z"/></g>
<g><path style="opacity:1" fill="#101010" d="M 135.5,251.5 C 138.249,251.274 140.916,251.607 143.5,252.5C 144.731,253.651 144.731,254.817 143.5,256C 141.893,255.981 140.226,255.815 138.5,255.5C 138.351,256.552 138.517,257.552 139,258.5C 144.802,260.603 145.969,264.27 142.5,269.5C 138.731,271.177 135.398,270.677 132.5,268C 132.613,266.72 133.28,265.887 134.5,265.5C 136.071,266.309 137.738,266.643 139.5,266.5C 139.719,265.325 139.386,264.325 138.5,263.5C 131.889,260.765 130.889,256.765 135.5,251.5 Z"/></g>
<g><path style="opacity:1" fill="#111111" d="M 151.5,251.5 C 160.861,250.968 161.694,252.968 154,257.5C 153.333,259.833 153.333,262.167 154,264.5C 155.892,265.13 157.559,266.13 159,267.5C 159.617,268.449 159.451,269.282 158.5,270C 154.726,271.183 151.559,270.349 149,267.5C 146.355,261.508 147.188,256.175 151.5,251.5 Z"/></g>
<g><path style="opacity:1" fill="#050505" d="M 162.5,270.5 C 162.5,264.5 162.5,258.5 162.5,252.5C 164.451,252.227 165.951,252.893 167,254.5C 167.717,253.956 168.217,253.289 168.5,252.5C 169.209,251.596 170.209,251.263 171.5,251.5C 171.826,254.607 170.659,256.94 168,258.5C 167.501,262.486 167.334,266.486 167.5,270.5C 165.833,270.5 164.167,270.5 162.5,270.5 Z"/></g>
<g><path style="opacity:1" fill="#0b0b0b" d="M 190.5,269.5 C 190.44,268.957 190.107,268.624 189.5,268.5C 188.513,271.768 188.18,275.102 188.5,278.5C 187.167,278.5 185.833,278.5 184.5,278.5C 184.5,269.833 184.5,261.167 184.5,252.5C 186.741,252.954 188.741,252.954 190.5,252.5C 196.104,251.234 199.104,253.734 199.5,260C 199.212,263.319 198.379,266.485 197,269.5C 194.726,270.811 192.56,270.811 190.5,269.5 Z"/></g>
<g><path style="opacity:1" fill="#0e0e0e" d="M 96.5,251.5 C 98.5,251.5 100.5,251.5 102.5,251.5C 103.139,255.527 103.972,259.527 105,263.5C 105.972,259.857 106.806,256.19 107.5,252.5C 109.5,251.167 111.5,251.167 113.5,252.5C 111.21,258.325 109.544,264.325 108.5,270.5C 106.167,270.5 103.833,270.5 101.5,270.5C 99.708,264.21 98.0414,257.877 96.5,251.5 Z"/></g>
<g><path style="opacity:1" fill="#3b3b3b" d="M 168.5,252.5 C 168.217,253.289 167.717,253.956 167,254.5C 165.951,252.893 164.451,252.227 162.5,252.5C 162.5,258.5 162.5,264.5 162.5,270.5C 161.51,264.355 161.177,258.022 161.5,251.5C 163.95,251.298 166.283,251.631 168.5,252.5 Z"/></g>
<g><path style="opacity:1" fill="#292929" d="M 178.5,270.5 C 178.5,264.5 178.5,258.5 178.5,252.5C 177.167,252.5 175.833,252.5 174.5,252.5C 174.5,258.5 174.5,264.5 174.5,270.5C 173.51,264.355 173.177,258.022 173.5,251.5C 175.5,251.5 177.5,251.5 179.5,251.5C 179.823,258.022 179.49,264.355 178.5,270.5 Z"/></g>
<g><path style="opacity:1" fill="#000000" d="M 178.5,270.5 C 177.167,270.5 175.833,270.5 174.5,270.5C 174.5,264.5 174.5,258.5 174.5,252.5C 175.833,252.5 177.167,252.5 178.5,252.5C 178.5,258.5 178.5,264.5 178.5,270.5 Z"/></g>
<g><path style="opacity:1" fill="#3d3d3d" d="M 190.5,252.5 C 188.741,252.954 186.741,252.954 184.5,252.5C 184.5,261.167 184.5,269.833 184.5,278.5C 185.833,278.5 187.167,278.5 188.5,278.5C 188.18,275.102 188.513,271.768 189.5,268.5C 190.107,268.624 190.44,268.957 190.5,269.5C 189.521,272.625 189.187,275.958 189.5,279.5C 187.5,279.5 185.5,279.5 183.5,279.5C 183.5,270.167 183.5,260.833 183.5,251.5C 185.95,251.298 188.283,251.631 190.5,252.5 Z"/></g>
<g><path style="opacity:1" fill="#e6e6e6" d="M 120.5,256.5 C 121.833,256.5 123.167,256.5 124.5,256.5C 124.665,259.518 124.498,262.518 124,265.5C 123,266.833 122,266.833 121,265.5C 120.502,262.518 120.335,259.518 120.5,256.5 Z"/></g>
<g><path style="opacity:1" fill="#e6e6e6" d="M 189.5,256.5 C 190.833,256.5 192.167,256.5 193.5,256.5C 193.665,259.518 193.498,262.518 193,265.5C 192,266.833 191,266.833 190,265.5C 189.502,262.518 189.335,259.518 189.5,256.5 Z"/></g>
</svg>
