<?xml version="1.0" encoding="UTF-8"?>
<svg xmlns:cc="http://creativecommons.org/ns#" xmlns="http://www.w3.org/2000/svg" xmlns:rdf="http://www.w3.org/1999/02/22-rdf-syntax-ns#" xmlns:dc="http://purl.org/dc/elements/1.1/" width="888" height="888" version="1.1">
<title>Logo de l'éditeur Vi</title>
<metadata>
  <rdf:RDF>
    <cc:Work rdf:about="">
      <dc:format>image/svg+xml</dc:format>
      <dc:type rdf:resource="http://purl.org/dc/dcmitype/StillImage"/>
      <dc:title>Logo de l'éditeur Vi</dc:title>
    </cc:Work>
  </rdf:RDF>
</metadata>
<path style="fill:#000000;" d="m 360.38874 803.61803 -78.11126 -78.19104 -33.28691 33.61046 -33.28691 33.61046 -42.61393 0 -42.61393 0 L 114.9879 777.13604 99.500004 761.62417 99.158194 651.79034 98.816384 541.95651 50.988458 494.13637 3.1605386 446.31622 51.077568 397.73207 l 47.917036 -48.58416 0.003 -89.25 0.003 -89.25 -10.083616 0 -10.08362 0 -12.41638 -11.67765 -12.41638 -11.67766 0 -38.58865 0 -38.58866 11.25 -11.14395 11.25 -11.14396 146.999992 2.53415 147 2.53415 5.19425 5.62612 5.19426 5.62611 29.63875 -30.25 c 16.30131 -16.6375 30.16979 -30.25 30.81884 -30.25 0.64905 0 17.29759 16.425 36.99676 36.5 19.69918 20.075 36.19753 36.5 36.66301 36.5 0.46549 0 4.77726 -5.64335 9.58173 -12.54079 4.80446 -6.89743 9.13521 -12.78789 9.62388 -13.08991 0.48866 -0.30201 66.22847 -0.004 146.08847 0.66246 l 145.2001 1.21157 11.75 11.6127 11.75 11.61271 0 36.61716 0 36.61717 -64.75 65.78077 c -35.6125 36.17942 -64.8418 66.05873 -64.954 66.39846 -0.1122 0.33974 35.2713 36.39066 78.6299 80.11317 l 78.83397 79.49547 -101.79137 102.50453 c -55.9858 56.37749 -154.5943 155.52829 -219.13052 220.33511 L 438.5 881.8091 360.38874 803.61803 z m 285.05771 -155.2512 c 113.0545 -113.72959 205.5536 -207.10575 205.5536 -207.50258 0 -0.39683 -32.6607 -33.34535 -72.5794 -73.21893 l -72.5793 -72.49741 -41.021 41.5 c -22.5616 22.825 -58.8274 59.63335 -80.59076 81.79634 l -39.56974 40.29634 5.31952 5.38643 5.31953 5.38644 -8.8149 25.12344 -8.8149 25.12345 -8.19918 7.44378 -8.19918 7.44378 -25.9392 0 -25.93921 0 -3.23965 3.34247 -3.23965 3.34247 14.29349 0.65387 c 7.86141 0.35963 23.63098 0.65552 35.04348 0.65753 11.4125 0.002 20.75 0.34441 20.75 0.76087 0 0.41647 -11.7 35.85072 -26 78.74279 -14.3 42.89207 -26 78.55132 -26 79.24279 0 0.91718 2.45241 1.25721 9.06739 1.25721 8.94379 0 9.05785 0.0307 8.36793 2.25 -0.3847 1.2375 -4.2964 12.26094 -8.69266 24.49654 l -7.99321 22.24655 -55.62473 -0.63017 c -30.59359 -0.3466 -56.13255 -0.90754 -56.75323 -1.24655 -0.75527 -0.41252 7.31301 -25.51071 24.39548 -75.88756 14.03818 -41.39916 25.24424 -75.55093 24.90235 -75.89283 -0.3419 -0.34189 -3.25406 -0.21986 -6.47148 0.2712 l -5.84985 0.89282 -55.62503 56.5 -55.62503 56.5 71.69908 71.75065 c 39.4345 39.46286 72.01338 71.63794 72.39753 71.50004 0.38414 -0.1379 93.19752 -93.30217 206.25191 -207.03177 z m -340.88687 28.81678 95.94042 -97.4643 6.37551 -19.0357 6.37552 -19.0357 12.14325 0 12.14324 0 9.92713 -9.96451 9.92712 -9.96451 -3.19589 -3.97685 c -1.75773 -2.18727 -3.19737 -4.56574 -3.19919 -5.28549 -0.002 -0.71975 3.19244 -11.89672 7.09837 -24.83772 l 7.10169 -23.52907 9.62757 -7.97093 9.62757 -7.97092 22.71 0 22.70999 0 151.05377 -153.5 151.0537 -153.5 0.01 -28.52682 0.01 -28.52682 -6.7951 -6.74302 -6.7951 -6.74302 -94.9549 -0.92069 c -52.2252 -0.50639 -114.0663 -1.05996 -137.42471 -1.23016 l -42.46982 -0.30947 -6.75421 9.5 -6.75422 9.5 -0.026 25.11449 -0.026 25.11448 6.46839 8.38552 6.46839 8.38551 19.88629 0.5 19.88629 0.5 -114.37407 110.5 c -62.90573 60.775 -119.1623 114.99898 -125.01455 120.49774 l -10.64047 9.99774 0.66398 -77.99774 c 0.36519 -42.89876 0.95723 -97.01024 1.31564 -120.24774 l 0.65165 -42.25 14.5734 0 14.57339 0 8.27089 -8.22792 8.27089 -8.22792 0 -24.0709 0 -24.07089 -9.01616 -10.09437 -9.01616 -10.09436 -17.23384 -0.60791 c -9.47861 -0.33435 -72.08707 -1.54262 -139.12992 -2.68504 l -121.896062 -2.07713 -6.85393 6.8014 -6.85392 6.8014 0 29.55185 0 29.55185 7.52353 7.47497 7.52353 7.47497 14.812062 0.33842 14.81206 0.33842 0.66441 99.07712 c 0.36542 54.49241 0.6644 189.55744 0.6644 300.1445 l 0 201.06739 10.23213 10.26708 10.23214 10.26707 35.57745 0 35.57745 0 95.94041 -97.4643 z m 167.12721 49.9643 c 1.20688 -3.3 2.22107 -6.3375 2.25377 -6.75 0.0327 -0.4125 -3.99056 -0.75 -8.94056 -0.75 -4.95 0 -9 -0.34075 -9 -0.75721 0 -0.41647 11.7 -35.85072 26 -78.74279 14.3 -42.89207 26 -78.49116 26 -79.1091 0 -1.60773 -80.01826 -2.6017 -81.66729 -1.01445 -1.06738 1.02739 -6.3311 16.96266 -6.33392 19.17515 -0.00073 0.5787 4.77449 0.71615 12.25 0.35259 6.73817 -0.32769 12.30331 -0.55269 12.367 -0.5 0.0637 0.0527 -11.50179 34.29581 -25.70105 76.09581 -14.19926 41.8 -25.83887 76.31779 -25.86579 76.70619 -0.0745 1.0741 11.41828 1.41601 45.44729 1.35206 l 30.99623 -0.0583 2.19432 -6 z m 46.17383 -213.41518 c 4.06353 -3.56897 4.79083 -5.04793 10.67496 -21.70736 l 6.31433 -17.87746 -3.89454 -3.95487 -3.89453 -3.95488 -18.28042 -0.33773 -18.28042 -0.33773 -5.20786 4.79261 c -5.205 4.78998 -5.21061 4.80183 -10.2432 21.65728 l -5.03534 16.86468 3.02917 3.82464 c 3.59431 4.53819 3.83174 4.58332 24.95723 4.74333 l 15.5 0.1174 4.36062 -3.82991 z m -418.903946 -68.33482 -0.0433 -70.25 -35.045196 35.40616 -35.0452 35.40616 34.83317 34.84384 c 19.15825 19.16411 34.948086 34.84384 35.088526 34.84384 0.14045 0 0.23586 -31.6125 0.21203 -70.25 z m 346.666716 -182.75 c 83.29318 -80.41154 93.44396 -90.53528 91.05898 -90.81651 -2.11523 -0.24942 -5.01565 -3.30353 -13.68328 -14.4083 L 512 143.33131 l 0 -22.09698 0 -22.09698 -35.25643 -35.24594 -35.25643 -35.24594 -24.45771 24.47299 -24.4577 24.473 2.71413 2.83294 2.71414 2.83295 0 31.79113 0 31.79112 -12.09036 12.65416 -12.09035 12.65415 -10.65965 0.5 -10.65964 0.5 -0.68909 56 c -1.19412 97.04254 -1.33135 124.50884 -0.6208 124.25071 0.37955 -0.13789 42.87453 -40.97571 94.43328 -90.75071 z"/>
</svg>
