<?xml version="1.0" encoding="UTF-8" standalone="no"?>
<!-- Generator: Adobe Illustrator 19.0.0, SVG Export Plug-In . SVG Version: 6.00 Build 0)  -->

<svg
   version="1.1"
   id="Capa_1"
   x="0px"
   y="0px"
   viewBox="0 0 512 512"
   style="enable-background:new 0 0 512 512;"
   xml:space="preserve"
   sodipodi:docname="visual-basic.svg"
   inkscape:version="1.2 (dc2aedaf03, 2022-05-15)"
   xmlns:inkscape="http://www.inkscape.org/namespaces/inkscape"
   xmlns:sodipodi="http://sodipodi.sourceforge.net/DTD/sodipodi-0.dtd"
   xmlns="http://www.w3.org/2000/svg"
   xmlns:svg="http://www.w3.org/2000/svg"><defs
   id="defs63" /><sodipodi:namedview
   id="namedview61"
   pagecolor="#ffffff"
   bordercolor="#666666"
   borderopacity="1.0"
   inkscape:showpageshadow="2"
   inkscape:pageopacity="0.0"
   inkscape:pagecheckerboard="0"
   inkscape:deskcolor="#d1d1d1"
   showgrid="false"
   inkscape:zoom="0.921875"
   inkscape:cx="104.13559"
   inkscape:cy="346.0339"
   inkscape:window-width="1920"
   inkscape:window-height="1017"
   inkscape:window-x="-8"
   inkscape:window-y="-8"
   inkscape:window-maximized="1"
   inkscape:current-layer="Capa_1" />

<path
   style="fill:#572e94;stroke-width:0.888913"
   d="m 482.71271,219.02819 c -7.17087,-7.34687 -16.54268,-13.65371 -28.21767,-18.41829 -17.15515,-7.00375 -36.62325,-4.91392 -57.29939,2.92541 -47.98267,-66.69875 -115.0441,-46.24574 -152.23447,-9.11136 15.91066,-17.31337 38.4624,-39.67933 75.78256,-56.04512 38.87131,-17.05293 107.29811,-9.06515 147.89658,29.11903 6.61352,16.31868 11.38787,33.58494 14.07239,51.53033 z"
   id="path4" />
<path
   style="fill:#5c55a9;stroke-width:0.888913"
   d="m 485.22034,252.75358 v 0.18578 c 0,22.97931 -3.40899,45.16837 -9.75227,66.0854 -9.6785,9.37182 -22.00417,17.28582 -36.76281,22.76509 -22.85842,8.4989 -47.65822,8.95402 -72.16024,4.3379 38.13796,-20.21124 55.20954,-69.05794 45.06615,-110.81822 -2.74941,-11.35942 -7.51399,-22.18995 -14.41552,-31.7751 20.67525,-7.83933 40.14335,-9.92917 57.29939,-2.92542 11.67499,4.76458 21.0468,11.07142 28.21767,18.41829 v 0.009 c 1.6436,11.00743 2.49874,22.25574 2.50763,33.7174 z"
   id="path6" />
<path
   style="fill:#575daf;stroke-width:0.888913"
   d="m 475.46807,319.02476 c -1.42137,4.6997 -3.00009,9.34427 -4.71835,13.9044 -40.60826,43.43143 -112.38804,54.42908 -163.00901,31.15287 -14.14617,-6.50152 -25.58916,-13.92306 -34.96098,-21.89218 v -0.009 c 38.37885,17.99161 70.12641,16.47691 93.7644,3.94767 24.50202,4.61613 49.30183,4.161 72.16025,-4.3379 14.75952,-5.48015 27.08519,-13.39416 36.76369,-22.76597 z"
   id="path8" />
<path
   style="fill:#5155aa;stroke-width:0.888913"
   d="m 397.19477,203.53798 c -43.36655,16.41202 -92.07458,58.09763 -136.04469,94.1733 -10.38429,-7.67222 -19.45922,-15.46532 -26.78742,-22.79352 -1.8765,-1.8765 -3.82678,-3.74322 -5.85172,-5.60994 -4.98769,-14.94441 -9.11137,-28.55191 -15.99423,-38.85264 6.75219,-8.13623 11.94434,-14.56396 15.34443,-17.7685 4.92281,-4.64369 10.40297,-10.98786 17.04404,-18.20495 0.0187,-0.0187 0.0373,-0.0373 0.056,-0.056 37.18948,-37.13349 104.25091,-57.58651 152.23359,9.11225 z"
   id="path10" />
<path
   style="fill:#547bc4;stroke-width:0.888913"
   d="m 366.54324,346.1313 c -23.63888,12.53013 -55.38554,14.04395 -93.76439,-3.94766 v 0.009 c -11.80567,-10.04028 -20.33213,-20.97303 -26.85231,-32.10046 4.99747,-4.02144 10.07761,-8.16466 15.22354,-12.38079 28.36612,20.98192 66.4943,41.09094 105.39316,48.42002 z"
   id="path12" />
<path
   style="fill:#376db7;stroke-width:0.888913"
   d="m 261.15008,297.71128 c -5.14593,4.21701 -10.22607,8.35935 -15.22354,12.38079 -8.06245,-13.73727 -13.06882,-27.76255 -17.4156,-40.78425 2.02494,1.86672 3.97522,3.73344 5.85172,5.60994 7.3282,7.32909 16.40313,15.1213 26.78742,22.79352 z"
   id="path14" />
<path
   style="fill:#209cdc;stroke-width:0.888913"
   d="m 228.51094,269.30782 c 4.34678,13.0217 9.35315,27.04698 17.4156,40.78425 -22.36596,17.97294 -43.10699,33.41871 -60.79192,41.91762 -20.45302,9.82694 -45.70706,13.86705 -70.55309,10.92297 -28.106562,-11.03408 -47.93645,-31.53332 -55.859338,-53.94639 5.470376,1.85782 11.386986,3.21342 17.740942,4.01255 50.193406,6.26951 94.033736,-34.49696 122.353646,-66.48542 10.89453,6.92109 20.97214,14.7693 29.69416,22.79442 z"
   id="path16" />
<path
   style="fill:#3c66b4;stroke-width:0.888913"
   d="m 212.51671,230.45518 c 6.88286,10.30073 11.00654,23.90823 15.99423,38.85264 -8.72202,-8.02512 -18.79963,-15.87333 -29.69416,-22.79352 5.08014,-5.74861 9.66871,-11.2101 13.69993,-16.05912 z"
   id="path18" />
<path
   style="fill:#69c0f1;stroke-width:0.888913"
   d="m 212.51761,230.45251 c -4.03123,4.84814 -8.61981,10.30962 -13.69995,16.05912 -4.99747,-3.17698 -10.17095,-6.14862 -15.45553,-8.8518 -37.5984,-19.2361 -81.28139,-24.85493 -112.471597,9.39048 -16.561352,18.1774 -19.607659,40.90514 -12.167451,61.93417 -9.789608,-3.31564 -18.121396,-8.22956 -24.808694,-14.33195 -2.508515,-13.52305 -3.817885,-27.46477 -3.817885,-41.71317 0,-18.62274 2.238285,-36.72547 6.464182,-54.05751 11.656325,-12.075 26.536741,-20.67525 41.760278,-25.2087 19.161427,-5.70327 39.976227,-5.50771 60.429247,0.75202 0.009,0.009 0.0275,0.009 0.0373,0.0187 26.14651,8.00644 51.67967,25.90472 72.3558,54.02995 0.4729,0.6409 0.9378,1.30048 1.37427,1.97872 z"
   id="path20" />
<g
   id="g26"
   transform="matrix(0.88891374,0,0,0.88891374,30.096503,25.377444)">
	<path
   style="fill:#0097d9"
   d="M 95.044,379.737 C 65.223,376.195 35.934,363.719 14.336,340.668 10.073,328.484 6.698,315.873 4.295,302.926 c 7.523,6.865 16.896,12.392 27.909,16.123 8.913,25.214 31.221,48.274 62.84,60.688 z"
   id="path22" />
	<path
   style="fill:#0097d9"
   d="m 205.217,230.706 c -4.535,5.454 -9.697,11.598 -15.412,18.066 -5.622,-3.574 -11.442,-6.917 -17.387,-9.958 0,-45.025 -21.368,-58.525 -50.145,-71.116 29.414,9.007 58.138,29.142 81.398,60.782 0.532,0.721 1.055,1.463 1.546,2.226 z"
   id="path24" />
</g>
<path
   style="fill:#4e2e8b;stroke-width:0.888913"
   d="m 485.22034,252.75358 c -5.18326,-4.53257 -11.34076,-8.67491 -18.65119,-12.20478 -24.53046,-11.82434 -42.65186,-10.22607 -54.95887,-5.23837 -2.74941,-11.35944 -7.51399,-22.18996 -14.41551,-31.77512 20.67524,-7.83933 40.14334,-9.92916 57.29937,-2.92541 11.675,4.76458 21.04682,11.07142 28.21768,18.41829 1.64449,11.00653 2.49963,22.26373 2.50852,33.72539 z"
   id="path28" />
<g
   id="g30">
</g>
<g
   id="g32">
</g>
<g
   id="g34">
</g>
<g
   id="g36">
</g>
<g
   id="g38">
</g>
<g
   id="g40">
</g>
<g
   id="g42">
</g>
<g
   id="g44">
</g>
<g
   id="g46">
</g>
<g
   id="g48">
</g>
<g
   id="g50">
</g>
<g
   id="g52">
</g>
<g
   id="g54">
</g>
<g
   id="g56">
</g>
<g
   id="g58">
</g>
</svg>
