<svg width="259" height="256" viewBox="0 0 259 256" fill="none" xmlns="http://www.w3.org/2000/svg">
<path fill-rule="evenodd" clip-rule="evenodd" d="M55.2704 25.7879C64.6539 32.7142 72.508 40.3431 78.8301 48.6744C79.5571 46.4738 78.884 44.6788 76.8107 43.2894C76.9776 42.4726 77.4259 42.0239 78.157 41.9431C78.4733 42.7464 79.1465 43.1953 80.1764 43.2894C96.0489 38.9923 111.981 35.8511 127.969 33.8655C171.645 35.4934 204.403 55.0143 226.246 92.4282C222.297 96.9519 220.052 102.113 219.515 107.91C218.617 108.808 217.721 109.705 216.823 110.603C202.808 77.7929 178.575 65.4522 144.124 73.5804C141.304 74.3284 141.079 75.0015 143.451 75.5998C145.828 74.6123 148.296 74.1636 150.855 74.2535C147.518 75.9968 143.928 77.3431 140.085 78.2923C140.126 76.9498 139.453 76.0523 138.066 75.5998C127.596 80.2359 119.743 87.6404 114.506 97.8132C114.6 98.8429 115.049 99.516 115.852 99.8326C115.194 101.846 114.298 103.641 113.16 105.218C113.356 101.93 112.235 101.032 109.794 102.525C105.129 114.308 103.558 126.424 105.082 138.874C104.785 142.371 104.112 142.371 103.063 138.874C101.377 144.21 100.704 149.371 101.044 154.356C105.209 163.035 109.248 171.785 113.16 180.609C111.369 185.117 112.043 185.566 115.179 181.955C123.592 190.817 133.689 196.876 145.47 200.13C150.302 200.408 155.014 201.081 159.606 202.149C161.953 199.697 163.972 197.005 165.664 194.071C165.791 196.413 166.016 199.105 166.338 202.149C170.376 202.149 174.415 202.149 178.454 202.149C178.869 201.061 179.542 200.163 180.473 199.456C182.001 200.268 183.348 200.717 184.512 200.803C179.248 205.56 175.658 211.394 173.742 218.304C172.008 210.935 167.744 210.038 160.952 215.612C160.504 215.163 160.054 214.714 159.606 214.265C157.507 218.567 155.038 222.606 152.202 226.382C151.753 225.934 151.304 225.484 150.855 225.036C152.779 222.571 153.452 219.878 152.875 216.958C150.36 219.995 148.341 223.361 146.817 227.055C144.354 227.422 142.335 228.545 140.758 230.421C138.996 227.202 137.65 227.202 136.72 230.421C135.753 229.14 134.632 228.917 133.354 229.747C131.819 232.404 130.025 234.873 127.969 237.152C127.521 236.704 127.071 236.254 126.623 235.806C128.336 231.71 130.579 227.895 133.354 224.362C130.345 224.272 127.428 224.945 124.603 226.382C121.733 224.659 118.817 224.659 115.852 226.382C113.258 230.219 110.341 233.809 107.102 237.152C108.156 234.668 108.604 231.976 108.448 229.074C103.953 230.215 99.016 229.766 93.639 227.728C89.642 231.232 86.2763 235.271 83.542 239.845C65.7188 236.317 50.0119 228.465 36.4227 216.285C35.1464 215.635 33.8001 215.411 32.3838 215.612C5.31053 186.266 -2.31823 152.161 9.49729 113.295C9.83009 111.662 10.7275 110.764 12.1898 110.603C13.2699 112.467 14.1674 112.243 14.8824 109.93C17.6195 101.99 21.2094 94.5858 25.6525 87.7162C26.7566 89.9242 27.8784 92.1681 29.0182 94.4476C29.899 96.0572 30.5722 96.0572 31.0376 94.4476C29.3241 88.6139 26.1828 84.1264 21.6137 80.9849C21.6137 80.5362 21.6137 80.0873 21.6137 79.6386C23.7687 81.1771 24.6662 80.2796 24.3062 76.9461C23.896 73.2084 22.5498 69.8427 20.2674 66.8491C21.134 60.2071 22.0315 53.7001 22.96 47.3282C26.1696 41.3037 30.2084 34.7968 35.0764 27.8073C41.486 24.1457 48.2173 23.4726 55.2704 25.7879Z" fill="#443D37"/>
<path fill-rule="evenodd" clip-rule="evenodd" d="M59.3091 47.3287C61.5385 49.9677 63.7827 52.6602 66.0404 55.4064C55.7967 63.1992 46.8211 72.1744 39.1151 82.3317C36.6445 73.1459 35.747 63.722 36.4225 54.0601C38.9449 42.0286 45.6768 38.6629 56.6166 43.9631C57.8026 44.9166 58.6992 46.0385 59.3091 47.3287Z" fill="#CE8475"/>
<path fill-rule="evenodd" clip-rule="evenodd" d="M66.0404 55.4064C68.5499 57.2017 70.1196 59.4451 70.7524 62.1374C69.4061 63.9324 68.0598 63.9324 66.7136 62.1374C66.4228 64.6736 65.5248 66.9174 64.021 68.8687C63.6064 67.7808 62.9332 66.8834 62.0016 66.1762C61.1993 67.8134 60.9744 69.6084 61.3285 71.5613C59.8463 74.111 58.0517 75.0085 55.9434 74.2538C54.6012 80.5593 52.5818 81.4569 49.8852 76.9463C48.7974 79.5356 48.1243 82.2281 47.8658 85.0239C47.3085 84.4082 46.6353 83.9594 45.8464 83.6777C42.9842 90.5951 40.74 90.1467 39.1151 82.3317C46.8211 72.1744 55.7967 63.1992 66.0404 55.4064Z" fill="#AC6453"/>
<path fill-rule="evenodd" clip-rule="evenodd" d="M202.014 68.8687C206.126 69.8737 208.371 72.5662 208.745 76.9463C207.442 82.5456 204.749 83.4431 200.667 79.6389C198.785 75.6872 199.234 72.0972 202.014 68.8687Z" fill="#090706"/>
<path fill-rule="evenodd" clip-rule="evenodd" d="M179.127 75.5993C204.794 87.4121 216.685 107.607 214.803 136.181C206.33 170.23 184.564 186.162 149.509 183.974C136.827 180.487 126.507 173.532 118.545 163.107C106.497 144.783 104.703 125.487 113.16 105.218C114.298 103.641 115.194 101.846 115.852 99.8326C116.301 99.8326 116.75 99.8321 117.199 99.8321C133.596 80.9034 154.24 72.8258 179.127 75.5993Z" fill="#716257"/>
<path fill-rule="evenodd" clip-rule="evenodd" d="M140.085 78.2923C129.817 82.7387 122.188 89.9182 117.199 99.8321C116.75 99.8321 116.301 99.8326 115.852 99.8326C115.049 99.516 114.6 98.8429 114.506 97.8132C119.743 87.6404 127.596 80.2359 138.066 75.5998C139.453 76.0523 140.126 76.9498 140.085 78.2923Z" fill="#201D1A"/>
<path fill-rule="evenodd" clip-rule="evenodd" d="M179.127 75.5993C154.24 72.8258 133.596 80.9034 117.199 99.8321C122.188 89.9182 129.817 82.7387 140.085 78.2923C143.928 77.3431 147.518 75.9968 150.855 74.2535C160.403 72.3946 169.827 72.8428 179.127 75.5993Z" fill="#DFDEDC"/>
<path fill-rule="evenodd" clip-rule="evenodd" d="M25.6525 87.7162C21.2094 94.5858 17.6195 101.99 14.8824 109.93C14.1674 112.243 13.2699 112.467 12.1898 110.603C14.7993 102.687 18.1649 95.0582 22.2867 87.7166C23.6023 86.002 24.7244 86.0016 25.6525 87.7162Z" fill="#7C7875"/>
<path fill-rule="evenodd" clip-rule="evenodd" d="M78.1568 99.8329C83.3951 100.121 86.0876 103.038 86.2344 108.584C80.992 117.085 77.4028 116.412 75.4642 106.564C75.3794 103.853 76.276 101.609 78.1568 99.8329Z" fill="#0A0807"/>
<path d="M232.978 180.609C225.935 193.326 217.858 205.442 208.745 216.958C207.257 218.439 205.463 219.337 203.36 219.651C202.77 219.738 202.32 219.515 202.013 218.977C215.043 206.147 224.467 191.115 230.285 173.877C235.532 158.176 236.878 142.021 234.324 125.412C224.006 124.049 219.07 118.216 219.515 107.91C220.052 102.113 222.297 96.9519 226.246 92.4282C204.403 55.0143 171.645 35.4934 127.969 33.8655C110.867 33.8075 94.2624 36.5 78.157 41.9431C77.4259 42.0239 76.9776 42.4726 76.8107 43.2894C78.884 44.6788 79.5571 46.4738 78.8301 48.6744C72.508 40.3431 64.6539 32.7142 55.2704 25.7879C45.0307 19.3546 36.2791 21.1497 29.018 31.173C25.8356 36.1792 23.8163 41.5643 22.96 47.3282C22.0315 53.7001 21.134 60.2071 20.2674 66.8491C22.5498 69.8427 23.896 73.2084 24.3062 76.9461C24.6662 80.2796 23.7687 81.1771 21.6137 79.6386C15.7937 63.5002 16.4666 47.7937 23.6329 32.5193C28.1861 24.345 34.9175 19.4086 43.8269 17.7103C57.6114 18.8825 67.7084 25.6138 74.118 37.9043C73.9416 39.0842 74.3899 39.9818 75.4642 40.5969C90.6313 33.8452 106.562 30.2551 123.257 29.8267C137.64 30.691 151.776 32.9348 165.664 36.5581C167.659 26.2473 173.493 18.8428 183.166 14.3446C196.422 11.4792 203.379 16.6399 204.033 29.8267C203.517 29.0782 202.844 28.6295 202.013 28.4804C200.499 19.1032 195.114 15.2886 185.858 17.0372C177.968 21.1133 172.134 27.1715 168.357 35.2118C178.171 41.1185 187.818 47.401 197.302 54.0595C197.827 53.3867 198.069 52.645 198.028 51.8345C198.008 51.6808 197.99 51.5249 197.975 51.367C198.003 51.5253 198.021 51.6812 198.028 51.8345C198.542 55.6499 200.768 58.1866 204.706 59.4446C209.695 46.4176 211.266 32.9549 209.418 19.0566C209.095 15.8907 207.973 13.1982 206.052 10.979C200.759 4.75543 194.027 2.73603 185.858 4.92075C180.555 7.33206 176.068 10.6977 172.396 15.0178C165.905 19.6986 160.97 25.5324 157.587 32.5193C161.378 18.6155 169.904 8.51852 183.166 2.22822C199.029 -3.44523 209.574 1.71556 214.803 17.7103C217.303 33.1766 214.834 47.7613 207.399 61.464C215.683 69.2967 222.415 78.2719 227.593 88.3894C233.711 86.8436 239.994 86.3949 246.44 87.0431C258.795 93.1514 261.712 102.351 255.191 114.642C251.667 120.778 246.505 124.817 239.709 126.758C241.222 134.766 241.446 142.843 240.382 150.991C238.791 158.674 237.445 166.303 236.343 173.877L232.978 180.609Z" fill="#0F0D0C"/>
<path fill-rule="evenodd" clip-rule="evenodd" d="M249.133 93.1017C256.537 105.749 253.845 115.846 241.055 123.393C230.733 124.066 224.45 119.354 222.208 109.257C224.446 106.574 226.017 103.433 226.919 99.833C232.119 91.4256 239.075 89.6306 247.787 94.448C248.604 94.2816 249.052 93.8329 249.133 93.1017Z" fill="#C37E6E"/>
<path fill-rule="evenodd" clip-rule="evenodd" d="M249.133 93.1017C249.052 93.8329 248.604 94.2816 247.787 94.448C239.075 89.6306 232.119 91.4256 226.919 99.833C226.017 103.433 224.446 106.574 222.208 109.257C222.655 98.2611 228.264 91.5296 239.036 89.0627C242.896 89.5186 246.261 90.865 249.133 93.1017Z" fill="#D4C8BD"/>
<path fill-rule="evenodd" clip-rule="evenodd" d="M59.3091 47.3287C58.6992 46.0385 57.8026 44.9166 56.6166 43.9631C45.6768 38.6629 38.9449 42.0286 36.4225 54.0601C35.3333 56.4729 34.6601 59.1643 34.4031 62.1366C33.73 61.4635 33.0569 60.7904 32.3837 60.1172C32.6061 50.2814 37.0937 42.6526 45.8464 37.2307C53.4097 36.5249 59.2445 39.4418 63.3479 45.9814C62.2372 47.1738 60.891 47.6236 59.3091 47.3287Z" fill="#16110E"/>
<path fill-rule="evenodd" clip-rule="evenodd" d="M127.969 33.8655C111.981 35.8511 96.0489 38.9923 80.1764 43.2894C79.1465 43.1953 78.4733 42.7464 78.157 41.9431C94.2624 36.5 110.867 33.8075 127.969 33.8655Z" fill="#C2C0BF"/>
<path fill-rule="evenodd" clip-rule="evenodd" d="M55.2704 25.7879C48.2173 23.4726 41.486 24.1457 35.0764 27.8073C30.2084 34.7968 26.1696 41.3037 22.96 47.3282C23.8163 41.5643 25.8356 36.1792 29.018 31.173C36.2791 21.1497 45.0307 19.3546 55.2704 25.7879Z" fill="#D5D4D3"/>
<path fill-rule="evenodd" clip-rule="evenodd" d="M202.013 28.4804C202.159 36.4124 200.813 44.0412 197.975 51.367C198.151 52.3618 197.926 53.2593 197.302 54.0595C187.818 47.401 178.171 41.1185 168.357 35.2118C172.134 27.1715 177.968 21.1133 185.858 17.0372C195.114 15.2886 200.499 19.1032 202.013 28.4804Z" fill="#BF7565"/>
<path fill-rule="evenodd" clip-rule="evenodd" d="M206.052 10.979C207.973 13.1982 209.095 15.8907 209.418 19.0566C211.266 32.9549 209.695 46.4176 204.706 59.4446C200.609 58.1359 198.365 55.4434 197.975 51.367C200.813 44.0412 202.159 36.4124 202.013 28.4804C202.844 28.6295 203.517 29.0782 204.033 29.8267C203.379 16.6399 196.422 11.4792 183.166 14.3446C173.493 18.8428 167.659 26.2473 165.664 36.5581C151.776 32.9348 137.64 30.691 123.257 29.8267C106.562 30.2551 90.6313 33.8452 75.4642 40.5969C74.3899 39.9818 73.9416 39.0842 74.118 37.9043C101.35 26.3004 129.172 24.5055 157.587 32.5193C160.97 25.5324 165.905 19.6986 172.396 15.0178C176.359 12.5795 180.398 10.1116 184.512 7.61348C192.342 5.71659 199.298 7.28714 205.379 12.3254C205.916 12.0179 206.14 11.5689 206.052 10.979Z" fill="#3F3832"/>
<path fill-rule="evenodd" clip-rule="evenodd" d="M206.052 10.979C206.14 11.5689 205.916 12.0179 205.379 12.3254C199.298 7.28714 192.342 5.71659 184.512 7.61348C180.398 10.1116 176.359 12.5795 172.396 15.0178C176.068 10.6977 180.555 7.33206 185.858 4.92075C194.027 2.73603 200.759 4.75543 206.052 10.979Z" fill="#ADAAA8"/>
<path fill-rule="evenodd" clip-rule="evenodd" d="M185.858 142.914C178.189 148.313 169.663 151.903 160.279 153.684C160.446 154.501 160.894 154.949 161.625 155.03C162.177 161.986 161.279 168.717 158.933 175.224C150.579 180.302 145.419 178.058 143.451 168.493C142.389 163.658 142.613 158.946 144.124 154.357C130.366 153.222 125.205 146.266 128.642 133.49C130.331 132.532 131.901 131.411 133.354 130.124C141.878 130.922 150.406 130.697 158.933 129.451C158.035 123.617 157.138 117.783 156.24 111.949C152.731 110.848 149.14 110.175 145.47 109.93C138.732 106.727 138.283 102.689 144.124 97.8135C152.572 91.0815 161.323 90.4084 170.376 95.7941C171.778 100.016 170.655 103.382 167.011 105.891C164.097 107.122 161.405 108.693 158.933 110.603C160.007 116.852 160.904 123.134 161.625 129.451C170.164 127.201 178.241 123.836 185.858 119.354C193.961 118.63 196.879 122.444 194.609 130.797C192.436 135.428 189.52 139.467 185.858 142.914Z" fill="#1C1916"/>
<path fill-rule="evenodd" clip-rule="evenodd" d="M160.279 95.7935C155.676 97.3292 150.74 100.022 145.47 103.871C144.653 103.705 144.205 103.256 144.124 102.525C148.229 97.3346 153.614 95.0909 160.279 95.7935Z" fill="#EECFBC"/>
<path fill-rule="evenodd" clip-rule="evenodd" d="M160.279 95.7935C164.092 93.6243 166.784 94.7462 168.357 99.1593C166.578 102.732 163.886 105.425 160.279 107.237C155.342 108.135 150.407 108.135 145.47 107.237C143.032 105.835 142.583 104.265 144.124 102.525C144.205 103.256 144.653 103.705 145.47 103.871C150.74 100.022 155.676 97.3292 160.279 95.7935Z" fill="#E3682E"/>
<path fill-rule="evenodd" clip-rule="evenodd" d="M64.6941 129.451C85.0779 129.386 92.9307 139.26 88.2537 159.069C82.8391 166.355 75.4346 169.946 66.0403 169.839C49.5674 166.106 44.4071 156.234 50.5582 140.221C54.4422 135.174 59.1542 131.584 64.6941 129.451Z" fill="#14110F"/>
<path fill-rule="evenodd" clip-rule="evenodd" d="M72.7719 134.836C69.7199 137.915 69.7199 140.832 72.7719 143.587C71.8349 146.135 70.7121 148.603 69.4062 150.991C68.5257 152.601 67.8526 152.601 67.3868 150.991C68.5621 148.416 69.9084 145.947 71.4256 143.587C69.631 142.689 67.8351 142.689 66.0405 143.587C63.4853 147.46 61.0176 151.274 58.6361 155.03C56.8455 156.487 54.8261 157.384 52.5779 157.722C50.4938 152.432 50.9421 147.495 53.9241 142.913C56.4107 140.769 59.5529 138.301 63.348 135.509C66.4579 134.84 69.5987 134.616 72.7719 134.836Z" fill="#996A5E"/>
<path fill-rule="evenodd" clip-rule="evenodd" d="M80.8494 136.182C89.1249 143.877 89.5732 151.955 82.1957 160.415C80.5128 160.311 79.3914 159.413 78.83 157.722C77.0677 160.941 75.7215 160.941 74.7912 157.722C73.7963 160.039 72.6735 162.282 71.4255 164.454C71.4282 159.745 72.9979 155.256 76.1374 150.991C77.0354 149.645 77.0354 148.299 76.1374 146.952C72.5052 152.422 69.5879 158.257 67.3867 164.454C66.9384 164.005 66.4887 163.556 66.0404 163.107C68.3641 157.113 71.0566 151.279 74.118 145.606C75.6676 143.949 77.2373 143.949 78.83 145.606C80.1763 144.708 81.5225 143.811 82.8688 142.913C83.795 141.793 83.5702 140.897 82.1957 140.221C81.1752 141.986 79.8289 142.659 78.1568 142.24C79.6135 140.45 80.5115 138.43 80.8494 136.182Z" fill="#93675B"/>
<path fill-rule="evenodd" clip-rule="evenodd" d="M78.1568 133.489C76.719 134.747 74.9246 135.197 72.7719 134.836C69.5987 134.616 66.4579 134.84 63.348 135.509C59.5529 138.301 56.4107 140.769 53.9241 142.913C58.9996 132.501 67.0771 129.36 78.1568 133.489Z" fill="#D7CABE"/>
<path fill-rule="evenodd" clip-rule="evenodd" d="M78.1568 133.489C79.5031 133.938 80.4011 134.836 80.8494 136.182C80.5115 138.43 79.6135 140.45 78.1568 142.24C79.8289 142.659 81.1752 141.986 82.1957 140.221C83.5702 140.897 83.795 141.793 82.8688 142.913C81.5225 143.811 80.1763 144.708 78.83 145.606C77.2373 143.949 75.6676 143.949 74.118 145.606C71.0566 151.279 68.3641 157.113 66.0404 163.107C66.4887 163.556 66.9384 164.005 67.3867 164.454C69.5879 158.257 72.5052 152.422 76.1374 146.952C77.0354 148.299 77.0354 149.645 76.1374 150.991C72.9979 155.256 71.4282 159.745 71.4255 164.454C72.6735 162.282 73.7963 160.039 74.7912 157.722C75.7215 160.941 77.0677 160.941 78.83 157.722C79.3914 159.413 80.5128 160.311 82.1957 160.415C81.1321 162.157 79.7858 163.728 78.1568 165.127C71.3367 167.331 64.6053 167.331 57.9628 165.127C55.3524 163.199 53.5579 160.731 52.5779 157.722C54.8261 157.384 56.8455 156.487 58.6361 155.03C61.0176 151.274 63.4853 147.46 66.0405 143.587C67.8351 142.689 69.631 142.689 71.4256 143.587C69.9084 145.947 68.5621 148.416 67.3868 150.991C67.8526 152.601 68.5257 152.601 69.4062 150.991C70.7121 148.603 71.8349 146.135 72.7719 143.587C69.7199 140.832 69.7199 137.915 72.7719 134.836C74.9246 135.197 76.719 134.747 78.1568 133.489Z" fill="#B67769"/>
<path fill-rule="evenodd" clip-rule="evenodd" d="M219.515 107.91C219.07 118.216 224.006 124.049 234.324 125.412C236.878 142.021 235.532 158.176 230.285 173.877C213.625 202.426 190.289 223.743 160.279 237.825C141.955 242.863 123.331 245.331 104.409 245.23C97.0585 244.467 90.1024 242.672 83.542 239.845C86.2763 235.271 89.642 231.232 93.639 227.728C99.016 229.766 103.953 230.215 108.448 229.074C108.604 231.976 108.156 234.668 107.102 237.152C110.341 233.809 113.258 230.219 115.852 226.382C118.817 224.659 121.733 224.659 124.603 226.382C127.428 224.945 130.345 224.272 133.354 224.362C130.579 227.895 128.336 231.71 126.623 235.806C127.071 236.254 127.521 236.704 127.969 237.152C130.025 234.873 131.819 232.404 133.354 229.747C134.632 228.917 135.753 229.14 136.72 230.421C137.65 227.202 138.996 227.202 140.758 230.421C142.335 228.545 144.354 227.422 146.817 227.055C148.341 223.361 150.36 219.995 152.875 216.958C153.452 219.878 152.779 222.571 150.855 225.036C151.304 225.484 151.753 225.934 152.202 226.382C155.038 222.606 157.507 218.567 159.606 214.265C160.054 214.714 160.504 215.163 160.952 215.612C167.744 210.038 172.008 210.935 173.742 218.304C175.658 211.394 179.248 205.56 184.512 200.803C183.348 200.717 182.001 200.268 180.473 199.456C179.542 200.163 178.869 201.061 178.454 202.149C174.415 202.149 170.376 202.149 166.338 202.149C166.016 199.105 165.791 196.413 165.664 194.071C163.972 197.005 161.953 199.697 159.606 202.149C155.014 201.081 150.302 200.408 145.47 200.13C133.689 196.876 123.592 190.817 115.179 181.955C112.043 185.566 111.369 185.117 113.16 180.609C109.248 171.785 105.209 163.035 101.044 154.356C100.704 149.371 101.377 144.21 103.063 138.874C104.112 142.371 104.785 142.371 105.082 138.874C108.012 161.082 119.23 177.911 138.739 189.36C174.173 199.889 199.977 189.344 216.149 157.722C218.722 150.006 220.741 142.153 222.208 134.163C222.062 131.9 221.164 130.329 219.515 129.451C219.717 122.987 218.82 116.705 216.823 110.603C217.721 109.705 218.617 108.808 219.515 107.91Z" fill="#3B352F"/>
<path fill-rule="evenodd" clip-rule="evenodd" d="M216.823 110.603C218.82 116.705 219.717 122.987 219.515 129.451C215.48 162.21 197.082 181.506 164.318 187.339C144.397 187.922 128.692 180.294 117.199 164.453C117.366 163.636 117.814 163.187 118.545 163.107C126.507 173.532 136.827 180.487 149.509 183.974C184.564 186.162 206.33 170.23 214.803 136.181C216.685 107.607 204.794 87.4121 179.127 75.5993C169.827 72.8428 160.403 72.3946 150.855 74.2535C148.296 74.1636 145.828 74.6123 143.451 75.5998C141.079 75.0015 141.304 74.3284 144.124 73.5804C178.575 65.4522 202.808 77.7929 216.823 110.603Z" fill="#0F0D0C"/>
<path fill-rule="evenodd" clip-rule="evenodd" d="M113.16 105.218C104.703 125.487 106.497 144.783 118.545 163.107C117.814 163.187 117.366 163.636 117.199 164.453C128.692 180.294 144.397 187.922 164.318 187.339C197.082 181.506 215.48 162.21 219.515 129.451C221.164 130.329 222.062 131.9 222.208 134.163C220.741 142.153 218.722 150.006 216.149 157.722C199.977 189.344 174.173 199.889 138.739 189.36C119.23 177.911 108.012 161.082 105.082 138.874C103.558 126.424 105.129 114.308 109.794 102.525C112.235 101.032 113.356 101.93 113.16 105.218Z" fill="#2A2622"/>
<path fill-rule="evenodd" clip-rule="evenodd" d="M148.163 149.645C152.406 148.916 155.772 150.263 158.26 153.683C159.372 160.535 158.922 167.266 156.914 173.877C152.467 177.495 148.878 176.598 146.143 171.185C144.724 163.627 145.398 156.446 148.163 149.645Z" fill="#C72650"/>
<path fill-rule="evenodd" clip-rule="evenodd" d="M150.855 150.991C152.965 155.591 153.638 160.527 152.875 165.8C150.97 161.145 150.297 156.208 150.855 150.991Z" fill="#4E1F11"/>
<path fill-rule="evenodd" clip-rule="evenodd" d="M185.858 142.914C189.011 143.284 189.011 144.405 185.858 146.279C178.113 150.428 170.036 153.346 161.625 155.03C160.894 154.949 160.446 154.501 160.279 153.684C169.663 151.903 178.189 148.313 185.858 142.914Z" fill="#C3C0BE"/>
<path fill-rule="evenodd" clip-rule="evenodd" d="M230.285 173.877C224.467 191.115 215.043 206.147 202.013 218.977C202.32 219.515 202.77 219.738 203.36 219.651C203.536 220.645 203.311 221.544 202.687 222.343C182.588 241.701 158.58 252.92 130.661 256C133.567 253.684 137.157 252.563 141.431 252.634C139.637 252.186 137.841 251.736 136.046 251.288C101.248 255.377 69.8356 246.851 41.8076 225.709C38.39 222.518 35.2488 219.152 32.3838 215.612C33.8001 215.411 35.1464 215.635 36.4227 216.285C50.0119 228.465 65.7188 236.317 83.542 239.845C90.1024 242.672 97.0585 244.467 104.409 245.23C123.331 245.331 141.955 242.863 160.279 237.825C190.289 223.743 213.625 202.426 230.285 173.877Z" fill="#231F1C"/>
<path d="M31.0376 94.4476C29.3241 88.6139 26.1828 84.1264 21.6137 80.9849C13.4106 91.3968 7.35237 103.065 3.43904 115.988C2.09277 121.822 -0.465141 134.567 0.073366 138.875V150.991C0.229399 155.515 0.67811 160.002 1.41963 164.454C4.60329 179.362 10.4371 193.275 18.9211 206.188C20.8766 208.004 22.2228 210.247 22.9599 212.919C25.4644 214.857 27.7082 217.1 29.6913 219.651C32.9154 224.176 36.9542 227.766 41.8077 230.421C66.0957 246.804 93.0211 255.106 122.584 255.327C128.193 254.878 139.816 253.711 141.431 252.634C139.637 252.186 137.841 251.736 136.046 251.288C101.248 255.377 69.8356 246.851 41.8076 225.709C38.39 222.518 35.2488 219.152 32.3838 215.612C5.31053 186.266 -2.31823 152.161 9.49729 113.295C9.83009 111.662 10.7275 110.764 12.1898 110.603C14.7993 102.687 18.1649 95.0582 22.2867 87.7166C23.6023 86.002 24.7244 86.0016 25.6525 87.7162L29.0182 94.4476C29.899 96.0572 30.5722 96.0572 31.0376 94.4476Z" fill="#14110F"/>
</svg>
