<?xml version="1.0" encoding="UTF-8" standalone="no"?>
<svg
   width="259"
   height="259"
   viewBox="0 0 259 259"
   fill="none"
   version="1.1"
   id="svg34"
   sodipodi:docname="zustand.svg"
   inkscape:version="1.3 (0e150ed6c4, 2023-07-21)"
   inkscape:export-filename="zustand.png"
   inkscape:export-xdpi="189.77606"
   inkscape:export-ydpi="189.77606"
   xmlns:inkscape="http://www.inkscape.org/namespaces/inkscape"
   xmlns:sodipodi="http://sodipodi.sourceforge.net/DTD/sodipodi-0.dtd"
   xmlns="http://www.w3.org/2000/svg"
   xmlns:svg="http://www.w3.org/2000/svg">
  <defs
     id="defs34" />
  <sodipodi:namedview
     id="namedview34"
     pagecolor="#ffffff"
     bordercolor="#666666"
     borderopacity="1.0"
     inkscape:showpageshadow="2"
     inkscape:pageopacity="0.0"
     inkscape:pagecheckerboard="0"
     inkscape:deskcolor="#d1d1d1"
     inkscape:zoom="1.5214844"
     inkscape:cx="104.83184"
     inkscape:cy="160.04108"
     inkscape:window-width="1920"
     inkscape:window-height="1017"
     inkscape:window-x="-8"
     inkscape:window-y="-8"
     inkscape:window-maximized="1"
     inkscape:current-layer="svg34" />
  <path
     fill-rule="evenodd"
     clip-rule="evenodd"
     d="m 68.497944,41.235051 c 8.058487,5.94826 14.803535,12.499909 20.232913,19.654774 0.624342,-1.889861 0.04629,-3.431395 -1.734248,-4.624602 0.143333,-0.701463 0.52833,-1.086803 1.156194,-1.156194 0.271636,0.689869 0.849776,1.075381 1.734247,1.156194 13.63119,-3.690321 27.31357,-6.387963 41.04396,-8.093183 37.50866,1.39803 65.64101,18.162448 84.39963,50.293256 -3.39137,3.884924 -5.31936,8.317244 -5.78053,13.295674 -0.7712,0.77119 -1.54068,1.54153 -2.31187,2.31273 -12.03599,-28.177102 -32.84713,-38.775213 -62.43342,-31.794769 -2.4218,0.642378 -2.61503,1.220431 -0.57797,1.734247 2.04135,-0.848058 4.16086,-1.233398 6.35851,-1.156193 -2.8658,1.497134 -5.94886,2.653328 -9.24921,3.468495 0.0352,-1.152931 -0.54275,-1.923698 -1.7339,-2.312302 -8.99157,3.981452 -15.73567,10.340387 -20.23317,19.076722 0.0807,0.8843 0.46632,1.46235 1.15593,1.73425 -0.56508,1.72909 -1.33456,3.27063 -2.31187,4.62494 0.16833,-2.82371 -0.79438,-3.59491 -2.8907,-2.31273 -4.00627,10.11916 -5.35543,20.52431 -4.04663,31.21628 -0.25506,3.0032 -0.83303,3.0032 -1.7339,0 -1.44793,4.58253 -2.0259,9.01476 -1.73391,13.29584 3.57688,7.45347 7.04554,14.96791 10.40514,22.5459 -1.5381,3.87144 -0.95927,4.25704 1.73391,1.15594 7.22502,7.61063 15.89626,12.81405 26.01371,15.60857 4.14968,0.23874 8.19632,0.81671 12.1399,1.7339 2.01559,-2.10576 3.74949,-4.41763 5.20257,-6.93733 0.10906,2.01129 0.30229,4.32316 0.57882,6.93733 3.46781,0 6.93648,0 10.40514,0 0.3564,-0.93437 0.93437,-1.70556 1.73391,-2.31273 1.31223,0.69734 2.46903,1.08294 3.46866,1.1568 -4.52068,4.08528 -7.60375,9.09548 -9.2492,15.02974 -1.48915,-6.32845 -5.15104,-7.09879 -10.98397,-2.31187 -0.38474,-0.3856 -0.77119,-0.7712 -1.15593,-1.1568 -1.80261,3.69453 -3.92297,7.1632 -6.35851,10.406 -0.3856,-0.38474 -0.77119,-0.7712 -1.15679,-1.15594 1.65232,-2.11692 2.23028,-4.42965 1.73476,-6.93733 -2.15987,2.60816 -3.89377,5.49886 -5.20257,8.67124 -2.11521,0.31518 -3.84911,1.2796 -5.20343,2.8907 -1.51319,-2.76446 -2.66913,-2.76446 -3.46781,0 -0.83045,-1.10012 -1.79316,-1.29163 -2.89069,-0.57883 -1.31825,2.28181 -2.85893,4.40217 -4.62461,6.35936 -0.38474,-0.38473 -0.77119,-0.77119 -1.15593,-1.15593 1.47111,-3.51762 3.39738,-6.79392 5.78054,-9.82803 -2.58411,-0.0773 -5.08921,0.50067 -7.51531,1.73476 -2.46473,-1.4797 -4.96897,-1.4797 -7.5153,0 -2.22771,3.29519 -4.73281,6.37826 -7.51444,9.2492 0.90517,-2.13324 1.28991,-4.44511 1.15594,-6.93733 -3.86028,0.97989 -8.10014,0.59429 -12.71787,-1.15593 -3.432596,3.00921 -6.323036,6.47787 -8.671235,10.40599 -15.306445,-3.02982 -28.795426,-9.77306 -40.46574,-20.23317 -1.096078,-0.55821 -2.252272,-0.75058 -3.468581,-0.57796 -23.250344,-25.20215 -29.801872,-54.4913 -19.654782,-87.86916 0.285806,-1.40241 1.056496,-2.17361 2.31231,-2.31187 0.927583,1.60079 1.69835,1.40842 2.312387,-0.57797 2.350603,-6.81882 5.433585,-13.1775 9.24929,-19.077068 0.948194,1.896216 1.911588,3.823262 2.89044,5.780888 0.756426,1.38231 1.334565,1.38231 1.734248,0 -1.471543,-5.009949 -4.16927,-8.863784 -8.093183,-11.561684 0,-0.38534 0,-0.770852 0,-1.156193 1.8507,1.321254 2.621467,0.550486 2.312301,-2.312301 -0.352277,-3.209912 -1.508384,-6.100353 -3.468494,-8.671236 0.74423,-5.704106 1.514997,-11.292274 2.312387,-16.764419 2.756383,-5.1738 6.224877,-10.761883 10.405483,-16.764419 5.504522,-3.144557 11.285317,-3.722611 17.342473,-1.734247 z"
     fill="#443d37"
     id="path1"
     style="stroke-width:0.858793" />
  <path
     fill-rule="evenodd"
     clip-rule="evenodd"
     d="m 71.966352,59.734147 c 1.914594,2.266355 3.841898,4.578656 5.780796,6.937074 -8.797221,6.692405 -16.505407,14.400247 -23.123268,23.123268 -2.121735,-7.888703 -2.892502,-15.981886 -2.312387,-24.279461 2.16622,-10.332572 7.947531,-13.223013 17.342558,-8.671236 1.018529,0.818859 1.788523,1.782339 2.312301,2.890355 z"
     fill="#ce8475"
     id="path2"
     style="stroke-width:0.858793" />
  <path
     fill-rule="evenodd"
     clip-rule="evenodd"
     d="m 77.747148,66.671221 c 2.155142,1.541792 3.503189,3.468409 4.046634,5.780538 -1.156194,1.541534 -2.312387,1.541534 -3.468495,0 -0.249737,2.178072 -1.020933,4.105032 -2.312386,5.780796 -0.356056,-0.934282 -0.934196,-1.704963 -1.734248,-2.312301 -0.68901,1.406016 -0.882152,2.94755 -0.578054,4.624688 -1.272903,2.189665 -2.814093,2.960432 -4.624687,2.312301 -1.152673,5.415121 -2.88692,6.185974 -5.202742,2.312301 -0.934196,2.223673 -1.512249,4.535974 -1.734247,6.936989 -0.478606,-0.528759 -1.056746,-0.914186 -1.734248,-1.156108 -2.458038,5.940617 -4.385342,5.555534 -5.780795,-1.155936 6.617861,-8.723021 14.326047,-16.430863 23.123268,-23.123268 z"
     fill="#ac6453"
     id="path3"
     style="stroke-width:0.858793" />
  <path
     fill-rule="evenodd"
     clip-rule="evenodd"
     d="m 194.52036,78.232555 c 3.53136,0.863087 5.45935,3.175388 5.78054,6.936989 -1.119,4.808641 -3.43174,5.579408 -6.93733,2.312387 -1.61625,-3.393694 -1.23065,-6.476762 1.15679,-9.249376 z"
     fill="#090706"
     id="path4"
     style="stroke-width:0.858793" />
  <path
     fill-rule="evenodd"
     clip-rule="evenodd"
     d="m 174.86516,84.012749 c 22.04265,10.144754 32.25456,27.488001 30.63831,52.027161 -7.27655,29.24106 -25.96905,42.92335 -56.07405,41.04431 -10.89122,-2.99461 -19.75396,-8.96752 -26.59168,-17.92044 -10.34674,-15.73653 -11.88741,-32.3078 -4.6246,-49.71469 0.97731,-1.35431 1.74679,-2.89585 2.31187,-4.62494 0.3856,0 0.7712,-4.3e-4 1.1568,-4.3e-4 14.08163,-16.255845 31.81056,-23.192834 53.18335,-20.810971 z"
     fill="#716257"
     id="path5"
     style="stroke-width:0.858793" />
  <path
     fill-rule="evenodd"
     clip-rule="evenodd"
     d="m 141.33615,86.32548 c -8.81809,3.818538 -15.36982,9.984245 -19.65434,18.49824 -0.3856,0 -0.7712,4.3e-4 -1.1568,4.3e-4 -0.68961,-0.2719 -1.07521,-0.84995 -1.15593,-1.73425 4.4975,-8.736335 11.2416,-15.09527 20.23317,-19.076722 1.19115,0.388604 1.76911,1.159371 1.7339,2.312302 z"
     fill="#201d1a"
     id="path6"
     style="stroke-width:0.858793" />
  <path
     fill-rule="evenodd"
     clip-rule="evenodd"
     d="m 174.86516,84.012749 c -21.37279,-2.381863 -39.10172,4.555126 -53.18335,20.810971 4.28452,-8.513995 10.83625,-14.679702 19.65434,-18.49824 3.30035,-0.815167 6.38341,-1.971361 9.24921,-3.468495 8.19976,-1.596411 16.29302,-1.2115 24.2798,1.155764 z"
     fill="#dfdedc"
     id="path7"
     style="stroke-width:0.858793" />
  <path
     fill-rule="evenodd"
     clip-rule="evenodd"
     d="m 43.062289,94.418662 c -3.815705,5.899568 -6.898687,12.258248 -9.24929,19.077068 -0.614037,1.98639 -1.384804,2.17876 -2.312387,0.57797 2.241021,-6.79821 5.131376,-13.34977 8.67115,-19.654695 1.129829,-1.472487 2.093481,-1.47283 2.890527,-3.43e-4 z"
     fill="#7c7875"
     id="path8"
     style="stroke-width:0.858793" />
  <path
     fill-rule="evenodd"
     clip-rule="evenodd"
     d="m 88.152631,104.82441 c 4.498617,0.24741 6.810918,2.75251 6.936989,7.51538 -4.502138,7.30061 -7.584519,6.72264 -9.249376,-1.73476 -0.07282,-2.32819 0.697169,-4.25532 2.312387,-5.78062 z"
     fill="#0a0807"
     id="path9"
     style="stroke-width:0.858793" />
  <path
     d="m 221.11204,174.19438 c -6.04848,10.92128 -12.98495,21.32642 -20.81114,31.21628 -1.27788,1.27188 -2.81856,2.04307 -4.6246,2.31273 -0.50669,0.0747 -0.89314,-0.11679 -1.15679,-0.57882 11.19007,-11.01832 19.28334,-23.9277 24.2798,-38.73158 4.50609,-13.48392 5.66203,-27.35772 3.46867,-41.62142 -8.86103,-1.17054 -13.10004,-6.17988 -12.71787,-15.0306 0.46117,-4.97843 2.38916,-9.41075 5.78053,-13.295674 C 196.57202,66.334488 168.43967,49.57007 130.93101,48.17204 c -14.68708,-0.04981 -28.947,2.262491 -42.778207,6.936989 -0.627864,0.06939 -1.012861,0.454731 -1.156194,1.156194 1.780537,1.193207 2.35859,2.734741 1.734248,4.624602 C 83.301479,53.73496 76.556431,47.183311 68.497944,41.235051 59.704158,35.710176 52.188342,37.251796 45.952558,45.859739 c -2.733024,4.299291 -4.467186,8.923979 -5.20257,13.873978 -0.79739,5.472145 -1.568157,11.060313 -2.312387,16.764419 1.96011,2.570883 3.116217,5.461324 3.468494,8.671236 0.309166,2.862787 -0.461601,3.633555 -2.312301,2.312301 -4.998177,-13.85955 -4.420295,-27.348188 1.734076,-40.46574 3.910258,-7.020035 9.691139,-11.259382 17.342472,-12.717871 11.838037,1.006678 20.509273,6.787473 26.013795,17.342473 -0.151491,1.01329 0.233506,1.784143 1.156107,2.312387 13.025405,-5.798315 26.706576,-8.881469 41.044136,-9.249376 12.35202,0.742255 24.49193,2.669215 36.41885,5.780881 1.71329,-8.854846 6.72349,-15.213781 15.0306,-19.076805 11.38416,-2.460787 17.35879,1.971188 17.92044,13.295924 -0.44314,-0.642807 -1.02111,-1.028148 -1.73476,-1.156194 -1.30022,-8.053077 -5.92482,-11.32903 -13.87381,-9.827344 -6.77588,3.500528 -11.78608,8.70327 -15.02974,15.608226 8.4282,5.072634 16.71297,10.468003 24.85777,16.186279 0.45087,-0.577797 0.6587,-1.214764 0.62348,-1.910816 -0.0172,-0.131996 -0.0326,-0.265882 -0.0455,-0.401485 0.024,0.135947 0.0395,0.269832 0.0455,0.401485 0.44142,3.276641 2.3531,5.455142 5.73503,6.535504 4.28452,-11.187501 5.63368,-22.749178 4.04663,-34.684945 -0.27739,-2.718854 -1.24096,-5.031155 -2.8907,-6.936989 -4.54559,-5.344761 -10.32699,-7.079008 -17.34247,-5.202785 -4.55418,2.070817 -8.40759,4.961206 -11.56108,8.671279 -5.57442,4.01984 -9.81257,9.029869 -12.71787,15.030172 3.25569,-11.940491 10.57776,-20.61171 21.96708,-26.013778 13.62304,-4.872321 22.67901,-0.440269 27.16964,13.295907 2.14699,13.282355 0.0266,25.807598 -6.3585,37.575386 7.11424,6.72667 12.89564,14.434512 17.34247,23.123354 5.2541,-1.327523 10.6499,-1.712864 16.18568,-1.156194 10.61039,5.245767 13.11549,13.146322 7.5153,23.701752 -3.02639,5.26956 -7.45948,8.73823 -13.29584,10.40514 1.29935,6.87722 1.49172,13.81369 0.57797,20.81114 -1.36634,6.59811 -2.52228,13.14985 -3.46867,19.65435 z"
     fill="#0f0d0c"
     id="path10"
     style="stroke-width:0.858793" />
  <path
     fill-rule="evenodd"
     clip-rule="evenodd"
     d="m 234.98585,99.043693 c 6.3585,10.861417 4.04663,19.532657 -6.93733,26.013967 -8.86447,0.57797 -14.26027,-3.46866 -16.18568,-12.1399 1.92198,-2.30414 3.27114,-5.00161 4.04577,-8.09327 4.46573,-7.22022 10.43949,-8.761754 17.9213,-4.6246 0.70164,-0.1429 1.08638,-0.528243 1.15594,-1.156197 z"
     fill="#c37e6e"
     id="path11"
     style="stroke-width:0.858793" />
  <path
     fill-rule="evenodd"
     clip-rule="evenodd"
     d="m 234.98585,99.043693 c -0.0696,0.627954 -0.4543,1.013297 -1.15594,1.156197 -7.48181,-4.137154 -13.45557,-2.59562 -17.9213,4.6246 -0.77463,3.09166 -2.12379,5.78913 -4.04577,8.09327 0.38388,-9.44321 5.20085,-15.224176 14.45177,-17.342733 3.31494,0.391524 6.20478,1.547803 8.67124,3.468666 z"
     fill="#d4c8bd"
     id="path12"
     style="stroke-width:0.858793" />
  <path
     fill-rule="evenodd"
     clip-rule="evenodd"
     d="m 71.966352,59.734147 c -0.523778,-1.108016 -1.293772,-2.071496 -2.312301,-2.890355 -9.395027,-4.551777 -15.176338,-1.661336 -17.342558,8.671236 -0.935398,2.072096 -1.513537,4.383453 -1.734247,6.936044 -0.578054,-0.578054 -1.156108,-1.156107 -1.734248,-1.734247 0.190996,-8.446919 4.044917,-14.998482 11.561677,-19.654773 6.495312,-0.606137 11.506199,1.898877 15.030172,7.515042 -0.953862,1.024025 -2.10997,1.410311 -3.468495,1.157053 z"
     fill="#16110e"
     id="path13"
     style="stroke-width:0.858793" />
  <path
     fill-rule="evenodd"
     clip-rule="evenodd"
     d="m 130.93101,48.17204 c -13.73039,1.70522 -27.41277,4.402862 -41.04396,8.093183 -0.884471,-0.08081 -1.462611,-0.466325 -1.734247,-1.156194 13.831207,-4.674498 28.091127,-6.986799 42.778207,-6.936989 z"
     fill="#c2c0bf"
     id="path14"
     style="stroke-width:0.858793" />
  <path
     fill-rule="evenodd"
     clip-rule="evenodd"
     d="m 68.497944,41.235051 c -6.057156,-1.988364 -11.837951,-1.41031 -17.342473,1.734247 -4.180606,6.002536 -7.6491,11.590619 -10.405483,16.764419 0.735384,-4.949999 2.469546,-9.574687 5.20257,-13.873978 6.235784,-8.607943 13.7516,-10.149563 22.545386,-4.624688 z"
     fill="#d5d4d3"
     id="path15"
     style="stroke-width:0.858793" />
  <path
     fill-rule="evenodd"
     clip-rule="evenodd"
     d="m 194.51951,43.547352 c 0.12538,6.811949 -1.03056,13.363511 -3.46781,19.65486 0.15115,0.854327 -0.0421,1.625094 -0.57797,2.312301 -8.1448,-5.718276 -16.42957,-11.113645 -24.85777,-16.186279 3.24366,-6.904956 8.25386,-12.107698 15.02974,-15.608226 7.94899,-1.501686 12.57359,1.774267 13.87381,9.827344 z"
     fill="#bf7565"
     id="path16"
     style="stroke-width:0.858793" />
  <path
     fill-rule="evenodd"
     clip-rule="evenodd"
     d="m 197.98817,28.517267 c 1.64974,1.905834 2.61331,4.218135 2.8907,6.936989 1.58705,11.935767 0.23789,23.497444 -4.04663,34.684945 -3.51848,-1.123903 -5.44561,-3.436204 -5.78054,-6.936989 2.43725,-6.291349 3.59319,-12.842911 3.46781,-19.65486 0.71365,0.128046 1.29162,0.513387 1.73476,1.156194 -0.56165,-11.324736 -6.53628,-15.756711 -17.92044,-13.295924 -8.30711,3.863024 -13.31731,10.221959 -15.0306,19.076805 -11.92692,-3.111666 -24.06683,-5.038626 -36.41885,-5.780881 -14.33756,0.367907 -28.018731,3.451061 -41.044136,9.249376 -0.922601,-0.528244 -1.307598,-1.299097 -1.156107,-2.312387 23.386653,-9.965352 47.280003,-11.5068 71.682613,-4.624602 2.9053,-6.000303 7.14345,-11.010332 12.71787,-15.030172 3.4034,-2.093996 6.87207,-4.213412 10.40514,-6.35878 6.72436,-1.629037 12.69812,-0.280259 17.92044,4.046565 0.46118,-0.264079 0.65355,-0.649677 0.57797,-1.156279 z"
     fill="#3f3832"
     id="path17"
     style="stroke-width:0.858793" />
  <path
     fill-rule="evenodd"
     clip-rule="evenodd"
     d="m 197.98817,28.517267 c 0.0756,0.506602 -0.11679,0.8922 -0.57797,1.156279 -5.22232,-4.326824 -11.19608,-5.675602 -17.92044,-4.046565 -3.53307,2.145368 -7.00174,4.264784 -10.40514,6.35878 3.15349,-3.710073 7.0069,-6.600462 11.56108,-8.671279 7.01548,-1.876223 12.79688,-0.141976 17.34247,5.202785 z"
     fill="#adaaa8"
     id="path18"
     style="stroke-width:0.858793" />
  <path
     fill-rule="evenodd"
     clip-rule="evenodd"
     d="m 180.6457,141.82217 c -6.58609,4.63662 -13.90816,7.71969 -21.96707,9.2492 0.14341,0.70164 0.52815,1.08638 1.15593,1.15594 0.47406,5.97377 -0.29714,11.7543 -2.31187,17.34247 -7.17436,4.36095 -11.60573,2.43382 -13.29584,-5.78054 -0.91204,-4.15226 -0.71967,-8.1989 0.57797,-12.1399 -11.81528,-0.97473 -16.24751,-6.9485 -13.29584,-17.92044 1.4505,-0.82272 2.79881,-1.78543 4.04664,-2.8907 7.32035,0.68532 14.64414,0.49209 21.96707,-0.57797 -0.7712,-5.0102 -1.54153,-10.0204 -2.31273,-15.0306 -3.01351,-0.94553 -6.09743,-1.5235 -9.2492,-1.7339 -5.78655,-2.75072 -6.17215,-6.21852 -1.15594,-10.40557 7.25509,-5.781401 14.77039,-6.359455 22.54504,-1.73425 1.20403,3.62574 0.2396,6.51644 -2.88984,8.67115 -2.50252,1.05718 -4.81439,2.40634 -6.93733,4.04664 0.92234,5.3666 1.69268,10.76154 2.31187,16.18653 7.33324,-1.93228 14.26971,-4.82212 20.81114,-8.67123 6.9588,-0.62177 9.46476,2.65367 7.5153,9.82717 -1.86616,3.97707 -4.3704,7.44574 -7.5153,10.406 z"
     fill="#1c1916"
     id="path19"
     style="stroke-width:0.858793" />
  <path
     fill-rule="evenodd"
     clip-rule="evenodd"
     d="m 158.67863,101.3554 c -3.95303,1.31884 -8.19203,3.6314 -12.71787,6.9369 -0.70164,-0.14256 -1.08638,-0.52816 -1.15594,-1.15594 3.52535,-4.45748 8.14995,-6.38435 13.87381,-5.78096 z"
     fill="#eecfbc"
     id="path20"
     style="stroke-width:0.858793" />
  <path
     fill-rule="evenodd"
     clip-rule="evenodd"
     d="m 158.67863,101.3554 c 3.27457,-1.862903 5.58645,-0.89942 6.93733,2.89052 -1.5278,3.06821 -3.83967,5.38094 -6.93733,6.93708 -4.23987,0.77119 -8.47801,0.77119 -12.71787,0 -2.09374,-1.20403 -2.47934,-2.55234 -1.15594,-4.04664 0.0696,0.62778 0.4543,1.01338 1.15594,1.15594 4.52584,-3.3055 8.76484,-5.61806 12.71787,-6.9369 z"
     fill="#e3682e"
     id="path21"
     style="stroke-width:0.858793" />
  <path
     fill-rule="evenodd"
     clip-rule="evenodd"
     d="m 76.590954,130.26023 c 17.505472,-0.0558 24.249396,8.42391 20.232828,25.43575 -4.650023,6.25716 -11.008958,9.34109 -19.07672,9.2492 -14.146817,-3.20588 -18.578448,-11.68388 -13.295924,-25.43574 3.335553,-4.33433 7.382187,-7.4174 12.139816,-9.24921 z"
     fill="#14110f"
     id="path22"
     style="stroke-width:0.858793" />
  <path
     fill-rule="evenodd"
     clip-rule="evenodd"
     d="m 83.528115,134.88484 c -2.621037,2.64422 -2.621037,5.14932 0,7.5153 -0.804689,2.1882 -1.768942,4.3077 -2.890441,6.3585 -0.756167,1.38266 -1.334221,1.38266 -1.734247,0 1.00934,-2.21139 2.165533,-4.33175 3.468495,-6.3585 -1.541191,-0.7712 -3.083498,-0.7712 -4.624688,0 -2.194389,3.3261 -4.313633,6.60154 -6.35885,9.82717 -1.537755,1.25126 -3.272002,2.0216 -5.202741,2.31187 -1.789812,-4.54302 -1.404815,-8.78288 1.156107,-12.71787 2.135476,-1.84125 4.833976,-3.96075 8.093183,-6.35851 2.670761,-0.57453 5.368059,-0.7669 8.093182,-0.57796 z"
     fill="#996a5e"
     id="path23"
     style="stroke-width:0.858793" />
  <path
     fill-rule="evenodd"
     clip-rule="evenodd"
     d="m 90.465018,136.04077 c 7.106944,6.60842 7.491941,13.54575 1.156194,20.81114 -1.445264,-0.0893 -2.408315,-0.86051 -2.890441,-2.31273 -1.513452,2.76446 -2.669559,2.76446 -3.468495,0 -0.854413,1.98982 -1.818666,3.9161 -2.89044,5.7814 0.0023,-4.04406 1.350366,-7.89918 4.046548,-11.56194 0.771196,-1.15593 0.771196,-2.31187 0,-3.46866 -3.119309,4.6976 -5.624667,9.70866 -7.515043,15.0306 -0.384997,-0.3856 -0.771196,-0.7712 -1.156193,-1.1568 1.995578,-5.1476 4.307879,-10.1578 6.936989,-15.02974 1.330786,-1.42302 2.678834,-1.42302 4.046634,0 1.156193,-0.7712 2.312301,-1.54153 3.468494,-2.31273 0.795415,-0.96185 0.602358,-1.73133 -0.578053,-2.31187 -0.876399,1.51577 -2.032592,2.09374 -3.468581,1.7339 1.251004,-1.53724 2.022201,-3.272 2.312387,-5.20257 z"
     fill="#93675b"
     id="path24"
     style="stroke-width:0.858793" />
  <path
     fill-rule="evenodd"
     clip-rule="evenodd"
     d="m 88.152631,133.72804 c -1.234773,1.08036 -2.775792,1.46682 -4.624516,1.1568 -2.725123,-0.18894 -5.422421,0.003 -8.093182,0.57796 -3.259207,2.39776 -5.957707,4.51726 -8.093183,6.35851 4.358806,-8.94176 11.295709,-11.63923 20.810881,-8.09327 z"
     fill="#d7cabe"
     id="path25"
     style="stroke-width:0.858793" />
  <path
     fill-rule="evenodd"
     clip-rule="evenodd"
     d="m 88.152631,133.72804 c 1.156194,0.3856 1.92739,1.1568 2.312387,2.31273 -0.290186,1.93057 -1.061383,3.66533 -2.312387,5.20257 1.435989,0.35984 2.592182,-0.21813 3.468581,-1.7339 1.180411,0.58054 1.373468,1.35002 0.578053,2.31187 -1.156193,0.7712 -2.312301,1.54153 -3.468494,2.31273 -1.3678,-1.42302 -2.715848,-1.42302 -4.046634,0 -2.62911,4.87194 -4.941411,9.88214 -6.936989,15.02974 0.384997,0.3856 0.771196,0.7712 1.156193,1.1568 1.890376,-5.32194 4.395734,-10.333 7.515043,-15.0306 0.771196,1.15679 0.771196,2.31273 0,3.46866 -2.696182,3.66276 -4.04423,7.51788 -4.046548,11.56194 1.071774,-1.8653 2.036027,-3.79158 2.89044,-5.7814 0.798936,2.76446 1.955043,2.76446 3.468495,0 0.482126,1.45222 1.445177,2.22342 2.890441,2.31273 -0.913413,1.49602 -2.069606,2.84518 -3.468581,4.04664 -5.857056,1.89278 -11.637938,1.89278 -17.342472,0 -2.241794,-1.65576 -3.782899,-3.77526 -4.624516,-6.35937 1.930739,-0.29027 3.664986,-1.06061 5.202741,-2.31187 2.045217,-3.22563 4.164461,-6.50107 6.35885,-9.82717 1.54119,-0.7712 3.083497,-0.7712 4.624688,0 -1.302962,2.02675 -2.459155,4.14711 -3.468495,6.3585 0.400026,1.38266 0.97808,1.38266 1.734247,0 1.121499,-2.0508 2.085752,-4.1703 2.890441,-6.3585 -2.621037,-2.36598 -2.621037,-4.87108 0,-7.5153 1.848724,0.31002 3.389743,-0.0764 4.624516,-1.1568 z"
     fill="#b67769"
     id="path26"
     style="stroke-width:0.858793" />
  <path
     fill-rule="evenodd"
     clip-rule="evenodd"
     d="m 209.55011,111.76097 c -0.38217,8.85072 3.85684,13.86006 12.71787,15.0306 2.19336,14.2637 1.03742,28.1375 -3.46867,41.62142 -14.3075,24.51769 -34.3483,42.82458 -60.12068,54.91811 -15.73653,4.3266 -31.7307,6.44611 -47.98079,6.35937 -6.31256,-0.65526 -12.286407,-2.1968 -17.920435,-4.62461 2.348199,-3.92812 5.238639,-7.39678 8.671235,-10.40599 4.61773,1.75022 8.85759,2.13582 12.71787,1.15593 0.13397,2.49222 -0.25077,4.80409 -1.15594,6.93733 2.78163,-2.87094 5.28673,-5.95401 7.51444,-9.2492 2.54633,-1.4797 5.05057,-1.4797 7.5153,0 2.4261,-1.23409 4.9312,-1.81205 7.51531,-1.73476 -2.38316,3.03411 -4.30943,6.31041 -5.78054,9.82803 0.38474,0.38474 0.77119,0.7712 1.15593,1.15593 1.76568,-1.95719 3.30636,-4.07755 4.62461,-6.35936 1.09753,-0.7128 2.06024,-0.52129 2.89069,0.57883 0.79868,-2.76446 1.95462,-2.76446 3.46781,0 1.35432,-1.6111 3.08822,-2.57552 5.20343,-2.8907 1.3088,-3.17238 3.0427,-6.06308 5.20257,-8.67124 0.49552,2.50768 -0.0824,4.82041 -1.73476,6.93733 0.3856,0.38474 0.77119,0.7712 1.15679,1.15594 2.43554,-3.2428 4.5559,-6.71147 6.35851,-10.406 0.38474,0.3856 0.77119,0.7712 1.15593,1.1568 5.83293,-4.78692 9.49482,-4.01658 10.98397,2.31187 1.64545,-5.93426 4.72852,-10.94446 9.2492,-15.02974 -0.99963,-0.0739 -2.15643,-0.45946 -3.46866,-1.1568 -0.79954,0.60717 -1.37751,1.37836 -1.73391,2.31273 -3.46866,0 -6.93733,0 -10.40514,0 -0.27653,-2.61417 -0.46976,-4.92604 -0.57882,-6.93733 -1.45308,2.5197 -3.18698,4.83157 -5.20257,6.93733 -3.94358,-0.91719 -7.99022,-1.49516 -12.1399,-1.7339 -10.11745,-2.79452 -18.78869,-7.99794 -26.01371,-15.60857 -2.69318,3.1011 -3.27201,2.7155 -1.73391,-1.15594 -3.3596,-7.57799 -6.82826,-15.09243 -10.40514,-22.5459 -0.29199,-4.28108 0.28598,-8.71331 1.73391,-13.29584 0.90087,3.0032 1.47884,3.0032 1.7339,0 2.51626,19.07209 12.15021,33.52472 28.90441,43.35704 30.43048,9.04224 52.59078,-0.0137 66.47919,-27.1705 2.20967,-6.62645 3.94358,-13.37055 5.20343,-20.23231 -0.12539,-1.94345 -0.89658,-3.29261 -2.31273,-4.04664 0.17347,-5.55124 -0.59686,-10.94618 -2.31187,-16.18653 0.77119,-0.7712 1.54067,-1.54154 2.31187,-2.31273 z"
     fill="#3b352f"
     id="path27"
     style="stroke-width:0.858793" />
  <path
     fill-rule="evenodd"
     clip-rule="evenodd"
     d="m 207.23824,114.0737 c 1.71501,5.24035 2.48534,10.63529 2.31187,16.18653 -3.46523,28.13322 -19.26531,44.70449 -47.40282,49.71383 -17.10802,0.50068 -30.59537,-6.0502 -40.46548,-19.65434 0.14342,-0.70164 0.52816,-1.08723 1.15593,-1.15594 6.83772,8.95292 15.70046,14.92583 26.59168,17.92044 30.105,1.87904 48.7975,-11.80325 56.07405,-41.04431 1.61625,-24.53916 -8.59566,-41.882407 -30.63831,-52.027161 -7.98678,-2.367264 -16.08004,-2.752175 -24.2798,-1.155764 -2.19765,-0.07721 -4.31716,0.308135 -6.35851,1.156193 -2.03706,-0.513816 -1.84383,-1.091869 0.57797,-1.734247 29.58629,-6.980444 50.39743,3.617667 62.43342,31.794769 z"
     fill="#0f0d0c"
     id="path28"
     style="stroke-width:0.858793" />
  <path
     fill-rule="evenodd"
     clip-rule="evenodd"
     d="m 118.21314,109.44909 c -7.26281,17.40689 -5.72214,33.97816 4.6246,49.71469 -0.62777,0.0687 -1.01251,0.4543 -1.15593,1.15594 9.87011,13.60414 23.35746,20.15502 40.46548,19.65434 28.13751,-5.00934 43.93759,-21.58061 47.40282,-49.71383 1.41615,0.75403 2.18734,2.10319 2.31273,4.04664 -1.25985,6.86176 -2.99376,13.60586 -5.20343,20.23231 -13.88841,27.15676 -36.04871,36.21274 -66.47919,27.1705 -16.7542,-9.83232 -26.38815,-24.28495 -28.90441,-43.35704 -1.3088,-10.69197 0.0404,-21.09712 4.04663,-31.21628 2.09632,-1.28218 3.05903,-0.51098 2.8907,2.31273 z"
     fill="#2a2622"
     id="path29"
     style="stroke-width:0.858793" />
  <path
     fill-rule="evenodd"
     clip-rule="evenodd"
     d="m 148.27349,147.60271 c 3.64386,-0.62606 6.53455,0.53073 8.67123,3.4678 0.95498,5.88446 0.56852,11.66499 -1.15593,17.34248 -3.81906,3.10711 -6.90127,2.33677 -9.25007,-2.31187 -1.21862,-6.49076 -0.6398,-12.65776 1.73477,-18.49841 z"
     fill="#c72650"
     id="path30"
     style="stroke-width:0.858793" />
  <path
     fill-rule="evenodd"
     clip-rule="evenodd"
     d="m 150.58536,148.75864 c 1.81205,3.95045 2.39002,8.18946 1.73476,12.71787 -1.636,-3.99768 -2.21397,-8.23754 -1.73476,-12.71787 z"
     fill="#4e1f11"
     id="path31"
     style="stroke-width:0.858793" />
  <path
     fill-rule="evenodd"
     clip-rule="evenodd"
     d="m 180.6457,141.82217 c 2.70778,0.31775 2.70778,1.28046 0,2.88984 -6.65135,3.56313 -13.58783,6.06909 -20.81114,7.5153 -0.62778,-0.0696 -1.01252,-0.4543 -1.15593,-1.15594 8.05891,-1.52951 15.38098,-4.61258 21.96707,-9.2492 z"
     fill="#c3c0be"
     id="path32"
     style="stroke-width:0.858793" />
  <path
     fill-rule="evenodd"
     clip-rule="evenodd"
     d="m 218.79931,168.41299 c -4.99646,14.80388 -13.08973,27.71326 -24.2798,38.73158 0.26365,0.46203 0.6501,0.65354 1.15679,0.57882 0.15115,0.85364 -0.0421,1.6257 -0.57797,2.31187 -17.26088,16.62453 -37.87879,26.25933 -61.85545,28.90441 2.49566,-1.98896 5.57873,-2.95167 9.24921,-2.8907 -1.54068,-0.38474 -3.08307,-0.77119 -4.6246,-1.15593 -29.88429,3.5116 -56.86105,-3.81047 -80.931309,-21.96708 -2.935012,-2.74041 -5.632654,-5.63111 -8.093097,-8.67123 1.216309,-0.17262 2.372503,0.0198 3.468581,0.57796 11.670314,10.46011 25.159295,17.20335 40.46574,20.23317 5.634028,2.42781 11.607875,3.96935 17.920435,4.62461 16.25009,0.0867 32.24426,-2.03277 47.98079,-6.35937 25.77238,-12.09353 45.81318,-30.40042 60.12068,-54.91811 z"
     fill="#231f1c"
     id="path33"
     style="stroke-width:0.858793" />
  <path
     d="m 47.686977,100.19955 c -1.471543,-5.009949 -4.16927,-8.863784 -8.093183,-11.561684 -7.044767,8.941671 -12.247535,18.962244 -15.608277,30.060434 -1.156168,5.0102 -3.352884,15.95552 -2.890418,19.6552 v 10.40514 c 0.134,3.88518 0.51935,7.73859 1.156162,11.56194 2.734106,12.80289 7.744143,24.75128 15.030146,35.84088 1.679371,1.55957 2.835478,3.48584 3.468495,5.78054 2.150848,1.66434 4.077808,3.59061 5.780881,5.78139 2.768836,3.88604 6.23733,6.96911 10.405484,9.24921 20.858372,14.06961 43.981723,21.19931 69.370143,21.3891 4.81697,-0.38559 14.79873,-1.38781 16.18568,-2.31273 -1.54068,-0.38474 -3.08307,-0.77119 -4.6246,-1.15593 -29.88429,3.5116 -56.86105,-3.81047 -80.931309,-21.96708 -2.935012,-2.74041 -5.632654,-5.63111 -8.093097,-8.67123 -23.250344,-25.20215 -29.801872,-54.4913 -19.654782,-87.86916 0.285806,-1.40241 1.056496,-2.17361 2.31231,-2.31187 2.241021,-6.79821 5.131376,-13.34977 8.67115,-19.654695 1.129829,-1.472487 2.093481,-1.47283 2.890527,-3.43e-4 l 2.89044,5.780888 c 0.756426,1.38231 1.334565,1.38231 1.734248,0 z"
     fill="#14110f"
     id="path34"
     style="stroke-width:0.858793" />
</svg>
