<svg id="Layer_1" data-name="Layer 1" xmlns="http://www.w3.org/2000/svg" viewBox="0 0 122.88 122.88"><defs><style>.cls-1{fill:#5fb57d;fill-rule:evenodd;}.cls-2{fill:#fff;}</style></defs><title>atom-ide</title><path class="cls-1" d="M61.44,0A61.44,61.44,0,1,1,0,61.44,61.44,61.44,0,0,1,61.44,0Z"/><path class="cls-2" d="M72.7,57.75a1.54,1.54,0,1,1,2.76-1.35c4.19,8.6,6.72,17,7.4,23.62.73,7.09-.69,12.39-4.43,14.29S69.28,94.1,63.8,89c-5.15-4.74-10.61-12.11-15.16-21l-.41-.8C47.59,66,47,64.7,46.42,63.43a62.65,62.65,0,0,0-5.34,14c-1.38,6-1,10.52,1.35,12.11a5.38,5.38,0,0,0,4.22.31,21.78,21.78,0,0,0,6.92-3.55,1.53,1.53,0,1,1,1.78,2.5,24.54,24.54,0,0,1-7.94,4,8.28,8.28,0,0,1-6.65-.71h0c-3.56-2.38-4.31-8.08-2.64-15.35a69,69,0,0,1,6.79-17,79.2,79.2,0,0,1-3-8.91,46.6,46.6,0,0,0-4.84,1.25c-5.7,1.81-9.29,4.33-9.43,7.16v.07A4.86,4.86,0,0,0,29,62.74a17.38,17.38,0,0,0,5.15,3.77,1.53,1.53,0,1,1-1.41,2.72,20.23,20.23,0,0,1-6.06-4.51,7.79,7.79,0,0,1-2.1-5.56v0c.21-4.25,4.61-7.72,11.56-9.93a51.19,51.19,0,0,1,5.07-1.3c-.34-1.63-.6-3.18-.76-4.66-.8-7.26.61-12.7,4.43-14.65l0,0a7.49,7.49,0,0,1,5.84-.24,22.07,22.07,0,0,1,6.7,3.75,1.54,1.54,0,0,1-1.88,2.43,19.22,19.22,0,0,0-5.72-3.26,4.7,4.7,0,0,0-3.54,0l0,0c-2.57,1.31-3.44,5.63-2.78,11.6.15,1.4.4,2.89.72,4.44a81.18,81.18,0,0,1,9.41-.88A70.55,70.55,0,0,1,65.93,34c5.93-4.51,11.4-6.2,15-4l0,0a8.14,8.14,0,0,1,3.37,5.53A22.37,22.37,0,0,1,84,44a1.53,1.53,0,0,1-3-.6,19.64,19.64,0,0,0,.34-7.26,5.21,5.21,0,0,0-2-3.52c-2.41-1.5-6.64.07-11.54,3.79a64.32,64.32,0,0,0-10.14,10q1.75,0,3.57.09l1,0C72.07,47,81,49,87.44,51.75c6.87,2.94,11,6.91,10.85,11.23v.09a8.32,8.32,0,0,1-2.87,5.18A20.79,20.79,0,0,1,89,72.07a1.53,1.53,0,0,1-1.14-2.84A17.79,17.79,0,0,0,93.34,66a5.35,5.35,0,0,0,1.89-3.18c.09-2.9-3.35-5.84-9-8.25-6.13-2.63-14.69-4.5-24.23-5l-.94-.05q-3-.12-5.88-.06c-1.33,1.76-2.64,3.61-3.91,5.55-1.08,1.66-2.08,3.32-3,5C49.07,61.93,50,63.91,51,65.9l.39.78C55.75,75.2,61,82.27,65.87,86.79c4.52,4.16,8.6,6.09,11.18,4.78s3.36-5.44,2.76-11.23C79.17,74,76.74,66,72.7,57.75Zm-11-.74a4.35,4.35,0,1,1-4.35,4.35A4.34,4.34,0,0,1,61.69,57ZM45,50.34c.51,1.93,1.14,3.94,1.89,6,.6-1,1.22-2,1.87-3,.83-1.28,1.68-2.51,2.54-3.71-2.2.14-4.31.37-6.3.68Z"/></svg>