<?xml version="1.0" encoding="UTF-8" standalone="no"?>
<svg
   width="1000"
   height="1000"
   viewBox="0 0 204.8 204.70829"
   preserveAspectRatio="xMinYMin"
   version="1.1"
   id="svg6"
   sodipodi:docname="babel.svg"
   inkscape:version="1.2 (dc2aedaf03, 2022-05-15)"
   xmlns:inkscape="http://www.inkscape.org/namespaces/inkscape"
   xmlns:sodipodi="http://sodipodi.sourceforge.net/DTD/sodipodi-0.dtd"
   xmlns="http://www.w3.org/2000/svg"
   xmlns:svg="http://www.w3.org/2000/svg">
  <defs
     id="defs10" />
  <sodipodi:namedview
     id="namedview8"
     pagecolor="#ffffff"
     bordercolor="#666666"
     borderopacity="1.0"
     inkscape:showpageshadow="2"
     inkscape:pageopacity="0.0"
     inkscape:pagecheckerboard="0"
     inkscape:deskcolor="#d1d1d1"
     showgrid="false"
     inkscape:zoom="0.48311157"
     inkscape:cx="887.99364"
     inkscape:cy="635.46398"
     inkscape:window-width="1920"
     inkscape:window-height="1017"
     inkscape:window-x="1912"
     inkscape:window-y="-8"
     inkscape:window-maximized="1"
     inkscape:current-layer="svg6" />
  <path
     d="m 156.91081,97.935756 c -0.21246,-1.34399 -4.14053,-6.228579 -11.74959,-14.65096 -0.14133,-1.628507 2.54758,-4.000139 8.03397,-7.078393 l 15.50077,-13.626118 c 3.46854,-4.458742 5.52102,-11.608266 6.19395,-21.446699 l -0.21245,-2.300501 c -0.6018,-6.936133 -5.62772,-12.528279 -15.0768,-16.845697 -5.59215,-3.786748 -15.64304,-5.8046 -30.15267,-6.122815 -12.03317,1.026709 -27.74734,5.308561 -47.070428,12.776299 -5.308561,3.856943 -11.360246,7.679257 -18.155054,11.466005 l 0.105759,1.203599 c 0.460475,-0.03556 1.061338,-0.282649 1.804462,-0.707559 0.778688,-0.07113 1.203598,0.282649 1.274728,0.991144 l 1.202662,-0.67293 0.6018,-0.03557 0.03556,0.566234 c 0.03556,0.566234 -4.176093,3.857879 -12.705169,9.873999 l 0.671994,1.062273 -0.600864,0.03557 -1.310293,-0.460475 c 0.03557,0.353779 -0.566234,0.601799 -1.804462,0.707559 l 0.07019,0.637364 1.416054,1.557377 c -0.459539,0.03557 -1.096903,-0.106695 -1.911157,-0.389344 -2.76004,0.24802 -5.449886,2.229371 -8.104166,5.98149 l 0.671993,1.061338 c 2.300501,-2.123611 3.645424,-3.184949 4.034768,-3.220514 l 0.141325,1.734267 c -0.389344,0.03556 -0.991144,0.282649 -1.804462,0.707558 l 1.450683,2.194742 c 2.740492,-2.962463 5.844254,-5.566856 9.23757,-7.751322 1.663137,0.424909 2.547585,0.955578 2.58315,1.521812 l 1.273793,-0.105759 c 9.130875,-6.76018 18.15599,-11.643831 27.109975,-14.651891 l 0.105759,1.202662 c -1.663137,2.477391 -2.795605,3.75212 -3.397404,3.822314 0.07113,0.849819 0.35378,1.592943 0.884448,2.230307 0.142261,1.521812 -3.928073,11.785155 -12.174499,30.754463 -18.721289,44.097005 -34.435453,76.727055 -47.210816,97.820915 0.03463,0.42397 0.282649,0.99021 0.743124,1.6987 3.149384,-0.74312 5.131671,-1.52181 5.980554,-2.26587 l 0.67293,-0.0702 0.105759,1.2036 1.168033,-0.10669 1.203599,-0.672 c 0.03556,0.35378 0.424909,0.53067 1.238227,0.45954 l 0.106695,1.2036 c 0.10576,1.16803 -0.566234,2.93693 -1.982287,5.37969 -1.273792,1.45068 -2.65428,4.49431 -4.104962,9.13088 l 0.03463,0.56623 1.168033,-0.1067 c 5.097042,-5.6979 8.953985,-11.29005 11.608266,-16.73993 14.864345,-4.35299 26.189962,-8.63484 34.046108,-12.8465 7.892647,-0.67292 13.908767,-2.76097 18.014665,-6.19394 l -0.07113,-0.63643 -2.972494,0.88445 -0.67293,0.0711 -0.07113,-0.63736 c 5.804601,-0.88445 9.803801,-2.15918 12.033171,-3.92808 11.29006,-8.7069 19.81913,-14.86434 25.58817,-18.50977 11.85535,-8.70596 19.5711,-17.20041 23.07427,-25.4459 2.1343,-1.6145 2.20714,-10.380664 2.12361,-12.281194 z M 52.153767,56.812185 l -0.601799,0.03463 -0.105759,-1.096903 2.441826,-0.212455 0.03556,0.566234 c -0.389345,0.03557 -0.991144,0.24802 -1.769833,0.708494 z M 40.227288,176.11442 c -1.416054,-0.63642 -2.689846,-0.88444 -3.786749,-0.77868 l -0.142261,-1.73427 c -0.07019,-0.67199 0.319151,-1.13247 1.168034,-1.30936 0.778688,-0.0702 1.239163,0.49604 1.309357,1.62851 2.053418,-2.51296 3.185886,-3.78675 3.39834,-3.82231 l 1.309358,0.53066 c -0.424909,3.53967 -1.521812,5.34413 -3.256079,5.48545 z M 167.67019,42.796723 c -0.6018,0.07113 -1.8054,-1.804461 -3.53966,-5.521016 l -0.10576,-1.096903 c 1.13247,-0.105759 2.3005,1.734268 3.53873,5.521016 z m -1.69964,-13.200272 -0.4951,1.168033 -17.30617,-7.219718 c 11.53713,0.389344 17.48306,2.406261 17.80127,6.051685 z m -73.081625,62.74809 -2.441826,0.212455 -0.106696,-1.097839 2.441826,-0.211519 z m -1.982287,-37.691532 0.601799,-0.03557 0.141324,1.734268 c -0.566234,0.03556 -1.309358,0.884448 -2.229371,2.512956 l -0.106695,-1.203599 c 1.097839,-1.309357 1.664073,-2.300501 1.592943,-3.008059 z m -5.131672,12.103369 0.212455,2.300501 -0.601799,0.03557 -0.212455,-2.300501 z m -2.689846,4.318354 1.168034,-0.106696 c -0.10576,1.911157 -0.636429,2.937866 -1.592007,3.00806 l -0.601799,0.03557 c 0.743123,-1.273792 1.096903,-2.264936 1.025772,-2.936929 z m -2.016916,6.016119 0.671994,-0.07113 0.03556,0.566234 -1.096903,1.840963 -1.168033,0.105759 -0.03557,-0.566234 c 1.168034,-0.10576 1.698703,-0.707559 1.592943,-1.875592 z m -1.982287,5.415257 -0.353779,2.901364 -0.601799,0.03557 -0.247084,-2.866735 z M 59.232161,138.9545 c -0.778689,3.96364 -1.628508,5.98055 -2.512956,6.05168 l -0.03557,-0.56623 c -0.212455,-1.94672 0.637364,-3.78675 2.548521,-5.48545 z m -3.645424,7.89171 0.03556,0.56623 c 0.07019,0.77869 -0.283585,1.23917 -1.062274,1.2738 L 54.525393,148.12 c -0.07113,-0.67199 0.282649,-1.0969 1.061338,-1.27379 z m -1.061338,16.38616 1.840026,-0.17689 0.07019,0.63736 c -0.459539,0.0346 -1.061338,0.28265 -1.804462,0.70756 l -1.168033,0.10576 c -0.07113,-0.60086 0.318214,-1.06134 1.061338,-1.27379 z m 52.378051,-16.17371 c -10.334472,5.09611 -16.421722,8.56464 -18.226184,10.36911 -11.183356,3.89344 -16.739937,6.2997 -16.634177,7.25528 -9.944193,3.92901 -16.491917,6.83131 -19.641302,8.63577 -0.743123,0.0711 -1.805397,-0.21246 -3.220514,-0.84982 -0.17689,-2.01692 0.743123,-3.64449 2.688909,-4.95385 1.734268,-0.14226 3.397405,0.10576 4.990347,0.77776 1.840963,-0.95558 5.061477,-2.01692 9.626915,-3.14939 l -0.106696,-1.20359 -3.680053,0.31915 c 0.459539,-0.63737 3.998268,-2.30051 10.651752,-4.99035 l 1.840962,-0.17689 0.03556,0.56623 c -3.15032,0.28265 -4.884587,1.2036 -5.273932,2.86674 0.07113,0.74312 0.49604,1.06134 1.274729,0.99114 2.370695,-1.48718 3.538729,-2.37163 3.503163,-2.61965 4.495244,-0.84888 16.916827,-7.36104 37.266621,-19.49998 l 0.1067,1.09691 c 0.0356,0.53066 -1.6987,2.01691 -5.2028,4.56543 z m -31.214937,10.26335 c 2.97343,-0.24802 5.521016,-1.45069 7.644627,-3.53873 0.848883,-0.0711 1.309358,0.24708 1.344923,0.99021 -1.451618,0.14226 -4.247223,1.34492 -8.316621,3.68098 l -0.601799,0.0356 z m 50.361137,-38.68268 -15.60747,12.35233 c -11.608266,7.60906 -17.83684,11.43044 -18.721289,11.50157 -18.474204,10.15758 -29.975774,15.43058 -34.435452,15.81992 l -0.671994,0.0702 c 0.566234,-2.08711 8.77616,-18.89817 24.702779,-50.53802 7.007263,-0.6018 18.049295,-3.85694 33.090526,-9.802874 l 3.68006,-0.31915 c 7.60906,-0.67199 13.30697,0.81425 17.05909,4.353924 l 0.21152,2.29956 c -2.83118,8.14067 -5.94499,12.883 -9.30777,14.26255 z m -30.506445,-17.16391 2.512956,-0.21246 0.03463,0.56624 -2.51202,0.21245 z m 35.284335,-5.981494 1.84097,-0.17689 c 1.6987,0.81425 2.58315,1.52181 2.65428,2.15918 l 0.0346,0.56623 c -1.62758,0.14132 -3.14939,-0.70756 -4.52988,-2.54852 z m 4.99035,-28.418398 c -1.62757,1.945786 -6.08725,5.272996 -13.3781,9.944193 -2.40626,0.212455 -11.36025,3.680989 -26.86102,10.475798 -0.774948,-0.354127 -1.628785,-0.500251 -2.477391,-0.423974 l -0.106695,-1.097839 c -0.17689,-2.229371 0.814254,-5.024976 3.00806,-8.42238 1.203598,-6.370835 2.512956,-10.016259 3.964574,-10.900707 L 112.88494,37.594857 c -0.14226,-1.805397 2.61872,-3.185885 8.28106,-4.141463 l 1.84003,-0.17689 0.14226,1.664073 c 5.55564,-0.849819 9.02418,-1.344923 10.3691,-1.451618 10.26334,-0.884449 15.60747,1.203598 16.03238,6.193945 l 1.16803,-0.106696 -0.24802,-2.936929 1.27379,-0.106695 c 3.00806,1.664072 4.63657,3.680989 4.84903,6.051684 0.14132,1.628508 -0.74313,3.645424 -2.61966,6.052621 -0.77775,0.07019 -1.23822,-0.49604 -1.30935,-1.628508 l -1.2738,0.106696 -0.28265,3.538728 c -5.2028,7.785952 -8.98955,11.785156 -11.32561,11.99761 -2.12361,2.937866 -3.43297,4.388548 -3.96364,4.424113 z m 7.92728,20.349796 c -1.06134,-0.708494 -1.91116,-1.026708 -2.54759,-0.991143 l -0.14226,-1.734268 1.16803,-0.105759 2.58409,1.521813 c 0.10576,0.813318 -0.24802,1.238227 -1.06227,1.309357 z m 8.21086,9.731742 c 1.13247,0.46047 1.8054,0.95557 1.94672,1.41605 l -0.56623,0.14132 0.0356,0.0356 c -0.10669,0 -0.24802,0.0356 -0.35471,0.0711 l -0.84889,0.67199 z m 0.77869,4.884584 -0.10576,-0.46047 1.48624,-0.35378 0.10576,0.46047 z m 3.57429,3.99921 c -0.15931,-0.0629 -0.44849,1.81228 -0.17689,0.70756 0.0711,-0.24802 0.14133,-0.49511 0.17689,-0.70756 z"
     id="path2"
     sodipodi:nodetypes="cccccccccccccccscccccccccccccccccccccccccccccccccccccccccccccccccccccccccccccccccccccccccccccccccccccccccccccccccccccccccccccccccccccccccccccccccccccccccccccccccccccccccccccccccccccccccccccccccccccccccccccccccccccccccccccccc"
     style="stroke-width:0.935924" />
  <path
     d="m 155.31787,95.104576 c -0.21152,-1.344918 -4.14053,-6.22857 -11.74959,-14.651886 -0.14133,-1.627572 2.54852,-3.999203 8.03397,-7.077457 l 15.50077,-13.626118 c 3.46854,-4.458742 5.52102,-11.608266 6.19395,-21.446699 l -0.21246,-2.300501 c -0.6018,-6.936133 -5.62677,-12.528279 -15.0768,-16.845697 -5.59121,-3.786748 -15.6421,-5.804601 -30.15266,-6.122815 -12.03318,1.025773 -27.74641,5.308561 -47.070431,12.776299 -5.308561,3.856943 -11.360246,7.679257 -18.155054,11.466005 l 0.105759,1.203599 c 0.460475,-0.03557 1.062274,-0.28265 1.805398,-0.707559 0.778689,-0.07113 1.203598,0.282649 1.273792,0.991144 l 1.203599,-0.67293 0.601799,-0.03557 0.03463,0.566234 c 0.03556,0.566234 -4.176093,3.857879 -12.705169,9.873999 l 0.67293,1.062273 -0.601799,0.03556 -1.309358,-0.460474 c 0.03556,0.353779 -0.566234,0.601799 -1.805398,0.707558 l 0.07113,0.637365 1.415117,1.557377 c -0.459539,0.03557 -1.096903,-0.106695 -1.910221,-0.389344 -2.760976,0.247084 -5.450822,2.229371 -8.105102,5.980554 l 0.672929,1.062274 c 2.300501,-2.123612 3.644488,-3.184949 4.033833,-3.220514 l 0.14226,1.734267 c -0.389344,0.03463 -0.991143,0.282649 -1.805397,0.707558 l 1.451618,2.193806 c 2.740633,-2.961682 5.844022,-5.565712 9.236634,-7.750387 1.663137,0.42491 2.548521,0.955579 2.58315,1.521813 l 1.274729,-0.10576 C 70.097303,47.008371 79.121482,42.12472 88.075467,39.11666 l 0.106696,1.202662 c -1.664073,2.477391 -2.796541,3.75212 -3.39834,3.822314 0.07113,0.849819 0.354715,1.592943 0.885384,2.230307 0.141324,1.521812 -3.929009,11.785155 -12.1745,30.754463 -18.722224,44.097004 -34.435453,76.727054 -47.211752,97.819974 0.03557,0.42491 0.283585,0.99115 0.743124,1.6987 3.15032,-0.74312 5.131672,-1.52087 5.981491,-2.26493 l 0.671993,-0.0702 0.106695,1.20267 1.167098,-0.10576 1.203598,-0.672 c 0.03557,0.35378 0.424909,0.53067 1.239163,0.45954 l 0.10576,1.2036 c 0.105759,1.16803 -0.566234,2.93693 -1.982287,5.37876 -1.273793,1.45161 -2.654281,4.49524 -4.104963,9.13181 l 0.03557,0.56529 1.168033,-0.10576 c 5.096106,-5.6979 8.953985,-11.29005 11.608266,-16.73993 14.864345,-4.35299 26.189026,-8.63577 34.046108,-12.8465 7.891711,-0.67293 13.907831,-2.76097 18.01373,-6.19394 l -0.07113,-0.63643 -2.972495,0.88445 -0.67293,0.0711 -0.07019,-0.63737 c 5.803665,-0.88444 9.802871,-2.15917 12.033171,-3.92807 11.28912,-8.7069 19.8182,-14.86434 25.58723,-18.50977 11.85629,-8.70596 19.57111,-17.20041 23.07521,-25.4459 0.63643,-0.14226 1.27379,-0.28359 1.98135,-0.46047 0.0899,-2.82408 1.26808,-4.98489 0.14133,-11.820734 z M 50.560825,53.981015 l -0.600864,0.03463 -0.106695,-1.096903 2.441826,-0.212454 0.03557,0.566234 c -0.389344,0.03557 -0.991144,0.24802 -1.769832,0.708494 z M 38.634345,173.28325 c -1.415117,-0.63736 -2.689846,-0.88444 -3.786749,-0.77868 l -0.141324,-1.73427 c -0.07113,-0.67199 0.318214,-1.13247 1.168033,-1.30936 0.777753,-0.0702 1.238227,0.49604 1.309358,1.62851 2.052481,-2.51296 3.184949,-3.78675 3.397404,-3.82232 l 1.309357,0.53067 c -0.424909,3.53873 -1.521812,5.34413 -3.256079,5.48545 z M 166.07725,39.965553 c -0.6018,0.07113 -1.8054,-1.804462 -3.53873,-5.521016 l -0.10669,-1.096903 c 1.13246,-0.105759 2.3005,1.734267 3.53872,5.521016 z m -1.6987,-13.200273 -0.49604,1.168034 -17.30617,-7.220654 c 11.53807,0.389344 17.48399,2.407196 17.80221,6.05262 z m -73.082568,62.748091 -2.441826,0.212455 -0.105759,-1.097839 2.441825,-0.212455 z m -1.982287,-37.691533 0.601799,-0.03556 0.14226,1.734268 c -0.566234,0.03556 -1.309357,0.884448 -2.230307,2.512956 l -0.105759,-1.203604 c 1.096903,-1.309357 1.663137,-2.300501 1.592007,-3.00806 z m -5.131672,12.10337 0.212455,2.300501 -0.600863,0.03557 -0.212455,-2.300501 z m -2.688909,4.318353 1.168033,-0.106695 c -0.106695,1.911157 -0.637364,2.937866 -1.592943,3.00806 l -0.601799,0.03557 c 0.743124,-1.273793 1.096903,-2.264936 1.026709,-2.93693 z m -2.017853,6.01612 0.67293,-0.07113 0.03463,0.566234 -1.096903,1.840962 -1.168033,0.10576 -0.03463,-0.566234 c 1.168033,-0.10576 1.698702,-0.707559 1.592006,-1.875592 z m -1.981351,5.415256 -0.353779,2.901365 -0.601799,0.03557 -0.24802,-2.866735 z M 57.639218,136.12333 c -0.778689,3.96364 -1.627572,5.98055 -2.512956,6.05168 l -0.03463,-0.56623 c -0.212455,-1.94672 0.636428,-3.78675 2.547585,-5.48545 z m -3.645424,7.89171 0.03556,0.56623 c 0.07113,0.77869 -0.282649,1.23917 -1.061338,1.2738 l -0.03556,-0.56624 c -0.07113,-0.67199 0.282649,-1.0969 1.061338,-1.27379 z m -1.061338,16.38616 1.840027,-0.17689 0.07113,0.63736 c -0.460475,0.0346 -1.062274,0.28265 -1.805397,0.70756 l -1.168034,0.10576 c -0.07019,-0.6018 0.31915,-1.06134 1.062274,-1.27379 z m 52.378054,-16.17371 c -10.333539,5.09611 -16.420789,8.56464 -18.226186,10.36911 -11.183356,3.89344 -16.739937,6.2997 -16.633242,7.25528 -9.945129,3.92901 -16.492853,6.83037 -19.642237,8.63577 -0.743124,0.0702 -1.804462,-0.21246 -3.220515,-0.84982 -0.17689,-2.01692 0.743124,-3.64542 2.689846,-4.95478 1.734267,-0.14133 3.397404,0.10669 4.990347,0.77869 1.840026,-0.95558 5.060541,-2.01692 9.625978,-3.14939 l -0.105759,-1.2036 -3.68099,0.31822 c 0.459539,-0.63643 3.999204,-2.29957 10.652688,-4.98941 l 1.840026,-0.17689 0.03557,0.56623 c -3.149384,0.28265 -4.883651,1.20266 -5.272995,2.86674 0.07019,0.74312 0.495103,1.06134 1.273792,0.99021 2.371632,-1.48625 3.538729,-2.3707 3.5041,-2.61872 4.494307,-0.84888 16.916826,-7.36104 37.266627,-19.49998 l 0.10576,1.09691 c 0.0356,0.53066 -1.69871,2.01691 -5.20281,4.56543 z m -31.214004,10.26335 c 2.972495,-0.24802 5.521016,-1.45069 7.643692,-3.53873 0.849819,-0.0711 1.310293,0.24708 1.344922,0.9902 -1.450682,0.14227 -4.246287,1.34493 -8.31662,3.68099 l -0.6018,0.0356 z m 50.361134,-38.68268 -15.60747,12.38695 c -11.608263,7.60907 -17.836837,11.43138 -18.757786,11.50251 -18.473269,10.15665 -29.975775,15.43058 -34.434517,15.81992 l -0.672929,0.0702 c 0.566234,-2.08805 8.777095,-18.89818 24.702778,-50.53803 7.007263,-0.6018 18.049295,-3.85788 33.090534,-9.802864 l 3.68099,-0.31915 c 7.60906,-0.671998 13.30697,0.81425 17.05815,4.35298 l 0.21245,2.300504 c -2.7956,8.1051 -5.91036,12.84743 -9.2722,14.22698 z m -30.507378,-17.163914 2.512956,-0.21246 0.03557,0.56624 -2.512956,0.21245 z m 35.285278,-5.981491 1.84002,-0.17689 c 1.6987,0.814254 2.58315,1.521813 2.65428,2.159177 l 0.0356,0.566234 c -1.62851,0.14132 -3.15032,-0.708494 -4.52987,-2.548521 z m 4.98941,-28.418397 c -1.62757,1.945786 -6.08725,5.272996 -13.37717,9.944193 -2.40719,0.212455 -11.36118,3.680989 -26.861952,10.475797 -0.77499,-0.354033 -1.628722,-0.50046 -2.477391,-0.424909 l -0.10576,-1.096903 c -0.176889,-2.229371 0.813318,-5.024976 3.00806,-8.42238 1.202662,-6.370835 2.512956,-10.016259 3.963638,-10.900707 L 111.292,34.763687 c -0.14133,-1.805397 2.61871,-3.185885 8.28106,-4.141464 l 1.84096,-0.176889 0.14132,1.664073 c 5.55658,-0.849819 9.02418,-1.344923 10.36911,-1.451619 10.26427,-0.884448 15.60746,1.203599 16.03237,6.193946 l 1.16804,-0.106696 -0.24802,-2.936929 1.27473,-0.106696 c 3.00806,1.663137 4.63563,3.68099 4.84808,6.051685 0.14133,1.628508 -0.74312,3.645424 -2.61871,6.052621 -0.77869,0.07019 -1.23917,-0.49604 -1.30936,-1.628508 l -1.27473,0.106695 -0.28265,3.538729 c -5.2028,7.785952 -8.98955,11.785155 -11.32468,11.99761 -2.12361,2.93693 -3.43297,4.388548 -3.96457,4.424113 z m 7.92821,20.349796 c -1.06227,-0.708494 -1.91116,-1.026709 -2.54852,-0.991143 l -0.14133,-1.734268 1.16804,-0.106695 2.58315,1.522748 c 0.10669,0.813318 -0.24802,1.238228 -1.06134,1.309358 z m 8.21086,9.731738 c 1.13247,0.460475 1.80446,0.955574 1.94579,1.416054 l -0.56624,0.14132 0.0356,0.0356 c -0.10576,0 -0.24802,0.0356 -0.35378,0.0711 l -0.84982,0.67199 z m 0.77775,4.884584 -0.10576,-0.46047 1.48625,-0.35378 0.1067,0.46047 z m 3.57523,3.999214 c -2.9372,2.11947 -0.17689,0.70756 -0.17689,0.70756 0.0702,-0.24802 0.14133,-0.49511 0.17689,-0.70756 z"
     fill="#f9dc3e"
     id="path4"
     sodipodi:nodetypes="cccccccccccccccccccccccccccccccccccccccccccccccccccccccccccccccccccccccccccccccccccccccccccccccccccccccccccccccccccccccccccccccccccccccccccccccccccccccccccccccccccccccccccccccccccccccccccccccccccccccccccccccccccccccccccccccc"
     style="stroke-width:0.935924" />
</svg>
