<?xml version="1.0" encoding="UTF-8" standalone="no"?>
<svg
   xml:space="preserve"
   height="512"
   viewBox="0 0 511.9949 511.99781"
   width="512"
   version="1.1"
   id="svg35"
   sodipodi:docname="backbone.svg"
   inkscape:version="1.2 (dc2aedaf03, 2022-05-15)"
   xmlns:inkscape="http://www.inkscape.org/namespaces/inkscape"
   xmlns:sodipodi="http://sodipodi.sourceforge.net/DTD/sodipodi-0.dtd"
   xmlns="http://www.w3.org/2000/svg"
   xmlns:svg="http://www.w3.org/2000/svg"><sodipodi:namedview
     id="namedview37"
     pagecolor="#ffffff"
     bordercolor="#666666"
     borderopacity="1.0"
     inkscape:showpageshadow="2"
     inkscape:pageopacity="0.0"
     inkscape:pagecheckerboard="0"
     inkscape:deskcolor="#d1d1d1"
     showgrid="false"
     inkscape:zoom="0.43549669"
     inkscape:cx="25.258516"
     inkscape:cy="270.95499"
     inkscape:window-width="1920"
     inkscape:window-height="1017"
     inkscape:window-x="1912"
     inkscape:window-y="-8"
     inkscape:window-maximized="1"
     inkscape:current-layer="svg35" /><defs
     id="defs5"><clipPath
       id="a"
       clipPathUnits="userSpaceOnUse"><path
         d="M 0,500 H 500 V 0 H 0 Z"
         id="path2" /></clipPath></defs><g
     transform="matrix(1.1286265,0,0,-1.1286265,-30.201732,536.17316)"
     id="g33"><g
       clip-path="url(#a)"
       id="g31"><g
         transform="translate(250.74,366.1)"
         id="g9"><path
           d="m 0,0 v -67.597 l -116.74,-68.204 c 0,0 0.043,-75.32 0.043,-98.2 7.709,4.404 116.61,67.167 116.61,67.167 v -67.211 l -174.73,-99.985 -0.338,233.82 L 0.005,0"
           fill-rule="evenodd"
           fill="#0372b4"
           id="path7" /></g><g
         transform="translate(425.98,465.59)"
         id="g13"><path
           d="m 0,0 v -199.84 l -57.917,33.252 -0.158,65.884 -58.84,-32.305 -58.325,33.515 L 0,0.011 Z"
           fill-rule="evenodd"
           fill="#0372b4"
           id="path11" /></g><g
         transform="translate(250.65,132.05)"
         id="g17"><path
           d="M 0,0 V 67.21 L 116.98,0.752 v 97.897 l -116.89,67.8 v 67.595 L 175.33,133.694 V -99.826 L 0,0.004 Z"
           fill-rule="evenodd"
           fill="#012b42"
           id="path15" /></g><g
         transform="translate(192.05,332.76)"
         id="g21"><path
           d="m 0,0 -58.029,33.201 v -66.939 l -58.43,-33.138 0.205,199.68 c 0,0 119.22,-67.425 174.95,-99.468 L 0.006,0.004 Z"
           fill-rule="evenodd"
           fill="#012b42"
           id="path19" /></g><g
         transform="translate(165.06,248.51)"
         id="g25"><path
           d="m 0,0 85.594,-49.249 -58.432,-33.643 -58.178,33.387 -0.042,31.289 z"
           fill-rule="evenodd"
           fill="#012b42"
           id="path23" /></g><g
         transform="translate(250.65,198.88)"
         id="g29"><path
           d="m 0,0 86.211,49.646 30.77,-17.827 c 0,0 0.032,-22.351 0,-31.992 -19.376,-11.066 -57.719,-33.2 -57.719,-33.2 L 0.001,0 Z"
           fill-rule="evenodd"
           fill="#0372b4"
           id="path27" /></g></g></g></svg>
