<?xml version="1.0" encoding="UTF-8" standalone="no"?>
<svg
   viewBox="0 0 256 256"
   version="1.1"
   id="svg60"
   sodipodi:docname="edge.svg"
   inkscape:version="1.2 (dc2aedaf03, 2022-05-15)"
   xmlns:inkscape="http://www.inkscape.org/namespaces/inkscape"
   xmlns:sodipodi="http://sodipodi.sourceforge.net/DTD/sodipodi-0.dtd"
   xmlns="http://www.w3.org/2000/svg"
   xmlns:svg="http://www.w3.org/2000/svg">
  <sodipodi:namedview
     id="namedview62"
     pagecolor="#ffffff"
     bordercolor="#666666"
     borderopacity="1.0"
     inkscape:showpageshadow="2"
     inkscape:pageopacity="0.0"
     inkscape:pagecheckerboard="0"
     inkscape:deskcolor="#d1d1d1"
     showgrid="false"
     inkscape:zoom="0.921875"
     inkscape:cx="36.881356"
     inkscape:cy="128"
     inkscape:window-width="1920"
     inkscape:window-height="1017"
     inkscape:window-x="-8"
     inkscape:window-y="-8"
     inkscape:window-maximized="1"
     inkscape:current-layer="svg60" />
  <defs
     id="defs46">
    <radialGradient
       id="b"
       cx="161.8"
       cy="68.9"
       r="95.4"
       gradientTransform="matrix(0.90254539,0,0,-0.85741812,11.034732,231.97277)"
       gradientUnits="userSpaceOnUse">
      <stop
         offset=".7"
         stop-opacity="0"
         id="stop2" />
      <stop
         offset=".9"
         stop-opacity=".5"
         id="stop4" />
      <stop
         offset="1"
         id="stop6" />
    </radialGradient>
    <radialGradient
       id="d"
       cx="-340.3"
       cy="63"
       r="143.2"
       gradientTransform="matrix(0.13538181,-0.89351994,-0.72203631,-0.10830545,170.42425,-105.75972)"
       gradientUnits="userSpaceOnUse">
      <stop
         offset=".8"
         stop-opacity="0"
         id="stop9" />
      <stop
         offset=".9"
         stop-opacity=".5"
         id="stop11" />
      <stop
         offset="1"
         id="stop13" />
    </radialGradient>
    <radialGradient
       id="e"
       cx="113.4"
       cy="570.2"
       r="202.4"
       gradientTransform="matrix(-0.03610182,0.90254539,1.9224217,0.07220363,-1053.5176,-88.882117)"
       gradientUnits="userSpaceOnUse">
      <stop
         offset="0"
         stop-color="#35c1f1"
         id="stop16" />
      <stop
         offset=".1"
         stop-color="#34c1ed"
         id="stop18" />
      <stop
         offset=".2"
         stop-color="#2fc2df"
         id="stop20" />
      <stop
         offset=".3"
         stop-color="#2bc3d2"
         id="stop22" />
      <stop
         offset=".7"
         stop-color="#36c752"
         id="stop24" />
    </radialGradient>
    <radialGradient
       id="f"
       cx="376.5"
       cy="568"
       r="97.3"
       gradientTransform="matrix(0.25271271,0.86644357,0.7039854,-0.20758544,-263.15856,-126.60852)"
       gradientUnits="userSpaceOnUse">
      <stop
         offset="0"
         stop-color="#66eb6e"
         id="stop27" />
      <stop
         offset="1"
         stop-color="#66eb6e"
         stop-opacity="0"
         id="stop29" />
    </radialGradient>
    <linearGradient
       id="a"
       x1="63.3"
       y1="84"
       x2="241.7"
       y2="84"
       gradientTransform="matrix(0.90254539,0,0,-0.90254539,11.034732,247.49655)"
       gradientUnits="userSpaceOnUse">
      <stop
         offset="0"
         stop-color="#0c59a4"
         id="stop32" />
      <stop
         offset="1"
         stop-color="#114a8b"
         id="stop34" />
    </linearGradient>
    <linearGradient
       id="c"
       x1="157.3"
       y1="161.4"
       x2="46"
       y2="40.1"
       gradientTransform="matrix(0.90254539,0,0,-0.90254539,11.034732,247.49655)"
       gradientUnits="userSpaceOnUse">
      <stop
         offset="0"
         stop-color="#1b9de2"
         id="stop37" />
      <stop
         offset=".2"
         stop-color="#1595df"
         id="stop39" />
      <stop
         offset=".7"
         stop-color="#0680d7"
         id="stop41" />
      <stop
         offset="1"
         stop-color="#0078d4"
         id="stop43" />
    </linearGradient>
  </defs>
  <path
     d="m 223.76468,183.8671 a 84.568503,84.568503 0 0 1 -9.56698,4.24196 91.969375,91.969375 0 0 1 -32.40138,5.77629 c -42.6904,0 -79.87527,-29.33272 -79.87527,-67.05912 a 28.43018,28.43018 0 0 1 14.80175,-24.63949 c -38.628945,1.62458 -48.556945,41.8781 -48.556945,65.43454 0,66.78836 61.463345,73.46719 74.730755,73.46719 7.13011,0 17.8704,-2.07585 24.36873,-4.1517 l 1.17331,-0.36102 a 115.79657,115.79657 0 0 0 60.10952,-47.6544 3.6101816,3.6101816 0 0 0 -4.78349,-5.05425 z"
     style="fill:url(#a);stroke-width:0.902545"
     id="path48" />
  <path
     d="m 223.76468,183.8671 a 84.568503,84.568503 0 0 1 -9.56698,4.24196 91.969375,91.969375 0 0 1 -32.40138,5.77629 c -42.6904,0 -79.87527,-29.33272 -79.87527,-67.05912 a 28.43018,28.43018 0 0 1 14.80175,-24.63949 c -38.628945,1.62458 -48.556945,41.8781 -48.556945,65.43454 0,66.78836 61.463345,73.46719 74.730755,73.46719 7.13011,0 17.8704,-2.07585 24.36873,-4.1517 l 1.17331,-0.36102 a 115.79657,115.79657 0 0 0 60.10952,-47.6544 3.6101816,3.6101816 0 0 0 -4.78349,-5.05425 z"
     style="opacity:0.35;isolation:isolate;fill:url(#b);stroke-width:0.902545"
     id="path50" />
  <path
     d="M 110.58549,229.7164 A 71.481595,71.481595 0 0 1 90.097708,210.49219 72.835413,72.835413 0 0 1 116.7228,102.18674 c 2.88814,-1.35382 7.67163,-3.700434 14.0797,-3.61018 a 29.242471,29.242471 0 0 1 23.19542,11.73309 28.791198,28.791198 0 0 1 5.68604,16.8776 c 0,-0.18051 22.11236,-71.842614 -72.203633,-71.842614 -39.621743,0 -72.203632,37.545888 -72.203632,70.579044 a 117.51141,117.51141 0 0 0 10.9208,50.54254 115.52581,115.52581 0 0 0 141.158095,60.47055 68.142177,68.142177 0 0 1 -56.67985,-7.22037 z"
     style="fill:url(#c);stroke-width:0.902545"
     id="path52" />
  <path
     d="M 110.58549,229.7164 A 71.481595,71.481595 0 0 1 90.097708,210.49219 72.835413,72.835413 0 0 1 116.7228,102.18674 c 2.88814,-1.35382 7.67163,-3.700434 14.0797,-3.61018 a 29.242471,29.242471 0 0 1 23.19542,11.73309 28.791198,28.791198 0 0 1 5.68604,16.8776 c 0,-0.18051 22.11236,-71.842614 -72.203633,-71.842614 -39.621743,0 -72.203632,37.545888 -72.203632,70.579044 a 117.51141,117.51141 0 0 0 10.9208,50.54254 115.52581,115.52581 0 0 0 141.158095,60.47055 68.142177,68.142177 0 0 1 -56.67985,-7.22037 z"
     style="opacity:0.41;isolation:isolate;fill:url(#d);stroke-width:0.902545"
     id="path54" />
  <path
     d="m 152.73436,146.23095 c -0.81229,0.90255 -3.06866,2.25637 -3.06866,5.05426 0,2.34662 1.53433,4.69323 4.33222,6.58858 12.9064,9.02545 37.36538,7.76189 37.45563,7.76189 a 53.791705,53.791705 0 0 0 27.34713,-7.49113 55.416287,55.416287 0 0 0 27.43738,-47.74464 C 246.50882,90.182888 239.0177,76.734962 236.0393,70.778162 216.81508,33.412783 175.56876,11.932203 130.71225,11.932203 A 115.52581,115.52581 0 0 0 15.186441,125.83343 c 0.451272,-32.942906 33.21367,-59.567995 72.203631,-59.567995 3.158909,0 21.209818,0.270764 37.906908,9.025454 a 65.524795,65.524795 0 0 1 27.88865,26.444581 c 5.50553,9.56698 6.49833,21.75134 6.49833,26.62509 0,4.87374 -2.43688,12.00385 -7.03986,17.96065 z"
     style="fill:url(#e);stroke-width:0.902545"
     id="path56" />
  <path
     d="m 152.73436,146.23095 c -0.81229,0.90255 -3.06866,2.25637 -3.06866,5.05426 0,2.34662 1.53433,4.69323 4.33222,6.58858 12.9064,9.02545 37.36538,7.76189 37.45563,7.76189 a 53.791705,53.791705 0 0 0 27.34713,-7.49113 55.416287,55.416287 0 0 0 27.43738,-47.74464 C 246.50882,90.182888 239.0177,76.734962 236.0393,70.778162 216.81508,33.412783 175.56876,11.932203 130.71225,11.932203 A 115.52581,115.52581 0 0 0 15.186441,125.83343 c 0.451272,-32.942906 33.21367,-59.567995 72.203631,-59.567995 3.158909,0 21.209818,0.270764 37.906908,9.025454 a 65.524795,65.524795 0 0 1 27.88865,26.444581 c 5.50553,9.56698 6.49833,21.75134 6.49833,26.62509 0,4.87374 -2.43688,12.00385 -7.03986,17.96065 z"
     style="fill:url(#f);stroke-width:0.902545"
     id="path58" />
</svg>
