<?xml version="1.0" encoding="UTF-8" standalone="no"?>
<svg
   width="256"
   height="256"
   viewBox="0 0 0 0 500 0 136"
   version="1.1"
   id="svg6"
   sodipodi:docname="iis.svg"
   inkscape:version="1.3 (0e150ed6c4, 2023-07-21)"
   xmlns:inkscape="http://www.inkscape.org/namespaces/inkscape"
   xmlns:sodipodi="http://sodipodi.sourceforge.net/DTD/sodipodi-0.dtd"
   xmlns="http://www.w3.org/2000/svg"
   xmlns:svg="http://www.w3.org/2000/svg">
  <defs
     id="defs6" />
  <sodipodi:namedview
     id="namedview6"
     pagecolor="#ffffff"
     bordercolor="#666666"
     borderopacity="1.0"
     inkscape:showpageshadow="2"
     inkscape:pageopacity="0.0"
     inkscape:pagecheckerboard="0"
     inkscape:deskcolor="#d1d1d1"
     inkscape:zoom="1.662"
     inkscape:cx="249.69916"
     inkscape:cy="164.56077"
     inkscape:window-width="1782"
     inkscape:window-height="881"
     inkscape:window-x="0"
     inkscape:window-y="115"
     inkscape:window-maximized="0"
     inkscape:current-layer="svg6" />
  <g
     id="g2"
     transform="matrix(1.477101,0,0,1.477101,-93.073013,-25.960463)">
    <path
       d="m 147.721,72.881 v 61.334 h 7.917 V 72.881 Z m 21.749,0 v 61.334 h 7.917 V 72.881 Z m 18.655,58.331 c 3.276,2.184 9.737,3.913 15.652,3.913 14.469,0 21.476,-8.19 21.476,-17.654 0,-9.009 -5.278,-14.014 -15.652,-18.018 -8.463,-3.276 -12.194,-6.097 -12.194,-11.83 0,-4.186 3.185,-9.191 11.557,-9.191 5.551,0 9.646,1.82 11.648,2.912 l 2.184,-6.461 c -2.73,-1.547 -7.28,-3.003 -13.559,-3.003 -11.921,0 -19.838,7.098 -19.838,16.653 0,8.645 6.188,13.832 16.198,17.381 8.281,3.185 11.557,6.461 11.557,12.194 0,6.188 -4.732,10.465 -12.831,10.465 -5.46,0 -10.647,-1.82 -14.196,-4.004 z"
       id="path2" />
  </g>
  <g
     id="g6"
     transform="matrix(0.72686886,0,0,0.72686886,17.752032,75.414665)">
    <path
       d="m 1.11,5.153 h 61.3 v 61.3 H 1.11 Z"
       fill="#f25022"
       id="path3" />
    <path
       d="m 68.81,5.153 h 61.3 v 61.3 h -61.3 z"
       fill="#7fba00"
       id="path4" />
    <path
       d="m 1.11,72.853 h 61.3 v 61.3 H 1.11 Z"
       fill="#00a4ef"
       id="path5" />
    <path
       d="m 68.81,72.853 h 61.3 v 61.3 h -61.3 z"
       fill="#ffb900"
       id="path6" />
  </g>
</svg>
