<svg xmlns="http://www.w3.org/2000/svg" viewBox="0 0 314.1 345.5"><path fill="none" d="m207.6 95.6-20.7 41.8a45 45 0 0 1 13.5 24H216a45 45 0 0 1 12.5-23.1z"/><path fill="none" d="m169.5 127.3 38.1-77 38 77.5 4.5-1.3L286.2 20H128.9l36 106.2zm-13.1 68.1a25.2 25.2 0 0 0 18.3-42.6l-.1-.1q-1.5-1.7-3.4-2.9l-.1-.1-1.1-.7-.2-.1-1.2-.7h-.1l-1.3-.7h-.1l-1.2-.5-.3-.1-1-.4-.4-.1-1.2-.4h-.1l-1.4-.3-.4-.1-1.1-.2-.5-.1-1-.1h-3.9l-1.1.1h-.4l-1.2.2h-.3l-1.4.3a25 25 0 0 0-19.2 24.5 25.6 25.6 0 0 0 25.4 25.1m106-50.4h-.2l-1.1-.1h-1.3l-1.6.1h-.5l-1.2.1-.4.1-1.5.3h-.1l-1.4.3-.4.1-1.2.4-.3.1-1.4.6-1.4.6-.3.1-1.2.7-.1.1q-1.4.7-2.6 1.8l-.1.1a27 27 0 0 0-6.3 7.3q-3.2 5.6-3.3 12.5a25.2 25.2 0 1 0 30.1-24.8zM51.9 195.4a25.2 25.2 0 1 0 0-50.4 25.2 25.2 0 0 0 0 50.4"/><path fill="none" d="M259.9 214.9a45 45 0 0 1-43.3-33.5h-16.8a45 45 0 0 1-50.2 33 134 134 0 0 1-20.8 24.7 138 138 0 0 1-48 29.8l-4.1 1.5-3.8-2a51 51 0 0 1-28-53.9q-3.6-.6-6.9-1.8l-1.1 2.3c-6.4 13.2-13.1 26.8-15.5 41.4-2.6 15.6-3.7 44.1 18.3 59.3a53 53 0 0 0 31 9.9c21.7 0 45.1-11.6 69.9-23.9 19.4-9.6 39.4-19.6 60.2-24.7q12-2.7 23.6-4.2c14.1-2 27.5-4 38.4-10.3a44 44 0 0 0 19.7-53.7 45 45 0 0 1-22.6 6.1"/><path fill="#99425b" d="M304.6 170.1a45 45 0 0 0-33.5-43.3L314.1 0H101l43.1 127.2a44.8 44.8 0 0 0-13.4 79.5 119 119 0 0 1-52.3 41.6 30 30 0 0 1-12.5-35.2A44.8 44.8 0 1 0 21 201.8l-2.1 4.3C12.2 219.9 4.6 235.5 1.7 253c-5.8 35 3.7 63.1 26.6 79a73 73 0 0 0 42.4 13.4c26.3 0 53-13.2 78.8-26 18.4-9.1 37.4-18.6 56.1-23.2 6.9-1.7 14.1-2.7 21.7-3.8 15.4-2.2 31.3-4.5 45.6-12.8a64.5 64.5 0 0 0 25-85.8q6.6-10.5 6.7-23.7m-19.5 0a25.2 25.2 0 1 1-40.8-19.8l.1-.1 2.6-1.8.1-.1 1.2-.7.3-.1 1.4-.6 1.4-.6.3-.1 1.2-.4.4-.1 1.4-.3h.1l1.5-.3.4-.1 1.2-.1h.5l1.6-.1h1.3l1.1.1h.2l2.4.4a25.4 25.4 0 0 1 20.1 24.8M128.9 20h157.3l-36.1 106.5q-2.2.5-4.5 1.3l-38-77.5-38.1 77q-2.3-.7-4.7-1.1zm71.5 141.4a44 44 0 0 0-13.5-24l20.7-41.8 20.9 42.7a45 45 0 0 0-12.5 23.1zm-50.1-15.8 1.4-.3h.3l1.2-.2h.4l1.1-.1h3.9l1 .1.5.1 1.1.2.4.1 1.4.3h.1l1.2.4.4.1 1 .4.3.1 1.2.5h.1l1.3.7h.1l1.2.7.2.1 1.1.7.1.1 3.4 2.9.1.1q1.6 1.7 2.8 3.6a25.1 25.1 0 0 1-21.1 39 25.2 25.2 0 0 1-6.2-49.6m-98.4-.7a25.2 25.2 0 1 1 0 50.4 25.2 25.2 0 0 1 0-50.4m232.6 86.7a44 44 0 0 1-21.7 30.7c-10.9 6.3-24.3 8.3-38.4 10.3q-11.7 1.5-23.6 4.2c-20.8 5.1-40.8 15.1-60.2 24.7-24.8 12.3-48.2 23.9-69.9 23.9a53 53 0 0 1-31-9.9c-22-15.2-20.9-43.7-18.3-59.3 2.4-14.6 9.1-28.3 15.5-41.4l1.1-2.3q3.3 1.2 6.9 1.8a51 51 0 0 0 28 53.9l3.8 2 4.1-1.5a136 136 0 0 0 48-29.8q12.1-11.4 20.8-24.7 3.4.5 6.9.5a45 45 0 0 0 43.3-33.5h16.8a44.7 44.7 0 0 0 65.9 27.3 45 45 0 0 1 2 23.1"/></svg>