<svg version="1.0" xmlns="http://www.w3.org/2000/svg"
 width="880.000000pt" height="880.000000pt" viewBox="0 0 880.000000 880.000000"
 preserveAspectRatio="xMidYMid meet">
<metadata>
Created by potrace 1.15, written by Peter Selinger 2001-2017
</metadata>
<g transform="translate(0.000000,880.000000) scale(0.100000,-0.100000)"
fill="#e32d15" stroke="none">
<path d="M4140 8390 c-1256 -90 -2377 -739 -3067 -1775 -623 -936 -822 -2082
-552 -3177 384 -1558 1682 -2746 3265 -2987 231 -35 355 -44 609 -44 256 -1
391 9 620 44 673 102 1311 381 1855 808 99 78 313 266 364 320 l30 31 -776 0
c-715 0 -786 2 -905 19 -233 35 -356 100 -464 244 -80 107 -153 257 -240 497
-39 107 -96 263 -126 345 -31 83 -75 204 -99 270 -23 66 -61 170 -84 230 -23
61 -54 146 -70 190 -52 145 -101 278 -147 400 -25 66 -58 156 -73 200 -22 65
-115 318 -207 562 -17 47 -28 48 -36 6 -3 -16 -71 -190 -152 -388 -81 -198
-236 -582 -346 -854 -109 -272 -216 -524 -238 -560 -129 -217 -301 -333 -496
-335 -97 -1 -167 24 -250 86 -99 75 -134 141 -135 255 0 115 21 203 91 377 34
83 138 340 231 571 448 1108 693 1719 724 1810 89 254 113 418 78 535 -13 44
-29 67 -88 125 -106 105 -203 145 -351 145 -197 0 -375 -78 -549 -241 -186
-173 -285 -371 -301 -600 -14 -186 22 -302 127 -414 73 -78 127 -114 251 -164
148 -60 228 -124 265 -211 31 -72 35 -118 18 -200 -19 -88 -60 -160 -136 -236
-104 -104 -233 -142 -443 -131 -144 8 -220 27 -333 83 -281 140 -522 463 -592
794 -52 244 -53 433 -4 675 51 247 104 383 232 588 276 443 719 765 1200 872
103 23 540 33 649 15 166 -28 425 -136 546 -228 91 -69 233 -218 294 -305 65
-95 135 -265 151 -368 8 -51 11 -146 8 -280 -5 -194 -7 -210 -41 -339 -51
-194 -94 -319 -170 -497 l-36 -81 112 116 c62 64 146 153 187 197 41 44 129
136 195 205 66 69 219 231 340 359 787 835 1000 1050 1103 1110 104 63 142 73
273 79 114 4 118 4 170 -24 30 -16 79 -54 110 -85 79 -79 101 -140 100 -277
l-1 -103 -57 -106 c-65 -118 -132 -199 -373 -449 -208 -215 -492 -513 -603
-632 -50 -53 -133 -142 -186 -197 -456 -476 -616 -647 -619 -660 -2 -8 4 -28
13 -45 9 -18 32 -76 50 -129 18 -53 56 -159 85 -236 28 -77 67 -183 85 -235
19 -52 57 -158 85 -235 28 -77 64 -176 80 -220 15 -44 56 -154 90 -245 66
-177 85 -230 150 -410 87 -244 136 -313 258 -362 l57 -23 976 -3 976 -2 55
107 c582 1124 593 2478 28 3610 -536 1074 -1518 1851 -2680 2118 -360 83 -811
120 -1160 95z"/>
</g>
</svg>