<svg xmlns="http://www.w3.org/2000/svg" width="425" height="425"><path d="M428.822 292.66c-2.78.088-1.9.889-7.905 2.367-6.064 1.492-13.472 1.034-20.002 3.773-19.493 8.175-23.404 36.116-41.125 46.125-13.246 7.482-26.61 8.079-38.625 11.844-7.896 2.476-16.533 7.553-23.687 13.718-5.553 4.787-5.698 8.996-11.5 15-6.206 6.422-24.665.109-33.031 9.938 2.695 2.725 3.876 3.488 9.187 2.781-1.1 2.084-7.581 3.84-6.312 6.906 1.335 3.226 17.005 5.413 31.25-3.187 6.634-4.005 11.918-9.778 22.25-11.156 13.37-1.782 28.772 1.143 44.25 3.375-2.295 6.843-6.903 11.393-10.594 16.843-1.143 1.231 2.296 1.37 6.219.625 7.057-1.745 12.142-3.15 17.468-6.25 6.543-3.809 7.535-13.574 15.563-15.687 4.473 6.875 16.638 8.499 24.187 3-6.624-1.875-8.454-15.975-6.218-22.188 2.118-5.88 4.21-15.288 6.343-23.062 2.29-8.35 3.135-18.872 5.907-23.125 4.17-6.399 8.777-8.596 12.777-12.204s7.66-7.12 7.54-15.376c-.038-2.66-1.413-4.142-3.942-4.06" style="fill:#002b64;fill-opacity:1;fill-rule:evenodd;stroke:none" transform="translate(-500.76 -540.976)scale(2.07744)"/><path d="M258.7 404.524c10.145 1.453 16.314 0 24.46-3.533 6.93-3.006 13.625-9.203 21.81-11.83 12.02-3.857 25.203.005 38.053.775 3.129.188 6.238.19 9.307-.144 4.787-2.942 4.688-13.947 9.347-14.955-.137 15.44-6.467 24.691-13.087 33.65 13.952-2.465 22.3-10.535 27.94-21.313 1.71-3.268 3.172-6.784 4.464-10.469 1.997 1.533.865 6.197 1.869 8.724 9.61-5.353 15.113-17.57 18.757-29.926 4.216-14.3 5.942-28.78 8.66-33.01 2.655-4.13 6.785-6.677 10.555-9.32 4.284-3.007 8.105-6.14 8.765-11.868-4.518-.418-5.563-1.463-6.231-3.74-2.262 1.275-4.342 1.548-6.692 1.618-2.04.062-4.28-.029-7.015.252-22.627 2.324-25.502 27.263-40.005 41.401a34 34 0 0 1-3.402 2.887c-5.08 3.785-11.31 6.49-17.04 8.68-9.275 3.544-18.093 3.796-26.795 6.855-6.388 2.245-12.88 5.502-18.126 9.093a54 54 0 0 0-3.685 2.746c-3.08 2.52-5.1 5.314-7.055 8.19-2.016 2.962-3.963 6.01-6.931 8.922-4.808 4.721-22.774 1.377-29.1 5.755-.704.487-1.264 1.072-1.645 1.774 3.45 1.568 5.756.606 9.726 1.045.52 3.767-8.191 6.006-6.903 7.741" style="fill:#c49a6c;stroke:none" transform="translate(-500.76 -540.976)scale(2.07744)"/><path d="M395.785 377.384c.27 4.322 2.779 12.897 4.994 14.981-4.338 1.055-11.811-.688-13.728-3.748.985-4.418 6.11-8.457 8.734-11.233" style="clip-rule:evenodd;fill:#c49a6c;fill-opacity:1;fill-rule:evenodd" transform="translate(-500.76 -540.976)scale(2.07744)"/><path d="M402.14 308.792c3.203 2.781 9.924.55 8.723-4.984-4.977-.412-7.86 1.277-8.723 4.984" style="clip-rule:evenodd;fill:#002b64;fill-rule:evenodd" transform="translate(-500.76 -540.976)scale(2.07744)"/><path d="M424.47 302.326c-.851 1.787-2.482 4.091-2.482 8.64-.007.781-.593 1.316-.603.112.044-4.446 1.22-6.368 2.47-8.894.582-1.035.932-.608.616.142" style="fill:#002b64" transform="translate(-500.76 -540.976)scale(2.07744)"/><path d="M423.613 301.653c-1.005 1.705-3.425 4.815-3.825 9.347-.074.777-.706 1.258-.61.057.436-4.424 2.37-7.193 3.838-9.6.666-.979.979-.523.597.196m-.783-.892c-1.144 1.614-4.87 5.35-5.648 9.832-.14.767-.81 1.195-.613.006.806-4.373 4.017-7.81 5.682-10.083.746-.92 1.019-.44.58.245m-.698-.995c-1.36 1.437-5.801 6.2-7.201 10.528-.248.74-.971 1.07-.608-.08 1.412-4.216 5.3-8.757 7.269-10.773.869-.807 1.07-.292.54.325" style="fill:#002b64" transform="translate(-500.76 -540.976)scale(2.07744)"/></svg>