<?xml version="1.0" encoding="UTF-8" standalone="no"?>
<svg
   enable-background="new 0 0 38.044 38.044"
   version="1.1"
   viewBox="0 0 38.044 38.044"
   id="svg1"
   sodipodi:docname="mithril.svg"
   inkscape:version="1.3 (0e150ed6c4, 2023-07-21)"
   xmlns:inkscape="http://www.inkscape.org/namespaces/inkscape"
   xmlns:sodipodi="http://sodipodi.sourceforge.net/DTD/sodipodi-0.dtd"
   xmlns="http://www.w3.org/2000/svg"
   xmlns:svg="http://www.w3.org/2000/svg">
  <defs
     id="defs1" />
  <sodipodi:namedview
     id="namedview1"
     pagecolor="#ffffff"
     bordercolor="#666666"
     borderopacity="1.0"
     inkscape:showpageshadow="2"
     inkscape:pageopacity="0.0"
     inkscape:pagecheckerboard="0"
     inkscape:deskcolor="#d1d1d1"
     inkscape:zoom="10.238146"
     inkscape:cx="19.095255"
     inkscape:cy="30.13241"
     inkscape:window-width="1920"
     inkscape:window-height="1017"
     inkscape:window-x="1912"
     inkscape:window-y="-8"
     inkscape:window-maximized="1"
     inkscape:current-layer="svg1" />
  <path
     d="m 29.732986,23.740075 c -0.01419,5.869025 -4.793732,10.640216 -10.666096,10.640216 -5.881546,0 -10.6669305,-4.785384 -10.6669305,-10.666931 0,-0.01837 0.00334,-0.0359 0.00334,-0.05427 -3.0806117,-1.872577 -5.1485453,-5.251231 -5.1485453,-9.111597 0,-5.8823822 4.7845489,-10.666931 10.6669308,-10.666931 1.89345,0 3.669184,0.5017473 5.212829,1.3708305 1.543645,-0.8690832 3.320215,-1.3708305 5.213664,-1.3708305 5.882382,0 10.666931,4.7853837 10.666931,10.666931 0,3.9163 -2.127208,7.337533 -5.282122,9.192578 z M 19.134513,7.4929796 c -1.930182,1.4301051 -3.260939,3.6241014 -3.523084,6.1378474 1.085311,-0.374015 2.244923,-0.586068 3.455461,-0.586068 1.26397,0 2.471169,0.23209 3.595717,0.637829 C 22.41382,11.147136 21.078053,8.9331029 19.134513,7.4929796 Z M 10.365206,22.57295 c 1.087815,0.48338 2.290005,0.758882 3.556478,0.758882 1.23141,0 2.403546,-0.2563 3.467985,-0.716306 -1.764882,-1.524443 -3.029686,-3.610743 -3.502214,-5.983399 -1.889275,1.387528 -3.204169,3.506388 -3.522249,5.940823 z m 8.701684,-7.64476 c -1.216383,0 -2.375994,0.248787 -3.430415,0.698773 0.301382,2.444453 1.610433,4.576671 3.498038,5.975051 1.872579,-1.387528 3.174116,-3.495534 3.48969,-5.914941 -1.08865,-0.485051 -2.290839,-0.758883 -3.557313,-0.758883 z m 1.812468,7.688172 c 1.064439,0.45917 2.236575,0.716304 3.467985,0.716304 1.216382,0 2.375994,-0.248786 3.43125,-0.698773 -0.297208,-2.408554 -1.57203,-4.511551 -3.413719,-5.912436 -0.485884,2.336756 -1.742341,4.388828 -3.485516,5.894905 z m -1.812468,9.881333 c 4.534928,0 8.277579,-3.453792 8.737583,-7.8685 -1.08531,0.37318 -2.244923,0.586067 -3.456296,0.586067 -1.893449,0 -3.670018,-0.501747 -5.213664,-1.37083 -1.54281,0.869083 -3.318545,1.37083 -5.212829,1.37083 -1.263969,0 -2.471168,-0.232089 -3.595716,-0.636994 0.436629,4.43892 4.189298,7.919427 8.740922,7.919427 z M 13.921684,5.762327 c -4.8446579,0 -8.7851692,3.9405112 -8.7851692,8.78517 0,2.853531 1.373335,5.385643 3.4871855,6.991903 0.6211315,-2.989613 2.5037277,-5.515882 5.0583817,-7.019454 0.0092,-3.211683 1.448471,-6.0885904 3.708421,-8.0404792 C 16.32523,6.0186273 15.153929,5.762327 13.921684,5.762327 Z m 10.426493,0 c -1.23141,0 -2.403544,0.2563003 -3.467983,0.7163049 2.266628,1.9577329 3.710091,4.8454931 3.710091,8.0680301 0,0.01837 -0.0034,0.03674 -0.0034,0.05427 2.510407,1.526948 4.348756,4.050713 4.940666,7.026132 2.181474,-1.600415 3.605736,-4.173436 3.605736,-7.079562 -8.35e-4,-4.8438237 -3.941347,-8.7851702 -8.78517,-8.7851702 z"
     fill="#010002"
     id="path1"
     style="stroke-width:3;stroke-dasharray:none;stroke:#ffffff;stroke-opacity:1;stroke-linecap:round;paint-order:stroke fill markers" />
</svg>
