<?xml version="1.0" encoding="UTF-8" standalone="no"?>
<svg
   width="300"
   height="300"
   preserveAspectRatio="xMidYMid"
   version="1.1"
   id="svg4"
   sodipodi:docname="nodejs.svg"
   inkscape:version="1.2 (dc2aedaf03, 2022-05-15)"
   xmlns:inkscape="http://www.inkscape.org/namespaces/inkscape"
   xmlns:sodipodi="http://sodipodi.sourceforge.net/DTD/sodipodi-0.dtd"
   xmlns="http://www.w3.org/2000/svg"
   xmlns:svg="http://www.w3.org/2000/svg">
  <defs
     id="defs8" />
  <sodipodi:namedview
     id="namedview6"
     pagecolor="#ffffff"
     bordercolor="#666666"
     borderopacity="1.0"
     inkscape:showpageshadow="2"
     inkscape:pageopacity="0.0"
     inkscape:pagecheckerboard="0"
     inkscape:deskcolor="#d1d1d1"
     showgrid="false"
     inkscape:zoom="0.816609"
     inkscape:cx="25.716102"
     inkscape:cy="144.5"
     inkscape:window-width="1920"
     inkscape:window-height="1017"
     inkscape:window-x="1912"
     inkscape:window-y="-8"
     inkscape:window-maximized="1"
     inkscape:current-layer="svg4" />
  <path
     d="m 148,292.464 c -3.975,0 -7.685,-1.06 -11.13,-2.915 l -35.247,-20.936 c -5.3,-2.915 -2.65,-3.975 -1.06,-4.505 7.155,-2.385 8.48,-2.915 15.9,-7.156 0.796,-0.53 1.856,-0.265 2.65,0.265 l 27.032,16.166 c 1.06,0.53 2.385,0.53 3.18,0 l 105.74,-61.217 c 1.06,-0.53 1.59,-1.59 1.59,-2.915 V 87.08 c 0,-1.325 -0.53,-2.385 -1.59,-2.915 L 149.325,23.212 c -1.06,-0.53 -2.385,-0.53 -3.18,0 L 40.405,84.166 c -1.06,0.53 -1.59,1.855 -1.59,2.915 v 122.17 c 0,1.06 0.53,2.385 1.59,2.915 l 28.887,16.695 c 15.636,7.95 25.44,-1.325 25.44,-10.6 V 97.68 c 0,-1.59 1.326,-3.18 3.181,-3.18 h 13.516 c 1.59,0 3.18,1.325 3.18,3.18 v 120.58 c 0,20.936 -11.396,33.126 -31.272,33.126 -6.095,0 -10.865,0 -24.38,-6.625 L 31.13,228.861 C 24.24,224.885 20,217.465 20,209.515 V 87.346 C 20,79.396 24.24,71.976 31.13,68 L 136.87,6.783 c 6.625,-3.71 15.635,-3.71 22.26,0 L 264.87,68 C 271.76,71.975 276,79.395 276,87.346 v 122.17 c 0,7.95 -4.24,15.37 -11.13,19.345 L 159.13,290.08 c -3.445,1.59 -7.42,2.385 -11.13,2.385 z m 32.596,-84.009 c -46.377,0 -55.917,-21.2 -55.917,-39.221 0,-1.59 1.325,-3.18 3.18,-3.18 h 13.78 c 1.59,0 2.916,1.06 2.916,2.65 2.12,14.045 8.215,20.936 36.306,20.936 22.261,0 31.802,-5.035 31.802,-16.96 0,-6.891 -2.65,-11.926 -37.367,-15.372 -28.886,-2.915 -46.907,-9.275 -46.907,-32.33 0,-21.467 18.02,-34.187 48.232,-34.187 33.921,0 50.617,11.66 52.737,37.101 0,0.795 -0.265,1.59 -0.795,2.385 -0.53,0.53 -1.325,1.06 -2.12,1.06 h -13.78 c -1.326,0 -2.65,-1.06 -2.916,-2.385 -3.18,-14.575 -11.395,-19.345 -33.126,-19.345 -24.38,0 -27.296,8.48 -27.296,14.84 0,7.686 3.445,10.07 36.306,14.31 32.597,4.24 47.967,10.336 47.967,33.127 -0.265,23.321 -19.345,36.571 -53.002,36.571 z"
     fill="#539e43"
     id="path2" />
</svg>
