<svg xmlns="http://www.w3.org/2000/svg" xmlns:xlink="http://www.w3.org/1999/xlink" id="svg172" width="60" height="60" version="1.1"><style id="style1">.B{stroke-miterlimit:10}.C{fill:none}.D{stroke:#000}.E{stroke-linejoin:round}.F{fill:#fff}.G{stroke-width:.431}.H{stroke-width:.258}.I{fill:#543e3c}.J{fill:#9ddff9}.K{stroke-linecap:round}.L{fill:#76747a}.M{fill:#f26d7d}.N{fill:#c25e69}.O{fill:#c6996d}.P{fill:#8f6c5e}.Q{fill:#fdf155}.R{stroke:#f90}.S{fill:#ffd064}.T{fill:#6f4d4a}.U{stroke-width:.004}</style><g id="g172" transform="translate(1.1 5.27)"><g id="g3" class="F" transform="matrix(.97563 0 0 .97563 -29.634 -4.55)"><path id="path1" d="M83.85 9.7h.004c-.53-.306-1.122-.397-1.773-.28h-.004c-.65.117-1.173.414-1.562.885h-.004v.004c-.324.393-.488.807-.488 1.25-1.41.194-2.73.56-3.97 1.105-.298-1.247-.975-2.162-2.024-2.735l-.086-.047 1.445-1.173c.306.216.67.332 1.087.35.345.013.634-.026.867-.116.255-.09.5-.23.733-.414.492-.4.772-.893.846-1.48.073-.608-.082-1.14-.47-1.592-.388-.452-.893-.695-1.514-.733h-.01a2.303 2.303 0 0 0-1.627.544l-.004.004c-.483.388-.764.88-.84 1.47v.004c-.065.51.04.962.302 1.363l-1.713 1.39c-.73-.242-1.536-.354-2.43-.332-1.268.022-2.623.31-4.07.863l-1.346.57c-.164-.634-.393-1.122-.686-1.454-.462-.54-.958-.677-1.484-.414-.457.18-.828.67-1.113 1.458v.004c-.255.708-.397 1.596-.423 2.67a27.597 27.597 0 0 0-3.495 3.184c-2.4.078-4.634.505-6.735 1.286h32.09l-.328-.203c-.712-.406-1.652-.695-2.822-.872-1.243-.2-2.623-.242-4.138-.16a11.94 11.94 0 0 0 .147-1.333 8.75 8.75 0 0 0-.017-1.221 13.78 13.78 0 0 1 3.956-1.13c.13.263.367.518.716.772l.086.056.1.056c.526.306 1.117.397 1.773.28.656-.117 1.173-.414 1.566-.884.418-.505.57-1.048.462-1.635-.108-.587-.44-1.04-1-1.36zm-8.456-1.497-.03-.035.03.03v.004"/><path id="path2" d="M88.156 18.15c-.453-.073-.86-.004-1.217.207l-.01.01a1.5 1.5 0 0 0-.492.457 13.87 13.87 0 0 0-1.98-.129c-.16-.526-.526-.984-1.1-1.372h-32.09a19.9 19.9 0 0 0-3.758 1.86 3.923 3.923 0 0 1 .216-1.506 1.65 1.65 0 0 0 .73-.21l.03-.017.043-.026.147-.1H45.55c-.16.134-.32.26-.487.367-.01.004-.017.013-.022.017-.62.388-1.325.6-2.114.63.255-.315.488-.656.708-1.014h-13.13a3.72 3.72 0 0 0 .418 1.018c.35.608 1.014 1.117 1.993 1.532.824.354 1.795.6 2.904.742l.837.086c-.703.4-1.316.86-1.834 1.372-.8.78-1.17 1.532-1.14 2.252l-.263.12-.867.418.897.367c.65.255 1.23.6 1.743 1.027 0 .134.03.267.09.4v-.01a1.19 1.19 0 0 0 .578.63h.004c.28.142.56.177.85.104h.004c.216-.056.388-.155.522-.306.207-.23.29-.513.246-.854l-.013-.06-.056-.168c-.01-.013-.01-.022-.013-.026a1.21 1.21 0 0 0-.375-.479l.004.004a1.228 1.228 0 0 0-.724-.268 1.726 1.726 0 0 1-.16-.375.729.729 0 0 1-.004-.362c.194-.574 1.06-1.053 2.602-1.428.004.013.01.022.017.035l.444 1 .854 1.605-1.2.746c-.01.004-.017.013-.026.017a53.962 53.962 0 0 0-4.84 3.52h51.756l-.004-.108-.004-.155-.108-.116c-1.91-2.105-3.94-3.87-6.075-5.294l-.544-.367-.142.76-3.09-1.333c2.127-.453 3.887-.94 5.28-1.458 2.036-.764 3.175-1.553 3.42-2.373a13.01 13.01 0 0 1 1.734.104c.022.29.147.557.37.807l.004.004c.272.315.634.505 1.092.578.458.073.86 0 1.22-.21h-.004c.406-.237.638-.56.695-.975v.004c.073-.4-.047-.8-.358-1.14-.272-.315-.64-.505-1.092-.578zm-41.84 1.743.07.047-1.173.915.07.09-.07-.09-.086-.112-.06-.078.06.078.328-.2c.315-.198.604-.418.863-.66"/><path id="path3" d="M55.025 8.737a1.22 1.22 0 0 0-.371-.893 1.22 1.22 0 0 0-.893-.371 1.21 1.21 0 0 0-.893.367v.004h-.004a1.215 1.215 0 0 0-.367.893l.004.1-.328.224a2.77 2.77 0 0 0-.677-.44 3.53 3.53 0 0 0-.505-.173c-.626-.15-1.182-.056-1.67.3h.004c-.505.336-.798.833-.88 1.488l-.173.06-.13.052a1.52 1.52 0 0 0-.224.112l-.01.004c-.53.28-.992.582-1.394.906l-.047.04c-.48.393-.867.824-1.16 1.286-.16.25-.285.492-.37.725a5.73 5.73 0 0 0-.142-1.545c-.246-1.092-.902-1.946-1.963-2.563-.703-.42-1.808-.807-3.305-1.165h-.004l-1.842-.43-1.838-.5c-1.333-.436-2.395-1-3.18-1.7l-1.005-.854.298 1.277c.233.988.246 2.084.04 3.296v.004c-.12.703-.4 1.782-.846 3.227-.42 1.372-.664 2.4-.738 3.055v.004c-.073.67-.04 1.273.095 1.816h13.13l.492-.92c.3-.66.535-1.3.67-1.92a1.58 1.58 0 0 0 .25.639l.017.035.026.03c.306.367.716.57 1.238.608a1.45 1.45 0 0 0-.047.73 5.44 5.44 0 0 1-.729.798h3.124a1.73 1.73 0 0 0 .544-.708v-.004l.004-.013.026-.07a1.48 1.48 0 0 0-.034-1.191 1.32 1.32 0 0 0-.147-.25l-.026-.03a.54.54 0 0 0-.047-.052c.475-.3.945-.695 1.4-1.16h.004c.134-.134.255-.272.362-.414.578.112 1.096.01 1.558-.306.53-.358.824-.893.88-1.596.013-.15.013-.302.004-.45a2.577 2.577 0 0 0-.1-.548v-.004c-.03-.112-.07-.22-.117-.328l.34-.268a1.24 1.24 0 0 0 .423.069c.35 0 .643-.12.9-.367a1.21 1.21 0 0 0 .375-.897zm-5.013 1.28c.04-.056.1-.104.147-.142.186-.12.4-.147.643-.073-.3.112-.552.186-.8.216zm1.5 1.85-.047.026.117-.198.004-.013.01-.013.026-.043.173-.224a.737.737 0 0 1-.28.466zm-.043-.065.004-.017c-.004.01-.004.017-.004.022M32.344 31.4l-.134.117v.177c-.246 3.47.237 6.938 1.45 10.402a.43.43 0 0 0 .125.186c.043.04.095.065.155.086l.022.004 1.217.306h40.357a17.67 17.67 0 0 0 .729-1.307 11.62 11.62 0 0 0 .669-1.501l.798.134.462-.548.3 3.223h1.122l1.523-.112h.035l.022-.004.06-.013 3.43-1.027-.88-5.566 1.312-1.048a.414.414 0 0 0 .147-.23 16.22 16.22 0 0 0 .492-4.677H34a49.14 49.14 0 0 0-1.657 1.398m9.337 13.246-.013.01c-.302.168-.483.44-.548.807v-.004c-.065.332-.01.65.173.958v.004a1.05 1.05 0 0 0 .2.255l-.306.837c-.406-.22-.8-.4-1.217-.574h.004l-.432-.168-.518-.2-.302 2.968c-.7.84-1.08 1.644-1.14 2.407v.004c-.1.936.272 1.765 1.096 2.5.854.755 1.786 1.04 2.796.854.945-.164 1.743-.712 2.395-1.648l3.076-.867-.388-.505-.824-1.005 1.148-.552a1.44 1.44 0 0 0 .216.108 1.3 1.3 0 0 0 .884.035h-.004c.298-.1.513-.255.647-.488 2.692 1.312 5.704 1.967 9.034 1.972 3.383 0 6.48-.677 9.293-2.036l.703-.354a21.486 21.486 0 0 0 4.155-2.912c1.52-1.35 2.76-2.804 3.728-4.37H35.17l4.34 1.096.932-1.03a17.03 17.03 0 0 0 1.238 1.903zm1.704 1.96.45.436.6.54-1.074 1.398-.004-.004-.017-.013-.052-.043h-.004a19.793 19.793 0 0 0-1.342-.962l.315-.863a1.08 1.08 0 0 0 .764-.138h-.004a1.1 1.1 0 0 0 .38-.349zm1.7 1.527 1.458 1.066c-.04.047-.07.1-.1.155v.004a.904.904 0 0 0-.086.656l-1.238.6-.026-.026-1.083-1.048 1.074-1.407m33.413-5.453.01.082 1.113-.082h-1.122"/></g><g id="g5" class="B C" transform="matrix(.97563 0 0 .97563 -29.634 -4.55)"><path id="path4" stroke="#fff" d="m45.124 20.744-.06-.078m.216.28-.07-.1" class="U"/><path id="path5" d="M87.198 19.385a13.603 13.603 0 0 0-3.69-.22" class="D E G K"/></g><path id="path6" fill="#00746b" d="M49.314 16.45c2.277-.85 3.304-1.7 3.073-2.556-.146-.544-.551-1.002-1.22-1.376-.656-.37-1.527-.634-2.61-.8-2.302-.349-5.092-.214-8.376.408l-.884 6.609c4.374-.67 7.715-1.431 10.018-2.286" style="stroke-width:.975626"/><path id="path7" fill="#2a5953" d="M52.124 14.004c-.139-.45-.531-.813-1.175-1.095-.631-.273-1.47-.45-2.513-.521-2.219-.164-4.904.117-8.065.839l-.85 5.658c4.214-.825 7.424-1.668 9.643-2.53 2.193-.854 3.182-1.637 2.959-2.348" style="stroke-width:.975626"/><path id="path8" d="M39.296 18.736c4.374-.67 7.715-1.431 10.018-2.286 2.277-.85 3.304-1.7 3.073-2.556-.146-.544-.551-1.002-1.22-1.376-.656-.37-1.527-.634-2.61-.8-2.302-.349-5.092-.214-8.376.408" class="B C D E G K"/><path id="path9" d="M57.123 14c-.205-.231-.476-.37-.817-.425a1.346 1.346 0 0 0-.913.151.907.907 0 0 0-.471.654c-.046.275.042.53.249.76.206.231.476.375.816.43.34.055.644 0 .913-.156.27-.156.43-.375.472-.648.041-.273-.04-.53-.248-.766" class="M" style="stroke-width:.975626"/><path id="path10" fill="#b25963" d="M57.063 14.416a.906.906 0 0 0-.538-.283.882.882 0 0 0-.602.101.583.583 0 0 0-.149.935.891.891 0 0 0 .539.283c.222.039.425 0 .605-.105.18-.106.283-.244.307-.426a.608.608 0 0 0-.164-.505" style="stroke-width:.975626"/><path id="path11" d="M56.306 13.575a1.345 1.345 0 0 0-.913.151.907.907 0 0 0-.471.654c-.046.275.042.53.249.76.206.231.476.375.816.43.34.055.644 0 .913-.156.27-.156.43-.375.472-.648.041-.273-.04-.53-.248-.766-.21-.235-.476-.37-.817-.425z" class="B C D E G"/><path id="path12" d="M49.92 13.726c0-.35-.168-.644-.5-.893-.332-.248-.732-.37-1.204-.37s-.875.122-1.208.37c-.332.25-.497.544-.497.893 0 .35.164.644.497.893.334.249.737.37 1.208.37s.871-.121 1.204-.37c.333-.249.5-.544.5-.893" class="S" style="stroke-width:.975626"/><path id="path13" d="M49.42 12.835c-.333-.248-.733-.37-1.205-.37-.472 0-.875.122-1.208.37-.332.25-.497.544-.497.893 0 .35.164.644.497.893.334.249.737.37 1.208.37.472 0 .872-.121 1.204-.37.333-.25.5-.544.5-.893 0-.35-.168-.644-.5-.893z" class="B C D E H"/><path id="path14" fill="#2f211e" d="M48.531 13.635c0-.122-.063-.224-.195-.312a.769.769 0 0 0-.446-.13.758.758 0 0 0-.45.13c-.123.089-.182.19-.182.312 0 .123.059.225.182.313.123.087.273.13.45.13a.731.731 0 0 0 .446-.13c.122-.09.195-.19.195-.313" style="stroke-width:.975626"/><g id="g16" class="B C D E" transform="matrix(.97563 0 0 .97563 -29.634 -4.55)"><path id="path15" d="M79.928 18.32a.766.766 0 0 0-.457-.134.777.777 0 0 0-.462.134c-.126.091-.186.194-.186.32s.06.23.186.32.28.134.462.134a.75.75 0 0 0 .457-.134c.125-.091.2-.194.2-.32s-.065-.23-.2-.32z" class="H"/><path id="path16" d="M81.05 11.873c-1.93.15-3.702.617-5.315 1.402M75.57 8l-2.705 2.196" class="G K"/></g><path id="path17" fill="#7cc576" d="M39.27 4.803c-1.19.021-2.47.295-3.83.813a16.6 16.6 0 0 0-1.759.782c-.138-.804-.37-1.39-.69-1.764-.299-.35-.619-.45-.956-.294-.35.156-.635.55-.863 1.182-.249.702-.378 1.595-.39 2.681-1.246.927-2.459 2.03-3.637 3.305 3.092 3.637 7.984 5.842 14.677 6.621a48.87 48.87 0 0 0 1.031-2.496c.88.069 1.617-.01 2.21-.224.535-.193.855-.459.96-.795.105-.337-.034-.64-.417-.913-.42-.308-1.056-.5-1.906-.586.353-1.248.556-2.344.605-3.291.113-2.114-.527-3.558-1.92-4.332-.87-.484-1.911-.715-3.114-.69" style="stroke-width:.975626"/><path id="path18" fill="#6f9b64" d="M41.57 6.272c-1.596-.568-3.431-.36-5.498.619-2.063.973-3.776 2.527-5.144 4.65 2.937 1.205 6.571 3.196 10.894 5.973.244-.39.433-.731.573-1.004.172-.332.32-.683.442-1.019.669.046 1.262-.025 1.78-.224.551-.211.8-.493.742-.842-.072-.426-.795-.654-2.168-.683.16-.817.265-1.537.316-2.164.08-.96.063-1.797-.046-2.508-.098-.602-.254-1.09-.468-1.463a3.766 3.766 0 0 0-.678-.855c-.254-.23-.5-.39-.746-.48" style="stroke-width:.975626"/><g id="g20" class="B C" transform="matrix(.97563 0 0 .97563 -29.634 -4.55)"><path id="path19" d="m73.24 23.246 1.057-2.558c.902.07 1.657-.01 2.265-.23.548-.198.876-.47.984-.815.108-.345-.035-.656-.427-.936-.43-.315-1.083-.513-1.954-.6.362-1.28.57-2.403.62-3.374.116-2.166-.54-3.646-1.967-4.44-.893-.496-1.96-.733-3.193-.708-1.22.022-2.533.302-3.926.833a16.68 16.68 0 0 0-1.803.802c-.142-.824-.38-1.424-.708-1.808-.306-.358-.634-.462-.98-.302-.358.16-.65.565-.884 1.212-.255.72-.388 1.635-.4 2.748-1.277.95-2.52 2.08-3.728 3.387" class="D G K"/><path id="path20" stroke="#7cc576" stroke-width=".69" d="M70.052 11.205a3.63 3.63 0 0 0-2.347.66c-.712.5-1.148 1.13-1.303 1.885-.155.755.017 1.424.513 1.993.492.578 1.165.893 2.02.945a3.584 3.584 0 0 0 2.35-.67c.71-.502 1.143-1.122 1.294-1.88a2.23 2.23 0 0 0-.505-1.998c-.496-.57-1.17-.88-2.024-.936z" class="E"/></g><path id="path21" fill="#fff356" d="M41.199 9.201a2.176 2.176 0 0 0-.493-1.95c-.484-.555-1.142-.858-1.974-.912a3.542 3.542 0 0 0-2.29.644c-.694.487-1.12 1.102-1.27 1.839-.152.736.016 1.389.5 1.944.48.564 1.136.871 1.97.922.835.05 1.6-.164 2.293-.654.693-.49 1.115-1.094 1.263-1.834" style="stroke-width:.975626"/><path id="path22" fill="#cbbb4e" d="M36.96 7.75c-.593.407-.956.921-1.094 1.54a1.795 1.795 0 0 0 .383 1.63c.396.471.943.728 1.637.78.695.053 1.343-.138 1.932-.546.59-.407.951-.917 1.086-1.536a1.805 1.805 0 0 0-.379-1.633c-.396-.464-.942-.716-1.642-.761a2.978 2.978 0 0 0-1.924.538" style="stroke-width:.975626"/><path id="path23" d="M38.732 6.34a3.542 3.542 0 0 0-2.29.644c-.694.487-1.12 1.102-1.27 1.839-.152.736.016 1.389.5 1.944.48.564 1.136.871 1.97.922.835.05 1.6-.164 2.293-.654.693-.49 1.115-1.094 1.263-1.834a2.176 2.176 0 0 0-.493-1.95c-.484-.555-1.142-.858-1.974-.912Z" class="B C D E H"/><path id="path24" fill="#fff356" d="M37.06 7.017a.76.76 0 0 0-.341.48.556.556 0 0 0 .118.509.681.681 0 0 0 .509.236.946.946 0 0 0 .602-.169.777.777 0 0 0 .336-.48.561.561 0 0 0-.117-.505.683.683 0 0 0-.509-.24.946.946 0 0 0-.598.169" style="stroke-width:.975626"/><path id="path25" d="M37.512 8.255a1.869 1.869 0 0 0-1.019.236c-.307.181-.497.404-.564.678-.066.274.01.51.225.712.214.203.505.32.875.342a1.854 1.854 0 0 0 1.018-.24c.308-.176.493-.39.56-.683.068-.293-.004-.51-.218-.715-.215-.206-.51-.317-.875-.337" class="T" style="stroke-width:.975626"/><path id="path26" d="M36.494 8.49c-.307.181-.497.404-.564.678-.066.274.01.51.225.712.214.203.505.32.875.342a1.854 1.854 0 0 0 1.018-.24c.308-.176.493-.39.56-.683.068-.293-.004-.51-.218-.715-.215-.206-.51-.317-.875-.337a1.845 1.845 0 0 0-1.019.236z" class="B C D E H"/><path id="path27" d="M45.4.467a1.861 1.861 0 0 0-1.305.44 1.757 1.757 0 0 0-.67 1.165 1.512 1.512 0 0 0 .363 1.225c.302.353.698.543 1.187.564a1.844 1.844 0 0 0 1.3-.43 1.737 1.737 0 0 0 .674-1.17 1.512 1.512 0 0 0-.362-1.224C46.285.687 45.888.5 45.4.468" class="M" style="stroke-width:.975626"/><path id="path28" d="M46.465 1.694a1.192 1.192 0 0 0-.855-.408c-.349-.02-.66.088-.938.316a1.259 1.259 0 0 0-.484.838c-.042.337.046.631.261.884.216.253.506.387.855.404a1.327 1.327 0 0 0 .939-.307 1.25 1.25 0 0 0 .483-.842 1.097 1.097 0 0 0-.261-.885" class="N" style="stroke-width:.975626"/><path id="path29" d="M44.094.905a1.757 1.757 0 0 0-.669 1.166 1.512 1.512 0 0 0 .362 1.225c.302.353.698.543 1.187.564a1.844 1.844 0 0 0 1.3-.43 1.737 1.737 0 0 0 .674-1.17 1.512 1.512 0 0 0-.362-1.224c-.302-.35-.699-.538-1.187-.569a1.861 1.861 0 0 0-1.305.44Z" class="B C D E G"/><path id="path30" d="M50.519 5.043c-.535.098-.96.337-1.28.72-.32.383-.433.8-.353 1.246.08.446.336.795.78 1.04s.913.32 1.448.224c.535-.095.96-.331 1.28-.715.32-.383.439-.8.358-1.249-.081-.448-.342-.79-.775-1.034s-.913-.324-1.448-.227" class="M" style="stroke-width:.975626"/><path id="path31" d="M51.03 5.918a1.628 1.628 0 0 0-1.009.29c-.297.208-.471.464-.517.776a.907.907 0 0 0 .278.812c.236.231.544.358.922.375a1.59 1.59 0 0 0 1.006-.282c.302-.21.476-.471.522-.779.046-.307-.05-.58-.283-.812-.232-.233-.539-.358-.917-.379" class="N" style="stroke-width:.975626"/><path id="path32" d="M49.239 5.762c-.316.383-.433.8-.353 1.246.08.446.336.795.78 1.04s.913.32 1.448.224c.535-.095.96-.331 1.28-.715.32-.383.439-.8.358-1.249-.081-.448-.342-.79-.775-1.034s-.913-.324-1.448-.227c-.534.096-.96.337-1.28.72Z" class="B C D E G"/><path id="path33" fill="#6f9b64" d="M32.734 5.813c-.151-.182-.316-.215-.488-.102-.383.257-.644.998-.783 2.227l1.662-1.12c-.097-.48-.227-.817-.39-1.005" style="stroke-width:.975626"/><path id="path34" d="M40.943 16.562c-3.574-3.375-7.973-5.073-13.188-5.073-5.214 0-9.727 1.688-13.529 5.073-3.802 3.386-5.775 7.459-5.931 12.237-.156 4.777 1.549 8.856 5.122 12.236 3.572 3.38 7.976 5.068 13.19 5.068 5.214 0 9.723-1.688 13.524-5.068 3.801-3.38 5.784-7.459 5.94-12.236.156-4.778-1.553-8.857-5.132-12.237" class="O" style="stroke-width:.975626"/><path id="path35" d="M30.915 11.58c1.47.728 2.728 1.456 3.776 2.188a18 18 0 0 1 2.564 2.164c-3.376-1.692-6.751-2.412-10.123-2.16-3.026.228-5.824 1.209-8.397 2.938-2.39 1.607-4.281 3.644-5.67 6.112-1.381 2.449-2.03 4.903-1.95 7.366a6.985 6.985 0 0 1-.009.489 9.688 9.688 0 0 0-.016.488l-1.73.58-.683 2.4 2.104 3.79 1.28-1.394a15.97 15.97 0 0 0 1.376 2.26c.498.684 1.112 1.386 1.84 2.14 3.036 3.095 6.797 4.658 11.324 4.658s8.46-1.553 11.825-4.66c1.005-.93 1.856-1.852 2.536-2.774a17.815 17.815 0 0 0 1.828-3.022l1.717.517.968-2.693-1.928-.484a16.908 16.908 0 0 0 .278-2.293c.13-2.437-.017-4.5-.442-6.188-.396-1.56-1.057-2.956-1.979-4.171l.573-2.274c-3.026-3.325-6.712-5.317-11.07-5.976" class="P" style="stroke-width:.975626"/><path id="path36" d="M27.754 11.499c-5.215 0-9.727 1.688-13.529 5.073-3.802 3.385-5.775 7.459-5.931 12.236-.156 4.778 1.549 8.857 5.122 12.237 3.572 3.38 7.976 5.068 13.19 5.068 5.214 0 9.723-1.688 13.524-5.068 3.801-3.381 5.784-7.46 5.94-12.237.156-4.777-1.553-8.856-5.132-12.236-3.579-3.38-7.973-5.073-13.187-5.073Z" class="B C D E G"/><path id="path37" d="M21.424 5.099c-.342-.5-.775-.826-1.3-.976-.527-.15-.99-.093-1.398.19-.408.281-.634.69-.686 1.232-.052.543.098 1.07.44 1.571.34.502.78.82 1.297.973.517.153.998.097 1.405-.182.407-.279.63-.694.678-1.242.047-.547-.093-1.069-.433-1.565zm-2.837.526c.029-.396.189-.69.48-.878.29-.187.624-.236.998-.122.383.118.698.358.946.724s.358.746.328 1.146c-.03.4-.182.694-.471.892-.29.198-.625.237-1.005.118-.38-.12-.695-.359-.943-.724-.248-.366-.36-.746-.332-1.145" class="J" style="stroke-width:.975626"/><path id="path38" fill="#86adc0" d="m21.824 5.796-.262-.546-.39.37.117.661.535-.484" style="stroke-width:.975626"/><g id="g40" class="B C D E H" transform="matrix(.97563 0 0 .97563 -29.634 -4.55)"><path id="path39" d="M51 8.888c-.54-.16-1.014-.095-1.432.194-.418.289-.65.708-.703 1.264-.053.556.1 1.096.45 1.61s.8.84 1.33.997c.53.157 1.023.1 1.44-.186.417-.286.647-.712.695-1.273.048-.561-.095-1.096-.444-1.605-.349-.509-.794-.846-1.333-1z"/><path id="path40" d="M49.425 10.428c-.03.4.086.798.34 1.173s.574.62.966.742.733.082 1.03-.12c.297-.202.457-.505.483-.915a1.835 1.835 0 0 0-.336-1.174 1.793 1.793 0 0 0-.97-.742c-.384-.117-.725-.078-1.023.125-.298.203-.462.505-.492.9z"/></g><path id="path41" d="M17.395 10.09a1.081 1.081 0 0 0-.829.13 1.244 1.244 0 0 0-.573.679 1.053 1.053 0 0 0-.016.753c-.413.593-.884 1.065-1.419 1.41a5.659 5.659 0 0 0 .955 1.233c.273.256.56.463.869.618-.182-.942-.093-1.83.269-2.668.27.063.535.017.8-.135a1.23 1.23 0 0 0 .568-.682c.109-.294.101-.572-.02-.833a.886.886 0 0 0-.602-.505" class="I" style="stroke-width:.975626"/><path id="path42" d="M7.82 15.304c-1.304.517-2.365 1.174-3.182 1.978-.775.761-1.09 1.49-.942 2.176a3.805 3.805 0 0 1 1.523-.182c.173-.774 1.242-1.38 3.208-1.814a20.508 20.508 0 0 0 2.63 4.756l6.315-2.61c-1.434-1.292-2.64-2.656-3.61-4.088.715-.307 1.304-.72 1.764-1.229a5.659 5.659 0 0 1-.955-1.233c-.753.484-1.625.715-2.615.698-.042 2.127.433 4.47 1.428 7.03-1.276-.855-2.354-1.722-3.233-2.597A16.81 16.81 0 0 1 7.832 15.3" class="S" style="stroke-width:.975626"/><path id="path43" d="M5.155 20.899a.522.522 0 0 0 .025.39.722.722 0 0 0 .371.39.796.796 0 0 0 .539.069.549.549 0 0 0 .383-.299.566.566 0 0 0 .013-.488.761.761 0 0 0-.37-.4.696.696 0 0 0-.532-.068c-.328-.45-.45-.862-.366-1.233a3.805 3.805 0 0 0-1.523.181 3.376 3.376 0 0 0-.535.215 6.607 6.607 0 0 1 1.995 1.224m5.165-7.356-2.146.964c-.08.24-.198.513-.354.817a16.81 16.81 0 0 0 2.32 2.887c.88.876 1.957 1.743 3.232 2.598-.993-2.56-1.47-4.904-1.428-7.03a7.774 7.774 0 0 1-1.624-.236" class="I" style="stroke-width:.975626"/><path id="path44" fill="#3a2b29" d="M5.357 20.899c-.146.29-.098.517.16.69.258.174.564.17.913-.016.231-.683-.039-1.031-.8-1.054-.345-.454-.5-.878-.463-1.237H4.42c.059.544.371 1.073.935 1.617m12.46-10.62-.378-.273-1.22.527.485.21c-.27.237-.375.581-.317 1.032a8.653 8.653 0 0 1-.698 1.048 3.463 3.463 0 0 1-.82.758l.683.839c.156-.051.25-.046.27.01.039-.804.269-1.583.694-2.337 1.36.27 1.797-.332 1.305-1.81" style="stroke-width:.975626"/><path id="path45" fill="#cba357" d="M4.422 19.282h.746c.08-.842 1.149-1.469 3.2-1.877l1.654 3.283.527-.307 4.096-2.143c-.686-1.136-1.095-2.066-1.224-2.79 1.28-.295 1.99-.64 2.13-1.04l-.684-.839c-.534.396-1.102.624-1.709.683-.593.055-1.19-.05-1.802-.32l-3.39 1.538c-1.098.61-1.978 1.268-2.63 1.953-.67.712-.973 1.33-.914 1.86" style="stroke-width:.975626"/><path id="path46" d="M17.45 9.889h-.004a1.223 1.223 0 0 0-.976.151 1.44 1.44 0 0 0-.665.787 1.227 1.227 0 0 0-.05.79c-.384.531-.817.952-1.301 1.27-.72.458-1.55.682-2.496.664a7.21 7.21 0 0 1-1.574-.227l-.072-.016-2.298 1.03-.03.089c-.07.214-.172.45-.307.715-1.3.522-2.357 1.187-3.177 1.995-.781.758-1.116 1.486-1.032 2.185a3.893 3.893 0 0 0-.39.164l-.42.205.439.182a6.293 6.293 0 0 1 1.839 1.102.77.77 0 0 0 .063.404.966.966 0 0 0 .467.51h.004a.966.966 0 0 0 .682.083.76.76 0 0 0 .522-.413v.004a.78.78 0 0 0 .022-.665h-.004a.976.976 0 0 0-.468-.505.966.966 0 0 0-.53-.11c-.232-.349-.316-.669-.257-.96.173-.669 1.132-1.208 2.875-1.611a20.782 20.782 0 0 0 2.589 4.634l.097.13 6.773-2.8-.244-.224c-1.351-1.22-2.5-2.5-3.444-3.844a5.145 5.145 0 0 0 1.457-1.022 3.844 3.844 0 0 0 .762.513l.374.193-.076-.42c-.164-.845-.097-1.642.198-2.395a1.307 1.307 0 0 0 .77-.185c.317-.195.54-.45.661-.795v.004c.131-.354.118-.686-.029-.998h.004a1.093 1.093 0 0 0-.74-.619ZM4.784 17.436c.8-.787 1.84-1.43 3.116-1.931l.039-.017.034-.013.039-.07c.143-.279.256-.532.336-.759l1.995-.897a7.51 7.51 0 0 0 1.6.224h.004c.976.016 1.857-.202 2.619-.66.224.353.463.665.72.93-.433.45-.973.813-1.617 1.09l-.23.105.143.205c.93 1.364 2.066 2.664 3.41 3.903l-5.86 2.42a20.157 20.157 0 0 1-2.505-4.586l-.068-.169-.176.039c-2.007.442-3.122 1.073-3.346 1.886a3.932 3.932 0 0 0-1.153.13c-.05-.58.254-1.194.905-1.838zm.632 3.203.076.11.146-.03a.517.517 0 0 1 .383.051h-.003c.13.063.218.16.273.29a.38.38 0 0 1-.004.317h-.004a.351.351 0 0 1-.244.19.578.578 0 0 1-.39-.052.546.546 0 0 1-.27-.29v-.004h-.003a.35.35 0 0 1-.017-.254l.039-.138-.098-.084a7.015 7.015 0 0 0-1.667-1.095l.286-.122c.35-.097.702-.143 1.07-.135-.043.384.1.796.429 1.246zM16.67 10.406a.878.878 0 0 1 .674-.11.707.707 0 0 1 .463.388v.004c.098.205.101.43.013.67a1.046 1.046 0 0 1-.476.572.898.898 0 0 1-.648.113l-.173-.039-.068.156a4.538 4.538 0 0 0-.35 2.349c-.195-.098-.403-.25-.656-.455a5.805 5.805 0 0 1-.678-.884c.513-.35.973-.817 1.375-1.397l.064-.084-.04-.11a.853.853 0 0 1 .017-.604v-.004c.088-.248.25-.433.48-.564" style="stroke-width:.975626"/><path id="path47" d="M11.944 13.971h-.003a7.327 7.327 0 0 1-1.6-.224l-1.996.897c-.08.227-.193.48-.336.758l-.04.071-.033.013a16.732 16.732 0 0 0 2.2 2.706c.88.876 1.958 1.743 3.233 2.598-.96-2.476-1.434-4.749-1.427-6.82" class="I" style="stroke-width:.975626"/><path id="path48" stroke-width=".084" d="M11.944 13.971c-.01 2.071.469 4.344 1.428 6.82-1.275-.855-2.353-1.722-3.232-2.598a16.732 16.732 0 0 1-2.201-2.706" class="B C D E K"/><path id="path49" fill="#94625e" d="m22.518 4.247-.224-.19c-1.255.965-2.29 1.49-3.103 1.588.004.654.328 1.09.973 1.317.332-.745 1.142-1.578 2.433-2.492l-.08-.224" style="stroke-width:.975626"/><path id="path50" d="m19.192 5.645-.884.05a2.798 2.798 0 0 0-1.004.317c-1.083.572-1.878 1.249-2.379 2.033-.488.761-.573 1.41-.254 1.942.408.463 1.054.575 1.928.336.9-.244 1.786-.8 2.648-1.662a2.83 2.83 0 0 0 .605-.863l.312-.833c-.644-.227-.968-.665-.973-1.317" class="M" style="stroke-width:.975626"/><path id="path51" fill="#74504d" d="M22.065 4.699v-.303c-1.154 1.048-2.041 1.705-2.669 1.97l.691.649c.358-.611 1.015-1.38 1.979-2.315" style="stroke-width:.975626"/><path id="path52" fill="#a3555c" d="M15.528 9.774c.307.35.795.439 1.46.256.683-.195 1.246-.48 1.688-.884.442-.403.708-.694.8-.868l.33-.631c.045-.19.142-.39.282-.634l-.69-.648a1.541 1.541 0 0 1-.447.126c-.302.013-.546.054-.727.13-.182.077-.522.303-1.023.684-.5.38-.968.782-1.393 1.216-.425.434-.517.855-.278 1.255" style="stroke-width:.975626"/><g id="g55" class="B C E" transform="matrix(.97563 0 0 .97563 -29.634 -4.55)"><g id="g54" class="D"><path id="path53" d="M51.043 11.8c-.66-.233-.992-.682-.997-1.35" class="H K"/><path id="path54" d="m53.455 9.017.082.23c-1.325.936-2.153 1.79-2.494 2.554l-.32.854c-.142.32-.35.613-.62.884-.884.884-1.8 1.454-2.714 1.704-.897.246-1.558.13-1.976-.345-.328-.544-.242-1.208.26-1.99.513-.802 1.33-1.497 2.438-2.084.34-.177.682-.285 1.03-.324.194-.02.496-.04.906-.052.833-.1 1.894-.64 3.18-1.627z" class="G"/></g><path id="path55" stroke="#f26d7d" d="m46.84 12.956-.518.475.56.237.324.695.43-.78 1.08-.065-.518-.583v-.82l-.712.324" class="G K"/></g><path id="path56" d="M23.63 3.974a.79.79 0 0 0-.24-.577.784.784 0 0 0-.573-.236.8.8 0 0 0-.813.813c0 .224.08.416.236.572a.79.79 0 0 0 .577.24.77.77 0 0 0 .573-.24.77.77 0 0 0 .24-.572" class="M" style="stroke-width:.975626"/><path id="path57" d="M23.39 3.397a.784.784 0 0 0-.573-.236.8.8 0 0 0-.813.813c0 .224.08.416.236.572a.79.79 0 0 0 .577.24.77.77 0 0 0 .573-.24.77.77 0 0 0 .24-.572.79.79 0 0 0-.24-.577Z" class="B C D E G"/><path id="path58" d="m17.375 7.227-.353.164-1.31 1.19.379.16.316.679.42-.761 1.053-.064-.505-.569v-.8" class="S" style="stroke-width:.975626"/><path id="path59" d="m17.02 7.391-.34.152-.59-.337-.042.842-.505.463.168.072 1.31-1.19" class="F" style="stroke-width:.975626"/><path id="path60" stroke-width=".169" d="m17.02 7.391-.34.152-.59-.337-.042.842-.505.463.168.072.379.16.316.678.42-.761 1.053-.064-.505-.569v-.8z" class="B C D E"/><path id="path61" d="M21.857 6.664c.012-.127.012-.254.004-.375h-.517c.004.063 0 .13-.004.193-.026.39-.182.695-.472.893-.29.198-.624.236-1.004.117-.38-.12-.695-.358-.943-.724s-.36-.745-.332-1.144c.03-.4.19-.691.48-.879.291-.187.625-.236.999-.122.021.004.039.013.058.022v-.513c-.527-.156-.99-.093-1.397.189-.408.282-.634.69-.686 1.233-.052.543.098 1.07.44 1.571.34.501.78.82 1.297.973.517.153.998.097 1.405-.182.406-.279.63-.694.678-1.242" class="J" style="stroke-width:.975626"/><g id="g63" class="B C D E H K" transform="matrix(.97563 0 0 .97563 -29.634 -4.55)"><path id="path62" d="M52.25 11.1c.004.065 0 .134-.004.198-.026.4-.186.712-.483.915-.297.203-.64.242-1.03.12s-.712-.367-.966-.742-.37-.764-.34-1.173c.03-.409.194-.708.492-.9.298-.192.64-.242 1.023-.125.022.004.04.013.06.022"/><path id="path63" d="M51 8.888c-.54-.16-1.014-.095-1.432.194-.418.289-.65.708-.703 1.264-.053.556.1 1.096.45 1.61s.8.84 1.33.997c.53.157 1.023.1 1.44-.186.417-.286.647-.712.695-1.273.013-.13.013-.26.004-.384"/></g><path id="path64" fill="#935a8c" d="M13.658 7.108c-.219-.946-.79-1.687-1.717-2.23-.66-.388-1.701-.75-3.11-1.09l-1.803-.42-1.822-.506C3.837 2.416 2.757 1.84 1.95 1.128c.24 1.014.257 2.142.042 3.385-.117.703-.396 1.768-.839 3.203C.764 9.021.523 9.99.452 10.621c-.106.993.042 1.83.445 2.507.308.517.893.96 1.757 1.322.774.332 1.678.564 2.719.695.993.13 1.931.146 2.82.054.921-.097 1.607-.294 2.062-.598 1.174-.782 2.1-1.893 2.786-3.33.712-1.498.917-2.887.624-4.163" style="stroke-width:.975626"/><path id="path65" d="M11.94 4.878c-.66-.387-1.7-.75-3.11-1.09l-1.802-.42-1.822-.505C3.837 2.416 2.757 1.84 1.95 1.128c.24 1.014.257 2.142.042 3.385-.117.703-.396 1.768-.839 3.203C.764 9.021.523 9.99.452 10.621c-.106.993.042 1.83.445 2.507.308.517.893.96 1.757 1.322.774.332 1.678.564 2.719.695.993.13 1.931.146 2.82.054.921-.097 1.607-.294 2.062-.598 1.174-.782 2.1-1.893 2.786-3.33.712-1.498.917-2.887.624-4.163-.218-.946-.79-1.687-1.717-2.23z" class="B C D G"/><path id="path66" fill="#674654" d="M13.203 8.537c-.098-1.015-.543-1.84-1.346-2.484-.803-.645-1.558-1.003-2.27-1.065a19.678 19.678 0 0 1-2.227-.345 13.717 13.717 0 0 1-2.18-.644c-.679-.265-1.444-.702-2.3-1.304.182.87.147 1.834-.097 2.888-.134.593-.429 1.49-.878 2.698-.412 1.099-.665 1.915-.753 2.449-.135.842-.034 1.56.307 2.156.266.45.686.884 1.263 1.298.576.413 1.351.678 2.319.8a19.386 19.386 0 0 0 2.79.156 4.646 4.646 0 0 0 2.416-.72c.718-.459 1.418-1.3 2.097-2.527.68-1.226.964-2.342.869-3.356" style="stroke-width:.975626"/><path id="path67" stroke="#935a8c" stroke-width=".757" d="M10.652 5.274a2.273 2.273 0 0 1 1.734 1.372c.379.862.313 1.932-.202 3.2a14.898 14.898 0 0 1-.845 1.797l-.215.35c-.316.475-.66.85-1.034 1.115a2.683 2.683 0 0 1-.273.172c-.434.24-.947.375-1.537.39l-.312.004c-.728-.016-1.625-.189-2.69-.513-1.298-.39-2.222-.968-2.782-1.722-.506-.678-.625-1.356-.359-2.033.267-.677.84-1.145 1.71-1.402.972-.283 2.11-.219 3.41.19.063-1.07.463-1.878 1.2-2.43.66-.498 1.393-.665 2.197-.5Z" class="B C"/><path id="path68" fill="#ffca6d" d="M10.61 5.19c-.803-.164-1.536.004-2.196.5-.737.552-1.137 1.36-1.2 2.43-1.3-.408-2.437-.471-3.41-.19-.871.257-1.44.725-1.71 1.403-.269.678-.146 1.356.359 2.033.56.753 1.485 1.33 2.782 1.722a16.205 16.205 0 0 1 1.819-1.305 15.562 15.562 0 0 1 1.722-.917 15.2 15.2 0 0 1 1.873-.716l1.494-.387c.514-1.268.581-2.337.202-3.2a2.273 2.273 0 0 0-1.734-1.372" style="stroke-width:.975626"/><g id="g71" class="F" transform="matrix(.97563 0 0 .97563 -29.634 -4.55)"><path id="path69" d="M42.82 14.67c-.522.108-1.03.242-1.532.397l.664 1.445a15.5 15.5 0 0 0 .867-1.842m-5.215 2.07a16.61 16.61 0 0 0-1.864 1.338c1.092.332 2 .5 2.757.526l.32-.004-1.212-1.86"/><path id="path70" d="m41.732 16.87.22-.358-.664-1.445a15.58 15.58 0 0 0-1.92.733l1.303 2.213c.384-.272.738-.656 1.06-1.143"/><path id="path71" d="M40.39 18.2c.095-.052.2-.112.28-.177L39.368 15.8a16.04 16.04 0 0 0-1.765.94l1.212 1.86c.604-.026 1.13-.164 1.575-.4"/></g><g id="g74" class="B C D H K" transform="matrix(.97563 0 0 .97563 -29.634 -4.55)"><path id="path72" d="M35.74 18.078c-1.33-.4-2.278-.992-2.852-1.765-.518-.695-.64-1.4-.367-2.084.273-.684.86-1.173 1.752-1.437.997-.3 2.162-.224 3.495.194.065-1.096.475-1.924 1.23-2.5.677-.5 1.428-.682 2.252-.513a2.33 2.33 0 0 1 1.778 1.406c.388.884.32 1.98-.207 3.28m-.001.001c-.522.108-1.03.242-1.532.397m-3.684 1.683a16.61 16.61 0 0 0-1.864 1.338m6.213-1.566-.22.358c-.324.488-.677.872-1.06 1.143m-1.857.587-.32.004c-.746-.017-1.665-.194-2.757-.526m4.93-.065a2.79 2.79 0 0 1-.28.177c-.444.246-.97.384-1.575.4m.554-2.8 1.303 2.213m2.15-3.343c-.302.746-.6 1.36-.867 1.842"/><path id="path73" d="m41.288 15.066.664 1.445m-4.348.23 1.212 1.86"/><path id="path74" d="M41.288 15.066a15.58 15.58 0 0 0-1.92.733m0 .001a16.04 16.04 0 0 0-1.765.94"/></g><path id="path75" d="M4.574 9.82a.519.519 0 0 0 0 .82.75.75 0 0 0 .497.174.735.735 0 0 0 .493-.173.507.507 0 0 0 .206-.408.522.522 0 0 0-.205-.412.734.734 0 0 0-.493-.164.779.779 0 0 0-.497.164" class="T" style="stroke-width:.975626"/><path id="path76" d="M4.372 10.232c0 .16.068.295.202.408a.75.75 0 0 0 .497.173.735.735 0 0 0 .493-.173.507.507 0 0 0 .206-.408.522.522 0 0 0-.205-.412.734.734 0 0 0-.493-.164.779.779 0 0 0-.497.164.505.505 0 0 0-.202.412Z" class="B C D H"/><path id="path77" d="M10.61 8.094a.731.731 0 0 0 .102-.51.492.492 0 0 0-.253-.374.521.521 0 0 0-.455-.034.761.761 0 0 0-.396.341c-.098.164-.127.337-.098.51.03.172.113.302.254.383.14.08.29.088.455.025a.753.753 0 0 0 .39-.341" class="T" style="stroke-width:.975626"/><path id="path78" d="M10.711 7.586a.5.5 0 0 0-.253-.374.521.521 0 0 0-.455-.034.761.761 0 0 0-.396.341c-.098.164-.127.337-.098.51.03.172.113.302.254.383.14.08.29.088.455.025a.753.753 0 0 0 .39-.341.744.744 0 0 0 .101-.51z" class="B C D H"/><path id="path79" fill="#a3555c" d="M23.196 3.767a.466.466 0 0 0-.331-.135.46.46 0 0 0-.332.135.448.448 0 0 0-.139.332.459.459 0 0 0 .139.336.45.45 0 0 0 .332.139c.13 0 .24-.046.331-.139a.462.462 0 0 0 .139-.336.446.446 0 0 0-.139-.332" style="stroke-width:.975626"/><path id="path80" d="m14.01 45.473 2.181-1.054m-3.674-.315 2.29-2.988m-4.163 1.622.686-1.883" class="B C D E G K"/><path id="path81" d="M12.37 43.541c-1.17-.938-2.361-1.63-3.578-2.066l-.253 2.484 4.357 3.473 2.536-.715a18.52 18.52 0 0 0-3.073-3.174" class="M" style="stroke-width:.975626"/><path id="path82" d="m12.896 47.431-.976-.779c-.375.5-.778.804-1.217.918-.438.113-.854.029-1.237-.261-.39-.298-.572-.702-.526-1.213.039-.446.243-.878.618-1.327l-1.018-.812c-.67.778-1.035 1.515-1.099 2.218-.068.779.244 1.464.93 2.078.728.644 1.52.879 2.373.732.854-.146 1.575-.683 2.152-1.557" class="J" style="stroke-width:.975626"/><use xlink:href="#B" id="use82" fill="#716f75" transform="matrix(.97563 0 0 .97563 -29.634 -4.55)"/><path id="path83" fill="#86adc0" d="m12.584 47.119-2.757-2.197-.842-.683c-.55.644-.848 1.254-.905 1.834-.055.644.198 1.217.766 1.717.602.53 1.255.732 1.951.602.697-.13 1.3-.556 1.776-1.284" style="stroke-width:.975626"/><path id="path84" d="m12.347 47.031 2.127-.654a12.834 12.834 0 0 0-4.903-4.066l-.316 2.062 3.092 2.656" class="N" style="stroke-width:.975626"/><path id="path85" d="M8.416 46.768a.482.482 0 0 0 0-.695.468.468 0 0 0-.346-.143.478.478 0 0 0-.492.492.468.468 0 0 0 .143.346.478.478 0 0 0 .35.146c.134 0 .248-.05.345-.146" class="J" style="stroke-width:.975626"/><use xlink:href="#B" id="use85" fill="#685f63" transform="matrix(.97563 0 0 .97563 -29.634 -4.55)"/><g id="g88" class="B C D" transform="matrix(.97563 0 0 .97563 -29.634 -4.55)"><g id="g87" class="H K"><path id="path86" d="m43.592 53.28-1-.798m-2.422-1.93-1.044-.833m1.044.833c-.384.45-.595.902-.634 1.36-.047.522.13.936.54 1.243.393.298.815.384 1.268.267.453-.117.863-.427 1.247-.94"/><path id="path87" d="m42.59 52.48-2.42-1.93"/></g><path id="path88" d="M43.053 49.293a19.02 19.02 0 0 1 3.15 3.253l-2.6.733c-.59.906-1.33 1.437-2.205 1.596-.875.159-1.687-.09-2.433-.75-.703-.62-1.023-1.333-.953-2.13.065-.72.44-1.476 1.126-2.274l.26-2.546c1.247.45 2.468 1.156 3.667 2.118z" class="G"/></g><path id="path89" fill="#716f75" d="M10.897 39.875a.913.913 0 0 0 .117.648.907.907 0 0 0 .505.42.693.693 0 0 0 .593-.052c.195-.105.299-.269.342-.492a.907.907 0 0 0-.122-.648.907.907 0 0 0-.5-.42.7.7 0 0 0-.603.045.663.663 0 0 0-.331.488m3.566.293a.712.712 0 0 0 .042.618.927.927 0 0 0 .506.455.907.907 0 0 0 .683.017.712.712 0 0 0 .454-.426.722.722 0 0 0-.042-.623.917.917 0 0 0-.509-.451.937.937 0 0 0-.678-.021.722.722 0 0 0-.455.429m2.01 3.301a.673.673 0 0 0-.421.337.527.527 0 0 0 0 .488c.08.168.214.29.41.37.195.08.383.084.58.022a.651.651 0 0 0 .413-.329.546.546 0 0 0 .01-.497.741.741 0 0 0-.408-.362.839.839 0 0 0-.58-.03" style="stroke-width:.975626"/><path id="path90" d="M14.516 40.775a.927.927 0 0 0 .506.455.907.907 0 0 0 .683.017.712.712 0 0 0 .454-.426.722.722 0 0 0-.042-.623.917.917 0 0 0-.51-.451.937.937 0 0 0-.677-.021.722.722 0 0 0-.455.429.712.712 0 0 0 .042.618zm1.537 3.017a.527.527 0 0 0 0 .488c.08.169.214.29.41.37.195.08.383.084.58.022a.651.651 0 0 0 .413-.329.546.546 0 0 0 .01-.497.741.741 0 0 0-.408-.362.839.839 0 0 0-.58-.03.673.673 0 0 0-.422.337zm-5.04-3.268c.123.195.291.349.506.42a.693.693 0 0 0 .593-.052c.195-.105.299-.269.342-.492a.907.907 0 0 0-.122-.648.907.907 0 0 0-.5-.42.7.7 0 0 0-.603.045.663.663 0 0 0-.331.488.949.949 0 0 0 .117.648z" class="B C D E G"/><path id="path91" d="M24.228 12.977c-1.048-.173-2.194-.04-3.44.408-1.245.446-2.214 1.069-2.913 1.869-.698.8-.927 1.55-.678 2.244.249.694.9 1.128 1.95 1.3 1.048.173 2.193.034 3.434-.412 1.24-.447 2.218-1.07 2.927-1.864.702-.804.926-1.55.678-2.244-.25-.694-.9-1.128-1.95-1.3" class="O" style="stroke-width:.975626"/><path id="path92" d="M22.094 17.792c1.107-.332 1.99-.813 2.656-1.432.665-.618.909-1.204.745-1.746-.164-.543-.695-.898-1.587-1.044-.893-.146-1.899-.055-3.005.278-1.107.333-1.996.813-2.656 1.431-.66.619-.91 1.2-.745 1.747.164.546.694.892 1.587 1.044.893.15 1.899.054 3.005-.278" class="P" style="stroke-width:.975626"/><path id="path93" d="m53.818 24.549-.054-.055c-1.852-2.041-3.815-3.75-5.89-5.132l-.265-.181-.13.694a65.178 65.178 0 0 0-6.93-2.77h-.009c-.013-.004-.03-.01-.042-.01a67.67 67.67 0 0 0-11.508-1.688l-.219-.013-.088 4.307c0 .012 0 .021.004.034l.56 4.054 1.33.825-1.673-.02-4.18-8.741-5.18.846-.686 3.135-1.571-2.63a.199.199 0 0 0-.11-.093.213.213 0 0 0-.143 0 41.62 41.62 0 0 0-4.925 2.181l-.012.004a47.05 47.05 0 0 0-3.688 2.146l-.01.004-.004.004a53.585 53.585 0 0 0-6.335 4.794l-.063.055-.01.088c-.24 3.356.231 6.71 1.405 10.064.013.03.03.059.059.084a.302.302 0 0 0 .088.051l5.3 1.335 2.02-2.244a.343.343 0 0 0 .05-.093.205.205 0 0 0 0-.101l-.47-1.819 3.092 1.886 3.106-.804 3.001-.779 3.683-.58a.22.22 0 0 0 .173-.156l1.16-4.5 1.145 3.73 3.005-.741v.396l8.371.429 6.432 1.23c.013.003.03.003.042.01l2.459.467.695-.825.336 3.52 2.39-.176c.013 0 .03-.004.046-.01l3.165-.947-.846-5.37 1.376-1.099a.215.215 0 0 0 .071-.11c.379-1.476.535-3.014.469-4.608zm-.858 4.512-.122.098-1.01.803-.236-1.46-.464-.257.342 2.13v.017l.808 5.122-2.648.79-.146.046-.106.01-1.848.134-.341-3.519 1.975-2.341.016-.022.026-.034-.39-.176-.115.139-2.741 3.241-1.942-.37 1.966-3.445a.322.322 0 0 0 .022-.063V29.9l.025-.122.575-3.034c.004-.01.004-.017.01-.025.004-.017.004-.035.004-.051l1.292-6.79c1.932 1.317 3.763 2.926 5.498 4.829.054 1.46-.084 2.87-.417 4.234l-.025.11zM17.018 17.565l.172.295 1.537 2.575-2.172 9.994a.278.278 0 0 0 .004.097.212.212 0 0 0 .042.084l.04.042 2.58 2.993-2.586.67-3.2-2.699.004.084a.207.207 0 0 1-.05.151.195.195 0 0 1-.144.076.207.207 0 0 1-.151-.05l.021.021 3.023 2.537-2.534.656-3.397-2.066-.113-.071-.205-.127c-.004-.02-.013-.042-.017-.064l-.193-.938-.004-.01-.004-.021a49.061 49.061 0 0 1-.572-3.46 44.537 44.537 0 0 1-.371-6.605 44.918 44.918 0 0 1 3.279-1.919l.151 3.659.42-.16-.16-3.713a40.079 40.079 0 0 1 4.541-2.016c.017-.01.04-.017.059-.026zm-14.61 8.937A53.679 53.679 0 0 1 8.3 22.014a45.054 45.054 0 0 0 .371 6.34c.004.012.004.029.01.045l.013.093.016.135a49.084 49.084 0 0 0 .468 2.854l-2.8-1.435-.237-.122.017.01a.283.283 0 0 1 .059.064.2.2 0 0 1 .025.07.207.207 0 0 1-.017.135c-.004.01-.012.017-.016.026a.222.222 0 0 1-.135.084H6.07a.203.203 0 0 1-.151-.034l-.017-.013a.177.177 0 0 0 .04.03l.277.143 3.064 1.574.21 1.002c.005.03.017.055.04.076a.195.195 0 0 0 .058.059l.337.202.551 2.13-1.776 1.97-4.946-1.246a.41.41 0 0 1-.021-.067c-1.099-3.212-1.542-6.423-1.327-9.635Zm20.55-3.09-.203.619 1.65 4.02-1.28 4.94-.064.01-3.38.535-2.694-3.122.03-.134 2.138-9.842.737-3.367 4.592-.75 4.078 8.532.16 2.82.017.256.071 1.263v2.097l-2.719.67-.99-3.25-.003-.009-.04-.11-.235-.624-.004-.004-.004-.012zm6.208-3.304-.054-.379-.004-.034.08-3.852a67.26 67.26 0 0 1 11.066 1.625l.417.122a65.35 65.35 0 0 1 6.732 2.71l-1.805 9.496-.088.15-1.937 3.39-5.994-1.142 2.27-2.888a.206.206 0 0 0 .041-.113l.022-.308.016-.256.244-3.625a.163.163 0 0 0-.013-.087.213.213 0 0 0-.045-.072l-.013-.016-1.09-1.132 1.298-2.732-.244-.058h-.004l-1.233 2.597-.198.39 1.103 1.176-.27 3.98-.003.046-.16.205-2.215 2.816-7.863-.404v-2.539l-.004-.127-.236-4.036 5.842.08-.44-.425-3-.042-1.756-1.09-.477-3.43" style="stroke-width:.975626"/><path id="path94" d="m49.163 30.643-.232.274.446 5.444.106-.01.146-.046-.468-5.662" class="F" style="stroke-width:.975626"/><path id="path95" d="m49.377 36.36-.446-5.444-1.742 2.048.341 3.52 1.848-.135" class="I" style="stroke-width:.975626"/><path id="path96" d="m48.691 30.55-2.744-.516-1.937 3.388 1.952.37.854-1.014.004-.004 1.883-2.222m2.898-2.051.236 1.46 1.01-.804-1.246-.656" class="L" style="stroke-width:.975626"/><path id="path97" d="m52.838 29.158.122-.098.025-.11-1.59-.85-.32-.16.054.293.464.256 1.246.657m-6.842.76c-.004.022-.013.043-.022.064l-.029.055 2.744.517.115-.139-.004-.097-2.779-.527-.025.122v.004" class="F" style="stroke-width:.975626"/><path id="path98" d="M51.452 26.182v-.5l-2.913-1.958.266 6.69.39.175.025-.113-.236-5.94 2.459 1.646" class="I" style="stroke-width:.975626"/><path id="path99" d="M51.452 25.68v.5l-2.458-1.645.236 5.932-.025.122-.026.034-.016.021.468 5.662 2.648-.79-.808-5.14-.342-2.13-.054-.302.32.16 1.59.85a15.39 15.39 0 0 0 .417-4.234c-1.735-1.902-3.565-3.51-5.498-4.829l-.058.316-.004.017-1.23 6.456c0 .017 0 .035-.004.051-.004.01-.004.017-.01.026l-.575 3.034 2.778.527-.261-6.592 2.913 1.957" class="J" style="stroke-width:.975626"/><path id="path100" fill="#d8f5fc" d="m17.19 17.86-.173-.295-.059.026c-.265 3.295-.227 6.79.11 10.485l.18-.842c-.26-3.288-.282-6.41-.058-9.374" style="stroke-width:.975626"/><path id="path101" d="m18.726 20.435-1.537-2.575c-.224 2.963-.202 6.088.059 9.374l1.477-6.799" class="I" style="stroke-width:.975626"/><path id="path102" d="m19.218 33.645-2.58-2.993-3.064 1.083 3.06 2.58 2.586-.669" class="L" style="stroke-width:.975626"/><path id="path103" d="m9.886 32.836.205.126 3.022-1.065-.021-.021a.215.215 0 0 1-.064-.09l-.012-.05v-.004l-.004-.071-3.145 1.112c.004.022.013.042.017.064" class="F" style="stroke-width:.975626"/><path id="path104" d="m10.21 33.035 3.393 2.066 2.534-.657-3.023-2.536-3.022 1.065.113.071h.004" class="L" style="stroke-width:.975626"/><path id="path105" d="m13.014 26.68-.413.16.413 4.823.004.071v.004l.012.05a.215.215 0 0 0 .064.09.204.204 0 0 0 .294-.026.21.21 0 0 0 .051-.151l-.004-.084-.01-.1-.412-4.837" class="I" style="stroke-width:.975626"/><path id="path106" d="M16.558 30.525a.207.207 0 0 1-.004-.097l.004-.022-3.122 1.108.01.101.139.117 3.063-1.083-.039-.042a.273.273 0 0 1-.038-.067" class="F" style="stroke-width:.975626"/><path id="path107" d="m12.576 23.32-.42.16-.151-3.66-3.278 1.92c-.042 2.164.08 4.365.37 6.605l.573 3.46c.004.013.004.017.004.022l.004.01.193.938 3.145-1.112-.413-4.823.413-.16.412 4.836 3.122-1.108.51-2.341c-.337-3.696-.375-7.19-.11-10.485a40.079 40.079 0 0 0-4.541 2.016l.16 3.713" class="J" style="stroke-width:.975626"/><path id="path108" d="M8.708 28.627c-.01-.046-.012-.093-.016-.135l-.013-.093c-.004-.016-.004-.034-.01-.045l-2.551 1.553.021.016.237.122 2.341-1.418" class="F" style="stroke-width:.975626"/><path id="path109" d="m9.175 31.481-.469-2.853-2.341 1.418 2.8 1.435" class="L" style="stroke-width:.975626"/><path id="path110" d="M8.299 22.016c-2 1.31-3.965 2.803-5.893 4.488-.215 3.212.227 6.423 1.327 9.635l2.84-1.924-.635-3.919c-.013-.01-.026-.016-.04-.03l-2.175-1.511 2.449-1.604.046.463-1.743 1.153 1.642 1.142 2.551-1.553a46.675 46.675 0 0 1-.37-6.34" class="J" style="stroke-width:.975626"/><path id="path111" d="M6.216 29.997a.283.283 0 0 0-.059-.064l-.017-.01-.021-.016-1.642-1.142 1.742-1.153-.045-.463-2.45 1.604 2.194 1.524a.215.215 0 0 0 .151.034h.004a.224.224 0 0 0 .135-.084c.004-.01.012-.017.016-.026a.206.206 0 0 0 .017-.134.194.194 0 0 0-.025-.071" class="I" style="stroke-width:.975626"/><path id="path112" d="m6.216 30.438-.278-.144.636 3.92-2.841 1.923a.41.41 0 0 0 .021.067l.24.064 2.786-1.89a.146.146 0 0 0 .046-.055c.01-.033.013-.05.01-.07l-.013-.077-.604-3.736" class="F" style="stroke-width:.975626"/><path id="path113" d="m9.49 33.013-.21-1.002-3.063-1.574.604 3.736 3.654 1.305-.551-2.13-.337-.202a.195.195 0 0 1-.058-.059.133.133 0 0 1-.04-.076" class="I" style="stroke-width:.975626"/><path id="path114" d="m8.699 37.45 1.775-1.97-3.746-1.07-2.736 1.857L8.7 37.449" class="L" style="stroke-width:.975626"/><path id="path115" fill="#93cae0" d="m6.821 34.175.013.076c.004.022 0 .04-.004.059-.016.034-.029.054-.05.068l-.051.034 3.746 1.07-3.654-1.305" style="stroke-width:.975626"/><path id="path116" d="m28.74 27.938-.017-.257-3.662.918.034.097.01.022.039.121 3.6-.9" class="F" style="stroke-width:.975626"/><path id="path117" d="m28.811 29.192-.071-1.263-3.6.9.951 3.129 2.72-.67v-2.097" class="L" style="stroke-width:.975626"/><path id="path118" d="M22.556 23.56h.004l-.01-.022c0 .004 0 .013.004.021" style="stroke-width:.975626"/><path id="path119" d="m21.398 29.339.03-.017-.017-.029-.013.046" class="J" style="stroke-width:.975626"/><path id="path120" d="m22.753 24.03-.163-.39-1.415 5.565-4.16 1.074-.029.134v.004l.093.105 4.23-1.094c.01-.004.017-.004.026-.01a.185.185 0 0 0 .03-.025.117.117 0 0 0 .033-.055l.013-.046 1.342-5.261" class="F" style="stroke-width:.975626"/><path id="path121" fill="#93cae0" d="m21.428 29.321-.03.017a.097.097 0 0 1-.034.055c-.01.01-.016.016-.03.025-.012.009-.016.004-.025.01l-.097.025 1.848 3.549.063-.01-1.697-3.67" style="stroke-width:.975626"/><path id="path122" d="m21.41 29.292.018.03 1.697 3.67 1.28-4.942-1.649-4.02-1.342 5.262" class="I" style="stroke-width:.975626"/><path id="path123" d="m21.213 29.452-4.134 1.07 2.601 3.014 3.38-.534-1.847-3.549" class="L" style="stroke-width:.975626"/><path id="path124" d="m25.57 21.766-.151-.396-3.363.66.497 1.508.01.021h-.004l.034.08.164.39.198-.624-.349-1.056 2.968-.586" class="I" style="stroke-width:.975626"/><path id="path125" d="m25.418 21.37.151.396-2.968.586.35 1.056 1.873 4.56.236.624 3.662-.917-.16-2.82-4.078-8.532-4.592.75-.737 3.375-2.138 9.834 4.159-1.073 1.414-5.565-.025-.068c-.013-.021-.013-.03-.013-.034l-.497-1.508 3.363-.66" class="J" style="stroke-width:.975626"/><path id="path126" d="m45.505 29.948.088-.151.016-.088-5.688-1.077-.016.256 5.598 1.06" class="F" style="stroke-width:.975626"/><path id="path127" d="m43.567 33.337 1.937-3.388-5.598-1.06-.022.307a.215.215 0 0 1-.042.113l-2.269 2.888 5.994 1.141" class="L" style="stroke-width:.975626"/><path id="path128" d="m39.47 29.109.004-.046H29.23l.004.114v.139h10.078l.16-.205" class="F" style="stroke-width:.975626"/><path id="path129" d="m37.095 32.121 2.215-2.815H29.232v2.412l7.863.403" class="L" style="stroke-width:.975626"/><path id="path131" d="M34.94 19.78v.286l.644.068 4.47.78a.169.169 0 0 1-.025-.109l.012-.146-4.84-.833-.261-.034" class="F" style="stroke-width:.975626"/><path id="path132" d="M35.587 20.133h-.004l-.644-.068 3.683 3.839.198-.39-3.233-3.381" class="I" style="stroke-width:.975626"/><path id="path133" d="m29.64 23.548 1.756 1.09 3.001.041-5.232-4.563.476 3.43" class="L" style="stroke-width:.975626"/><path id="path134" d="M34.94 20.065v-.286l.26.034 4.841.833.211-3.177a67.257 67.257 0 0 0-11.066-1.625l-.08 3.852.004.034 5.728 4.992-.003.375-5.842-.08.236 4.036h10.244l.269-3.98-4.803-5.005" class="J" style="stroke-width:.975626"/><path id="path135" d="m29.109 19.73.054.378 5.233 4.563.439.425.003-.375-5.728-4.992" class="F" style="stroke-width:.975626"/><path id="path136" d="M43.384 22.326v.441l3.296 1.322.08-.42-3.376-1.342m-.166 3.282v.442l2.927.779.08-.417-3.018-.804" class="I" style="stroke-width:.975626"/><path id="path137" d="m40.096 24.83.013.017a.195.195 0 0 1 .046.071c.011.03.016.059.012.088l-.244 3.625 5.688 1.078.547-2.878-2.937-.779v-.442l3.018.804.442-2.324-3.297-1.323v-.442l3.376 1.343.64-3.368a65.13 65.13 0 0 0-6.732-2.71l-.312 3.392-.262 3.847" class="J" style="stroke-width:.975626"/><path id="path138" d="M40.055 20.908v.005l-4.466-.78 3.232 3.372 1.233-2.597" class="L" style="stroke-width:.975626"/><path id="path139" d="m40.67 17.59-.417-.121-.21 3.177-.013.147a.165.165 0 0 0 .025.109v.004h.004l.244.058-1.298 2.732 1.09 1.132.262-3.847.312-3.392" class="I" style="stroke-width:.975626"/><path id="path140" stroke="red" stroke-linecap="square" d="M35.584 20.133h.004" class="B C U"/><g id="g143" fill="#8ebed3" transform="matrix(.97563 0 0 .97563 -29.634 -4.55)"><path id="path141" d="m61.88 21.456-1.17-.1-.07 3.326.764.664 2.187-3.728-1.713-.173M58.1 27.902l-2.377 4.06.488 1.187c.004.01.004.017.01.026l.108.28.388-.095 2.2-3.754-.815-1.704m7.248.893.86.746a.416.416 0 0 1 .177.112.91.91 0 0 1 .1.12.43.43 0 0 1 .117.272.39.39 0 0 1-.082.285v.06a.46.46 0 0 1-.129.306.42.42 0 0 1-.3.12L64.18 30.8l-1.9 3.218h3.628l3.072-5.238-2.252-2.347-1.385 2.37M71.18 22.9l-2.118-.45-1.342 2.3 3.296.57v-.013l.164-2.4m-36.588 8.006-1.333 1.122-.04 1.22 1.372-2.343m15.844-5.237c-.004.013-.004.022-.004.035l-1.113 5.108 5.182-8.832-3.378.552-.686 3.137m-3.456 9.83.453-2.088-.276-5.1-2.904 4.953.263 3.098 2.464-.87m-6.274 1.67-.004-.022c-.01-.017-.01-.026-.013-.035l.017.056m2.41-1.967-1.225 2.088 1.363-.48-.138-1.6m-9 4.775.3 1.053 2.213-1.5-.488-3.03-2.036 3.477m3.308-5.636L38.8 33.5l-.138-1.28-1.247 2.127M68.672 34h1.76l.224-3.387L68.67 34m12.635-4.752.893-1.523a29.49 29.49 0 0 0-2.425-1.941l-1.2 6.265-.017.12c-.01.017-.01.026-.013.04l-.488 2.567 1.743-2.973L79.696 29a.4.4 0 0 1 .099-.293.41.41 0 0 1 .272-.15c.108-.012.2.004.302.07l.936.626"/><path id="path143" d="m83.643 29.088-.73 1.243.44.298a.4.4 0 0 1 .181.272.44.44 0 0 1-.065.328l-.242.358a.4.4 0 0 1-.272.181.436.436 0 0 1-.328-.065l-.37-.255-1.1 1.864.04 2.87.423 5.13 1.842-.552-.768-4.88c-.004-.017-.004-.035-.004-.052l-.345-2.144a2.46 2.46 0 0 1-.039-.492.343.343 0 0 1 .052-.177.31.31 0 0 1 .125-.1.28.28 0 0 1 .164-.039.7.7 0 0 1 .142.026c.086.017.237.078.457.18l.116.065c.026.01.052.022.078.043l.936.5c.233-1.14.332-2.313.298-3.516l-1.04-1.087m-11.614-.8L71.913 30l-.16 3.663 5.026.954.406-2.14-2.666-.73a.39.39 0 0 1-.259-.198.41.41 0 0 1-.043-.328l.01-.418a.41.41 0 0 1 .526-.306l2.68.708.298-1.575-3.05-1.225c-.056-.022-.112-.108-.177-.26-.065-.152-.082-.246-.06-.302l.02-.4c.043-.108.12-.2.23-.237a.797.797 0 0 1 .237-.04.557.557 0 0 1 .233.035l2.817 1.13.492-2.606-3.956-1.678-2.485 4.24M47.25 23.75l.026-.414a40.42 40.42 0 0 0-3.732 1.683l.15 3.53a.42.42 0 0 1-.112.311.43.43 0 0 1-.302.138l-.43.12a.395.395 0 0 1-.306-.112.41.41 0 0 1-.142-.298l-.112-2.684-2.48 4.237.315 3.4.263 1.795L47.25 23.75"/></g><path id="path144" d="m26.77 40.17.975 3.244.715-1.083 1.646 2.121.054-1.73 2.281 1.293-.054-1.304 3.388 1.415-2.134-2.69 1.823-.67-1.857-1.187 1.423-1.115-2.315-.025.543-1.161-3.696.156-2.795 2.735" class="Q" style="stroke-width:.975626"/><path id="path145" d="m26.77 40.17 2.794-2.736 3.696-.156-.544 1.16 2.316.026-1.423 1.115 1.857 1.188-1.823.669 2.134 2.69-3.388-1.415.054 1.304-2.28-1.292-.055 1.73-1.646-2.122-.715 1.083z" class="B C H R"/><path id="path146" d="M22.716 32.914c-.273.61-.248 1.204.08 1.78.33.577.864.973 1.6 1.183a3.4 3.4 0 0 0 2.197-.11c.72-.282 1.217-.724 1.495-1.33a1.854 1.854 0 0 0-.076-1.78c-.329-.576-.862-.973-1.604-1.182a3.337 3.337 0 0 0-2.188.105c-.72.283-1.22.724-1.503 1.335" class="J" style="stroke-width:.975626"/><path id="path147" d="M22.796 34.684c.33.576.864.973 1.6 1.183a3.4 3.4 0 0 0 2.197-.11c.72-.281 1.217-.723 1.495-1.33a1.854 1.854 0 0 0-.076-1.78c-.329-.575-.862-.972-1.604-1.182a3.337 3.337 0 0 0-2.188.105c-.72.283-1.22.724-1.503 1.335-.273.61-.248 1.204.08 1.78z" class="B C D E G"/><path id="path148" fill="#89a9b9" d="M23.613 33.232c-.202.45-.182.878.058 1.313.24.435.635.72 1.179.875a2.517 2.517 0 0 0 1.62-.084c.531-.205.898-.53 1.103-.98.205-.45.19-.878-.055-1.314-.244-.435-.634-.715-1.182-.87a2.47 2.47 0 0 0-1.617.075c-.53.207-.9.535-1.107.976" style="stroke-width:.975626"/><path id="path149" d="M25.313 32.328a.42.42 0 0 0 .26.198.529.529 0 0 0 .362-.021.43.43 0 0 0 .248-.219.3.3 0 0 0-.013-.29.431.431 0 0 0-.265-.198.546.546 0 0 0-.358.016.422.422 0 0 0-.25.225.297.297 0 0 0 .014.29" class="J" style="stroke-width:.975626"/><path id="path150" d="M32.178 35.03c-1.31-.357-2.56-.432-3.75-.227a24.137 24.137 0 0 1 2.613 2.248l1.137-2.02" class="M" style="stroke-width:.975626"/><path id="path151" d="M29.49 39.651c.786-.64 1.304-1.507 1.552-2.6a24.137 24.137 0 0 0-2.613-2.248c-2.796-2.05-5.67-3.107-8.63-3.142.312 3.11 2.403 6.112 6.276 9.008 1.394.039 2.53-.299 3.415-1.019" class="F" style="stroke-width:.975626"/><path id="path152" d="m30.908 37.029.85-1.512c-.975-.266-1.912-.32-2.8-.17a18.449 18.449 0 0 1 1.95 1.679" class="N" style="stroke-width:.975626"/><path id="path153" d="m19.56 31.443.033.24c.308 3.161 2.425 6.213 6.357 9.156l.054.042h.068c1.448.042 2.63-.313 3.552-1.066.812-.66 1.351-1.557 1.616-2.686l1.269-2.234-.266-.068c-1.309-.358-2.559-.44-3.754-.249-2.812-2.054-5.703-3.097-8.675-3.128zm9.285 3.516c.964-.117 1.971-.051 3.018.204l-.913 1.62a24.851 24.851 0 0 0-2.105-1.827Zm-.538.016.07.05.94.716c.685.543 1.195.968 1.518 1.284-.24 1.034-.731 1.857-1.477 2.462-.837.683-1.906.999-3.211.976-3.678-2.766-5.718-5.627-6.108-8.585 2.83.087 5.586 1.124 8.268 3.097" style="stroke-width:.975626"/><path id="path154" fill="#cbc4c4" d="M28.853 39.528c.619-.5 1.022-1.182 1.22-2.045a17.97 17.97 0 0 0-2.054-1.768c-2.201-1.62-4.462-2.441-6.79-2.467.248 2.446 1.892 4.807 4.936 7.083 1.095.03 1.99-.236 2.686-.804" style="stroke-width:.975626"/><path id="path155" d="M29.401 39.155c1.3-.013 2.244-.18 2.82-.506-1.217-1.216-2.986-2.042-5.304-2.484.211.661 1.04 1.655 2.484 2.989" class="M" style="stroke-width:.975626"/><path id="path156" d="M29.182 39.133c1.098 0 1.902-.127 2.408-.378-.956-.968-2.404-1.637-4.336-2.004.143.527.787 1.317 1.928 2.382" class="N" style="stroke-width:.975626"/><path id="path157" d="m26.62 35.897.16.353c.325.728 1.129 1.692 2.409 2.883l.214.232c1.347-.013 2.32-.19 2.921-.531l.254-.135-.205-.198c-1.242-1.246-3.044-2.092-5.413-2.542zm2.78 3.048h-.04c-1.144-1.065-1.877-1.902-2.193-2.513 1.995.416 3.557 1.136 4.685 2.159-.564.224-1.38.341-2.454.353" style="stroke-width:.975626"/><path id="path158" d="M24.43 40.965c.476-.366.913-.98 1.309-1.852L23.25 37.05c-.169 1.356.224 2.66 1.179 3.915" class="M" style="stroke-width:.975626"/><path id="path159" d="m25.785 39.004-2.03-1.575c-.105 1.157.236 2.234 1.028 3.232.37-.341.702-.893 1.002-1.658" class="N" style="stroke-width:.975626"/><path id="path160" d="m23.099 36.76-.051.253c-.181 1.419.224 2.779 1.213 4.083l.13.173.17-.135c.5-.383.967-1.048 1.401-1.995zm2.42 2.341c-.325.695-.679 1.217-1.054 1.566-.758-1.06-1.103-2.16-1.035-3.292l2.088 1.727" style="stroke-width:.975626"/><path id="path161" d="M40.572 36.582c-.353.117-.66.35-.922.699-.261.349-.396.707-.408 1.078-.011.37.102.644.342.825.24.182.535.215.884.098.35-.117.66-.35.922-.699.261-.35.396-.707.408-1.077.011-.37-.098-.649-.337-.83-.239-.18-.539-.21-.878-.092" class="O" style="stroke-width:.975626"/><path id="path162" d="M41.296 37.04c-.175-.13-.396-.156-.654-.068a1.44 1.44 0 0 0-.682.513c-.196.257-.291.522-.299.796-.008.273.071.475.254.604.172.135.39.16.647.072.258-.09.488-.257.683-.513.196-.257.291-.522.299-.796.008-.273-.071-.476-.248-.61" class="P" style="stroke-width:.975626"/><path id="path163" d="M17.96 40.851c.474-.039.967.076 1.485.342.518.265.9.602 1.15 1.01.248.407.29.78.126 1.085-.164.306-.48.493-.956.531-.476.038-.973-.08-1.49-.345-.517-.266-.897-.598-1.145-1.005-.248-.407-.295-.78-.135-1.086.16-.305.484-.493.964-.53" class="O" style="stroke-width:.975626"/><path id="path164" d="M18.111 41.187c-.383.03-.644.169-.774.42-.131.25-.093.546.109.875.202.328.505.598.917.807.412.21.813.303 1.195.274.383-.03.64-.173.78-.426.141-.252.093-.543-.105-.868-.198-.332-.505-.602-.922-.813-.416-.21-.812-.302-1.19-.273" class="P" style="stroke-width:.975626"/><path id="path165" d="m38.514 45.717-.619-.998-1.073.193.618.998 1.074-.193" class="Q" style="stroke-width:.975626"/><path id="path166" d="m37.894 44.719-1.073.193.618.998 1.074-.193z" class="B C H R"/><path id="path167" d="m40.806 46.575.544-.48-.379-.634-.543.48.378.634" class="Q" style="stroke-width:.975626"/><path id="path168" d="m41.35 46.094-.378-.634-.543.48.378.634z" class="B C H R"/><path id="path169" d="m43.64 46.172.446-.21-.345-.266-.446.211.346.265" class="Q" style="stroke-width:.975626"/><path id="path170" d="m44.086 45.96-.345-.265-.446.211.346.265z" class="B C H R"/><path id="path171" d="M38.055 38.844c-.265.034-.522.16-.76.374a1.463 1.463 0 0 0-.472.72c-.071.266-.034.476.11.634.143.158.348.225.624.195.265-.039.522-.163.765-.378a1.493 1.493 0 0 0 .468-.715c.071-.266.033-.476-.11-.64-.142-.164-.349-.219-.624-.182" class="O" style="stroke-width:.975626"/><path id="path172" d="M38.56 39.171c-.122-.134-.291-.195-.514-.156a1.293 1.293 0 0 0-.64.316 1.23 1.23 0 0 0-.387.594c-.059.224-.03.39.093.534.122.145.29.18.513.147a1.2 1.2 0 0 0 .634-.313c.201-.181.332-.374.387-.598.059-.214.03-.39-.087-.527" class="P" style="stroke-width:.975626"/></g><defs id="defs172"><path id="B" d="M40.17 50.552c-.384.45-.595.902-.634 1.36-.047.522.13.936.54 1.243.393.298.815.384 1.268.267.453-.117.863-.427 1.247-.94l-2.42-1.93"/></defs></svg>