<?xml version="1.0" encoding="UTF-8" standalone="no"?>
<svg
   width="300"
   height="300"
   preserveAspectRatio="xMidYMid"
   version="1.1"
   id="svg144"
   sodipodi:docname="tailwindcss.svg"
   inkscape:version="1.2 (dc2aedaf03, 2022-05-15)"
   xmlns:inkscape="http://www.inkscape.org/namespaces/inkscape"
   xmlns:sodipodi="http://sodipodi.sourceforge.net/DTD/sodipodi-0.dtd"
   xmlns="http://www.w3.org/2000/svg"
   xmlns:svg="http://www.w3.org/2000/svg">
  <sodipodi:namedview
     id="namedview146"
     pagecolor="#ffffff"
     bordercolor="#666666"
     borderopacity="1.0"
     inkscape:showpageshadow="2"
     inkscape:pageopacity="0.0"
     inkscape:pagecheckerboard="0"
     inkscape:deskcolor="#d1d1d1"
     showgrid="false"
     inkscape:zoom="1.5324675"
     inkscape:cx="73.084746"
     inkscape:cy="77"
     inkscape:window-width="1920"
     inkscape:window-height="1017"
     inkscape:window-x="1912"
     inkscape:window-y="-8"
     inkscape:window-maximized="1"
     inkscape:current-layer="svg144" />
  <defs
     id="defs140">
    <linearGradient
       x1="-5.5086842"
       y1="63.45496"
       x2="198.29675"
       y2="133.96135"
       id="a"
       gradientTransform="matrix(1.2909944,0,0,0.77459667,20,64)"
       gradientUnits="userSpaceOnUse">
      <stop
         stop-color="#2298BD"
         offset="0%"
         id="stop135" />
      <stop
         stop-color="#0ED7B5"
         offset="100%"
         id="stop137" />
    </linearGradient>
  </defs>
  <path
     d="M 148,64 C 113.867,64 92.533,81.067 84,115.2 96.8,98.133 111.733,91.733 128.8,96 c 9.737,2.434 16.697,9.499 24.401,17.318 12.55,12.739 27.074,27.482 58.799,27.482 34.133,0 55.467,-17.067 64,-51.2 -12.8,17.067 -27.733,23.467 -44.8,19.2 -9.737,-2.434 -16.697,-9.499 -24.401,-17.318 C 194.249,78.743 179.725,64 148,64 Z m -64,76.8 c -34.133,0 -55.467,17.067 -64,51.2 12.8,-17.067 27.733,-23.467 44.8,-19.2 9.737,2.434 16.697,9.499 24.401,17.318 12.55,12.739 27.074,27.482 58.799,27.482 34.133,0 55.467,-17.067 64,-51.2 -12.8,17.067 -27.733,23.467 -44.8,19.2 -9.737,-2.434 -16.697,-9.499 -24.401,-17.318 C 130.249,155.543 115.725,140.8 84,140.8 Z"
     fill="url(#a)"
     id="path142"
     style="fill:url(#a)" />
</svg>
