<?xml version="1.0" encoding="UTF-8" standalone="no"?>
<svg
   width="512"
   height="512"
   viewBox="0 0 512 512"
   fill="none"
   version="1.1"
   id="svg506"
   sodipodi:docname="tauri.svg"
   inkscape:version="1.2 (dc2aedaf03, 2022-05-15)"
   xmlns:inkscape="http://www.inkscape.org/namespaces/inkscape"
   xmlns:sodipodi="http://sodipodi.sourceforge.net/DTD/sodipodi-0.dtd"
   xmlns="http://www.w3.org/2000/svg"
   xmlns:svg="http://www.w3.org/2000/svg">
  <defs
     id="defs510" />
  <sodipodi:namedview
     id="namedview508"
     pagecolor="#ffffff"
     bordercolor="#666666"
     borderopacity="1.0"
     inkscape:showpageshadow="2"
     inkscape:pageopacity="0.0"
     inkscape:pagecheckerboard="0"
     inkscape:deskcolor="#d1d1d1"
     showgrid="false"
     inkscape:zoom="0.91472868"
     inkscape:cx="-33.88983"
     inkscape:cy="151.95763"
     inkscape:window-width="1920"
     inkscape:window-height="1017"
     inkscape:window-x="1912"
     inkscape:window-y="-8"
     inkscape:window-maximized="1"
     inkscape:current-layer="svg506" />
  <g
     id="g633"
     transform="translate(0.59984412,-0.77213755)">
    <path
       d="m 342.18163,189.47039 c 0,25.95968 -21.06839,47.00423 -47.05804,47.00423 -25.98927,0 -47.05765,-21.04455 -47.05765,-47.00423 0,-25.95967 21.06838,-47.00422 47.05765,-47.00422 25.98965,0 47.05804,21.04455 47.05804,47.00422 z"
       fill="#ffc131"
       id="path492"
       style="stroke-width:3.84354" />
    <ellipse
       cx="-215.98044"
       cy="-324.07318"
       rx="47.058033"
       ry="47.004223"
       transform="scale(-1)"
       fill="#24c8db"
       id="ellipse494"
       style="stroke-width:3.84354" />
    <path
       fill-rule="evenodd"
       clip-rule="evenodd"
       d="m 392.65272,340.20069 c -18.99017,12.25937 -40.03203,20.76897 -61.99058,25.19481 4.49503,-12.94505 6.93683,-26.84868 6.93683,-41.32193 0,-5.24989 -0.32132,-10.42484 -0.94513,-15.506 9.44743,-3.28662 18.51742,-7.69977 27.00397,-13.17836 20.42112,-13.18335 36.59706,-31.97597 46.58374,-54.11977 9.98706,-22.14419 13.36054,-46.69751 9.71378,-70.71005 C 416.30935,146.54686 405.79918,124.09634 389.68782,105.906 373.57684,87.716053 352.54958,74.559221 329.13357,68.017127 305.71716,61.475032 280.90786,61.825948 257.68633,69.027594 234.4648,76.228856 213.81921,89.974903 198.2298,108.6134 c -1.99672,2.38722 -3.89966,4.84209 -5.70613,7.35807 -24.05673,2.66973 -47.35667,9.47049 -68.90396,19.99027 7.0137,-22.42746 18.40058,-43.364388 33.61678,-61.557029 22.18493,-26.523983 51.56497,-46.085348 84.61098,-56.333618 33.04602,-10.2482725 68.35127,-10.7474796 101.6744,-1.437638 33.32313,9.309829 63.24627,28.032649 86.17223,53.918872 22.93058,25.886262 37.8858,57.834563 43.07459,92.005963 5.18878,34.17179 0.38819,69.11305 -13.82523,100.62549 -14.20958,31.51282 -37.22855,58.2562 -66.29074,77.01691 z m -266.89331,-171.50811 44.04739,5.40364 c 1.04852,-8.52728 2.96145,-16.88391 5.68575,-24.94805 -17.47006,4.0042 -34.23482,10.59665 -49.73314,19.54441 z"
       fill="#ffc131"
       id="path496"
       style="stroke-width:3.84354" />
    <path
       fill-rule="evenodd"
       clip-rule="evenodd"
       d="m 118.14727,173.34327 c 19.13278,-12.35122 40.34836,-20.89657 62.48563,-25.29397 -5.00467,13.57501 -7.73705,28.24773 -7.73705,43.55772 0,4.57958 0.24445,9.10189 0.72105,13.55464 -9.25717,3.26701 -18.1469,7.61675 -26.47471,12.99309 -20.42113,13.18336 -36.59706,31.97597 -46.58374,54.11978 -9.987059,22.14419 -13.360153,46.69751 -9.713783,70.71004 3.645984,24.01254 14.156153,46.46305 30.267513,64.65301 16.11098,18.19148 37.13785,31.34793 60.55425,37.88964 23.4164,6.54171 48.2257,6.19195 71.44724,-1.01085 23.22153,-7.2028 43.86712,-20.94731 59.45653,-39.58465 2.00672,-2.40221 3.91849,-4.86592 5.73341,-7.39882 24.07673,-2.7097 47.38474,-9.55581 68.93164,-20.1271 -7.0087,22.49472 -18.41557,43.492 -33.67174,61.73345 -22.18493,26.52429 -51.56536,46.08408 -84.61099,56.33481 -33.04601,10.24689 -68.35164,10.74655 -101.67439,1.43749 C 133.955,487.60249 104.03186,468.87675 81.10436,442.99048 58.176973,417.10422 43.220325,385.15708 38.031669,350.98567 32.843009,316.81389 37.643049,281.87262 51.855037,250.3598 66.067036,218.84736 89.086246,192.10399 118.14727,173.34327 Z m 266.64118,171.47736 h -3.8e-4 c -0.38167,0.22062 -0.7641,0.4397 -1.1473,0.65725 0.3832,-0.21755 0.76602,-0.43663 1.14768,-0.65725 z m -45.85385,18.62658 c -1.19765,0.30287 -2.39799,0.59344 -3.60102,0.87172 0,0 -3.8e-4,0 -3.8e-4,3.8e-4 1.2038,-0.27827 2.40452,-0.56923 3.6014,-0.8721 z"
       fill="#24c8db"
       id="path498"
       style="stroke-width:3.84354" />
  </g>
</svg>
