<svg xmlns="http://www.w3.org/2000/svg" xml:space="preserve" style="fill-rule:evenodd;clip-rule:evenodd;stroke-miterlimit:5" viewBox="0 0 1080 1080"><path d="M-827.3 823.5-1169 412.8l138-136.3h441.1l128.4 134.7z" style="fill:#142641;fill-opacity:1;stroke:none;stroke-width:.818182px;stroke-linecap:butt;stroke-linejoin:miter;stroke-opacity:1" transform="translate(1690.1 -219)scale(1.40783)"/><path d="M-878.2-200.4h-325v95.7h449v-24.8z" style="opacity:1;fill:#274d82;fill-opacity:1;stroke:none;stroke-width:44.1948;stroke-linecap:round;stroke-dasharray:none;stroke-opacity:1;paint-order:stroke fill markers" transform="rotate(-29.8 433.049 -3289.254)scale(1.40783)"/><path d="m-1135.5 414.5 130.4-128.9 393.7 1.4 13.9 18h-399.3l-129 124.8Z" style="fill:#000;fill-opacity:.195;stroke:none;stroke-width:1px;stroke-linecap:butt;stroke-linejoin:miter;stroke-opacity:1;filter:url(#a)" transform="translate(1690.1 -219)scale(1.40783)"/><path d="m-583 292.5-102.7 59.4 6.5 11.6-344.6 199.4 43.5 77L-525 376.5l-43.5-77-7.8 4.5z" style="opacity:1;fill:#274d82;fill-opacity:1;stroke:none;stroke-width:47.4492;stroke-linecap:round;stroke-dasharray:none;stroke-opacity:1;paint-order:stroke fill markers" transform="translate(1690.1 -219)scale(1.40783)"/><path d="M-774 596.7v12l-192.6-.7-.2 43.5 32.4.1-.1 38.1 223.6 1 .1-38.2 35 .2.2-43.1h21.4v-12.4z" style="opacity:1;fill:#274d82;fill-opacity:1;stroke:none;stroke-width:31.6877;stroke-linecap:round;stroke-dasharray:none;stroke-opacity:1;paint-order:stroke fill markers" transform="translate(1690.1 -219)scale(1.40783)"/><path d="m-1151.2 411.8 140-136H-612l133 137.3-348 391z" style="fill:none;stroke:#3068b7;stroke-width:35;stroke-linecap:butt;stroke-linejoin:miter;stroke-dasharray:none;stroke-opacity:1" transform="translate(1690.1 -219)scale(1.40783)"/><defs><filter id="a" width="1" height="1.1" x="0" y="0" style="color-interpolation-filters:sRGB"><feGaussianBlur stdDeviation="2.3"/></filter></defs></svg>