<?xml version="1.0" encoding="UTF-8" standalone="no"?>
<svg
   width="256"
   height="264"
   preserveAspectRatio="xMidYMid"
   version="1.1"
   id="svg19"
   xmlns="http://www.w3.org/2000/svg"
   xmlns:svg="http://www.w3.org/2000/svg">
  <defs
     id="defs7">
    <linearGradient
       x1="177.95136"
       y1="112.13125"
       x2="145.28142"
       y2="174.30675"
       id="a"
       gradientTransform="scale(1.0487933,0.95347672)"
       gradientUnits="userSpaceOnUse">
      <stop
         stop-color="#FF1639"
         offset="0%"
         id="stop2" />
      <stop
         stop-color="#FF1639"
         stop-opacity="0"
         offset="100%"
         id="stop4" />
    </linearGradient>
  </defs>
  <g
     fill="none"
     fill-rule="evenodd"
     id="g17"
     transform="matrix(1.1971608,0,0,1.1971608,-22.410271,15.661017)">
    <path
       d="m 156.377,4.834 c 1.575,1.956 2.379,4.595 3.986,9.874 l 35.105,115.32 a 146.081,146.081 0 0 0 -41.97,-14.209 l -22.857,-77.24 a 2.975,2.975 0 0 0 -5.708,0.008 l -22.58,77.193 A 146.086,146.086 0 0 0 60.194,130.01 L 95.471,14.682 c 1.612,-5.27 2.418,-7.904 3.994,-9.857 A 12.97,12.97 0 0 1 104.72,0.936 C 107.048,0 109.804,0 115.315,0 h 25.196 c 5.518,0 8.277,0 10.607,0.938 a 13.016,13.016 0 0 1 5.259,3.896 z"
       fill="#000000"
       id="path9" />
    <path
       d="m 160.577,135.516 c -5.787,4.949 -17.338,8.324 -30.643,8.324 -16.33,0 -30.017,-5.084 -33.65,-11.922 -1.298,3.92 -1.589,8.404 -1.589,11.269 0,0 -0.856,14.068 8.929,23.852 a 9.199,9.199 0 0 1 9.2,-9.198 c 8.707,0 8.697,7.596 8.69,13.76 l -10e-4,0.55 c 0,9.355 5.718,17.375 13.85,20.757 a 18.86,18.86 0 0 1 -1.896,-8.268 c 0,-8.923 5.238,-12.246 11.326,-16.108 4.845,-3.072 10.227,-6.485 13.936,-13.332 a 25.145,25.145 0 0 0 3.034,-12.013 25.24,25.24 0 0 0 -1.186,-7.67 z"
       fill="#ff5d01"
       id="path11" />
    <path
       d="m 160.577,135.516 c -5.787,4.949 -17.338,8.324 -30.643,8.324 -16.33,0 -30.017,-5.084 -33.65,-11.922 -1.298,3.92 -1.589,8.404 -1.589,11.269 0,0 -0.856,14.068 8.929,23.852 a 9.199,9.199 0 0 1 9.2,-9.198 c 8.707,0 8.697,7.596 8.69,13.76 l -10e-4,0.55 c 0,9.355 5.718,17.375 13.85,20.757 a 18.86,18.86 0 0 1 -1.896,-8.268 c 0,-8.923 5.238,-12.246 11.326,-16.108 4.845,-3.072 10.227,-6.485 13.936,-13.332 a 25.145,25.145 0 0 0 3.034,-12.013 25.24,25.24 0 0 0 -1.186,-7.67 z"
       fill="url(#a)"
       id="path13"
       style="fill:url(#a)" />
  </g>
</svg>
