<?xml version="1.0" encoding="UTF-8" standalone="no"?>
<svg
   width="256"
   height="256"
   version="1.1"
   id="svg51"
   sodipodi:docname="python.svg"
   inkscape:version="1.2 (dc2aedaf03, 2022-05-15)"
   xmlns:inkscape="http://www.inkscape.org/namespaces/inkscape"
   xmlns:sodipodi="http://sodipodi.sourceforge.net/DTD/sodipodi-0.dtd"
   xmlns:xlink="http://www.w3.org/1999/xlink"
   xmlns="http://www.w3.org/2000/svg"
   xmlns:svg="http://www.w3.org/2000/svg">
  <sodipodi:namedview
     id="namedview53"
     pagecolor="#ffffff"
     bordercolor="#666666"
     borderopacity="1.0"
     inkscape:showpageshadow="2"
     inkscape:pageopacity="0.0"
     inkscape:pagecheckerboard="0"
     inkscape:deskcolor="#d1d1d1"
     showgrid="false"
     inkscape:zoom="1.2291667"
     inkscape:cx="115.52542"
     inkscape:cy="105.76271"
     inkscape:window-width="1920"
     inkscape:window-height="1017"
     inkscape:window-x="1912"
     inkscape:window-y="-8"
     inkscape:window-maximized="1"
     inkscape:current-layer="svg51" />
  <defs
     id="defs27">
    <linearGradient
       id="lg1">
      <stop
         stop-color="#3778ae"
         offset="0"
         id="stop2" />
      <stop
         stop-color="#366c99"
         offset="1"
         id="stop4" />
    </linearGradient>
    <linearGradient
       id="lg2">
      <stop
         stop-color="#fff"
         offset="0"
         id="stop7" />
      <stop
         stop-color="#fff"
         stop-opacity="0.165"
         offset="1"
         id="stop9" />
    </linearGradient>
    <linearGradient
       id="lg3">
      <stop
         stop-color="#ffe253"
         offset="0"
         id="stop12" />
      <stop
         stop-color="#ffca1c"
         offset="1"
         id="stop14" />
    </linearGradient>
    <linearGradient
       id="lg4">
      <stop
         stop-color="#000"
         offset="0"
         id="stop17" />
      <stop
         stop-color="#000"
         stop-opacity="0"
         offset="1"
         id="stop19" />
    </linearGradient>
    <linearGradient
       x1="94.693001"
       y1="112.511"
       x2="94.693001"
       y2="64.053001"
       id="lg5"
       xlink:href="#lg2"
       gradientUnits="userSpaceOnUse"
       gradientTransform="matrix(1.6590636,0,0,1.6590636,-67.49479,-75.092206)" />
    <linearGradient
       x1="59.728001"
       y1="102"
       x2="142.62"
       y2="102"
       id="lg6"
       xlink:href="#lg1"
       gradientUnits="userSpaceOnUse"
       gradientTransform="matrix(1.6590636,0,0,1.6590636,-67.49479,-75.092206)" />
    <linearGradient
       x1="94.693001"
       y1="112.511"
       x2="94.693001"
       y2="64.053001"
       id="lg7"
       xlink:href="#lg2"
       gradientUnits="userSpaceOnUse"
       gradientTransform="matrix(1.6590636,0,0,1.6590636,-15.537276,-21.333936)" />
    <linearGradient
       x1="119.191"
       y1="89.129997"
       x2="116.965"
       y2="169.27901"
       id="lg8"
       xlink:href="#lg3"
       gradientUnits="userSpaceOnUse"
       gradientTransform="matrix(1.6590636,0,0,1.6590636,-62.854376,-68.45835)" />
    <radialGradient
       cx="15.115"
       cy="63.965"
       r="12.289"
       fx="15.115"
       fy="63.965"
       id="rg1"
       xlink:href="#lg4"
       gradientUnits="userSpaceOnUse"
       gradientTransform="matrix(7.5011775,0,0,2.5867529,13.121886,38.58697)" />
  </defs>
  <path
     d="m 218.68122,204.04958 a 92.179158,31.788584 0 0 1 -184.358309,0 92.179158,31.788584 0 1 1 184.358309,0 z"
     fill="url(#rg1)"
     id="path29"
     style="fill:url(#rg1);stroke-width:4.68823" />
  <path
     d="m 173.76136,192.09739 c 0,12.8078 -11.11581,19.29491 -22.39757,22.53026 -16.97236,4.87764 -30.59309,4.1308 -44.77782,0 -11.846231,-3.45148 -22.397575,-10.50259 -22.397575,-22.53026 v -42.25601 c 0,-12.16128 10.136434,-22.54666 22.397575,-22.54666 l 44.06192,-2.86498 c 14.91516,0 24.66293,-9.3099 24.66293,-24.589798 l 4.05767,-20.426172 h 16.78999 c 13.03985,0 19.1791,9.689172 22.39757,22.52978 4.47961,17.83545 4.67792,31.17443 0,45.07739 -4.52931,13.50446 -9.37648,22.52978 -22.39757,22.52978 h -22.39712 -44.77827 v -0.0938 c 38.64231,0.0938 44.77827,-15.54806 44.77827,22.63528 z"
     fill="url(#lg8)"
     id="path31"
     style="fill:url(#lg8);stroke-width:4.68823" />
  <path
     d="m 145.77259,194.90143 c 0,-4.66199 3.76606,-8.44493 8.39476,-8.44493 4.68823,0 8.39475,3.78294 8.39475,8.44493 0,4.67838 -3.74918,8.46085 -8.39475,8.46085 -4.6287,0 -8.39476,-3.78247 -8.39476,-8.46085 z"
     fill="#ffffff"
     id="path33"
     style="stroke-width:4.68823" />
  <path
     d="M 179.32067,79.411425 V 99.226252 C 163.32863,127.34113 132.9484,127.39598 107.46314,127.39598 l -9.456171,0.96203 c -13.287397,11.42242 -13.710275,29.75295 -13.700431,45.83032 29.302412,-32.6967 60.559812,-35.16365 76.153822,-35.09332 31.11911,0.13596 45.77501,-7.51478 60.63718,-24.35023 -0.075,-0.32818 0.075,-0.61885 0,-0.95499 -0.5729,-3.75059 -1.57618,-7.75622 -2.62588,-11.93625 -1.50867,-6.019228 -3.48242,-11.317868 -6.68402,-15.278488 -0.075,-0.075 -0.17815,-0.1594 -0.2391,-0.23441 0,0 -0.1969,0 -0.23441,0 -0.10783,-0.13127 -0.13127,-0.35162 -0.23441,-0.47398 -0.22035,-0.1594 -0.24379,-0.32818 -0.47351,-0.47352 -0.075,-0.07501 -0.18284,0.075 -0.23441,0 -3.39475,-2.200185 -7.51806,-3.842005 -11.69809,-4.536333 -3.78857,-0.626349 -7.59119,-1.103611 -11.45899,-1.432256 h -2.38725 -5.49039 z"
     opacity="0.837"
     fill="url(#lg7)"
     id="path35"
     style="fill:url(#lg7);stroke-width:4.68823" />
  <path
     d="m 176.00515,192.09505 c 0,12.80825 -13.36007,19.29678 -24.64136,22.53165 -16.97142,4.87578 -30.59075,4.13034 -44.77735,0 -11.847171,-3.45053 -22.508218,-10.50164 -22.526971,-22.52697 l -0.07501,-43.40368 c -0.04689,-14.40695 10.79232,-23.48806 22.733251,-23.44119 l 39.69389,0.0704 c 15.23677,0 30.0516,-15.47119 30.0094,-30.707948 V 79.44143 h 19.73748 c 13.03985,0 19.17488,9.690582 22.39569,22.53166 4.48196,17.83405 4.68824,31.17207 0,45.07739 -4.52883,13.50211 -9.37647,24.13316 -22.39569,24.13503 h -20.15942 -47.02301 v -0.0938 l 47.02301,0.15941 z"
     fill="none"
     stroke="#bb9400"
     stroke-width="7.64182"
     id="path37" />
  <path
     d="m 180.2541,83.2314 v 11.220352 c 0,17.461338 -16.39242,34.579018 -35.07222,34.579018 h -38.67373 c -13.364291,0 -18.839209,10.11205 -18.772636,20.80593 l 0.262541,42.2546 c 0.04689,4.89733 1.875294,8.549 5.382094,11.69761 3.5068,3.14816 8.779191,5.54619 14.323971,7.16222 13.67277,3.98125 26.1416,4.69855 42.49323,0 5.31037,-1.52274 12.37413,-4.40741 15.92875,-7.4843 3.55415,-3.07782 6.13081,-6.07642 6.13081,-11.37553 v -17.01736 h -47.12615 v -7.87389 l 71.1407,0.23441 c 5.62963,0 8.38257,-2.21473 11.17862,-5.45383 2.79607,-3.23957 5.22692,-9.59635 7.44211,-16.20254 4.4332,-13.17207 4.37694,-25.54667 0,-42.97143 -1.52461,-6.084388 -3.73933,-10.999068 -6.68402,-14.323498 -2.94421,-3.324428 -6.36193,-5.251762 -11.93671,-5.251762 z m 7.63901,7.639012 h 8.37647 c 2.43883,0 5.6226,1.96625 6.20723,2.62635 1.69948,1.91889 3.65682,5.80685 5.01359,11.219878 4.17019,16.60385 4.17957,26.9644 0.23442,38.67373 -2.11768,6.31505 -4.31552,12.25599 -5.96766,14.06471 -1.49273,1.59165 -4.68823,2.38772 -5.49133,2.38772 l -22.44024,-0.2391 h -56.33994 v 23.15238 h 47.12615 v 9.37648 c 0,3.40834 -4.56306,5.52696 -5.34834,6.20675 -2.28411,1.97797 -6.33287,3.91889 -10.98125,5.25176 -15.11019,4.34319 -25.7853,3.68448 -38.43604,0 -4.78715,-1.39475 -8.93624,-3.44069 -11.284111,-5.43601 -2.34787,-1.99531 -2.49227,-3.62916 -2.92452,-6.02439 l -0.26254,-42.2546 c -0.0609,-9.48148 3.02719,-13.16643 11.133621,-13.16643 h 38.67373 c 23.08159,0 42.71123,-20.39477 42.71123,-42.218508 4.7e-4,-1.20675 -4.7e-4,-2.41397 -4.7e-4,-3.62072 z"
     opacity="0.384"
     fill="#ffffff"
     id="path39"
     style="stroke-width:4.68823" />
  <path
     d="m 79.547979,50.233251 c 0,-12.807792 3.433665,-19.775916 22.396641,-23.09425 12.87483,-2.256448 29.38258,-2.538211 44.77875,0 12.16081,2.007502 22.39757,11.066112 22.39757,23.09425 v 42.256941 c 0,12.392878 -9.93811,22.546198 -22.39757,22.546198 l -40.60997,2.24472 c -15.196451,0 -30.890787,13.27756 -30.890787,27.92782 L 73.939911,162.9164 H 58.543744 c -13.02345,0 -20.605265,-9.39007 -23.790453,-22.52978 -4.297237,-17.65168 -4.114396,-28.17067 0,-45.075978 3.56681,-14.749661 14.964849,-22.530726 26.722945,-22.530726 h 16.806389 c 0,0 41.935335,-0.164089 0,-0.150024 v -22.396172 0 z"
     fill="url(#lg6)"
     id="path41"
     style="fill:url(#lg6);stroke-width:4.68823" />
  <path
     d="m 90.746299,47.429217 c 0,-4.688236 3.75059,-8.461328 8.39476,-8.461328 4.628691,0 8.395221,3.782468 8.395221,8.461328 0,4.661982 -3.76653,8.444451 -8.395221,8.444451 -4.64511,0 -8.39476,-3.782469 -8.39476,-8.444451 z"
     fill="#ffffff"
     id="path43"
     style="stroke-width:4.68823" />
  <path
     d="m 120.48847,25.271208 c -6.62636,0.160337 -12.98829,0.922644 -18.62074,1.909518 C 82.904756,30.49906 79.666591,37.529538 79.666591,50.33733 l -1.383966,22.442586 -15.56635,-0.0014 c -13.023451,0 -24.363825,7.69152 -27.930635,22.439776 -2.421474,9.950778 -3.518052,17.741218 -3.104082,26.021568 29.500257,-33.436018 61.154291,-35.879528 76.870662,-35.808728 31.11863,0.13595 45.77453,-7.514778 60.63671,-24.350233 V 50.338267 c 0,-12.027668 -10.27943,-21.148632 -22.44025,-23.156134 -8.66011,-1.428975 -17.74075,-2.117207 -26.26021,-1.910925 z"
     opacity="0.377"
     fill="url(#lg5)"
     id="path45"
     style="fill:url(#lg5);stroke-width:4.68823" />
  <path
     d="m 101.63567,28.232297 c 16.97188,-4.87764 30.59308,-4.130804 44.77734,0 11.84623,3.451011 22.40367,10.501649 22.39758,22.530256 v 45.623569 c 0,6.405058 -9.2574,21.234418 -22.37508,21.234418 h -41.71967 c -11.712621,0 -28.115355,12.75998 -28.115355,28.04034 v 17.78576 H 56.863012 c -13.040329,0 -19.179105,-9.68918 -22.397578,-22.53072 -4.479611,-17.83452 -4.688237,-31.17349 0,-45.076448 C 38.994738,82.33454 43.841906,71.705841 56.863012,71.705841 H 77.015394 124.0384 v 0.08908 l -47.023006,-0.159403 0.08908,-22.847181 c -0.121894,-9.360063 11.320214,-16.65449 24.530259,-20.55557 z"
     fill="none"
     stroke="#274e70"
     stroke-width="7.64182"
     id="path47" />
  <path
     d="m 72.745349,159.62807 v -13.1083 c 0,-17.4618 15.917967,-32.9522 33.033781,-32.9522 h 40.71217 c 10.10268,0 18.86546,-10.50681 18.77264,-20.544318 l -0.39101,-42.255073 c -0.0455,-4.896863 -1.74495,-8.548998 -5.25222,-11.697617 -3.50634,-3.14862 -8.7792,-5.546653 -14.3235,-7.16175 -13.67372,-3.982187 -26.14254,-4.699019 -42.4937,0 -5.309901,1.52274 -12.375071,4.406942 -15.928756,7.4843 -3.55462,3.077359 -6.130337,6.075954 -6.130337,11.375067 V 67.785538 H 127.8701 v 7.878111 l -71.140703,-0.2391 c -5.625883,0 -8.382566,2.214723 -11.17863,5.454294 -2.796064,3.238634 -5.226914,9.595409 -7.442106,16.202079 -4.433195,13.172058 -4.376468,25.546188 0,42.970958 1.524615,6.08439 3.739337,10.99906 6.684487,14.3235 2.944213,3.32489 6.361937,5.25222 11.936249,5.25222 h 16.015952 z m -7.639481,-7.63948 h -8.376471 c -2.437882,0 -5.625883,-1.96624 -6.206756,-2.62541 -1.699954,-1.91936 -3.657292,-5.80779 -5.014067,-11.22082 -4.170186,-16.60339 -4.179095,-26.96346 -0.236757,-38.673728 2.117677,-6.31411 4.315522,-12.25551 5.968124,-14.01735 1.492735,-1.590721 4.645574,-2.387252 5.490863,-2.387252 l 78.780176,0.2391 V 60.146058 H 88.385304 v -9.376472 c 0,-3.408348 4.562595,-5.526962 5.347875,-6.206756 2.28457,-1.977967 6.333331,-3.918897 10.981721,-5.250824 15.10971,-4.342245 25.78529,-3.684016 38.43557,0 4.78762,1.39475 8.93624,3.440696 11.21987,5.490862 0.81248,0.633849 1.24052,1.393812 1.91187,2.14815 0.93156,1.111111 0.72762,2.579608 0.94281,3.819505 v 42.255069 c 0,5.79326 -4.95312,12.905308 -10.74216,12.905308 h -40.71217 c -21.517597,0 -40.67326,18.76654 -40.67326,40.59121 0,1.81669 0,5.46648 0,5.46648 z"
     opacity="0.165"
     fill="#ffffff"
     id="path49"
     style="stroke-width:4.68823" />
</svg>
